<svg width="19" height="18" viewBox="0 0 19 18" fill="none" xmlns="http://www.w3.org/2000/svg">
    <path opacity="0.1" d="M3.90106 4.07812H10.3698V9.98438H3.90106V4.07812Z" fill="#52C41A"/>
    <path opacity="0.1" d="M11.6354 11.1094C11.6354 11.1867 11.5722 11.25 11.4948 11.25H9.52606V12.5332H15.4323V6.62695H11.6354V11.1094Z" fill="#52C41A"/>
    <path d="M16.1354 5.36133H11.6354V3.375C11.6354 3.06387 11.3841 2.8125 11.0729 2.8125H3.90106V2.10938C3.90106 2.03203 3.83778 1.96875 3.76044 1.96875H2.77606C2.69872 1.96875 2.63544 2.03203 2.63544 2.10938V15.8906C2.63544 15.968 2.69872 16.0312 2.77606 16.0312H3.76044C3.83778 16.0312 3.90106 15.968 3.90106 15.8906V11.25H8.26044V13.2363C8.26044 13.5475 8.5118 13.7988 8.82294 13.7988H16.1354C16.4466 13.7988 16.6979 13.5475 16.6979 13.2363V5.92383C16.6979 5.6127 16.4466 5.36133 16.1354 5.36133ZM3.90106 9.98438V4.07812H10.3698V9.98438H3.90106ZM15.4323 12.5332H9.52606V11.25H11.4948C11.5722 11.25 11.6354 11.1867 11.6354 11.1094V6.62695H15.4323V12.5332Z" fill="#52C41A"/>
</svg>
