<svg width="15" height="16" viewBox="0 0 15 16" fill="none" xmlns="http://www.w3.org/2000/svg">
    <path d="M13.8021 4.36133H9.30209V2.375C9.30209 2.06387 9.05073 1.8125 8.73959 1.8125H1.56772V1.10938C1.56772 1.03203 1.50444 0.96875 1.42709 0.96875H0.442719C0.365375 0.96875 0.302094 1.03203 0.302094 1.10938V14.8906C0.302094 14.968 0.365375 15.0312 0.442719 15.0312H1.42709C1.50444 15.0312 1.56772 14.968 1.56772 14.8906V10.25H5.92709V12.2363C5.92709 12.5475 6.17846 12.7988 6.48959 12.7988H13.8021C14.1132 12.7988 14.3646 12.5475 14.3646 12.2363V4.92383C14.3646 4.6127 14.1132 4.36133 13.8021 4.36133ZM1.56772 8.98438V3.07812H8.03647V8.98438H1.56772ZM13.099 11.5332H7.19272V10.25H9.16147C9.23881 10.25 9.30209 10.1867 9.30209 10.1094V5.62695H13.099V11.5332Z" fill="#1677FF"/>
</svg>
