<svg class="w-1/2 max-w-full m-auto " width="1268" height="313" viewBox="0 0 1268 313" xmlns="http://www.w3.org/2000/svg"><g transform="translate(0 .553)" fill="#D8D8D8" fill-rule="evenodd" opacity=".5"><path d="M153.617 44.712c11.694-10.152-4.879 8.197-3.386 11.384.995 2.125 4.098 3.151 9.307 3.078-5.544 5.038-8.237 8.884-8.078 11.538.112 1.864 2.958 2.711 8.538 2.54-7.6 3.305-11.497 6.69-11.694 10.151-.166 2.931 3.962 4.675 12.384 5.233-6.958 6.649-11.984 10.007-15.078 10.075-2.123.046.415 2.97 7.614 8.77-8.768 2.291-14.897 4.496-18.386 6.613-2.486 1.509.462 5.484 8.845 11.924l-20.693 4.997 7.076 9.54c-20.601 3.564-34.363 3.774-41.286.628 2.703 15.72 11.532 32.228 26.487 49.52a.497.497 0 0 1-.41.821l-1.2-.083-.617-.667c-16.325-17.71-25.602-35.023-27.83-51.94-7.88-6.677-10.729-18.51-8.758-32.026 1.622-11.128 6.51-23.397 14.546-34.874 18.442-26.337 50.926-17.07 62.62-27.222Zm-30.115 23.171-1.199-.084c-23.517 18.283-36.01 37.907-37.476 58.874a60.563 60.563 0 0 0 .383 12.161c.52.44 1.062.859 1.625 1.253a12.14 12.14 0 0 0 1.945 1.096c-.833-4.837-1.085-9.6-.757-14.287 1.393-19.92 13.312-39.308 35.756-58.16a.483.483 0 0 0-.277-.853ZM1146.277 139.712c-11.693-10.152 4.88 8.197 3.386 11.384-.995 2.125-4.097 3.151-9.307 3.078 5.545 5.038 8.238 8.884 8.079 11.538-.112 1.864-2.958 2.711-8.538 2.54 7.6 3.305 11.497 6.69 11.693 10.151.167 2.931-3.961 4.675-12.383 5.233 6.957 6.649 11.983 10.007 15.078 10.075 2.123.046-.415 2.97-7.614 8.77 8.768 2.291 14.896 4.496 18.385 6.613 2.487 1.509-.461 5.484-8.844 11.924l20.693 4.997-7.076 9.54c20.6 3.564 34.362 3.774 41.285.628-2.702 15.72-11.531 32.228-26.486 49.52a.497.497 0 0 0 .41.821l1.199-.083.617-.667c16.326-17.71 25.603-35.023 27.83-51.94 7.88-6.677 10.73-18.51 8.759-32.026-1.623-11.128-6.51-23.397-14.547-34.874-18.441-26.337-50.925-17.07-62.619-27.222Zm30.116 23.171 1.198-.084c23.518 18.283 36.01 37.907 37.476 58.874.282 4.03.154 8.084-.382 12.161-.52.44-1.062.859-1.625 1.253a12.14 12.14 0 0 1-1.946 1.096c.833-4.837 1.085-9.6.757-14.287-1.393-19.92-13.311-39.308-35.755-58.16a.483.483 0 0 1 .277-.853ZM1048.44 276.38c6.64 8.822-5.586-3.878-7.928-2.974-1.56.602-2.444 2.757-2.652 6.466-3.307-4.194-5.908-6.3-7.804-6.32-1.332-.013-2.075 1.97-2.23 5.947-1.974-5.57-4.187-8.51-6.64-8.822-2.076-.264-3.522 2.585-4.337 8.548-4.383-5.28-6.522-9.021-6.416-11.226.072-1.512-2.133.148-6.617 4.98-1.193-6.35-2.456-10.819-3.789-13.406-.95-1.843-3.923.056-8.92 5.698l-2.525-14.966-7.137 4.558c-1.511-14.83-.976-24.628 1.606-29.395l-.125.011c-11.281 1.169-23.419 6.623-36.413 16.364a.354.354 0 0 1-.564-.333l.12-.848.586-.472c13.378-10.688 26.126-16.404 38.245-17.145-.34.348-.664.712-.973 1.093a8.657 8.657 0 0 0-.876 1.33l.403-.04a42.33 42.33 0 0 1 9.796.211c14.1 1.982 27.296 11.423 39.588 28.324a.345.345 0 0 0 .62-.155l.12-.848c-11.834-17.636-25.17-27.497-40.01-29.582a43.18 43.18 0 0 0-8.668-.333c5.14-5.272 13.698-6.71 23.214-4.636 7.833 1.707 16.317 5.794 24.08 12.08 17.815 14.426 9.608 37.07 16.247 45.891ZM219.843 248.082c-4.518 8.51 4.286-4.104 6.426-3.646 1.428.306 2.484 2.043 3.169 5.211 2.277-4.065 4.232-6.236 5.863-6.511 1.146-.193 2.057 1.413 2.734 4.82.94-5.07 2.446-7.905 4.518-8.509 1.753-.51 3.388 1.747 4.904 6.774 3.057-5.148 4.39-8.664 3.997-10.55-.269-1.293 1.859-.164 6.382 3.389.162-5.636.64-9.66 1.436-12.07.566-1.719 3.388-.488 8.465 3.692l.134-13.243 6.772 2.954c-.722-12.986-2.52-21.358-5.397-25.114 9.909-.561 21.15 2.48 33.725 9.126a.31.31 0 0 0 .44-.364l-.219-.715-.636-.364c-12.962-7.359-24.707-10.531-35.234-9.518.34.253.67.523.988.81.324.291.636.633.936 1.025a37.01 37.01 0 0 0-8.766 1.541c-11.88 3.632-21.964 13.57-30.25 29.813a.3.3 0 0 1-.556-.048l-.219-.715c7.791-16.814 17.939-27.133 30.443-30.956a37.677 37.677 0 0 1 7.424-1.47c-5.15-3.842-12.72-3.913-20.638-.827-6.518 2.54-13.271 7.22-19.103 13.698-13.384 14.864-3.22 33.258-7.738 41.767ZM74.344 299.713c.59 4.838-.222 2.613-1.385-.251l-.124-.304c-.083-.203-.168-.41-.254-.615l-.13-.307-.131-.306c-.727-1.674-1.509-3.183-2.142-3.283-1.28-.2-2.708.903-4.283 3.31-.595-4.093-1.524-6.513-2.788-7.26-.888-.525-2.154.517-3.799 3.124.833-4.5.488-7.329-1.037-8.488-1.29-.981-3.363.37-6.22 4.054-.895-5.239-.88-8.577.045-10.014.634-.987-1.488-.727-6.367.777 1.659-4.721 2.542-8.208 2.65-10.459.077-1.604-2.653-1.482-8.19.367l4.102-11.016-6.552.293c4.73-10.531 8.883-16.896 12.461-19.094-8.031-3.618-18.315-4.673-30.85-3.166a.274.274 0 0 1-.248-.442l.408-.522.718-.11c13.049-1.96 23.766-.85 32.151 3.331 5.49-1.545 11.786.804 17.365 5.88 4.594 4.178 8.701 10.205 11.474 17.428 6.362 16.575-7.911 28.585-6.874 37.073Zm-1.309-20.942.409-.523c-1.108-16.412-6.234-28.19-15.38-35.336a33.443 33.443 0 0 0-5.685-3.58c-.362.102-.721.22-1.076.357a6.705 6.705 0 0 0-1.103.552 32.823 32.823 0 0 1 6.775 4.065c8.69 6.79 13.884 18.232 15.585 34.329a.267.267 0 0 0 .475.136ZM1003.843 80.082c-4.518 8.51 4.286-4.104 6.426-3.646 1.428.306 2.484 2.043 3.169 5.211 2.277-4.065 4.232-6.236 5.863-6.511 1.146-.193 2.057 1.413 2.734 4.82.94-5.07 2.446-7.905 4.518-8.509 1.753-.51 3.388 1.747 4.904 6.774 3.057-5.148 4.39-8.664 3.997-10.55-.269-1.293 1.859-.164 6.382 3.389.162-5.636.64-9.66 1.436-12.07.566-1.72 3.388-.488 8.465 3.692l.134-13.243 6.772 2.954c-.722-12.986-2.52-21.358-5.397-25.114 9.909-.561 21.15 2.48 33.725 9.126a.31.31 0 0 0 .44-.364l-.219-.715-.636-.364c-12.962-7.359-24.707-10.531-35.234-9.518.34.253.67.523.988.81.324.291.636.633.936 1.025a37.01 37.01 0 0 0-8.766 1.541c-11.88 3.632-21.964 13.57-30.25 29.813a.3.3 0 0 1-.556-.048l-.219-.715c7.791-16.814 17.939-27.133 30.443-30.956a37.677 37.677 0 0 1 7.424-1.47c-5.15-3.842-12.72-3.913-20.638-.827-6.518 2.54-13.271 7.22-19.103 13.698-13.384 14.864-3.22 33.258-7.738 41.767Z"/><circle cx="193.5" cy="67.947" r="9.5"/><circle cx="9.5" cy="191.947" r="9.5"/><circle cx="1258.5" cy="251.947" r="9.5"/><circle cx="25" cy="18.447" r="16"/><circle cx="1249" cy="50.447" r="16"/><circle cx="1085" cy="77.447" r="8"/></g></svg>