<svg width="256" height="256" viewBox="0 0 256 256" fill="none" xmlns="http://www.w3.org/2000/svg">
<path d="M122.738 18.9636C113.207 21.1983 104.82 25.673 97.5777 32.3876C97.5078 32.4502 97.42 32.4893 97.3267 32.4994C97.2334 32.5094 97.1393 32.4899 97.0577 32.4436C90.4177 28.7876 83.6177 34.0756 81.4417 40.3076C81.351 40.569 81.1697 40.6836 80.8977 40.6516C73.8177 39.8036 65.8737 42.7876 63.9537 50.3476C63.8844 50.6196 63.7217 50.8143 63.4657 50.9316C57.1777 53.8116 54.4337 59.1956 55.6497 66.0036C55.6977 66.2756 55.5831 66.4303 55.3057 66.4676C41.5297 68.2116 33.9377 80.9636 36.4897 94.3156C36.895 96.4383 37.7297 98.3956 38.9937 100.188C39.1484 100.401 39.1884 100.633 39.1137 100.884C37.4764 106.628 38.3137 111.918 41.6257 116.756C41.7804 116.974 41.8231 117.214 41.7537 117.476C40.7191 121.401 41.4177 124.793 43.8497 127.652" stroke="#DAB1A1" stroke-width="2"/>
<path d="M43.8496 127.652C44.0683 128.313 44.4043 128.777 44.8576 129.044C45.0798 129.178 45.3399 129.232 45.5936 129.196C47.7616 128.908 50.5376 128.076 51.0576 130.876" stroke="#CB9F92" stroke-width="2"/>
<path d="M51.0577 130.876C50.7964 131.836 50.3431 131.606 49.6977 130.188C49.5964 129.974 49.4284 129.868 49.1937 129.868L43.7937 129.98C43.5484 129.985 43.3324 130.062 43.1457 130.212C35.0897 136.876 35.1857 149.372 41.7857 156.972C47.0177 162.998 53.5777 165.014 61.4657 163.02C61.7217 162.95 61.9084 163.036 62.0257 163.276C71.4257 182.892 90.2257 194.7 111.178 198.628C111.53 198.692 111.586 198.854 111.346 199.116L110.922 199.588" stroke="#FEE7D8" stroke-width="2"/>
<path d="M110.922 199.587L103.098 200.515" stroke="#FDC6BC" stroke-width="2"/>
<path d="M103.098 200.516L101.034 200.996" stroke="#FBAEA9" stroke-width="2"/>
<path d="M101.034 200.996C88.0976 203.444 75.5856 210.044 71.9376 223.332C71.8963 223.478 71.9121 223.635 71.9817 223.771C72.0513 223.907 72.1697 224.013 72.3136 224.068L84.0736 228.476" stroke="#EBA1A5" stroke-width="2"/>
<path d="M157.994 202.764L152.762 201.34" stroke="#DA949B" stroke-width="2"/>
<path d="M152.762 201.34L146.562 200.348" stroke="#EBA1A5" stroke-width="2"/>
<path d="M146.562 200.347L139.794 199.523" stroke="#DAB1A1" stroke-width="2"/>
<path d="M139.794 199.524L143.786 198.196" stroke="#FFE3D3" stroke-width="2"/>
<path d="M143.786 198.196C164.25 194.052 182.122 181.948 191.874 163.188C191.947 163.047 192.069 162.938 192.217 162.879C192.365 162.821 192.53 162.817 192.682 162.868C205.114 167.188 217.586 155.34 217.058 143.004C216.855 138.289 215.066 133.935 211.69 129.94" stroke="#FDD4C5" stroke-width="2"/>
<path d="M211.69 129.94C213.509 126.436 213.826 122.876 212.642 119.26C212.551 118.977 212.602 118.721 212.794 118.492C219.477 110.497 220.941 101.545 217.186 91.6357C217.085 91.369 217.074 91.0943 217.154 90.8117C220.53 79.3317 219.25 62.8917 207.322 56.3797C207.071 56.241 207.026 56.0543 207.186 55.8197C208.935 53.2917 209.178 50.769 207.914 48.2517C205.402 43.2277 199.634 43.7796 195.226 45.0996C195.126 45.1306 195.02 45.1399 194.916 45.1272C194.812 45.1144 194.711 45.0798 194.621 45.0256C194.53 44.9713 194.452 44.8986 194.391 44.8122C194.33 44.7258 194.287 44.6275 194.266 44.5236C191.81 32.2676 179.218 16.4357 164.778 21.8117C164.663 21.8554 164.538 21.8688 164.414 21.8506C164.291 21.8325 164.174 21.7833 164.074 21.7077C162.618 20.5983 161.487 19.8623 160.682 19.4996C154.074 16.5023 147.05 15.4303 139.61 16.2837" stroke="#CB9F92" stroke-width="2"/>
<path d="M139.61 16.2839C134.346 16.0865 128.722 16.9799 122.738 18.9639" stroke="#D1A798" stroke-width="2"/>
<path d="M139.61 16.2837C150.303 16.289 157.17 20.641 160.21 29.3397C160.311 29.6277 160.514 29.753 160.818 29.7157C163.938 29.2944 166.829 29.8277 169.49 31.3157C169.601 31.3781 169.696 31.4653 169.768 31.5703C169.84 31.6753 169.887 31.7954 169.905 31.921C169.923 32.0466 169.911 32.1744 169.871 32.2942C169.831 32.4141 169.763 32.5228 169.674 32.6117L169.378 32.9077C169.17 33.1104 169.061 33.3584 169.05 33.6517L168.89 36.7877C168.874 37.097 168.749 37.3584 168.514 37.5717C165.922 39.8997 164.458 39.9157 163.434 43.7157C163.367 43.9517 163.212 44.1523 163.002 44.2757L161.994 44.8677C161.752 45.0069 161.57 45.232 161.482 45.4997C160.57 48.1237 158.482 48.0997 157.026 49.4997C154.994 51.4517 153.642 53.6037 151.082 55.9477C150.874 56.1397 150.629 56.2357 150.346 56.2357H149.546C149.279 56.2357 149.146 56.369 149.146 56.6357V57.3637C149.146 57.6037 149.026 57.7317 148.786 57.7477C148.018 57.7957 147.362 58.1824 146.818 58.9077C144.49 62.0197 141.106 63.8757 137.978 66.2917C136.01 67.8197 128.146 70.1877 128.322 73.1637C128.338 73.3877 128.237 73.5317 128.018 73.5957C126.146 74.1397 124.234 74.257 122.282 73.9477C114.063 72.657 105.818 71.553 97.5459 70.6357C92.0418 70.0277 86.8418 66.7557 85.1378 61.1557C85.0826 60.9797 84.9877 60.8186 84.8606 60.6851C84.7336 60.5515 84.5777 60.449 84.4051 60.3855C84.2325 60.3221 84.0479 60.2993 83.8656 60.3191C83.6832 60.3389 83.5081 60.4007 83.3539 60.4997L77.4979 64.2357C77.2664 64.3882 77.0744 64.5939 76.9378 64.8357C75.8898 66.6997 74.4579 67.4677 73.1779 69.1317C71.1139 71.8277 68.7538 72.6597 69.2898 76.8437C69.3165 77.089 69.2552 77.305 69.1059 77.4917C66.5405 80.6864 63.6045 82.8117 60.2979 83.8677" stroke="#9E482C" stroke-width="2"/>
<path d="M60.2979 83.8676C58.9326 82.0436 58.5113 80.169 59.0339 78.2436C59.9859 74.7716 62.6099 70.3396 66.0419 68.1796C68.9619 66.3396 69.9139 63.4916 70.2979 60.2116C70.4153 59.2623 71.3593 57.5476 73.13 55.0676C75.882 51.2116 80.7699 52.7076 83.8019 48.2276C83.8763 48.1171 83.9784 48.0281 84.098 47.9695C84.2175 47.9109 84.3504 47.8848 84.4833 47.8937C84.6162 47.9026 84.7444 47.9463 84.8551 48.0203C84.9657 48.0944 85.055 48.1962 85.1139 48.3156C86.5539 51.2356 88.6419 53.3956 91.5939 55.0916C103.802 62.1103 116.533 62.625 129.786 56.6356C136.626 53.5476 144.218 46.6116 142.834 38.5396C141.826 32.6196 136.778 28.5716 131.162 26.8596C129.519 26.3583 128.021 25.5716 126.666 24.4996C126.485 24.3609 126.362 24.1796 126.298 23.9556L125.33 20.6676C125.29 20.5335 125.21 20.4148 125.101 20.3276C124.993 20.2404 124.86 20.1888 124.722 20.1796C123.506 20.1049 122.845 19.6996 122.738 18.9636" stroke="#AD5A3B" stroke-width="2"/>
<path d="M211.69 129.94C209.738 128.772 207.567 128.454 205.178 128.988C204.927 129.046 204.727 129.18 204.578 129.388C202.274 132.652 201.634 136.932 199.402 139.788C199.242 139.99 199.042 140.041 198.802 139.94C197.89 139.55 197.402 138.913 197.338 138.028C196.978 132.876 196.146 110.1 192.33 107.244C184.386 101.308 181.122 96.9078 183.258 86.5398C183.586 84.9478 187.066 74.0517 181.986 75.8997C178.618 77.1157 174.066 79.8278 170.298 81.1318C156.61 85.8758 141.162 85.1318 126.538 85.2198" stroke="#CA7558" stroke-width="2"/>
<path d="M126.538 85.2196C118.965 85.3796 111.45 84.905 103.994 83.7956C95.6258 82.5636 89.7538 79.5556 83.2098 75.3316C82.7764 75.052 82.2905 74.8637 81.7818 74.7784C81.2731 74.693 80.7523 74.7123 80.2513 74.8351C79.7503 74.9579 79.2797 75.1817 78.8681 75.4926C78.4566 75.8036 78.1128 76.1952 77.8579 76.6436C73.9779 83.4516 72.2339 87.8276 65.0739 91.7076C64.8361 91.8318 64.649 92.0387 64.5458 92.2916L62.5059 97.2036" stroke="#CC8466" stroke-width="2"/>
<path d="M62.5056 97.2036C58.6816 110.004 56.8496 123.086 57.0096 136.452C57.0203 137.614 57.0043 138.246 56.9616 138.348C56.1509 140.278 55.2389 140.326 54.2256 138.492C52.8709 136.017 51.815 133.478 51.0576 130.876" stroke="#CB886C" stroke-width="2"/>
<path d="M43.8496 127.652C46.4309 128.601 48.0576 128.196 48.7296 126.436C48.8802 126.051 48.9027 125.627 48.7936 125.228C47.7643 121.329 48.1589 117.588 49.9776 114.004C51.6576 110.692 51.5296 107.62 51.5536 104.052C51.5589 103.752 51.6695 103.465 51.8656 103.244C52.6763 102.337 53.6816 101.801 54.8816 101.636C55.1269 101.604 55.3056 101.478 55.4176 101.26C57.0176 98.1157 55.3536 95.3877 56.0576 92.2837C56.7456 89.2517 59.5616 87.4757 60.2976 83.8677" stroke="#A75235" stroke-width="2"/>
<path d="M126.538 85.2195C129.114 85.5235 127.426 87.2595 127.698 88.9475" stroke="#FDB899" stroke-width="2"/>
<path d="M127.698 88.9474C117.266 89.3741 107.079 88.5127 97.1378 86.3634C91.1138 85.0674 85.0658 82.5154 79.2098 80.1074C78.9378 79.9954 78.7085 80.054 78.5219 80.2834C76.2659 83.0514 74.8979 86.6834 72.9219 89.0994C70.3672 92.214 67.5405 95.078 64.4418 97.6914C64.2232 97.8727 63.9885 97.902 63.7378 97.7794L62.5059 97.2034" stroke="#FFCCAD" stroke-width="2"/>
<path d="M143.786 198.196C150.586 195.444 155.255 193.281 157.794 191.708C164.706 187.436 169.236 181.372 171.386 173.516" stroke="#FDB899" stroke-width="2"/>
<path d="M171.386 173.515C178.34 172.363 183.452 168.529 186.722 162.011C187.314 160.838 187.487 159.051 187.242 156.651C187.215 156.379 187.068 156.227 186.802 156.195C182.322 155.659 177.13 156.427 172.386 156.827" stroke="#FC9C82" stroke-width="2"/>
<path d="M172.386 156.828L173.29 149.284" stroke="#FDB899" stroke-width="2"/>
<path d="M173.29 149.284C175.183 143.342 174.884 137.884 172.394 132.908" stroke="#FDD4C5" stroke-width="2"/>
<path d="M172.394 132.908C172.538 131.286 172.255 129.878 171.546 128.684C171.407 128.454 171.218 128.278 170.978 128.156C169.722 127.524 169.874 125.684 169.618 124.468C169.178 122.428 167.818 121.884 168.514 119.196" stroke="#FDB899" stroke-width="2"/>
<path d="M168.514 119.196L176.714 123.428C176.828 123.487 176.954 123.518 177.08 123.518C177.207 123.518 177.331 123.487 177.442 123.428C179.25 122.476 178.01 120.452 177.338 119.18" stroke="#CA7558" stroke-width="2"/>
<path d="M177.338 119.18C178.154 119.18 178.109 118.526 177.202 117.22C177.045 116.989 176.951 116.721 176.93 116.444C176.482 110.308 173.306 91.8916 164.802 91.6996C161.026 91.6196 157.306 93.0036 153.538 91.3236C152.359 90.7956 151.242 90.5236 150.186 90.5076C142.946 90.3956 137.202 91.0356 129.338 89.2676" stroke="#FDB899" stroke-width="2"/>
<path d="M129.338 89.2677C128.319 89.3317 127.772 89.2251 127.698 88.9478" stroke="#FDBD9F" stroke-width="2"/>
<path d="M129.338 89.2676C129.316 89.4916 129.45 89.6889 129.738 89.8596C129.935 89.9769 130.028 90.1529 130.018 90.3876C129.932 91.6836 130.148 93.3796 130.666 95.4756C131.29 97.9929 131.388 101.932 130.962 107.292C130.956 107.35 130.983 107.388 131.042 107.404C131.106 107.42 131.172 107.438 131.242 107.46C131.263 107.466 131.281 107.48 131.294 107.499C131.307 107.517 131.314 107.54 131.314 107.564C131.335 109.51 131.38 111.454 131.45 113.396C131.506 115.004 131.202 117.06 131.45 118.964C131.684 120.825 131.775 122.19 131.722 123.06C131.37 129.006 130.956 134.95 130.482 140.892C130.314 142.996 132.05 147.66 129.602 148.516C129.319 148.612 129.146 148.809 129.082 149.108C128.842 150.174 128.287 150.996 127.418 151.572C127.167 151.737 127.154 151.924 127.378 152.132C127.628 152.361 127.943 152.465 128.322 152.444" stroke="#FFCCAD" stroke-width="2"/>
<path d="M128.322 152.444C131.394 156.14 127.65 162.06 124.33 163.564C124.104 163.667 123.913 163.835 123.782 164.047C123.651 164.258 123.586 164.503 123.593 164.752C123.601 165 123.682 165.241 123.826 165.444C123.969 165.646 124.17 165.802 124.402 165.892C126.364 166.639 128.295 166.473 130.194 165.396" stroke="#FDBD9F" stroke-width="2"/>
<path d="M130.194 165.396C132.578 166.22 131.93 168.172 131.946 170.124C131.948 170.258 131.977 170.39 132.031 170.512C132.085 170.634 132.162 170.744 132.258 170.836C132.615 171.182 132.735 171.649 132.618 172.236C132.573 172.456 132.59 172.684 132.665 172.896C132.74 173.108 132.871 173.295 133.044 173.438C133.218 173.581 133.427 173.674 133.649 173.708C133.871 173.741 134.098 173.713 134.306 173.628C135.837 173.004 137.485 172.766 139.25 172.916C139.524 172.937 139.799 172.899 140.058 172.804C141.69 172.206 143.028 172.254 144.074 172.948" stroke="#FFCCAD" stroke-width="2"/>
<path d="M144.074 172.948C131.988 175.796 119.81 175.564 107.538 172.252C107.505 172.242 107.471 172.24 107.438 172.245C107.404 172.249 107.372 172.261 107.343 172.279C107.313 172.297 107.288 172.321 107.268 172.349C107.248 172.377 107.233 172.41 107.226 172.444C106.282 176.98 110.746 182.427 114.346 184.723" stroke="#967A71" stroke-width="2"/>
<path d="M114.346 184.723C118.594 188.579 125.274 188.603 130.73 187.731" stroke="#FDAF96" stroke-width="2"/>
<path d="M130.73 187.732C129.839 190.228 127.628 191.566 124.098 191.748C123.916 191.758 123.764 191.7 123.642 191.572C123.199 191.129 122.671 191.009 122.058 191.212C121.876 191.276 121.786 191.404 121.786 191.596V192.876C121.786 193.169 121.682 193.417 121.474 193.62C120.103 194.964 119.844 197.025 120.698 199.804" stroke="#FFCCAD" stroke-width="2"/>
<path d="M120.698 199.803L111.082 199.523" stroke="#DA9A7B" stroke-width="2"/>
<path d="M111.082 199.523C111.029 199.545 110.975 199.566 110.922 199.587" stroke="#FDAF96" stroke-width="2"/>
<path d="M170.874 149.548C173.482 142.228 170.698 128.692 160.53 129.26" stroke="#89898C" stroke-width="2"/>
<path d="M177.338 119.18C171.858 111.404 162.13 105.284 152.546 106.82C146.218 107.836 145.322 116.268 151.506 117.548C152.156 117.686 153.62 117.513 155.898 117.028C160.175 116.116 164.38 116.838 168.514 119.196" stroke="#CC8466" stroke-width="2"/>
<path d="M172.394 132.908C171.37 131.217 170.023 129.849 168.354 128.804C168.108 128.649 167.839 128.566 167.546 128.556L160.698 128.292C160.623 128.289 160.549 128.302 160.48 128.33C160.411 128.358 160.348 128.399 160.296 128.452C160.244 128.504 160.204 128.567 160.178 128.636C160.152 128.705 160.141 128.778 160.146 128.852C160.162 129.134 160.29 129.27 160.53 129.26" stroke="#FFE3D3" stroke-width="2"/>
<path d="M160.53 129.26C149.346 132.188 148.45 150.82 157.73 155.948C163.082 158.908 168.714 154.764 170.874 149.548" stroke="#8A6D60" stroke-width="2"/>
<path d="M170.874 149.548C172.143 149.793 172.949 149.705 173.29 149.284" stroke="#FFE3D3" stroke-width="2"/>
<path d="M172.386 156.828C167.383 157.158 163.167 159.097 159.738 162.644C156.674 165.812 157.842 169.892 161.538 171.868C164.301 173.34 167.583 173.889 171.386 173.516" stroke="#FEAB90" stroke-width="2"/>
<path d="M139.794 199.524C136.508 199.396 133.092 199.566 129.546 200.036C127.999 200.238 125.05 200.161 120.698 199.804" stroke="#DA9676" stroke-width="2"/>
<path d="M130.729 187.732C133.508 187.332 135.682 186.404 137.25 184.948" stroke="#FEAB90" stroke-width="2"/>
<path d="M137.25 184.947C139.703 184.163 142.018 182.537 144.194 180.067C145.986 178.035 146.836 175.646 146.746 172.899C146.735 172.569 146.57 172.435 146.25 172.499L144.073 172.947" stroke="#96766B" stroke-width="2"/>
<path d="M130.194 165.396C133.911 161.865 134.413 157.884 131.698 153.452C131.394 152.94 128.082 150.476 128.322 152.444" stroke="#FDB899" stroke-width="2"/>
<path d="M137.25 184.948C131.255 180.804 124.415 179.95 116.73 182.388C115.946 182.633 115.151 183.412 114.346 184.724" stroke="#955954" stroke-width="2"/>
<path d="M146.562 200.348C146.567 200.614 146.474 200.868 146.282 201.108" stroke="#C65448" stroke-width="2"/>
<path d="M146.282 201.107L139.802 200.635C139.53 200.619 139.338 200.734 139.226 200.979C136.17 207.539 127.362 209.403 120.914 208.059C116.711 207.185 113.434 204.339 111.082 199.523" stroke="#D9795F" stroke-width="2"/>
<path d="M146.282 201.108C147.295 201.097 148.117 201.358 148.746 201.892C148.954 202.068 149.055 202.294 149.05 202.572C148.949 206.129 147.589 209.094 144.97 211.468C139.818 216.14 134.079 218.686 127.754 219.108" stroke="#EA6962" stroke-width="2"/>
<path d="M127.754 219.107C124.842 217.219 121.831 215.758 118.722 214.723C118.482 214.643 118.25 214.667 118.026 214.795C117.157 215.281 116.663 216.105 116.546 217.267" stroke="#FC9C82" stroke-width="2"/>
<path d="M116.546 217.268C108.338 215.428 103.714 208.564 103.098 200.516" stroke="#FA7667" stroke-width="2"/>
<path d="M152.762 201.34L152.482 201.604C152.269 201.801 152.287 201.974 152.538 202.124L152.754 202.252C152.957 202.375 153.045 202.556 153.018 202.796C152.351 208.609 149.919 213.081 145.722 216.212C141.386 219.444 136.189 221.673 130.13 222.9" stroke="#C73741" stroke-width="2"/>
<path d="M130.13 222.9L127.026 219.516" stroke="#E75150" stroke-width="2"/>
<path d="M127.026 219.516C127.271 219.377 127.514 219.241 127.754 219.108" stroke="#E9766B" stroke-width="2"/>
<path d="M116.546 217.268C120.061 218.75 123.554 219.5 127.026 219.516" stroke="#F98470" stroke-width="2"/>
<path d="M130.13 222.9C124.743 223.231 119.615 222.412 114.746 220.444" stroke="#D74446" stroke-width="2"/>
<path d="M114.746 220.444C106.276 217.569 101.236 211.66 99.6258 202.716C99.5778 202.438 99.6578 202.209 99.8658 202.028L101.034 200.996" stroke="#E75150" stroke-width="2"/>
<path d="M157.994 202.764C168.114 206.204 177.186 213.404 179.314 224.06C179.334 224.164 179.318 224.273 179.267 224.368C179.216 224.463 179.133 224.537 179.034 224.58C167.023 229.641 154.65 232.884 141.914 234.308" stroke="#C38390" stroke-width="2"/>
<path d="M114.746 220.444C114.612 220.695 114.543 220.94 114.538 221.18C114.532 221.409 114.639 221.561 114.858 221.636C120.895 223.652 127.068 224.257 133.378 223.452C133.49 223.436 133.546 223.484 133.546 223.596C133.546 223.681 133.546 223.767 133.546 223.852C133.549 223.934 133.577 224.013 133.627 224.079C133.677 224.145 133.746 224.194 133.826 224.22C137.466 225.38 139.922 229.284 142.338 232.076C142.53 232.3 142.575 232.55 142.474 232.828L141.914 234.308" stroke="#C73741" stroke-width="2"/>
<path d="M141.914 234.308C121.474 235.38 103.418 234.46 84.0737 228.476" stroke="#D38F9A" stroke-width="2"/>
<path d="M200.418 157.132C203.65 157.596 207.21 154.46 208.994 152.108C213.228 146.561 213.402 140.873 209.514 135.044C209.012 134.297 207.978 133.793 206.41 133.532C206.17 133.489 205.94 133.529 205.722 133.652L203.41 134.948C203.164 135.086 202.972 135.276 202.834 135.516C202.172 136.694 201.538 137.881 200.93 139.076C199.058 142.74 198.482 147.932 197.65 151.964C197.138 154.492 197.514 156.716 200.418 157.132Z" stroke="#FC9C82" stroke-width="2"/>
<path d="M75.8259 123.18C77.7139 123.716 82.5859 120.468 84.3459 119.468C89.3539 116.62 94.5432 115.982 99.9139 117.556C108.93 120.204 109.922 106.044 98.6899 106.764C89.1139 107.372 79.1699 112.316 74.9699 121.284C74.5112 122.254 74.7966 122.886 75.8259 123.18Z" stroke="#CB886C" stroke-width="2"/>
<path d="M83.8335 152.34C85.4815 154.244 87.0015 155.518 88.3935 156.164C93.0895 158.356 98.6015 154.756 100.209 150.324C103.015 142.606 101.644 136.108 96.0975 130.828" stroke="#897266" stroke-width="2"/>
<path d="M96.0978 130.828C95.6498 127.5 89.8738 128.476 87.1218 129.564C82.7218 131.308 80.4258 133.964 79.5538 138.652C78.4551 144.55 79.8818 149.113 83.8338 152.34" stroke="#FEE7D8" stroke-width="2"/>
<path d="M96.0978 130.827C91.8844 128.918 88.4844 129.505 85.8978 132.587C81.2418 138.139 80.5538 144.723 83.8338 152.339" stroke="#89898C" stroke-width="2"/>
<path d="M46.8977 154.684C49.3217 156.788 58.4417 160.804 56.8817 153.444C55.7831 148.27 54.327 143.209 52.5137 138.26C50.9457 133.964 45.6097 133.02 43.5377 137.028C40.0284 143.822 41.1484 149.708 46.8977 154.684Z" stroke="#FDBD9F" stroke-width="2"/>
<path d="M68.7458 163.212C67.1138 178.996 93.7778 178.676 94.3298 169.108C94.4045 167.844 93.9644 166.593 93.0098 165.356C87.9644 158.86 81.1618 156.775 72.6018 159.1C70.2498 159.735 68.9645 161.105 68.7458 163.212Z" stroke="#FDBD9F" stroke-width="2"/>
<path d="M161.228 145.764C161.551 145.759 161.87 145.685 162.167 145.546C162.464 145.408 162.732 145.207 162.957 144.956C163.182 144.705 163.359 144.409 163.478 144.084C163.597 143.758 163.655 143.411 163.649 143.061C163.638 142.355 163.368 141.681 162.898 141.189C162.428 140.697 161.797 140.426 161.144 140.436C160.82 140.441 160.501 140.515 160.204 140.654C159.907 140.792 159.639 140.993 159.414 141.244C159.189 141.495 159.012 141.791 158.894 142.116C158.775 142.442 158.717 142.789 158.722 143.139C158.733 143.845 159.003 144.519 159.473 145.011C159.943 145.503 160.574 145.774 161.228 145.764Z" stroke="#89898C" stroke-width="2"/>
<path d="M94.7615 143.268C94.7615 142.606 94.4986 141.971 94.0305 141.503C93.5624 141.035 92.9275 140.772 92.2655 140.772C91.6035 140.772 90.9687 141.035 90.5006 141.503C90.0325 141.971 89.7695 142.606 89.7695 143.268C89.7695 143.93 90.0325 144.565 90.5006 145.033C90.9687 145.501 91.6035 145.764 92.2655 145.764C92.9275 145.764 93.5624 145.501 94.0305 145.033C94.4986 144.565 94.7615 143.93 94.7615 143.268Z" stroke="#89898C" stroke-width="2"/>
<path d="M139.61 16.2839C150.303 16.2892 157.17 20.6412 160.21 29.3399C160.311 29.6279 160.514 29.7532 160.818 29.7159C163.938 29.2945 166.829 29.8279 169.49 31.3159C169.601 31.3783 169.696 31.4654 169.769 31.5705C169.841 31.6755 169.887 31.7956 169.905 31.9212C169.923 32.0468 169.911 32.1746 169.871 32.2944C169.831 32.4143 169.764 32.5229 169.674 32.6119L169.378 32.9079C169.17 33.1105 169.061 33.3585 169.05 33.6519L168.89 36.7879C168.874 37.0972 168.749 37.3585 168.514 37.5719C165.922 39.8999 164.458 39.9159 163.434 43.7159C163.367 43.9519 163.212 44.1525 163.002 44.2758L161.994 44.8679C161.752 45.007 161.57 45.2321 161.482 45.4998C160.57 48.1238 158.482 48.0998 157.026 49.4998C154.994 51.4518 153.642 53.6039 151.082 55.9479C150.874 56.1399 150.629 56.2359 150.346 56.2359H149.546C149.279 56.2359 149.146 56.3692 149.146 56.6359V57.3639C149.146 57.6039 149.026 57.7319 148.786 57.7479C148.018 57.7959 147.362 58.1825 146.818 58.9079C144.49 62.0199 141.106 63.8759 137.978 66.2919C136.01 67.8199 128.146 70.1879 128.322 73.1639C128.338 73.3879 128.237 73.5319 128.018 73.5959C126.146 74.1399 124.234 74.2572 122.282 73.9479C114.063 72.6572 105.818 71.5532 97.5459 70.6359C92.0419 70.0279 86.8419 66.7559 85.1379 61.1559C85.0827 60.9798 84.9878 60.8188 84.8607 60.6852C84.7337 60.5517 84.5778 60.4492 84.4052 60.3857C84.2326 60.3222 84.048 60.2995 83.8656 60.3193C83.6833 60.3391 83.5082 60.4009 83.354 60.4998L77.4979 64.2359C77.2665 64.3884 77.0745 64.594 76.9379 64.8359C75.8899 66.6999 74.4579 67.4679 73.1779 69.1319C71.1139 71.8279 68.7539 72.6599 69.2899 76.8439C69.3166 77.0892 69.2553 77.3052 69.106 77.4919C66.5406 80.6865 63.6046 82.8119 60.2979 83.8679C58.9326 82.0439 58.5113 80.1692 59.0339 78.2439C59.9859 74.7719 62.6099 70.3399 66.0419 68.1799C68.9619 66.3399 69.9139 63.4919 70.2979 60.2119C70.4153 59.2625 71.3593 57.5479 73.13 55.0679C75.882 51.2119 80.7699 52.7079 83.8019 48.2278C83.8763 48.1174 83.9784 48.0284 84.098 47.9698C84.2175 47.9112 84.3504 47.885 84.4833 47.8939C84.6162 47.9028 84.7444 47.9465 84.8551 48.0206C84.9657 48.0946 85.055 48.1964 85.1139 48.3159C86.5539 51.2359 88.6419 53.3959 91.5939 55.0919C103.802 62.1105 116.533 62.6252 129.786 56.6359C136.626 53.5479 144.218 46.6119 142.834 38.5399C141.826 32.6199 136.778 28.5719 131.162 26.8599C129.519 26.3585 128.021 25.5718 126.666 24.4998C126.485 24.3612 126.362 24.1799 126.298 23.9559L125.33 20.6679C125.29 20.5337 125.21 20.4151 125.101 20.3279C124.993 20.2406 124.86 20.189 124.722 20.1799C123.506 20.1052 122.845 19.6999 122.738 18.9639C128.722 16.9799 134.346 16.0865 139.61 16.2839Z" fill="#A45032"/>
<path d="M139.61 16.2837C147.05 15.4303 154.074 16.5023 160.682 19.4996C161.487 19.8623 162.618 20.5983 164.074 21.7077C164.174 21.7833 164.291 21.8325 164.414 21.8506C164.537 21.8688 164.662 21.8554 164.778 21.8117C179.218 16.4357 191.81 32.2676 194.266 44.5236C194.287 44.6275 194.329 44.7258 194.391 44.8122C194.452 44.8986 194.53 44.9713 194.62 45.0256C194.711 45.0798 194.811 45.1144 194.916 45.1272C195.02 45.1399 195.125 45.1306 195.226 45.0996C199.634 43.7796 205.402 43.2277 207.914 48.2517C209.178 50.769 208.935 53.2917 207.186 55.8197C207.026 56.0543 207.071 56.241 207.322 56.3797C219.25 62.8917 220.53 79.3317 217.154 90.8117C217.074 91.0943 217.084 91.369 217.186 91.6357C220.94 101.545 219.476 110.497 212.794 118.492C212.602 118.721 212.551 118.977 212.642 119.26C213.826 122.876 213.508 126.436 211.69 129.94C209.738 128.772 207.567 128.454 205.178 128.988C204.927 129.046 204.727 129.18 204.578 129.388C202.274 132.652 201.634 136.932 199.402 139.788C199.242 139.99 199.042 140.041 198.802 139.94C197.89 139.55 197.402 138.913 197.338 138.028C196.978 132.876 196.146 110.1 192.33 107.244C184.386 101.308 181.122 96.9077 183.258 86.5397C183.586 84.9477 187.066 74.0516 181.986 75.8996C178.618 77.1156 174.066 79.8277 170.298 81.1317C156.61 85.8757 141.162 85.1317 126.538 85.2197C118.964 85.3797 111.45 84.905 103.994 83.7957C95.6256 82.5637 89.7536 79.5557 83.2096 75.3317C82.7762 75.052 82.2902 74.8638 81.7815 74.7784C81.2728 74.693 80.7521 74.7123 80.2511 74.8351C79.7501 74.958 79.2794 75.1817 78.8679 75.4927C78.4564 75.8036 78.1126 76.1953 77.8576 76.6437C73.9776 83.4517 72.2336 87.8277 65.0736 91.7077C64.8358 91.8318 64.6488 92.0388 64.5456 92.2917L62.5056 97.2037C58.6816 110.004 56.8496 123.086 57.0096 136.452C57.0203 137.614 57.0043 138.246 56.9616 138.348C56.1509 140.278 55.2389 140.326 54.2256 138.492C52.8709 136.017 51.815 133.478 51.0576 130.876C50.5376 128.076 47.7616 128.908 45.5936 129.196C45.3399 129.232 45.0798 129.178 44.8576 129.044C44.4043 128.777 44.0683 128.313 43.8496 127.652C46.4309 128.601 48.0576 128.196 48.7296 126.436C48.8802 126.051 48.9027 125.627 48.7936 125.228C47.7643 121.329 48.1589 117.588 49.9776 114.004C51.6576 110.692 51.5296 107.62 51.5536 104.052C51.5589 103.752 51.6695 103.465 51.8656 103.244C52.6763 102.337 53.6816 101.801 54.8816 101.636C55.1269 101.604 55.3056 101.478 55.4176 101.26C57.0176 98.1157 55.3536 95.3877 56.0576 92.2837C56.7456 89.2517 59.5616 87.4757 60.2976 83.8677C63.6043 82.8117 66.5403 80.6863 69.1056 77.4917C69.2549 77.305 69.3163 77.089 69.2896 76.8437C68.7536 72.6597 71.1136 71.8277 73.1776 69.1317C74.4576 67.4677 75.8896 66.6997 76.9376 64.8357C77.0742 64.5938 77.2662 64.3882 77.4976 64.2357L83.3536 60.4996C83.5079 60.4007 83.683 60.3389 83.8653 60.3191C84.0476 60.2993 84.2323 60.322 84.4049 60.3855C84.5774 60.449 84.7333 60.5515 84.8604 60.685C84.9875 60.8186 85.0823 60.9796 85.1376 61.1557C86.8416 66.7557 92.0416 70.0277 97.5456 70.6357C105.818 71.553 114.063 72.657 122.282 73.9477C124.234 74.257 126.146 74.1397 128.018 73.5957C128.236 73.5317 128.338 73.3877 128.322 73.1637C128.146 70.1877 136.01 67.8197 137.978 66.2917C141.106 63.8757 144.49 62.0197 146.818 58.9077C147.362 58.1823 148.018 57.7957 148.786 57.7477C149.026 57.7317 149.146 57.6037 149.146 57.3637V56.6357C149.146 56.369 149.279 56.2357 149.546 56.2357H150.346C150.628 56.2357 150.874 56.1397 151.082 55.9477C153.642 53.6037 154.994 51.4516 157.026 49.4996C158.482 48.0997 160.57 48.1236 161.482 45.4996C161.569 45.2319 161.752 45.0068 161.994 44.8677L163.002 44.2757C163.212 44.1523 163.367 43.9517 163.434 43.7157C164.458 39.9157 165.922 39.8997 168.514 37.5717C168.748 37.3583 168.874 37.097 168.89 36.7877L169.05 33.6517C169.06 33.3583 169.17 33.1103 169.378 32.9077L169.674 32.6117C169.763 32.5227 169.831 32.4141 169.871 32.2942C169.911 32.1744 169.923 32.0466 169.905 31.921C169.887 31.7954 169.84 31.6753 169.768 31.5703C169.696 31.4652 169.601 31.3781 169.49 31.3157C166.828 29.8277 163.938 29.2943 160.818 29.7157C160.514 29.753 160.311 29.6277 160.21 29.3397C157.17 20.641 150.303 16.289 139.61 16.2837Z" fill="#984025"/>
<path d="M122.738 18.9636C122.844 19.6996 123.506 20.1049 124.722 20.1796C124.86 20.1888 124.992 20.2404 125.101 20.3276C125.21 20.4148 125.289 20.5335 125.33 20.6676L126.298 23.9556C126.362 24.1796 126.484 24.3609 126.666 24.4996C128.02 25.5716 129.519 26.3583 131.162 26.8596C136.778 28.5716 141.826 32.6196 142.834 38.5396C144.218 46.6116 136.626 53.5476 129.786 56.6356C116.532 62.625 103.802 62.1103 91.5937 55.0916C88.6417 53.3956 86.5537 51.2356 85.1137 48.3156C85.0548 48.1962 84.9655 48.0944 84.8548 48.0203C84.7441 47.9463 84.6159 47.9026 84.4831 47.8937C84.3502 47.8848 84.2173 47.9109 84.0977 47.9695C83.9782 48.0281 83.8761 48.1171 83.8017 48.2276C80.7697 52.7076 75.8817 51.2116 73.1297 55.0676C71.3591 57.5476 70.415 59.2623 70.2977 60.2116C69.9137 63.4916 68.9617 66.3396 66.0417 68.1796C62.6097 70.3396 59.9857 74.7716 59.0337 78.2436C58.511 80.169 58.9324 82.0436 60.2977 83.8676C59.5617 87.4756 56.7457 89.2516 56.0577 92.2836C55.3537 95.3876 57.0177 98.1156 55.4177 101.26C55.3057 101.478 55.1271 101.604 54.8817 101.636C53.6817 101.801 52.6764 102.337 51.8657 103.244C51.6696 103.465 51.559 103.752 51.5537 104.052C51.5297 107.62 51.6577 110.692 49.9777 114.004C48.1591 117.588 47.7644 121.329 48.7937 125.228C48.9028 125.627 48.8803 126.051 48.7297 126.436C48.0577 128.196 46.431 128.601 43.8497 127.652C41.4177 124.793 40.7191 121.401 41.7537 117.476C41.8231 117.214 41.7804 116.974 41.6257 116.756C38.3137 111.918 37.4764 106.628 39.1137 100.884C39.1884 100.633 39.1484 100.401 38.9937 100.188C37.7297 98.3956 36.895 96.4383 36.4897 94.3156C33.9377 80.9636 41.5297 68.2116 55.3057 66.4676C55.5831 66.4303 55.6977 66.2756 55.6497 66.0036C54.4337 59.1956 57.1777 53.8116 63.4657 50.9316C63.7217 50.8143 63.8844 50.6196 63.9537 50.3476C65.8737 42.7876 73.8177 39.8036 80.8977 40.6516C81.1697 40.6836 81.351 40.569 81.4417 40.3076C83.6177 34.0756 90.4177 28.7876 97.0577 32.4436C97.1393 32.4899 97.2334 32.5094 97.3267 32.4994C97.42 32.4893 97.5078 32.4502 97.5777 32.3876C104.82 25.673 113.207 21.1983 122.738 18.9636Z" fill="#B56444"/>
<path d="M126.538 85.2196C129.114 85.5236 127.426 87.2596 127.698 88.9476C117.266 89.3743 107.079 88.513 97.1378 86.3636C91.1138 85.0676 85.0658 82.5156 79.2098 80.1076C78.9378 79.9956 78.7085 80.0543 78.5219 80.2836C76.2659 83.0516 74.8979 86.6836 72.9219 89.0996C70.3672 92.2143 67.5405 95.0783 64.4418 97.6916C64.2232 97.873 63.9885 97.9023 63.7378 97.7796L62.5059 97.2036L64.5458 92.2916C64.649 92.0387 64.8361 91.8318 65.0739 91.7076C72.2339 87.8276 73.9779 83.4516 77.8579 76.6436C78.1128 76.1952 78.4566 75.8036 78.8681 75.4926C79.2797 75.1817 79.7503 74.9579 80.2513 74.8351C80.7523 74.7123 81.2731 74.693 81.7818 74.7784C82.2905 74.8637 82.7764 75.052 83.2098 75.3316C89.7538 79.5556 95.6258 82.5636 103.994 83.7956C111.45 84.905 118.965 85.3796 126.538 85.2196Z" fill="#FFC7A7"/>
<path d="M211.69 129.94C215.066 133.934 216.855 138.289 217.058 143.004C217.586 155.34 205.114 167.188 192.682 162.868C192.53 162.816 192.365 162.82 192.217 162.879C192.068 162.938 191.947 163.047 191.874 163.188C182.122 181.948 164.25 194.052 143.786 198.196C150.586 195.444 155.255 193.281 157.794 191.708C164.706 187.436 169.236 181.372 171.386 173.516C178.34 172.364 183.452 168.529 186.722 162.012C187.314 160.838 187.487 159.052 187.242 156.652C187.215 156.38 187.068 156.228 186.802 156.196C182.322 155.66 177.13 156.428 172.386 156.828L173.29 149.284C175.183 143.342 174.884 137.884 172.394 132.908C172.538 131.286 172.255 129.878 171.546 128.684C171.407 128.454 171.218 128.278 170.978 128.156C169.722 127.524 169.874 125.684 169.618 124.468C169.178 122.428 167.818 121.884 168.514 119.196L176.714 123.428C176.828 123.487 176.954 123.518 177.08 123.518C177.207 123.518 177.331 123.487 177.442 123.428C179.25 122.476 178.01 120.452 177.338 119.18C178.154 119.18 178.108 118.526 177.202 117.22C177.044 116.989 176.95 116.721 176.93 116.444C176.482 110.308 173.306 91.8917 164.802 91.6997C161.026 91.6197 157.306 93.0037 153.538 91.3237C152.359 90.7957 151.242 90.5238 150.186 90.5078C142.946 90.3958 137.202 91.0358 129.338 89.2678C128.319 89.3318 127.772 89.2251 127.698 88.9478C127.426 87.2598 129.114 85.5238 126.538 85.2198C141.162 85.1318 156.61 85.8758 170.298 81.1318C174.066 79.8278 178.618 77.1157 181.986 75.8997C187.066 74.0517 183.586 84.9478 183.258 86.5398C181.122 96.9078 184.386 101.308 192.33 107.244C196.146 110.1 196.978 132.876 197.338 138.028C197.402 138.913 197.89 139.55 198.802 139.94C199.042 140.041 199.242 139.99 199.402 139.788C201.634 136.932 202.274 132.652 204.578 129.388C204.727 129.18 204.927 129.046 205.178 128.988C207.567 128.454 209.738 128.772 211.69 129.94ZM200.418 157.132C203.65 157.596 207.21 154.46 208.994 152.108C213.228 146.561 213.402 140.873 209.514 135.044C209.012 134.297 207.978 133.793 206.41 133.532C206.17 133.489 205.94 133.529 205.722 133.652L203.41 134.948C203.164 135.086 202.972 135.276 202.834 135.516C202.172 136.694 201.538 137.881 200.93 139.076C199.058 142.74 198.482 147.932 197.65 151.964C197.138 154.492 197.514 156.716 200.418 157.132Z" fill="#FBA98B"/>
<path d="M127.698 88.9474C127.772 89.2247 128.319 89.3314 129.338 89.2674C129.316 89.4914 129.45 89.6887 129.738 89.8594C129.935 89.9767 130.028 90.1527 130.018 90.3874C129.932 91.6834 130.148 93.3794 130.666 95.4754C131.29 97.9927 131.388 101.931 130.962 107.291C130.956 107.35 130.983 107.387 131.042 107.403C131.106 107.419 131.172 107.438 131.242 107.459C131.263 107.466 131.281 107.48 131.294 107.499C131.307 107.517 131.314 107.54 131.314 107.563C131.335 109.51 131.38 111.454 131.45 113.395C131.506 115.003 131.202 117.059 131.45 118.963C131.684 120.825 131.775 122.19 131.722 123.059C131.37 129.006 130.956 134.95 130.482 140.891C130.314 142.995 132.05 147.659 129.602 148.515C129.319 148.611 129.146 148.809 129.082 149.107C128.842 150.174 128.287 150.995 127.418 151.571C127.167 151.737 127.154 151.923 127.378 152.131C127.628 152.361 127.943 152.465 128.322 152.443C131.394 156.139 127.65 162.059 124.33 163.563C124.104 163.667 123.913 163.835 123.783 164.046C123.652 164.258 123.586 164.503 123.594 164.751C123.601 165 123.682 165.24 123.826 165.443C123.969 165.646 124.17 165.802 124.402 165.891C126.364 166.638 128.295 166.473 130.194 165.395C132.578 166.219 131.93 168.171 131.946 170.123C131.948 170.258 131.977 170.39 132.031 170.512C132.084 170.634 132.162 170.744 132.258 170.835C132.615 171.182 132.735 171.649 132.618 172.235C132.573 172.456 132.589 172.684 132.665 172.896C132.74 173.107 132.871 173.295 133.044 173.438C133.218 173.581 133.427 173.674 133.649 173.707C133.871 173.741 134.098 173.713 134.306 173.627C135.836 173.003 137.484 172.766 139.25 172.915C139.524 172.936 139.799 172.898 140.058 172.803C141.69 172.206 143.028 172.254 144.074 172.947C131.988 175.795 119.81 175.563 107.538 172.251C107.505 172.242 107.471 172.24 107.438 172.244C107.404 172.249 107.372 172.261 107.342 172.279C107.313 172.297 107.288 172.321 107.268 172.349C107.248 172.377 107.233 172.409 107.226 172.443C106.282 176.979 110.746 182.427 114.346 184.723C118.594 188.579 125.274 188.603 130.73 187.731C129.839 190.227 127.628 191.566 124.098 191.747C123.916 191.758 123.764 191.699 123.642 191.571C123.199 191.129 122.671 191.009 122.058 191.211C121.876 191.275 121.786 191.403 121.786 191.595V192.875C121.786 193.169 121.682 193.417 121.474 193.619C120.103 194.963 119.844 197.025 120.698 199.803L111.082 199.523C111.028 199.545 110.975 199.566 110.922 199.587L111.346 199.115C111.586 198.854 111.53 198.691 111.178 198.627C90.2257 194.699 71.4257 182.891 62.0257 163.275C61.9084 163.035 61.7217 162.95 61.4657 163.019C53.5777 165.014 47.0177 162.998 41.7857 156.971C35.1857 149.371 35.0897 136.875 43.1457 130.211C43.3324 130.062 43.5484 129.985 43.7937 129.979L49.1937 129.867C49.4284 129.867 49.5964 129.974 49.6977 130.187C50.3431 131.606 50.7964 131.835 51.0577 130.875C51.8151 133.478 52.8711 136.017 54.2257 138.491C55.2391 140.326 56.151 140.278 56.9617 138.347C57.0044 138.246 57.0204 137.614 57.0097 136.451C56.8497 123.086 58.6817 110.003 62.5057 97.2034L63.7377 97.7794C63.9884 97.902 64.223 97.8727 64.4417 97.6914C67.5404 95.078 70.3671 92.214 72.9217 89.0994C74.8977 86.6834 76.2657 83.0514 78.5217 80.2834C78.7084 80.054 78.9377 79.9954 79.2097 80.1074C85.0657 82.5154 91.1137 85.0674 97.1377 86.3634C107.079 88.5127 117.266 89.3741 127.698 88.9474ZM75.8257 123.179C77.7137 123.715 82.5857 120.467 84.3457 119.467C89.3537 116.619 94.543 115.982 99.9137 117.555C108.93 120.203 109.922 106.043 98.6897 106.763C89.1137 107.371 79.1697 112.315 74.9697 121.283C74.511 122.254 74.7964 122.886 75.8257 123.179ZM83.8337 152.339C85.4817 154.243 87.0017 155.518 88.3937 156.163C93.0897 158.355 98.6017 154.755 100.21 150.323C103.015 142.606 101.644 136.107 96.0977 130.827C95.6497 127.499 89.8737 128.475 87.1217 129.563C82.7217 131.307 80.4257 133.963 79.5537 138.651C78.4551 144.55 79.8817 149.113 83.8337 152.339ZM46.8977 154.683C49.3217 156.787 58.4417 160.803 56.8817 153.443C55.7831 148.27 54.327 143.209 52.5137 138.259C50.9457 133.963 45.6097 133.019 43.5377 137.027C40.0284 143.822 41.1484 149.707 46.8977 154.683ZM68.7457 163.211C67.1137 178.995 93.7777 178.675 94.3297 169.107C94.4044 167.843 93.9644 166.593 93.0097 165.355C87.9644 158.859 81.1617 156.774 72.6017 159.099C70.2497 159.734 68.9644 161.105 68.7457 163.211Z" fill="#FED0B2"/>
<path d="M129.338 89.2676C137.202 91.0356 142.946 90.3956 150.186 90.5076C151.242 90.5236 152.359 90.7956 153.538 91.3236C157.306 93.0036 161.026 91.6196 164.802 91.6996C173.306 91.8916 176.482 110.308 176.93 116.444C176.95 116.721 177.044 116.989 177.202 117.22C178.108 118.526 178.154 119.18 177.338 119.18C171.858 111.404 162.13 105.284 152.546 106.82C146.218 107.836 145.322 116.268 151.506 117.548C152.156 117.686 153.62 117.513 155.898 117.028C160.175 116.116 164.38 116.838 168.514 119.196C167.818 121.884 169.178 122.428 169.618 124.468C169.874 125.684 169.722 127.524 170.978 128.156C171.218 128.278 171.407 128.454 171.546 128.684C172.255 129.878 172.538 131.286 172.394 132.908C171.37 131.217 170.023 129.849 168.354 128.804C168.108 128.649 167.839 128.566 167.546 128.556L160.698 128.292C160.623 128.289 160.549 128.302 160.48 128.33C160.411 128.357 160.348 128.399 160.296 128.452C160.244 128.504 160.204 128.567 160.178 128.636C160.152 128.705 160.141 128.778 160.146 128.852C160.162 129.134 160.29 129.27 160.53 129.26C149.346 132.188 148.45 150.82 157.73 155.948C163.082 158.908 168.714 154.764 170.874 149.548C172.143 149.793 172.948 149.705 173.29 149.284L172.386 156.828C167.383 157.158 163.167 159.097 159.738 162.644C156.674 165.812 157.842 169.892 161.538 171.868C164.3 173.34 167.583 173.889 171.386 173.516C169.236 181.372 164.706 187.436 157.794 191.708C155.255 193.281 150.586 195.444 143.786 198.196L139.794 199.524C136.508 199.396 133.092 199.566 129.546 200.036C127.999 200.238 125.05 200.161 120.698 199.804C119.844 197.025 120.103 194.964 121.474 193.62C121.682 193.417 121.786 193.169 121.786 192.876V191.596C121.786 191.404 121.876 191.276 122.058 191.212C122.671 191.009 123.199 191.129 123.642 191.572C123.764 191.7 123.916 191.758 124.098 191.748C127.628 191.566 129.839 190.228 130.73 187.732C133.508 187.332 135.682 186.404 137.25 184.948C139.703 184.164 142.018 182.537 144.194 180.068C145.986 178.036 146.836 175.646 146.746 172.9C146.735 172.569 146.57 172.436 146.25 172.5L144.074 172.948C143.028 172.254 141.69 172.206 140.058 172.804C139.799 172.899 139.524 172.937 139.25 172.916C137.484 172.766 135.836 173.004 134.306 173.628C134.098 173.713 133.871 173.741 133.649 173.707C133.426 173.674 133.218 173.581 133.044 173.438C132.871 173.295 132.74 173.107 132.664 172.896C132.589 172.684 132.573 172.456 132.618 172.236C132.735 171.649 132.615 171.182 132.258 170.836C132.161 170.744 132.084 170.634 132.031 170.512C131.977 170.39 131.948 170.258 131.946 170.124C131.93 168.172 132.578 166.22 130.194 165.396C133.911 161.865 134.412 157.884 131.698 153.452C131.394 152.94 128.082 150.476 128.322 152.444C127.943 152.465 127.628 152.361 127.378 152.132C127.154 151.924 127.167 151.737 127.418 151.572C128.287 150.996 128.842 150.174 129.082 149.108C129.146 148.809 129.319 148.612 129.602 148.516C132.05 147.66 130.314 142.996 130.482 140.892C130.956 134.95 131.37 129.006 131.722 123.06C131.775 122.19 131.684 120.825 131.45 118.964C131.202 117.06 131.506 115.004 131.45 113.396C131.38 111.454 131.335 109.51 131.314 107.564C131.314 107.54 131.307 107.517 131.294 107.499C131.281 107.48 131.262 107.466 131.242 107.46C131.172 107.438 131.106 107.42 131.042 107.404C130.983 107.388 130.956 107.35 130.962 107.292C131.388 101.932 131.29 97.9929 130.666 95.4756C130.148 93.3796 129.932 91.6836 130.018 90.3876C130.028 90.1529 129.935 89.9769 129.738 89.8596C129.45 89.6889 129.316 89.4916 129.338 89.2676Z" fill="#FFC7A7"/>
<path d="M75.8259 123.18C74.7966 122.886 74.5112 122.254 74.9699 121.284C79.1699 112.316 89.1139 107.372 98.6899 106.764C109.922 106.044 108.93 120.204 99.9139 117.556C94.5432 115.982 89.3539 116.62 84.3459 119.468C82.5859 120.468 77.7139 123.716 75.8259 123.18Z" fill="#984025"/>
<path d="M177.338 119.18C178.01 120.452 179.25 122.476 177.442 123.428C177.331 123.487 177.207 123.518 177.08 123.518C176.954 123.518 176.828 123.487 176.714 123.428L168.514 119.196C164.38 116.838 160.175 116.116 155.898 117.028C153.62 117.513 152.156 117.686 151.506 117.548C145.322 116.268 146.218 107.836 152.546 106.82C162.13 105.284 171.858 111.404 177.338 119.18Z" fill="#984025"/>
<path d="M172.394 132.908C174.884 137.884 175.183 143.342 173.29 149.284C172.948 149.705 172.143 149.793 170.873 149.548C173.481 142.228 170.698 128.692 160.53 129.26C160.29 129.27 160.162 129.134 160.146 128.852C160.141 128.778 160.152 128.705 160.178 128.636C160.204 128.567 160.244 128.504 160.296 128.452C160.348 128.399 160.411 128.358 160.48 128.33C160.549 128.302 160.623 128.289 160.698 128.292L167.546 128.556C167.839 128.566 168.108 128.649 168.354 128.804C170.023 129.849 171.37 131.217 172.394 132.908Z" fill="#FEFEFE"/>
<path d="M96.0978 130.828C91.8845 128.918 88.4845 129.505 85.8978 132.588C81.2418 138.14 80.5538 144.724 83.8338 152.34C79.8818 149.113 78.4551 144.55 79.5538 138.652C80.4258 133.964 82.7218 131.308 87.1218 129.564C89.8738 128.476 95.6498 127.5 96.0978 130.828Z" fill="#FEFEFE"/>
<path d="M160.53 129.26C170.698 128.692 173.482 142.228 170.874 149.548C168.714 154.764 163.082 158.908 157.73 155.948C148.45 150.82 149.346 132.188 160.53 129.26ZM161.228 145.763C161.551 145.758 161.87 145.684 162.167 145.546C162.464 145.407 162.732 145.207 162.957 144.956C163.182 144.705 163.359 144.408 163.478 144.083C163.597 143.758 163.655 143.411 163.649 143.061C163.638 142.354 163.368 141.681 162.898 141.189C162.428 140.696 161.797 140.426 161.144 140.436C160.82 140.441 160.501 140.515 160.204 140.653C159.907 140.792 159.639 140.992 159.414 141.243C159.189 141.494 159.012 141.791 158.894 142.116C158.775 142.441 158.716 142.788 158.722 143.138C158.733 143.845 159.003 144.518 159.473 145.01C159.943 145.503 160.574 145.773 161.228 145.763Z" fill="#141319"/>
<path d="M96.0978 130.827C101.644 136.107 103.015 142.606 100.21 150.323C98.6018 154.755 93.0898 158.355 88.3938 156.163C87.0018 155.518 85.4818 154.243 83.8338 152.339C80.5538 144.723 81.2418 138.139 85.8978 132.587C88.4844 129.505 91.8844 128.918 96.0978 130.827ZM94.7618 143.267C94.7618 142.605 94.4988 141.97 94.0307 141.502C93.5626 141.034 92.9277 140.771 92.2658 140.771C91.6038 140.771 90.9689 141.034 90.5008 141.502C90.0327 141.97 89.7698 142.605 89.7698 143.267C89.7698 143.929 90.0327 144.564 90.5008 145.032C90.9689 145.5 91.6038 145.763 92.2658 145.763C92.9277 145.763 93.5626 145.5 94.0307 145.032C94.4988 144.564 94.7618 143.929 94.7618 143.267Z" fill="#141319"/>
<path d="M200.418 157.132C197.514 156.716 197.138 154.492 197.65 151.964C198.482 147.932 199.058 142.74 200.93 139.076C201.538 137.881 202.172 136.694 202.834 135.516C202.972 135.276 203.164 135.086 203.41 134.948L205.722 133.652C205.94 133.529 206.17 133.489 206.41 133.532C207.978 133.793 209.012 134.297 209.514 135.044C213.402 140.873 213.228 146.561 208.994 152.108C207.21 154.46 203.65 157.596 200.418 157.132Z" fill="#FC8E79"/>
<path d="M46.8977 154.684C41.1484 149.708 40.0284 143.822 43.5377 137.028C45.6097 133.02 50.9457 133.964 52.5137 138.26C54.327 143.209 55.7831 148.27 56.8817 153.444C58.4417 160.804 49.3217 156.788 46.8977 154.684Z" fill="#FBA98B"/>
<path d="M158.722 143.138C158.745 144.609 159.867 145.785 161.227 145.763C162.588 145.742 163.672 144.532 163.649 143.061C163.626 141.59 162.504 140.415 161.144 140.436C159.783 140.457 158.699 141.667 158.722 143.138Z" fill="#FEFEFE"/>
<path d="M92.2655 145.764C93.644 145.764 94.7615 144.646 94.7615 143.268C94.7615 141.889 93.644 140.772 92.2655 140.772C90.887 140.772 89.7695 141.889 89.7695 143.268C89.7695 144.646 90.887 145.764 92.2655 145.764Z" fill="#FEFEFE"/>
<path d="M130.194 165.396C128.295 166.473 126.364 166.638 124.402 165.892C124.17 165.802 123.969 165.646 123.826 165.444C123.682 165.241 123.601 165 123.593 164.752C123.586 164.503 123.651 164.258 123.782 164.047C123.913 163.835 124.104 163.667 124.33 163.564C127.65 162.06 131.394 156.14 128.322 152.444C128.082 150.476 131.394 152.94 131.698 153.452C134.412 157.884 133.911 161.865 130.194 165.396Z" fill="#FBA98B"/>
<path d="M171.386 173.515C167.583 173.889 164.301 173.339 161.538 171.867C157.842 169.891 156.674 165.811 159.738 162.643C163.167 159.097 167.383 157.158 172.386 156.827C177.13 156.427 182.322 155.659 186.802 156.195C187.069 156.227 187.215 156.379 187.242 156.651C187.487 159.051 187.314 160.838 186.722 162.011C183.453 168.529 178.341 172.363 171.386 173.515Z" fill="#FC8E79"/>
<path d="M94.3298 169.108C93.7778 178.676 67.1138 178.996 68.7458 163.212C68.9645 161.105 70.2498 159.735 72.6018 159.1C81.1618 156.775 87.9644 158.86 93.0098 165.356C93.9644 166.593 94.4045 167.844 94.3298 169.108Z" fill="#FBA98B"/>
<path d="M144.074 172.948L146.25 172.5C146.57 172.436 146.735 172.569 146.746 172.9C146.836 175.646 145.986 178.035 144.194 180.067C142.018 182.537 139.703 184.164 137.25 184.948C131.255 180.804 124.415 179.95 116.73 182.388C115.946 182.633 115.151 183.411 114.346 184.723C110.746 182.427 106.282 176.98 107.226 172.444C107.233 172.41 107.248 172.377 107.268 172.349C107.288 172.321 107.313 172.297 107.343 172.279C107.372 172.261 107.404 172.249 107.438 172.245C107.471 172.24 107.505 172.242 107.538 172.252C119.81 175.564 131.988 175.796 144.074 172.948Z" fill="#2D242F"/>
<path d="M137.25 184.948C135.682 186.404 133.508 187.332 130.73 187.732C125.274 188.604 118.594 188.58 114.346 184.724C115.151 183.412 115.946 182.633 116.73 182.388C124.415 179.95 131.255 180.804 137.25 184.948Z" fill="#FC8E79"/>
<path d="M120.698 199.804C125.05 200.161 127.999 200.238 129.546 200.036C133.092 199.566 136.508 199.396 139.794 199.524L146.562 200.348C146.567 200.614 146.474 200.868 146.282 201.108L139.802 200.636C139.53 200.62 139.338 200.734 139.226 200.98C136.17 207.54 127.362 209.404 120.914 208.06C116.711 207.185 113.434 204.34 111.082 199.524L120.698 199.804Z" fill="#B56444"/>
<path d="M110.922 199.587C110.975 199.566 111.028 199.545 111.082 199.523C113.434 204.339 116.711 207.185 120.914 208.059C127.362 209.403 136.17 207.539 139.226 200.979C139.338 200.734 139.53 200.619 139.802 200.635L146.282 201.107C147.295 201.097 148.116 201.358 148.746 201.891C148.954 202.067 149.055 202.294 149.05 202.571C148.948 206.129 147.588 209.094 144.97 211.467C139.818 216.139 134.079 218.686 127.754 219.107C124.842 217.219 121.831 215.758 118.722 214.723C118.482 214.643 118.25 214.667 118.026 214.795C117.156 215.281 116.663 216.105 116.546 217.267C108.338 215.427 103.714 208.563 103.098 200.515L110.922 199.587Z" fill="#FC8E79"/>
<path d="M146.562 200.348L152.762 201.34L152.482 201.604C152.269 201.801 152.287 201.974 152.538 202.124L152.754 202.252C152.957 202.374 153.045 202.556 153.018 202.796C152.351 208.609 149.919 213.081 145.722 216.212C141.386 219.444 136.189 221.673 130.13 222.9L127.026 219.516C127.271 219.377 127.514 219.241 127.754 219.108C134.079 218.686 139.818 216.14 144.97 211.468C147.589 209.094 148.949 206.129 149.05 202.572C149.055 202.294 148.954 202.068 148.746 201.892C148.117 201.358 147.295 201.097 146.282 201.108C146.474 200.868 146.567 200.614 146.562 200.348Z" fill="#D7434B"/>
<path d="M103.098 200.516C103.714 208.564 108.338 215.428 116.546 217.268C120.06 218.75 123.554 219.5 127.026 219.516L130.13 222.9C124.743 223.23 119.615 222.412 114.746 220.444C106.276 217.569 101.236 211.66 99.6258 202.716C99.5778 202.438 99.6578 202.209 99.8658 202.028L101.034 200.996L103.098 200.516Z" fill="#F75E54"/>
<path d="M101.034 200.996L99.8656 202.028C99.6576 202.209 99.5776 202.438 99.6256 202.716C101.236 211.66 106.276 217.569 114.746 220.444C114.612 220.694 114.543 220.94 114.538 221.18C114.532 221.409 114.639 221.561 114.858 221.636C120.895 223.652 127.068 224.257 133.378 223.452C133.49 223.436 133.546 223.484 133.546 223.596C133.546 223.681 133.546 223.766 133.546 223.852C133.548 223.933 133.577 224.013 133.627 224.078C133.677 224.144 133.746 224.194 133.826 224.22C137.466 225.38 139.922 229.284 142.338 232.076C142.53 232.3 142.575 232.55 142.474 232.828L141.914 234.308C121.474 235.38 103.418 234.46 84.0736 228.476L72.3136 224.068C72.1697 224.013 72.0513 223.907 71.9817 223.771C71.9121 223.635 71.8963 223.478 71.9376 223.332C75.5856 210.044 88.0976 203.444 101.034 200.996Z" fill="#D7434B"/>
<path d="M152.762 201.34L157.994 202.764C168.114 206.204 177.186 213.404 179.314 224.06C179.335 224.164 179.318 224.273 179.267 224.368C179.216 224.463 179.134 224.538 179.034 224.58C167.023 229.641 154.65 232.884 141.914 234.308L142.474 232.828C142.575 232.55 142.53 232.3 142.338 232.076C139.922 229.284 137.466 225.38 133.826 224.22C133.746 224.194 133.677 224.145 133.627 224.079C133.577 224.013 133.549 223.934 133.546 223.852C133.546 223.767 133.546 223.681 133.546 223.596C133.546 223.484 133.49 223.436 133.378 223.452C127.068 224.257 120.895 223.652 114.858 221.636C114.639 221.561 114.532 221.409 114.538 221.18C114.543 220.94 114.612 220.695 114.746 220.444C119.615 222.412 124.743 223.231 130.13 222.9C136.188 221.673 141.386 219.444 145.722 216.212C149.919 213.081 152.351 208.609 153.018 202.796C153.044 202.556 152.956 202.375 152.754 202.252L152.538 202.124C152.287 201.974 152.268 201.801 152.482 201.604L152.762 201.34Z" fill="#B62A37"/>
<path d="M127.754 219.107C127.514 219.241 127.271 219.377 127.026 219.515C123.554 219.499 120.061 218.75 116.546 217.267C116.663 216.105 117.157 215.281 118.026 214.795C118.25 214.667 118.482 214.643 118.722 214.723C121.831 215.758 124.842 217.219 127.754 219.107Z" fill="#FBA98B"/>
</svg>
