<svg width="256" height="256" viewBox="0 0 256 256" fill="none" xmlns="http://www.w3.org/2000/svg">
<path d="M58.7623 56.675C52.4156 64.9204 48.1756 74.3124 46.0422 84.8511" stroke="#FEE2B3" stroke-width="2"/>
<path d="M46.042 84.8508C45.7433 85.9335 45.5647 87.3868 45.506 89.2108C45.49 89.7175 45.314 90.1228 44.978 90.4268" stroke="#FEDBA8" stroke-width="2"/>
<path d="M44.9782 90.4265C43.4102 91.6585 41.9355 93.1332 40.5541 94.8505C23.7301 115.803 27.0582 144.939 47.5782 161.939C47.7755 162.099 47.7648 162.243 47.5461 162.371C40.6608 166.365 38.5408 172.216 41.1861 179.923C41.3547 180.417 41.3295 180.957 41.1155 181.432C40.9015 181.908 40.5149 182.283 40.0341 182.483C32.9541 185.419 26.8902 180.683 28.9222 173.107C28.989 172.854 29.1459 172.637 29.3621 172.499L32.4021 170.563C32.6261 170.419 32.6795 170.227 32.5621 169.987C30.3061 165.475 25.1621 168.939 23.5621 171.947C22.2581 174.427 22.1621 178.107 22.7301 180.867C24.7621 190.699 32.2342 198.939 40.1222 205.099" stroke="#F8CC98" stroke-width="2"/>
<path d="M40.1218 205.098C50.8338 213.034 63.2418 217.818 76.1778 221.002C76.3004 221.032 76.4285 221.028 76.5495 220.993C76.6705 220.958 76.7803 220.892 76.8682 220.802C76.956 220.712 77.019 220.6 77.0508 220.478C77.0827 220.356 77.0823 220.228 77.0498 220.106C76.8898 219.52 76.9725 218.832 77.2978 218.042" stroke="#F7C591" stroke-width="2"/>
<path d="M77.2984 218.042C77.293 218.997 77.989 219.608 79.3864 219.874" stroke="#B4E1C6" stroke-width="2"/>
<path d="M232.747 182.723C233.68 180.355 234.091 177.864 233.979 175.251C233.835 171.907 232.315 168.715 229.299 167.339C226.835 166.219 224.997 166.766 223.787 168.979C223.728 169.086 223.692 169.205 223.682 169.327C223.672 169.449 223.688 169.572 223.729 169.687C223.77 169.802 223.835 169.907 223.919 169.994C224.003 170.082 224.106 170.15 224.219 170.195C228.795 172.043 228.323 178.251 224.891 180.803C222.219 182.798 219.264 183.067 216.027 181.611C214.475 180.915 214.435 179.811 215.147 178.443C218.283 172.427 215.627 165.691 210.595 161.755C210.569 161.735 210.548 161.71 210.534 161.681C210.519 161.653 210.511 161.621 210.51 161.589C210.51 161.557 210.516 161.525 210.529 161.495C210.542 161.466 210.562 161.44 210.587 161.419C232.675 142.939 235.227 111.059 213.939 90.7789" stroke="#F7C591" stroke-width="2"/>
<path d="M213.938 90.7786C212.786 81.5413 210.032 72.9199 205.674 64.9146C198.992 52.6426 189.48 42.5466 177.138 34.6266" stroke="#F8CC98" stroke-width="2"/>
<path d="M177.138 34.6267C157.834 21.7627 133.946 18.1387 111.346 22.6587C89.7838 26.9681 72.2558 38.3067 58.7625 56.6747" stroke="#FEDBA8" stroke-width="2"/>
<path d="M177.138 34.6266C176.904 34.6479 176.746 34.7226 176.666 34.8506C176.641 34.8962 176.626 34.9468 176.622 34.9988C176.618 35.0507 176.625 35.1027 176.644 35.1509C176.662 35.1992 176.691 35.2425 176.728 35.2777C176.765 35.3129 176.81 35.3392 176.858 35.3546C177.685 35.6213 178.128 36.1413 178.186 36.9146C178.199 37.0533 178.239 37.1875 178.305 37.3087C178.371 37.4299 178.462 37.5354 178.57 37.6186C184.538 42.2106 188.938 50.4506 191.482 57.3706C197.362 73.3786 192.29 92.1786 176.378 99.6906C172.234 101.651 169.018 101.107 164.85 99.6506C156.234 96.6346 147.57 90.5306 140.834 84.4426C139.864 83.5679 138.578 82.5679 136.978 81.4426C135.736 80.5679 134.456 79.5466 133.138 78.3786" stroke="#F8A942" stroke-width="2"/>
<path d="M133.138 78.3782C127.485 71.8236 123.298 64.9142 120.578 57.6502C119.373 54.4182 118.224 52.0369 117.13 50.5062" stroke="#FDB16F" stroke-width="2"/>
<path d="M117.13 50.5071L116.746 43.4511C116.75 43.3578 116.717 43.2665 116.654 43.1975C116.591 43.1285 116.503 43.0874 116.41 43.0831C116.317 43.0789 116.225 43.1119 116.156 43.1749C116.087 43.2379 116.046 43.3258 116.042 43.4191C113.343 60.1178 106.893 75.1365 96.69 88.4751C91.77 94.9071 85.514 100.691 79.21 106.083C79.1424 106.141 79.0633 106.183 78.9779 106.208C78.8926 106.232 78.8031 106.238 78.7152 106.225C78.6274 106.212 78.5433 106.181 78.4686 106.133C78.3939 106.085 78.3303 106.022 78.282 105.947C72.434 96.8511 62.25 106.931 57.002 111.395C52.858 114.931 48.986 109.715 47.834 106.219C46.1913 101.243 45.2394 95.9791 44.978 90.4271" stroke="#F8A942" stroke-width="2"/>
<path d="M46.0422 84.8504C50.3462 81.7411 54.1703 78.4931 57.5143 75.1064C57.6043 75.0152 57.7174 74.9504 57.8416 74.9188C57.9657 74.8872 58.0961 74.89 58.2187 74.9271C58.3414 74.9641 58.4516 75.0339 58.5375 75.1289C58.6234 75.224 58.6818 75.3407 58.7062 75.4664C60.2182 83.1944 64.7942 90.6184 73.6982 87.2664C79.1622 85.2024 83.4182 79.9384 86.2342 74.7544C86.3622 74.5197 86.5462 74.3411 86.7862 74.2184C88.3222 73.4184 88.7703 72.5384 89.0743 70.6744C89.2609 69.5331 89.7036 68.2798 90.4022 66.9144C93.8742 60.0718 96.9436 52.2398 99.6103 43.4184C101.442 37.3544 99.7862 32.7864 92.5462 35.0424C82.5836 38.1464 73.9489 43.4024 66.6422 50.8104C66.0182 51.4504 59.5863 59.9144 58.7623 56.6744" stroke="#FEBF5D" stroke-width="2"/>
<path d="M213.938 90.7789C214.146 95.5629 213.674 99.8669 212.522 103.691C212.026 105.334 211.186 106.686 210.002 107.747C199.882 116.819 184.914 108.827 174.338 103.411C172.642 102.542 171.12 102.952 169.77 104.643" stroke="#F1932B" stroke-width="2"/>
<path d="M169.77 104.643C164.868 101.502 159.663 99.9388 154.154 99.9548" stroke="#D47F3B" stroke-width="2"/>
<path d="M154.154 99.9549C146.128 94.0989 139.122 86.9069 133.138 78.3789" stroke="#F7A25F" stroke-width="2"/>
<path d="M117.13 50.5062C112.714 71.0502 101.202 86.4182 87.6658 101.786C85.6338 104.09 83.6498 107.17 81.3218 109.698" stroke="#F7A25F" stroke-width="2"/>
<path d="M81.3225 109.698C75.1705 114.594 67.9145 118.306 60.6745 121.258C60.2247 121.443 59.8399 121.757 59.5692 122.162C59.2985 122.567 59.1541 123.043 59.1544 123.53L59.1944 134.683C59.1944 135.653 58.9678 135.709 58.5145 134.85C56.3785 130.834 53.2745 120.378 46.7705 124.298C41.7945 127.298 39.6104 132.435 39.6424 138.275C39.7064 150.635 51.2344 161.699 64.0424 157.523C64.3091 157.437 64.5278 157.504 64.6984 157.723C64.8051 157.856 64.8638 158.034 64.8745 158.258" stroke="#F8B572" stroke-width="2"/>
<path d="M64.8738 158.259C62.2818 159.131 65.9938 165.059 66.8098 165.947C66.9197 166.064 66.9939 166.21 67.0237 166.368C67.0536 166.527 67.038 166.69 66.9788 166.84C66.9195 166.991 66.8189 167.122 66.6886 167.218C66.5582 167.315 66.4034 167.373 66.2418 167.387C58.2178 168.035 51.8978 176.147 55.6738 183.963C56.4738 185.627 58.1538 186.923 59.5298 188.099C60.2551 188.728 60.1458 189.128 59.2018 189.299C53.7538 190.275 51.5538 192.411 48.3778 196.755C47.6365 197.779 46.6551 198.752 45.4338 199.675C43.3858 201.232 41.6152 203.04 40.1218 205.099" stroke="#F1932B" stroke-width="2"/>
<path d="M154.154 99.9547L150.682 102.227" stroke="#D88768" stroke-width="2"/>
<path d="M150.683 102.227C141.893 96.2749 134.363 88.9816 128.091 80.3469" stroke="#FDB899" stroke-width="2"/>
<path d="M128.09 80.3465C124.655 75.3225 121.716 70.1465 119.274 64.8185C119.082 64.4025 118.836 64.3705 118.538 64.7225C118.052 65.2985 117.522 66.1385 116.946 67.2425C111.004 78.6505 103.108 89.7198 93.2578 100.45C92.8098 100.938 92.8498 101.354 93.3138 101.786" stroke="#FDBD9F" stroke-width="2"/>
<path d="M93.3143 101.787C89.021 103.765 85.197 106.555 81.8423 110.155" stroke="#E4926D" stroke-width="2"/>
<path d="M81.8417 110.155C81.7457 109.675 81.5724 109.523 81.3218 109.699" stroke="#FDBD9F" stroke-width="2"/>
<path d="M232.747 182.723C229.003 192.299 220.715 199.723 212.363 205.403" stroke="#DFB386" stroke-width="2"/>
<path d="M212.362 205.403L211.874 205.259C211.522 205.157 211.41 204.936 211.538 204.595L211.866 203.739C211.952 203.509 211.965 203.277 211.906 203.043C210.914 198.915 208.688 195.664 205.226 193.291C204.992 193.136 204.88 192.917 204.89 192.635C205.152 185.776 202.005 181.726 195.45 180.483C195.353 180.463 195.263 180.416 195.192 180.346C195.12 180.277 195.07 180.189 195.047 180.092C195.025 179.995 195.03 179.894 195.063 179.8C195.096 179.706 195.156 179.624 195.234 179.563C196.989 178.256 198.917 177.32 201.018 176.755C201.162 176.716 201.293 176.642 201.398 176.537C201.504 176.433 201.581 176.303 201.621 176.161C201.661 176.018 201.664 175.867 201.628 175.723C201.593 175.579 201.52 175.446 201.418 175.339L198.298 172.051C198.138 171.885 198.096 171.691 198.17 171.467C199.045 168.875 200.221 166.651 201.698 164.795C204.333 161.488 206.52 158.328 208.258 155.315" stroke="#E47F1E" stroke-width="2"/>
<path d="M208.258 155.315C211.042 153.113 213.053 151.078 214.29 149.211C219.101 141.953 219.282 134.614 214.834 127.195C213.186 124.451 206.322 120.651 204.37 124.891C203.106 127.633 201.832 130.361 200.546 133.075C200.264 133.673 199.797 133.926 199.146 133.835C197.922 133.659 198.33 124.515 198.298 123.027C198.291 122.604 198.155 122.193 197.907 121.85C197.66 121.507 197.313 121.248 196.914 121.107L180.074 115.267" stroke="#F59A58" stroke-width="2"/>
<path d="M180.074 115.266C177.434 110.85 174 107.309 169.77 104.642" stroke="#D27834" stroke-width="2"/>
<path d="M180.074 115.267L180.202 117.667C180.209 117.794 180.181 117.92 180.12 118.032C180.059 118.144 179.968 118.236 179.857 118.298C179.746 118.361 179.62 118.391 179.493 118.385C179.366 118.38 179.243 118.339 179.138 118.267C174.749 115.221 170.021 112.685 164.954 110.659" stroke="#D88768" stroke-width="2"/>
<path d="M164.954 110.659C162.688 109.517 160.349 109.323 157.938 110.075" stroke="#D9795F" stroke-width="2"/>
<path d="M117.346 192.891C115.554 195.611 111.922 195.275 109.098 195.507" stroke="#F59A58" stroke-width="2"/>
<path d="M109.098 195.507C105.322 195.283 102.81 195.336 101.562 195.667C94.3624 197.587 87.1704 201.515 82.5784 207.451C80.4744 210.163 77.6823 214.571 77.2983 218.043" stroke="#ADA759" stroke-width="2"/>
<path d="M128.091 80.3469C126.704 83.1149 126.619 85.0856 127.835 86.2589C127.989 86.4083 127.997 86.5656 127.859 86.7309L126.482 88.3789C126.29 88.6136 126.195 88.8829 126.195 89.1869L126.267 98.3949C126.267 98.7124 126.323 99.0267 126.435 99.3229C126.979 100.827 126.339 102.499 126.411 103.715C126.571 106.19 126.645 108.662 126.635 111.131C126.629 112.043 126.397 113.31 125.939 114.931C125.067 118.043 126.147 120.747 125.619 123.747C124.667 129.147 124.931 134.115 126.163 139.435C126.541 141.062 126.632 142.728 126.435 144.435C126.42 144.553 126.43 144.672 126.463 144.785C126.497 144.899 126.553 145.004 126.629 145.094C126.705 145.185 126.799 145.258 126.905 145.31C127.01 145.361 127.125 145.39 127.243 145.395C129.301 145.475 130.899 145.942 132.035 146.795" stroke="#FFCCAD" stroke-width="2"/>
<path d="M132.034 146.795C133.128 149.056 133.136 151.224 132.058 153.299" stroke="#FDBD9F" stroke-width="2"/>
<path d="M132.058 153.299C131.45 152.952 130.645 153.328 129.642 154.427C129.564 154.512 129.465 154.576 129.356 154.612C129.246 154.648 129.128 154.655 129.015 154.633C128.902 154.61 128.796 154.559 128.708 154.483C128.62 154.408 128.554 154.311 128.514 154.203C128.231 153.413 127.674 152.96 126.842 152.843C126.734 152.83 126.626 152.859 126.54 152.923C126.454 152.987 126.396 153.082 126.378 153.187C126.031 155.192 126.573 156.611 128.002 157.443" stroke="#FEE7D8" stroke-width="2"/>
<path d="M128.002 157.442C127.581 157.565 127.333 157.797 127.258 158.138C127.213 158.344 127.211 158.557 127.252 158.763C127.293 158.97 127.376 159.166 127.497 159.338C127.617 159.51 127.772 159.655 127.951 159.764C128.13 159.873 128.33 159.943 128.538 159.97C130.143 160.178 131.736 159.981 133.314 159.378" stroke="#FDBD9F" stroke-width="2"/>
<path d="M133.314 159.379C134.898 160.379 132.938 162.635 133.602 164.395C133.703 164.656 133.845 164.891 134.026 165.099C134.575 165.728 134.743 166.44 134.53 167.235C134.461 167.486 134.554 167.619 134.81 167.635C135.429 167.678 135.818 167.944 135.978 168.435" stroke="#FFCCAD" stroke-width="2"/>
<path d="M135.978 168.434C127.685 169.032 119.658 168.32 111.898 166.298C111.13 166.096 110.802 166.386 110.914 167.17C111.634 172.264 114.136 175.952 118.418 178.234" stroke="#967A71" stroke-width="2"/>
<path d="M118.418 178.234C119.389 179.178 120.506 179.813 121.77 180.138" stroke="#FDAF96" stroke-width="2"/>
<path d="M121.77 180.139L119.21 183.539C119.029 183.779 118.853 183.776 118.682 183.531L118.122 182.715C118.084 182.659 118.031 182.616 117.969 182.589C117.907 182.562 117.839 182.553 117.772 182.563C117.705 182.573 117.643 182.602 117.591 182.645C117.54 182.689 117.502 182.747 117.482 182.811L116.626 185.435C116.562 185.643 116.453 185.824 116.298 185.979C115.135 187.142 114.826 188.48 115.37 189.995C115.474 190.289 115.474 190.61 115.371 190.905C115.267 191.199 115.066 191.449 114.801 191.614C114.535 191.778 114.222 191.847 113.912 191.808C113.602 191.77 113.315 191.627 113.098 191.403C113.082 191.382 112.634 191.563 111.754 191.947" stroke="#FFCCAD" stroke-width="2"/>
<path d="M111.754 191.947C92.0502 187.923 74.2103 176.419 64.8743 158.259" stroke="#F7AE6B" stroke-width="2"/>
<path d="M81.8419 110.154C80.0446 111.578 78.9593 113.394 78.5859 115.602C78.5464 115.829 78.5695 116.062 78.6526 116.276C78.7357 116.491 78.8758 116.678 79.0577 116.819C79.2395 116.96 79.4563 117.048 79.6848 117.075C79.9132 117.102 80.1446 117.065 80.354 116.97C88.074 113.466 92.85 108.482 102.218 110.834C104.042 111.293 105.381 111.421 106.234 111.218C110.754 110.122 112.554 103.49 108.106 101.082C104.266 98.9943 97.402 100.426 93.314 101.786" stroke="#E6A580" stroke-width="2"/>
<path d="M150.682 102.227C149.136 105.843 149.813 108.469 152.714 110.107C154.37 111.043 156.234 110.659 157.938 110.075" stroke="#DA9676" stroke-width="2"/>
<path d="M157.938 110.075L173.282 119.083" stroke="#FEAB90" stroke-width="2"/>
<path d="M173.282 119.083C173.73 121.723 174.386 122.891 173.73 125.683" stroke="#FDB899" stroke-width="2"/>
<path d="M173.73 125.683C172.386 124.073 171.234 122.958 170.274 122.339C167.77 120.739 166.722 122.451 164.354 122.091C161.597 121.665 160.037 122.273 159.674 123.915" stroke="#FFE3D3" stroke-width="2"/>
<path d="M159.674 123.915C150.602 128.643 150.338 144.427 158.986 149.627C164.698 153.059 170.226 148.635 172.434 143.459" stroke="#8A6D60" stroke-width="2"/>
<path d="M172.434 143.458C173.437 142.978 174.33 142.01 175.114 140.554C175.234 140.33 175.284 140.074 175.258 139.818C175.194 139.13 175.456 138.445 176.042 137.762" stroke="#FFE3D3" stroke-width="2"/>
<path d="M176.042 137.762C175.93 141.458 175.034 144.234 172.41 147.178C171.12 148.629 169.941 150.202 168.874 151.898" stroke="#FDB899" stroke-width="2"/>
<path d="M168.874 151.898C166.165 152.8 163.858 154.269 161.954 156.306C156.082 162.57 164.498 167.426 169.754 167.434C171.498 167.44 174.237 167.034 177.97 166.218" stroke="#FEAB90" stroke-width="2"/>
<path d="M177.97 166.219C175.901 172.987 172.127 178.552 166.65 182.915C166.627 182.933 166.611 182.959 166.605 182.987C166.598 183.016 166.602 183.046 166.615 183.072C166.628 183.098 166.65 183.119 166.677 183.131C166.703 183.144 166.733 183.146 166.762 183.139C167.791 182.872 168.65 182.352 169.338 181.579C169.551 181.339 169.738 181.355 169.898 181.627C170.09 181.947 169.994 182.453 169.61 183.147" stroke="#FDB899" stroke-width="2"/>
<path d="M169.61 183.147C161.461 187.899 152.682 191.208 143.274 193.075" stroke="#EC9D5F" stroke-width="2"/>
<path d="M143.274 193.075C134.37 193.459 127.882 194.307 117.346 192.891" stroke="#FDB899" stroke-width="2"/>
<path d="M117.346 192.891L111.754 191.947" stroke="#F7A966" stroke-width="2"/>
<path d="M121.77 180.139C129.109 182.379 135.821 181.822 141.906 178.467" stroke="#FEAB90" stroke-width="2"/>
<path d="M141.906 178.467C148.055 176.125 151.442 172.107 152.066 166.411C152.083 166.259 152.061 166.105 152.002 165.963C151.943 165.822 151.849 165.698 151.729 165.603C151.609 165.508 151.467 165.444 151.316 165.419C151.165 165.394 151.01 165.408 150.866 165.459C145.933 167.181 140.97 168.173 135.978 168.435" stroke="#96766B" stroke-width="2"/>
<path d="M133.314 159.379C136.61 156.43 137.36 152.723 135.562 148.259C135.098 147.107 132.706 144.243 132.034 146.795" stroke="#FDB899" stroke-width="2"/>
<path d="M208.258 155.315C203.65 158.141 199.125 158.789 194.682 157.259C194.555 157.215 194.416 157.218 194.291 157.268C194.167 157.318 194.064 157.411 194.002 157.531C188.386 168.47 180.255 177.008 169.61 183.147" stroke="#EA8E51" stroke-width="2"/>
<path d="M177.97 166.219C180.658 164.528 183.114 162.461 185.338 160.019C187.17 158.003 191.858 148.579 184.778 149.635C179.594 150.411 174.338 150.875 168.874 151.899" stroke="#FC9C82" stroke-width="2"/>
<path d="M176.042 137.763C176.224 133.299 175.453 129.272 173.73 125.683" stroke="#FDD4C5" stroke-width="2"/>
<path d="M212.362 205.403C203.232 211.115 193.29 215.432 182.538 218.355" stroke="#D4A780" stroke-width="2"/>
<path d="M182.538 218.354C177.81 206.746 171.002 198.578 158.362 195.65C153.861 194.605 149.776 194.221 146.106 194.498" stroke="#A19B52" stroke-width="2"/>
<path d="M146.106 194.499C143.877 194.504 142.933 194.03 143.274 193.075" stroke="#EA8E51" stroke-width="2"/>
<path d="M79.386 219.875L99.754 225.579" stroke="#9DCFBB" stroke-width="2"/>
<path d="M99.7539 225.579C119.538 229.963 139.914 229.883 159.842 225.779" stroke="#DFB386" stroke-width="2"/>
<path d="M159.842 225.779C167.128 223.965 174.693 221.491 182.538 218.355" stroke="#9DCFBB" stroke-width="2"/>
<path d="M164.954 110.659L178.026 118.587C178.119 118.646 178.189 118.735 178.226 118.839C178.262 118.943 178.263 119.056 178.228 119.161C178.193 119.265 178.125 119.355 178.033 119.416C177.941 119.478 177.832 119.507 177.722 119.499L173.282 119.083" stroke="#FC9C82" stroke-width="2"/>
<path d="M108.098 197.459C106.493 196.557 104.186 196.397 101.178 196.979C100.386 197.131 100.322 197.555 100.266 198.267" stroke="#B4C47B" stroke-width="2"/>
<path d="M100.266 198.267C99.6954 208.769 99.5407 215.817 99.8021 219.411C99.9887 221.923 99.9727 223.979 99.7541 225.579" stroke="#ADA759" stroke-width="2"/>
<path d="M146.106 194.498L152.706 195.546C152.978 195.589 153.12 195.749 153.13 196.026C153.2 198.197 152.661 200.189 151.514 202.002C143.434 214.802 126.434 216.482 114.554 208.274C113.045 207.229 111.373 205.088 109.538 201.85" stroke="#B3B68C" stroke-width="2"/>
<path d="M109.538 201.851L108.098 197.459" stroke="#FDB77A" stroke-width="2"/>
<path d="M108.098 197.458C108.237 196.68 108.57 196.029 109.098 195.506" stroke="#B3B68C" stroke-width="2"/>
<path d="M128.002 157.442C129.922 156.237 131.274 154.856 132.058 153.298" stroke="#FDD4C5" stroke-width="2"/>
<path d="M141.906 178.467C140.727 176.008 138.791 174.51 136.098 173.971C131.594 173.067 120.458 172.595 118.418 178.235" stroke="#955954" stroke-width="2"/>
<path d="M172.434 143.459C174.754 135.16 173.045 128.843 167.306 124.507C165.306 122.998 162.762 122.8 159.674 123.915" stroke="#89898C" stroke-width="2"/>
<path d="M159.842 225.779C160.428 218.2 160.94 210.493 161.378 202.659C161.463 201.224 161.356 199.736 161.058 198.195C161.032 198.06 160.964 197.937 160.865 197.844C160.766 197.75 160.64 197.691 160.506 197.675L154.906 196.963C154.516 196.915 154.271 197.083 154.17 197.467C151.258 208.643 142.842 218.355 130.954 218.971C121.114 219.483 108.842 213.747 106.322 202.931" stroke="#ADA759" stroke-width="2"/>
<path d="M106.322 202.931C106.248 202.211 106.29 201.688 106.45 201.363C106.616 201.022 106.741 201.035 106.826 201.403C107.301 203.371 108.117 205.179 109.274 206.827C109.445 207.067 109.653 207.109 109.898 206.955C110.357 206.667 110.445 206.229 110.162 205.643C109.304 203.872 109.096 202.608 109.538 201.851" stroke="#B4C47B" stroke-width="2"/>
<path d="M106.322 202.931L105.946 201.219C105.888 200.936 105.968 200.702 106.186 200.515C107.666 199.275 106.29 196.875 104.514 197.843C104.312 197.955 104.093 197.998 103.858 197.971C102.498 197.795 101.37 196.851 100.266 198.267" stroke="#F7A846" stroke-width="2"/>
<path d="M124.427 25.3462C122.179 28.3462 123.915 31.5862 126.843 32.8262C127.131 32.9435 127.405 32.9195 127.667 32.7542C132.067 29.9862 136.104 26.7568 139.779 23.0662C139.839 23.007 139.879 22.9312 139.896 22.8486C139.912 22.7659 139.902 22.6801 139.869 22.602C139.835 22.524 139.779 22.4572 139.708 22.4102C139.636 22.3632 139.552 22.3382 139.467 22.3382C136.533 22.4075 133.493 22.3568 130.347 22.1862C127.267 22.0262 126.123 23.0742 124.427 25.3462Z" stroke="#FEBF5D" stroke-width="2"/>
<path d="M89.6499 149.427C96.8019 153.571 102.906 147.747 104.21 140.939C105.495 134.219 103.746 128.824 98.9619 124.755" stroke="#897266" stroke-width="2"/>
<path d="M98.9618 124.754C98.3778 120.354 88.7538 123.258 86.9058 124.21C82.3938 126.53 81.1377 134.69 81.7857 138.914C82.0737 140.808 82.8871 142.776 84.2258 144.818C85.0578 146.082 89.1218 151.802 89.6498 149.426" stroke="#FEE7D8" stroke-width="2"/>
<path d="M98.9624 124.755C93.1384 121.947 88.0584 124.883 85.8344 130.539C82.8531 138.128 84.1251 144.424 89.6504 149.427" stroke="#89898C" stroke-width="2"/>
<path d="M49.7065 149.107C51.9679 151.086 54.5625 151.934 57.4905 151.651C57.8105 151.619 58.0692 151.48 58.2665 151.235C59.1092 150.179 59.3359 148.715 58.9465 146.843C57.4905 139.771 56.5385 133.891 52.1865 128.947C52.0052 128.734 51.7785 128.608 51.5065 128.571C48.6265 128.131 46.5625 129.875 45.4505 132.555C42.8532 138.848 44.2719 144.366 49.7065 149.107Z" stroke="#FDBD9F" stroke-width="2"/>
<path d="M72.1065 159.283C74.3065 176.395 104.322 169.659 96.3705 159.355C91.4958 153.035 84.8745 150.744 76.5065 152.483C73.0771 153.192 71.6105 155.459 72.1065 159.283Z" stroke="#FDBD9F" stroke-width="2"/>
<path d="M199.882 150.731C211.498 154.467 217.658 135.219 209.266 128.179C208.066 127.176 207.08 127.184 206.306 128.203C202.834 132.763 200.445 138.224 199.138 144.587C198.858 145.947 199.018 147.379 198.738 148.787C198.654 149.193 198.725 149.616 198.936 149.975C199.147 150.333 199.484 150.603 199.882 150.731Z" stroke="#FC9C82" stroke-width="2"/>
<path d="M162.487 139.863C162.808 139.88 163.13 139.824 163.434 139.698C163.738 139.573 164.018 139.381 164.259 139.132C164.5 138.884 164.696 138.584 164.836 138.25C164.977 137.916 165.059 137.555 165.079 137.187C165.118 136.443 164.898 135.716 164.467 135.166C164.036 134.617 163.429 134.288 162.781 134.255C162.46 134.238 162.138 134.294 161.834 134.419C161.53 134.544 161.25 134.737 161.009 134.985C160.769 135.234 160.572 135.533 160.432 135.867C160.291 136.201 160.209 136.562 160.189 136.931C160.151 137.674 160.371 138.401 160.802 138.951C161.232 139.501 161.839 139.829 162.487 139.863Z" stroke="#89898C" stroke-width="2"/>
<path d="M95.8649 139.732C96.483 139.534 96.9909 139.079 97.2766 138.467C97.5624 137.855 97.6027 137.137 97.3887 136.47C97.1746 135.804 96.7238 135.243 96.1353 134.912C95.5468 134.581 94.869 134.507 94.2508 134.705C93.6327 134.904 93.1249 135.359 92.8391 135.97C92.5534 136.582 92.513 137.3 92.7271 137.967C92.9411 138.634 93.3919 139.194 93.9804 139.525C94.5688 139.856 95.2467 139.931 95.8649 139.732Z" stroke="#89898C" stroke-width="2"/>
<path d="M177.138 34.6267C176.903 34.6481 176.746 34.7227 176.666 34.8507C176.641 34.8963 176.625 34.947 176.621 34.9989C176.618 35.0508 176.625 35.1028 176.643 35.1511C176.662 35.1993 176.691 35.2426 176.728 35.2779C176.765 35.3131 176.809 35.3393 176.858 35.3547C177.685 35.6214 178.127 36.1414 178.186 36.9147C178.198 37.0535 178.239 37.1877 178.305 37.3089C178.371 37.4301 178.461 37.5356 178.57 37.6188C184.538 42.2108 188.938 50.4508 191.482 57.3708C197.362 73.3788 192.29 92.1788 176.378 99.6908C172.234 101.651 169.018 101.107 164.85 99.6507C156.234 96.6347 147.57 90.5308 140.834 84.4428C139.863 83.5681 138.578 82.5681 136.978 81.4428C135.735 80.5681 134.455 79.5467 133.138 78.3787C127.485 71.8241 123.298 64.9147 120.578 57.6507C119.373 54.4187 118.223 52.0374 117.13 50.5067L116.746 43.4507C116.75 43.3574 116.717 43.2662 116.654 43.1971C116.591 43.1281 116.503 43.087 116.41 43.0827C116.317 43.0785 116.225 43.1115 116.156 43.1745C116.087 43.2376 116.046 43.3254 116.042 43.4188C113.343 60.1174 106.893 75.1361 96.69 88.4747C91.77 94.9067 85.514 100.691 79.21 106.083C79.1424 106.14 79.0633 106.183 78.9779 106.207C78.8926 106.232 78.8031 106.238 78.7152 106.225C78.6274 106.212 78.5433 106.181 78.4686 106.133C78.3939 106.085 78.3302 106.021 78.282 105.947C72.434 96.8507 62.25 106.931 57.002 111.395C52.858 114.931 48.986 109.715 47.834 106.219C46.1913 101.243 45.2394 95.9787 44.978 90.4267C45.314 90.1227 45.49 89.7174 45.506 89.2107C45.5647 87.3867 45.7433 85.9334 46.042 84.8507C50.346 81.7414 54.17 78.4934 57.514 75.1067C57.604 75.0156 57.7172 74.9507 57.8413 74.9191C57.9655 74.8875 58.0959 74.8904 58.2185 74.9274C58.3411 74.9644 58.4514 75.0342 58.5373 75.1293C58.6232 75.2243 58.6815 75.341 58.706 75.4668C60.218 83.1948 64.794 90.6188 73.698 87.2668C79.162 85.2028 83.418 79.9387 86.234 74.7547C86.362 74.5201 86.546 74.3414 86.786 74.2188C88.322 73.4188 88.77 72.5387 89.074 70.6747C89.2607 69.5334 89.7033 68.2801 90.402 66.9147C93.874 60.0721 96.9433 52.2401 99.61 43.4188C101.442 37.3548 99.786 32.7868 92.546 35.0428C82.5833 38.1468 73.9487 43.4027 66.642 50.8107C66.018 51.4507 59.586 59.9147 58.762 56.6747C72.2553 38.3067 89.7833 26.9681 111.346 22.6587C133.946 18.1387 157.834 21.7627 177.138 34.6267ZM124.426 25.3467C122.178 28.3467 123.914 31.5867 126.842 32.8267C127.13 32.9441 127.405 32.9201 127.666 32.7547C132.066 29.9867 136.103 26.7574 139.778 23.0668C139.838 23.0076 139.879 22.9318 139.895 22.8491C139.911 22.7665 139.902 22.6807 139.868 22.6026C139.835 22.5246 139.779 22.4578 139.707 22.4108C139.635 22.3638 139.552 22.3387 139.466 22.3387C136.533 22.4081 133.493 22.3574 130.346 22.1867C127.266 22.0267 126.122 23.0747 124.426 25.3467Z" fill="#FEB852"/>
<path d="M126.843 32.8262C123.915 31.5862 122.179 28.3462 124.427 25.3462C126.123 23.0742 127.267 22.0262 130.347 22.1862C133.493 22.3568 136.533 22.4075 139.467 22.3382C139.552 22.3382 139.636 22.3632 139.708 22.4102C139.779 22.4572 139.835 22.524 139.869 22.602C139.902 22.6801 139.912 22.7659 139.896 22.8486C139.879 22.9312 139.839 23.007 139.779 23.0662C136.104 26.7568 132.067 29.9862 127.667 32.7542C127.405 32.9195 127.131 32.9435 126.843 32.8262Z" fill="#FEC568"/>
<path d="M46.0422 84.8504C48.1756 74.3117 52.4156 64.9197 58.7623 56.6744C59.5863 59.9144 66.0182 51.4504 66.6422 50.8104C73.9489 43.4024 82.5836 38.1464 92.5462 35.0424C99.7862 32.7864 101.442 37.3544 99.6103 43.4184C96.9436 52.2398 93.8742 60.0718 90.4022 66.9144C89.7036 68.2798 89.2609 69.5331 89.0743 70.6744C88.7703 72.5384 88.3222 73.4184 86.7862 74.2184C86.5462 74.3411 86.3622 74.5197 86.2342 74.7544C83.4182 79.9384 79.1622 85.2024 73.6982 87.2664C64.7942 90.6184 60.2182 83.1944 58.7062 75.4664C58.6818 75.3407 58.6234 75.224 58.5375 75.1289C58.4516 75.0339 58.3414 74.9641 58.2187 74.9271C58.0961 74.89 57.9657 74.8872 57.8416 74.9188C57.7174 74.9504 57.6043 75.0152 57.5143 75.1064C54.1703 78.4931 50.3462 81.7411 46.0422 84.8504Z" fill="#FEC568"/>
<path d="M177.138 34.6266C189.48 42.5466 198.992 52.6426 205.674 64.9146C210.032 72.9199 212.786 81.5413 213.938 90.7786C214.146 95.5626 213.674 99.8666 212.522 103.691C212.026 105.333 211.186 106.685 210.002 107.747C199.882 116.819 184.914 108.827 174.338 103.411C172.642 102.541 171.12 102.952 169.77 104.643C164.869 101.501 159.664 99.9386 154.154 99.9546C146.128 94.0986 139.122 86.9066 133.138 78.3786C134.456 79.5466 135.736 80.5679 136.978 81.4426C138.578 82.5679 139.864 83.5679 140.834 84.4426C147.57 90.5306 156.234 96.6346 164.85 99.6506C169.018 101.107 172.234 101.651 176.378 99.6906C192.29 92.1786 197.362 73.3786 191.482 57.3706C188.938 50.4506 184.538 42.2106 178.57 37.6186C178.462 37.5354 178.371 37.4299 178.305 37.3087C178.239 37.1875 178.199 37.0533 178.186 36.9146C178.128 36.1413 177.685 35.6213 176.858 35.3546C176.81 35.3392 176.765 35.3129 176.728 35.2777C176.691 35.2425 176.662 35.1992 176.644 35.1509C176.625 35.1027 176.618 35.0507 176.622 34.9988C176.626 34.9468 176.641 34.8962 176.666 34.8506C176.746 34.7226 176.904 34.6479 177.138 34.6266Z" fill="#F29A32"/>
<path d="M117.13 50.5071C112.714 71.0511 101.202 86.4191 87.6661 101.787C85.6341 104.091 83.6502 107.171 81.3222 109.699C75.1702 114.595 67.9142 118.307 60.6742 121.259C60.2244 121.443 59.8396 121.758 59.5689 122.163C59.2982 122.567 59.1538 123.044 59.1541 123.531L59.1941 134.683C59.1941 135.654 58.9675 135.71 58.5141 134.851C56.3781 130.835 53.2742 120.379 46.7702 124.299C41.7942 127.299 39.6101 132.435 39.6421 138.275C39.7061 150.635 51.2341 161.699 64.0421 157.523C64.3088 157.438 64.5275 157.504 64.6981 157.723C64.8048 157.856 64.8635 158.035 64.8742 158.259C62.2822 159.131 65.9941 165.059 66.8101 165.947C66.9201 166.065 66.9942 166.211 67.0241 166.369C67.0539 166.527 67.0384 166.691 66.9791 166.841C66.9198 166.991 66.8192 167.122 66.6889 167.219C66.5586 167.315 66.4037 167.374 66.2421 167.387C58.2181 168.035 51.8982 176.147 55.6742 183.963C56.4742 185.627 58.1541 186.923 59.5301 188.099C60.2554 188.728 60.1461 189.128 59.2021 189.299C53.7541 190.275 51.5542 192.411 48.3782 196.755C47.6368 197.779 46.6555 198.752 45.4341 199.675C43.3861 201.232 41.6155 203.04 40.1222 205.099C32.2342 198.939 24.7621 190.699 22.7301 180.867C22.1621 178.107 22.2581 174.427 23.5621 171.947C25.1621 168.939 30.3061 165.475 32.5621 169.987C32.6795 170.227 32.6261 170.419 32.4021 170.563L29.3621 172.499C29.1459 172.638 28.989 172.855 28.9222 173.107C26.8902 180.683 32.9541 185.419 40.0341 182.483C40.5149 182.284 40.9015 181.908 41.1155 181.433C41.3295 180.957 41.3547 180.418 41.1861 179.923C38.5408 172.216 40.6608 166.366 47.5461 162.371C47.7648 162.243 47.7755 162.099 47.5782 161.939C27.0582 144.939 23.7301 115.803 40.5541 94.8511C41.9355 93.1338 43.4102 91.6591 44.9782 90.4271C45.2395 95.9791 46.1915 101.243 47.8341 106.219C48.9861 109.715 52.8581 114.931 57.0021 111.395C62.2501 106.931 72.4341 96.8511 78.2821 105.947C78.3304 106.022 78.394 106.085 78.4687 106.133C78.5434 106.181 78.6275 106.212 78.7154 106.225C78.8032 106.238 78.8927 106.232 78.9781 106.208C79.0634 106.183 79.1425 106.141 79.2101 106.083C85.5141 100.691 91.7701 94.9071 96.6901 88.4751C106.893 75.1365 113.343 60.1178 116.042 43.4191C116.046 43.3258 116.088 43.2379 116.157 43.1749C116.226 43.1119 116.317 43.0789 116.41 43.0831C116.503 43.0874 116.591 43.1285 116.654 43.1975C116.717 43.2665 116.75 43.3578 116.746 43.4511L117.13 50.5071Z" fill="#F29A32"/>
<path d="M117.13 50.5062C118.223 52.0369 119.372 54.4182 120.578 57.6502C123.298 64.9142 127.484 71.8236 133.138 78.3782C139.122 86.9062 146.127 94.0982 154.154 99.9542L150.682 102.226C141.892 96.2742 134.362 88.9809 128.09 80.3462C124.655 75.3222 121.716 70.1462 119.274 64.8182C119.082 64.4022 118.836 64.3702 118.538 64.7222C118.052 65.2982 117.522 66.1382 116.946 67.2422C111.004 78.6502 103.108 89.7196 93.2578 100.45C92.8098 100.938 92.8498 101.354 93.3138 101.786C89.0204 103.765 85.1964 106.554 81.8417 110.154C81.7457 109.674 81.5724 109.522 81.3218 109.698C83.6498 107.17 85.6338 104.09 87.6658 101.786C101.202 86.4182 112.714 71.0502 117.13 50.5062Z" fill="#FBA98B"/>
<path d="M128.09 80.3465C126.704 83.1145 126.618 85.0851 127.834 86.2585C127.989 86.4078 127.997 86.5651 127.858 86.7305L126.482 88.3785C126.29 88.6131 126.194 88.8825 126.194 89.1865L126.266 98.3945C126.266 98.7119 126.323 99.0262 126.434 99.3225C126.978 100.826 126.338 102.498 126.41 103.714C126.57 106.189 126.645 108.661 126.634 111.13C126.629 112.042 126.397 113.309 125.938 114.93C125.066 118.042 126.146 120.746 125.618 123.746C124.666 129.146 124.93 134.114 126.162 139.434C126.541 141.061 126.632 142.728 126.434 144.434C126.42 144.552 126.43 144.671 126.463 144.785C126.497 144.898 126.553 145.004 126.629 145.094C126.705 145.184 126.799 145.257 126.904 145.309C127.01 145.361 127.125 145.39 127.242 145.394C129.301 145.474 130.898 145.941 132.034 146.794C133.128 149.056 133.136 151.224 132.058 153.298C131.45 152.952 130.645 153.328 129.642 154.426C129.564 154.512 129.466 154.576 129.356 154.612C129.246 154.648 129.129 154.655 129.015 154.632C128.902 154.61 128.796 154.559 128.708 154.483C128.621 154.408 128.554 154.311 128.514 154.202C128.232 153.413 127.674 152.96 126.842 152.842C126.735 152.83 126.626 152.859 126.54 152.923C126.454 152.987 126.396 153.081 126.378 153.186C126.032 155.192 126.573 156.61 128.002 157.442C127.581 157.565 127.333 157.797 127.258 158.138C127.213 158.344 127.211 158.557 127.252 158.764C127.293 158.97 127.377 159.166 127.497 159.338C127.617 159.51 127.772 159.656 127.951 159.764C128.131 159.873 128.331 159.943 128.538 159.97C130.144 160.178 131.736 159.981 133.314 159.378C134.898 160.378 132.938 162.634 133.602 164.394C133.704 164.656 133.845 164.89 134.026 165.098C134.576 165.728 134.744 166.44 134.53 167.234C134.461 167.485 134.554 167.618 134.81 167.634C135.429 167.677 135.818 167.944 135.978 168.434C127.685 169.032 119.658 168.32 111.898 166.298C111.13 166.096 110.802 166.386 110.914 167.17C111.634 172.264 114.136 175.952 118.418 178.234C119.389 179.178 120.506 179.813 121.77 180.138L119.21 183.538C119.029 183.778 118.853 183.776 118.682 183.53L118.122 182.714C118.084 182.659 118.031 182.615 117.969 182.588C117.907 182.561 117.839 182.552 117.772 182.562C117.706 182.572 117.643 182.601 117.592 182.645C117.541 182.689 117.503 182.746 117.482 182.81L116.626 185.434C116.562 185.642 116.453 185.824 116.298 185.978C115.136 187.141 114.826 188.48 115.37 189.994C115.474 190.289 115.475 190.61 115.371 190.904C115.268 191.198 115.066 191.449 114.801 191.613C114.536 191.777 114.222 191.846 113.913 191.808C113.603 191.77 113.316 191.627 113.098 191.402C113.082 191.381 112.634 191.562 111.754 191.946C92.0504 187.922 74.2105 176.418 64.8745 158.258C64.8638 158.034 64.8051 157.856 64.6984 157.722C64.5278 157.504 64.3091 157.437 64.0424 157.522C51.2344 161.698 39.7064 150.634 39.6424 138.274C39.6104 132.434 41.7945 127.298 46.7705 124.298C53.2745 120.378 56.3785 130.834 58.5145 134.85C58.9678 135.709 59.1944 135.653 59.1944 134.682L59.1544 123.53C59.1541 123.043 59.2985 122.567 59.5692 122.162C59.8399 121.757 60.2247 121.443 60.6745 121.258C67.9145 118.306 75.1705 114.594 81.3225 109.698C81.5731 109.522 81.7464 109.674 81.8424 110.154C80.0451 111.578 78.9598 113.394 78.5864 115.602C78.5469 115.829 78.57 116.062 78.6531 116.276C78.7362 116.491 78.8763 116.679 79.0582 116.819C79.24 116.96 79.4568 117.049 79.6853 117.075C79.9137 117.102 80.1451 117.066 80.3544 116.97C88.0744 113.466 92.8505 108.482 102.218 110.834C104.042 111.293 105.381 111.421 106.234 111.218C110.754 110.122 112.554 103.49 108.106 101.082C104.266 98.9945 97.4025 100.426 93.3145 101.786C92.8505 101.354 92.8105 100.938 93.2584 100.45C103.109 89.7198 111.005 78.6505 116.946 67.2425C117.522 66.1385 118.053 65.2985 118.538 64.7225C118.837 64.3705 119.082 64.4025 119.274 64.8185C121.717 70.1465 124.656 75.3225 128.09 80.3465ZM89.6504 149.426C96.8024 153.57 102.906 147.746 104.21 140.938C105.496 134.218 103.746 128.824 98.9625 124.754C98.3785 120.354 88.7544 123.258 86.9064 124.21C82.3944 126.53 81.1384 134.69 81.7864 138.914C82.0744 140.808 82.8878 142.776 84.2265 144.818C85.0585 146.082 89.1224 151.802 89.6504 149.426ZM49.7064 149.106C51.9678 151.085 54.5624 151.933 57.4904 151.65C57.8104 151.618 58.0691 151.48 58.2665 151.234C59.1091 150.178 59.3358 148.714 58.9464 146.842C57.4904 139.77 56.5384 133.89 52.1864 128.946C52.0051 128.733 51.7784 128.608 51.5064 128.57C48.6264 128.13 46.5624 129.874 45.4504 132.554C42.8531 138.848 44.2718 144.365 49.7064 149.106ZM72.1064 159.282C74.3064 176.394 104.322 169.658 96.3705 159.354C91.4958 153.034 84.8744 150.744 76.5064 152.482C73.0771 153.192 71.6104 155.458 72.1064 159.282Z" fill="#FED0B2"/>
<path d="M128.09 80.3469C134.362 88.9816 141.893 96.2749 150.682 102.227C149.135 105.843 149.813 108.47 152.714 110.107C154.37 111.043 156.234 110.659 157.938 110.075L173.282 119.083C173.73 121.723 174.386 122.891 173.73 125.683C172.386 124.072 171.234 122.958 170.274 122.339C167.77 120.739 166.722 122.451 164.354 122.091C161.597 121.664 160.037 122.272 159.674 123.915C150.602 128.643 150.338 144.427 158.986 149.627C164.698 153.059 170.226 148.635 172.434 143.459C173.437 142.979 174.33 142.011 175.114 140.555C175.234 140.331 175.284 140.075 175.258 139.819C175.194 139.131 175.455 138.446 176.042 137.763C175.93 141.459 175.034 144.235 172.41 147.179C171.119 148.63 169.941 150.203 168.874 151.899C166.165 152.8 163.858 154.27 161.954 156.307C156.082 162.571 164.498 167.427 169.754 167.435C171.498 167.44 174.237 167.035 177.97 166.219C175.901 172.987 172.127 178.552 166.65 182.915C166.627 182.933 166.611 182.959 166.605 182.987C166.598 183.016 166.602 183.046 166.615 183.072C166.628 183.099 166.65 183.12 166.677 183.132C166.703 183.144 166.734 183.146 166.762 183.139C167.791 182.872 168.65 182.352 169.338 181.579C169.551 181.339 169.738 181.355 169.898 181.627C170.09 181.947 169.994 182.454 169.61 183.147C161.461 187.899 152.682 191.208 143.274 193.075C134.37 193.459 127.882 194.307 117.346 192.891L111.754 191.947C112.634 191.563 113.082 191.382 113.098 191.403C113.315 191.627 113.602 191.77 113.912 191.808C114.222 191.847 114.535 191.778 114.801 191.613C115.066 191.449 115.267 191.199 115.371 190.905C115.474 190.61 115.474 190.289 115.37 189.995C114.826 188.48 115.135 187.142 116.298 185.979C116.453 185.824 116.562 185.643 116.626 185.435L117.482 182.811C117.502 182.747 117.54 182.689 117.591 182.645C117.643 182.602 117.705 182.573 117.772 182.563C117.839 182.553 117.907 182.562 117.969 182.589C118.031 182.616 118.084 182.659 118.122 182.715L118.682 183.531C118.853 183.776 119.029 183.779 119.21 183.539L121.77 180.139C129.109 182.379 135.821 181.822 141.906 178.467C148.055 176.126 151.442 172.107 152.066 166.411C152.083 166.259 152.061 166.105 152.002 165.963C151.943 165.822 151.849 165.698 151.729 165.603C151.609 165.508 151.467 165.445 151.316 165.419C151.165 165.394 151.01 165.408 150.866 165.459C145.933 167.182 140.97 168.174 135.978 168.435C135.818 167.944 135.429 167.678 134.81 167.635C134.554 167.619 134.461 167.486 134.53 167.235C134.743 166.44 134.575 165.728 134.026 165.099C133.845 164.891 133.703 164.656 133.602 164.395C132.938 162.635 134.898 160.379 133.314 159.379C136.61 156.43 137.359 152.723 135.562 148.259C135.098 147.107 132.706 144.243 132.034 146.795C130.898 145.942 129.301 145.475 127.242 145.395C127.125 145.39 127.01 145.361 126.904 145.31C126.798 145.258 126.705 145.185 126.629 145.094C126.553 145.004 126.496 144.899 126.463 144.785C126.429 144.672 126.419 144.553 126.434 144.435C126.631 142.728 126.541 141.062 126.162 139.435C124.93 134.115 124.666 129.147 125.618 123.747C126.146 120.747 125.066 118.043 125.938 114.931C126.397 113.31 126.629 112.043 126.634 111.131C126.645 108.662 126.57 106.19 126.41 103.715C126.338 102.499 126.978 100.827 126.434 99.3229C126.323 99.0267 126.266 98.7124 126.266 98.3949L126.194 89.1869C126.194 88.8829 126.29 88.6136 126.482 88.3789L127.858 86.7309C127.997 86.5656 127.989 86.4083 127.834 86.2589C126.618 85.0856 126.703 83.1149 128.09 80.3469Z" fill="#FFC7A7"/>
<path d="M213.938 90.7789C235.226 111.059 232.674 142.939 210.586 161.419C210.562 161.44 210.542 161.466 210.529 161.495C210.516 161.525 210.509 161.557 210.51 161.589C210.511 161.621 210.519 161.653 210.533 161.681C210.548 161.71 210.569 161.735 210.594 161.755C215.626 165.691 218.282 172.427 215.146 178.443C214.434 179.811 214.474 180.915 216.026 181.611C219.264 183.067 222.218 182.798 224.89 180.803C228.322 178.251 228.794 172.043 224.218 170.195C224.105 170.15 224.003 170.082 223.919 169.994C223.834 169.907 223.769 169.802 223.729 169.687C223.688 169.572 223.672 169.449 223.682 169.327C223.692 169.205 223.727 169.086 223.786 168.979C224.997 166.766 226.834 166.219 229.298 167.339C232.314 168.715 233.834 171.907 233.978 175.251C234.09 177.864 233.68 180.355 232.746 182.723C229.002 192.299 220.714 199.723 212.362 205.403L211.874 205.259C211.522 205.158 211.41 204.936 211.538 204.595L211.866 203.739C211.952 203.51 211.965 203.278 211.906 203.043C210.914 198.915 208.688 195.664 205.226 193.291C204.992 193.136 204.88 192.918 204.89 192.635C205.152 185.776 202.005 181.726 195.45 180.483C195.353 180.463 195.263 180.416 195.192 180.347C195.12 180.277 195.07 180.189 195.047 180.092C195.025 179.995 195.03 179.894 195.063 179.8C195.096 179.706 195.156 179.624 195.234 179.563C196.989 178.256 198.917 177.32 201.018 176.755C201.162 176.717 201.292 176.642 201.398 176.537C201.504 176.433 201.581 176.303 201.621 176.161C201.661 176.018 201.664 175.867 201.628 175.723C201.593 175.579 201.52 175.447 201.418 175.339L198.298 172.051C198.138 171.886 198.096 171.691 198.17 171.467C199.045 168.875 200.221 166.651 201.698 164.795C204.333 161.488 206.52 158.328 208.258 155.315C211.042 153.112 213.053 151.078 214.29 149.211C219.101 141.952 219.282 134.614 214.834 127.195C213.186 124.451 206.322 120.651 204.37 124.891C203.106 127.632 201.832 130.36 200.546 133.075C200.264 133.672 199.797 133.926 199.146 133.835C197.922 133.659 198.33 124.515 198.298 123.027C198.291 122.604 198.155 122.193 197.907 121.85C197.66 121.507 197.313 121.247 196.914 121.107L180.074 115.267C177.434 110.851 174 107.31 169.77 104.643C171.12 102.952 172.642 102.542 174.338 103.411C184.914 108.827 199.882 116.819 210.002 107.747C211.186 106.686 212.026 105.334 212.522 103.691C213.674 99.8669 214.146 95.5629 213.938 90.7789Z" fill="#EF8B24"/>
<path d="M169.77 104.643C174 107.31 177.434 110.851 180.074 115.267L180.202 117.667C180.21 117.794 180.181 117.92 180.121 118.032C180.06 118.144 179.968 118.236 179.858 118.299C179.747 118.361 179.621 118.391 179.493 118.386C179.366 118.38 179.243 118.339 179.138 118.267C174.749 115.222 170.021 112.686 164.954 110.659C162.688 109.518 160.349 109.323 157.938 110.075C156.234 110.659 154.37 111.043 152.714 110.107C149.813 108.47 149.136 105.843 150.682 102.227L154.154 99.9548C159.664 99.9388 164.869 101.502 169.77 104.643Z" fill="#B56444"/>
<path d="M81.8419 110.154C85.1966 106.554 89.0206 103.765 93.314 101.786C97.402 100.426 104.266 98.9943 108.106 101.082C112.554 103.49 110.754 110.122 106.234 111.218C105.381 111.421 104.042 111.293 102.218 110.834C92.85 108.482 88.074 113.466 80.354 116.97C80.1446 117.065 79.9132 117.102 79.6848 117.075C79.4563 117.048 79.2395 116.96 79.0577 116.819C78.8758 116.678 78.7357 116.491 78.6526 116.276C78.5695 116.062 78.5464 115.829 78.5859 115.602C78.9593 113.394 80.0446 111.578 81.8419 110.154Z" fill="#CD7A4E"/>
<path d="M164.954 110.659L178.026 118.587C178.119 118.646 178.189 118.735 178.226 118.839C178.263 118.943 178.264 119.056 178.229 119.161C178.194 119.265 178.125 119.355 178.033 119.417C177.942 119.478 177.832 119.507 177.722 119.499L173.282 119.083L157.938 110.075C160.349 109.323 162.688 109.517 164.954 110.659Z" fill="#FC8E79"/>
<path d="M164.954 110.659C170.021 112.685 174.749 115.221 179.138 118.267C179.243 118.339 179.366 118.38 179.493 118.385C179.62 118.391 179.746 118.361 179.857 118.298C179.968 118.236 180.059 118.144 180.12 118.032C180.181 117.92 180.209 117.794 180.202 117.667L180.074 115.267L196.914 121.107C197.313 121.247 197.66 121.506 197.907 121.85C198.154 122.193 198.291 122.604 198.298 123.027C198.33 124.515 197.922 133.659 199.146 133.835C199.797 133.925 200.263 133.672 200.546 133.075C201.831 130.36 203.106 127.632 204.37 124.891C206.322 120.651 213.186 124.451 214.834 127.195C219.282 134.613 219.101 141.952 214.29 149.211C213.053 151.077 211.042 153.112 208.258 155.315C203.65 158.141 199.125 158.789 194.682 157.259C194.555 157.215 194.416 157.218 194.291 157.268C194.166 157.318 194.064 157.411 194.002 157.531C188.386 168.469 180.255 177.008 169.61 183.147C169.994 182.453 170.09 181.947 169.898 181.627C169.738 181.355 169.551 181.339 169.338 181.579C168.65 182.352 167.791 182.872 166.762 183.139C166.733 183.146 166.703 183.143 166.677 183.131C166.65 183.119 166.628 183.098 166.615 183.072C166.602 183.046 166.598 183.016 166.605 182.987C166.611 182.958 166.627 182.933 166.65 182.915C172.127 178.552 175.901 172.987 177.97 166.219C180.658 164.528 183.114 162.461 185.338 160.019C187.17 158.003 191.858 148.579 184.778 149.635C179.594 150.411 174.338 150.875 168.874 151.899C169.941 150.203 171.119 148.629 172.41 147.179C175.034 144.235 175.93 141.459 176.042 137.763C176.223 133.299 175.453 129.272 173.73 125.683C174.386 122.891 173.73 121.723 173.282 119.083L177.722 119.499C177.832 119.507 177.941 119.478 178.033 119.416C178.125 119.355 178.193 119.265 178.228 119.161C178.263 119.056 178.262 118.943 178.226 118.839C178.189 118.735 178.119 118.646 178.026 118.587L164.954 110.659ZM199.882 150.731C211.498 154.467 217.658 135.219 209.266 128.179C208.066 127.176 207.079 127.184 206.306 128.203C202.834 132.763 200.445 138.224 199.138 144.587C198.858 145.947 199.018 147.379 198.738 148.787C198.654 149.192 198.724 149.615 198.935 149.974C199.147 150.333 199.484 150.602 199.882 150.731Z" fill="#FBA98B"/>
<path d="M173.73 125.683C175.453 129.273 176.224 133.299 176.042 137.763C175.456 138.446 175.194 139.131 175.258 139.819C175.284 140.075 175.234 140.331 175.114 140.555C174.33 142.011 173.437 142.979 172.434 143.459C174.754 135.161 173.045 128.843 167.306 124.507C165.306 122.998 162.762 122.801 159.674 123.915C160.037 122.273 161.597 121.665 164.354 122.091C166.722 122.451 167.77 120.739 170.274 122.339C171.234 122.958 172.386 124.073 173.73 125.683Z" fill="#FEFEFE"/>
<path d="M98.9618 124.754C93.1378 121.946 88.0577 124.882 85.8337 130.538C82.8524 138.128 84.1244 144.424 89.6498 149.426C89.1218 151.802 85.0578 146.082 84.2258 144.818C82.8871 142.776 82.0737 140.808 81.7857 138.914C81.1377 134.69 82.3938 126.53 86.9058 124.21C88.7538 123.258 98.3778 120.354 98.9618 124.754Z" fill="#FEFEFE"/>
<path d="M172.434 143.459C170.226 148.635 164.698 153.059 158.986 149.627C150.338 144.427 150.602 128.643 159.674 123.915C162.762 122.8 165.306 122.998 167.306 124.507C173.045 128.843 174.754 135.16 172.434 143.459ZM162.487 139.863C162.808 139.88 163.13 139.824 163.434 139.699C163.738 139.573 164.018 139.381 164.259 139.132C164.5 138.884 164.696 138.584 164.837 138.25C164.977 137.917 165.06 137.555 165.079 137.187C165.118 136.443 164.898 135.717 164.467 135.167C164.036 134.617 163.43 134.289 162.781 134.255C162.46 134.238 162.138 134.294 161.834 134.419C161.53 134.545 161.25 134.737 161.009 134.986C160.769 135.234 160.573 135.534 160.432 135.868C160.291 136.201 160.209 136.563 160.19 136.931C160.151 137.675 160.371 138.401 160.802 138.951C161.233 139.501 161.839 139.829 162.487 139.863Z" fill="#141319"/>
<path d="M98.9624 124.755C103.746 128.824 105.496 134.219 104.21 140.939C102.906 147.747 96.8024 153.571 89.6504 149.427C84.1251 144.424 82.8531 138.128 85.8344 130.539C88.0584 124.883 93.1384 121.947 98.9624 124.755ZM95.8654 139.733C96.4836 139.534 96.9914 139.079 97.2772 138.467C97.5629 137.856 97.6032 137.137 97.3892 136.471C97.1752 135.804 96.7243 135.244 96.1359 134.913C95.5474 134.582 94.8695 134.507 94.2514 134.706C93.6332 134.904 93.1254 135.359 92.8397 135.971C92.5539 136.583 92.5136 137.301 92.7276 137.967C92.9416 138.634 93.3925 139.195 93.9809 139.526C94.5694 139.857 95.2473 139.931 95.8654 139.733Z" fill="#141319"/>
<path d="M199.882 150.731C199.484 150.603 199.147 150.333 198.936 149.975C198.725 149.616 198.654 149.193 198.738 148.787C199.018 147.379 198.858 145.947 199.138 144.587C200.445 138.224 202.834 132.763 206.306 128.203C207.08 127.184 208.066 127.176 209.266 128.179C217.658 135.219 211.498 154.467 199.882 150.731Z" fill="#FC8E79"/>
<path d="M49.7065 149.107C44.2719 144.366 42.8532 138.848 45.4505 132.555C46.5625 129.875 48.6265 128.131 51.5065 128.571C51.7785 128.608 52.0052 128.734 52.1865 128.947C56.5385 133.891 57.4905 139.771 58.9465 146.843C59.3359 148.715 59.1092 150.179 58.2666 151.235C58.0692 151.48 57.8105 151.619 57.4905 151.651C54.5625 151.934 51.9679 151.086 49.7065 149.107Z" fill="#FBA98B"/>
<path d="M160.19 136.931C160.108 138.479 161.137 139.792 162.487 139.863C163.837 139.934 164.998 138.736 165.079 137.187C165.16 135.638 164.131 134.325 162.781 134.255C161.431 134.184 160.271 135.382 160.19 136.931Z" fill="#FEFEFE"/>
<path d="M92.7274 137.967C93.1732 139.355 94.578 140.145 95.8653 139.732C97.1526 139.319 97.8348 137.858 97.3891 136.47C96.9434 135.082 95.5385 134.291 94.2512 134.705C92.9639 135.118 92.2817 136.578 92.7274 137.967Z" fill="#FEFEFE"/>
<path d="M133.314 159.379C131.736 159.982 130.143 160.179 128.538 159.971C128.33 159.944 128.13 159.874 127.951 159.765C127.772 159.656 127.617 159.511 127.497 159.339C127.376 159.166 127.293 158.971 127.252 158.764C127.211 158.558 127.213 158.345 127.258 158.139C127.333 157.798 127.581 157.566 128.002 157.443C129.922 156.238 131.274 154.856 132.058 153.299C133.136 151.224 133.127 149.056 132.034 146.795C132.706 144.243 135.098 147.107 135.562 148.259C137.36 152.723 136.61 156.43 133.314 159.379Z" fill="#FBA98B"/>
<path d="M177.97 166.219C174.237 167.035 171.498 167.44 169.754 167.435C164.498 167.427 156.082 162.571 161.954 156.307C163.858 154.269 166.165 152.8 168.874 151.899C174.338 150.875 179.594 150.411 184.778 149.635C191.858 148.579 187.17 158.003 185.338 160.019C183.114 162.461 180.658 164.528 177.97 166.219Z" fill="#FC8E79"/>
<path d="M96.3705 159.355C104.322 169.659 74.3065 176.395 72.1065 159.283C71.6105 155.459 73.0771 153.192 76.5065 152.483C84.8745 150.744 91.4958 153.035 96.3705 159.355Z" fill="#FBA98B"/>
<path d="M132.058 153.299C131.274 154.856 129.922 156.237 128.002 157.443C126.573 156.611 126.031 155.192 126.378 153.187C126.396 153.082 126.454 152.987 126.54 152.923C126.626 152.859 126.734 152.83 126.842 152.843C127.674 152.96 128.231 153.413 128.514 154.203C128.554 154.311 128.62 154.408 128.708 154.483C128.796 154.559 128.902 154.61 129.015 154.633C129.128 154.655 129.246 154.648 129.356 154.612C129.465 154.576 129.564 154.512 129.642 154.427C130.645 153.328 131.45 152.952 132.058 153.299Z" fill="#FEFEFE"/>
<path d="M208.258 155.315C206.52 158.328 204.333 161.488 201.698 164.795C200.221 166.651 199.045 168.875 198.17 171.467C198.096 171.691 198.138 171.885 198.298 172.051L201.418 175.339C201.52 175.446 201.593 175.579 201.628 175.723C201.664 175.867 201.661 176.018 201.621 176.161C201.581 176.303 201.504 176.433 201.398 176.537C201.293 176.642 201.162 176.716 201.018 176.755C198.917 177.32 196.989 178.256 195.234 179.563C195.156 179.624 195.096 179.706 195.063 179.8C195.03 179.894 195.025 179.995 195.047 180.092C195.07 180.189 195.12 180.277 195.192 180.346C195.263 180.416 195.353 180.463 195.45 180.483C202.005 181.726 205.152 185.776 204.89 192.635C204.88 192.917 204.992 193.136 205.226 193.291C208.688 195.664 210.914 198.915 211.906 203.043C211.965 203.277 211.952 203.509 211.866 203.739L211.538 204.595C211.41 204.936 211.522 205.157 211.874 205.259L212.362 205.403C203.232 211.115 193.29 215.432 182.538 218.355C177.81 206.747 171.002 198.579 158.362 195.651C153.861 194.605 149.776 194.221 146.106 194.499C143.877 194.504 142.933 194.029 143.274 193.075C152.682 191.208 161.461 187.899 169.61 183.147C180.256 177.008 188.386 168.47 194.002 157.531C194.064 157.411 194.167 157.318 194.292 157.268C194.416 157.218 194.555 157.215 194.682 157.259C199.125 158.789 203.65 158.141 208.258 155.315Z" fill="#D87317"/>
<path d="M64.8738 158.259C74.2098 176.419 92.0498 187.923 111.754 191.947L117.346 192.891C115.554 195.611 111.922 195.275 109.098 195.507C105.322 195.283 102.81 195.336 101.562 195.667C94.3618 197.587 87.1698 201.515 82.5778 207.451C80.4738 210.163 77.6818 214.571 77.2978 218.043C76.9725 218.832 76.8898 219.52 77.0498 220.107C77.0823 220.228 77.0827 220.356 77.0508 220.478C77.019 220.6 76.956 220.712 76.8682 220.802C76.7803 220.892 76.6705 220.958 76.5495 220.993C76.4285 221.029 76.3004 221.032 76.1778 221.003C63.2418 217.819 50.8338 213.035 40.1218 205.099C41.6152 203.04 43.3858 201.232 45.4338 199.675C46.6551 198.752 47.6365 197.779 48.3778 196.755C51.5538 192.411 53.7538 190.275 59.2018 189.299C60.1458 189.128 60.2551 188.728 59.5298 188.099C58.1538 186.923 56.4738 185.627 55.6738 183.963C51.8978 176.147 58.2178 168.035 66.2418 167.387C66.4034 167.373 66.5582 167.315 66.6886 167.218C66.8189 167.122 66.9195 166.991 66.9788 166.84C67.038 166.69 67.0536 166.527 67.0237 166.368C66.9939 166.21 66.9197 166.064 66.8098 165.947C65.9938 165.059 62.2818 159.131 64.8738 158.259Z" fill="#EF8B24"/>
<path d="M141.906 178.467C140.728 176.008 138.792 174.509 136.098 173.971C131.594 173.067 120.458 172.595 118.418 178.235C114.136 175.952 111.634 172.264 110.914 167.171C110.802 166.387 111.13 166.096 111.898 166.299C119.658 168.32 127.685 169.032 135.978 168.435C140.97 168.173 145.933 167.181 150.866 165.459C151.011 165.408 151.166 165.394 151.317 165.419C151.468 165.444 151.61 165.508 151.73 165.603C151.85 165.698 151.944 165.822 152.002 165.963C152.061 166.105 152.083 166.259 152.066 166.411C151.442 172.107 148.056 176.125 141.906 178.467Z" fill="#2D242F"/>
<path d="M141.906 178.467C135.821 181.822 129.109 182.379 121.77 180.139C120.506 179.813 119.389 179.179 118.418 178.235C120.458 172.595 131.594 173.067 136.098 173.971C138.791 174.51 140.727 176.008 141.906 178.467Z" fill="#FC8E79"/>
<path d="M117.346 192.891C127.882 194.307 134.37 193.459 143.274 193.075C142.933 194.029 143.877 194.504 146.106 194.499L152.706 195.547C152.978 195.589 153.12 195.749 153.13 196.027C153.2 198.197 152.661 200.189 151.514 202.003C143.434 214.803 126.434 216.483 114.554 208.275C113.045 207.229 111.373 205.088 109.538 201.851L108.098 197.459C108.237 196.68 108.57 196.029 109.098 195.507C111.922 195.275 115.554 195.611 117.346 192.891Z" fill="#FBA98B"/>
<path d="M182.538 218.355C174.693 221.491 167.128 223.966 159.842 225.779C160.429 218.2 160.941 210.494 161.378 202.659C161.464 201.224 161.357 199.736 161.058 198.195C161.032 198.06 160.965 197.938 160.866 197.844C160.767 197.751 160.641 197.691 160.506 197.675L154.906 196.963C154.517 196.915 154.272 197.083 154.17 197.467C151.258 208.643 142.842 218.355 130.954 218.971C121.114 219.483 108.842 213.747 106.322 202.931C106.248 202.211 106.29 201.688 106.45 201.363C106.616 201.022 106.741 201.035 106.826 201.403C107.301 203.371 108.117 205.179 109.274 206.827C109.445 207.067 109.653 207.11 109.898 206.955C110.357 206.667 110.445 206.23 110.162 205.643C109.304 203.872 109.096 202.608 109.538 201.851C111.373 205.088 113.045 207.23 114.554 208.275C126.434 216.483 143.434 214.803 151.514 202.003C152.661 200.19 153.2 198.198 153.13 196.027C153.12 195.75 152.978 195.59 152.706 195.547L146.106 194.499C149.776 194.222 153.861 194.606 158.362 195.651C171.002 198.579 177.81 206.747 182.538 218.355Z" fill="#6AC38D"/>
<path d="M109.098 195.507C108.57 196.029 108.237 196.68 108.098 197.459C106.493 196.557 104.186 196.397 101.178 196.979C100.386 197.131 100.322 197.555 100.266 198.267C99.6957 208.768 99.541 215.816 99.8024 219.411C99.989 221.923 99.973 223.979 99.7544 225.579L79.3864 219.875C77.989 219.608 77.293 218.997 77.2984 218.043C77.6824 214.571 80.4744 210.163 82.5784 207.451C87.1704 201.515 94.3624 197.587 101.562 195.667C102.81 195.336 105.322 195.283 109.098 195.507Z" fill="#6AC38D"/>
<path d="M108.098 197.459L109.538 201.851C109.096 202.608 109.304 203.872 110.162 205.643C110.445 206.229 110.357 206.667 109.898 206.955C109.653 207.109 109.445 207.067 109.274 206.827C108.117 205.179 107.301 203.371 106.826 201.403C106.741 201.035 106.616 201.021 106.45 201.363C106.29 201.688 106.248 202.211 106.322 202.931L105.946 201.219C105.888 200.936 105.968 200.701 106.186 200.515C107.666 199.275 106.29 196.875 104.514 197.843C104.312 197.955 104.093 197.997 103.858 197.971C102.498 197.795 101.37 196.851 100.266 198.267C100.322 197.555 100.386 197.131 101.178 196.979C104.186 196.397 106.493 196.557 108.098 197.459Z" fill="#FEC568"/>
<path d="M159.842 225.779C139.914 229.883 119.538 229.963 99.7541 225.579C99.9727 223.979 99.9887 221.923 99.8021 219.411C99.5407 215.816 99.6954 208.768 100.266 198.267C101.37 196.851 102.498 197.795 103.858 197.971C104.093 197.997 104.311 197.955 104.514 197.843C106.29 196.875 107.666 199.275 106.186 200.515C105.967 200.701 105.887 200.936 105.946 201.219L106.322 202.931C108.842 213.747 121.114 219.483 130.954 218.971C142.842 218.355 151.258 208.643 154.17 197.467C154.271 197.083 154.517 196.915 154.906 196.963L160.506 197.675C160.641 197.691 160.766 197.75 160.866 197.844C160.965 197.937 161.032 198.06 161.058 198.195C161.357 199.736 161.463 201.224 161.378 202.659C160.941 210.493 160.429 218.2 159.842 225.779Z" fill="#EF8B24"/>
</svg>
