<svg width="256" height="256" viewBox="0 0 256 256" fill="none" xmlns="http://www.w3.org/2000/svg">
<path d="M232.454 108.164C228.604 87.7742 219.758 69.8542 205.918 54.4036" stroke="#93845B" stroke-width="2"/>
<path d="M205.918 54.4036C195.566 42.9742 183.358 34.2729 169.294 28.2996" stroke="#938861" stroke-width="2"/>
<path d="M169.294 28.2993C160.916 24.726 152.508 22.3686 144.07 21.2273" stroke="#938C65" stroke-width="2"/>
<path d="M144.07 21.2274C133.617 19.7341 123.275 19.6034 113.046 20.8354" stroke="#94936F" stroke-width="2"/>
<path d="M113.046 20.8354C85.814 24.7874 63.4033 37.2461 45.814 58.2114" stroke="#918E6C" stroke-width="2"/>
<path d="M144.071 21.2273C140.721 21.478 137.497 21.7953 134.399 22.1793C132.42 22.4246 130.044 22.5313 127.271 22.4993C122.673 22.4406 118.119 22.9633 113.607 24.0673C113.544 24.0829 113.485 24.1119 113.434 24.1525C113.384 24.193 113.342 24.2441 113.313 24.3024C113.283 24.3606 113.266 24.4248 113.263 24.4905C113.26 24.5561 113.271 24.6219 113.295 24.6833L114.055 26.6353C114.101 26.7534 114.104 26.8836 114.062 27.0015C114.021 27.1194 113.939 27.2167 113.831 27.2753C110.855 28.9233 111.815 32.3073 111.543 34.7793C111.525 34.9348 111.467 35.0828 111.375 35.2079C111.282 35.3331 111.158 35.4309 111.015 35.4913C110.284 35.8113 109.684 36.2646 109.215 36.8513C109.06 37.0433 108.863 37.1766 108.623 37.2513C105.999 38.0753 102.039 42.8353 100.775 44.1633C100.66 44.2825 100.593 44.4399 100.587 44.6052C100.581 44.7705 100.637 44.9322 100.743 45.0593C101.377 45.8166 102.209 46.1793 103.239 46.1473C103.505 46.1366 103.764 46.1793 104.015 46.2753C104.479 46.4406 105.033 46.5046 105.679 46.4673" stroke="#FDD27D" stroke-width="2"/>
<path d="M105.678 46.4675C100.278 47.7875 95.2542 49.0275 89.6542 49.0115C89.5292 49.0113 89.4055 48.9825 89.2919 48.9271C89.1784 48.8717 89.078 48.7912 88.9982 48.6915C86.8702 46.0355 84.4622 42.8435 80.7662 45.8835C77.6408 48.4542 76.2942 51.6862 76.7262 55.5795" stroke="#FDE195" stroke-width="2"/>
<path d="M76.7259 55.5796C75.6912 57.5369 75.1659 59.4596 75.1499 61.3476" stroke="#C4794E" stroke-width="2"/>
<path d="M75.1501 61.3477C73.2861 60.6277 69.5821 63.6757 68.3181 64.8997C57.4381 75.4917 57.2461 89.9957 58.6701 104.476" stroke="#FDE195" stroke-width="2"/>
<path d="M58.6702 104.475L56.3902 103.02C56.1662 102.881 55.9529 102.897 55.7502 103.068C54.6622 103.988 53.4302 105.82 52.2542 105.86C51.9982 105.865 51.7929 105.969 51.6382 106.172C47.5822 111.508 40.5742 114.612 34.1822 117.092C32.9022 117.596 32.7902 118.747 31.7102 119.507C29.7422 120.875 26.8622 122.604 26.1102 124.964C25.8062 125.918 25.5929 126.894 25.4702 127.892C25.4382 128.148 25.3582 128.382 25.2302 128.596L24.7902 129.332C24.5609 129.716 24.4729 129.684 24.5262 129.236L24.9422 125.675C24.9446 125.596 24.9173 125.518 24.8655 125.458C24.8138 125.398 24.7415 125.359 24.6625 125.349C24.5836 125.339 24.5038 125.358 24.4387 125.404C24.3735 125.45 24.3277 125.518 24.3102 125.596C23.4782 131.436 23.2542 137.108 23.6382 142.612C23.6756 143.102 23.3556 143.494 22.6782 143.787" stroke="#FDD27D" stroke-width="2"/>
<path d="M22.6783 143.788C18.6303 112.74 25.9023 82.6677 45.8143 58.2117" stroke="#90886A" stroke-width="2"/>
<path d="M99.446 30.8434C99.446 30.1708 99.1788 29.5257 98.7032 29.0501C98.2277 28.5746 97.5826 28.3074 96.91 28.3074C96.2374 28.3074 95.5924 28.5746 95.1168 29.0501C94.6412 29.5257 94.374 30.1708 94.374 30.8434C94.374 31.516 94.6412 32.161 95.1168 32.6366C95.5924 33.1122 96.2374 33.3794 96.91 33.3794C97.5826 33.3794 98.2277 33.1122 98.7032 32.6366C99.1788 32.161 99.446 31.516 99.446 30.8434Z" stroke="#FDE3B3" stroke-width="2"/>
<path d="M169.295 28.2995C166.367 27.7075 163.479 27.0755 160.631 26.4035C159.495 26.1369 158.295 26.1049 157.031 26.3075C155.116 26.6169 152.852 26.8382 150.239 26.9716C150.152 26.9767 150.067 26.9989 149.988 27.0368C149.91 27.0747 149.841 27.1275 149.783 27.1923C149.726 27.2571 149.682 27.3325 149.655 27.4141C149.627 27.4957 149.616 27.5818 149.623 27.6676C149.831 30.6169 148.991 32.2302 147.103 32.5075" stroke="#FCC76F" stroke-width="2"/>
<path d="M147.102 32.5074C145.476 31.6061 143.724 31.0914 141.846 30.9634C141.592 30.945 141.339 31.0126 141.128 31.1554C140.917 31.2982 140.76 31.5079 140.682 31.7508C140.604 31.9937 140.611 32.2556 140.7 32.4944C140.789 32.7333 140.957 32.9351 141.174 33.0674C151.718 39.5074 141.398 47.1954 134.766 40.9474C134.398 40.6008 134.468 40.4248 134.974 40.4194C135.305 40.4141 135.537 40.3741 135.67 40.2994C135.783 40.232 135.87 40.1287 135.917 40.0061C135.964 39.8835 135.97 39.7488 135.932 39.6239C135.894 39.4989 135.815 39.391 135.708 39.3176C135.601 39.2442 135.472 39.2096 135.342 39.2194C132.158 39.4594 132.774 42.7874 133.638 44.7314" stroke="#ED884C" stroke-width="2"/>
<path d="M133.638 44.7314C124.182 44.1927 114.862 44.7714 105.678 46.4674" stroke="#FCD98B" stroke-width="2"/>
<path d="M205.918 54.4036L205.118 54.7236C204.889 54.8196 204.836 54.9742 204.958 55.1876C205.257 55.7102 205.1 56.2649 204.486 56.8516C203.473 57.8169 202.873 59.0222 202.686 60.4676C202.644 60.7822 202.473 60.8809 202.174 60.7636C199.812 59.8356 198.361 60.4702 197.822 62.6676C197.758 62.9289 197.614 63.1289 197.39 63.2676C193.812 65.4756 191.612 68.6302 190.79 72.7316C190.737 73.0089 190.777 73.2729 190.91 73.5236L191.014 73.7156C191.148 73.9769 191.084 74.1716 190.822 74.2996C190.572 74.4276 190.273 74.4809 189.926 74.4596" stroke="#FCBF64" stroke-width="2"/>
<path d="M189.926 74.4597C186.758 67.5957 181.47 63.7584 174.062 62.9478" stroke="#DA7643" stroke-width="2"/>
<path d="M174.063 62.9473C171.495 52.1633 163.767 45.4193 153.191 42.6593C152.924 42.5847 152.783 42.4113 152.767 42.1393C152.548 37.8833 150.66 34.6727 147.103 32.5073" stroke="#ED8447" stroke-width="2"/>
<path d="M174.062 62.9478L172.198 63.9077" stroke="#CA3720" stroke-width="2"/>
<path d="M172.198 63.9075C169.243 65.9661 166.27 68.0035 163.278 70.0195C142.294 84.1635 109.534 86.5155 88.4941 70.7315" stroke="#B32F1C" stroke-width="2"/>
<path d="M88.4941 70.7314C89.0381 70.6301 89.5928 70.3474 90.1581 69.8834C90.2505 69.8056 90.369 69.7662 90.4885 69.7737C90.608 69.7811 90.7191 69.8349 90.7981 69.9234C92.8221 72.1554 94.3101 70.3234 96.0141 69.9394C100.414 68.9634 104.222 68.8754 108.046 66.2754C108.201 66.1687 108.326 66.0236 108.408 65.8542C108.49 65.6849 108.527 65.4972 108.515 65.3093C108.503 65.1215 108.442 64.9401 108.339 64.7827C108.236 64.6253 108.094 64.4974 107.926 64.4114C106.79 63.8354 105.985 62.9901 105.51 61.8754C105.377 61.5554 105.47 61.3287 105.79 61.1954L117.91 55.9794C118.262 55.8301 118.438 55.5661 118.438 55.1874C118.443 54.6327 118.755 54.4301 119.374 54.5794C119.678 54.6487 119.961 54.6007 120.222 54.4354L123.478 52.3714C123.745 52.2007 123.939 51.9687 124.062 51.6754C124.681 50.1501 125.875 49.2807 127.646 49.0674C127.894 49.0364 128.121 48.9201 128.286 48.7394C128.718 48.2647 129.318 48.0221 130.086 48.0114C130.299 48.0061 130.443 47.9047 130.518 47.7074C130.614 47.4461 130.99 47.2914 131.646 47.2434" stroke="#E5562D" stroke-width="2"/>
<path d="M131.646 47.2437L136.03 46.9077C136.489 46.8704 136.529 46.7237 136.15 46.4677L133.638 44.7317" stroke="#ED9764" stroke-width="2"/>
<path d="M131.646 47.2434C121.123 47.3554 110.795 48.8861 100.662 51.8354C96.8061 52.9554 93.0621 52.8381 89.4301 51.4834C87.8381 50.8914 86.9261 49.5154 85.8221 48.2434C85.7339 48.1429 85.6215 48.0666 85.4954 48.0218C85.3694 47.9769 85.234 47.9651 85.1021 47.9874C80.5901 48.7074 79.1981 52.7714 77.4941 56.4274" stroke="#F5A86C" stroke-width="2"/>
<path d="M77.4941 56.4276C77.1047 56.1769 76.8487 55.8943 76.7261 55.5796" stroke="#C3805C" stroke-width="2"/>
<path d="M88.4941 70.7313C83.2088 66.7259 79.5421 61.9579 77.4941 56.4272" stroke="#BB4025" stroke-width="2"/>
<path d="M232.454 108.163C240.526 158.307 217.422 205.739 171.23 227.571C169.598 228.339 167.55 229.126 165.086 229.931" stroke="#907F58" stroke-width="2"/>
<path d="M165.086 229.932L164.702 223.212" stroke="#B08A57" stroke-width="2"/>
<path d="M164.702 223.212C164.686 222.561 164.622 222.401 164.51 222.732" stroke="#D8B364" stroke-width="2"/>
<path d="M164.51 222.731L164.862 222.571C165.124 222.449 165.244 222.243 165.222 221.955C164.318 209.875 160.358 196.051 149.254 189.691C148.254 189.115 137.63 185.315 137.59 186.867" stroke="#FCD39E" stroke-width="2"/>
<path d="M137.59 186.867C136.78 186.531 135.745 186.401 134.486 186.475" stroke="#A77C4B" stroke-width="2"/>
<path d="M134.486 186.476C133.403 183.062 133.043 179.532 133.406 175.884" stroke="#F6995B" stroke-width="2"/>
<path d="M133.406 175.883C143.23 175.131 152.766 172.643 162.014 168.419" stroke="#FCD39E" stroke-width="2"/>
<path d="M162.014 168.419C165.758 169.566 169.462 169.769 173.126 169.027C173.377 168.977 173.613 168.872 173.819 168.721C174.025 168.57 174.196 168.375 174.319 168.152C174.442 167.928 174.516 167.68 174.533 167.425C174.551 167.17 174.513 166.914 174.422 166.675L173.654 164.651C173.553 164.39 173.643 164.254 173.926 164.243C175.95 164.155 185.422 164.355 182.03 159.675C181.957 159.576 181.914 159.457 181.906 159.334C181.897 159.211 181.923 159.088 181.982 158.978C182.04 158.868 182.127 158.777 182.235 158.713C182.342 158.65 182.465 158.618 182.59 158.619C184.638 158.659 189.534 158.635 190.846 156.651C191.134 156.219 191.078 155.841 190.678 155.515L180.518 147.339" stroke="#AE6135" stroke-width="2"/>
<path d="M180.518 147.34C179.841 147.169 179.377 147.158 179.126 147.308" stroke="#FCD39E" stroke-width="2"/>
<path d="M179.126 147.308C178.982 144.054 179.518 142.334 180.734 142.148" stroke="#FBA15C" stroke-width="2"/>
<path d="M180.734 142.148C179.814 146.54 183.518 145.724 186.246 145.564" stroke="#F6995B" stroke-width="2"/>
<path d="M186.246 145.563C192.603 144.891 197.683 141.761 201.486 136.171" stroke="#FBA15C" stroke-width="2"/>
<path d="M201.486 136.172C203.454 134.284 204.625 131.868 204.998 128.924C206.142 119.932 200.022 113.436 190.678 113.9C190.422 113.916 190.195 114.006 189.998 114.172C189.417 114.657 189.089 115.19 189.014 115.772" stroke="#FCD39E" stroke-width="2"/>
<path d="M189.015 115.772L187.75 115.436" stroke="#FBA15C" stroke-width="2"/>
<path d="M187.75 115.436C190.718 103.82 193.87 90.1557 191.206 77.8997" stroke="#C36939" stroke-width="2"/>
<path d="M191.206 77.8995L189.926 74.4595" stroke="#DA723D" stroke-width="2"/>
<path d="M172.198 63.9075C172.422 64.0035 172.537 64.0515 172.542 64.0515C172.622 64.0522 172.701 64.0761 172.768 64.1204C172.835 64.1647 172.887 64.2274 172.919 64.301C172.952 64.3745 172.962 64.4558 172.949 64.5351C172.936 64.6143 172.9 64.6881 172.846 64.7475C169.843 68.1502 167.041 71.6968 164.438 75.3875C158.038 84.4835 162.638 96.3155 172.638 100.179C174.057 100.723 175.505 101.291 176.982 101.883C177.133 101.944 177.297 101.963 177.458 101.938C177.619 101.912 177.77 101.843 177.895 101.738C178.021 101.633 178.116 101.496 178.17 101.342C178.225 101.187 178.237 101.02 178.206 100.859C177.774 98.6835 177.547 97.0835 177.526 96.0595C177.462 93.0621 177.929 92.9768 178.926 95.8035C180.734 100.939 182.443 106.131 184.054 111.379C184.081 111.469 184.135 111.548 184.208 111.606C184.282 111.664 184.372 111.698 184.465 111.704C184.559 111.709 184.651 111.685 184.731 111.636C184.811 111.586 184.873 111.514 184.91 111.427C186.886 106.851 187.126 102.755 187.702 97.8995C188.206 93.6995 189.494 89.3555 190.054 84.9715C190.177 83.9955 190.411 83.0381 190.758 82.0995C190.849 81.8541 190.843 81.6115 190.742 81.3715C189.953 79.4782 190.107 78.3208 191.206 77.8995" stroke="#A02118" stroke-width="2"/>
<path d="M187.75 115.436L186.734 118.948" stroke="#C15037" stroke-width="2"/>
<path d="M186.735 118.947C185.092 124.441 183.783 130.201 182.807 136.227C182.8 136.243 182.788 136.256 182.774 136.265C182.759 136.274 182.742 136.277 182.725 136.275C182.708 136.274 182.692 136.267 182.679 136.255C182.666 136.243 182.658 136.228 182.655 136.211C183.023 127.923 182.081 119.057 179.831 109.611C179.329 107.499 178.959 106.014 178.719 105.155C178.683 105.025 178.611 104.908 178.511 104.814C178.411 104.721 178.286 104.657 178.151 104.627C174.412 103.833 171.007 102.43 167.935 100.419" stroke="#BC4836" stroke-width="2"/>
<path d="M167.934 100.42C164.857 98.3075 162.449 95.3342 160.71 91.4995" stroke="#C15037" stroke-width="2"/>
<path d="M160.71 91.4997L158.95 82.7797C158.897 82.5131 158.756 82.4491 158.526 82.5877C132.71 97.7957 94.8305 92.3957 77.9185 66.5317" stroke="#AA3D2D" stroke-width="2"/>
<path d="M77.9182 66.5317L75.8462 62.9797" stroke="#C15037" stroke-width="2"/>
<path d="M75.8459 62.9796C75.8512 62.4996 75.6192 61.9557 75.1499 61.3477" stroke="#C3805C" stroke-width="2"/>
<path d="M22.6782 143.788C24.2249 154.838 27.3316 165.409 31.9982 175.5" stroke="#8F8060" stroke-width="2"/>
<path d="M31.9985 175.499C43.2545 199.003 63.2625 219.659 88.0385 229.011" stroke="#8F7D5C" stroke-width="2"/>
<path d="M88.0381 229.012L95.1421 231.436" stroke="#626E5F" stroke-width="2"/>
<path d="M95.1419 231.436C94.8859 231.953 95.1552 232.228 95.9499 232.26" stroke="#27363E" stroke-width="2"/>
<path d="M75.8467 62.9797C71.5427 63.6917 66.3667 70.9078 64.6467 74.5718C61.8733 80.4704 60.468 87.3504 60.4307 95.2117" stroke="#FBB87E" stroke-width="2"/>
<path d="M60.4302 95.2117C60.4249 102.022 61.2062 108.753 62.7742 115.404" stroke="#ED9764" stroke-width="2"/>
<path d="M62.7742 115.403C62.6088 115.947 62.2568 116.265 61.7182 116.355C61.4835 116.393 61.3848 116.294 61.4222 116.059C61.5235 115.425 61.3528 114.811 60.9102 114.219" stroke="#FDD399" stroke-width="2"/>
<path d="M60.9104 114.219C59.6784 110.977 58.9317 107.729 58.6704 104.475" stroke="#FCD98B" stroke-width="2"/>
<path d="M77.9182 66.5317C75.1982 68.5557 69.8382 73.7717 71.4702 77.4438C71.6302 77.8064 71.7555 77.7957 71.8462 77.4117L72.8782 73.0517C72.8977 72.9711 72.9422 72.8988 73.0054 72.8451C73.0686 72.7914 73.1471 72.7591 73.2298 72.7529C73.3125 72.7467 73.395 72.7668 73.4655 72.8105C73.536 72.8541 73.5909 72.919 73.6222 72.9958C74.3582 74.7504 74.4889 76.5104 74.0142 78.2757C73.9555 78.4997 74.0409 78.6117 74.2702 78.6117H74.7022C74.8414 78.6115 74.9762 78.6602 75.083 78.7495C75.1898 78.8387 75.2618 78.9627 75.2862 79.0997L75.5422 80.4757" stroke="#E27550" stroke-width="2"/>
<path d="M75.5421 80.4753L71.4541 91.8114" stroke="#D8583A" stroke-width="2"/>
<path d="M71.4547 91.8114L70.7587 92.0514C70.636 92.094 70.5213 92.078 70.4147 92.0034C70.3453 91.9607 70.2947 91.9047 70.2627 91.8354C69.9907 91.27 69.772 91.2567 69.6067 91.7954L69.2067 93.1314C69.132 93.3767 68.972 93.47 68.7267 93.4114L67.6067 93.1714C67.4907 93.1462 67.3697 93.159 67.2616 93.208C67.1536 93.257 67.0642 93.3396 67.0067 93.4434L64.1267 98.7314C64.0453 98.8834 63.9198 99.0074 63.7668 99.0869C63.6137 99.1664 63.4402 99.1979 63.269 99.1771C63.0978 99.1564 62.9368 99.0844 62.8072 98.9706C62.6776 98.8568 62.5854 98.7065 62.5427 98.5394L61.8787 96.0274C61.82 95.7927 61.676 95.638 61.4467 95.5634L60.4307 95.2114" stroke="#EB663F" stroke-width="2"/>
<path d="M173.51 78.2116C176.678 80.0996 182.126 75.9396 184.078 73.5876C184.249 73.3796 184.31 73.1422 184.262 72.8756C183.774 70.1076 179.318 68.7796 176.854 69.0916C173.182 69.5556 172.726 73.8996 172.726 76.8436C172.726 77.4462 172.987 77.9022 173.51 78.2116Z" stroke="#C3301F" stroke-width="2"/>
<path d="M160.71 91.4995C157.974 92.0648 155.124 93.2275 152.158 94.9875" stroke="#E27550" stroke-width="2"/>
<path d="M152.158 94.9876C139.27 99.0996 124.774 98.6756 111.59 95.7236C100.726 93.2969 91.1983 88.4382 83.0063 81.1476C82.925 81.076 82.8292 81.0228 82.7256 80.9917C82.6219 80.9606 82.513 80.9524 82.4063 80.9677C82.2997 80.9829 82.1979 81.0212 82.108 81.0799C82.0182 81.1386 81.9425 81.2163 81.8863 81.3076L76.2783 90.4596" stroke="#E4835F" stroke-width="2"/>
<path d="M76.278 90.4595C76.654 88.4995 76.51 86.9315 77.262 84.9635C77.7847 83.5875 77.9793 82.1369 77.846 80.6115C77.8254 80.3696 77.8968 80.1294 78.046 79.9395C79.0113 78.7075 79.5393 77.2675 79.63 75.6195C79.646 75.3155 79.5073 75.1182 79.214 75.0275L78.51 74.8035C78.19 74.7022 77.9953 74.8195 77.926 75.1555C77.5313 77.1875 76.7367 78.9609 75.542 80.4755" stroke="#C14631" stroke-width="2"/>
<path d="M76.2783 90.4595C70.1103 102.883 66.9263 115.267 67.2863 129.075" stroke="#DA6749" stroke-width="2"/>
<path d="M67.2864 129.075L64.4224 120.971" stroke="#D3503A" stroke-width="2"/>
<path d="M64.4224 120.972C64.657 120.764 64.9744 120.729 65.3744 120.868C65.6677 120.964 65.8277 120.86 65.8544 120.556C65.9104 119.836 65.4704 119.052 65.4544 118.396C65.401 116.086 65.5984 114.022 66.0464 112.204C67.0117 108.289 68.8144 101.492 71.4544 91.8118" stroke="#CA3720" stroke-width="2"/>
<path d="M152.158 94.9875C153.75 95.2115 154.534 96.7396 154.878 98.3476C155.316 100.39 156.169 102.252 157.438 103.932C157.465 103.964 157.502 103.982 157.55 103.988C157.625 103.993 157.705 104.004 157.79 104.02C157.848 104.028 157.903 104.055 157.946 104.097C157.989 104.138 158.018 104.192 158.03 104.252C158.046 104.364 158.081 104.481 158.134 104.604" stroke="#FB9668" stroke-width="2"/>
<path d="M158.134 104.603C155.726 104.371 151.566 104.315 149.486 105.915C147.942 107.099 149.278 108.043 150.694 108.075" stroke="#955F4C" stroke-width="2"/>
<path d="M150.694 108.075C151.142 108.145 151.345 108.643 151.302 109.571C151.286 109.891 151.436 110.091 151.75 110.171C159.212 112.097 165.318 116.139 170.07 122.299C170.081 122.316 170.086 122.335 170.083 122.355C170.081 122.374 170.071 122.392 170.056 122.404C170.042 122.417 170.023 122.424 170.003 122.424C169.984 122.424 169.965 122.417 169.95 122.403C169.758 122.222 169.558 122.022 169.35 121.803C169.19 121.638 169.092 121.67 169.054 121.899C168.756 124.038 169.396 125.691 170.974 126.859C172.11 127.707 175.678 130.859 173.398 131.491" stroke="#FB9668" stroke-width="2"/>
<path d="M173.398 131.492C167.414 125.022 160.444 124.302 152.486 129.332" stroke="#825540" stroke-width="2"/>
<path d="M152.486 129.331L149.406 125.619C149.235 125.422 149.134 125.175 149.118 124.915C149.017 123.251 148.305 121.782 146.982 120.507C142.206 115.915 135.006 110.643 129.254 109.467C119.66 107.51 111.249 109.513 104.022 115.475C103.82 115.641 103.697 115.854 103.654 116.115C103.014 119.886 101.702 123.395 99.7182 126.643C99.6649 126.734 99.6409 126.835 99.6462 126.947C99.6515 127.043 99.6542 127.142 99.6542 127.243C99.6489 127.43 99.5529 127.539 99.3662 127.571C98.7849 127.683 98.3475 128.083 98.0542 128.771" stroke="#FDB183" stroke-width="2"/>
<path d="M98.0544 128.772C90.8464 124.428 80.4064 125.852 76.5984 133.98C75.7504 135.804 75.4144 138.524 76.9424 139.908" stroke="#825540" stroke-width="2"/>
<path d="M76.9424 139.907C77.3477 141.891 78.0197 142.889 78.9584 142.899" stroke="#FDC8AB" stroke-width="2"/>
<path d="M78.958 142.9C80.51 144.313 82.3847 144.865 84.582 144.556C84.87 144.513 85.1207 144.59 85.334 144.788C85.782 145.182 86.0273 145.694 86.07 146.324C86.086 146.601 86.2087 146.817 86.438 146.972L88.014 148.044C88.2082 148.174 88.3671 148.358 88.4708 148.571C88.5746 148.784 88.6185 149.017 88.5972 149.24C88.5758 149.464 88.4901 149.669 88.3508 149.829C88.2115 149.989 88.0247 150.097 87.814 150.14C87.6113 150.182 87.5473 150.513 87.622 151.132" stroke="#FDB183" stroke-width="2"/>
<path d="M87.6223 151.132C84.1103 151.132 77.3103 151.996 75.4463 155.636" stroke="#FB9668" stroke-width="2"/>
<path d="M75.4461 155.635L75.1341 155.435C74.9687 155.339 74.8514 155.201 74.7821 155.019C73.2887 151.195 71.2701 147.902 68.7261 145.139" stroke="#FDB471" stroke-width="2"/>
<path d="M68.7261 145.139L67.2861 129.075" stroke="#F68E68" stroke-width="2"/>
<path d="M100.014 109.003C101.27 109.075 102.686 109.604 104.022 108.844C104.144 108.772 104.234 108.658 104.274 108.524C104.314 108.39 104.301 108.247 104.238 108.124C102.894 105.516 97.9104 105.291 95.4304 105.587C87.4304 106.537 82.1637 110.819 79.6304 118.435C79.603 118.515 79.6006 118.602 79.6235 118.683C79.6465 118.765 79.6937 118.837 79.7589 118.891C79.824 118.945 79.9041 118.978 79.9883 118.985C80.0725 118.992 80.157 118.973 80.2304 118.931C80.8464 118.587 81.5264 118.156 81.9664 117.548C86.377 111.446 92.393 108.598 100.014 109.003Z" stroke="#955F4C" stroke-width="2"/>
<path d="M64.4221 120.971C64.3847 120.982 64.3474 120.995 64.3101 121.011" stroke="#E65E3E" stroke-width="2"/>
<path d="M64.3104 121.012L62.7744 115.404" stroke="#ED8159" stroke-width="2"/>
<path d="M167.934 100.419C167.7 101.406 167.942 102.137 168.662 102.611C172.134 104.899 174.924 107.331 177.03 109.907C177.206 110.126 177.281 110.374 177.254 110.651C177.222 111.046 177.26 111.318 177.366 111.467C180.262 115.451 179.19 118.403 179.702 122.539C180.54 129.238 180.884 135.774 180.734 142.147" stroke="#F47F59" stroke-width="2"/>
<path d="M179.126 147.307C178.673 150.273 177.476 152.835 175.534 154.995" stroke="#FBBA9C" stroke-width="2"/>
<path d="M175.534 154.995L171.222 152.459" stroke="#F47F59" stroke-width="2"/>
<path d="M171.222 152.459C171.852 151.265 172.132 149.998 172.062 148.659C172.046 148.398 172.105 148.138 172.23 147.907C173.078 146.315 175.902 141.403 174.798 139.835" stroke="#FB9A6A" stroke-width="2"/>
<path d="M174.798 139.835C176.462 137.851 174.734 133.611 173.398 131.491" stroke="#804731" stroke-width="2"/>
<path d="M150.694 108.076C161.19 107.204 166.478 109.468 171.406 118.86C171.451 118.945 171.515 119.018 171.594 119.072C171.674 119.127 171.765 119.161 171.861 119.172C171.957 119.183 172.055 119.17 172.146 119.136C172.237 119.101 172.318 119.044 172.382 118.972C172.532 118.806 172.572 118.58 172.502 118.292C170.641 110.372 165.852 105.809 158.134 104.604" stroke="#93503D" stroke-width="2"/>
<path d="M186.734 118.947L188.686 116.835C188.777 116.734 188.892 116.657 189.02 116.611C189.149 116.565 189.287 116.551 189.422 116.571L192.982 117.083" stroke="#F47F59" stroke-width="2"/>
<path d="M192.982 117.083C197.366 118.363 198.678 123.411 198.078 127.411" stroke="#F69A73" stroke-width="2"/>
<path d="M198.078 127.412C195.582 135.348 190.822 139.636 186.246 145.564" stroke="#F47F59" stroke-width="2"/>
<path d="M193.902 130.699C194.806 128.363 192.974 122.627 189.598 124.723C189.341 124.883 189.15 125.133 189.062 125.427L186.318 134.819C186.233 135.102 186.332 135.195 186.614 135.099C189.03 134.307 192.918 133.243 193.902 130.699Z" stroke="#D86540" stroke-width="2"/>
<path d="M60.9102 114.219C60.6862 114.454 60.6115 114.619 60.6862 114.715" stroke="#FDC481" stroke-width="2"/>
<path d="M60.686 114.715C54.846 113.297 50.5154 114.316 47.694 117.772C41.502 125.364 46.262 136.355 53.118 142.107" stroke="#FCDBA9" stroke-width="2"/>
<path d="M53.1186 142.108L52.0866 141.668C52.0366 141.647 51.9819 141.639 51.928 141.645C51.8741 141.652 51.8228 141.672 51.7792 141.704C51.7355 141.737 51.7011 141.78 51.6792 141.83C51.6574 141.879 51.6489 141.934 51.6546 141.988C51.7186 142.644 51.9986 143.166 52.4946 143.556C52.9373 143.902 52.9186 144.054 52.4386 144.012C51.9319 143.969 51.7933 144.185 52.0226 144.66C52.2093 145.049 52.0866 145.244 51.6546 145.244C50.7426 145.244 50.2466 145.689 50.1666 146.58C50.1559 146.702 50.1959 146.801 50.2866 146.876L50.5746 147.108C50.7986 147.294 50.7933 147.47 50.5586 147.636C49.0706 148.708 47.4386 149.422 45.6626 149.78C45.4813 149.817 45.3506 149.75 45.2706 149.58C43.9106 146.596 38.4386 151.564 37.2146 152.916C37.0439 153.108 36.8306 153.201 36.5746 153.196C35.4066 153.174 34.3559 152.78 33.4226 152.012C33.2322 151.854 33.0085 151.742 32.7682 151.684C32.5279 151.626 32.2774 151.624 32.0355 151.677C31.7936 151.73 31.5667 151.838 31.3719 151.991C31.177 152.145 31.0193 152.341 30.9106 152.564L28.9266 156.644C28.8359 156.836 28.6919 156.961 28.4946 157.02C28.1026 157.14 28.1266 157.636 28.2466 158.004C28.9506 160.094 28.9719 162.217 28.3106 164.372C28.2754 164.485 28.2781 164.608 28.3184 164.721C28.3587 164.835 28.4344 164.934 28.5346 165.004L29.3586 165.556C29.5613 165.694 29.6893 165.884 29.7426 166.124L30.3666 168.812C30.4306 169.078 30.5986 169.212 30.8706 169.212H31.6226C31.8466 169.212 31.9106 169.313 31.8146 169.516C30.7506 171.708 34.1986 174.58 31.9986 175.5" stroke="#FCC76F" stroke-width="2"/>
<path d="M95.9502 232.259C96.8782 232.755 97.7049 232.723 98.4302 232.163" stroke="#293D40" stroke-width="2"/>
<path d="M98.4307 232.163C98.6707 232.907 98.8227 232.899 99.3667 233.043C111.388 236.201 123.625 237.267 136.079 236.243" stroke="#91907F" stroke-width="2"/>
<path d="M136.078 236.243L147.262 234.939" stroke="#6C775D" stroke-width="2"/>
<path d="M147.262 234.94C148.601 235.313 150.212 235.217 152.094 234.652C153.39 234.268 154.369 233.636 155.03 232.756C155.185 232.548 155.39 232.43 155.646 232.404C156.548 232.313 157.364 231.99 158.094 231.436" stroke="#1E3239" stroke-width="2"/>
<path d="M158.094 231.435C158.094 232.835 164.286 230.179 165.086 229.931" stroke="#444F50" stroke-width="2"/>
<path d="M152.486 129.332C149.692 136.953 151.646 141.721 158.35 143.636" stroke="#82624B" stroke-width="2"/>
<path d="M158.35 143.635C158.291 143.619 158.307 143.715 158.398 143.923C158.467 144.094 158.595 144.19 158.782 144.211C158.91 144.233 159.086 144.251 159.31 144.267" stroke="#FDD5B6" stroke-width="2"/>
<path d="M159.31 144.268C155.686 145.54 155.39 147.772 155.238 151.42" stroke="#FDB585" stroke-width="2"/>
<path d="M155.238 151.419C151.518 152.467 145.35 154.715 149.35 159.459" stroke="#F69A73" stroke-width="2"/>
<path d="M149.35 159.459C147.438 162.059 144.894 161.747 142.526 163.115C136.286 166.707 133.07 168.123 126.118 167.619C126.065 167.614 126.011 167.629 125.966 167.661C125.921 167.693 125.887 167.741 125.87 167.795C125.502 168.987 114.854 167.451 113.446 167.019C112.694 166.785 111.697 166.518 110.454 166.219C106.47 165.259 102.564 163.209 98.7344 160.067" stroke="#FDB585" stroke-width="2"/>
<path d="M98.7341 160.068C106.838 153.692 91.4861 150.836 87.6221 151.132" stroke="#FBA274" stroke-width="2"/>
<path d="M78.958 142.9C82.8567 143.668 86.694 144.06 90.47 144.076C91.1633 144.081 92.1447 144.27 93.414 144.644C94.526 144.972 99.902 145.012 98.542 142.956" stroke="#FDD5B6" stroke-width="2"/>
<path d="M98.5422 142.955C103.398 139.251 102.846 132.187 98.0542 128.771" stroke="#82624B" stroke-width="2"/>
<path d="M125.782 147.86C124.534 147.902 123.457 148.345 122.55 149.188C122.457 149.273 122.384 149.377 122.334 149.493C122.284 149.609 122.26 149.734 122.262 149.86C122.374 154.796 133.47 149.324 126.958 144.908C126.585 144.652 125.761 144.489 124.486 144.42C124.193 144.404 124.02 144.54 123.966 144.828L123.822 145.676C123.809 145.754 123.812 145.833 123.83 145.91C123.849 145.987 123.883 146.06 123.931 146.123C123.979 146.187 124.04 146.24 124.109 146.28C124.178 146.32 124.255 146.346 124.334 146.356L125.838 146.532C126.014 146.539 126.18 146.616 126.3 146.746C126.419 146.876 126.482 147.048 126.474 147.224C126.467 147.4 126.39 147.566 126.26 147.685C126.13 147.804 125.958 147.867 125.782 147.86Z" stroke="#FBA274" stroke-width="2"/>
<path d="M115.75 154.235C117.318 158.195 123.614 159.267 127.062 158.627C130.668 157.966 133.121 156.233 134.422 153.427C134.427 153.415 134.43 153.402 134.43 153.389C134.43 153.377 134.427 153.365 134.422 153.355L134.294 153.123C134.22 152.979 134.134 152.974 134.038 153.107C129.71 159.107 121.198 158.603 116.086 153.995C115.633 153.59 115.521 153.67 115.75 154.235Z" stroke="#A3664F" stroke-width="2"/>
<path d="M201.486 136.171C206.67 125.851 203.246 116.259 191.55 115.387C191.314 115.367 191.079 115.439 190.894 115.587L189.822 116.435C189.524 116.67 189.284 116.619 189.102 116.283C189.028 116.145 188.998 115.974 189.014 115.771" stroke="#FBBA9C" stroke-width="2"/>
<path d="M60.6864 114.716C60.9424 115.206 61.0677 115.668 61.0624 116.1C61.057 116.388 60.9103 116.55 60.6223 116.588C59.5583 116.732 58.6543 116.132 57.7343 116.188C55.7343 116.31 53.6863 117.033 51.5903 118.356C41.2383 124.892 49.4864 137.564 56.0304 143.068C56.169 143.185 56.169 143.302 56.0304 143.42L55.8064 143.604" stroke="#FDD5B6" stroke-width="2"/>
<path d="M55.8062 143.603L53.1182 142.107" stroke="#FCD8A4" stroke-width="2"/>
<path d="M64.3105 121.012C64.3212 121.332 64.1025 121.47 63.6545 121.428C63.4688 121.406 63.2946 121.328 63.1567 121.203C63.0188 121.078 62.9242 120.913 62.8865 120.732L62.3665 118.18C62.3025 117.849 62.0998 117.7 61.7585 117.732L58.9345 117.988C58.6305 118.014 58.3798 118.148 58.1825 118.388C54.5105 122.876 51.3745 126.404 52.6305 131.588C53.5745 135.508 54.6305 138.764 58.0865 140.9C58.3234 141.045 58.5171 141.251 58.6476 141.496C58.7782 141.742 58.841 142.018 58.8296 142.296C58.8182 142.575 58.733 142.845 58.5828 143.081C58.4325 143.316 58.2226 143.507 57.9745 143.636L57.1505 144.06" stroke="#F69A73" stroke-width="2"/>
<path d="M57.1502 144.06C56.7182 144.342 56.2702 144.19 55.8062 143.604" stroke="#FDC07C" stroke-width="2"/>
<path d="M198.078 127.411C199.619 127.518 200.961 127.065 202.102 126.051C202.189 125.972 202.258 125.873 202.302 125.764C202.346 125.654 202.366 125.537 202.358 125.419C202.006 119.907 198.55 118.371 194.238 116.395C194.009 116.289 193.782 116.297 193.558 116.419C193.275 116.569 193.083 116.79 192.982 117.083" stroke="#FBA274" stroke-width="2"/>
<path d="M68.7259 145.139C64.3686 146.366 60.5099 146.006 57.1499 144.059" stroke="#F69D61" stroke-width="2"/>
<path d="M56.6542 125.084C55.5102 129.852 57.8782 135.212 63.2782 135.428C63.5288 135.438 63.7582 135.51 63.9662 135.644L64.9662 136.276C65.4888 136.601 65.6222 136.484 65.3662 135.924C64.0488 133.065 62.8995 130.145 61.9182 127.164C61.3342 125.396 57.6062 121.148 56.6542 125.084Z" stroke="#D86540" stroke-width="2"/>
<path d="M174.798 139.836L174.214 139.62" stroke="#825A42" stroke-width="2"/>
<path d="M174.214 139.619C172.779 131.486 168.019 127.395 159.934 127.347C159.19 127.339 158.158 127.707 157.462 127.979C157.185 128.091 157.195 128.153 157.494 128.163C165.75 128.539 166.366 138.683 160.766 142.955C160.566 143.103 160.337 143.207 160.094 143.259L158.35 143.635" stroke="#827973" stroke-width="2"/>
<path d="M159.05 135.048C159.127 134.886 159.156 134.704 159.136 134.512C159.115 134.319 159.046 134.12 158.931 133.925C158.816 133.731 158.659 133.545 158.468 133.378C158.276 133.211 158.055 133.066 157.816 132.952C157.577 132.838 157.325 132.757 157.075 132.713C156.825 132.67 156.581 132.665 156.358 132.698C156.134 132.731 155.936 132.803 155.773 132.908C155.611 133.013 155.488 133.151 155.411 133.312C155.334 133.473 155.305 133.655 155.325 133.848C155.346 134.04 155.415 134.239 155.53 134.434C155.644 134.628 155.802 134.815 155.993 134.982C156.184 135.149 156.406 135.293 156.645 135.407C156.884 135.521 157.136 135.602 157.386 135.646C157.636 135.689 157.88 135.695 158.103 135.661C158.326 135.628 158.525 135.557 158.687 135.451C158.85 135.346 158.973 135.209 159.05 135.048Z" stroke="#797471" stroke-width="2"/>
<path d="M98.5424 142.956C89.5904 147.404 85.7504 133.3 94.3824 129.22C94.6544 129.092 94.649 128.974 94.3664 128.868C85.5344 125.564 78.9424 131.62 76.9424 139.908" stroke="#827973" stroke-width="2"/>
<path d="M93.326 131.764L92.0941 133.212C92.0359 133.279 91.9916 133.357 91.9637 133.441C91.9358 133.525 91.9249 133.614 91.9316 133.703C91.9383 133.791 91.9625 133.878 92.0027 133.957C92.0429 134.036 92.0985 134.106 92.166 134.164L92.8541 134.748C93.0912 134.951 93.3517 135.121 93.6208 135.25C93.8898 135.379 94.1621 135.464 94.4221 135.5C94.6821 135.536 94.9247 135.521 95.1361 135.458C95.3475 135.395 95.5235 135.284 95.6541 135.132L95.7821 134.98C96.0445 134.671 96.106 134.213 95.953 133.706C95.8 133.199 95.445 132.685 94.966 132.276L94.278 131.692C94.211 131.634 94.1331 131.589 94.0488 131.561C93.9645 131.534 93.8756 131.523 93.787 131.529C93.6985 131.536 93.6122 131.56 93.5331 131.6C93.454 131.641 93.3836 131.696 93.326 131.764Z" stroke="#797471" stroke-width="2"/>
<path d="M174.214 139.62C172.134 144.188 164.958 143.708 159.31 144.268" stroke="#FDCDAD" stroke-width="2"/>
<path d="M93.9583 134.236L94.2783 134.388C94.513 134.494 94.6516 134.42 94.6943 134.164C94.8063 133.406 94.545 133.244 93.9103 133.676C93.8633 133.707 93.8257 133.75 93.8014 133.801C93.7771 133.852 93.7668 133.909 93.7717 133.965C93.7766 134.022 93.7964 134.077 93.8291 134.125C93.8619 134.172 93.9065 134.21 93.9583 134.236Z" stroke="#998785" stroke-width="2"/>
<path d="M171.222 152.46C165.985 150.737 160.657 150.39 155.238 151.42" stroke="#F6926A" stroke-width="2"/>
<path d="M75.4463 155.635V155.947" stroke="#FBA562" stroke-width="2"/>
<path d="M75.4463 155.948L74.3423 156.532" stroke="#FCD8A4" stroke-width="2"/>
<path d="M74.3423 156.531L70.2863 148.243C70.137 147.945 69.9317 147.897 69.6703 148.099L67.1743 149.979" stroke="#956E45" stroke-width="2"/>
<path d="M67.1744 149.98L59.8304 156.62C59.6906 156.747 59.5899 156.912 59.5399 157.094C59.4899 157.277 59.4928 157.47 59.548 157.651C59.6033 157.832 59.7088 157.993 59.8523 158.117C59.9957 158.24 60.1712 158.32 60.3584 158.348L67.5904 159.348" stroke="#C36E3F" stroke-width="2"/>
<path d="M67.5904 159.348C67.0784 160.628 66.9611 161.729 67.2384 162.652C67.3238 162.924 67.4971 163.11 67.7584 163.212C70.5531 164.284 73.4304 164.54 76.3904 163.98C76.4055 163.976 76.4211 163.976 76.4358 163.981C76.4506 163.986 76.4639 163.995 76.4744 164.007C76.4849 164.019 76.4923 164.034 76.4958 164.05C76.4993 164.066 76.4989 164.084 76.4944 164.1C75.4918 167.017 75.8811 168.596 77.6624 168.836" stroke="#AE663B" stroke-width="2"/>
<path d="M77.6621 168.835C80.9101 169.39 84.2434 169.033 87.6621 167.763" stroke="#956E45" stroke-width="2"/>
<path d="M87.6621 167.763C96.5901 172.238 105.99 174.648 115.862 174.995" stroke="#FCD8A4" stroke-width="2"/>
<path d="M115.862 174.995L119.398 175.291" stroke="#FDB873" stroke-width="2"/>
<path d="M119.398 175.292L119.206 187.124" stroke="#F69D61" stroke-width="2"/>
<path d="M119.206 187.124L115.246 187.387" stroke="#A78051" stroke-width="2"/>
<path d="M115.246 187.387C115.283 187.142 115.23 186.902 115.086 186.667C115.022 186.567 114.934 186.484 114.829 186.427C114.724 186.369 114.606 186.339 114.486 186.339C94.974 186.435 88.614 206.443 88.062 222.419" stroke="#FCD8A4" stroke-width="2"/>
<path d="M88.0621 222.419L88.0381 229.011" stroke="#CFB46D" stroke-width="2"/>
<path d="M180.518 147.339C176.63 157.483 171.35 163.179 162.014 168.419" stroke="#AE7A75" stroke-width="2"/>
<path d="M133.406 175.884C133.55 175.814 133.51 175.58 133.286 175.18" stroke="#F6B29B" stroke-width="2"/>
<path d="M133.286 175.179C144.987 173.574 155.939 170.081 166.142 164.699C166.377 164.582 166.547 164.403 166.654 164.163C166.942 163.534 167.083 162.987 167.078 162.523" stroke="#FDCDAD" stroke-width="2"/>
<path d="M167.078 162.523C170.699 161.019 173.518 158.51 175.534 154.995" stroke="#F6B29B" stroke-width="2"/>
<path d="M74.3423 156.532C77.9103 161.132 82.5503 164.948 87.6623 167.764" stroke="#95837F" stroke-width="2"/>
<path d="M77.6618 168.835C77.2671 166.745 77.5045 165.323 78.3738 164.571C78.5178 164.449 78.5231 164.321 78.3898 164.187L73.5338 159.547C73.3872 159.406 73.2823 159.232 73.2298 159.043L71.5498 153.395" stroke="#471116" stroke-width="2"/>
<path d="M71.5503 153.395L70.0623 149.243C69.9503 148.934 69.7423 148.846 69.4383 148.979L67.1743 149.979" stroke="#5B191A" stroke-width="2"/>
<path d="M71.5504 153.395L69.4544 156.899C69.3051 157.145 69.0864 157.281 68.7984 157.307C67.7264 157.414 67.3238 158.094 67.5904 159.347" stroke="#751010" stroke-width="2"/>
<path d="M167.079 162.523C161.823 163.251 153.831 163.115 149.351 159.459" stroke="#F6926A" stroke-width="2"/>
<path d="M98.7342 160.068C97.0808 161.177 94.4542 162.022 90.8542 162.604C87.3662 163.164 84.1902 162.897 81.3262 161.804" stroke="#FB9A6A" stroke-width="2"/>
<path d="M81.3263 161.804C79.1023 160.438 77.1423 158.486 75.4463 155.948" stroke="#FBBA9C" stroke-width="2"/>
<path d="M81.3262 161.803C84.0942 165.347 86.5742 165.555 90.1342 167.203C98.1075 170.894 106.684 173.491 115.862 174.995" stroke="#FDCDAD" stroke-width="2"/>
<path d="M133.286 175.18C128.865 175.713 124.236 175.75 119.398 175.292" stroke="#F6926A" stroke-width="2"/>
<path d="M134.486 186.475C134.752 187.249 134.934 188.081 135.03 188.971C135.126 189.846 134.961 190.651 134.534 191.387C130.174 198.867 115.822 194.811 119.206 187.123" stroke="#A15A48" stroke-width="2"/>
<path d="M115.246 187.387C114.675 187.409 114.281 187.603 114.062 187.971" stroke="#A7958B" stroke-width="2"/>
<path d="M114.062 187.971C99.966 190.019 93.47 201.443 90.518 214.227C89.67 217.891 88.8513 220.622 88.062 222.419" stroke="#CFC9A7" stroke-width="2"/>
<path d="M137.59 186.868L140.39 187.78" stroke="#A7958B" stroke-width="2"/>
<path d="M140.39 187.78C139.409 187.913 138.883 188.316 138.814 188.988C138.793 189.185 138.747 189.374 138.678 189.556C136.254 196.092 129.886 199.9 123.342 197.468C119.23 195.94 116.054 191.9 114.062 187.972" stroke="#7A7154" stroke-width="2"/>
<path d="M164.51 222.732C163.286 210.252 157.702 194.468 145.406 189.148" stroke="#D8CCA4" stroke-width="2"/>
<path d="M145.406 189.148L140.39 187.78" stroke="#CFC9A7" stroke-width="2"/>
<path d="M145.407 189.148C141.385 197.98 135.249 203.905 126.999 206.924" stroke="#ABA86D" stroke-width="2"/>
<path d="M126.998 206.923C118.518 204.278 111.102 200.291 104.75 194.963C104.51 194.761 104.289 194.779 104.086 195.019C101.046 198.619 99.1341 203.017 98.3501 208.211" stroke="#D0C18E" stroke-width="2"/>
<path d="M98.3501 208.212L97.4701 207.764C97.2301 207.646 97.0914 207.718 97.0541 207.98C95.9288 215.745 95.2914 223.564 95.1421 231.436" stroke="#686E50" stroke-width="2"/>
<path d="M164.702 223.211L163.894 223.003C163.606 222.934 163.358 223.003 163.15 223.211L161.022 225.347C160.947 225.421 160.852 225.473 160.749 225.497C160.647 225.522 160.539 225.517 160.439 225.485C160.339 225.453 160.25 225.394 160.183 225.315C160.115 225.235 160.07 225.139 160.054 225.035L159.342 220.563C159.322 220.435 159.262 220.315 159.172 220.222C159.082 220.129 158.965 220.067 158.838 220.043C157.996 219.894 157.529 219.489 157.438 218.827" stroke="#8C835C" stroke-width="2"/>
<path d="M157.438 218.827L155.502 207.579C155.499 207.557 155.487 207.536 155.469 207.521C155.451 207.506 155.428 207.499 155.406 207.5C155.384 207.501 155.364 207.511 155.35 207.527C155.337 207.543 155.331 207.565 155.334 207.587C155.169 212.718 155.054 217.809 154.99 222.859C154.942 226.289 154.606 229.595 153.982 232.779C153.939 233.007 153.83 233.217 153.667 233.382C153.505 233.547 153.297 233.661 153.07 233.707L147.262 234.939" stroke="#666645" stroke-width="2"/>
<path d="M136.079 236.243C135.972 228.995 134.564 221.851 131.855 214.811C130.553 211.43 128.935 208.801 126.999 206.923" stroke="#D8C48B" stroke-width="2"/>
<path d="M98.4301 232.164L98.3501 208.212" stroke="#95896E" stroke-width="2"/>
<path d="M157.438 218.827L158.094 231.435" stroke="#3E3D38" stroke-width="2"/>
<path d="M144.07 21.2274C140.721 21.4781 137.497 21.7954 134.398 22.1794C132.42 22.4247 130.044 22.5314 127.27 22.4994C122.673 22.4407 118.118 22.9634 113.606 24.0674C113.543 24.083 113.485 24.112 113.434 24.1526C113.383 24.1931 113.342 24.2442 113.312 24.3025C113.283 24.3607 113.266 24.4249 113.263 24.4906C113.26 24.5562 113.27 24.622 113.294 24.6834L114.054 26.6354C114.101 26.7535 114.103 26.8837 114.062 27.0016C114.021 27.1195 113.938 27.2168 113.83 27.2754C110.854 28.9234 111.814 32.3074 111.542 34.7794C111.525 34.9349 111.467 35.0829 111.374 35.208C111.282 35.3332 111.157 35.431 111.014 35.4914C110.284 35.8114 109.684 36.2647 109.214 36.8514C109.06 37.0434 108.862 37.1767 108.622 37.2514C105.998 38.0754 102.038 42.8354 100.774 44.1634C100.66 44.2826 100.593 44.44 100.587 44.6053C100.581 44.7706 100.636 44.9323 100.742 45.0594C101.377 45.8167 102.209 46.1794 103.238 46.1474C103.505 46.1367 103.764 46.1794 104.014 46.2754C104.478 46.4407 105.033 46.5047 105.678 46.4674C100.278 47.7874 95.2543 49.0274 89.6543 49.0114C89.5294 49.0112 89.4056 48.9824 89.2921 48.927C89.1786 48.8716 89.0782 48.7911 88.9983 48.6914C86.8703 46.0354 84.4623 42.8434 80.7663 45.8834C77.641 48.4541 76.2943 51.6861 76.7263 55.5794C75.6917 57.5367 75.1663 59.4594 75.1503 61.3474C73.2863 60.6274 69.5823 63.6754 68.3183 64.8994C57.4383 75.4914 57.2463 89.9954 58.6703 104.475L56.3903 103.019C56.1663 102.881 55.953 102.897 55.7503 103.067C54.6623 103.987 53.4303 105.819 52.2543 105.859C51.9983 105.865 51.793 105.969 51.6383 106.171C47.5823 111.507 40.5743 114.611 34.1823 117.091C32.9023 117.595 32.7903 118.747 31.7103 119.507C29.7423 120.875 26.8623 122.603 26.1103 124.963C25.8063 125.918 25.593 126.894 25.4703 127.891C25.4383 128.147 25.3583 128.382 25.2303 128.595L24.7903 129.331C24.561 129.715 24.473 129.683 24.5263 129.235L24.9423 125.675C24.9447 125.596 24.9174 125.518 24.8657 125.458C24.8139 125.397 24.7416 125.358 24.6627 125.348C24.5837 125.338 24.5039 125.358 24.4388 125.404C24.3736 125.45 24.3279 125.518 24.3103 125.595C23.4783 131.435 23.2543 137.107 23.6383 142.611C23.6757 143.102 23.3557 143.494 22.6783 143.787C18.6303 112.739 25.9023 82.6674 45.8143 58.2114C63.4037 37.2461 85.8143 24.7874 113.046 20.8354C123.276 19.6034 133.617 19.7341 144.07 21.2274ZM99.4463 30.8434C99.4463 30.1708 99.1791 29.5258 98.7036 29.0502C98.228 28.5746 97.5829 28.3074 96.9103 28.3074C96.2378 28.3074 95.5927 28.5746 95.1171 29.0502C94.6415 29.5258 94.3743 30.1708 94.3743 30.8434C94.3743 31.516 94.6415 32.161 95.1171 32.6366C95.5927 33.1122 96.2378 33.3794 96.9103 33.3794C97.5829 33.3794 98.228 33.1122 98.7036 32.6366C99.1791 32.161 99.4463 31.516 99.4463 30.8434Z" fill="#FED987"/>
<path d="M144.071 21.2273C152.508 22.3686 160.916 24.726 169.295 28.2993C166.367 27.7073 163.479 27.0753 160.631 26.4033C159.495 26.1366 158.295 26.1046 157.031 26.3073C155.116 26.6166 152.852 26.838 150.239 26.9713C150.152 26.9765 150.067 26.9986 149.989 27.0365C149.91 27.0744 149.841 27.1273 149.783 27.1921C149.726 27.2568 149.682 27.3322 149.655 27.4138C149.627 27.4954 149.616 27.5816 149.623 27.6673C149.831 30.6166 148.991 32.23 147.103 32.5073C145.476 31.606 143.724 31.0913 141.847 30.9633C141.592 30.9448 141.339 31.0124 141.128 31.1552C140.917 31.2981 140.76 31.5078 140.682 31.7507C140.605 31.9936 140.611 32.2555 140.7 32.4943C140.79 32.7331 140.957 32.935 141.175 33.0673C151.719 39.5073 141.399 47.1953 134.767 40.9473C134.399 40.6006 134.468 40.4246 134.975 40.4193C135.305 40.414 135.537 40.374 135.671 40.2993C135.783 40.2319 135.87 40.1285 135.917 40.0059C135.965 39.8833 135.97 39.7487 135.932 39.6237C135.894 39.4988 135.815 39.3909 135.708 39.3175C135.601 39.2441 135.472 39.2095 135.343 39.2193C132.159 39.4593 132.775 42.7873 133.639 44.7313C124.183 44.1926 114.863 44.7713 105.679 46.4673C105.033 46.5046 104.479 46.4406 104.015 46.2753C103.764 46.1793 103.505 46.1366 103.239 46.1473C102.209 46.1793 101.377 45.8166 100.743 45.0593C100.637 44.9322 100.581 44.7705 100.587 44.6052C100.593 44.4399 100.66 44.2825 100.775 44.1633C102.039 42.8353 105.999 38.0753 108.623 37.2513C108.863 37.1766 109.06 37.0433 109.215 36.8513C109.684 36.2646 110.284 35.8113 111.015 35.4913C111.158 35.4309 111.282 35.3331 111.375 35.2079C111.467 35.0828 111.525 34.9348 111.543 34.7793C111.815 32.3073 110.855 28.9233 113.831 27.2753C113.939 27.2167 114.021 27.1194 114.062 27.0015C114.104 26.8836 114.101 26.7534 114.055 26.6353L113.295 24.6833C113.271 24.6219 113.26 24.5561 113.263 24.4905C113.266 24.4248 113.283 24.3606 113.313 24.3024C113.342 24.2441 113.384 24.193 113.434 24.1525C113.485 24.1119 113.544 24.0829 113.607 24.0673C118.119 22.9633 122.673 22.4406 127.271 22.4993C130.044 22.5313 132.42 22.4246 134.399 22.1793C137.497 21.7953 140.721 21.478 144.071 21.2273Z" fill="#FCCA73"/>
<path d="M169.295 28.2995C183.359 34.2729 195.567 42.9742 205.919 54.4035L205.119 54.7236C204.889 54.8196 204.836 54.9742 204.959 55.1875C205.257 55.7102 205.1 56.2649 204.487 56.8515C203.473 57.8169 202.873 59.0222 202.687 60.4676C202.644 60.7822 202.473 60.8809 202.175 60.7635C199.812 59.8356 198.361 60.4702 197.823 62.6676C197.759 62.9289 197.615 63.1289 197.391 63.2676C193.812 65.4756 191.612 68.6302 190.791 72.7315C190.737 73.0089 190.777 73.2729 190.911 73.5236L191.015 73.7156C191.148 73.9769 191.084 74.1715 190.823 74.2995C190.572 74.4275 190.273 74.4809 189.927 74.4595C186.759 67.5955 181.471 63.7582 174.063 62.9476C171.495 52.1636 163.767 45.4195 153.191 42.6595C152.924 42.5849 152.783 42.4116 152.767 42.1396C152.548 37.8836 150.66 34.6729 147.103 32.5075C148.991 32.2302 149.831 30.6169 149.623 27.6676C149.616 27.5818 149.627 27.4957 149.655 27.4141C149.682 27.3325 149.726 27.2571 149.783 27.1923C149.841 27.1275 149.91 27.0747 149.988 27.0368C150.067 26.9989 150.152 26.9767 150.239 26.9716C152.852 26.8382 155.116 26.6169 157.031 26.3075C158.295 26.1049 159.495 26.1369 160.631 26.4035C163.479 27.0755 166.367 27.7075 169.295 28.2995Z" fill="#FCC36A"/>
<path d="M96.91 33.3794C98.3106 33.3794 99.446 32.244 99.446 30.8434C99.446 29.4428 98.3106 28.3074 96.91 28.3074C95.5094 28.3074 94.374 29.4428 94.374 30.8434C94.374 32.244 95.5094 33.3794 96.91 33.3794Z" fill="#FCECDE"/>
<path d="M147.102 32.5074C150.659 34.6728 152.547 37.8834 152.766 42.1394C152.782 42.4114 152.923 42.5848 153.19 42.6594C163.766 45.4194 171.494 52.1634 174.062 62.9474L172.198 63.9074C169.243 65.9661 166.27 68.0034 163.278 70.0194C142.294 84.1634 109.534 86.5154 88.4941 70.7314C89.0381 70.6301 89.5928 70.3474 90.1581 69.8834C90.2505 69.8056 90.369 69.7662 90.4885 69.7737C90.608 69.7812 90.7191 69.8349 90.7981 69.9234C92.8221 72.1554 94.3101 70.3234 96.0141 69.9394C100.414 68.9634 104.222 68.8754 108.046 66.2754C108.201 66.1687 108.326 66.0236 108.408 65.8543C108.49 65.685 108.527 65.4972 108.515 65.3094C108.503 65.1216 108.442 64.9401 108.339 64.7827C108.236 64.6253 108.094 64.4974 107.926 64.4114C106.79 63.8354 105.985 62.9901 105.51 61.8754C105.377 61.5554 105.47 61.3288 105.79 61.1954L117.91 55.9794C118.262 55.8301 118.438 55.5661 118.438 55.1874C118.443 54.6328 118.755 54.4301 119.374 54.5794C119.678 54.6488 119.961 54.6008 120.222 54.4354L123.478 52.3714C123.745 52.2008 123.939 51.9688 124.062 51.6754C124.681 50.1501 125.875 49.2808 127.646 49.0674C127.894 49.0364 128.121 48.9202 128.286 48.7394C128.718 48.2648 129.318 48.0221 130.086 48.0114C130.299 48.0061 130.443 47.9048 130.518 47.7074C130.614 47.4461 130.99 47.2914 131.646 47.2434L136.03 46.9074C136.489 46.8701 136.529 46.7234 136.15 46.4674L133.638 44.7314C132.774 42.7874 132.158 39.4594 135.342 39.2194C135.472 39.2096 135.601 39.2442 135.708 39.3176C135.815 39.391 135.893 39.4989 135.931 39.6239C135.969 39.7488 135.964 39.8835 135.917 40.0061C135.869 40.1287 135.782 40.232 135.67 40.2994C135.537 40.3741 135.305 40.4141 134.974 40.4194C134.467 40.4248 134.398 40.6008 134.766 40.9474C141.398 47.1954 151.718 39.5074 141.174 33.0674C140.956 32.9351 140.789 32.7333 140.7 32.4944C140.61 32.2556 140.604 31.9937 140.682 31.7508C140.759 31.5079 140.916 31.2982 141.127 31.1554C141.339 31.0126 141.592 30.945 141.846 30.9634C143.723 31.0914 145.475 31.6061 147.102 32.5074Z" fill="#DD4524"/>
<path d="M105.678 46.4674C114.862 44.7714 124.182 44.1927 133.638 44.7314L136.15 46.4674C136.529 46.7234 136.489 46.8701 136.03 46.9074L131.646 47.2434C121.123 47.3554 110.795 48.8861 100.662 51.8354C96.8062 52.9554 93.0622 52.8381 89.4302 51.4834C87.8382 50.8914 86.9262 49.5154 85.8222 48.2434C85.734 48.1429 85.6215 48.0666 85.4955 48.0217C85.3694 47.9769 85.234 47.9651 85.1022 47.9874C80.5902 48.7074 79.1982 52.7714 77.4942 56.4274C77.1048 56.1767 76.8488 55.8941 76.7262 55.5794C76.2942 51.6861 77.6408 48.4541 80.7662 45.8834C84.4622 42.8434 86.8702 46.0354 88.9982 48.6914C89.078 48.7911 89.1784 48.8716 89.2919 48.927C89.4055 48.9824 89.5292 49.0112 89.6542 49.0114C95.2542 49.0274 100.278 47.7874 105.678 46.4674Z" fill="#FCE8A3"/>
<path d="M131.646 47.2434C130.99 47.2914 130.614 47.4461 130.518 47.7074C130.443 47.9047 130.299 48.0061 130.086 48.0114C129.318 48.0221 128.718 48.2647 128.286 48.7394C128.121 48.9201 127.894 49.0364 127.646 49.0674C125.875 49.2807 124.681 50.1501 124.062 51.6754C123.939 51.9687 123.745 52.2007 123.478 52.3714L120.222 54.4354C119.961 54.6007 119.678 54.6487 119.374 54.5794C118.755 54.4301 118.443 54.6327 118.438 55.1874C118.438 55.5661 118.262 55.8301 117.91 55.9794L105.79 61.1954C105.47 61.3287 105.377 61.5554 105.51 61.8754C105.985 62.9901 106.79 63.8354 107.926 64.4114C108.094 64.4974 108.236 64.6253 108.339 64.7827C108.442 64.9401 108.503 65.1215 108.515 65.3093C108.527 65.4972 108.49 65.6849 108.408 65.8542C108.326 66.0236 108.201 66.1687 108.046 66.2754C104.222 68.8754 100.414 68.9634 96.0141 69.9394C94.3101 70.3234 92.8221 72.1554 90.7981 69.9234C90.7191 69.8349 90.608 69.7811 90.4885 69.7737C90.369 69.7662 90.2505 69.8056 90.1581 69.8834C89.5928 70.3474 89.0381 70.6301 88.4941 70.7314C83.2088 66.7261 79.5421 61.9581 77.4941 56.4274C79.1981 52.7714 80.5901 48.7074 85.1021 47.9874C85.234 47.9651 85.3694 47.9769 85.4954 48.0218C85.6215 48.0666 85.7339 48.1429 85.8221 48.2434C86.9261 49.5154 87.8381 50.8914 89.4301 51.4834C93.0621 52.8381 96.8061 52.9554 100.662 51.8354C110.795 48.8861 121.123 47.3554 131.646 47.2434Z" fill="#ED6735"/>
<path d="M205.918 54.4036C219.758 69.8542 228.603 87.7742 232.454 108.164C240.526 158.308 217.422 205.74 171.23 227.572C169.598 228.34 167.55 229.126 165.086 229.932L164.702 223.212C164.686 222.561 164.622 222.401 164.51 222.732L164.862 222.572C165.123 222.449 165.243 222.244 165.222 221.956C164.318 209.876 160.358 196.052 149.254 189.692C148.254 189.116 137.63 185.316 137.59 186.868C136.779 186.532 135.745 186.401 134.486 186.476C133.403 183.062 133.043 179.532 133.406 175.884C143.23 175.132 152.766 172.644 162.014 168.42C165.758 169.566 169.462 169.769 173.126 169.028C173.377 168.977 173.613 168.872 173.819 168.721C174.025 168.57 174.196 168.376 174.319 168.152C174.442 167.928 174.515 167.68 174.533 167.425C174.551 167.17 174.513 166.914 174.422 166.676L173.654 164.652C173.553 164.39 173.643 164.254 173.926 164.244C175.95 164.156 185.422 164.356 182.03 159.676C181.957 159.576 181.914 159.458 181.906 159.334C181.897 159.211 181.923 159.088 181.981 158.978C182.04 158.869 182.127 158.777 182.235 158.714C182.342 158.65 182.465 158.618 182.59 158.62C184.638 158.66 189.534 158.636 190.846 156.652C191.134 156.22 191.078 155.841 190.678 155.516L180.518 147.34C179.841 147.169 179.377 147.158 179.126 147.308C178.982 144.054 179.518 142.334 180.734 142.148C179.814 146.54 183.518 145.724 186.246 145.564C192.603 144.892 197.683 141.761 201.486 136.172C203.454 134.284 204.625 131.868 204.998 128.924C206.142 119.932 200.022 113.436 190.678 113.9C190.422 113.916 190.195 114.006 189.998 114.172C189.417 114.657 189.089 115.19 189.014 115.772L187.75 115.436C190.718 103.82 193.87 90.1556 191.206 77.8996L189.926 74.4596C190.273 74.4809 190.571 74.4276 190.822 74.2996C191.083 74.1716 191.147 73.9769 191.014 73.7156L190.91 73.5236C190.777 73.2729 190.737 73.0089 190.79 72.7316C191.611 68.6302 193.811 65.4756 197.39 63.2676C197.614 63.1289 197.758 62.9289 197.822 62.6676C198.361 60.4702 199.811 59.8356 202.174 60.7636C202.473 60.8809 202.643 60.7822 202.686 60.4676C202.873 59.0222 203.473 57.8169 204.486 56.8516C205.099 56.2649 205.257 55.7102 204.958 55.1876C204.835 54.9742 204.889 54.8196 205.118 54.7236L205.918 54.4036Z" fill="#FCBA5E"/>
<path d="M76.7259 55.5793C76.8486 55.894 77.1046 56.1767 77.4939 56.4273C79.5419 61.958 83.2086 66.726 88.4939 70.7313C109.534 86.5153 142.294 84.1634 163.278 70.0194C166.27 68.0034 169.243 65.966 172.198 63.9073C172.422 64.0033 172.537 64.0513 172.542 64.0513C172.622 64.052 172.701 64.076 172.768 64.1203C172.835 64.1645 172.887 64.2272 172.919 64.3008C172.952 64.3744 172.962 64.4557 172.949 64.535C172.936 64.6142 172.9 64.688 172.846 64.7474C169.843 68.15 167.041 71.6967 164.438 75.3874C158.038 84.4834 162.638 96.3153 172.638 100.179C174.057 100.723 175.505 101.291 176.982 101.883C177.133 101.944 177.297 101.963 177.458 101.937C177.619 101.912 177.77 101.843 177.895 101.738C178.021 101.633 178.116 101.496 178.17 101.342C178.225 101.187 178.237 101.02 178.206 100.859C177.774 98.6833 177.547 97.0833 177.526 96.0593C177.462 93.062 177.929 92.9767 178.926 95.8033C180.734 100.939 182.443 106.131 184.054 111.379C184.081 111.469 184.135 111.548 184.208 111.606C184.282 111.664 184.372 111.698 184.465 111.703C184.559 111.709 184.651 111.685 184.731 111.636C184.811 111.586 184.873 111.513 184.91 111.427C186.886 106.851 187.126 102.755 187.702 97.8993C188.206 93.6993 189.494 89.3554 190.054 84.9714C190.177 83.9954 190.411 83.038 190.758 82.0993C190.849 81.854 190.843 81.6114 190.742 81.3714C189.953 79.478 190.107 78.3207 191.206 77.8993C193.87 90.1553 190.718 103.819 187.75 115.435L186.734 118.947C185.091 124.441 183.782 130.201 182.806 136.227C182.799 136.243 182.788 136.256 182.773 136.265C182.758 136.273 182.741 136.277 182.724 136.275C182.707 136.274 182.691 136.266 182.678 136.255C182.666 136.243 182.657 136.228 182.654 136.211C183.022 127.923 182.081 119.057 179.83 109.611C179.329 107.499 178.958 106.014 178.718 105.155C178.682 105.025 178.61 104.907 178.51 104.814C178.41 104.721 178.285 104.657 178.15 104.627C174.411 103.833 171.006 102.43 167.934 100.419C164.857 98.3074 162.449 95.334 160.71 91.4993L158.95 82.7793C158.897 82.5127 158.755 82.4487 158.526 82.5874C132.71 97.7954 94.8299 92.3953 77.9179 66.5313L75.8459 62.9793C75.8512 62.4993 75.6192 61.9554 75.1499 61.3474C75.1659 59.4594 75.6912 57.5367 76.7259 55.5793Z" fill="#891814"/>
<path d="M75.1501 61.3474C75.6194 61.9554 75.8514 62.4994 75.8461 62.9794C71.5421 63.6914 66.3661 70.9074 64.6461 74.5714C61.8728 80.4701 60.4674 87.3501 60.4301 95.2114C60.4248 102.022 61.2061 108.753 62.7741 115.403C62.6088 115.947 62.2568 116.265 61.7181 116.355C61.4834 116.393 61.3848 116.294 61.4221 116.059C61.5234 115.425 61.3528 114.811 60.9101 114.219C59.6781 110.977 58.9314 107.729 58.6701 104.475C57.2461 89.9954 57.4381 75.4914 68.3181 64.8994C69.5821 63.6754 73.2861 60.6274 75.1501 61.3474Z" fill="#FCE8A3"/>
<path d="M75.8462 62.9792L77.9182 66.5312C75.1982 68.5553 69.8382 73.7713 71.4702 77.4433C71.6302 77.8059 71.7555 77.7953 71.8462 77.4113L72.8782 73.0512C72.8976 72.9706 72.9422 72.8983 73.0053 72.8446C73.0685 72.7909 73.1471 72.7586 73.2298 72.7524C73.3125 72.7462 73.395 72.7664 73.4655 72.81C73.536 72.8536 73.5909 72.9185 73.6222 72.9953C74.3582 74.7499 74.4888 76.5099 74.0142 78.2752C73.9555 78.4992 74.0408 78.6113 74.2702 78.6113H74.7022C74.8414 78.611 74.9762 78.6597 75.083 78.749C75.1898 78.8382 75.2617 78.9622 75.2862 79.0992L75.5422 80.4752L71.4542 91.8113L70.7582 92.0512C70.6355 92.0939 70.5208 92.0779 70.4142 92.0032C70.3448 91.9606 70.2942 91.9046 70.2622 91.8353C69.9902 91.2699 69.7715 91.2566 69.6062 91.7953L69.2062 93.1313C69.1315 93.3766 68.9715 93.4699 68.7262 93.4113L67.6062 93.1713C67.4902 93.1461 67.3692 93.1589 67.2611 93.2079C67.1531 93.2569 67.0637 93.3395 67.0062 93.4433L64.1262 98.7313C64.0448 98.8833 63.9193 99.0072 63.7663 99.0868C63.6132 99.1663 63.4397 99.1978 63.2685 99.177C63.0973 99.1563 62.9363 99.0843 62.8067 98.9705C62.6771 98.8567 62.5849 98.7064 62.5422 98.5393L61.8782 96.0272C61.8195 95.7926 61.6755 95.6379 61.4462 95.5633L60.4302 95.2113C60.4675 87.3499 61.8728 80.4699 64.6462 74.5713C66.3662 70.9073 71.5422 63.6912 75.8462 62.9792Z" fill="#F98759"/>
<path d="M174.062 62.9478C181.47 63.7584 186.758 67.5957 189.926 74.4597L191.206 77.8997C190.107 78.3211 189.953 79.4784 190.742 81.3718C190.843 81.6118 190.849 81.8544 190.758 82.0997C190.411 83.0384 190.177 83.9958 190.054 84.9718C189.494 89.3558 188.206 93.6997 187.702 97.8997C187.126 102.756 186.886 106.852 184.91 111.428C184.873 111.514 184.811 111.587 184.731 111.636C184.651 111.685 184.559 111.709 184.465 111.704C184.372 111.699 184.282 111.665 184.208 111.607C184.135 111.549 184.081 111.469 184.054 111.38C182.443 106.132 180.734 100.94 178.926 95.8037C177.929 92.9771 177.462 93.0624 177.526 96.0597C177.547 97.0837 177.774 98.6837 178.206 100.86C178.237 101.021 178.225 101.187 178.17 101.342C178.116 101.497 178.021 101.634 177.895 101.739C177.77 101.843 177.619 101.912 177.458 101.938C177.297 101.963 177.133 101.945 176.982 101.884C175.505 101.292 174.057 100.724 172.638 100.18C162.638 96.3157 158.038 84.4837 164.438 75.3877C167.041 71.6971 169.843 68.1504 172.846 64.7478C172.9 64.6884 172.936 64.6146 172.949 64.5354C172.962 64.4561 172.952 64.3748 172.919 64.3012C172.887 64.2276 172.835 64.1649 172.768 64.1207C172.701 64.0764 172.622 64.0524 172.542 64.0517C172.537 64.0517 172.422 64.0037 172.198 63.9077L174.062 62.9478ZM173.51 78.2117C176.678 80.0997 182.126 75.9397 184.078 73.5877C184.249 73.3797 184.31 73.1424 184.262 72.8757C183.774 70.1077 179.318 68.7797 176.854 69.0917C173.182 69.5557 172.726 73.8997 172.726 76.8438C172.726 77.4464 172.987 77.9024 173.51 78.2117Z" fill="#B7291B"/>
<path d="M77.9182 66.5312C94.8302 92.3953 132.71 97.7953 158.526 82.5873C158.756 82.4486 158.897 82.5126 158.95 82.7792L160.71 91.4992C157.974 92.0646 155.124 93.2273 152.158 94.9873C139.27 99.0993 124.774 98.6753 111.59 95.7233C100.726 93.2966 91.1982 88.4379 83.0062 81.1473C82.9249 81.0757 82.8291 81.0225 82.7255 80.9914C82.6218 80.9603 82.5129 80.9521 82.4062 80.9674C82.2995 80.9826 82.1977 81.0209 82.1079 81.0796C82.0181 81.1383 81.9424 81.216 81.8862 81.3073L76.2782 90.4593C76.6542 88.4993 76.5102 86.9313 77.2622 84.9633C77.7849 83.5873 77.9795 82.1366 77.8462 80.6113C77.8256 80.3693 77.8971 80.1291 78.0462 79.9393C79.0115 78.7073 79.5395 77.2673 79.6302 75.6193C79.6462 75.3153 79.5075 75.1179 79.2142 75.0272L78.5102 74.8032C78.1902 74.7019 77.9955 74.8192 77.9262 75.1552C77.5315 77.1872 76.7369 78.9606 75.5422 80.4752L75.2862 79.0992C75.2618 78.9622 75.1898 78.8382 75.083 78.749C74.9762 78.6597 74.8414 78.611 74.7022 78.6113H74.2702C74.0409 78.6113 73.9555 78.4992 74.0142 78.2752C74.4889 76.5099 74.3582 74.7499 73.6222 72.9953C73.5909 72.9185 73.536 72.8536 73.4655 72.81C73.395 72.7664 73.3125 72.7462 73.2298 72.7524C73.1471 72.7586 73.0686 72.7909 73.0054 72.8446C72.9422 72.8983 72.8977 72.9706 72.8782 73.0512L71.8462 77.4113C71.7555 77.7953 71.6302 77.8059 71.4702 77.4433C69.8382 73.7713 75.1982 68.5552 77.9182 66.5312Z" fill="#CA6246"/>
<path d="M173.51 78.2116C172.987 77.9022 172.726 77.4462 172.726 76.8436C172.726 73.8996 173.182 69.5556 176.854 69.0916C179.318 68.7796 183.774 70.1076 184.262 72.8756C184.31 73.1422 184.249 73.3796 184.078 73.5876C182.126 75.9396 176.678 80.0996 173.51 78.2116Z" fill="#CF3722"/>
<path d="M76.2784 90.4593C70.1104 102.883 66.9264 115.267 67.2864 129.075L64.4224 120.971C64.657 120.763 64.9744 120.729 65.3744 120.867C65.6677 120.963 65.8277 120.859 65.8544 120.555C65.9104 119.835 65.4704 119.051 65.4544 118.395C65.401 116.086 65.5984 114.022 66.0464 112.203C67.0117 108.289 68.8144 101.491 71.4544 91.8113L75.5424 80.4753C76.737 78.9606 77.5317 77.1873 77.9264 75.1553C77.9957 74.8193 78.1904 74.702 78.5104 74.8033L79.2144 75.0273C79.5077 75.118 79.6464 75.3153 79.6304 75.6193C79.5397 77.2673 79.0117 78.7073 78.0464 79.9393C77.8972 80.1292 77.8257 80.3693 77.8464 80.6113C77.9797 82.1366 77.785 83.5873 77.2624 84.9633C76.5104 86.9313 76.6544 88.4993 76.2784 90.4593Z" fill="#B7291B"/>
<path d="M152.158 94.9876C153.75 95.2116 154.534 96.7396 154.878 98.3476C155.316 100.39 156.169 102.252 157.438 103.932C157.465 103.964 157.502 103.982 157.55 103.988C157.625 103.993 157.705 104.004 157.79 104.02C157.849 104.028 157.903 104.055 157.946 104.097C157.989 104.138 158.018 104.192 158.03 104.252C158.046 104.364 158.081 104.481 158.134 104.604C155.726 104.372 151.566 104.316 149.486 105.916C147.942 107.1 149.278 108.044 150.694 108.076C151.142 108.145 151.345 108.644 151.302 109.572C151.286 109.892 151.436 110.092 151.75 110.172C159.212 112.097 165.318 116.14 170.07 122.3C170.081 122.316 170.086 122.335 170.083 122.355C170.081 122.374 170.071 122.392 170.056 122.405C170.042 122.417 170.023 122.424 170.003 122.424C169.984 122.424 169.965 122.417 169.95 122.404C169.758 122.222 169.558 122.022 169.35 121.804C169.19 121.638 169.092 121.67 169.054 121.9C168.756 124.038 169.396 125.692 170.974 126.86C172.11 127.708 175.678 130.86 173.398 131.492C167.414 125.022 160.444 124.302 152.486 129.332L149.406 125.62C149.235 125.423 149.134 125.175 149.118 124.916C149.017 123.252 148.305 121.782 146.982 120.508C142.206 115.916 135.006 110.644 129.254 109.468C119.66 107.51 111.249 109.513 104.022 115.476C103.82 115.641 103.697 115.854 103.654 116.116C103.014 119.886 101.702 123.396 99.7183 126.644C99.665 126.734 99.641 126.836 99.6463 126.948C99.6516 127.044 99.6543 127.142 99.6543 127.244C99.649 127.43 99.553 127.54 99.3663 127.572C98.785 127.684 98.3476 128.084 98.0543 128.772C90.8463 124.428 80.4063 125.852 76.5983 133.98C75.7503 135.804 75.4143 138.524 76.9423 139.908C77.3476 141.892 78.0196 142.889 78.9583 142.9C80.5103 144.313 82.385 144.865 84.5823 144.556C84.8703 144.513 85.121 144.59 85.3343 144.788C85.7823 145.182 86.0276 145.694 86.0703 146.324C86.0863 146.601 86.209 146.817 86.4383 146.972L88.0143 148.044C88.2085 148.174 88.3674 148.358 88.4711 148.571C88.5749 148.784 88.6188 149.016 88.5975 149.24C88.5761 149.464 88.4904 149.669 88.3511 149.829C88.2118 149.989 88.025 150.097 87.8143 150.14C87.6116 150.182 87.5476 150.513 87.6223 151.132C84.1103 151.132 77.3103 151.996 75.4463 155.636L75.1343 155.436C74.969 155.34 74.8516 155.201 74.7823 155.02C73.289 151.196 71.2703 147.902 68.7263 145.14L67.2863 129.076C66.9263 115.268 70.1103 102.884 76.2783 90.4596L81.8863 81.3076C81.9425 81.2163 82.0182 81.1386 82.108 81.0799C82.1978 81.0212 82.2996 80.9829 82.4063 80.9677C82.513 80.9524 82.6219 80.9606 82.7255 80.9917C82.8292 81.0228 82.925 81.076 83.0063 81.1476C91.1983 88.4382 100.726 93.2969 111.59 95.7236C124.774 98.6756 139.27 99.0996 152.158 94.9876ZM100.014 109.004C101.27 109.076 102.686 109.604 104.022 108.844C104.144 108.772 104.234 108.658 104.274 108.524C104.314 108.39 104.301 108.247 104.238 108.124C102.894 105.516 97.9103 105.292 95.4303 105.588C87.4303 106.537 82.1636 110.82 79.6303 118.436C79.6029 118.516 79.6005 118.602 79.6235 118.683C79.6464 118.765 79.6936 118.837 79.7588 118.891C79.8239 118.945 79.904 118.978 79.9882 118.985C80.0725 118.992 80.1569 118.974 80.2303 118.932C80.8463 118.588 81.5263 118.156 81.9663 117.548C86.377 111.446 92.393 108.598 100.014 109.004Z" fill="#FDA477"/>
<path d="M71.4542 91.8114C68.8142 101.491 67.0115 108.289 66.0462 112.203C65.5982 114.022 65.4009 116.086 65.4542 118.395C65.4702 119.051 65.9102 119.835 65.8542 120.555C65.8275 120.859 65.6675 120.963 65.3742 120.867C64.9742 120.729 64.6569 120.763 64.4222 120.971C64.3849 120.982 64.3475 120.995 64.3102 121.011L62.7742 115.403C61.2062 108.753 60.4249 102.022 60.4302 95.2114L61.4462 95.5634C61.6755 95.638 61.8195 95.7927 61.8782 96.0274L62.5422 98.5394C62.5849 98.7065 62.6771 98.8568 62.8067 98.9706C62.9363 99.0844 63.0973 99.1564 63.2685 99.1771C63.4398 99.1979 63.6133 99.1664 63.7663 99.0869C63.9194 99.0074 64.0448 98.8834 64.1262 98.7314L67.0062 93.4434C67.0637 93.3396 67.1531 93.257 67.2612 93.208C67.3692 93.159 67.4902 93.1462 67.6062 93.1714L68.7262 93.4114C68.9715 93.47 69.1315 93.3767 69.2062 93.1314L69.6062 91.7954C69.7715 91.2567 69.9902 91.27 70.2622 91.8354C70.2942 91.9047 70.3449 91.9607 70.4142 92.0034C70.5209 92.078 70.6355 92.094 70.7582 92.0514L71.4542 91.8114Z" fill="#DD4524"/>
<path d="M160.71 91.4993C162.449 95.3339 164.857 98.3073 167.934 100.419C167.7 101.406 167.942 102.137 168.662 102.611C172.134 104.899 174.924 107.331 177.03 109.907C177.206 110.126 177.281 110.374 177.254 110.651C177.222 111.046 177.26 111.318 177.366 111.467C180.262 115.451 179.19 118.403 179.702 122.539C180.54 129.238 180.884 135.774 180.734 142.147C179.518 142.334 178.982 144.054 179.126 147.307C178.673 150.273 177.476 152.835 175.534 154.995L171.222 152.459C171.852 151.265 172.132 149.998 172.062 148.659C172.047 148.398 172.105 148.138 172.23 147.907C173.078 146.315 175.902 141.403 174.798 139.835C176.462 137.851 174.734 133.611 173.398 131.491C175.678 130.859 172.11 127.707 170.974 126.859C169.396 125.691 168.756 124.038 169.054 121.899C169.092 121.67 169.19 121.638 169.35 121.803C169.558 122.022 169.758 122.222 169.95 122.403C169.965 122.416 169.984 122.424 170.003 122.424C170.023 122.424 170.042 122.417 170.056 122.404C170.071 122.392 170.081 122.374 170.083 122.354C170.086 122.335 170.081 122.315 170.07 122.299C165.318 116.139 159.212 112.097 151.75 110.171C151.436 110.091 151.286 109.891 151.302 109.571C151.345 108.643 151.142 108.145 150.694 108.075C161.19 107.203 166.478 109.467 171.406 118.859C171.451 118.945 171.515 119.018 171.594 119.072C171.674 119.126 171.765 119.161 171.861 119.172C171.957 119.183 172.055 119.17 172.146 119.135C172.237 119.1 172.318 119.044 172.382 118.971C172.532 118.806 172.572 118.579 172.502 118.291C170.641 110.371 165.852 105.809 158.134 104.603C158.081 104.481 158.046 104.363 158.03 104.251C158.018 104.192 157.989 104.138 157.946 104.097C157.903 104.055 157.849 104.028 157.79 104.019C157.705 104.003 157.625 103.993 157.55 103.987C157.502 103.982 157.465 103.963 157.438 103.931C156.169 102.251 155.316 100.39 154.878 98.3473C154.534 96.7393 153.75 95.2113 152.158 94.9873C155.124 93.2273 157.974 92.0646 160.71 91.4993Z" fill="#F98759"/>
<path d="M167.934 100.419C171.006 102.43 174.412 103.833 178.15 104.627C178.286 104.657 178.41 104.721 178.51 104.814C178.611 104.908 178.682 105.025 178.718 105.155C178.958 106.014 179.329 107.499 179.83 109.611C182.081 119.057 183.022 127.923 182.654 136.211C182.657 136.228 182.666 136.243 182.679 136.255C182.691 136.267 182.707 136.274 182.724 136.275C182.741 136.277 182.758 136.274 182.773 136.265C182.788 136.256 182.799 136.243 182.806 136.227C183.782 130.201 185.092 124.441 186.734 118.947L188.686 116.835C188.777 116.734 188.892 116.657 189.02 116.611C189.149 116.565 189.287 116.552 189.422 116.571L192.982 117.083C197.366 118.363 198.678 123.411 198.078 127.411C195.582 135.347 190.822 139.635 186.246 145.563C183.518 145.723 179.814 146.539 180.734 142.147C180.884 135.774 180.54 129.238 179.702 122.539C179.19 118.403 180.262 115.451 177.366 111.467C177.26 111.318 177.222 111.046 177.254 110.651C177.281 110.374 177.206 110.126 177.03 109.907C174.924 107.331 172.134 104.899 168.662 102.611C167.942 102.137 167.7 101.406 167.934 100.419ZM193.902 130.699C194.806 128.363 192.974 122.627 189.598 124.723C189.341 124.883 189.15 125.133 189.062 125.427L186.318 134.819C186.233 135.102 186.332 135.195 186.614 135.099C189.03 134.307 192.918 133.243 193.902 130.699Z" fill="#EF7758"/>
<path d="M58.6702 104.475C58.9316 107.729 59.6782 110.977 60.9102 114.22C60.6862 114.454 60.6116 114.62 60.6862 114.716C54.8462 113.297 50.5156 114.316 47.6942 117.772C41.5022 125.364 46.2622 136.356 53.1182 142.108L52.0862 141.668C52.0362 141.646 51.9816 141.639 51.9277 141.645C51.8737 141.651 51.8224 141.672 51.7788 141.704C51.7352 141.736 51.7007 141.78 51.6789 141.829C51.657 141.879 51.6485 141.933 51.6542 141.987C51.7182 142.643 51.9982 143.166 52.4942 143.556C52.9369 143.902 52.9182 144.054 52.4382 144.012C51.9316 143.969 51.7929 144.185 52.0222 144.66C52.2089 145.049 52.0862 145.243 51.6542 145.243C50.7422 145.243 50.2462 145.689 50.1662 146.58C50.1556 146.702 50.1956 146.801 50.2862 146.876L50.5742 147.108C50.7982 147.294 50.7929 147.47 50.5582 147.636C49.0702 148.708 47.4382 149.422 45.6622 149.78C45.4809 149.817 45.3502 149.75 45.2702 149.58C43.9102 146.596 38.4382 151.564 37.2142 152.916C37.0436 153.108 36.8302 153.201 36.5742 153.195C35.4062 153.174 34.3556 152.78 33.4222 152.012C33.2319 151.854 33.0081 151.742 32.7678 151.684C32.5275 151.626 32.277 151.624 32.0351 151.677C31.7933 151.73 31.5663 151.837 31.3715 151.991C31.1766 152.145 31.0189 152.34 30.9102 152.564L28.9262 156.643C28.8356 156.835 28.6916 156.961 28.4942 157.02C28.1022 157.14 28.1262 157.635 28.2462 158.003C28.9502 160.094 28.9716 162.217 28.3102 164.372C28.275 164.485 28.2778 164.608 28.318 164.721C28.3583 164.835 28.434 164.934 28.5342 165.003L29.3582 165.556C29.5609 165.694 29.6889 165.884 29.7422 166.124L30.3662 168.812C30.4302 169.078 30.5982 169.212 30.8702 169.212H31.6222C31.8462 169.212 31.9102 169.313 31.8142 169.516C30.7502 171.708 34.1982 174.579 31.9982 175.499C27.3316 165.409 24.2249 154.838 22.6782 143.787C23.3556 143.494 23.6756 143.102 23.6382 142.612C23.2542 137.108 23.4782 131.436 24.3102 125.596C24.3277 125.518 24.3735 125.45 24.4387 125.404C24.5038 125.358 24.5836 125.339 24.6625 125.349C24.7415 125.359 24.8138 125.398 24.8655 125.458C24.9173 125.518 24.9446 125.596 24.9422 125.675L24.5262 129.236C24.4729 129.684 24.5609 129.715 24.7902 129.332L25.2302 128.596C25.3582 128.382 25.4382 128.148 25.4702 127.892C25.5929 126.894 25.8062 125.918 26.1102 124.964C26.8622 122.604 29.7422 120.875 31.7102 119.507C32.7902 118.747 32.9022 117.596 34.1822 117.092C40.5742 114.612 47.5822 111.508 51.6382 106.172C51.7929 105.969 51.9982 105.865 52.2542 105.86C53.4302 105.82 54.6622 103.988 55.7502 103.068C55.9529 102.897 56.1662 102.881 56.3902 103.02L58.6702 104.475Z" fill="#FCCA73"/>
<path d="M158.134 104.603C165.852 105.809 170.641 110.371 172.502 118.291C172.572 118.579 172.532 118.806 172.382 118.971C172.318 119.044 172.236 119.1 172.146 119.135C172.055 119.17 171.957 119.183 171.861 119.172C171.765 119.161 171.674 119.126 171.594 119.072C171.515 119.018 171.45 118.945 171.406 118.859C166.478 109.467 161.19 107.203 150.694 108.075C149.278 108.043 147.942 107.099 149.486 105.915C151.566 104.315 155.726 104.371 158.134 104.603Z" fill="#2D1920"/>
<path d="M100.014 109.003C92.393 108.598 86.377 111.446 81.9664 117.548C81.5264 118.156 80.8464 118.587 80.2304 118.931C80.157 118.973 80.0725 118.992 79.9883 118.985C79.9041 118.978 79.824 118.945 79.7589 118.891C79.6937 118.837 79.6465 118.765 79.6235 118.683C79.6006 118.602 79.603 118.515 79.6304 118.435C82.1637 110.819 87.4304 106.537 95.4304 105.587C97.9104 105.291 102.894 105.516 104.238 108.124C104.301 108.247 104.314 108.39 104.274 108.524C104.234 108.658 104.144 108.772 104.022 108.844C102.686 109.604 101.27 109.075 100.014 109.003Z" fill="#2D1920"/>
<path d="M152.486 129.331C149.691 136.953 151.646 141.721 158.35 143.635C158.291 143.619 158.307 143.715 158.398 143.923C158.467 144.094 158.595 144.19 158.782 144.211C158.91 144.233 159.086 144.251 159.31 144.267C155.686 145.539 155.39 147.771 155.238 151.419C151.518 152.467 145.35 154.715 149.35 159.459C147.438 162.059 144.894 161.747 142.526 163.115C136.286 166.707 133.07 168.123 126.118 167.619C126.065 167.614 126.011 167.629 125.966 167.661C125.92 167.693 125.887 167.74 125.87 167.795C125.502 168.987 114.854 167.451 113.446 167.019C112.694 166.785 111.697 166.518 110.454 166.219C106.47 165.259 102.563 163.209 98.734 160.067C106.838 153.691 91.486 150.835 87.622 151.131C87.5473 150.513 87.6113 150.182 87.814 150.139C88.0247 150.097 88.2115 149.988 88.3508 149.828C88.4901 149.669 88.5758 149.464 88.5972 149.24C88.6185 149.016 88.5746 148.783 88.4708 148.57C88.3671 148.358 88.2082 148.174 88.014 148.043L86.438 146.971C86.2087 146.817 86.086 146.601 86.07 146.323C86.0273 145.694 85.782 145.182 85.334 144.787C85.1207 144.59 84.87 144.513 84.582 144.555C82.3847 144.865 80.51 144.313 78.958 142.899C82.8567 143.667 86.694 144.059 90.47 144.075C91.1633 144.081 92.1447 144.27 93.414 144.643C94.526 144.971 99.902 145.011 98.542 142.955C103.398 139.251 102.846 132.187 98.054 128.771C98.3473 128.083 98.7847 127.683 99.366 127.571C99.5527 127.539 99.6487 127.43 99.654 127.243C99.654 127.142 99.6513 127.043 99.646 126.947C99.6407 126.835 99.6647 126.734 99.718 126.643C101.702 123.395 103.014 119.886 103.654 116.115C103.697 115.854 103.819 115.641 104.022 115.475C111.249 109.513 119.659 107.51 129.254 109.467C135.006 110.643 142.206 115.915 146.982 120.507C148.305 121.782 149.017 123.251 149.118 124.915C149.133 125.175 149.235 125.422 149.406 125.619L152.486 129.331ZM125.782 147.859C124.534 147.902 123.457 148.345 122.55 149.187C122.457 149.272 122.383 149.376 122.334 149.492C122.284 149.608 122.26 149.733 122.262 149.859C122.374 154.795 133.47 149.323 126.958 144.907C126.585 144.651 125.761 144.489 124.486 144.419C124.193 144.403 124.019 144.539 123.966 144.827L123.822 145.675C123.809 145.753 123.811 145.833 123.83 145.91C123.849 145.987 123.883 146.059 123.931 146.123C123.979 146.186 124.039 146.24 124.108 146.28C124.178 146.32 124.255 146.345 124.334 146.355L125.838 146.531C126.014 146.539 126.18 146.616 126.299 146.746C126.419 146.875 126.481 147.047 126.474 147.223C126.467 147.399 126.39 147.565 126.26 147.685C126.13 147.804 125.958 147.867 125.782 147.859ZM115.75 154.235C117.318 158.195 123.614 159.267 127.062 158.627C130.667 157.966 133.121 156.233 134.422 153.427C134.427 153.415 134.43 153.401 134.43 153.389C134.43 153.377 134.427 153.365 134.422 153.355L134.294 153.123C134.219 152.979 134.134 152.974 134.038 153.107C129.71 159.107 121.198 158.603 116.086 153.995C115.633 153.59 115.521 153.67 115.75 154.235Z" fill="#FDBD8E"/>
<path d="M201.486 136.172C206.67 125.852 203.246 116.26 191.55 115.388C191.314 115.367 191.079 115.439 190.894 115.588L189.822 116.436C189.524 116.67 189.284 116.62 189.102 116.284C189.028 116.145 188.998 115.974 189.014 115.772C189.089 115.19 189.417 114.657 189.998 114.172C190.196 114.006 190.422 113.916 190.678 113.9C200.022 113.436 206.142 119.932 204.998 128.924C204.625 131.868 203.454 134.284 201.486 136.172Z" fill="#FCECDE"/>
<path d="M60.686 114.715C60.942 115.206 61.0674 115.667 61.062 116.099C61.0567 116.387 60.91 116.55 60.622 116.587C59.558 116.731 58.654 116.131 57.734 116.187C55.734 116.31 53.686 117.033 51.59 118.355C41.238 124.891 49.486 137.564 56.03 143.068C56.1687 143.185 56.1687 143.302 56.03 143.42L55.806 143.603L53.118 142.107C46.262 136.355 41.502 125.364 47.694 117.772C50.5154 114.316 54.846 113.297 60.686 114.715Z" fill="#FCECDE"/>
<path d="M60.9103 114.219C61.353 114.811 61.5237 115.425 61.4223 116.059C61.385 116.294 61.4837 116.393 61.7184 116.355C62.257 116.265 62.609 115.947 62.7744 115.403L64.3104 121.011C64.321 121.331 64.1024 121.47 63.6544 121.427C63.4686 121.406 63.2944 121.328 63.1565 121.203C63.0186 121.078 62.9241 120.913 62.8864 120.731L62.3664 118.179C62.3024 117.849 62.0997 117.699 61.7583 117.731L58.9344 117.987C58.6304 118.014 58.3797 118.147 58.1824 118.387C54.5104 122.875 51.3744 126.403 52.6304 131.587C53.5744 135.507 54.6304 138.763 58.0864 140.899C58.3232 141.045 58.5169 141.251 58.6475 141.496C58.778 141.742 58.8408 142.018 58.8294 142.296C58.8181 142.574 58.7329 142.845 58.5826 143.081C58.4324 143.316 58.2224 143.507 57.9744 143.635L57.1504 144.059C56.7184 144.342 56.2704 144.19 55.8064 143.603L56.0304 143.419C56.169 143.302 56.169 143.185 56.0304 143.067C49.4864 137.563 41.2383 124.891 51.5903 118.355C53.6863 117.033 55.7344 116.31 57.7344 116.187C58.6544 116.131 59.5583 116.731 60.6223 116.587C60.9103 116.55 61.057 116.387 61.0624 116.099C61.0677 115.667 60.9424 115.206 60.6864 114.715C60.6117 114.619 60.6863 114.454 60.9103 114.219Z" fill="#FDBD8E"/>
<path d="M187.75 115.435L189.014 115.771C188.998 115.974 189.027 116.145 189.102 116.283C189.283 116.619 189.523 116.67 189.822 116.435L190.894 115.587C191.079 115.439 191.314 115.367 191.55 115.387C203.246 116.259 206.67 125.851 201.486 136.171C197.683 141.761 192.603 144.891 186.246 145.563C190.822 139.635 195.582 135.347 198.078 127.411C199.619 127.518 200.961 127.065 202.102 126.051C202.19 125.971 202.258 125.873 202.302 125.764C202.347 125.654 202.366 125.537 202.358 125.419C202.006 119.907 198.55 118.371 194.238 116.395C194.009 116.289 193.782 116.297 193.558 116.419C193.275 116.569 193.083 116.79 192.982 117.083L189.422 116.571C189.287 116.552 189.148 116.565 189.02 116.611C188.892 116.657 188.777 116.734 188.686 116.835L186.734 118.947L187.75 115.435Z" fill="#F98759"/>
<path d="M198.078 127.411C198.678 123.411 197.366 118.363 192.982 117.083C193.083 116.79 193.275 116.569 193.558 116.419C193.782 116.297 194.009 116.289 194.238 116.395C198.55 118.371 202.006 119.907 202.358 125.419C202.366 125.537 202.346 125.654 202.302 125.764C202.258 125.873 202.189 125.972 202.102 126.051C200.961 127.065 199.619 127.518 198.078 127.411Z" fill="#FDBD8E"/>
<path d="M64.3105 121.012C64.3478 120.996 64.3852 120.982 64.4225 120.972L67.2865 129.076L68.7265 145.14C64.3692 146.366 60.5105 146.006 57.1505 144.06L57.9745 143.636C58.2226 143.507 58.4325 143.316 58.5828 143.081C58.733 142.845 58.8182 142.575 58.8296 142.296C58.841 142.018 58.7782 141.742 58.6476 141.496C58.5171 141.251 58.3234 141.045 58.0865 140.9C54.6305 138.764 53.5745 135.508 52.6305 131.588C51.3745 126.404 54.5105 122.876 58.1825 118.388C58.3798 118.148 58.6305 118.014 58.9345 117.988L61.7585 117.732C62.0998 117.7 62.3025 117.849 62.3665 118.18L62.8865 120.732C62.9242 120.913 63.0188 121.078 63.1567 121.203C63.2946 121.328 63.4688 121.406 63.6545 121.428C64.1025 121.47 64.3212 121.332 64.3105 121.012ZM56.6545 125.084C55.5105 129.852 57.8785 135.212 63.2785 135.428C63.5292 135.438 63.7585 135.51 63.9665 135.644L64.9665 136.276C65.4892 136.601 65.6225 136.484 65.3665 135.924C64.0492 133.065 62.8998 130.145 61.9185 127.164C61.3345 125.396 57.6065 121.148 56.6545 125.084Z" fill="#EF7758"/>
<path d="M63.2782 135.428C57.8782 135.212 55.5102 129.852 56.6542 125.084C57.6062 121.148 61.3342 125.396 61.9182 127.164C62.8995 130.145 64.0488 133.065 65.3662 135.924C65.6222 136.484 65.4888 136.601 64.9662 136.276L63.9662 135.644C63.7582 135.51 63.5288 135.438 63.2782 135.428Z" fill="#C15227"/>
<path d="M189.598 124.723C192.974 122.627 194.806 128.363 193.902 130.699C192.918 133.243 189.03 134.307 186.614 135.099C186.331 135.195 186.232 135.102 186.318 134.819L189.062 125.427C189.149 125.133 189.34 124.883 189.598 124.723Z" fill="#C15227"/>
<path d="M173.398 131.491C174.734 133.611 176.462 137.851 174.798 139.835L174.214 139.619C172.78 131.486 168.02 127.395 159.934 127.347C159.19 127.339 158.158 127.707 157.462 127.979C157.185 128.091 157.196 128.153 157.494 128.163C165.75 128.539 166.366 138.683 160.766 142.955C160.566 143.103 160.337 143.207 160.094 143.259L158.35 143.635C151.646 141.721 149.692 136.953 152.486 129.331C160.444 124.302 167.414 125.022 173.398 131.491ZM159.05 135.047C159.127 134.886 159.156 134.704 159.135 134.511C159.115 134.319 159.046 134.12 158.931 133.925C158.816 133.731 158.659 133.544 158.468 133.377C158.276 133.21 158.055 133.066 157.816 132.952C157.577 132.838 157.325 132.757 157.075 132.713C156.825 132.67 156.581 132.664 156.358 132.698C156.134 132.731 155.936 132.802 155.773 132.908C155.611 133.013 155.488 133.15 155.411 133.311C155.334 133.473 155.305 133.655 155.325 133.847C155.346 134.04 155.415 134.239 155.53 134.434C155.644 134.628 155.802 134.814 155.993 134.981C156.184 135.148 156.406 135.293 156.645 135.407C156.884 135.521 157.135 135.602 157.386 135.646C157.636 135.689 157.88 135.694 158.103 135.661C158.326 135.628 158.525 135.556 158.687 135.451C158.85 135.346 158.973 135.209 159.05 135.047Z" fill="#070608"/>
<path d="M98.0544 128.772C102.846 132.188 103.398 139.252 98.5424 142.956C89.5904 147.404 85.7504 133.3 94.3824 129.22C94.6544 129.092 94.6491 128.974 94.3664 128.868C85.5344 125.564 78.9424 131.62 76.9424 139.908C75.4144 138.524 75.7504 135.804 76.5984 133.98C80.4064 125.852 90.8464 124.428 98.0544 128.772ZM93.3264 131.764L92.0944 133.212C92.0362 133.279 91.9919 133.357 91.964 133.441C91.9362 133.525 91.9253 133.614 91.932 133.703C91.9386 133.791 91.9628 133.877 92.003 133.957C92.0433 134.036 92.0988 134.106 92.1664 134.164L92.8544 134.748C93.0915 134.95 93.3521 135.121 93.6211 135.25C93.8902 135.379 94.1625 135.464 94.4225 135.5C94.6825 135.535 94.9251 135.521 95.1365 135.458C95.3478 135.395 95.5238 135.284 95.6544 135.132L95.7824 134.98C96.0449 134.671 96.1063 134.213 95.9533 133.706C95.8003 133.199 95.4453 132.684 94.9664 132.276L94.2784 131.692C94.2113 131.633 94.1334 131.589 94.0492 131.561C93.9649 131.533 93.8759 131.522 93.7874 131.529C93.6989 131.536 93.6126 131.56 93.5334 131.6C93.4543 131.64 93.3839 131.696 93.3264 131.764Z" fill="#070608"/>
<path d="M174.214 139.619C172.134 144.187 164.958 143.707 159.31 144.267C159.086 144.251 158.91 144.233 158.782 144.211C158.595 144.19 158.467 144.094 158.398 143.923C158.307 143.715 158.291 143.619 158.35 143.635L160.094 143.259C160.337 143.207 160.566 143.103 160.766 142.955C166.366 138.683 165.75 128.539 157.494 128.163C157.195 128.153 157.185 128.091 157.462 127.979C158.158 127.707 159.19 127.339 159.934 127.347C168.019 127.395 172.779 131.486 174.214 139.619Z" fill="#FCECDE"/>
<path d="M98.5424 142.955C99.9024 145.011 94.5264 144.971 93.4144 144.643C92.145 144.27 91.1637 144.081 90.4704 144.075C86.6944 144.059 82.8571 143.667 78.9584 142.899C78.0197 142.889 77.3477 141.891 76.9424 139.907C78.9424 131.619 85.5344 125.563 94.3664 128.867C94.649 128.974 94.6544 129.091 94.3824 129.219C85.7504 133.299 89.5904 147.403 98.5424 142.955Z" fill="#FCECDE"/>
<path d="M93.326 131.763C93.3836 131.696 93.454 131.64 93.5331 131.6C93.6122 131.56 93.6985 131.535 93.787 131.529C93.8756 131.522 93.9645 131.533 94.0488 131.561C94.1331 131.589 94.211 131.633 94.278 131.691L94.966 132.275C95.445 132.684 95.8 133.199 95.953 133.706C96.106 134.213 96.0445 134.671 95.7821 134.979L95.6541 135.131C95.5235 135.284 95.3475 135.395 95.1361 135.458C94.9247 135.521 94.6821 135.535 94.4221 135.499C94.1621 135.464 93.8898 135.379 93.6208 135.25C93.3517 135.121 93.0912 134.95 92.8541 134.747L92.166 134.163C92.0985 134.106 92.0429 134.035 92.0027 133.956C91.9625 133.877 91.9383 133.791 91.9316 133.702C91.9249 133.614 91.9358 133.525 91.9637 133.44C91.9916 133.356 92.0359 133.278 92.0941 133.211L93.326 131.763ZM93.9581 134.235L94.278 134.387C94.5127 134.494 94.6514 134.419 94.6941 134.163C94.8061 133.406 94.5447 133.243 93.9101 133.675C93.8631 133.707 93.8255 133.75 93.8012 133.801C93.7768 133.852 93.7666 133.908 93.7714 133.965C93.7763 134.022 93.7961 134.077 93.8289 134.124C93.8617 134.172 93.9062 134.21 93.9581 134.235Z" fill="#EBE1DA"/>
<path d="M156.645 135.407C157.65 135.886 158.726 135.725 159.05 135.047C159.373 134.369 158.821 133.431 157.816 132.952C156.811 132.473 155.734 132.634 155.411 133.312C155.087 133.989 155.64 134.928 156.645 135.407Z" fill="#EBE1DA"/>
<path d="M93.9103 133.675C94.545 133.243 94.8063 133.406 94.6943 134.163C94.6516 134.419 94.513 134.494 94.2783 134.387L93.9583 134.235C93.9065 134.21 93.8619 134.172 93.8291 134.124C93.7964 134.077 93.7766 134.022 93.7717 133.965C93.7668 133.908 93.7771 133.852 93.8014 133.801C93.8257 133.75 93.8633 133.707 93.9103 133.675Z" fill="#472D30"/>
<path d="M174.214 139.62L174.798 139.836C175.902 141.404 173.078 146.316 172.23 147.908C172.105 148.138 172.047 148.399 172.062 148.66C172.132 149.998 171.852 151.265 171.222 152.46C165.985 150.737 160.657 150.39 155.238 151.42C155.39 147.772 155.686 145.54 159.31 144.268C164.958 143.708 172.134 144.188 174.214 139.62Z" fill="#FDAD7B"/>
<path d="M53.1186 142.107L55.8066 143.603C56.2706 144.19 56.7186 144.342 57.1506 144.059C60.5106 146.006 64.3693 146.366 68.7266 145.139C71.2706 147.902 73.2893 151.195 74.7826 155.019C74.8519 155.201 74.9693 155.339 75.1346 155.435L75.4466 155.635V155.947L74.3426 156.531L70.2866 148.243C70.1373 147.945 69.9319 147.897 69.6706 148.099L67.1746 149.979L59.8306 156.619C59.6908 156.747 59.5901 156.911 59.5401 157.094C59.4902 157.276 59.493 157.469 59.5483 157.65C59.6036 157.831 59.709 157.993 59.8525 158.116C59.9959 158.24 60.1714 158.32 60.3586 158.347L67.5906 159.347C67.0786 160.627 66.9613 161.729 67.2386 162.651C67.3239 162.923 67.4973 163.11 67.7586 163.211C70.5533 164.283 73.4306 164.539 76.3906 163.979C76.4056 163.975 76.4213 163.976 76.436 163.981C76.4507 163.985 76.464 163.994 76.4745 164.006C76.4851 164.019 76.4925 164.033 76.496 164.05C76.4995 164.066 76.499 164.083 76.4946 164.099C75.4919 167.017 75.8813 168.595 77.6626 168.835C80.9106 169.39 84.2439 169.033 87.6626 167.763C96.5906 172.238 105.991 174.649 115.863 174.995L119.399 175.291L119.207 187.123L115.247 187.387C115.284 187.142 115.231 186.902 115.087 186.667C115.023 186.567 114.935 186.484 114.83 186.427C114.725 186.369 114.607 186.339 114.487 186.339C94.9746 186.435 88.6146 206.443 88.0626 222.419L88.0386 229.011C63.2626 219.659 43.2546 199.003 31.9986 175.499C34.1986 174.579 30.7506 171.707 31.8146 169.515C31.9106 169.313 31.8466 169.211 31.6226 169.211H30.8706C30.5986 169.211 30.4306 169.078 30.3666 168.811L29.7426 166.123C29.6893 165.883 29.5613 165.694 29.3586 165.555L28.5346 165.003C28.4344 164.933 28.3587 164.835 28.3184 164.721C28.2781 164.607 28.2754 164.485 28.3106 164.371C28.9719 162.217 28.9506 160.094 28.2466 158.003C28.1266 157.635 28.1026 157.139 28.4946 157.019C28.6919 156.961 28.8359 156.835 28.9266 156.643L30.9106 152.563C31.0193 152.34 31.177 152.144 31.3719 151.991C31.5667 151.837 31.7936 151.73 32.0355 151.677C32.2774 151.623 32.5279 151.626 32.7682 151.684C33.0085 151.742 33.2322 151.854 33.4226 152.011C34.3559 152.779 35.4066 153.174 36.5746 153.195C36.8306 153.201 37.0439 153.107 37.2146 152.915C38.4386 151.563 43.9106 146.595 45.2706 149.579C45.3506 149.75 45.4813 149.817 45.6626 149.779C47.4386 149.422 49.0706 148.707 50.5586 147.635C50.7933 147.47 50.7986 147.294 50.5746 147.107L50.2866 146.875C50.1959 146.801 50.1559 146.702 50.1666 146.579C50.2466 145.689 50.7426 145.243 51.6546 145.243C52.0866 145.243 52.2093 145.049 52.0226 144.659C51.7933 144.185 51.9319 143.969 52.4386 144.011C52.9186 144.054 52.9373 143.902 52.4946 143.555C51.9986 143.166 51.7186 142.643 51.6546 141.987C51.6489 141.933 51.6574 141.879 51.6792 141.829C51.7011 141.779 51.7355 141.736 51.7792 141.704C51.8228 141.672 51.8741 141.651 51.928 141.645C51.982 141.638 52.0366 141.646 52.0866 141.667L53.1186 142.107Z" fill="#FCC36A"/>
<path d="M125.782 147.859C125.958 147.867 126.13 147.804 126.26 147.685C126.39 147.565 126.467 147.399 126.474 147.223C126.482 147.047 126.419 146.875 126.3 146.746C126.18 146.616 126.014 146.539 125.838 146.531L124.334 146.355C124.255 146.345 124.178 146.32 124.109 146.28C124.04 146.24 123.979 146.186 123.931 146.123C123.883 146.059 123.849 145.987 123.83 145.91C123.812 145.833 123.809 145.753 123.822 145.675L123.966 144.827C124.02 144.539 124.193 144.403 124.486 144.419C125.761 144.489 126.585 144.651 126.958 144.907C133.47 149.323 122.374 154.795 122.262 149.859C122.26 149.733 122.284 149.608 122.334 149.492C122.384 149.376 122.457 149.272 122.55 149.187C123.457 148.345 124.534 147.902 125.782 147.859Z" fill="#F98759"/>
<path d="M179.126 147.308C179.377 147.158 179.841 147.169 180.518 147.34C176.63 157.484 171.35 163.18 162.014 168.42C152.766 172.644 143.23 175.132 133.406 175.884C133.55 175.814 133.51 175.58 133.286 175.18C144.987 173.574 155.939 170.081 166.142 164.7C166.377 164.582 166.547 164.404 166.654 164.164C166.942 163.534 167.083 162.988 167.078 162.524C170.699 161.02 173.518 158.51 175.534 154.996C177.475 152.836 178.673 150.273 179.126 147.308Z" fill="#FCECDE"/>
<path d="M180.518 147.339L190.678 155.515C191.078 155.841 191.134 156.219 190.846 156.651C189.534 158.635 184.638 158.659 182.59 158.619C182.465 158.618 182.342 158.65 182.235 158.713C182.127 158.777 182.04 158.868 181.982 158.978C181.923 159.088 181.897 159.211 181.906 159.334C181.914 159.457 181.957 159.576 182.03 159.675C185.422 164.355 175.95 164.155 173.926 164.243C173.643 164.254 173.553 164.39 173.654 164.651L174.422 166.675C174.513 166.914 174.551 167.17 174.533 167.425C174.516 167.68 174.442 167.928 174.319 168.152C174.196 168.375 174.025 168.57 173.819 168.721C173.613 168.872 173.377 168.977 173.126 169.027C169.462 169.769 165.758 169.566 162.014 168.419C171.35 163.179 176.63 157.483 180.518 147.339Z" fill="#60080C"/>
<path d="M74.3423 156.531C77.9103 161.131 82.5503 164.947 87.6623 167.763C84.2436 169.033 80.9103 169.39 77.6623 168.835C77.2676 166.745 77.505 165.323 78.3743 164.571C78.5183 164.449 78.5236 164.321 78.3903 164.187L73.5343 159.547C73.3878 159.406 73.2828 159.232 73.2303 159.043L71.5503 153.395L70.0623 149.243C69.9503 148.934 69.7423 148.846 69.4383 148.979L67.1743 149.979L69.6703 148.099C69.9317 147.897 70.137 147.945 70.2863 148.243L74.3423 156.531Z" fill="#2D1920"/>
<path d="M71.5504 153.395L69.4544 156.899C69.305 157.145 69.0864 157.281 68.7984 157.307C67.7264 157.414 67.3237 158.094 67.5904 159.347L60.3584 158.347C60.1712 158.32 59.9957 158.24 59.8523 158.116C59.7088 157.993 59.6033 157.831 59.548 157.65C59.4928 157.469 59.4899 157.276 59.5399 157.094C59.5899 156.912 59.6906 156.747 59.8304 156.619L67.1744 149.979L69.4384 148.979C69.7424 148.846 69.9504 148.934 70.0624 149.243L71.5504 153.395Z" fill="#891814"/>
<path d="M171.222 152.46L175.534 154.996C173.518 158.51 170.699 161.02 167.078 162.524C161.822 163.252 153.83 163.116 149.35 159.46C145.35 154.716 151.518 152.468 155.238 151.42C160.657 150.39 165.985 150.737 171.222 152.46Z" fill="#EF7758"/>
<path d="M87.6223 151.131C91.4863 150.835 106.838 153.691 98.7343 160.067C97.081 161.177 94.4543 162.022 90.8543 162.603C87.3663 163.163 84.1903 162.897 81.3263 161.803C79.1023 160.438 77.1423 158.486 75.4463 155.947V155.635C77.3103 151.995 84.1103 151.131 87.6223 151.131Z" fill="#F98759"/>
<path d="M127.062 158.627C123.614 159.267 117.318 158.195 115.75 154.235C115.521 153.67 115.633 153.59 116.086 153.995C121.198 158.603 129.71 159.107 134.038 153.107C134.134 152.974 134.22 152.979 134.294 153.123L134.422 153.355C134.427 153.365 134.43 153.377 134.43 153.389C134.43 153.402 134.427 153.415 134.422 153.427C133.121 156.233 130.668 157.966 127.062 158.627Z" fill="#490F0F"/>
<path d="M71.5504 153.395L73.2304 159.043C73.2829 159.232 73.3879 159.406 73.5345 159.547L78.3904 164.187C78.5238 164.321 78.5184 164.449 78.3744 164.571C77.5051 165.323 77.2678 166.745 77.6624 168.835C75.8811 168.595 75.4918 167.017 76.4944 164.099C76.4989 164.083 76.4993 164.066 76.4958 164.05C76.4923 164.033 76.4849 164.018 76.4744 164.006C76.4639 163.994 76.4506 163.985 76.4358 163.981C76.4211 163.976 76.4055 163.975 76.3904 163.979C73.4304 164.539 70.5531 164.283 67.7584 163.211C67.4971 163.11 67.3238 162.923 67.2384 162.651C66.9611 161.729 67.0784 160.627 67.5904 159.347C67.3238 158.094 67.7264 157.414 68.7984 157.307C69.0864 157.281 69.3051 157.145 69.4544 156.899L71.5504 153.395Z" fill="#60080C"/>
<path d="M75.4463 155.948C77.1423 158.486 79.1023 160.438 81.3263 161.804C84.0943 165.348 86.5743 165.556 90.1343 167.204C98.1076 170.894 106.684 173.492 115.862 174.996C105.99 174.649 96.5903 172.238 87.6623 167.764C82.5503 164.948 77.9103 161.132 74.3423 156.532L75.4463 155.948Z" fill="#FCECDE"/>
<path d="M149.35 159.459C153.83 163.115 161.822 163.251 167.078 162.523C167.084 162.987 166.942 163.534 166.654 164.163C166.548 164.403 166.377 164.582 166.142 164.699C155.94 170.081 144.988 173.574 133.286 175.179C128.865 175.713 124.236 175.75 119.398 175.291L115.862 174.995C106.684 173.491 98.1075 170.894 90.1342 167.203C86.5742 165.555 84.0942 165.347 81.3262 161.803C84.1902 162.897 87.3662 163.163 90.8542 162.603C94.4542 162.022 97.0808 161.177 98.7342 160.067C102.564 163.209 106.47 165.259 110.454 166.219C111.697 166.518 112.694 166.785 113.446 167.019C114.854 167.451 125.502 168.987 125.87 167.795C125.887 167.741 125.92 167.693 125.966 167.661C126.011 167.629 126.065 167.614 126.118 167.619C133.07 168.123 136.286 166.707 142.526 163.115C144.894 161.747 147.438 162.059 149.35 159.459Z" fill="#FDAD7B"/>
<path d="M119.398 175.292C124.235 175.75 128.864 175.713 133.286 175.18C133.51 175.58 133.55 175.814 133.406 175.884C133.043 179.532 133.403 183.062 134.486 186.476C134.752 187.249 134.934 188.081 135.03 188.972C135.126 189.846 134.961 190.652 134.534 191.388C130.174 198.868 115.822 194.812 119.206 187.124L119.398 175.292Z" fill="#EF7758"/>
<path d="M115.246 187.387C114.675 187.409 114.281 187.603 114.062 187.971C99.966 190.019 93.47 201.443 90.518 214.227C89.67 217.891 88.8513 220.622 88.062 222.419C88.614 206.443 94.974 186.435 114.486 186.339C114.606 186.339 114.724 186.369 114.829 186.427C114.934 186.484 115.022 186.567 115.086 186.667C115.23 186.902 115.283 187.142 115.246 187.387Z" fill="#FCECDE"/>
<path d="M134.486 186.475C135.745 186.401 136.779 186.531 137.59 186.867L140.39 187.779C139.409 187.913 138.883 188.315 138.814 188.987C138.793 189.185 138.747 189.374 138.678 189.555C136.254 196.091 129.886 199.899 123.342 197.467C119.23 195.939 116.054 191.899 114.062 187.971C114.281 187.603 114.675 187.409 115.246 187.387L119.206 187.123C115.822 194.811 130.174 198.867 134.534 191.387C134.961 190.651 135.126 189.846 135.03 188.971C134.934 188.081 134.753 187.249 134.486 186.475Z" fill="#523D38"/>
<path d="M164.51 222.731C163.286 210.251 157.702 194.467 145.406 189.147L140.39 187.779L137.59 186.867C137.63 185.315 148.254 189.115 149.254 189.691C160.358 196.051 164.318 209.875 165.222 221.955C165.244 222.243 165.124 222.449 164.862 222.571L164.51 222.731Z" fill="#FCECDE"/>
<path d="M140.39 187.78L145.406 189.148C141.385 197.98 135.249 203.905 126.998 206.924C118.518 204.278 111.102 200.292 104.75 194.964C104.51 194.761 104.289 194.78 104.086 195.02C101.046 198.62 99.1341 203.017 98.3501 208.212L97.4701 207.764C97.2301 207.646 97.0914 207.718 97.0541 207.98C95.9288 215.745 95.2914 223.564 95.1421 231.436L88.0381 229.012L88.0621 222.42C88.8514 220.622 89.6701 217.892 90.5181 214.228C93.4701 201.444 99.9661 190.02 114.062 187.972C116.054 191.9 119.23 195.94 123.342 197.468C129.886 199.9 136.254 196.092 138.678 189.556C138.747 189.374 138.793 189.185 138.814 188.988C138.883 188.316 139.409 187.913 140.39 187.78Z" fill="#A2A570"/>
<path d="M145.406 189.148C157.702 194.468 163.286 210.252 164.51 222.732C164.622 222.401 164.686 222.561 164.702 223.212L163.894 223.004C163.606 222.934 163.358 223.004 163.15 223.212L161.022 225.348C160.946 225.421 160.852 225.473 160.749 225.498C160.646 225.522 160.539 225.518 160.439 225.486C160.339 225.453 160.25 225.394 160.182 225.315C160.114 225.236 160.07 225.139 160.054 225.036L159.342 220.564C159.321 220.435 159.262 220.316 159.172 220.223C159.081 220.13 158.965 220.067 158.838 220.044C157.995 219.894 157.529 219.489 157.438 218.828L155.502 207.58C155.499 207.558 155.487 207.537 155.469 207.522C155.451 207.507 155.428 207.499 155.406 207.5C155.384 207.501 155.364 207.511 155.35 207.527C155.337 207.544 155.331 207.565 155.334 207.588C155.169 212.718 155.054 217.809 154.99 222.86C154.942 226.289 154.606 229.596 153.982 232.78C153.939 233.007 153.83 233.217 153.667 233.382C153.505 233.548 153.297 233.661 153.07 233.708L147.262 234.94L136.078 236.244C135.971 228.996 134.563 221.852 131.854 214.812C130.553 211.43 128.934 208.801 126.998 206.924C135.249 203.905 141.385 197.98 145.406 189.148Z" fill="#B3AB69"/>
<path d="M126.998 206.923C128.934 208.801 130.553 211.43 131.854 214.811C134.563 221.851 135.971 228.995 136.078 236.243C123.625 237.267 111.387 236.201 99.3661 233.043C98.8221 232.899 98.6701 232.907 98.4301 232.163L98.3501 208.211C99.1341 203.017 101.046 198.619 104.086 195.019C104.289 194.779 104.51 194.761 104.75 194.963C111.102 200.291 118.518 204.278 126.998 206.923Z" fill="#FDDCAC"/>
<path d="M157.438 218.827L158.094 231.435C157.364 231.99 156.548 232.313 155.646 232.403C155.39 232.43 155.185 232.547 155.03 232.755C154.369 233.635 153.39 234.267 152.094 234.651C150.212 235.217 148.601 235.313 147.262 234.939L153.07 233.707C153.297 233.661 153.505 233.547 153.667 233.382C153.83 233.217 153.939 233.007 153.982 232.779C154.606 229.595 154.942 226.289 154.99 222.859C155.054 217.809 155.169 212.718 155.334 207.587C155.331 207.565 155.337 207.543 155.35 207.527C155.364 207.511 155.384 207.501 155.406 207.5C155.428 207.499 155.451 207.506 155.469 207.521C155.487 207.536 155.499 207.557 155.502 207.579L157.438 218.827Z" fill="#182021"/>
<path d="M98.3499 208.212L98.4299 232.164C97.7046 232.724 96.8779 232.756 95.9499 232.26C95.1552 232.228 94.8859 231.953 95.1419 231.436C95.2912 223.564 95.9286 215.745 97.0539 207.98C97.0912 207.718 97.2299 207.646 97.4699 207.764L98.3499 208.212Z" fill="#2D362F"/>
<path d="M157.438 218.827C157.529 219.489 157.996 219.894 158.838 220.043C158.965 220.067 159.082 220.129 159.172 220.222C159.262 220.315 159.322 220.435 159.342 220.563L160.054 225.035C160.07 225.139 160.115 225.235 160.183 225.315C160.25 225.394 160.339 225.453 160.439 225.485C160.539 225.517 160.647 225.522 160.749 225.497C160.852 225.473 160.947 225.421 161.022 225.347L163.15 223.211C163.358 223.003 163.606 222.934 163.894 223.003L164.702 223.211L165.086 229.931C164.286 230.179 158.094 232.835 158.094 231.435L157.438 218.827Z" fill="#645A4F"/>
</svg>
