<svg width="256" height="256" viewBox="0 0 256 256" fill="none" xmlns="http://www.w3.org/2000/svg">
<path d="M28.647 167.318C29.831 170.284 31.6256 172.62 34.031 174.326" stroke="#8F848D" stroke-width="2"/>
<path d="M34.0302 174.326L33.5502 175.11C33.4115 175.329 33.4008 175.556 33.5182 175.79C41.0008 190.51 51.4835 202.63 64.9661 212.15C66.8915 213.51 70.9262 215.998 77.0702 219.614" stroke="#EAF0F3" stroke-width="2"/>
<path d="M77.0703 219.614C77.561 220.382 78.185 220.9 78.9423 221.166" stroke="#FDDCA7" stroke-width="2"/>
<path d="M78.9421 221.166C79.5768 221.737 79.9341 222.302 80.0141 222.862C80.0461 223.118 80.1581 223.329 80.3501 223.494C106.174 245.798 144.262 246.414 171.598 226.958C173.39 225.686 175.046 223.798 176.742 222.246C176.792 222.2 176.827 222.14 176.844 222.074C176.86 222.009 176.857 221.939 176.835 221.875C176.813 221.811 176.773 221.754 176.72 221.712C176.666 221.67 176.602 221.645 176.534 221.638C176.342 221.622 176.283 221.558 176.358 221.446" stroke="#EAF0F3" stroke-width="2"/>
<path d="M176.359 221.446L178.543 220.022" stroke="#FDD6A2" stroke-width="2"/>
<path d="M178.542 220.022C193.86 212.097 206.729 200.702 217.15 185.838C219.977 181.806 222.201 177.742 223.822 173.646C223.918 173.401 223.854 173.217 223.63 173.094C223.278 172.902 223.089 172.657 223.062 172.358" stroke="#EAF0F3" stroke-width="2"/>
<path d="M223.062 172.358C227.788 167.244 228.684 161.542 225.75 155.254C225.633 155.014 225.708 154.873 225.974 154.83C240.782 152.59 244.726 133.398 232.43 125.198C232.376 125.163 232.331 125.114 232.3 125.057C232.269 124.999 232.253 124.935 232.253 124.87C232.253 124.805 232.269 124.741 232.3 124.684C232.331 124.627 232.376 124.578 232.43 124.542C242.302 117.998 241.054 103.542 230.766 98.1503C230.51 98.0116 230.47 97.8303 230.646 97.6063C238.67 87.2943 232.27 74.7663 219.27 73.8383" stroke="#8F848D" stroke-width="2"/>
<path d="M219.27 73.8384C221.233 70.8517 221.889 67.6544 221.238 64.2464C219.446 54.8864 210.478 50.1344 201.19 52.1504C200.918 52.209 200.766 52.097 200.734 51.8144C199.982 44.2784 196.318 38.657 189.742 34.9504" stroke="#968990" stroke-width="2"/>
<path d="M189.742 34.9503C184.212 31.809 178.657 31.6277 173.078 34.4063C173.018 34.4364 172.952 34.4532 172.885 34.4555C172.817 34.4578 172.75 34.4456 172.689 34.4197C172.627 34.3938 172.572 34.3548 172.527 34.3055C172.483 34.2562 172.45 34.1978 172.43 34.1344C168.278 21.2383 153.182 17.5423 143.598 27.3423C143.401 27.545 143.246 27.5157 143.134 27.2543C137.182 12.7503 118.318 12.2143 110.902 25.9423C110.764 26.2037 110.585 26.2357 110.366 26.0383C100.142 16.7183 84.1024 21.0303 81.9024 35.2623C81.8907 35.3376 81.8612 35.4091 81.8164 35.4708C81.7716 35.5324 81.7128 35.5825 81.6448 35.6169C81.5767 35.6513 81.5015 35.6691 81.4253 35.6686C81.349 35.6682 81.274 35.6495 81.2064 35.6143C68.4704 28.8943 55.7184 37.3743 55.4304 51.6783C55.4251 51.9823 55.2785 52.089 54.9905 51.9983C41.2465 47.6943 30.4464 59.9664 35.1264 73.3104C35.2331 73.6037 35.1291 73.7637 34.8144 73.7903C24.1824 74.6703 16.7984 86.1503 23.1824 95.5823C23.5558 96.1317 23.9078 96.7023 24.2385 97.2943C24.2978 97.404 24.3143 97.5316 24.2846 97.6517C24.255 97.7718 24.1814 97.8755 24.0784 97.9423C14.1504 104.502 13.3904 117.07 22.8624 124.798C22.9132 124.841 22.9537 124.894 22.981 124.954C23.0083 125.014 23.0217 125.08 23.0202 125.146C23.0187 125.212 23.0022 125.277 22.9721 125.336C22.9421 125.395 22.8991 125.446 22.8465 125.486C11.2385 134.422 14.9985 151.766 29.5425 154.694C29.8305 154.753 29.8998 154.91 29.7505 155.166C27.4358 159.161 27.0678 163.212 28.6465 167.318" stroke="#A09496" stroke-width="2"/>
<path d="M189.742 34.9504C189.417 35.1157 189.276 35.3957 189.318 35.7904C189.345 36.0464 189.476 36.2277 189.71 36.3344C190.073 36.5051 190.209 36.793 190.118 37.1984C187.214 50.6544 175.126 62.2144 163.91 69.3744C151.214 77.4944 139.734 80.9264 126.926 86.0784C118.702 89.3824 115.278 95.9744 105.838 95.9824C105.722 95.9822 105.608 95.9533 105.506 95.8985C105.404 95.8436 105.317 95.7643 105.253 95.6678C105.189 95.5712 105.15 95.4603 105.139 95.345C105.128 95.2296 105.145 95.1133 105.19 95.0064C105.318 94.7077 105.566 94.505 105.934 94.3984C106.109 94.3478 106.266 94.248 106.386 94.1108C106.507 93.9736 106.585 93.8048 106.612 93.6245C106.639 93.4442 106.613 93.2599 106.539 93.0936C106.464 92.9273 106.343 92.786 106.19 92.6864L99.2302 88.1184C98.9967 87.9665 98.7134 87.9116 98.4412 87.9655C98.1689 88.0193 97.9295 88.1776 97.7742 88.4064C94.2462 93.5184 83.7182 102.366 77.0782 97.5824C76.9982 97.5237 76.9342 97.5397 76.8862 97.6304L76.6062 98.1664" stroke="#382029" stroke-width="2"/>
<path d="M76.607 98.1665L76.1511 98.0385C76.0178 98.0042 75.8782 98.0055 75.7461 98.042C75.6141 98.0785 75.4944 98.149 75.3991 98.2465C73.6337 100.028 71.6151 101.441 69.3431 102.486C69.0657 102.614 68.9217 102.83 68.911 103.134C68.671 108.878 66.903 111.254 64.303 115.366C62.559 118.126 61.143 121.766 61.119 124.598C61.0604 132.406 61.455 140.1 62.303 147.678C62.4097 148.633 62.2444 148.681 61.807 147.822C58.831 141.929 56.4817 135.785 54.759 129.39C54.631 128.918 54.3335 128.509 53.9233 128.242C53.5131 127.975 53.0189 127.868 52.5351 127.942L48.0391 128.638" stroke="#8B5949" stroke-width="2"/>
<path d="M48.039 128.638C44.6683 130.622 42.5696 133.87 41.743 138.382C40.991 142.542 43.1669 148.27 43.6709 152.446C44.5936 160.046 45.7296 167.518 47.079 174.862C47.1087 175.025 47.105 175.193 47.0681 175.354C47.0313 175.515 46.962 175.667 46.8646 175.801C46.7673 175.934 46.6438 176.046 46.5018 176.129C46.3598 176.213 46.2023 176.266 46.039 176.286C41.0256 176.916 36.7856 175.758 33.3189 172.814C31.9989 171.702 31.879 170.126 30.743 168.998C30.0976 168.358 29.399 167.798 28.647 167.318" stroke="#311B26" stroke-width="2"/>
<path d="M219.271 73.8383C214.407 83.7849 209.548 92.0223 204.695 98.5503C202.671 101.278 203.527 101.478 203.535 104.262C203.572 111.366 203.191 118.452 202.391 125.518C202.279 126.518 201.855 127.198 201.711 128.19" stroke="#271020" stroke-width="2"/>
<path d="M201.71 128.19C201.684 128.265 201.614 128.348 201.502 128.438C201.353 128.55 201.265 128.7 201.238 128.886C200.278 135.318 198.286 141.39 195.262 147.102" stroke="#5D2C2C" stroke-width="2"/>
<path d="M195.262 147.103C195.35 135.487 198.43 123.431 192.11 114.599C189.326 110.719 187.558 107.519 187.478 102.599C187.473 102.263 187.302 102.108 186.966 102.135C180.524 102.609 175.249 100.447 171.142 95.6465C170.94 95.4119 170.737 95.4065 170.534 95.6305C164.862 101.839 153.678 103.295 148.206 95.8305C148.052 95.6172 147.878 95.6038 147.686 95.7905C141.798 101.497 135.238 102.657 128.006 99.2705" stroke="#733E37" stroke-width="2"/>
<path d="M128.006 99.2704L123.798 95.4545C123.755 95.4157 123.705 95.3865 123.65 95.3687C123.595 95.3508 123.537 95.3447 123.479 95.3507C123.421 95.3567 123.365 95.3747 123.313 95.4036C123.262 95.4325 123.218 95.4716 123.182 95.5184C116.598 104.366 105.806 103.774 99.0062 95.7504C98.97 95.7076 98.925 95.673 98.8742 95.649C98.8235 95.625 98.7682 95.6122 98.7121 95.6114C98.6559 95.6107 98.6003 95.622 98.5489 95.6446C98.4975 95.6672 98.4516 95.7006 98.4142 95.7424C91.8862 103.172 84.6169 103.98 76.6062 98.1664" stroke="#78443B" stroke-width="2"/>
<path d="M128.006 99.2703C127.339 99.553 126.83 100.033 126.478 100.71" stroke="#BD6D4F" stroke-width="2"/>
<path d="M126.479 100.71C125.604 99.8304 124.588 99.457 123.431 99.5904C123.163 99.6215 122.917 99.753 122.743 99.9584C120.86 102.145 118.615 103.74 116.007 104.742C112.999 105.902 106.159 105.894 102.967 104.958C98.9666 103.785 95.0039 104.073 91.0786 105.822C90.8119 105.94 90.5506 105.934 90.2946 105.806C88.7666 105.046 87.4386 105.374 86.0866 104.982C82.1266 103.814 79.1026 102.806 76.5026 99.8144C76.4189 99.7183 76.3606 99.6029 76.3327 99.4786C76.3047 99.3543 76.3081 99.225 76.3426 99.1024L76.6066 98.1664" stroke="#CB7D5B" stroke-width="2"/>
<path d="M109.166 193.974C108.798 194.833 108.3 195.425 107.67 195.75" stroke="#6C3934" stroke-width="2"/>
<path d="M107.67 195.75L102.078 197.294" stroke="#8F6A3B" stroke-width="2"/>
<path d="M102.079 197.295C97.1454 198.687 92.7374 200.583 88.8547 202.983" stroke="#8F6337" stroke-width="2"/>
<path d="M88.8545 202.982C85.9905 201.574 84.2972 199.614 83.7745 197.102C83.7594 197.026 83.7246 196.955 83.6736 196.896C83.6226 196.837 83.5571 196.792 83.4836 196.766C83.4101 196.74 83.3311 196.734 83.2544 196.748C83.1778 196.762 83.1062 196.796 83.0465 196.846C75.7825 202.878 65.4945 199.086 64.7505 189.35C64.7292 189.084 64.5932 189.004 64.3425 189.11C57.1265 192.177 51.7772 190.614 48.2945 184.422C47.1665 182.422 47.2065 179.686 47.0785 177.398C47.0678 177.121 46.9239 177.006 46.6465 177.054C42.0279 177.849 37.8225 176.94 34.0305 174.326" stroke="#7C7783" stroke-width="2"/>
<path d="M133.383 104.23L132.495 149.022" stroke="#CB7D5B" stroke-width="2"/>
<path d="M132.495 149.022C125.167 147.574 116.447 155.67 126.303 161.486" stroke="#C67757" stroke-width="2"/>
<path d="M126.302 161.486C127.684 161.961 128.881 162.74 129.894 163.822C131.03 165.022 135.302 169.23 138.11 169.374C138.382 169.39 138.412 169.481 138.198 169.646C137.745 170.009 137.673 170.414 137.982 170.862" stroke="#CB7D5B" stroke-width="2"/>
<path d="M137.983 170.862C128.911 171.726 118.359 171.718 109.791 168.398" stroke="#E9C2B0" stroke-width="2"/>
<path d="M109.791 168.398C109.524 167.385 108.889 166.825 107.887 166.718C107.685 166.697 107.48 166.723 107.29 166.793C107.099 166.864 106.928 166.978 106.788 167.126C106.649 167.273 106.546 167.452 106.486 167.646C106.427 167.84 106.413 168.046 106.447 168.246C107.407 173.958 112.903 178.222 117.967 180.126C125.236 182.857 132.532 182.923 139.855 180.326" stroke="#8F5242" stroke-width="2"/>
<path d="M139.855 180.326C140.884 183.804 142.78 186.868 145.543 189.518C145.74 189.71 145.86 189.94 145.903 190.206C146.073 191.38 145.852 192.47 145.239 193.478C145.111 193.692 144.924 193.825 144.679 193.878C144.337 193.953 144.143 194.156 144.095 194.486" stroke="#CB7D5B" stroke-width="2"/>
<path d="M144.095 194.486C132.953 195.692 121.801 195.545 110.639 194.046C110.372 194.009 110.108 194.033 109.847 194.118C109.404 194.257 109.177 194.209 109.167 193.974" stroke="#C67757" stroke-width="2"/>
<path d="M109.167 193.974C89.5587 189.07 69.5268 181.374 62.7508 160.022C62.6601 159.74 62.6601 159.46 62.7508 159.182L62.8868 158.782C62.9934 158.457 62.8788 158.321 62.5428 158.374C50.5748 160.238 42.0548 150.934 42.7348 139.414C42.9854 135.212 44.7534 131.62 48.0388 128.638" stroke="#7A4940" stroke-width="2"/>
<path d="M195.263 147.102L193.687 158.398" stroke="#A25640" stroke-width="2"/>
<path d="M149.775 194.19C149.535 193.721 149.423 193.262 149.439 192.814C149.444 192.537 149.575 192.345 149.831 192.238C157.367 189.078 164.623 182.798 165.775 174.23C165.919 173.179 165.802 171.441 165.423 169.014C164.628 163.873 165.476 158.985 167.967 154.35C168.719 152.942 170.223 151.414 170.983 149.55C171.122 149.209 171.015 149.089 170.663 149.19C170.002 149.377 169.524 149.236 169.231 148.766C169.098 148.548 168.903 148.446 168.647 148.462C168.322 148.484 168.02 148.433 167.743 148.31" stroke="#BD6D4F" stroke-width="2"/>
<path d="M167.742 148.31C171.033 146.209 172.99 142.79 173.614 138.054" stroke="#A25640" stroke-width="2"/>
<path d="M173.614 138.054C174.905 139.489 176.017 140.26 176.95 140.366C177.313 140.409 177.454 140.252 177.374 139.894C175.998 133.569 172.233 129.182 166.078 126.734" stroke="#63372B" stroke-width="2"/>
<path d="M166.078 126.734L166.686 123.358C166.734 123.091 166.689 122.841 166.55 122.606C164.849 119.662 165.193 117.142 167.582 115.046" stroke="#BD6D4F" stroke-width="2"/>
<path d="M167.583 115.046C170.788 116.348 173.772 118.132 176.535 120.398C176.622 120.468 176.73 120.507 176.841 120.51C176.953 120.512 177.062 120.479 177.153 120.413C177.243 120.348 177.31 120.255 177.343 120.148C177.376 120.042 177.373 119.927 177.335 119.822C175.127 114.158 171.247 109.862 165.695 106.934" stroke="#733E37" stroke-width="2"/>
<path d="M165.695 106.934L161.839 103.934C161.673 103.806 161.487 103.75 161.279 103.766L160.711 103.806C160.438 103.832 160.165 103.755 159.943 103.59C158.785 102.737 157.591 102.63 156.359 103.27C156.092 103.409 155.809 103.449 155.511 103.39C153.879 103.076 152.3 102.577 150.775 101.894C149.695 101.414 148.375 99.6142 146.967 100.486C142.375 103.308 137.847 104.556 133.383 104.23" stroke="#BD6D4F" stroke-width="2"/>
<path d="M133.382 104.23C130.982 103.451 128.681 102.278 126.478 100.71" stroke="#C67757" stroke-width="2"/>
<path d="M223.062 172.358C219.313 175.857 214.889 177.476 209.79 177.214C209.523 177.198 209.379 177.326 209.358 177.598C209.158 179.878 209.214 182.318 208.238 184.294C205.078 190.71 197.302 192.374 191.222 188.83C190.913 188.649 190.747 188.737 190.726 189.094C190.126 198.798 180.662 202.606 173.006 197.286C172.954 197.25 172.896 197.225 172.834 197.212C172.773 197.199 172.709 197.198 172.647 197.21C172.585 197.222 172.526 197.246 172.474 197.281C172.422 197.316 172.377 197.362 172.342 197.414C170.558 200.126 169.774 201.814 166.078 203.398" stroke="#7C7783" stroke-width="2"/>
<path d="M166.079 203.398C163.61 201.868 161.276 200.617 159.079 199.646C156.764 198.628 153.708 197.63 149.911 196.654" stroke="#8E5D32" stroke-width="2"/>
<path d="M149.91 196.654L145.142 195.23" stroke="#8F6A3B" stroke-width="2"/>
<path d="M145.142 195.23C144.79 194.916 144.657 194.734 144.742 194.686" stroke="#6C3934" stroke-width="2"/>
<path d="M144.742 194.686L149.774 194.19" stroke="#713F38" stroke-width="2"/>
<path d="M149.775 194.19C169.519 190.59 189.279 179.59 193.687 158.398" stroke="#6C3934" stroke-width="2"/>
<path d="M193.687 158.399C209.439 162.095 220.391 141.711 209.687 130.495C207.423 128.135 204.815 127.519 201.711 128.191" stroke="#562829" stroke-width="2"/>
<path d="M149.91 196.654C149.286 210.574 145.734 220.654 130.302 223.302" stroke="#FDBC4F" stroke-width="2"/>
<path d="M130.302 223.303C119.846 225.039 109.006 218.959 105.502 208.999C105.486 208.951 105.059 206.969 104.222 203.055C103.774 200.969 103.059 199.049 102.078 197.295" stroke="#FEC154" stroke-width="2"/>
<path d="M88.8543 202.982C82.993 207.526 79.065 213.07 77.0703 219.614" stroke="#EACF9C" stroke-width="2"/>
<path d="M145.142 195.23C144.782 195.11 144.622 195.278 144.63 195.63C144.99 221.718 109.646 223.406 107.67 195.75" stroke="#DB9852" stroke-width="2"/>
<path d="M126.158 234.302C109.486 234.222 93.2861 229.63 78.9421 221.166" stroke="#EACF9C" stroke-width="2"/>
<path d="M165.695 106.935C161.143 105.791 152.135 104.351 149.431 109.415C149.312 109.632 149.272 109.883 149.319 110.127C149.644 111.935 150.655 112.951 152.351 113.175C156.695 113.751 162.391 112.967 167.583 115.047" stroke="#78443B" stroke-width="2"/>
<path d="M166.078 126.734C159.142 125.23 151.334 128.054 150.95 136.166C150.924 136.668 151.361 136.758 152.262 136.438" stroke="#683D2F" stroke-width="2"/>
<path d="M152.263 136.438C151.58 143.025 153.788 147.294 158.887 149.246C161.815 150.366 165.063 149.75 167.743 148.31" stroke="#A75C44" stroke-width="2"/>
<path d="M144.742 194.686L144.094 194.486" stroke="#BD6D4F" stroke-width="2"/>
<path d="M139.855 180.327C144.983 178.303 150.223 174.375 151.631 168.783C151.697 168.519 151.683 168.242 151.589 167.986C151.495 167.731 151.327 167.51 151.106 167.352C150.885 167.194 150.621 167.106 150.35 167.1C150.078 167.094 149.811 167.17 149.583 167.319C149.033 167.671 148.513 168.22 148.023 168.967" stroke="#86483B" stroke-width="2"/>
<path d="M148.023 168.966C144.636 170.113 141.29 170.745 137.983 170.862" stroke="#E0B8A8" stroke-width="2"/>
<path d="M126.302 161.486C126.521 161.198 126.662 161.137 126.726 161.302" stroke="#BD6D4F" stroke-width="2"/>
<path d="M126.727 161.302C129.617 162.065 132.735 161.614 136.079 159.95C137.641 159.166 138.401 158.022 138.359 156.518" stroke="#DA8A65" stroke-width="2"/>
<path d="M138.359 156.518C139.217 153.404 137.263 150.905 132.495 149.022" stroke="#BD6D4F" stroke-width="2"/>
<path d="M109.791 168.398C116.055 181.91 141.983 182.59 148.023 168.966" stroke="#A38D90" stroke-width="2"/>
<path d="M138.359 156.518C134.007 151.998 127.151 153.078 124.239 158.262C124.17 158.384 124.143 158.525 124.164 158.664C124.184 158.803 124.25 158.932 124.351 159.03L126.727 161.302" stroke="#D58461" stroke-width="2"/>
<path d="M173.615 138.054C172.628 136.022 171.649 134.622 170.679 133.854C169.937 133.268 169.129 132.932 168.255 132.846C168.106 132.829 167.956 132.862 167.828 132.941C167.701 133.019 167.603 133.139 167.552 133.28C167.502 133.421 167.5 133.575 167.547 133.717C167.595 133.859 167.689 133.981 167.815 134.062C171.343 136.454 170.607 142.078 167.911 144.558C162.663 149.398 156.335 145.526 155.727 138.934C155.7 138.673 155.783 138.449 155.975 138.262C156.599 137.676 157.017 137.054 157.231 136.398" stroke="#4C261F" stroke-width="2"/>
<path d="M157.231 136.398C160.175 136.726 161.895 133.622 160.191 131.238C160.041 131.025 159.841 130.884 159.591 130.814C157.692 130.292 156.271 131.004 155.327 132.95" stroke="#858284" stroke-width="2"/>
<path d="M155.326 132.95C153.897 132.86 152.876 134.022 152.262 136.438" stroke="#4C261F" stroke-width="2"/>
<path d="M178.542 220.022C176.595 213.5 172.441 207.958 166.078 203.398" stroke="#EAC997" stroke-width="2"/>
<path d="M176.359 221.446C160.561 230.086 143.828 234.371 126.159 234.302" stroke="#EAC997" stroke-width="2"/>
<path d="M126.159 234.302C126.436 233.753 127.153 233.337 128.311 233.054C128.62 232.98 128.732 232.785 128.647 232.47C127.927 229.857 127.889 227.297 128.535 224.79C128.588 224.582 128.551 224.414 128.423 224.286C128.273 224.132 128.305 224.036 128.519 223.998C129.185 223.886 129.78 223.654 130.303 223.302" stroke="#FDB54B" stroke-width="2"/>
<path d="M157.231 136.398C155.807 135.854 155.172 134.705 155.327 132.95" stroke="#C4A199" stroke-width="2"/>
<path d="M105.398 107.311C103.905 106.372 102.289 105.833 100.55 105.695C90.7105 104.895 82.0305 110.479 78.9905 119.935C78.9381 120.099 78.9409 120.276 78.9983 120.439C79.0558 120.601 79.1647 120.741 79.3087 120.836C79.4526 120.931 79.6237 120.976 79.7958 120.965C79.968 120.954 80.1318 120.887 80.2624 120.775C87.8944 114.095 93.9184 113.527 103.862 113.127C107.158 112.991 108.334 109.151 105.398 107.311Z" stroke="#814E43" stroke-width="2"/>
<path d="M84.9023 136.774C85.073 140.401 85.7664 143.196 86.9824 145.158C90.1664 150.31 96.9184 151.382 101.846 148.134C105.516 145.718 107.033 141.87 106.398 136.59" stroke="#B0664B" stroke-width="2"/>
<path d="M106.398 136.59C107.182 135.433 107.286 134.249 106.71 133.038C104.118 127.526 98.8381 124.926 92.8701 126.062C85.9101 127.382 80.8541 133.35 78.7101 139.878C78.6913 139.936 78.6841 139.996 78.689 140.056C78.6938 140.116 78.7105 140.175 78.7382 140.228C78.7658 140.281 78.8038 140.327 78.8499 140.365C78.8959 140.403 78.949 140.43 79.0061 140.446C81.5741 141.206 83.51 138.71 84.902 136.774" stroke="#714736" stroke-width="2"/>
<path d="M106.399 136.59C105.919 135.782 101.375 130.166 100.423 131.526C100.2 131.841 100.109 132.231 100.169 132.613C100.228 132.995 100.434 133.339 100.743 133.574C107.223 138.494 102.319 148.022 94.6146 146.598C90.7532 145.884 88.7559 142.924 88.6226 137.718" stroke="#4C261F" stroke-width="2"/>
<path d="M88.6228 137.718C91.7908 138.31 93.7107 136.27 92.7107 133.174C91.5427 129.59 87.5187 132.318 86.8547 134.814" stroke="#858284" stroke-width="2"/>
<path d="M86.8543 134.814C85.8037 135.401 85.153 136.054 84.9023 136.774" stroke="#4C261F" stroke-width="2"/>
<path d="M88.6228 137.718C87.6361 137.062 87.0467 136.094 86.8547 134.814" stroke="#C4A199" stroke-width="2"/>
<path d="M74.5421 172.247C75.2087 173.18 76.15 173.748 77.366 173.951C77.658 173.998 77.9573 173.947 78.2177 173.807C78.478 173.667 78.6849 173.444 78.8061 173.175C78.9273 172.905 78.9561 172.603 78.8881 172.315C78.8202 172.027 78.6591 171.77 78.43 171.583C72.974 167.119 71.55 159.143 76.678 153.863C76.8926 153.643 77.1665 153.49 77.4672 153.422C77.7679 153.354 78.0827 153.374 78.374 153.479C80.086 154.103 84.742 153.967 84.654 151.263C84.6468 150.976 84.5636 150.698 84.413 150.456C84.2625 150.214 84.0501 150.017 83.7981 149.887C79.9794 147.865 75.974 147.023 71.782 147.359C67.182 147.735 67.0541 153.047 66.8941 156.495C66.5901 162.775 71.1581 167.535 74.5421 172.247Z" stroke="#E3946D" stroke-width="2"/>
<path d="M189.742 34.9503C189.417 35.1157 189.276 35.3957 189.318 35.7903C189.345 36.0463 189.476 36.2277 189.71 36.3344C190.073 36.505 190.209 36.793 190.118 37.1983C187.214 50.6543 175.126 62.2143 163.91 69.3743C151.214 77.4943 139.734 80.9263 126.926 86.0783C118.702 89.3823 115.278 95.9743 105.838 95.9824C105.723 95.9821 105.609 95.9533 105.506 95.8984C105.404 95.8435 105.317 95.7643 105.253 95.6677C105.189 95.5712 105.15 95.4603 105.139 95.3449C105.128 95.2295 105.146 95.1133 105.19 95.0063C105.318 94.7077 105.566 94.505 105.934 94.3983C106.11 94.3478 106.267 94.2479 106.387 94.1108C106.507 93.9736 106.585 93.8048 106.612 93.6245C106.639 93.4442 106.613 93.2599 106.539 93.0936C106.464 92.9273 106.343 92.7859 106.19 92.6863L99.2304 88.1183C98.9969 87.9665 98.7136 87.9116 98.4414 87.9654C98.1692 88.0193 97.9297 88.1776 97.7744 88.4063C94.2464 93.5183 83.7184 102.366 77.0784 97.5824C76.9984 97.5237 76.9345 97.5397 76.8865 97.6303L76.6064 98.1663L76.1505 98.0383C76.0172 98.0041 75.8775 98.0054 75.7455 98.0419C75.6135 98.0784 75.4938 98.1489 75.3985 98.2463C73.6331 100.028 71.6145 101.441 69.3425 102.486C69.0651 102.614 68.9211 102.83 68.9104 103.134C68.6704 108.878 66.9024 111.254 64.3024 115.366C62.5584 118.126 61.1424 121.766 61.1184 124.598C61.0598 132.406 61.4544 140.1 62.3024 147.678C62.4091 148.633 62.2438 148.681 61.8064 147.822C58.8304 141.929 56.4811 135.785 54.7584 129.39C54.6304 128.918 54.3329 128.509 53.9227 128.242C53.5125 127.975 53.0183 127.868 52.5345 127.942L48.0385 128.638C44.6678 130.622 42.5691 133.87 41.7425 138.382C40.9905 142.542 43.1664 148.27 43.6704 152.446C44.5931 160.046 45.7291 167.518 47.0784 174.862C47.1082 175.025 47.1045 175.193 47.0676 175.354C47.0308 175.515 46.9615 175.667 46.8641 175.801C46.7668 175.934 46.6433 176.046 46.5013 176.129C46.3593 176.213 46.2018 176.266 46.0385 176.286C41.0251 176.916 36.7851 175.758 33.3184 172.814C31.9984 171.702 31.8785 170.126 30.7425 168.998C30.0971 168.358 29.3985 167.798 28.6465 167.318C27.0678 163.212 27.4358 159.161 29.7505 155.166C29.8998 154.91 29.8305 154.753 29.5425 154.694C14.9985 151.766 11.2385 134.422 22.8465 125.486C22.8991 125.446 22.9421 125.395 22.9721 125.336C23.0022 125.277 23.0187 125.212 23.0202 125.146C23.0217 125.08 23.0083 125.014 22.981 124.954C22.9537 124.894 22.9132 124.841 22.8624 124.798C13.3904 117.07 14.1504 104.502 24.0784 97.9423C24.1814 97.8755 24.255 97.7718 24.2846 97.6517C24.3143 97.5316 24.2978 97.404 24.2385 97.2943C23.9078 96.7023 23.5558 96.1317 23.1824 95.5824C16.7984 86.1504 24.1824 74.6703 34.8144 73.7903C35.1291 73.7637 35.2331 73.6037 35.1264 73.3104C30.4464 59.9664 41.2465 47.6943 54.9905 51.9983C55.2785 52.089 55.4251 51.9823 55.4304 51.6783C55.7184 37.3743 68.4704 28.8943 81.2064 35.6143C81.274 35.6495 81.349 35.6682 81.4253 35.6686C81.5015 35.6691 81.5767 35.6513 81.6448 35.6169C81.7128 35.5825 81.7716 35.5324 81.8164 35.4708C81.8612 35.4091 81.8907 35.3376 81.9024 35.2623C84.1024 21.0303 100.142 16.7183 110.366 26.0383C110.585 26.2357 110.764 26.2037 110.902 25.9423C118.318 12.2143 137.182 12.7503 143.134 27.2543C143.246 27.5157 143.401 27.545 143.598 27.3423C153.182 17.5423 168.278 21.2383 172.43 34.1344C172.45 34.1978 172.483 34.2562 172.527 34.3055C172.572 34.3548 172.627 34.3938 172.689 34.4197C172.75 34.4456 172.817 34.4578 172.885 34.4555C172.952 34.4532 173.018 34.4364 173.078 34.4063C178.657 31.6277 184.212 31.809 189.742 34.9503Z" fill="#422B2F"/>
<path d="M189.742 34.9504C196.318 38.657 199.982 44.2784 200.734 51.8144C200.766 52.097 200.918 52.209 201.19 52.1504C210.478 50.1344 219.446 54.8864 221.238 64.2464C221.889 67.6544 221.233 70.8517 219.27 73.8384C214.406 83.785 209.548 92.0224 204.694 98.5504C202.67 101.278 203.526 101.478 203.534 104.262C203.572 111.366 203.19 118.452 202.39 125.518C202.278 126.518 201.854 127.198 201.71 128.19C201.684 128.265 201.614 128.348 201.502 128.438C201.353 128.55 201.265 128.7 201.238 128.886C200.278 135.318 198.286 141.39 195.262 147.102C195.35 135.486 198.43 123.43 192.11 114.598C189.326 110.718 187.558 107.518 187.478 102.598C187.473 102.262 187.302 102.108 186.966 102.134C180.524 102.609 175.249 100.446 171.142 95.6464C170.94 95.4117 170.737 95.4064 170.534 95.6304C164.862 101.838 153.678 103.294 148.206 95.8304C148.052 95.6171 147.878 95.6037 147.686 95.7904C141.798 101.497 135.238 102.657 128.006 99.2704L123.798 95.4544C123.755 95.4157 123.705 95.3865 123.65 95.3686C123.595 95.3507 123.537 95.3446 123.479 95.3506C123.421 95.3566 123.365 95.3747 123.313 95.4036C123.262 95.4324 123.218 95.4715 123.182 95.5184C116.598 104.366 105.806 103.774 99.0062 95.7504C98.97 95.7075 98.925 95.6729 98.8742 95.6489C98.8235 95.6249 98.7682 95.6121 98.7121 95.6114C98.6559 95.6106 98.6003 95.6219 98.5489 95.6445C98.4975 95.6671 98.4516 95.7005 98.4142 95.7424C91.8862 103.172 84.6169 103.98 76.6062 98.1664L76.8862 97.6304C76.9342 97.5397 76.9982 97.5237 77.0782 97.5824C83.7182 102.366 94.2462 93.5184 97.7742 88.4064C97.9295 88.1776 98.1689 88.0193 98.4412 87.9655C98.7134 87.9116 98.9967 87.9665 99.2302 88.1184L106.19 92.6864C106.343 92.786 106.464 92.9273 106.539 93.0936C106.613 93.2599 106.639 93.4442 106.612 93.6245C106.585 93.8048 106.507 93.9736 106.386 94.1108C106.266 94.248 106.109 94.3478 105.934 94.3984C105.566 94.505 105.318 94.7077 105.19 95.0064C105.145 95.1133 105.128 95.2296 105.139 95.345C105.15 95.4603 105.189 95.5712 105.253 95.6678C105.317 95.7643 105.404 95.8436 105.506 95.8984C105.608 95.9533 105.722 95.9822 105.838 95.9824C115.278 95.9744 118.702 89.3824 126.926 86.0784C139.734 80.9264 151.214 77.4944 163.91 69.3744C175.126 62.2144 187.214 50.6544 190.118 37.1984C190.209 36.793 190.073 36.5051 189.71 36.3344C189.476 36.2277 189.345 36.0464 189.318 35.7904C189.276 35.3957 189.417 35.1157 189.742 34.9504Z" fill="#2E1423"/>
<path d="M219.27 73.8383C232.27 74.7663 238.67 87.2943 230.646 97.6063C230.47 97.8303 230.51 98.0116 230.766 98.1503C241.054 103.542 242.302 117.998 232.43 124.542C232.376 124.578 232.331 124.627 232.3 124.684C232.269 124.741 232.253 124.805 232.253 124.87C232.253 124.935 232.269 124.999 232.3 125.057C232.331 125.114 232.376 125.163 232.43 125.198C244.726 133.398 240.782 152.59 225.974 154.83C225.708 154.873 225.633 155.014 225.75 155.254C228.684 161.542 227.788 167.244 223.062 172.358C219.313 175.857 214.889 177.476 209.79 177.214C209.524 177.198 209.38 177.326 209.358 177.598C209.158 179.878 209.214 182.318 208.238 184.294C205.078 190.71 197.302 192.374 191.222 188.83C190.913 188.649 190.748 188.737 190.726 189.094C190.126 198.798 180.662 202.606 173.006 197.286C172.954 197.25 172.896 197.225 172.834 197.212C172.773 197.199 172.709 197.198 172.647 197.21C172.585 197.222 172.526 197.246 172.474 197.281C172.422 197.316 172.377 197.362 172.342 197.414C170.558 200.126 169.774 201.814 166.078 203.398C163.609 201.868 161.276 200.617 159.078 199.646C156.764 198.628 153.708 197.63 149.91 196.654L145.142 195.23C144.79 194.916 144.657 194.734 144.742 194.686L149.774 194.19C169.518 190.59 189.278 179.59 193.686 158.398C209.438 162.094 220.39 141.71 209.686 130.494C207.422 128.134 204.814 127.518 201.71 128.19C201.854 127.198 202.278 126.518 202.39 125.518C203.19 118.452 203.572 111.366 203.534 104.262C203.526 101.478 202.67 101.278 204.694 98.5503C209.548 92.0223 214.406 83.7849 219.27 73.8383Z" fill="#200B1D"/>
<path d="M128.007 99.2704C127.34 99.5531 126.831 100.033 126.479 100.71C125.604 99.8305 124.588 99.4571 123.431 99.5904C123.163 99.6216 122.917 99.7531 122.743 99.9585C120.86 102.145 118.615 103.74 116.007 104.742C112.999 105.902 106.159 105.894 102.967 104.958C98.9666 103.785 95.0039 104.073 91.0786 105.822C90.8119 105.94 90.5506 105.934 90.2946 105.806C88.7666 105.046 87.4386 105.374 86.0866 104.982C82.1266 103.814 79.1026 102.806 76.5026 99.8144C76.4189 99.7183 76.3606 99.603 76.3327 99.4787C76.3047 99.3544 76.3081 99.2251 76.3426 99.1025L76.6066 98.1664C84.6172 103.98 91.8866 103.172 98.4146 95.7424C98.452 95.7006 98.4979 95.6672 98.5493 95.6446C98.6006 95.622 98.6563 95.6107 98.7124 95.6114C98.7686 95.6122 98.8238 95.625 98.8746 95.649C98.9254 95.673 98.9704 95.7076 99.0066 95.7504C105.807 103.774 116.599 104.366 123.183 95.5184C123.218 95.4716 123.263 95.4325 123.314 95.4036C123.365 95.3747 123.421 95.3567 123.479 95.3507C123.537 95.3447 123.595 95.3508 123.65 95.3687C123.705 95.3865 123.756 95.4157 123.799 95.4545L128.007 99.2704Z" fill="#C27353"/>
<path d="M195.262 147.103L193.686 158.399C189.278 179.591 169.518 190.591 149.774 194.191C149.534 193.721 149.422 193.263 149.438 192.815C149.443 192.537 149.574 192.345 149.83 192.239C157.366 189.079 164.622 182.799 165.774 174.231C165.918 173.18 165.801 171.441 165.422 169.015C164.627 163.873 165.475 158.985 167.966 154.351C168.718 152.943 170.222 151.415 170.982 149.551C171.121 149.209 171.014 149.089 170.662 149.191C170.001 149.377 169.523 149.236 169.23 148.767C169.097 148.548 168.902 148.447 168.646 148.463C168.321 148.484 168.019 148.433 167.742 148.311C171.033 146.209 172.99 142.791 173.614 138.055C174.905 139.489 176.017 140.26 176.95 140.367C177.313 140.409 177.454 140.252 177.374 139.895C175.998 133.569 172.233 129.183 166.078 126.735L166.686 123.359C166.734 123.092 166.689 122.841 166.55 122.607C164.849 119.663 165.193 117.143 167.582 115.047C170.787 116.348 173.771 118.132 176.534 120.399C176.621 120.468 176.729 120.507 176.841 120.51C176.952 120.513 177.062 120.479 177.152 120.414C177.243 120.348 177.31 120.255 177.342 120.149C177.375 120.042 177.372 119.927 177.334 119.823C175.126 114.159 171.246 109.863 165.694 106.935L161.838 103.935C161.673 103.807 161.486 103.751 161.278 103.767L160.71 103.807C160.437 103.832 160.164 103.755 159.942 103.591C158.785 102.737 157.59 102.631 156.358 103.271C156.091 103.409 155.809 103.449 155.51 103.391C153.878 103.076 152.299 102.577 150.774 101.895C149.694 101.415 148.374 99.6145 146.966 100.487C142.374 103.308 137.846 104.556 133.382 104.231C130.982 103.452 128.681 102.279 126.478 100.711C126.83 100.033 127.339 99.5532 128.006 99.2705C135.238 102.657 141.798 101.497 147.686 95.7905C147.878 95.6038 148.051 95.6172 148.206 95.8305C153.678 103.295 164.862 101.839 170.534 95.6305C170.737 95.4065 170.939 95.4119 171.142 95.6465C175.249 100.447 180.523 102.609 186.966 102.135C187.302 102.108 187.473 102.263 187.478 102.599C187.558 107.519 189.326 110.719 192.11 114.599C198.43 123.431 195.35 135.487 195.262 147.103Z" fill="#B8674B"/>
<path d="M76.6067 98.1665L76.3428 99.1025C76.3083 99.2251 76.3049 99.3544 76.3328 99.4787C76.3607 99.603 76.4191 99.7184 76.5027 99.8145C79.1027 102.806 82.1268 103.814 86.0868 104.982C87.4388 105.374 88.7668 105.046 90.2948 105.806C90.5508 105.934 90.8121 105.94 91.0788 105.822C95.0041 104.073 98.9667 103.785 102.967 104.958C106.159 105.894 112.999 105.902 116.007 104.742C118.615 103.74 120.86 102.145 122.743 99.9585C122.917 99.7531 123.163 99.6216 123.431 99.5905C124.588 99.4571 125.604 99.8305 126.479 100.71C128.681 102.278 130.983 103.452 133.383 104.23L132.495 149.022C125.167 147.574 116.447 155.67 126.303 161.486C127.684 161.961 128.881 162.74 129.895 163.822C131.031 165.022 135.303 169.23 138.111 169.374C138.383 169.39 138.412 169.481 138.199 169.646C137.745 170.009 137.673 170.414 137.983 170.862C128.911 171.726 118.359 171.718 109.791 168.398C109.524 167.385 108.889 166.825 107.887 166.718C107.685 166.697 107.48 166.723 107.29 166.794C107.099 166.864 106.928 166.978 106.788 167.126C106.649 167.274 106.546 167.452 106.487 167.646C106.427 167.841 106.414 168.046 106.447 168.246C107.407 173.958 112.903 178.222 117.967 180.126C125.236 182.857 132.532 182.924 139.855 180.326C140.884 183.804 142.78 186.868 145.543 189.518C145.74 189.71 145.86 189.94 145.903 190.206C146.073 191.38 145.852 192.47 145.239 193.478C145.111 193.692 144.924 193.825 144.679 193.878C144.337 193.953 144.143 194.156 144.095 194.486C132.953 195.692 121.801 195.545 110.639 194.046C110.372 194.009 110.108 194.033 109.847 194.118C109.404 194.257 109.177 194.209 109.167 193.974C89.5588 189.07 69.5268 181.374 62.7508 160.022C62.6601 159.74 62.6601 159.46 62.7508 159.182L62.8868 158.782C62.9934 158.457 62.8788 158.321 62.5428 158.374C50.5748 160.238 42.0548 150.934 42.7348 139.414C42.9854 135.212 44.7534 131.62 48.0388 128.638L52.5348 127.942C53.0186 127.868 53.5128 127.975 53.923 128.242C54.3332 128.509 54.6307 128.918 54.7587 129.39C56.4814 135.785 58.8307 141.929 61.8067 147.822C62.2441 148.681 62.4094 148.633 62.3027 147.678C61.4547 140.1 61.0601 132.406 61.1188 124.598C61.1428 121.766 62.5587 118.126 64.3027 115.366C66.9027 111.254 68.6707 108.878 68.9107 103.134C68.9214 102.83 69.0654 102.614 69.3428 102.486C71.6148 101.441 73.6334 100.028 75.3988 98.2465C75.4942 98.149 75.6138 98.0785 75.7459 98.042C75.8779 98.0055 76.0175 98.0042 76.1508 98.0385L76.6067 98.1665ZM105.399 107.31C103.905 106.372 102.289 105.833 100.551 105.694C90.7108 104.894 82.0308 110.478 78.9908 119.934C78.9384 120.099 78.9412 120.276 78.9986 120.438C79.0561 120.601 79.165 120.741 79.309 120.836C79.4529 120.931 79.624 120.976 79.7961 120.965C79.9683 120.954 80.1321 120.887 80.2627 120.774C87.8947 114.094 93.9187 113.526 103.863 113.126C107.159 112.99 108.335 109.15 105.399 107.31ZM84.9027 136.774C85.0734 140.401 85.7668 143.196 86.9828 145.158C90.1668 150.31 96.9188 151.382 101.847 148.134C105.516 145.718 107.033 141.87 106.399 136.59C107.183 135.433 107.287 134.249 106.711 133.038C104.119 127.526 98.8388 124.926 92.8708 126.062C85.9108 127.382 80.8547 133.35 78.7107 139.878C78.692 139.936 78.6848 139.996 78.6897 140.056C78.6945 140.116 78.7112 140.175 78.7389 140.228C78.7665 140.281 78.8045 140.327 78.8505 140.365C78.8966 140.403 78.9497 140.43 79.0067 140.446C81.5747 141.206 83.5107 138.71 84.9027 136.774ZM74.5428 172.246C75.2094 173.18 76.1508 173.748 77.3668 173.95C77.6587 173.998 77.9581 173.947 78.2184 173.807C78.4788 173.666 78.6856 173.444 78.8068 173.174C78.928 172.905 78.9569 172.603 78.8889 172.315C78.8209 172.027 78.6599 171.769 78.4308 171.582C72.9748 167.118 71.5508 159.142 76.6788 153.862C76.8933 153.643 77.1672 153.49 77.4679 153.422C77.7686 153.354 78.0834 153.373 78.3748 153.478C80.0868 154.102 84.7427 153.966 84.6547 151.262C84.6475 150.976 84.5643 150.698 84.4138 150.455C84.2632 150.213 84.0508 150.017 83.7988 149.886C79.9801 147.865 75.9748 147.022 71.7828 147.358C67.1828 147.734 67.0548 153.046 66.8948 156.494C66.5908 162.774 71.1588 167.534 74.5428 172.246Z" fill="#D48762"/>
<path d="M165.694 106.934C161.142 105.79 152.134 104.35 149.43 109.414C149.311 109.631 149.272 109.883 149.318 110.126C149.644 111.934 150.654 112.95 152.35 113.174C156.694 113.75 162.39 112.966 167.582 115.046C165.193 117.142 164.849 119.662 166.55 122.606C166.689 122.841 166.734 123.092 166.686 123.358L166.078 126.734C159.142 125.23 151.334 128.054 150.95 136.166C150.924 136.668 151.361 136.758 152.262 136.438C151.58 143.025 153.788 147.294 158.886 149.246C161.814 150.366 165.062 149.75 167.742 148.31C168.02 148.433 168.321 148.484 168.646 148.462C168.902 148.446 169.097 148.548 169.23 148.766C169.524 149.236 170.001 149.377 170.662 149.19C171.014 149.089 171.121 149.209 170.982 149.55C170.222 151.414 168.718 152.942 167.966 154.35C165.476 158.985 164.628 163.873 165.422 169.014C165.801 171.441 165.918 173.18 165.774 174.23C164.622 182.798 157.366 189.078 149.83 192.238C149.574 192.345 149.444 192.537 149.438 192.814C149.422 193.262 149.534 193.721 149.774 194.19L144.742 194.686L144.094 194.486C144.142 194.156 144.337 193.953 144.678 193.878C144.924 193.825 145.11 193.692 145.238 193.478C145.852 192.47 146.073 191.38 145.902 190.206C145.86 189.94 145.74 189.71 145.542 189.518C142.78 186.868 140.884 183.804 139.854 180.326C144.982 178.302 150.222 174.374 151.63 168.782C151.697 168.519 151.682 168.241 151.589 167.986C151.495 167.731 151.327 167.51 151.106 167.352C150.884 167.194 150.621 167.106 150.349 167.1C150.077 167.094 149.81 167.17 149.582 167.318C149.033 167.67 148.513 168.22 148.022 168.966C144.636 170.113 141.289 170.745 137.982 170.862C137.673 170.414 137.745 170.009 138.198 169.646C138.412 169.481 138.382 169.39 138.11 169.374C135.302 169.23 131.03 165.022 129.894 163.822C128.881 162.74 127.684 161.961 126.302 161.486C126.521 161.198 126.662 161.137 126.726 161.302C129.617 162.065 132.734 161.614 136.078 159.95C137.641 159.166 138.401 158.022 138.358 156.518C139.217 153.404 137.262 150.905 132.494 149.022L133.382 104.23C137.846 104.556 142.374 103.308 146.966 100.486C148.374 99.6142 149.694 101.414 150.774 101.894C152.3 102.577 153.878 103.076 155.51 103.39C155.809 103.449 156.092 103.409 156.358 103.27C157.59 102.63 158.785 102.737 159.942 103.59C160.164 103.755 160.438 103.832 160.71 103.806L161.278 103.766C161.486 103.75 161.673 103.806 161.838 103.934L165.694 106.934Z" fill="#C27353"/>
<path d="M105.398 107.311C108.334 109.151 107.158 112.991 103.862 113.127C93.9184 113.527 87.8944 114.095 80.2624 120.775C80.1318 120.887 79.968 120.954 79.7958 120.965C79.6237 120.976 79.4526 120.931 79.3087 120.836C79.1647 120.741 79.0558 120.601 78.9983 120.439C78.9409 120.276 78.9381 120.099 78.9905 119.935C82.0305 110.479 90.7105 104.895 100.55 105.695C102.289 105.833 103.905 106.372 105.398 107.311Z" fill="#2E1423"/>
<path d="M165.695 106.935C171.247 109.863 175.127 114.159 177.335 119.823C177.373 119.927 177.376 120.042 177.344 120.149C177.311 120.255 177.244 120.348 177.153 120.414C177.063 120.479 176.953 120.513 176.842 120.51C176.73 120.507 176.622 120.468 176.535 120.399C173.772 118.132 170.788 116.348 167.583 115.047C162.391 112.967 156.695 113.751 152.351 113.175C150.655 112.951 149.644 111.935 149.319 110.127C149.272 109.883 149.312 109.632 149.431 109.415C152.135 104.351 161.143 105.791 165.695 106.935Z" fill="#2E1423"/>
<path d="M106.398 136.59C105.918 135.782 101.374 130.166 100.422 131.526C100.199 131.841 100.108 132.231 100.168 132.613C100.228 132.995 100.434 133.34 100.742 133.574C107.222 138.494 102.318 148.022 94.6141 146.598C90.7527 145.884 88.7554 142.924 88.6221 137.718C91.7901 138.31 93.7101 136.27 92.7101 133.174C91.5421 129.59 87.518 132.318 86.854 134.814C85.8034 135.401 85.1527 136.054 84.902 136.774C83.51 138.71 81.5741 141.206 79.0061 140.446C78.949 140.43 78.8959 140.403 78.8499 140.365C78.8038 140.327 78.7658 140.281 78.7382 140.228C78.7105 140.175 78.6938 140.116 78.689 140.056C78.6841 139.996 78.6913 139.936 78.7101 139.878C80.8541 133.35 85.9101 127.382 92.8701 126.062C98.8381 124.926 104.118 127.526 106.71 133.038C107.286 134.249 107.182 135.433 106.398 136.59Z" fill="#0D070A"/>
<path d="M166.078 126.734C172.233 129.182 175.998 133.569 177.374 139.894C177.454 140.252 177.313 140.409 176.95 140.366C176.017 140.26 174.905 139.489 173.614 138.054C172.628 136.022 171.649 134.622 170.678 133.854C169.937 133.268 169.129 132.932 168.254 132.846C168.106 132.829 167.955 132.862 167.828 132.941C167.7 133.019 167.603 133.139 167.552 133.28C167.501 133.421 167.499 133.575 167.547 133.717C167.594 133.859 167.689 133.981 167.814 134.062C171.342 136.454 170.606 142.078 167.91 144.558C162.662 149.398 156.334 145.526 155.726 138.934C155.7 138.673 155.782 138.449 155.974 138.262C156.598 137.676 157.017 137.054 157.23 136.398C160.174 136.726 161.894 133.622 160.19 131.238C160.041 131.025 159.841 130.884 159.59 130.814C157.692 130.292 156.27 131.004 155.326 132.95C153.897 132.86 152.876 134.022 152.262 136.438C151.361 136.758 150.924 136.668 150.95 136.166C151.334 128.054 159.142 125.23 166.078 126.734Z" fill="#0D070A"/>
<path d="M193.687 158.399L195.263 147.103C198.287 141.391 200.279 135.319 201.239 128.887C201.265 128.7 201.353 128.551 201.503 128.439C201.615 128.348 201.684 128.265 201.711 128.191C204.815 127.519 207.423 128.135 209.687 130.495C220.391 141.711 209.439 162.095 193.687 158.399Z" fill="#8B4434"/>
<path d="M48.039 128.638C44.7536 131.62 42.9856 135.212 42.735 139.414C42.055 150.934 50.575 160.238 62.543 158.374C62.879 158.321 62.9936 158.457 62.887 158.782L62.751 159.182C62.6603 159.46 62.6603 159.74 62.751 160.022C69.527 181.374 89.5589 189.07 109.167 193.974C108.799 194.833 108.3 195.425 107.671 195.75L102.079 197.294C97.1456 198.686 92.7376 200.582 88.8549 202.982C85.9909 201.574 84.2976 199.614 83.775 197.102C83.7599 197.026 83.7251 196.955 83.6741 196.896C83.6231 196.837 83.5575 196.792 83.484 196.766C83.4105 196.741 83.3315 196.734 83.2549 196.748C83.1782 196.762 83.1066 196.796 83.047 196.846C75.783 202.878 65.495 199.086 64.751 189.35C64.7296 189.084 64.5936 189.004 64.343 189.11C57.127 192.177 51.7776 190.614 48.295 184.422C47.167 182.422 47.207 179.686 47.079 177.398C47.0683 177.121 46.9243 177.006 46.647 177.054C42.0283 177.849 37.823 176.94 34.031 174.326C31.6256 172.62 29.831 170.284 28.647 167.318C29.399 167.798 30.0976 168.358 30.743 168.998C31.879 170.126 31.9989 171.702 33.3189 172.814C36.7856 175.758 41.0256 176.916 46.039 176.286C46.2023 176.266 46.3598 176.213 46.5018 176.129C46.6438 176.046 46.7673 175.934 46.8646 175.801C46.962 175.667 47.0313 175.515 47.0681 175.354C47.105 175.193 47.1087 175.025 47.079 174.862C45.7296 167.518 44.5936 160.046 43.6709 152.446C43.1669 148.27 40.991 142.542 41.743 138.382C42.5696 133.87 44.6683 130.622 48.039 128.638Z" fill="#200B1D"/>
<path d="M157.231 136.398C155.807 135.854 155.172 134.705 155.327 132.95C156.271 131.004 157.692 130.292 159.591 130.814C159.841 130.884 160.041 131.025 160.191 131.238C161.895 133.622 160.175 136.726 157.231 136.398Z" fill="#FDFDFD"/>
<path d="M88.6228 137.718C87.6361 137.062 87.0467 136.094 86.8547 134.814C87.5187 132.318 91.5427 129.59 92.7107 133.174C93.7107 136.27 91.7908 138.31 88.6228 137.718Z" fill="#FDFDFD"/>
<path d="M106.398 136.59C107.033 141.87 105.516 145.718 101.846 148.134C96.9184 151.382 90.1664 150.31 86.9824 145.158C85.7664 143.196 85.073 140.401 84.9023 136.774C85.153 136.054 85.8037 135.401 86.8543 134.814C87.0463 136.094 87.6357 137.062 88.6224 137.718C88.7557 142.924 90.753 145.884 94.6144 146.598C102.318 148.022 107.222 138.494 100.742 133.574C100.434 133.339 100.228 132.995 100.168 132.613C100.109 132.231 100.2 131.841 100.422 131.526C101.374 130.166 105.918 135.782 106.398 136.59Z" fill="#8B4434"/>
<path d="M173.614 138.054C172.99 142.79 171.033 146.209 167.742 148.31C165.062 149.75 161.814 150.366 158.886 149.246C153.788 147.294 151.58 143.025 152.262 136.438C152.876 134.022 153.897 132.86 155.326 132.95C155.172 134.705 155.806 135.854 157.23 136.398C157.017 137.054 156.598 137.676 155.974 138.262C155.782 138.449 155.7 138.673 155.726 138.934C156.334 145.526 162.662 149.398 167.91 144.558C170.606 142.078 171.342 136.454 167.814 134.062C167.689 133.981 167.594 133.859 167.547 133.717C167.499 133.575 167.501 133.421 167.552 133.28C167.603 133.139 167.7 133.019 167.828 132.941C167.955 132.862 168.105 132.829 168.254 132.846C169.129 132.932 169.937 133.268 170.678 133.854C171.649 134.622 172.628 136.022 173.614 138.054Z" fill="#8B4434"/>
<path d="M74.5421 172.247C71.1581 167.535 66.5901 162.775 66.8941 156.495C67.0541 153.047 67.182 147.735 71.782 147.359C75.974 147.023 79.9794 147.865 83.7981 149.887C84.0501 150.017 84.2625 150.214 84.413 150.456C84.5636 150.698 84.6468 150.976 84.654 151.263C84.742 153.967 80.086 154.103 78.374 153.479C78.0827 153.374 77.7679 153.354 77.4672 153.422C77.1665 153.49 76.8926 153.643 76.678 153.863C71.55 159.143 72.974 167.119 78.43 171.583C78.6591 171.77 78.8202 172.027 78.8881 172.315C78.9561 172.603 78.9273 172.905 78.8061 173.175C78.6849 173.444 78.478 173.667 78.2177 173.807C77.9573 173.947 77.658 173.998 77.366 173.951C76.15 173.748 75.2087 173.18 74.5421 172.247Z" fill="#F2A177"/>
<path d="M132.495 149.022C137.263 150.905 139.217 153.404 138.359 156.518C134.007 151.998 127.151 153.078 124.239 158.262C124.17 158.384 124.143 158.525 124.164 158.664C124.184 158.803 124.25 158.931 124.351 159.03L126.727 161.302C126.663 161.137 126.521 161.198 126.303 161.486C116.447 155.67 125.167 147.574 132.495 149.022Z" fill="#B8674B"/>
<path d="M138.359 156.518C138.401 158.022 137.641 159.166 136.079 159.95C132.735 161.614 129.617 162.065 126.727 161.302L124.351 159.03C124.25 158.932 124.184 158.803 124.164 158.664C124.143 158.525 124.17 158.384 124.239 158.262C127.151 153.078 134.007 151.998 138.359 156.518Z" fill="#F2A177"/>
<path d="M109.791 168.398C116.055 181.91 141.983 182.59 148.023 168.966C148.513 168.219 149.033 167.67 149.583 167.318C149.81 167.17 150.078 167.094 150.349 167.1C150.621 167.106 150.885 167.194 151.106 167.352C151.327 167.51 151.495 167.731 151.589 167.986C151.683 168.241 151.697 168.519 151.631 168.782C150.223 174.374 144.983 178.302 139.855 180.326C132.532 182.923 125.236 182.857 117.967 180.126C112.903 178.222 107.407 173.958 106.447 168.246C106.413 168.046 106.427 167.84 106.486 167.646C106.546 167.452 106.649 167.273 106.788 167.126C106.928 166.978 107.099 166.864 107.29 166.793C107.48 166.723 107.685 166.697 107.887 166.718C108.889 166.825 109.524 167.385 109.791 168.398Z" fill="#491D22"/>
<path d="M109.791 168.398C118.359 171.718 128.911 171.726 137.983 170.862C141.289 170.745 144.636 170.113 148.023 168.966C141.983 182.59 116.055 181.91 109.791 168.398Z" fill="#FDFDFD"/>
<path d="M223.062 172.359C223.089 172.657 223.278 172.903 223.63 173.095C223.854 173.217 223.918 173.401 223.822 173.647C222.201 177.743 219.977 181.807 217.15 185.839C206.729 200.703 193.859 212.097 178.542 220.023C176.595 213.5 172.441 207.959 166.078 203.399C169.774 201.815 170.558 200.127 172.342 197.415C172.377 197.362 172.422 197.317 172.474 197.282C172.526 197.247 172.585 197.222 172.647 197.21C172.709 197.199 172.773 197.199 172.834 197.212C172.896 197.225 172.954 197.251 173.006 197.287C180.662 202.607 190.126 198.799 190.726 189.095C190.747 188.737 190.913 188.649 191.222 188.831C197.302 192.375 205.078 190.711 208.238 184.295C209.214 182.319 209.158 179.879 209.358 177.599C209.379 177.327 209.523 177.199 209.79 177.215C214.889 177.476 219.313 175.857 223.062 172.359Z" fill="#D7E3E8"/>
<path d="M34.0302 174.327C37.8222 176.94 42.0275 177.849 46.6462 177.055C46.9235 177.007 47.0675 177.121 47.0782 177.399C47.2062 179.687 47.1662 182.423 48.2942 184.423C51.7768 190.615 57.1262 192.177 64.3422 189.111C64.5928 189.004 64.7288 189.084 64.7502 189.351C65.4942 199.087 75.7822 202.879 83.0462 196.847C83.1058 196.796 83.1774 196.763 83.2541 196.749C83.3307 196.735 83.4097 196.741 83.4832 196.767C83.5568 196.793 83.6223 196.837 83.6733 196.896C83.7243 196.955 83.7591 197.026 83.7742 197.103C84.2968 199.615 85.9901 201.575 88.8541 202.983C82.9928 207.527 79.0648 213.071 77.0702 219.615C70.9262 215.999 66.8915 213.511 64.9662 212.151C51.4835 202.631 41.0008 190.511 33.5182 175.791C33.4008 175.556 33.4115 175.329 33.5502 175.111L34.0302 174.327Z" fill="#D7E3E8"/>
<path d="M144.094 194.486L144.742 194.686C144.657 194.734 144.79 194.916 145.142 195.23C144.782 195.11 144.622 195.278 144.63 195.63C144.99 221.718 109.646 223.406 107.67 195.75C108.3 195.425 108.798 194.833 109.166 193.974C109.177 194.209 109.404 194.257 109.846 194.118C110.108 194.033 110.372 194.009 110.638 194.046C121.801 195.545 132.953 195.692 144.094 194.486Z" fill="#B8674B"/>
<path d="M145.142 195.23L149.91 196.654C149.286 210.574 145.734 220.654 130.302 223.302C119.846 225.038 109.006 218.958 105.502 208.998C105.486 208.95 105.059 206.969 104.222 203.054C103.774 200.969 103.059 199.049 102.078 197.294L107.67 195.75C109.646 223.406 144.99 221.718 144.63 195.63C144.622 195.278 144.782 195.11 145.142 195.23Z" fill="#FEC858"/>
<path d="M149.911 196.654C153.708 197.63 156.764 198.628 159.079 199.646C161.276 200.617 163.609 201.868 166.079 203.398C172.441 207.958 176.596 213.5 178.543 220.022L176.359 221.446C160.561 230.086 143.828 234.372 126.159 234.302C126.436 233.753 127.153 233.337 128.311 233.054C128.62 232.98 128.732 232.785 128.647 232.47C127.927 229.857 127.889 227.297 128.535 224.79C128.588 224.582 128.551 224.414 128.423 224.286C128.273 224.132 128.305 224.036 128.519 223.998C129.185 223.886 129.78 223.654 130.303 223.302C145.735 220.654 149.287 210.574 149.911 196.654Z" fill="#FCAF46"/>
<path d="M102.078 197.295C103.06 199.049 103.774 200.969 104.222 203.055C105.06 206.969 105.486 208.951 105.502 208.999C109.006 218.959 119.846 225.039 130.302 223.303C129.78 223.655 129.185 223.887 128.518 223.999C128.305 224.036 128.273 224.132 128.422 224.287C128.55 224.415 128.588 224.583 128.534 224.791C127.889 227.297 127.926 229.857 128.646 232.471C128.732 232.785 128.62 232.98 128.31 233.055C127.153 233.337 126.436 233.753 126.158 234.303C109.486 234.223 93.2863 229.631 78.9423 221.167C78.185 220.9 77.561 220.383 77.0703 219.615C79.065 213.071 82.993 207.527 88.8543 202.983C92.737 200.583 97.145 198.687 102.078 197.295Z" fill="#FDBA50"/>
<path d="M78.9421 221.166C93.2861 229.63 109.486 234.222 126.158 234.302C143.827 234.372 160.561 230.086 176.358 221.446C176.283 221.558 176.342 221.622 176.534 221.638C176.602 221.645 176.666 221.67 176.72 221.712C176.773 221.754 176.813 221.811 176.835 221.875C176.857 221.939 176.86 222.009 176.844 222.074C176.827 222.14 176.792 222.2 176.742 222.246C175.046 223.798 173.39 225.686 171.598 226.958C144.262 246.414 106.174 245.798 80.3501 223.494C80.1581 223.329 80.0461 223.118 80.0141 222.862C79.9341 222.302 79.5768 221.737 78.9421 221.166Z" fill="#D7E3E8"/>
</svg>
