<svg width="256" height="256" viewBox="0 0 256 256" fill="none" xmlns="http://www.w3.org/2000/svg">
<path d="M81.4814 215.945L84.7454 218.017" stroke="#98D0D2" stroke-width="2"/>
<path d="M209.866 75.2013C205.802 68.716 201.354 62.8626 196.522 57.6413C181.674 41.588 163.282 31.6226 141.346 27.7453C132.994 26.2733 125.474 26.0093 118.786 26.9533C73.9455 33.3053 40.6335 71.0653 36.5695 115.577C35.0975 131.711 36.4789 146.924 40.7135 161.217C47.5615 184.3 61.1509 202.543 81.4815 215.945" stroke="#F5F5F2" stroke-width="2"/>
<path d="M209.866 75.2012C215.418 87.9532 218.684 100.076 219.666 111.569C223.404 155.271 207.972 190.164 173.37 216.249" stroke="#E1DFDC" stroke-width="2"/>
<path d="M173.369 216.249C171.7 212.127 169.244 207.292 166.001 201.745C161.601 194.209 157.625 191.553 149.241 188.209" stroke="#8BAFB4" stroke-width="2"/>
<path d="M149.241 188.209C147.583 187.516 145.895 187.239 144.177 187.377" stroke="#86A8AF" stroke-width="2"/>
<path d="M144.177 187.377L144.201 186.609" stroke="#F3C1AD" stroke-width="2"/>
<path d="M144.202 186.609C164.93 189.625 196.81 185.633 207.746 164.745C207.782 164.675 207.803 164.597 207.808 164.519C207.813 164.44 207.801 164.361 207.774 164.287C207.747 164.213 207.705 164.146 207.651 164.09C207.596 164.034 207.53 163.99 207.458 163.961C200.338 161.15 195.511 156.033 192.978 148.609" stroke="#85828A" stroke-width="2"/>
<path d="M192.978 148.609C195.026 146.94 196.61 145.38 197.73 143.929C201.927 138.484 202.604 132.873 199.762 127.097" stroke="#F3C1AD" stroke-width="2"/>
<path d="M199.761 127.097C209.793 91.6413 196.913 50.5613 159.321 37.6653" stroke="#85828A" stroke-width="2"/>
<path d="M159.322 37.6652C148.116 33.9532 136.735 33.3905 125.178 35.9772C123.796 36.2865 120.674 36.1852 115.81 35.6732" stroke="#908B91" stroke-width="2"/>
<path d="M115.809 35.6733C90.4334 35.0893 67.4414 47.4733 56.3374 70.5693" stroke="#988E93" stroke-width="2"/>
<path d="M56.3373 70.5693C48.6733 87.5853 48.1773 106.369 53.0893 124.553" stroke="#908B91" stroke-width="2"/>
<path d="M53.0894 124.553L53.5294 126.257C53.5423 126.308 53.5684 126.354 53.605 126.391C53.6416 126.429 53.6875 126.456 53.7378 126.469C53.7882 126.483 53.8414 126.483 53.8919 126.47C53.9423 126.457 53.9884 126.43 54.0254 126.393C58.9534 121.492 63.532 121.14 67.7614 125.337" stroke="#85828A" stroke-width="2"/>
<path d="M67.7612 125.337C64.5452 123.311 61.3452 122.999 58.1612 124.401C56.4705 125.143 55.2492 126.049 54.4972 127.121C54.3532 127.335 54.1692 127.503 53.9452 127.625C50.9132 129.305 51.7212 136.777 52.8892 139.577" stroke="#F4D6C2" stroke-width="2"/>
<path d="M52.8896 139.577C54.719 142.687 57.2016 145.492 60.3376 147.993" stroke="#F4C9B4" stroke-width="2"/>
<path d="M60.3374 147.993C58.2734 156.34 53.5561 161.961 46.1854 164.857C45.9134 164.964 45.8601 165.135 46.0254 165.369C59.5774 184.689 85.0574 189.641 106.897 186.617" stroke="#85828A" stroke-width="2"/>
<path d="M106.897 186.617L108.305 186.449" stroke="#818084" stroke-width="2"/>
<path d="M108.306 186.449C108.748 186.588 108.9 186.804 108.762 187.097" stroke="#F4D6C2" stroke-width="2"/>
<path d="M108.762 187.097L101.826 189.153" stroke="#8BAFB4" stroke-width="2"/>
<path d="M101.825 189.153C90.7854 193.505 85.4014 205.449 81.4814 215.945" stroke="#8EC8C6" stroke-width="2"/>
<path d="M144.178 187.377C143.852 187.511 143.647 187.777 143.562 188.177C142.042 195.297 133.714 198.753 127.306 198.777" stroke="#8E7D75" stroke-width="2"/>
<path d="M192.978 148.609C189.175 149.91 185.911 150.11 183.186 149.209" stroke="#8D5751" stroke-width="2"/>
<path d="M182.114 139.713C183.143 141.089 184.634 142.001 186.586 142.449C186.65 142.46 186.692 142.436 186.714 142.377C186.735 142.313 186.754 142.249 186.77 142.185C186.778 142.163 186.778 142.138 186.769 142.114C186.76 142.091 186.744 142.071 186.722 142.057L185.17 141.129C184.839 140.937 184.716 140.655 184.802 140.281C185.442 137.505 187.274 134.217 190.666 135.553C190.895 135.644 191.074 135.796 191.202 136.009C192.242 137.684 192.204 139.233 191.09 140.657C190.716 141.132 190.802 141.241 191.346 140.985C193.367 140.031 194.316 138.201 194.194 135.497" stroke="#FD825E" stroke-width="2"/>
<path d="M65.3618 79.1773C74.7644 69.1186 85.7271 61.1053 98.2498 55.1373C98.3105 55.107 98.3594 55.0573 98.3886 54.996C98.4178 54.9348 98.4257 54.8655 98.411 54.7993C98.3963 54.733 98.3598 54.6736 98.3074 54.6305C98.255 54.5873 98.1896 54.563 98.1218 54.5613C85.1378 54.2253 71.5218 64.1213 64.4258 74.1693" stroke="#5E424D" stroke-width="2"/>
<path d="M62.1535 73.1214C72.0095 58.4654 87.2255 49.0734 103.226 42.3694C103.357 42.3138 103.475 42.2317 103.573 42.1285C103.671 42.0252 103.746 41.9029 103.794 41.7694L103.994 41.2414C104.008 41.2009 104.012 41.1574 104.004 41.1151C103.997 41.0728 103.978 41.0332 103.951 41.0001C103.923 40.967 103.888 40.9416 103.848 40.9264C103.807 40.9112 103.764 40.9067 103.722 40.9134C86.9935 43.1694 72.2415 51.4894 63.5215 66.3134C61.6869 69.4174 60.5402 72.5267 60.0815 75.6414" stroke="#5E424D" stroke-width="2"/>
<path d="M144.202 186.609L136.154 184.865C135.391 184.7 134.996 184.225 134.97 183.441L134.77 177.761" stroke="#8D5751" stroke-width="2"/>
<path d="M84.7451 218.017L88.9931 220.073" stroke="#84BBBC" stroke-width="2"/>
<path d="M88.9937 220.073C92.247 221.881 95.6336 223.337 99.1537 224.441" stroke="#81A2AA" stroke-width="2"/>
<path d="M99.1533 224.441C113.681 229.913 128.695 231.137 144.193 228.113" stroke="#84BBBC" stroke-width="2"/>
<path d="M144.194 228.114L156.762 224.338" stroke="#81A2AA" stroke-width="2"/>
<path d="M156.762 224.337L164.314 221.113" stroke="#7C9BA5" stroke-width="2"/>
<path d="M164.313 221.113L173.369 216.249" stroke="#81A2AA" stroke-width="2"/>
<path d="M116.97 177.561L116.922 183.689C116.922 184.015 116.764 184.22 116.45 184.305L108.306 186.449" stroke="#8A6960" stroke-width="2"/>
<path d="M106.898 186.617C106.972 185.929 107.25 185.188 107.73 184.393C107.763 184.338 107.784 184.276 107.793 184.212C107.802 184.148 107.799 184.083 107.782 184.02C107.766 183.958 107.737 183.899 107.698 183.848C107.659 183.797 107.61 183.754 107.554 183.721C106.522 183.137 104.954 182.809 104.114 182.433C93.6604 177.756 84.487 171.268 76.5937 162.969C73.3457 159.545 69.2337 154.257 64.0337 151.945C62.9457 151.46 62.6524 150.447 63.1537 148.905" stroke="#1A1628" stroke-width="2"/>
<path d="M109.89 187.345C109.852 187.105 109.735 187.06 109.537 187.209C109.388 187.327 109.329 187.479 109.361 187.665C110.321 192.663 113.172 196.14 117.913 198.097C118.111 198.183 118.201 198.319 118.185 198.505C118.164 198.852 118.007 198.929 117.713 198.737C117.543 198.625 117.348 198.567 117.13 198.561C116.772 198.561 116.737 198.665 117.025 198.873C119.777 200.873 122.759 201.839 125.97 201.769C133.162 201.601 145.682 198.753 147.402 189.889C147.45 189.639 147.585 189.457 147.809 189.345C148.396 189.047 148.874 188.668 149.242 188.209" stroke="#266B7D" stroke-width="2"/>
<path d="M164.314 221.113C163.466 211.961 161.735 203.252 159.122 194.985C159.073 194.83 158.971 194.698 158.834 194.611C158.697 194.524 158.533 194.488 158.372 194.51C158.211 194.532 158.063 194.61 157.954 194.731C157.846 194.852 157.783 195.007 157.778 195.169L156.762 224.337" stroke="#266B7D" stroke-width="2"/>
<path d="M144.194 228.113C136.674 219.233 129.452 212.137 122.53 206.825C113.778 200.116 106.876 194.225 101.826 189.153" stroke="#2E8B94" stroke-width="2"/>
<path d="M75.6496 153.449L72.2656 147.737" stroke="#8A6960" stroke-width="2"/>
<path d="M72.2652 147.737C72.4679 144.324 72.1052 141.135 71.1772 138.169" stroke="#FDB290" stroke-width="2"/>
<path d="M71.1773 138.169C70.0573 135.617 68.7133 133.297 65.8253 132.545C61.42 131.393 58.9186 133.111 58.3213 137.697" stroke="#FE9773" stroke-width="2"/>
<path d="M58.3216 137.697C57.3723 139.308 56.1776 139.143 54.7376 137.201C54.6587 137.096 54.5478 137.02 54.4212 136.982C54.2946 136.945 54.1588 136.949 54.0336 136.993C53.351 137.239 52.9696 138.1 52.8896 139.577" stroke="#FDB290" stroke-width="2"/>
<path d="M72.2653 147.737C69.364 149.161 66.3267 149.551 63.1533 148.905" stroke="#895C52" stroke-width="2"/>
<path d="M63.1534 148.905C62.0441 148.804 61.1054 148.5 60.3374 147.993" stroke="#8D5F58" stroke-width="2"/>
<path d="M99.1537 224.441C98.6523 223.407 98.439 222.62 98.5136 222.081C98.5723 221.708 98.6016 221.5 98.6016 221.457C98.4416 212.423 98.2283 203.316 97.9616 194.137C97.9585 194.043 97.9257 193.952 97.868 193.878C97.8103 193.803 97.7307 193.749 97.6403 193.723C97.55 193.696 97.4535 193.699 97.3647 193.73C97.2759 193.761 97.1993 193.82 97.1457 193.897C97.0497 194.041 96.959 194.281 96.8736 194.617C94.6763 203.039 93.1723 211.607 92.3616 220.321C92.3403 220.567 92.207 220.668 91.9616 220.625L88.9937 220.073" stroke="#2E8B94" stroke-width="2"/>
<path d="M199.762 127.097C193.97 120.145 184.666 121.481 182.122 130.161" stroke="#8D5751" stroke-width="2"/>
<path d="M182.121 130.161C182.057 130.252 181.975 130.311 181.874 130.337C181.836 130.348 181.796 130.349 181.758 130.341C181.719 130.333 181.684 130.315 181.654 130.29C181.624 130.265 181.6 130.232 181.586 130.196C181.571 130.16 181.565 130.12 181.569 130.081C182.617 117.673 183.057 108.121 173.865 98.7933C172.857 97.7746 171.559 96.9426 169.969 96.2973C150.577 88.4653 134.082 79.2493 124.314 60.0333C123.903 59.2279 123.497 59.2306 123.097 60.0413C114.217 77.9533 94.9855 86.8893 76.9855 93.5933C74.6922 94.4519 73.0788 95.6519 72.1455 97.1933" stroke="#8D5F58" stroke-width="2"/>
<path d="M72.1457 97.1934C69.7244 101.023 68.5351 104.281 68.5777 106.969C68.6791 114.175 69.3991 121.233 70.7377 128.145C71.2977 131.041 70.9964 131.159 69.8337 128.497C69.5084 127.761 68.8177 126.708 67.7617 125.337" stroke="#8E6C66" stroke-width="2"/>
<path d="M159.321 37.6653C158.015 38.0333 157.985 39.0973 159.233 40.8573C159.388 41.0706 159.591 41.22 159.841 41.3053C161.916 41.9933 163.1 43.4146 163.393 45.5693C163.633 47.3693 158.913 53.8573 157.905 55.2653C156.761 56.8733 156.377 58.0973 153.985 57.8173C153.724 57.7906 153.588 57.9106 153.577 58.1773C153.577 58.3159 153.644 58.3773 153.777 58.3613C154.279 58.2973 154.319 58.4386 153.897 58.7853C153.033 59.5133 152.849 62.0013 152.601 63.0973C152.544 63.3474 152.423 63.5786 152.251 63.7686C152.078 63.9585 151.86 64.1009 151.616 64.1821C151.373 64.2632 151.113 64.2804 150.861 64.2319C150.609 64.1834 150.373 64.071 150.177 63.9053C149.665 63.468 149.063 63.3959 148.369 63.6893C148.241 63.7426 148.177 63.8386 148.177 63.9773C148.177 64.0839 148.185 64.2013 148.201 64.3293C148.206 64.3587 148.204 64.3886 148.196 64.4175C148.189 64.4463 148.175 64.4734 148.156 64.4972C148.138 64.5211 148.114 64.5411 148.088 64.5562C148.061 64.5713 148.032 64.5812 148.001 64.5853L145.881 64.8413C145.588 64.8786 145.329 64.804 145.105 64.6173C144.775 64.34 144.399 64.1293 143.977 63.9853C143.737 63.9016 143.524 63.755 143.361 63.5613C136.812 55.9079 131.124 47.6573 126.297 38.8093C126.25 38.723 126.171 38.6588 126.076 38.6304C125.982 38.602 125.881 38.6116 125.793 38.6573L125.401 38.8733C125.172 38.996 125.111 39.1773 125.217 39.4173C126.233 41.6653 127.137 43.4653 128.065 46.0733C130.249 52.2253 135.025 58.4413 138.961 63.3053C145.145 70.9453 153.913 77.4333 162.233 83.0893C162.479 83.2546 162.455 83.3506 162.161 83.3773C161.681 83.4173 161.265 83.3933 160.833 83.1293C144.641 73.1453 130.921 62.5213 124.201 44.9773C124.159 44.8699 124.085 44.777 123.991 44.7101C123.896 44.6433 123.785 44.6053 123.67 44.6011C123.555 44.5968 123.441 44.6264 123.344 44.6862C123.247 44.7459 123.169 44.8332 123.121 44.9373C113.593 65.2173 93.8734 76.8093 74.0414 84.9693C66.7374 87.9693 62.4494 92.5293 61.4814 100.641C61.4547 100.86 61.3774 101.06 61.2494 101.241C60.8387 101.807 60.6814 102.425 60.7774 103.097C60.8147 103.369 60.6974 103.505 60.4254 103.505C56.8014 103.497 60.2334 119.025 60.4974 121.025C60.54 121.324 60.4174 121.513 60.1294 121.593C58.3587 122.1 56.8334 123.012 55.5534 124.329C55.372 124.511 55.1694 124.543 54.9454 124.425C54.1507 124.015 53.532 124.057 53.0894 124.553" stroke="#2A2135" stroke-width="2"/>
<path d="M56.3374 70.5693C57.4361 70.8947 58.2414 71.4573 58.7534 72.2573C58.8257 72.3703 58.8572 72.504 58.8426 72.6354C58.828 72.7668 58.7682 72.8878 58.6734 72.9773C57.4254 74.1613 56.8787 75.6547 57.0334 77.4573C57.0632 77.7839 57.2115 78.0605 57.4517 78.2373C57.6918 78.4141 58.008 78.4794 58.3431 78.4215C58.6781 78.3635 59.0101 78.1861 59.279 77.9213C59.5479 77.6565 59.736 77.3217 59.8094 76.9773L60.0814 75.6413" stroke="#3D2D3E" stroke-width="2"/>
<path d="M60.0815 75.6413L62.1535 73.1213" stroke="#573E4B" stroke-width="2"/>
<path d="M62.1533 73.1212C63.0387 72.9186 63.796 73.2679 64.4253 74.1692" stroke="#3D2D3E" stroke-width="2"/>
<path d="M64.4253 74.1693C62.6706 77.1773 61.3266 80.3746 60.3933 83.7613C60.34 83.9426 60.3827 83.9666 60.5213 83.8333L65.3613 79.1773" stroke="#573E4B" stroke-width="2"/>
<path d="M65.3618 79.1772C66.1725 79.6359 66.7912 80.1852 67.2178 80.8252C67.3072 80.9614 67.4235 81.0778 67.5597 81.1674C67.6959 81.2569 67.8491 81.3178 68.0101 81.3462C68.171 81.3747 68.3362 81.3701 68.4957 81.3328C68.6552 81.2955 68.8056 81.2262 68.9378 81.1292C73.4658 77.8092 77.9298 74.0972 82.5538 71.1212C88.7458 67.1425 94.9592 63.1985 101.194 59.2892C111.01 53.1372 116.434 46.0972 123.322 37.8092C123.498 37.5959 123.45 37.4625 123.178 37.4092C120.922 36.9612 115.97 37.6492 115.81 35.6732" stroke="#3D2D3E" stroke-width="2"/>
<path d="M118.33 177.657C117.791 179.428 117.86 181.148 118.538 182.817C118.644 183.084 118.842 183.222 119.13 183.233C122.735 183.366 124.959 185.326 125.802 189.113C126.788 193.55 127.29 196.772 127.306 198.777" stroke="#FCAB89" stroke-width="2"/>
<path d="M127.306 198.777C119.122 199.105 111.722 195.513 109.89 187.345" stroke="#8F928B" stroke-width="2"/>
<path d="M109.89 187.345C109.927 187.185 109.908 187.041 109.834 186.913C109.7 186.684 109.538 186.662 109.346 186.849C109.18 187.014 108.986 187.097 108.762 187.097" stroke="#949990" stroke-width="2"/>
<path d="M129.593 73.6813L128.849 75.7293C128.764 75.9586 128.775 76.1879 128.881 76.4173C129.292 77.2866 129.945 77.8093 130.841 77.9853C131.13 78.0437 131.402 78.1663 131.637 78.3439C131.872 78.5215 132.065 78.7497 132.2 79.0115C132.335 79.2734 132.409 79.5622 132.418 79.8568C132.427 80.1513 132.369 80.444 132.249 80.7133C131.972 81.3479 131.887 82.0013 131.993 82.6733C132.036 82.9399 131.999 83.1933 131.881 83.4333C130.929 85.4733 131.513 87.4173 131.345 89.1053C131.105 91.4973 130.553 93.6733 131.441 96.0493C131.785 96.9693 132.825 99.6573 132.185 100.473C132.121 100.558 132.077 100.657 132.058 100.761C132.038 100.865 132.044 100.972 132.073 101.073C132.945 103.841 131.209 105.841 132.473 108.361C132.591 108.601 132.636 108.855 132.609 109.121C132.161 113.617 132.865 118.569 132.761 122.473C132.721 123.881 133.353 124.777 134.049 125.897C134.193 126.132 134.249 126.385 134.217 126.657C133.913 129.273 134.361 131.353 133.681 133.985C132.329 139.185 134.257 143.769 134.249 148.409C134.249 148.703 134.364 148.94 134.593 149.121C135.649 149.948 136.639 150.852 137.561 151.833C137.764 152.047 137.857 152.303 137.841 152.601L137.721 154.865" stroke="#FED1B1" stroke-width="2"/>
<path d="M137.722 154.865C130.09 158.556 122.46 158.377 114.834 154.329C114.503 154.153 114.308 153.796 114.25 153.257C114.223 153.028 114.095 152.895 113.866 152.857C111.018 152.425 111.266 155.449 112.546 156.729C112.59 156.775 112.647 156.808 112.709 156.823C112.772 156.838 112.837 156.834 112.897 156.813C112.958 156.792 113.011 156.754 113.051 156.704C113.091 156.654 113.115 156.593 113.122 156.529L113.25 155.497C113.258 155.442 113.28 155.39 113.314 155.345C113.348 155.301 113.392 155.266 113.442 155.243C113.493 155.221 113.548 155.212 113.603 155.217C113.657 155.222 113.709 155.242 113.754 155.273C116.01 156.82 118.412 157.94 120.962 158.633" stroke="#C28674" stroke-width="2"/>
<path d="M120.961 158.633L117.545 162.217C117.337 162.436 117.279 162.692 117.369 162.985L119.529 169.993C119.604 170.228 119.601 170.463 119.521 170.697C118.668 173.289 118.876 175.697 120.145 177.921" stroke="#FED1B1" stroke-width="2"/>
<path d="M120.146 177.921L118.33 177.657" stroke="#FDB593" stroke-width="2"/>
<path d="M118.33 177.657C117.588 177.812 117.135 177.78 116.97 177.561" stroke="#FEC9A9" stroke-width="2"/>
<path d="M116.969 177.561C100.513 175.313 84.5374 168.129 75.6494 153.449" stroke="#8A736A" stroke-width="2"/>
<path d="M75.6496 153.449L76.8096 153.153C77.0389 153.095 77.2309 152.977 77.3856 152.801L79.1216 150.865C79.2709 150.7 79.2896 150.521 79.1776 150.329C78.2656 148.767 77.6816 146.783 77.4256 144.377C75.7776 128.66 75.2149 113.967 75.7376 100.297" stroke="#FEC9A9" stroke-width="2"/>
<path d="M169.457 105.153C165.671 105.964 164.025 107.583 164.521 110.009" stroke="#FEC7A7" stroke-width="2"/>
<path d="M164.522 110.009C161.172 105.273 156.738 102.849 151.218 102.737C148.706 102.681 145.21 103.609 143.842 105.609C142.45 107.649 143.314 109.969 145.794 110.361C146.05 110.399 146.295 110.367 146.53 110.265C154.978 106.641 161.786 110.961 167.522 117.449" stroke="#8E736F" stroke-width="2"/>
<path d="M167.521 117.449L163.969 120.817C163.911 120.876 163.86 120.889 163.817 120.857C163.791 120.836 163.769 120.812 163.753 120.785C163.721 120.721 163.689 120.721 163.657 120.785C163.375 121.425 162.961 122.017 162.417 122.561C162.22 122.753 162.204 122.961 162.369 123.185C162.609 123.511 162.841 123.831 163.065 124.145C163.215 124.359 163.183 124.54 162.969 124.689C162.857 124.764 162.711 124.809 162.529 124.825" stroke="#FEC7A7" stroke-width="2"/>
<path d="M162.529 124.825C154.969 119.081 145.353 123.561 144.945 133.177" stroke="#8A7168" stroke-width="2"/>
<path d="M144.945 133.177C144.673 133.06 144.385 133.161 144.081 133.481C143.905 133.663 143.817 133.876 143.817 134.121C143.748 139.151 145.758 142.639 149.849 144.585" stroke="#FEE6D7" stroke-width="2"/>
<path d="M149.85 144.585C146.89 145.729 148.002 147.873 146.442 149.561C146.22 149.8 146.055 150.086 145.96 150.398C145.865 150.71 145.842 151.04 145.893 151.362C145.943 151.684 146.067 151.99 146.253 152.258C146.44 152.525 146.685 152.746 146.97 152.905C152.884 156.185 159.29 156.855 166.186 154.913" stroke="#FDBA99" stroke-width="2"/>
<path d="M166.186 154.913C167.295 155.255 167.94 156.113 168.122 157.489C168.154 157.729 168.263 157.929 168.45 158.089C168.78 158.372 168.948 158.737 168.954 159.185C168.954 159.431 169.036 159.649 169.202 159.841L170.626 161.497" stroke="#FEC7A7" stroke-width="2"/>
<path d="M170.626 161.497C160.818 170.953 148.426 176.321 134.77 177.761" stroke="#8E736F" stroke-width="2"/>
<path d="M134.77 177.761C129.879 178.209 125.004 178.263 120.146 177.921" stroke="#FDB291" stroke-width="2"/>
<path d="M120.962 158.633C128.746 160.633 134.546 158.889 141.37 154.633C141.621 154.479 141.693 154.262 141.586 153.985C141.239 153.132 140.589 152.582 139.634 152.337C139.25 152.241 139.13 152.377 139.274 152.745C139.642 153.673 139.125 154.38 137.722 154.865" stroke="#C28472" stroke-width="2"/>
<path d="M182.122 130.161C183.138 131.977 193.954 125.305 195.402 135.081C195.439 135.359 195.322 135.527 195.05 135.585C194.783 135.639 194.498 135.609 194.194 135.497" stroke="#FC9E7B" stroke-width="2"/>
<path d="M194.194 135.497C192.034 129.873 180.514 131.673 182.114 139.713" stroke="#FD8A65" stroke-width="2"/>
<path d="M182.113 139.713C179.015 142.684 179.372 145.849 183.185 149.209" stroke="#FC9E7B" stroke-width="2"/>
<path d="M183.185 149.209L179.585 148.065" stroke="#8D5F58" stroke-width="2"/>
<path d="M179.586 148.065C178.418 148.209 177.623 148.993 177.202 150.417C177.095 150.775 176.863 150.905 176.506 150.809C176.01 150.676 175.599 150.412 175.274 150.017C175.13 149.847 175.074 149.649 175.106 149.425L175.426 147.385C175.463 147.156 175.407 146.953 175.258 146.777C174.772 146.223 174.607 145.556 174.762 144.777C176.57 135.425 176.154 125.497 175.346 116.793C174.866 111.636 172.903 107.756 169.458 105.153" stroke="#FDB290" stroke-width="2"/>
<path d="M169.458 105.153C161.418 99.7453 151.77 94.6653 145.218 89.4253C139.442 84.8066 134.234 79.5586 129.594 73.6813" stroke="#FDBA99" stroke-width="2"/>
<path d="M129.593 73.6812L126.417 70.0812C126.374 70.032 126.321 69.9932 126.26 69.9676C126.2 69.9421 126.135 69.9304 126.069 69.9335C126.003 69.9365 125.938 69.9542 125.879 69.9853C125.821 70.0164 125.769 70.0601 125.729 70.1132C113.769 86.2972 94.2413 95.0492 75.7373 100.297" stroke="#FDBC9B" stroke-width="2"/>
<path d="M75.7375 100.297L72.1455 102.225C72.0632 102.27 71.9689 102.288 71.8758 102.277C71.7827 102.266 71.6955 102.225 71.6266 102.162C71.5576 102.098 71.5104 102.014 71.4916 101.922C71.4727 101.83 71.4832 101.735 71.5215 101.649C72.0868 100.327 72.2948 98.8414 72.1455 97.1934" stroke="#FDB290" stroke-width="2"/>
<path d="M179.586 148.065C177.245 153.201 174.258 157.679 170.626 161.497" stroke="#8E6C66" stroke-width="2"/>
<path d="M166.186 154.913C169.13 153.617 175.378 148.225 170.954 144.993C169.162 143.681 167.503 142.753 165.978 142.209C164.898 141.817 163.842 142.273 162.722 141.481" stroke="#FDB290" stroke-width="2"/>
<path d="M162.722 141.481C163.058 140.815 163.452 140.335 163.906 140.041" stroke="#FEDECE" stroke-width="2"/>
<path d="M163.906 140.041C165.778 139.105 167.25 134.929 167.874 133.393C167.929 133.257 168.011 133.133 168.114 133.03C168.217 132.927 168.34 132.846 168.474 132.793L170.474 131.985C170.53 131.962 170.578 131.921 170.609 131.868C170.64 131.815 170.653 131.754 170.646 131.693C170.639 131.632 170.612 131.575 170.569 131.531C170.526 131.487 170.47 131.458 170.41 131.449L168.234 131.121C167.999 131.084 167.823 130.961 167.706 130.753C166.42 128.444 164.695 126.468 162.53 124.825" stroke="#8A6960" stroke-width="2"/>
<path d="M71.1773 138.169C70.724 139.055 70.0466 139.524 69.1453 139.577C68.8573 139.599 68.692 139.468 68.6493 139.185C68.436 137.767 67.892 136.476 67.0173 135.313C66.852 135.095 66.6386 134.953 66.3773 134.889C63.2306 134.073 61.132 135.164 60.0813 138.161C59.9906 138.417 60.0306 138.652 60.2013 138.865C60.644 139.431 60.8386 140.076 60.7853 140.801C60.7533 141.244 60.6173 141.279 60.3773 140.905L58.3213 137.697" stroke="#FD8A65" stroke-width="2"/>
<path d="M162.722 141.481C159.034 143.217 153.994 145.289 149.85 144.585" stroke="#FDD1C0" stroke-width="2"/>
<path d="M163.906 140.041C166.874 133.417 163.362 126.153 155.994 126.153C155.942 126.151 155.892 126.166 155.85 126.196C155.808 126.226 155.779 126.27 155.765 126.32C155.752 126.369 155.757 126.422 155.778 126.469C155.799 126.516 155.836 126.554 155.882 126.577C159.754 128.679 161.188 131.913 160.186 136.281C157.618 147.433 144.794 143.241 144.946 133.177" stroke="#8A8890" stroke-width="2"/>
<path d="M164.521 110.009C165.999 112.132 166.999 114.612 167.521 117.449" stroke="#8E6C66" stroke-width="2"/>
<path d="M104.353 104.665C99.4094 102.025 94.7587 101.999 90.4014 104.585C86.3854 106.969 83.3374 110.097 83.3214 114.913C83.3197 114.997 83.3437 115.078 83.3899 115.148C83.4361 115.217 83.5024 115.27 83.58 115.301C83.6575 115.331 83.7425 115.337 83.8236 115.318C83.9046 115.299 83.9778 115.255 84.0334 115.193C89.4147 109.273 95.8574 107.601 103.361 110.177C106.953 111.417 107.393 106.281 104.353 104.665Z" stroke="#8E7671" stroke-width="2"/>
<path d="M86.1697 139.833C86.1483 140.351 85.8203 140.873 85.1857 141.401C85.0861 141.484 85.0105 141.591 84.9668 141.712C84.9232 141.833 84.9131 141.964 84.9377 142.089C85.1243 143.108 84.9564 144.028 84.4337 144.849C84.358 144.965 84.2489 145.055 84.1205 145.108C83.9921 145.16 83.8504 145.173 83.7137 145.145C82.0977 144.809 80.5483 145.007 79.0657 145.737C78.9755 145.779 78.9024 145.85 78.8588 145.94C78.8152 146.029 78.8037 146.131 78.8262 146.227C78.8488 146.324 78.904 146.41 78.9826 146.471C79.0612 146.532 79.1583 146.564 79.2577 146.561L82.9217 146.593C83.0203 146.593 83.1179 146.614 83.2074 146.656C83.2969 146.698 83.3761 146.759 83.4395 146.835C83.5028 146.912 83.5488 147.001 83.5741 147.098C83.5993 147.194 83.6033 147.295 83.5857 147.393C83.3563 148.625 82.8203 149.705 81.9777 150.633C81.8432 150.782 81.77 150.976 81.773 151.176C81.776 151.377 81.8548 151.569 81.9937 151.713C87.3217 157.257 98.6497 156.801 104.794 152.777C107.65 150.913 108.354 147.409 105.626 145.057C104.874 144.412 104.156 143.743 103.474 143.049" stroke="#FEC9A9" stroke-width="2"/>
<path d="M103.474 143.049C107.063 140.66 108.394 136.969 107.466 131.977C107.412 131.684 107.26 131.537 107.01 131.537C106.732 131.537 106.596 131.676 106.602 131.953C106.607 132.247 106.559 132.412 106.458 132.449" stroke="#FEE8D9" stroke-width="2"/>
<path d="M106.458 132.449C106.218 127.047 103.879 123.807 99.4416 122.729C92.5776 121.065 86.4977 125.345 83.6577 131.513C83.551 131.743 83.3696 131.844 83.1136 131.817L80.6496 131.553C80.539 131.538 80.4265 131.562 80.332 131.621C80.2375 131.681 80.1673 131.772 80.1337 131.879C80.1001 131.985 80.1053 132.1 80.1486 132.203C80.1918 132.306 80.2701 132.391 80.3697 132.441C83.4843 134.175 85.4177 136.639 86.1697 139.833" stroke="#8A736A" stroke-width="2"/>
<path d="M106.457 132.449C106.193 137.129 103.481 143.105 98.0334 142.505C90.6174 141.697 86.4413 127.257 96.3933 127.489C96.692 127.495 96.796 127.356 96.7053 127.073C96.6013 126.737 96.2014 126.529 95.8334 126.537C87.2254 126.841 84.6653 133.369 87.2093 141.025" stroke="#8A8890" stroke-width="2"/>
<path d="M87.2094 141.025L86.1694 139.833" stroke="#8A6960" stroke-width="2"/>
<path d="M103.473 143.049C101.575 143.742 99.8148 143.974 98.1935 143.745C94.3535 143.196 90.6921 142.289 87.2095 141.025" stroke="#FEDECE" stroke-width="2"/>
<path d="M124.521 145.369L123.681 145.209C123.578 145.19 123.471 145.21 123.38 145.263C123.289 145.317 123.22 145.401 123.186 145.501C123.153 145.6 123.156 145.709 123.195 145.807C123.234 145.905 123.308 145.985 123.401 146.033C127.841 148.169 132.681 142.809 128.377 139.761C128.164 139.612 128.047 139.665 128.025 139.921C127.823 142.279 126.759 144.076 124.833 145.313C124.741 145.37 124.63 145.39 124.521 145.369Z" stroke="#F8A67A" stroke-width="2"/>
<path d="M102.194 130.017L101.13 131.321C101.096 131.363 101.07 131.411 101.054 131.462C101.038 131.513 101.033 131.567 101.038 131.621C101.043 131.674 101.059 131.726 101.084 131.774C101.11 131.821 101.144 131.863 101.186 131.897L101.354 132.033C101.523 132.171 101.71 132.285 101.903 132.369C102.095 132.452 102.291 132.503 102.477 132.518C102.664 132.534 102.838 132.514 102.99 132.459C103.141 132.405 103.268 132.317 103.362 132.201L103.506 132.033C103.6 131.917 103.661 131.775 103.683 131.615C103.705 131.455 103.689 131.28 103.635 131.1C103.582 130.92 103.492 130.739 103.371 130.567C103.25 130.395 103.1 130.235 102.93 130.097L102.762 129.961C102.679 129.894 102.573 129.863 102.466 129.873C102.36 129.884 102.262 129.936 102.194 130.017Z" stroke="#818084" stroke-width="2"/>
<path d="M153.009 129.649L152.825 130.601C152.772 130.873 152.884 130.999 153.161 130.977C153.801 130.924 154.207 130.617 154.377 130.057C154.419 129.921 154.423 129.777 154.389 129.639C154.355 129.501 154.285 129.375 154.185 129.273C153.817 128.889 153.375 128.615 152.857 128.449C152.459 128.322 151.974 128.315 151.503 128.429C151.031 128.543 150.609 128.769 150.323 129.061C150.037 129.353 149.909 129.689 149.966 129.999C150.022 130.309 150.258 130.571 150.625 130.729L151.737 131.217C151.788 131.24 151.844 131.247 151.898 131.237C151.953 131.227 152.003 131.201 152.042 131.162C152.081 131.123 152.107 131.073 152.117 131.018C152.127 130.964 152.12 130.908 152.097 130.857C151.756 130.1 151.911 129.577 152.561 129.289C152.94 129.124 153.089 129.244 153.009 129.649Z" stroke="#8A8890" stroke-width="2"/>
<path d="M148.218 137.825C147.89 139.737 149.866 141.857 151.602 141.793C156.546 141.625 161.378 136.553 158.658 131.593C158.568 131.431 158.426 131.304 158.255 131.232C158.084 131.161 157.894 131.149 157.715 131.199C157.536 131.249 157.38 131.358 157.271 131.508C157.162 131.658 157.106 131.84 157.114 132.025C157.322 137.297 152.506 137.033 148.69 137.385C148.423 137.412 148.266 137.558 148.218 137.825Z" stroke="#261E2F" stroke-width="2"/>
<path d="M209.866 75.2013C215.418 87.9533 218.684 100.076 219.666 111.569C223.404 155.271 207.972 190.164 173.37 216.249C171.7 212.127 169.244 207.292 166.002 201.745C161.602 194.209 157.626 191.553 149.242 188.209C147.583 187.516 145.895 187.239 144.178 187.377L144.202 186.609C164.93 189.625 196.81 185.633 207.746 164.745C207.782 164.675 207.803 164.598 207.808 164.519C207.813 164.44 207.801 164.361 207.774 164.287C207.747 164.213 207.705 164.146 207.65 164.09C207.596 164.034 207.53 163.99 207.458 163.961C200.338 161.151 195.511 156.033 192.978 148.609C195.026 146.94 196.61 145.38 197.73 143.929C201.927 138.484 202.604 132.873 199.762 127.097C209.794 91.6413 196.914 50.5613 159.322 37.6653C148.116 33.9533 136.735 33.3906 125.178 35.9773C123.796 36.2866 120.674 36.1853 115.81 35.6733C90.4335 35.0893 67.4415 47.4733 56.3375 70.5693C48.6735 87.5853 48.1775 106.369 53.0895 124.553L53.5295 126.257C53.5425 126.308 53.5686 126.354 53.6052 126.391C53.6418 126.429 53.6877 126.456 53.738 126.469C53.7884 126.483 53.8415 126.483 53.892 126.47C53.9425 126.457 53.9886 126.43 54.0255 126.393C58.9535 121.492 63.5322 121.14 67.7615 125.337C64.5455 123.311 61.3455 122.999 58.1615 124.401C56.4709 125.143 55.2495 126.049 54.4975 127.121C54.3535 127.335 54.1695 127.503 53.9455 127.625C50.9135 129.305 51.7215 136.777 52.8895 139.577C54.7189 142.687 57.2015 145.492 60.3375 147.993C58.2735 156.34 53.5562 161.961 46.1855 164.857C45.9135 164.964 45.8602 165.135 46.0255 165.369C59.5775 184.689 85.0575 189.641 106.898 186.617L108.306 186.449C108.748 186.588 108.9 186.804 108.762 187.097L101.826 189.153C90.7855 193.505 85.4015 205.449 81.4815 215.945C61.1509 202.543 47.5615 184.3 40.7135 161.217C36.4789 146.924 35.0975 131.711 36.5695 115.577C40.6335 71.0653 73.9455 33.3053 118.786 26.9533C125.474 26.0093 132.994 26.2733 141.346 27.7453C163.282 31.6226 181.674 41.588 196.522 57.6413C201.354 62.8626 205.802 68.716 209.866 75.2013Z" fill="#EBECE6"/>
<path d="M159.321 37.6652C158.015 38.0332 157.985 39.0972 159.233 40.8572C159.388 41.0705 159.591 41.2199 159.841 41.3052C161.916 41.9932 163.1 43.4145 163.393 45.5692C163.633 47.3692 158.913 53.8572 157.905 55.2652C156.761 56.8732 156.377 58.0972 153.985 57.8172C153.724 57.7905 153.588 57.9105 153.577 58.1772C153.577 58.3159 153.644 58.3772 153.777 58.3612C154.279 58.2972 154.319 58.4385 153.897 58.7852C153.033 59.5132 152.849 62.0012 152.601 63.0972C152.544 63.3473 152.423 63.5785 152.251 63.7685C152.078 63.9584 151.86 64.1008 151.616 64.182C151.373 64.2631 151.113 64.2803 150.861 64.2318C150.609 64.1833 150.373 64.0709 150.177 63.9052C149.665 63.4679 149.063 63.3959 148.369 63.6892C148.241 63.7425 148.177 63.8385 148.177 63.9772C148.177 64.0839 148.185 64.2012 148.201 64.3292C148.206 64.3586 148.204 64.3885 148.196 64.4174C148.189 64.4462 148.175 64.4733 148.156 64.4971C148.138 64.521 148.114 64.541 148.088 64.5561C148.061 64.5712 148.032 64.5811 148.001 64.5852L145.881 64.8412C145.588 64.8785 145.329 64.8039 145.105 64.6172C144.775 64.3399 144.399 64.1292 143.977 63.9852C143.736 63.9015 143.524 63.7549 143.361 63.5612C136.812 55.9078 131.124 47.6572 126.297 38.8092C126.25 38.7229 126.171 38.6587 126.076 38.6303C125.982 38.6019 125.881 38.6115 125.793 38.6572L125.401 38.8732C125.172 38.9959 125.111 39.1772 125.217 39.4172C126.233 41.6652 127.137 43.4652 128.065 46.0732C130.249 52.2252 135.025 58.4412 138.961 63.3052C145.145 70.9452 153.913 77.4332 162.233 83.0892C162.479 83.2545 162.455 83.3505 162.161 83.3772C161.681 83.4172 161.265 83.3932 160.833 83.1292C144.641 73.1452 130.921 62.5212 124.201 44.9772C124.158 44.8698 124.085 44.7769 123.991 44.71C123.896 44.6432 123.785 44.6052 123.67 44.601C123.555 44.5967 123.441 44.6263 123.344 44.6861C123.247 44.7458 123.169 44.8331 123.121 44.9372C113.593 65.2172 93.8733 76.8092 74.0413 84.9692C66.7373 87.9692 62.4493 92.5292 61.4813 100.641C61.4547 100.86 61.3773 101.06 61.2493 101.241C60.8387 101.807 60.6813 102.425 60.7773 103.097C60.8147 103.369 60.6973 103.505 60.4253 103.505C56.8013 103.497 60.2333 119.025 60.4973 121.025C60.54 121.324 60.4173 121.513 60.1293 121.593C58.3587 122.1 56.8333 123.012 55.5533 124.329C55.372 124.511 55.1693 124.543 54.9453 124.425C54.1507 124.015 53.532 124.057 53.0893 124.553C48.1773 106.369 48.6733 87.5852 56.3373 70.5692C57.436 70.8945 58.2413 71.4572 58.7533 72.2572C58.8256 72.3701 58.8572 72.5038 58.8426 72.6352C58.828 72.7667 58.7681 72.8876 58.6733 72.9772C57.4253 74.1612 56.8787 75.6545 57.0333 77.4572C57.0631 77.7837 57.2114 78.0603 57.4516 78.2371C57.6918 78.4139 58.0079 78.4793 58.343 78.4213C58.6781 78.3634 59.01 78.186 59.2789 77.9212C59.5478 77.6564 59.7359 77.3216 59.8093 76.9772L60.0813 75.6412L62.1533 73.1212C63.0387 72.9185 63.796 73.2679 64.4253 74.1692C62.6707 77.1772 61.3267 80.3745 60.3933 83.7612C60.34 83.9425 60.3827 83.9665 60.5213 83.8332L65.3613 79.1772C66.172 79.6359 66.7907 80.1852 67.2173 80.8252C67.3067 80.9613 67.423 81.0778 67.5592 81.1673C67.6954 81.2569 67.8486 81.3178 68.0096 81.3462C68.1705 81.3747 68.3357 81.3701 68.4952 81.3328C68.6547 81.2955 68.8051 81.2262 68.9373 81.1292C73.4653 77.8092 77.9293 74.0972 82.5533 71.1212C88.7453 67.1425 94.9587 63.1985 101.193 59.2892C111.009 53.1372 116.433 46.0972 123.321 37.8092C123.497 37.5959 123.449 37.4625 123.177 37.4092C120.921 36.9612 115.969 37.6492 115.809 35.6732C120.673 36.1852 123.796 36.2865 125.177 35.9772C136.735 33.3905 148.116 33.9532 159.321 37.6652Z" fill="#35293C"/>
<path d="M115.809 35.6733C115.969 37.6493 120.921 36.9613 123.177 37.4093C123.449 37.4626 123.497 37.596 123.321 37.8093C116.433 46.0973 111.009 53.1373 101.193 59.2893C94.9587 63.1986 88.7454 67.1426 82.5534 71.1213C77.9294 74.0973 73.4654 77.8093 68.9374 81.1293C68.8052 81.2263 68.6548 81.2956 68.4953 81.3329C68.3358 81.3702 68.1706 81.3748 68.0096 81.3463C67.8487 81.3179 67.6955 81.257 67.5593 81.1675C67.4231 81.0779 67.3068 80.9615 67.2174 80.8253C66.7907 80.1853 66.1721 79.636 65.3614 79.1773C74.7641 69.1186 85.7267 61.1053 98.2494 55.1373C98.3102 55.107 98.359 55.0573 98.3882 54.9961C98.4174 54.9348 98.4253 54.8655 98.4106 54.7993C98.3959 54.733 98.3594 54.6736 98.307 54.6305C98.2546 54.5874 98.1892 54.563 98.1214 54.5613C85.1374 54.2253 71.5214 64.1213 64.4254 74.1693C63.7961 73.268 63.0387 72.9186 62.1534 73.1213C72.0094 58.4653 87.2254 49.0733 103.225 42.3693C103.357 42.3137 103.475 42.2317 103.573 42.1284C103.671 42.0251 103.746 41.9028 103.793 41.7693L103.993 41.2413C104.008 41.2008 104.011 41.1573 104.004 41.115C103.996 41.0727 103.978 41.0331 103.951 41C103.923 40.967 103.888 40.9416 103.847 40.9264C103.807 40.9112 103.764 40.9067 103.721 40.9133C86.9934 43.1693 72.2414 51.4893 63.5214 66.3133C61.6867 69.4173 60.5401 72.5266 60.0814 75.6413L59.8094 76.9773C59.736 77.3217 59.5479 77.6565 59.279 77.9213C59.0101 78.1861 58.6781 78.3635 58.3431 78.4214C58.008 78.4794 57.6918 78.4141 57.4517 78.2373C57.2115 78.0605 57.0632 77.7838 57.0334 77.4573C56.8787 75.6546 57.4254 74.1613 58.6734 72.9773C58.7682 72.8877 58.828 72.7668 58.8426 72.6354C58.8572 72.5039 58.8257 72.3702 58.7534 72.2573C58.2414 71.4573 57.4361 70.8946 56.3374 70.5693C67.4414 47.4733 90.4334 35.0893 115.809 35.6733Z" fill="#443040"/>
<path d="M159.321 37.6653C196.913 50.5613 209.793 91.6413 199.761 127.097C193.969 120.145 184.665 121.481 182.121 130.161C182.057 130.252 181.975 130.311 181.873 130.337C181.836 130.348 181.796 130.349 181.758 130.341C181.719 130.333 181.683 130.315 181.653 130.29C181.623 130.265 181.6 130.232 181.585 130.196C181.571 130.16 181.565 130.12 181.569 130.081C182.617 117.673 183.057 108.121 173.865 98.7933C172.857 97.7746 171.559 96.9426 169.969 96.2973C150.577 88.4653 134.081 79.2493 124.313 60.0333C123.903 59.228 123.497 59.2306 123.097 60.0413C114.217 77.9533 94.9854 86.8893 76.9854 93.5933C74.692 94.452 73.0787 95.652 72.1454 97.1933C69.724 101.023 68.5347 104.281 68.5774 106.969C68.6787 114.175 69.3987 121.233 70.7374 128.145C71.2974 131.041 70.996 131.159 69.8334 128.497C69.508 127.761 68.8174 126.708 67.7614 125.337C63.532 121.14 58.9534 121.492 54.0254 126.393C53.9884 126.43 53.9423 126.457 53.8919 126.47C53.8414 126.483 53.7882 126.483 53.7378 126.469C53.6875 126.456 53.6416 126.429 53.605 126.391C53.5684 126.354 53.5423 126.308 53.5294 126.257L53.0894 124.553C53.532 124.057 54.1507 124.015 54.9454 124.425C55.1694 124.543 55.372 124.511 55.5534 124.329C56.8334 123.012 58.3587 122.1 60.1294 121.593C60.4174 121.513 60.54 121.324 60.4974 121.025C60.2334 119.025 56.8014 103.497 60.4254 103.505C60.6974 103.505 60.8147 103.369 60.7774 103.097C60.6814 102.425 60.8387 101.807 61.2494 101.241C61.3774 101.06 61.4547 100.86 61.4814 100.641C62.4494 92.5293 66.7374 87.9693 74.0414 84.9693C93.8734 76.8093 113.593 65.2173 123.121 44.9373C123.169 44.8332 123.247 44.7459 123.344 44.6862C123.441 44.6264 123.555 44.5968 123.67 44.6011C123.785 44.6053 123.896 44.6433 123.991 44.7101C124.085 44.777 124.159 44.8699 124.201 44.9773C130.921 62.5213 144.641 73.1453 160.833 83.1293C161.265 83.3933 161.681 83.4173 162.161 83.3773C162.455 83.3506 162.479 83.2546 162.233 83.0893C153.913 77.4333 145.145 70.9453 138.961 63.3053C135.025 58.4413 130.249 52.2253 128.065 46.0733C127.137 43.4653 126.233 41.6653 125.217 39.4173C125.111 39.1773 125.172 38.996 125.401 38.8733L125.793 38.6573C125.881 38.6116 125.982 38.602 126.076 38.6304C126.171 38.6588 126.25 38.723 126.297 38.8093C131.124 47.6573 136.812 55.9079 143.361 63.5613C143.524 63.755 143.737 63.9016 143.977 63.9853C144.399 64.1293 144.775 64.34 145.105 64.6173C145.329 64.804 145.588 64.8786 145.881 64.8413L148.001 64.5853C148.032 64.5812 148.061 64.5713 148.088 64.5562C148.114 64.5411 148.138 64.5211 148.156 64.4972C148.175 64.4734 148.189 64.4463 148.196 64.4175C148.204 64.3886 148.206 64.3587 148.201 64.3293C148.185 64.2013 148.177 64.084 148.177 63.9773C148.177 63.8386 148.241 63.7426 148.369 63.6893C149.063 63.3959 149.665 63.468 150.177 63.9053C150.373 64.071 150.609 64.1834 150.861 64.2319C151.113 64.2804 151.373 64.2632 151.616 64.1821C151.86 64.1009 152.078 63.9585 152.251 63.7686C152.423 63.5786 152.544 63.3474 152.601 63.0973C152.849 62.0013 153.033 59.5133 153.897 58.7853C154.319 58.4386 154.279 58.2973 153.777 58.3613C153.644 58.3773 153.577 58.316 153.577 58.1773C153.588 57.9106 153.724 57.7906 153.985 57.8173C156.377 58.0973 156.761 56.8733 157.905 55.2653C158.913 53.8573 163.633 47.3693 163.393 45.5693C163.1 43.4146 161.916 41.9933 159.841 41.3053C159.591 41.22 159.388 41.0706 159.233 40.8573C157.985 39.0973 158.015 38.0333 159.321 37.6653Z" fill="#1E182E"/>
<path d="M62.1535 73.1214L60.0815 75.6414C60.5402 72.5267 61.6869 69.4174 63.5215 66.3134C72.2415 51.4894 86.9935 43.1694 103.722 40.9134C103.764 40.9067 103.807 40.9112 103.848 40.9264C103.888 40.9416 103.923 40.967 103.951 41.0001C103.978 41.0332 103.997 41.0728 104.004 41.1151C104.012 41.1574 104.008 41.2009 103.994 41.2414L103.794 41.7694C103.746 41.9029 103.671 42.0252 103.573 42.1285C103.475 42.2317 103.357 42.3138 103.226 42.3694C87.2255 49.0734 72.0095 58.4654 62.1535 73.1214Z" fill="#785359"/>
<path d="M65.3613 79.1773L60.5213 83.8333C60.3827 83.9666 60.34 83.9426 60.3933 83.7613C61.3266 80.3746 62.6706 77.1773 64.4253 74.1693C71.5213 64.1213 85.1373 54.2253 98.1213 54.5613C98.1892 54.563 98.2545 54.5873 98.3069 54.6305C98.3593 54.6736 98.3958 54.733 98.4105 54.7993C98.4252 54.8655 98.4174 54.9348 98.3881 54.996C98.3589 55.0573 98.3101 55.107 98.2493 55.1373C85.7267 61.1053 74.764 69.1186 65.3613 79.1773Z" fill="#785359"/>
<path d="M182.121 130.161C183.137 131.977 193.954 125.305 195.402 135.081C195.439 135.359 195.322 135.527 195.049 135.585C194.783 135.639 194.497 135.609 194.193 135.497C192.033 129.873 180.514 131.673 182.114 139.713C179.015 142.684 179.372 145.849 183.186 149.209L179.586 148.065C178.418 148.209 177.623 148.993 177.201 150.417C177.095 150.775 176.863 150.905 176.506 150.809C176.01 150.676 175.599 150.412 175.273 150.017C175.13 149.847 175.074 149.649 175.106 149.425L175.425 147.385C175.463 147.156 175.407 146.953 175.258 146.777C174.772 146.223 174.607 145.556 174.762 144.777C176.57 135.425 176.153 125.497 175.345 116.793C174.865 111.636 172.903 107.756 169.458 105.153C161.418 99.7453 151.77 94.6653 145.218 89.4253C139.442 84.8066 134.234 79.5586 129.594 73.6813L126.418 70.0813C126.374 70.0321 126.321 69.9933 126.261 69.9677C126.2 69.9422 126.135 69.9305 126.069 69.9336C126.003 69.9366 125.938 69.9543 125.88 69.9854C125.821 70.0165 125.77 70.0602 125.73 70.1133C113.77 86.2973 94.2415 95.0493 75.7375 100.297L72.1455 102.225C72.0632 102.27 71.9689 102.288 71.8758 102.277C71.7827 102.265 71.6955 102.225 71.6266 102.161C71.5576 102.098 71.5104 102.014 71.4916 101.922C71.4727 101.83 71.4832 101.735 71.5215 101.649C72.0868 100.327 72.2948 98.8413 72.1455 97.1933C73.0788 95.6519 74.6922 94.4519 76.9855 93.5933C94.9855 86.8893 114.218 77.9533 123.098 60.0413C123.498 59.2306 123.903 59.2279 124.314 60.0333C134.082 79.2493 150.577 88.4653 169.97 96.2973C171.559 96.9426 172.857 97.7746 173.866 98.7933C183.057 108.121 182.617 117.673 181.569 130.081C181.565 130.12 181.571 130.16 181.586 130.196C181.6 130.232 181.624 130.265 181.654 130.29C181.684 130.315 181.719 130.333 181.758 130.341C181.796 130.349 181.836 130.348 181.873 130.337C181.975 130.311 182.057 130.252 182.121 130.161Z" fill="#FCA582"/>
<path d="M129.594 73.6812L128.85 75.7292C128.764 75.9585 128.775 76.1878 128.882 76.4172C129.292 77.2865 129.946 77.8092 130.842 77.9852C131.13 78.0436 131.402 78.1662 131.637 78.3438C131.873 78.5215 132.065 78.7496 132.2 79.0114C132.335 79.2733 132.41 79.5621 132.418 79.8567C132.427 80.1512 132.369 80.4439 132.25 80.7132C131.972 81.3478 131.887 82.0012 131.994 82.6732C132.036 82.9398 131.999 83.1932 131.882 83.4332C130.93 85.4732 131.514 87.4172 131.346 89.1052C131.106 91.4972 130.554 93.6732 131.442 96.0492C131.786 96.9692 132.826 99.6572 132.186 100.473C132.121 100.558 132.077 100.656 132.058 100.761C132.038 100.865 132.044 100.972 132.074 101.073C132.946 103.841 131.21 105.841 132.474 108.361C132.591 108.601 132.636 108.855 132.61 109.121C132.162 113.617 132.866 118.569 132.762 122.473C132.722 123.881 133.354 124.777 134.05 125.897C134.194 126.132 134.25 126.385 134.218 126.657C133.914 129.273 134.362 131.353 133.682 133.985C132.33 139.185 134.258 143.769 134.25 148.409C134.25 148.702 134.364 148.94 134.594 149.121C135.65 149.948 136.639 150.852 137.562 151.833C137.764 152.047 137.858 152.303 137.842 152.601L137.722 154.865C130.09 158.556 122.46 158.377 114.834 154.329C114.503 154.153 114.308 153.796 114.25 153.257C114.223 153.028 114.095 152.895 113.866 152.857C111.018 152.425 111.266 155.449 112.546 156.729C112.59 156.775 112.647 156.808 112.709 156.823C112.772 156.837 112.837 156.834 112.897 156.813C112.958 156.792 113.011 156.754 113.051 156.704C113.091 156.654 113.115 156.593 113.122 156.529L113.25 155.497C113.258 155.442 113.28 155.39 113.314 155.345C113.348 155.301 113.392 155.265 113.443 155.243C113.493 155.22 113.548 155.211 113.603 155.217C113.657 155.222 113.709 155.241 113.754 155.273C116.01 156.82 118.412 157.94 120.962 158.633L117.546 162.217C117.338 162.436 117.279 162.692 117.37 162.985L119.53 169.993C119.604 170.228 119.602 170.463 119.522 170.697C118.668 173.289 118.876 175.697 120.146 177.921L118.33 177.657C117.588 177.812 117.135 177.78 116.97 177.561C100.514 175.313 84.5376 168.129 75.6496 153.449L76.8096 153.153C77.0389 153.095 77.2309 152.977 77.3856 152.801L79.1216 150.865C79.2709 150.7 79.2896 150.521 79.1776 150.329C78.2656 148.767 77.6816 146.783 77.4256 144.377C75.7776 128.66 75.2149 113.967 75.7376 100.297C94.2416 95.0492 113.77 86.2972 125.73 70.1132C125.77 70.0601 125.821 70.0164 125.88 69.9853C125.938 69.9542 126.003 69.9365 126.069 69.9335C126.135 69.9304 126.2 69.9421 126.261 69.9676C126.321 69.9932 126.375 70.032 126.418 70.0812L129.594 73.6812ZM104.354 104.665C99.4096 102.025 94.7589 101.999 90.4016 104.585C86.3856 106.969 83.3376 110.097 83.3216 114.913C83.32 114.996 83.3439 115.078 83.3901 115.148C83.4363 115.217 83.5027 115.27 83.5802 115.301C83.6577 115.331 83.7427 115.337 83.8238 115.318C83.9048 115.299 83.9781 115.255 84.0336 115.193C89.4149 109.273 95.8576 107.601 103.362 110.177C106.954 111.417 107.394 106.281 104.354 104.665ZM86.1696 139.833C86.1483 140.351 85.8203 140.873 85.1856 141.401C85.086 141.484 85.0104 141.591 84.9668 141.712C84.9231 141.833 84.913 141.963 84.9376 142.089C85.1243 143.108 84.9563 144.028 84.4336 144.849C84.358 144.965 84.2489 145.055 84.1205 145.107C83.9921 145.16 83.8503 145.173 83.7136 145.145C82.0976 144.809 80.5483 145.007 79.0656 145.737C78.9754 145.779 78.9023 145.85 78.8587 145.94C78.8151 146.029 78.8036 146.131 78.8261 146.227C78.8487 146.324 78.9039 146.41 78.9825 146.471C79.0611 146.532 79.1583 146.564 79.2576 146.561L82.9216 146.593C83.0203 146.593 83.1178 146.614 83.2073 146.656C83.2968 146.698 83.376 146.759 83.4394 146.835C83.5028 146.912 83.5487 147.001 83.574 147.098C83.5993 147.194 83.6032 147.295 83.5856 147.393C83.3563 148.625 82.8203 149.705 81.9776 150.633C81.8431 150.782 81.77 150.976 81.7729 151.176C81.7759 151.377 81.8548 151.569 81.9936 151.713C87.3216 157.257 98.6496 156.801 104.794 152.777C107.65 150.913 108.354 147.409 105.626 145.057C104.874 144.412 104.156 143.743 103.474 143.049C107.063 140.66 108.394 136.969 107.466 131.977C107.412 131.684 107.26 131.537 107.01 131.537C106.732 131.537 106.596 131.676 106.602 131.953C106.607 132.247 106.559 132.412 106.458 132.449C106.218 127.047 103.879 123.807 99.4416 122.729C92.5776 121.065 86.4976 125.345 83.6576 131.513C83.5509 131.743 83.3696 131.844 83.1136 131.817L80.6496 131.553C80.539 131.538 80.4265 131.562 80.332 131.621C80.2375 131.681 80.1672 131.772 80.1336 131.879C80.1 131.985 80.1053 132.1 80.1485 132.203C80.1917 132.306 80.2701 132.39 80.3696 132.441C83.4843 134.175 85.4176 136.639 86.1696 139.833ZM124.522 145.369L123.682 145.209C123.578 145.19 123.471 145.21 123.38 145.263C123.289 145.317 123.221 145.401 123.187 145.501C123.153 145.6 123.156 145.709 123.195 145.807C123.235 145.905 123.308 145.985 123.402 146.033C127.842 148.169 132.682 142.809 128.378 139.761C128.164 139.612 128.047 139.665 128.026 139.921C127.823 142.279 126.759 144.076 124.834 145.313C124.742 145.37 124.63 145.39 124.522 145.369Z" fill="#FED3B3"/>
<path d="M129.593 73.6813C134.233 79.5586 139.441 84.8066 145.217 89.4253C151.769 94.6653 161.417 99.7453 169.457 105.153C165.671 105.964 164.025 107.583 164.521 110.009C161.172 105.273 156.737 102.849 151.217 102.737C148.705 102.681 145.209 103.609 143.841 105.609C142.449 107.649 143.313 109.969 145.793 110.361C146.049 110.399 146.295 110.367 146.529 110.265C154.977 106.641 161.785 110.961 167.521 117.449L163.969 120.817C163.911 120.876 163.86 120.889 163.817 120.857C163.791 120.836 163.769 120.812 163.753 120.785C163.721 120.721 163.689 120.721 163.657 120.785C163.375 121.425 162.961 122.017 162.417 122.561C162.22 122.753 162.204 122.961 162.369 123.185C162.609 123.511 162.841 123.831 163.065 124.145C163.215 124.359 163.183 124.54 162.969 124.689C162.857 124.764 162.711 124.809 162.529 124.825C154.969 119.081 145.353 123.561 144.945 133.177C144.673 133.06 144.385 133.161 144.081 133.481C143.905 133.663 143.817 133.876 143.817 134.121C143.748 139.151 145.759 142.639 149.849 144.585C146.889 145.729 148.001 147.873 146.441 149.561C146.219 149.8 146.055 150.086 145.96 150.398C145.864 150.71 145.841 151.04 145.892 151.362C145.943 151.684 146.067 151.99 146.253 152.257C146.44 152.525 146.685 152.746 146.969 152.905C152.884 156.185 159.289 156.855 166.185 154.913C167.295 155.255 167.94 156.113 168.121 157.489C168.153 157.729 168.263 157.929 168.449 158.089C168.78 158.372 168.948 158.737 168.953 159.185C168.953 159.431 169.036 159.649 169.201 159.841L170.625 161.497C160.817 170.953 148.425 176.321 134.769 177.761C129.879 178.209 125.004 178.263 120.145 177.921C118.876 175.697 118.668 173.289 119.521 170.697C119.601 170.463 119.604 170.228 119.529 169.993L117.369 162.985C117.279 162.692 117.337 162.436 117.545 162.217L120.961 158.633C128.745 160.633 134.545 158.889 141.369 154.633C141.62 154.479 141.692 154.263 141.585 153.985C141.239 153.132 140.588 152.583 139.633 152.337C139.249 152.241 139.129 152.377 139.273 152.745C139.641 153.673 139.124 154.38 137.721 154.865L137.841 152.601C137.857 152.303 137.764 152.047 137.561 151.833C136.639 150.852 135.649 149.948 134.593 149.121C134.364 148.94 134.249 148.703 134.249 148.409C134.257 143.769 132.329 139.185 133.681 133.985C134.361 131.353 133.913 129.273 134.217 126.657C134.249 126.385 134.193 126.132 134.049 125.897C133.353 124.777 132.721 123.881 132.761 122.473C132.865 118.569 132.161 113.617 132.609 109.121C132.636 108.855 132.591 108.601 132.473 108.361C131.209 105.841 132.945 103.841 132.073 101.073C132.044 100.972 132.038 100.865 132.058 100.761C132.077 100.657 132.121 100.558 132.185 100.473C132.825 99.6573 131.785 96.9693 131.441 96.0493C130.553 93.6733 131.105 91.4973 131.345 89.1053C131.513 87.4173 130.929 85.4733 131.881 83.4333C131.999 83.1933 132.036 82.9399 131.993 82.6733C131.887 82.0013 131.972 81.3479 132.249 80.7133C132.369 80.444 132.427 80.1513 132.418 79.8568C132.41 79.5622 132.335 79.2734 132.2 79.0115C132.065 78.7497 131.872 78.5215 131.637 78.3439C131.402 78.1663 131.13 78.0437 130.841 77.9853C129.945 77.8093 129.292 77.2866 128.881 76.4173C128.775 76.1879 128.764 75.9586 128.849 75.7293L129.593 73.6813Z" fill="#FECEAF"/>
<path d="M72.1452 97.1934C72.2945 98.8414 72.0865 100.327 71.5212 101.649C71.4829 101.735 71.4724 101.83 71.4913 101.922C71.5101 102.014 71.5573 102.098 71.6263 102.162C71.6952 102.225 71.7824 102.266 71.8755 102.277C71.9686 102.288 72.0629 102.27 72.1452 102.225L75.7372 100.297C75.2145 113.967 75.7772 128.66 77.4252 144.377C77.6812 146.783 78.2652 148.767 79.1772 150.329C79.2892 150.521 79.2705 150.7 79.1212 150.865L77.3852 152.801C77.2305 152.977 77.0385 153.095 76.8092 153.153L75.6492 153.449L72.2652 147.737C72.4679 144.324 72.1052 141.135 71.1772 138.169C70.0572 135.617 68.7132 133.297 65.8252 132.545C61.4199 131.393 58.9185 133.111 58.3212 137.697C57.3719 139.308 56.1772 139.143 54.7372 137.201C54.6583 137.097 54.5474 137.02 54.4208 136.982C54.2942 136.945 54.1584 136.949 54.0332 136.993C53.3505 137.239 52.9692 138.1 52.8892 139.577C51.7212 136.777 50.9132 129.305 53.9452 127.625C54.1692 127.503 54.3532 127.335 54.4972 127.121C55.2492 126.049 56.4705 125.143 58.1612 124.401C61.3452 122.999 64.5452 123.311 67.7612 125.337C68.8172 126.708 69.5079 127.761 69.8332 128.497C70.9959 131.159 71.2972 131.041 70.7372 128.145C69.3985 121.233 68.6785 114.175 68.5772 106.969C68.5345 104.281 69.7239 101.023 72.1452 97.1934Z" fill="#FDBF9E"/>
<path d="M104.353 104.665C107.393 106.281 106.953 111.417 103.361 110.177C95.8574 107.601 89.4147 109.273 84.0334 115.193C83.9778 115.255 83.9046 115.299 83.8236 115.318C83.7425 115.337 83.6575 115.331 83.58 115.301C83.5024 115.27 83.4361 115.217 83.3899 115.148C83.3437 115.078 83.3197 114.997 83.3214 114.913C83.3374 110.097 86.3854 106.969 90.4014 104.585C94.7587 101.999 99.4094 102.025 104.353 104.665Z" fill="#1E182E"/>
<path d="M164.522 110.009C165.999 112.132 166.999 114.612 167.522 117.449C161.786 110.961 154.978 106.641 146.53 110.265C146.295 110.367 146.05 110.399 145.794 110.361C143.314 109.969 142.45 107.649 143.842 105.609C145.21 103.609 148.706 102.681 151.218 102.737C156.738 102.849 161.172 105.273 164.522 110.009Z" fill="#1E182E"/>
<path d="M169.457 105.153C172.903 107.756 174.865 111.636 175.345 116.793C176.153 125.497 176.569 135.425 174.761 144.777C174.607 145.556 174.772 146.223 175.257 146.777C175.407 146.953 175.463 147.156 175.425 147.385L175.105 149.425C175.073 149.649 175.129 149.847 175.273 150.017C175.599 150.412 176.009 150.676 176.505 150.809C176.863 150.905 177.095 150.775 177.201 150.417C177.623 148.993 178.417 148.209 179.585 148.065C177.244 153.201 174.257 157.679 170.625 161.497L169.201 159.841C169.036 159.649 168.953 159.431 168.953 159.185C168.948 158.737 168.78 158.372 168.449 158.089C168.263 157.929 168.153 157.729 168.121 157.489C167.94 156.113 167.295 155.255 166.185 154.913C169.129 153.617 175.377 148.225 170.953 144.993C169.161 143.681 167.503 142.753 165.977 142.209C164.897 141.817 163.841 142.273 162.721 141.481C163.057 140.815 163.452 140.335 163.905 140.041C165.777 139.105 167.249 134.929 167.873 133.393C167.929 133.257 168.011 133.133 168.114 133.03C168.217 132.927 168.339 132.846 168.473 132.793L170.473 131.985C170.53 131.962 170.578 131.921 170.609 131.868C170.64 131.815 170.653 131.754 170.645 131.693C170.638 131.632 170.611 131.575 170.569 131.531C170.526 131.487 170.47 131.459 170.409 131.449L168.233 131.121C167.999 131.084 167.823 130.961 167.705 130.753C166.42 128.444 164.695 126.468 162.529 124.825C162.711 124.809 162.857 124.764 162.969 124.689C163.183 124.54 163.215 124.359 163.065 124.145C162.841 123.831 162.609 123.511 162.369 123.185C162.204 122.961 162.22 122.753 162.417 122.561C162.961 122.017 163.375 121.425 163.657 120.785C163.689 120.721 163.721 120.721 163.753 120.785C163.769 120.812 163.791 120.836 163.817 120.857C163.86 120.889 163.911 120.876 163.969 120.817L167.521 117.449C166.999 114.612 165.999 112.132 164.521 110.009C164.025 107.583 165.671 105.964 169.457 105.153Z" fill="#FDBF9E"/>
<path d="M106.458 132.449C106.194 137.129 103.482 143.105 98.0337 142.505C90.6177 141.697 86.4417 127.257 96.3937 127.489C96.6923 127.495 96.7963 127.356 96.7056 127.073C96.6017 126.737 96.2017 126.529 95.8337 126.537C87.2257 126.841 84.6656 133.369 87.2096 141.025L86.1697 139.833C85.4177 136.639 83.4843 134.175 80.3697 132.441C80.2701 132.391 80.1918 132.306 80.1486 132.203C80.1053 132.1 80.1001 131.985 80.1337 131.879C80.1673 131.772 80.2375 131.681 80.332 131.621C80.4265 131.562 80.539 131.538 80.6496 131.553L83.1136 131.817C83.3696 131.844 83.551 131.743 83.6577 131.513C86.4977 125.345 92.5776 121.065 99.4416 122.729C103.879 123.807 106.218 127.047 106.458 132.449ZM102.194 130.017L101.13 131.321C101.095 131.363 101.07 131.411 101.054 131.462C101.038 131.513 101.033 131.567 101.038 131.621C101.043 131.674 101.059 131.726 101.084 131.774C101.11 131.821 101.144 131.863 101.186 131.897L101.354 132.033C101.523 132.171 101.71 132.285 101.903 132.369C102.095 132.452 102.29 132.503 102.477 132.518C102.663 132.534 102.838 132.514 102.989 132.459C103.141 132.405 103.268 132.317 103.362 132.201L103.506 132.033C103.6 131.917 103.66 131.775 103.683 131.615C103.705 131.455 103.689 131.28 103.635 131.1C103.582 130.92 103.492 130.739 103.371 130.567C103.25 130.395 103.1 130.235 102.93 130.097L102.762 129.961C102.678 129.895 102.572 129.863 102.466 129.873C102.36 129.884 102.262 129.936 102.194 130.017Z" fill="#161321"/>
<path d="M162.53 124.825C164.695 126.468 166.42 128.444 167.706 130.753C167.823 130.961 167.999 131.084 168.234 131.121L170.41 131.449C170.47 131.458 170.526 131.487 170.569 131.531C170.611 131.575 170.638 131.632 170.646 131.693C170.653 131.754 170.64 131.815 170.609 131.868C170.578 131.921 170.53 131.962 170.474 131.985L168.474 132.793C168.34 132.846 168.217 132.927 168.114 133.03C168.011 133.133 167.929 133.257 167.874 133.393C167.25 134.929 165.778 139.105 163.906 140.041C166.874 133.417 163.362 126.153 155.994 126.153C155.942 126.151 155.892 126.166 155.85 126.196C155.808 126.226 155.779 126.27 155.765 126.32C155.752 126.369 155.757 126.422 155.778 126.469C155.799 126.516 155.836 126.554 155.882 126.577C159.754 128.679 161.188 131.913 160.186 136.281C157.618 147.433 144.794 143.241 144.946 133.177C145.354 123.561 154.97 119.081 162.53 124.825ZM153.01 129.649L152.826 130.601C152.772 130.873 152.884 130.999 153.162 130.977C153.802 130.924 154.207 130.617 154.378 130.057C154.419 129.921 154.423 129.777 154.389 129.639C154.355 129.501 154.285 129.375 154.186 129.273C153.818 128.889 153.375 128.615 152.858 128.449C152.459 128.322 151.974 128.315 151.503 128.429C151.032 128.543 150.61 128.769 150.324 129.061C150.038 129.353 149.91 129.689 149.966 129.999C150.022 130.31 150.258 130.571 150.626 130.729L151.738 131.217C151.788 131.24 151.844 131.247 151.899 131.237C151.953 131.227 152.003 131.201 152.042 131.162C152.081 131.123 152.108 131.073 152.118 131.018C152.127 130.964 152.12 130.908 152.098 130.857C151.756 130.1 151.911 129.577 152.562 129.289C152.94 129.124 153.09 129.244 153.01 129.649ZM148.218 137.825C147.89 139.737 149.866 141.857 151.602 141.793C156.546 141.625 161.378 136.553 158.658 131.593C158.568 131.431 158.426 131.304 158.255 131.233C158.084 131.161 157.894 131.149 157.715 131.199C157.536 131.249 157.38 131.358 157.271 131.508C157.162 131.658 157.106 131.84 157.114 132.025C157.322 137.297 152.506 137.033 148.69 137.385C148.423 137.412 148.266 137.559 148.218 137.825Z" fill="#161321"/>
<path d="M199.761 127.097C202.604 132.873 201.927 138.484 197.729 143.929C196.609 145.38 195.025 146.94 192.977 148.609C189.175 149.911 185.911 150.111 183.185 149.209C179.372 145.849 179.015 142.684 182.113 139.713C183.143 141.089 184.633 142.001 186.585 142.449C186.649 142.46 186.692 142.436 186.713 142.377C186.735 142.313 186.753 142.249 186.769 142.185C186.778 142.163 186.778 142.138 186.769 142.115C186.76 142.091 186.743 142.071 186.721 142.057L185.169 141.129C184.839 140.937 184.716 140.655 184.801 140.281C185.441 137.505 187.273 134.217 190.665 135.553C190.895 135.644 191.073 135.796 191.201 136.009C192.241 137.684 192.204 139.233 191.089 140.657C190.716 141.132 190.801 141.241 191.345 140.985C193.367 140.031 194.316 138.201 194.193 135.497C194.497 135.609 194.783 135.639 195.049 135.585C195.321 135.527 195.439 135.359 195.401 135.081C193.953 125.305 183.137 131.977 182.121 130.161C184.665 121.481 193.969 120.145 199.761 127.097Z" fill="#FB9673"/>
<path d="M163.905 140.041C163.452 140.335 163.057 140.815 162.721 141.481C159.033 143.217 153.993 145.289 149.849 144.585C145.758 142.639 143.748 139.151 143.817 134.121C143.817 133.876 143.905 133.663 144.081 133.481C144.385 133.161 144.673 133.06 144.945 133.177C144.793 143.241 157.617 147.433 160.185 136.281C161.188 131.913 159.753 128.679 155.881 126.577C155.835 126.554 155.798 126.516 155.777 126.469C155.756 126.422 155.752 126.369 155.765 126.32C155.778 126.27 155.808 126.226 155.849 126.196C155.891 126.166 155.942 126.151 155.993 126.153C163.361 126.153 166.873 133.417 163.905 140.041Z" fill="#FEFDFE"/>
<path d="M106.457 132.449C106.559 132.412 106.607 132.247 106.601 131.953C106.596 131.676 106.732 131.537 107.009 131.537C107.26 131.537 107.412 131.684 107.465 131.977C108.393 136.969 107.063 140.66 103.473 143.049C101.575 143.743 99.8147 143.975 98.1933 143.745C94.3533 143.196 90.692 142.289 87.2093 141.025C84.6653 133.369 87.2254 126.841 95.8334 126.537C96.2014 126.529 96.6013 126.737 96.7053 127.073C96.796 127.356 96.692 127.495 96.3933 127.489C86.4413 127.257 90.6174 141.697 98.0334 142.505C103.481 143.105 106.193 137.129 106.457 132.449Z" fill="#FEFDFE"/>
<path d="M152.561 129.289C151.911 129.577 151.756 130.1 152.097 130.857C152.12 130.908 152.127 130.964 152.117 131.018C152.107 131.073 152.081 131.123 152.042 131.162C152.003 131.201 151.953 131.227 151.898 131.237C151.844 131.247 151.788 131.24 151.737 131.217L150.625 130.729C150.258 130.571 150.022 130.309 149.966 129.999C149.909 129.689 150.037 129.353 150.323 129.061C150.609 128.769 151.031 128.543 151.503 128.429C151.974 128.315 152.459 128.322 152.857 128.449C153.375 128.615 153.817 128.889 154.185 129.273C154.285 129.375 154.355 129.501 154.389 129.639C154.423 129.777 154.419 129.921 154.377 130.057C154.207 130.617 153.801 130.924 153.161 130.977C152.884 130.999 152.772 130.873 152.825 130.601L153.009 129.649C153.089 129.244 152.94 129.124 152.561 129.289Z" fill="#FEFDFE"/>
<path d="M102.194 130.017C102.262 129.936 102.36 129.884 102.466 129.873C102.573 129.863 102.679 129.894 102.762 129.961L102.93 130.097C103.1 130.235 103.25 130.395 103.371 130.567C103.492 130.739 103.582 130.92 103.635 131.1C103.689 131.28 103.705 131.455 103.683 131.615C103.661 131.775 103.6 131.917 103.506 132.033L103.362 132.201C103.268 132.317 103.141 132.405 102.99 132.459C102.838 132.514 102.664 132.534 102.477 132.518C102.291 132.503 102.095 132.452 101.903 132.369C101.71 132.285 101.523 132.171 101.354 132.033L101.186 131.897C101.144 131.863 101.11 131.821 101.084 131.774C101.059 131.726 101.043 131.674 101.038 131.621C101.033 131.567 101.038 131.513 101.054 131.462C101.07 131.411 101.096 131.363 101.13 131.321L102.194 130.017Z" fill="#EBECE6"/>
<path d="M151.602 141.793C149.866 141.857 147.89 139.737 148.218 137.825C148.266 137.558 148.423 137.412 148.69 137.385C152.506 137.033 157.322 137.297 157.114 132.025C157.106 131.84 157.162 131.658 157.271 131.508C157.38 131.358 157.536 131.249 157.715 131.199C157.894 131.149 158.084 131.161 158.255 131.232C158.426 131.304 158.568 131.431 158.658 131.593C161.378 136.553 156.546 141.625 151.602 141.793Z" fill="#35293C"/>
<path d="M71.1773 138.169C70.724 139.055 70.0466 139.524 69.1453 139.577C68.8573 139.599 68.692 139.468 68.6493 139.185C68.436 137.767 67.892 136.476 67.0173 135.313C66.852 135.095 66.6386 134.953 66.3773 134.889C63.2306 134.073 61.132 135.164 60.0813 138.161C59.9906 138.417 60.0306 138.652 60.2013 138.865C60.644 139.431 60.8386 140.076 60.7853 140.801C60.7533 141.244 60.6173 141.279 60.3773 140.905L58.3213 137.697C58.9186 133.111 61.42 131.393 65.8253 132.545C68.7133 133.297 70.0573 135.617 71.1773 138.169Z" fill="#FE6E48"/>
<path d="M194.194 135.497C194.316 138.201 193.367 140.031 191.346 140.985C190.802 141.241 190.716 141.132 191.09 140.657C192.204 139.233 192.242 137.684 191.202 136.009C191.074 135.796 190.895 135.644 190.666 135.553C187.274 134.217 185.442 137.505 184.802 140.281C184.716 140.655 184.839 140.937 185.17 141.129L186.722 142.057C186.744 142.071 186.76 142.091 186.769 142.115C186.778 142.138 186.778 142.163 186.77 142.185C186.754 142.249 186.735 142.313 186.714 142.377C186.692 142.436 186.65 142.46 186.586 142.449C184.634 142.001 183.143 141.089 182.114 139.713C180.514 131.673 192.034 129.873 194.194 135.497Z" fill="#FE6E48"/>
<path d="M71.1776 138.169C72.1056 141.135 72.4683 144.324 72.2656 147.737C69.3643 149.161 66.327 149.551 63.1537 148.905C62.0443 148.804 61.1056 148.5 60.3376 147.993C57.2016 145.492 54.719 142.687 52.8896 139.577C52.9696 138.1 53.351 137.239 54.0336 136.993C54.1588 136.949 54.2946 136.945 54.4212 136.982C54.5478 137.02 54.6587 137.096 54.7376 137.201C56.1776 139.143 57.3723 139.308 58.3216 137.697L60.3776 140.905C60.6176 141.279 60.7537 141.244 60.7857 140.801C60.839 140.076 60.6443 139.431 60.2016 138.865C60.031 138.652 59.991 138.417 60.0816 138.161C61.1323 135.164 63.231 134.073 66.3776 134.889C66.639 134.953 66.8523 135.095 67.0177 135.313C67.8923 136.476 68.4363 137.767 68.6496 139.185C68.6923 139.468 68.8577 139.599 69.1457 139.577C70.047 139.524 70.7243 139.055 71.1776 138.169Z" fill="#FCA582"/>
<path d="M124.521 145.369C124.63 145.39 124.741 145.37 124.833 145.313C126.759 144.076 127.823 142.279 128.025 139.921C128.047 139.665 128.164 139.612 128.377 139.761C132.681 142.809 127.841 148.169 123.401 146.033C123.308 145.985 123.234 145.905 123.195 145.807C123.156 145.709 123.153 145.6 123.186 145.501C123.22 145.401 123.289 145.317 123.38 145.263C123.471 145.21 123.578 145.19 123.681 145.209L124.521 145.369Z" fill="#F17941"/>
<path d="M86.1697 139.833L87.2097 141.025C90.6923 142.289 94.3537 143.196 98.1937 143.745C99.815 143.975 101.575 143.743 103.474 143.049C104.156 143.743 104.874 144.412 105.626 145.057C108.354 147.409 107.65 150.913 104.794 152.777C98.6497 156.801 87.3217 157.257 81.9937 151.713C81.8548 151.569 81.776 151.377 81.773 151.176C81.77 150.976 81.8432 150.782 81.9777 150.633C82.8203 149.705 83.3563 148.625 83.5857 147.393C83.6033 147.295 83.5993 147.194 83.5741 147.098C83.5488 147.001 83.5028 146.912 83.4395 146.835C83.3761 146.759 83.2969 146.698 83.2074 146.656C83.1179 146.614 83.0203 146.593 82.9217 146.593L79.2577 146.561C79.1583 146.564 79.0612 146.532 78.9826 146.471C78.904 146.41 78.8488 146.324 78.8262 146.227C78.8037 146.131 78.8152 146.029 78.8588 145.94C78.9024 145.85 78.9755 145.779 79.0657 145.737C80.5483 145.007 82.0977 144.809 83.7137 145.145C83.8504 145.173 83.9921 145.16 84.1205 145.108C84.2489 145.055 84.358 144.965 84.4337 144.849C84.9564 144.028 85.1243 143.108 84.9377 142.089C84.9131 141.964 84.9232 141.833 84.9668 141.712C85.0105 141.591 85.0861 141.484 85.1857 141.401C85.8203 140.873 86.1483 140.351 86.1697 139.833Z" fill="#FDBF9E"/>
<path d="M162.722 141.481C163.842 142.273 164.898 141.817 165.978 142.209C167.503 142.753 169.162 143.681 170.954 144.993C175.378 148.225 169.13 153.617 166.186 154.913C159.29 156.855 152.884 156.185 146.97 152.905C146.685 152.746 146.44 152.525 146.253 152.257C146.067 151.99 145.943 151.684 145.893 151.362C145.842 151.039 145.865 150.71 145.96 150.398C146.055 150.086 146.22 149.8 146.442 149.561C148.002 147.873 146.89 145.729 149.85 144.585C153.994 145.289 159.034 143.217 162.722 141.481Z" fill="#FCA582"/>
<path d="M72.2657 147.737L75.6497 153.449C84.5377 168.129 100.514 175.313 116.97 177.561L116.922 183.689C116.922 184.015 116.764 184.22 116.45 184.305L108.306 186.449L106.898 186.617C106.972 185.929 107.25 185.188 107.73 184.393C107.763 184.338 107.784 184.276 107.793 184.212C107.802 184.148 107.799 184.083 107.782 184.021C107.766 183.958 107.737 183.899 107.698 183.848C107.659 183.797 107.61 183.754 107.554 183.721C106.522 183.137 104.954 182.809 104.114 182.433C93.6604 177.756 84.487 171.268 76.5937 162.969C73.3457 159.545 69.2337 154.257 64.0337 151.945C62.9457 151.46 62.6524 150.447 63.1537 148.905C66.327 149.551 69.3644 149.161 72.2657 147.737Z" fill="#161321"/>
<path d="M183.186 149.209C185.911 150.111 189.175 149.911 192.978 148.609C195.511 156.033 200.338 161.151 207.458 163.961C207.53 163.99 207.596 164.034 207.65 164.09C207.705 164.146 207.747 164.213 207.774 164.287C207.801 164.361 207.813 164.44 207.808 164.519C207.803 164.598 207.782 164.675 207.746 164.745C196.81 185.633 164.93 189.625 144.202 186.609L136.154 184.865C135.391 184.7 134.996 184.225 134.97 183.441L134.77 177.761C148.426 176.321 160.818 170.953 170.626 161.497C174.258 157.679 177.244 153.201 179.586 148.065L183.186 149.209Z" fill="#1E182E"/>
<path d="M60.3374 147.993C61.1054 148.5 62.0441 148.804 63.1534 148.905C62.6521 150.447 62.9454 151.46 64.0334 151.945C69.2334 154.257 73.3454 159.545 76.5934 162.969C84.4867 171.268 93.6601 177.756 104.113 182.433C104.953 182.809 106.521 183.137 107.553 183.721C107.609 183.754 107.658 183.797 107.698 183.848C107.737 183.899 107.765 183.958 107.782 184.021C107.798 184.083 107.802 184.148 107.793 184.212C107.784 184.276 107.762 184.338 107.729 184.393C107.249 185.188 106.972 185.929 106.897 186.617C85.0574 189.641 59.5774 184.689 46.0254 165.369C45.8601 165.135 45.9134 164.964 46.1854 164.857C53.5561 161.961 58.2734 156.34 60.3374 147.993Z" fill="#1E182E"/>
<path d="M120.962 158.633C118.412 157.94 116.01 156.82 113.754 155.273C113.709 155.241 113.657 155.222 113.603 155.217C113.548 155.211 113.493 155.22 113.442 155.243C113.392 155.265 113.348 155.301 113.314 155.345C113.28 155.39 113.258 155.442 113.25 155.497L113.122 156.529C113.115 156.593 113.091 156.654 113.051 156.704C113.011 156.754 112.958 156.792 112.897 156.813C112.837 156.834 112.772 156.837 112.709 156.823C112.647 156.808 112.59 156.775 112.546 156.729C111.266 155.449 111.018 152.425 113.866 152.857C114.095 152.895 114.223 153.028 114.25 153.257C114.308 153.796 114.503 154.153 114.834 154.329C122.46 158.377 130.09 158.556 137.722 154.865C139.124 154.38 139.642 153.673 139.274 152.745C139.13 152.377 139.25 152.241 139.634 152.337C140.588 152.582 141.239 153.132 141.586 153.985C141.692 154.262 141.62 154.479 141.37 154.633C134.546 158.889 128.746 160.633 120.962 158.633Z" fill="#863934"/>
<path d="M118.33 177.657C117.791 179.428 117.86 181.148 118.538 182.817C118.644 183.084 118.842 183.223 119.13 183.233C122.735 183.367 124.959 185.327 125.802 189.113C126.788 193.551 127.29 196.772 127.306 198.777C119.122 199.105 111.722 195.513 109.89 187.345C109.927 187.185 109.908 187.041 109.834 186.913C109.7 186.684 109.538 186.663 109.346 186.849C109.18 187.015 108.986 187.097 108.762 187.097C108.9 186.804 108.748 186.588 108.306 186.449L116.45 184.305C116.764 184.22 116.922 184.015 116.922 183.689L116.97 177.561C117.135 177.78 117.588 177.812 118.33 177.657Z" fill="#FDBF9E"/>
<path d="M134.77 177.761L134.97 183.441C134.996 184.225 135.391 184.7 136.154 184.865L144.202 186.609L144.178 187.377C143.852 187.51 143.647 187.777 143.562 188.177C142.042 195.297 133.714 198.753 127.306 198.777C127.29 196.772 126.788 193.55 125.802 189.113C124.959 185.326 122.735 183.366 119.13 183.233C118.842 183.222 118.644 183.084 118.538 182.817C117.86 181.148 117.791 179.428 118.33 177.657L120.146 177.921C125.004 178.262 129.879 178.209 134.77 177.761Z" fill="#FB9673"/>
<path d="M109.89 187.345C109.852 187.105 109.735 187.06 109.538 187.209C109.388 187.326 109.33 187.478 109.362 187.665C110.322 192.662 113.172 196.14 117.914 198.097C118.111 198.182 118.202 198.318 118.186 198.505C118.164 198.852 118.007 198.929 117.714 198.737C117.543 198.625 117.348 198.566 117.13 198.561C116.772 198.561 116.738 198.665 117.026 198.873C119.778 200.873 122.759 201.838 125.97 201.769C133.162 201.601 145.682 198.753 147.402 189.889C147.45 189.638 147.586 189.457 147.81 189.345C148.396 189.046 148.874 188.668 149.242 188.209C157.626 191.553 161.602 194.209 166.002 201.745C169.244 207.292 171.7 212.126 173.37 216.249L164.314 221.113C163.466 211.961 161.735 203.252 159.122 194.985C159.073 194.83 158.971 194.697 158.834 194.61C158.697 194.523 158.533 194.488 158.372 194.51C158.211 194.532 158.063 194.61 157.954 194.731C157.845 194.851 157.783 195.007 157.778 195.169L156.762 224.337L144.194 228.113C136.674 219.233 129.452 212.137 122.53 206.825C113.778 200.116 106.876 194.225 101.826 189.153L108.762 187.097C108.986 187.097 109.18 187.014 109.346 186.849C109.538 186.662 109.7 186.684 109.834 186.913C109.908 187.041 109.927 187.185 109.89 187.345Z" fill="#2B7282"/>
<path d="M109.89 187.345C111.722 195.513 119.122 199.105 127.306 198.777C133.714 198.753 142.042 195.297 143.562 188.177C143.647 187.777 143.852 187.511 144.178 187.377C145.895 187.239 147.583 187.516 149.242 188.209C148.874 188.668 148.396 189.047 147.809 189.345C147.585 189.457 147.45 189.639 147.402 189.889C145.682 198.753 133.162 201.601 125.97 201.769C122.759 201.839 119.777 200.873 117.025 198.873C116.737 198.665 116.772 198.561 117.13 198.561C117.348 198.567 117.543 198.625 117.714 198.737C118.007 198.929 118.164 198.852 118.185 198.505C118.201 198.319 118.111 198.183 117.913 198.097C113.172 196.14 110.321 192.663 109.361 187.665C109.329 187.479 109.388 187.327 109.537 187.209C109.735 187.06 109.852 187.105 109.89 187.345Z" fill="#216477"/>
<path d="M101.825 189.153C106.876 194.225 113.777 200.116 122.529 206.825C129.452 212.137 136.673 219.233 144.193 228.113C128.695 231.137 113.681 229.913 99.1534 224.441C98.6521 223.406 98.4388 222.62 98.5134 222.081C98.5721 221.708 98.6014 221.5 98.6014 221.457C98.4414 212.422 98.2281 203.316 97.9614 194.137C97.9583 194.043 97.9255 193.952 97.8678 193.878C97.8101 193.803 97.7305 193.749 97.6401 193.722C97.5498 193.696 97.4533 193.698 97.3645 193.73C97.2757 193.761 97.1991 193.82 97.1454 193.897C97.0494 194.041 96.9588 194.281 96.8734 194.617C94.6761 203.038 93.1721 211.606 92.3614 220.321C92.3401 220.566 92.2068 220.668 91.9614 220.625L88.9934 220.073L84.7454 218.017L81.4814 215.945C85.4014 205.449 90.7854 193.505 101.825 189.153Z" fill="#31A3A6"/>
<path d="M99.1537 224.441C95.6336 223.337 92.247 221.881 88.9937 220.073L91.9616 220.625C92.207 220.668 92.3403 220.567 92.3616 220.321C93.1723 211.607 94.6763 203.039 96.8736 194.617C96.959 194.281 97.0497 194.041 97.1457 193.897C97.1993 193.82 97.2759 193.761 97.3647 193.73C97.4535 193.699 97.55 193.696 97.6403 193.723C97.7307 193.749 97.8103 193.803 97.868 193.878C97.9257 193.952 97.9585 194.043 97.9616 194.137C98.2283 203.316 98.4416 212.423 98.6016 221.457C98.6016 221.5 98.5723 221.708 98.5136 222.081C98.439 222.62 98.6523 223.407 99.1537 224.441Z" fill="#2B7282"/>
<path d="M164.314 221.113L156.762 224.337L157.778 195.169C157.783 195.007 157.846 194.852 157.954 194.731C158.063 194.61 158.211 194.532 158.372 194.51C158.533 194.488 158.697 194.524 158.834 194.611C158.971 194.698 159.073 194.83 159.122 194.985C161.735 203.252 163.466 211.961 164.314 221.113Z" fill="#216477"/>
</svg>
