<svg width="256" height="256" viewBox="0 0 256 256" fill="none" xmlns="http://www.w3.org/2000/svg">
<path d="M107.252 25.7805C84.1644 29.8872 65.1937 40.4045 50.3404 57.3325C42.7644 65.9565 38.8924 74.7085 38.4124 85.8125C38.0017 95.4339 39.0417 104.706 41.5324 113.629" stroke="#A59EA1" stroke-width="2"/>
<path d="M41.5322 113.628L43.8522 120.668" stroke="#9F999D" stroke-width="2"/>
<path d="M43.8523 120.668C36.1403 124.74 35.3723 136.788 38.5803 143.748C42.2443 151.7 51.9563 157.556 60.9643 154.172C61.0777 154.131 61.2021 154.132 61.314 154.174C61.426 154.217 61.5178 154.299 61.5723 154.404C72.1483 174.492 87.8523 184.596 109.1 190.188C109.204 190.214 109.293 190.278 109.351 190.366C109.408 190.455 109.43 190.562 109.412 190.667C109.394 190.772 109.338 190.867 109.253 190.934C109.169 191.001 109.063 191.035 108.956 191.028C107.708 190.938 106.716 191.122 105.98 191.58" stroke="#FFE3D3" stroke-width="2"/>
<path d="M105.98 191.58C91.7962 193.364 77.2762 199.676 73.2122 214.356C73.1361 214.623 73.1659 214.91 73.2956 215.156C73.4252 215.401 73.6446 215.588 73.9082 215.676L81.5322 218.276" stroke="#9BADC5" stroke-width="2"/>
<path d="M160.997 194.14L154.269 192.284" stroke="#92A7B9" stroke-width="2"/>
<path d="M154.269 192.284L144.653 190.692" stroke="#FDC6BC" stroke-width="2"/>
<path d="M144.653 190.692L153.045 188.54" stroke="#FFE3D3" stroke-width="2"/>
<path d="M153.044 188.54C170.644 183.084 185.756 171.772 194.268 155.204C194.399 154.952 194.617 154.757 194.881 154.654C195.144 154.551 195.436 154.547 195.7 154.644C203.028 157.348 211.34 152.884 215.596 146.924C221.58 138.564 220.572 127.836 212.684 120.868" stroke="#FDD4C5" stroke-width="2"/>
<path d="M212.685 120.868C216.669 109.785 218.333 98.3561 217.677 86.5801C216.869 71.9561 209.517 61.0601 199.477 51.7801C183.546 37.0601 164.663 28.1774 142.829 25.1321" stroke="#969197" stroke-width="2"/>
<path d="M142.829 25.1323C130.92 23.4309 119.061 23.6469 107.253 25.7802" stroke="#9F999D" stroke-width="2"/>
<path d="M142.828 25.1321C142.834 25.3614 142.9 25.6041 143.028 25.8601C143.082 25.9728 143.164 26.0702 143.266 26.1429C143.368 26.2157 143.487 26.2615 143.612 26.2761C148.82 26.8281 153.212 27.7881 157.764 30.5961C171.812 39.2281 186.444 55.0281 188.316 72.2361C189.052 78.9881 186.005 84.9401 178.429 84.1961C174.989 83.8601 172.14 81.8441 167.292 82.8361C165.452 83.2121 163.108 84.5401 160.444 84.4041C160.183 84.3934 159.93 84.4388 159.684 84.5401C158.106 85.2334 156.524 85.3908 154.94 85.0121C152.004 84.3161 151.444 80.9081 147.684 84.2921C144.287 87.3534 139.962 88.1934 134.708 86.8121" stroke="#362C36" stroke-width="2"/>
<path d="M134.709 86.8123L131.045 84.3723C130.834 84.2326 130.586 84.1588 130.334 84.1602C130.082 84.1616 129.836 84.2383 129.629 84.3803C121.061 90.1323 116.301 90.6683 108.101 83.8123C107.908 83.652 107.665 83.5655 107.416 83.5684C107.166 83.5714 106.927 83.6635 106.741 83.8283C101.637 88.3403 97.7726 92.6923 90.6126 88.3643C89.194 87.5056 87.77 86.9936 86.3406 86.8283C86.0113 86.7923 85.678 86.8461 85.3754 86.984C85.0728 87.1219 84.8121 87.3389 84.6206 87.6123C80.0126 94.2843 75.9006 98.8443 66.9086 97.9243C66.626 97.8976 66.4126 98.0096 66.2686 98.2603L64.3486 101.596" stroke="#9D6E64" stroke-width="2"/>
<path d="M64.3485 101.596C60.4819 109.65 58.4125 118.191 58.1405 127.22C58.0925 128.756 57.5885 130.516 57.3485 132.06C57.3005 132.37 57.1325 132.468 56.8445 132.356C54.5725 131.5 52.0445 125.66 50.3565 122.316C48.9085 119.452 46.4045 120.084 43.8525 120.668" stroke="#9F7D72" stroke-width="2"/>
<path d="M41.5322 113.628C42.4336 113.527 43.0709 114.292 43.4442 115.924C43.4805 116.09 43.572 116.239 43.7039 116.345C43.8358 116.452 44.0004 116.511 44.1709 116.512C44.3414 116.512 44.5078 116.456 44.6431 116.351C44.7784 116.245 44.8746 116.098 44.9162 115.932C45.7589 112.492 47.0762 109.351 48.8682 106.508C53.0229 99.9215 57.0416 93.2602 60.9242 86.5242C68.6922 73.0362 77.9642 68.9722 92.8922 65.0682C113.524 59.6682 102.396 36.3882 118.412 27.9082C118.647 27.7855 118.778 27.5935 118.804 27.3322C119.188 23.4922 108.356 28.0042 107.252 25.7802" stroke="#453840" stroke-width="2"/>
<path d="M212.684 120.868C206.22 118.132 204.26 124.188 202.364 129.172C202.164 129.684 201.629 130.18 201.205 130.436C201.113 130.491 201.01 130.523 200.904 130.529C200.798 130.536 200.692 130.516 200.594 130.473C200.497 130.43 200.412 130.364 200.345 130.281C200.279 130.198 200.233 130.1 200.212 129.996C199.343 125.751 198.706 121.463 198.301 117.132C197.917 113.036 196.652 110.892 193.364 108.804C193.114 108.649 192.924 108.439 192.796 108.172C191.452 105.457 190.634 102.585 190.34 99.5562C190.3 99.1254 190.097 98.7261 189.771 98.4394C189.446 98.1527 189.023 97.9999 188.588 98.0122C178.836 98.3402 177.22 95.3242 173.068 87.4282C172.878 87.0633 172.565 86.7766 172.186 86.6174C171.806 86.4582 171.382 86.4366 170.988 86.5562C166.516 87.8922 162.748 91.3722 157.732 89.5082C154.628 88.3562 152.06 81.7002 148.516 84.6522C144.138 88.3055 139.535 89.0255 134.708 86.8122" stroke="#94675D" stroke-width="2"/>
<path d="M176.573 106.108C170.359 99.3508 162.77 96.1961 153.805 96.6441C145.341 97.0681 146.277 107.708 153.261 107.612C153.981 107.601 155.517 107.199 157.869 106.404" stroke="#998279" stroke-width="2"/>
<path d="M173.693 123.036C171.895 120.844 169.738 119.372 167.221 118.62C166.943 118.54 166.666 118.546 166.389 118.636L165.029 119.092C164.773 119.178 164.511 119.218 164.245 119.212C161.914 119.143 160.573 119.62 160.221 120.644" stroke="#FFE3D3" stroke-width="2"/>
<path d="M160.22 120.644C143.548 132.132 159.668 159.74 171.476 143.756" stroke="#8A6D60" stroke-width="2"/>
<path d="M171.477 143.756C171.823 144.034 172.349 144.228 173.053 144.34" stroke="#FFE3D3" stroke-width="2"/>
<path d="M171.06 149.684C165.804 150.948 155.14 158.156 163.3 163.98C166.319 166.14 169.951 166.703 174.196 165.668" stroke="#FEAB90" stroke-width="2"/>
<path d="M144.652 190.692L142.132 190.972" stroke="#FEAB90" stroke-width="2"/>
<path d="M142.132 190.972C133.183 192.034 124.21 192.063 115.212 191.06" stroke="#FB937E" stroke-width="2"/>
<path d="M115.213 191.06L110.285 190.884C110.029 190.874 109.813 190.956 109.637 191.132C109.018 191.746 108.333 192.076 107.581 192.124C107.348 192.139 107.127 192.229 106.949 192.379C106.771 192.529 106.647 192.732 106.593 192.959C106.539 193.185 106.559 193.423 106.651 193.637C106.742 193.851 106.9 194.03 107.101 194.148C113.239 197.764 119.666 201.338 126.381 204.868C127.975 205.706 131.234 208.54 136.157 213.372" stroke="#FEAB90" stroke-width="2"/>
<path d="M136.156 213.372C130.252 214.626 124.111 214.367 117.732 212.596" stroke="#938C8D" stroke-width="2"/>
<path d="M117.733 212.596C110.613 210.372 102.389 204.364 101.853 196.348C101.757 194.919 102.063 193.876 102.773 193.22C103.509 192.543 104.578 191.996 105.981 191.58" stroke="#9B9199" stroke-width="2"/>
<path d="M153.045 188.54C152.794 188.428 152.581 188.212 152.405 187.892C152.282 187.674 152.341 187.522 152.581 187.436C162.853 183.959 170.319 177.324 174.981 167.532C175.429 166.588 175.117 166.02 174.197 165.668" stroke="#FDB899" stroke-width="2"/>
<path d="M174.197 165.668C181.309 164.068 188.285 158.764 189.581 151.26C189.842 149.762 189.255 148.927 187.821 148.756C182.205 148.095 176.618 148.404 171.061 149.684" stroke="#FC9C82" stroke-width="2"/>
<path d="M171.061 149.684C170.597 147.626 171.261 145.844 173.053 144.34" stroke="#FDB899" stroke-width="2"/>
<path d="M173.053 144.34C177.479 137.087 177.693 129.986 173.693 123.036" stroke="#FDD4C5" stroke-width="2"/>
<path d="M173.693 123.036C172.501 118.3 170.573 117.3 166.461 115.268C166.263 115.172 166.186 115.018 166.229 114.804C166.301 114.476 162.381 111.46 161.789 110.892C160.205 109.38 157.605 109.972 156.493 108.404C156.327 108.17 156.375 107.988 156.637 107.86C157.319 107.519 157.73 107.034 157.869 106.404" stroke="#FDB899" stroke-width="2"/>
<path d="M157.869 106.404C165.133 105.58 171.565 109.884 177.685 113.436C178.794 114.081 179.533 113.788 179.901 112.556C180.429 110.78 177.813 107.66 176.573 106.108" stroke="#97736B" stroke-width="2"/>
<path d="M176.573 106.108C176.354 105.383 175.914 104.788 175.253 104.324C175.045 104.18 174.935 103.978 174.925 103.716C174.837 101.636 167.117 98.1163 165.845 97.5483C163.365 96.4363 159.741 95.9803 156.749 94.4283C156.69 94.3963 156.653 94.3537 156.637 94.3003C156.626 94.2737 156.621 94.2443 156.621 94.2123C156.605 94.079 156.549 93.9963 156.453 93.9643C150.093 91.6443 142.861 94.7563 137.253 92.0043C135.861 91.3217 134.218 90.3137 132.325 88.9803C132.101 88.8257 131.863 88.8017 131.613 88.9083C127.101 90.8363 124.621 93.5323 119.301 93.5643C115.213 93.5803 111.989 90.6523 107.829 91.5563C105.034 92.159 102.442 93.295 100.053 94.9643C99.9887 95.0017 99.9861 95.047 100.045 95.1003L100.213 95.2443C100.277 95.2976 100.269 95.335 100.189 95.3563C97.4581 96.087 95.1807 95.5457 93.3567 93.7323C88.7967 89.1883 83.6927 96.5643 79.8367 98.7243C77.6021 99.9776 75.2421 100.943 72.7567 101.62C66.4847 103.316 64.6847 105.868 62.1647 111.716C62.1621 111.725 62.1579 111.733 62.1522 111.739C62.1466 111.746 62.1396 111.752 62.1318 111.756C62.124 111.76 62.1155 111.762 62.1068 111.763C62.098 111.764 62.0891 111.763 62.0807 111.76C62.0723 111.758 62.0645 111.753 62.0578 111.748C62.051 111.742 62.0454 111.735 62.0413 111.727C62.0373 111.72 62.0348 111.711 62.034 111.702C62.0332 111.694 62.0341 111.685 62.0367 111.676C62.6181 108.375 63.5647 105.25 64.8767 102.3C64.9887 102.044 64.9301 101.836 64.7007 101.676C64.6047 101.607 64.4874 101.58 64.3487 101.596" stroke="#FDB899" stroke-width="2"/>
<path d="M115.212 191.06C120.836 202.468 136.18 200.764 142.132 190.972" stroke="#FA7667" stroke-width="2"/>
<path d="M154.269 192.284C156.357 203.756 146.317 211.308 136.157 213.372" stroke="#916F76" stroke-width="2"/>
<path d="M117.732 212.596C120.004 213.935 122.634 214.764 125.62 215.084C125.877 215.115 126.118 215.218 126.316 215.38L136.668 224.084C136.876 224.255 136.954 224.476 136.9 224.748L136.644 226.1" stroke="#2F567F" stroke-width="2"/>
<path d="M136.644 226.1C116.988 227.084 99.8122 223.956 81.5322 218.276" stroke="#839BBA" stroke-width="2"/>
<path d="M171.477 143.756C173.226 140.999 173.983 137.895 173.749 134.444C173.077 124.652 168.567 120.052 160.221 120.644" stroke="#89898C" stroke-width="2"/>
<path d="M160.997 194.14C169.805 197.972 179.925 204.484 180.861 215.228C180.882 215.511 180.762 215.708 180.501 215.82C166.522 221.852 151.903 225.279 136.645 226.1" stroke="#7B96AE" stroke-width="2"/>
<path d="M46.7324 87.9243C52.0124 91.9403 57.0604 84.1563 60.2924 79.7163C68.7884 68.0363 77.4284 56.0443 87.0204 45.2363C87.6338 44.5536 88.2204 43.7563 88.7804 42.8443C88.8433 42.744 88.8837 42.6307 88.8988 42.512C88.914 42.3933 88.9036 42.272 88.8684 42.1563C86.7484 35.7083 73.0924 46.8923 70.1084 49.3163C62.3111 55.6469 55.6497 63.0443 50.1244 71.5083C47.4844 75.5483 42.5004 84.7003 46.7324 87.9243Z" stroke="#574850" stroke-width="2"/>
<path d="M205.181 127.428L204.605 127.772C204.402 127.892 204.242 128.071 204.149 128.284C202.189 132.796 199.069 141.54 200.029 146.724C200.077 146.975 200.194 147.183 200.381 147.348C205.205 151.74 212.117 143.444 213.541 139.364C215.053 135.02 214.517 125.404 208.045 125.396C207.047 125.396 206.215 125.951 205.549 127.06C205.459 127.212 205.333 127.339 205.181 127.428Z" stroke="#FC9C82" stroke-width="2"/>
<path d="M78.7966 113.948C80.5166 113.988 86.1886 109.804 89.5726 108.196C93.1832 106.474 97.0259 106.164 101.101 107.268C111.957 110.204 112.565 96.0042 101.829 96.6362C92.5166 97.1882 80.6686 102.588 77.5166 112.132C77.4491 112.337 77.4306 112.555 77.4624 112.769C77.4943 112.982 77.5756 113.186 77.7 113.362C77.8244 113.538 77.9884 113.683 78.1788 113.785C78.3692 113.887 78.5807 113.943 78.7966 113.948Z" stroke="#998279" stroke-width="2"/>
<path d="M86.7002 144.636C90.7429 148.386 94.5642 149.193 98.1642 147.06C104.436 143.332 105.9 135.084 103.46 128.372C102.298 125.183 100.028 122.602 96.6522 120.628" stroke="#8A6D60" stroke-width="2"/>
<path d="M96.6524 120.628C91.5697 119.167 87.6417 120.012 84.8684 123.164C82.6124 125.735 81.4844 129.047 81.4844 133.1C81.4844 137.618 83.223 141.463 86.7004 144.636" stroke="#FFE3D3" stroke-width="2"/>
<path d="M96.6524 120.628C93.0844 120.399 90.423 121.282 88.6684 123.276C83.1964 129.5 82.5404 136.62 86.7004 144.636" stroke="#89898C" stroke-width="2"/>
<path d="M47.1722 146.076C49.4602 148.082 51.8388 148.839 54.3082 148.348C56.1082 147.996 56.7482 146.524 56.4122 144.836C55.7882 141.66 52.4442 123.756 46.9482 125.644C45.1669 126.258 43.9988 127.132 43.4442 128.268C40.1375 135.063 41.3802 140.999 47.1722 146.076Z" stroke="#FEAB90" stroke-width="2"/>
<path d="M130.476 150.004C130.21 149.855 129.887 149.793 129.508 149.82C129.247 149.841 129.06 149.969 128.948 150.204C128.426 151.287 127.543 151.943 126.3 152.172C126.039 152.225 125.852 152.132 125.74 151.892L125.492 151.38C125.428 151.238 125.317 151.124 125.177 151.056C125.038 150.988 124.879 150.971 124.727 151.008C124.575 151.044 124.44 151.133 124.345 151.257C124.25 151.382 124.2 151.536 124.204 151.692C124.236 153.575 124.631 154.719 125.388 155.124" stroke="#FFCCAD" stroke-width="2"/>
<path d="M125.389 155.124C125.042 156.004 125.319 156.647 126.221 157.053C130.117 158.797 133.125 156.341 134.469 152.749C135.786 149.239 135.037 146.058 132.221 143.204C131.517 142.49 130.738 142.463 129.885 143.124C129.803 143.187 129.748 143.278 129.733 143.38C129.718 143.482 129.744 143.585 129.805 143.668C131.245 145.599 131.469 147.711 130.477 150.004" stroke="#FDB899" stroke-width="2"/>
<path d="M125.389 155.124C127.901 154.308 129.597 152.602 130.477 150.004" stroke="#FDBD9F" stroke-width="2"/>
<path d="M70.3966 153.044C67.9726 163.748 78.9326 168.356 87.6446 166.388C92.9566 165.188 98.8206 160.972 93.2366 155.212C87.3699 149.164 80.5273 147.513 72.7086 150.26C71.5166 150.676 70.6526 151.916 70.3966 153.044Z" stroke="#FEAB90" stroke-width="2"/>
<path d="M114.069 177.508C122.25 181.556 130.578 181.639 139.053 177.756" stroke="#FEAB90" stroke-width="2"/>
<path d="M139.053 177.756C142.791 176.594 146.178 174.743 149.213 172.204C151.997 169.884 154.637 165.436 153.213 161.668C153.167 161.546 153.082 161.442 152.971 161.371C152.86 161.301 152.729 161.267 152.597 161.276C151.829 161.335 151.085 161.495 150.365 161.756C134.717 167.383 118.967 167.37 103.117 161.716C102.951 161.657 102.774 161.638 102.599 161.66C102.424 161.682 102.257 161.744 102.111 161.842C101.965 161.94 101.844 162.071 101.757 162.224C101.671 162.377 101.621 162.549 101.613 162.724C101.437 166.244 102.559 169.298 104.981 171.884C107.013 174.055 110.042 175.93 114.069 177.508" stroke="#907166" stroke-width="2"/>
<path d="M139.053 177.756C137.064 175.596 134.653 174.236 131.821 173.676C127.261 172.772 115.501 171.748 114.069 177.508" stroke="#8F554F" stroke-width="2"/>
<path d="M163.181 137.118C163.823 137.053 164.409 136.708 164.812 136.159C165.215 135.61 165.4 134.902 165.328 134.191C165.256 133.479 164.931 132.823 164.427 132.366C163.922 131.909 163.278 131.689 162.636 131.754C161.994 131.819 161.408 132.164 161.005 132.714C160.602 133.263 160.417 133.971 160.489 134.682C160.561 135.393 160.885 136.05 161.39 136.507C161.895 136.964 162.539 137.184 163.181 137.118Z" stroke="#89898C" stroke-width="2"/>
<path d="M94.3592 137.226C94.6712 137.263 94.9883 137.229 95.2925 137.127C95.5967 137.025 95.882 136.857 96.132 136.632C96.3821 136.407 96.5921 136.13 96.75 135.816C96.9079 135.502 97.0106 135.158 97.0522 134.803C97.1364 134.087 96.9668 133.37 96.5808 132.811C96.1948 132.253 95.624 131.897 94.9939 131.823C94.682 131.786 94.3648 131.82 94.0606 131.922C93.7565 132.024 93.4712 132.192 93.2211 132.417C92.971 132.642 92.7611 132.919 92.6032 133.233C92.4453 133.547 92.3426 133.891 92.3009 134.245C92.2167 134.962 92.3863 135.678 92.7723 136.237C93.1583 136.796 93.7291 137.152 94.3592 137.226Z" stroke="#89898C" stroke-width="2"/>
<path d="M142.828 25.1323C142.834 25.3616 142.9 25.6043 143.028 25.8603C143.082 25.973 143.164 26.0703 143.266 26.1431C143.368 26.2159 143.487 26.2617 143.612 26.2762C148.82 26.8282 153.212 27.7882 157.764 30.5962C171.812 39.2282 186.444 55.0283 188.316 72.2363C189.052 78.9883 186.004 84.9402 178.428 84.1962C174.988 83.8602 172.14 81.8443 167.292 82.8363C165.452 83.2123 163.108 84.5402 160.444 84.4042C160.183 84.3936 159.93 84.4389 159.684 84.5403C158.106 85.2336 156.524 85.3909 154.94 85.0123C152.004 84.3163 151.444 80.9082 147.684 84.2922C144.287 87.3536 139.962 88.1936 134.708 86.8123L131.044 84.3722C130.833 84.2326 130.586 84.1588 130.334 84.1602C130.081 84.1616 129.836 84.2382 129.628 84.3802C121.06 90.1322 116.3 90.6683 108.1 83.8123C107.908 83.652 107.665 83.5655 107.415 83.5684C107.166 83.5713 106.926 83.6635 106.74 83.8282C101.636 88.3402 97.7722 92.6923 90.6122 88.3643C89.1936 87.5056 87.7696 86.9936 86.3402 86.8282C86.0109 86.7923 85.6776 86.846 85.375 86.984C85.0724 87.1219 84.8117 87.3389 84.6202 87.6123C80.0122 94.2843 75.9002 98.8442 66.9082 97.9242C66.6256 97.8976 66.4122 98.0096 66.2682 98.2603L64.3482 101.596C60.4816 109.65 58.4122 118.191 58.1402 127.22C58.0922 128.756 57.5882 130.516 57.3482 132.06C57.3002 132.37 57.1322 132.468 56.8442 132.356C54.5722 131.5 52.0442 125.66 50.3562 122.316C48.9082 119.452 46.4042 120.084 43.8522 120.668L41.5322 113.628C42.4336 113.527 43.0709 114.292 43.4442 115.924C43.4805 116.09 43.572 116.239 43.7039 116.346C43.8358 116.452 44.0004 116.511 44.1709 116.512C44.3414 116.513 44.5078 116.456 44.6431 116.351C44.7784 116.245 44.8746 116.098 44.9162 115.932C45.7589 112.492 47.0762 109.351 48.8682 106.508C53.0229 99.9216 57.0416 93.2602 60.9242 86.5242C68.6922 73.0362 77.9642 68.9722 92.8922 65.0682C113.524 59.6682 102.396 36.3883 118.412 27.9083C118.647 27.7856 118.778 27.5936 118.804 27.3323C119.188 23.4923 108.356 28.0042 107.252 25.7802C119.06 23.6469 130.919 23.4309 142.828 25.1323Z" fill="#3F333C"/>
<path d="M142.828 25.1321C164.663 28.1774 183.546 37.0601 199.477 51.7801C209.517 61.0601 216.868 71.9561 217.677 86.5801C218.333 98.3561 216.668 109.785 212.684 120.868C206.22 118.132 204.26 124.188 202.364 129.172C202.164 129.684 201.629 130.18 201.205 130.436C201.113 130.491 201.01 130.523 200.904 130.529C200.798 130.535 200.692 130.516 200.594 130.473C200.497 130.43 200.412 130.364 200.345 130.281C200.279 130.198 200.233 130.1 200.212 129.996C199.343 125.751 198.706 121.463 198.301 117.132C197.917 113.036 196.652 110.892 193.364 108.804C193.114 108.649 192.924 108.439 192.796 108.172C191.452 105.457 190.634 102.585 190.34 99.5561C190.3 99.1253 190.097 98.726 189.771 98.4393C189.446 98.1526 189.023 97.9998 188.588 98.0121C178.836 98.3401 177.22 95.3241 173.068 87.4281C172.878 87.0633 172.565 86.7765 172.186 86.6173C171.806 86.4581 171.382 86.4365 170.988 86.5561C166.516 87.8921 162.748 91.3721 157.732 89.5081C154.628 88.3561 152.06 81.7001 148.516 84.6521C144.138 88.3054 139.535 89.0254 134.708 86.8121C139.962 88.1934 144.287 87.3534 147.684 84.2921C151.444 80.9081 152.004 84.3161 154.94 85.0121C156.524 85.3908 158.106 85.2334 159.684 84.5401C159.93 84.4388 160.183 84.3934 160.444 84.4041C163.108 84.5401 165.452 83.2121 167.292 82.8361C172.14 81.8441 174.989 83.8601 178.429 84.1961C186.005 84.9401 189.052 78.9881 188.316 72.2361C186.444 55.0281 171.812 39.2281 157.764 30.5961C153.212 27.7881 148.821 26.8281 143.613 26.2761C143.487 26.2615 143.368 26.2157 143.266 26.1429C143.164 26.0702 143.082 25.9728 143.028 25.8601C142.9 25.6041 142.834 25.3614 142.828 25.1321Z" fill="#2D242F"/>
<path d="M107.252 25.7802C108.356 28.0042 119.188 23.4922 118.804 27.3322C118.778 27.5935 118.647 27.7855 118.412 27.9082C102.396 36.3882 113.524 59.6682 92.8924 65.0682C77.9644 68.9722 68.6924 73.0362 60.9244 86.5242C57.0417 93.2602 53.0231 99.9215 48.8684 106.508C47.0764 109.351 45.7591 112.492 44.9164 115.932C44.8748 116.098 44.7785 116.245 44.6432 116.351C44.5079 116.456 44.3415 116.512 44.171 116.512C44.0006 116.511 43.836 116.452 43.7041 116.345C43.5722 116.239 43.4807 116.09 43.4444 115.924C43.0711 114.292 42.4337 113.527 41.5324 113.628C39.0417 104.706 38.0017 95.4335 38.4124 85.8122C38.8924 74.7082 42.7644 65.9562 50.3404 57.3322C65.1937 40.4042 84.1644 29.8869 107.252 25.7802ZM46.7324 87.9242C52.0124 91.9402 57.0604 84.1562 60.2924 79.7162C68.7884 68.0362 77.4284 56.0442 87.0204 45.2362C87.6337 44.5535 88.2204 43.7562 88.7804 42.8442C88.8432 42.7439 88.8836 42.6306 88.8988 42.5119C88.914 42.3932 88.9036 42.2719 88.8684 42.1562C86.7484 35.7082 73.0924 46.8922 70.1084 49.3162C62.3111 55.6469 55.6497 63.0442 50.1244 71.5082C47.4844 75.5482 42.5004 84.7002 46.7324 87.9242Z" fill="#4B3D44"/>
<path d="M46.7324 87.9243C42.5004 84.7003 47.4844 75.5483 50.1244 71.5083C55.6497 63.0443 62.3111 55.6469 70.1084 49.3163C73.0924 46.8923 86.7484 35.7083 88.8684 42.1563C88.9036 42.272 88.914 42.3933 88.8988 42.512C88.8837 42.6307 88.8433 42.744 88.7804 42.8443C88.2204 43.7563 87.6338 44.5536 87.0204 45.2363C77.4284 56.0443 68.7884 68.0363 60.2924 79.7163C57.0604 84.1563 52.0124 91.9403 46.7324 87.9243Z" fill="#62525B"/>
<path d="M134.709 86.8123C139.535 89.0256 144.138 88.3056 148.517 84.6523C152.061 81.7003 154.629 88.3563 157.733 89.5083C162.749 91.3723 166.517 87.8923 170.989 86.5563C171.383 86.4367 171.806 86.4583 172.186 86.6175C172.566 86.7767 172.878 87.0635 173.069 87.4283C177.221 95.3243 178.837 98.3403 188.589 98.0123C189.023 98 189.446 98.1528 189.771 98.4395C190.097 98.7262 190.3 99.1255 190.341 99.5563C190.634 102.586 191.453 105.458 192.797 108.172C192.925 108.439 193.114 108.65 193.365 108.804C196.653 110.892 197.917 113.036 198.301 117.132C198.706 121.463 199.343 125.751 200.213 129.996C200.234 130.101 200.279 130.198 200.346 130.281C200.412 130.364 200.497 130.43 200.595 130.473C200.692 130.517 200.798 130.536 200.904 130.529C201.01 130.523 201.113 130.491 201.205 130.436C201.629 130.18 202.165 129.684 202.365 129.172C204.261 124.188 206.221 118.132 212.685 120.868C220.573 127.836 221.581 138.564 215.597 146.924C211.341 152.884 203.029 157.348 195.701 154.644C195.436 154.547 195.145 154.55 194.881 154.653C194.617 154.757 194.4 154.952 194.269 155.204C185.757 171.772 170.645 183.084 153.045 188.54C152.794 188.428 152.581 188.212 152.405 187.892C152.282 187.674 152.341 187.522 152.581 187.436C162.853 183.959 170.319 177.324 174.981 167.532C175.429 166.588 175.117 166.02 174.197 165.668C181.309 164.068 188.285 158.764 189.581 151.26C189.842 149.762 189.255 148.927 187.821 148.756C182.205 148.095 176.618 148.404 171.061 149.684C170.597 147.626 171.261 145.844 173.053 144.34C177.479 137.087 177.693 129.986 173.693 123.036C172.501 118.3 170.573 117.3 166.461 115.268C166.263 115.172 166.186 115.018 166.229 114.804C166.301 114.476 162.381 111.46 161.789 110.892C160.205 109.38 157.605 109.972 156.493 108.404C156.327 108.17 156.375 107.988 156.637 107.86C157.319 107.519 157.73 107.034 157.869 106.404C165.133 105.58 171.565 109.884 177.685 113.436C178.794 114.082 179.533 113.788 179.901 112.556C180.429 110.78 177.813 107.66 176.573 106.108C176.354 105.383 175.914 104.788 175.253 104.324C175.045 104.18 174.935 103.978 174.925 103.716C174.837 101.636 167.117 98.1163 165.845 97.5483C163.365 96.4363 159.741 95.9803 156.749 94.4283C156.69 94.3963 156.653 94.3536 156.637 94.3003C156.626 94.2736 156.621 94.2443 156.621 94.2123C156.605 94.0789 156.549 93.9963 156.453 93.9643C150.093 91.6443 142.861 94.7563 137.253 92.0043C135.861 91.3216 134.218 90.3136 132.325 88.9803C132.101 88.8256 131.863 88.8016 131.613 88.9083C127.101 90.8363 124.621 93.5323 119.301 93.5643C115.213 93.5803 111.989 90.6523 107.829 91.5563C105.034 92.1589 102.442 93.2949 100.053 94.9643C99.9887 95.0016 99.9861 95.0469 100.045 95.1003L100.213 95.2443C100.277 95.2976 100.269 95.3349 100.189 95.3563C97.4581 96.0869 95.1807 95.5456 93.3567 93.7323C88.7967 89.1883 83.6927 96.5643 79.8367 98.7243C77.6021 99.9776 75.2421 100.943 72.7567 101.62C66.4847 103.316 64.6847 105.868 62.1647 111.716C62.1621 111.725 62.1579 111.732 62.1522 111.739C62.1466 111.746 62.1396 111.752 62.1318 111.756C62.124 111.76 62.1155 111.762 62.1068 111.763C62.098 111.764 62.0891 111.763 62.0807 111.76C62.0723 111.758 62.0645 111.753 62.0578 111.748C62.051 111.742 62.0454 111.735 62.0413 111.727C62.0373 111.72 62.0348 111.711 62.034 111.702C62.0332 111.694 62.0341 111.685 62.0367 111.676C62.6181 108.375 63.5647 105.25 64.8767 102.3C64.9887 102.044 64.9301 101.836 64.7007 101.676C64.6047 101.607 64.4874 101.58 64.3487 101.596L66.2687 98.2603C66.4127 98.0096 66.6261 97.8976 66.9087 97.9243C75.9007 98.8443 80.0127 94.2843 84.6207 87.6123C84.8122 87.3389 85.0729 87.1219 85.3755 86.984C85.6781 86.8461 86.0114 86.7923 86.3407 86.8283C87.7701 86.9936 89.1941 87.5056 90.6127 88.3643C97.7727 92.6923 101.637 88.3403 106.741 83.8283C106.927 83.6635 107.166 83.5714 107.416 83.5684C107.665 83.5655 107.908 83.652 108.101 83.8123C116.301 90.6683 121.061 90.1323 129.629 84.3803C129.836 84.2383 130.082 84.1616 130.334 84.1602C130.586 84.1588 130.834 84.2326 131.045 84.3723L134.709 86.8123ZM205.181 127.428L204.605 127.772C204.402 127.892 204.242 128.071 204.149 128.284C202.189 132.796 199.069 141.54 200.029 146.724C200.077 146.975 200.194 147.183 200.381 147.348C205.205 151.74 212.117 143.444 213.541 139.364C215.053 135.02 214.517 125.404 208.045 125.396C207.047 125.396 206.215 125.951 205.549 127.06C205.46 127.212 205.333 127.339 205.181 127.428Z" fill="#FBA98B"/>
<path d="M176.572 106.108C170.359 99.351 162.77 96.1963 153.804 96.6443C145.34 97.0683 146.276 107.708 153.26 107.612C153.98 107.602 155.516 107.199 157.868 106.404C157.73 107.034 157.319 107.519 156.636 107.86C156.375 107.988 156.327 108.17 156.492 108.404C157.604 109.972 160.204 109.38 161.788 110.892C162.38 111.46 166.3 114.476 166.228 114.804C166.186 115.018 166.263 115.172 166.46 115.268C170.572 117.3 172.5 118.3 173.692 123.036C171.895 120.844 169.738 119.372 167.22 118.62C166.943 118.54 166.666 118.546 166.388 118.636L165.028 119.092C164.772 119.178 164.511 119.218 164.244 119.212C161.914 119.143 160.572 119.62 160.22 120.644C143.548 132.132 159.668 159.74 171.476 143.756C171.823 144.034 172.348 144.228 173.052 144.34C171.26 145.844 170.596 147.626 171.06 149.684C165.804 150.948 155.14 158.156 163.3 163.98C166.319 166.14 169.951 166.703 174.196 165.668C175.116 166.02 175.428 166.588 174.98 167.532C170.319 177.324 162.852 183.959 152.58 187.436C152.34 187.522 152.282 187.674 152.404 187.892C152.58 188.212 152.794 188.428 153.044 188.54L144.652 190.692L142.132 190.972C133.183 192.034 124.21 192.063 115.212 191.06L110.284 190.884C110.028 190.874 109.812 190.956 109.636 191.132C109.018 191.746 108.332 192.076 107.58 192.124C107.348 192.139 107.127 192.229 106.949 192.379C106.771 192.529 106.646 192.732 106.592 192.959C106.539 193.185 106.559 193.423 106.65 193.637C106.742 193.851 106.9 194.031 107.1 194.148C113.239 197.764 119.666 201.338 126.38 204.868C127.975 205.706 131.234 208.54 136.156 213.372C130.252 214.626 124.111 214.367 117.732 212.596C110.612 210.372 102.388 204.364 101.852 196.348C101.756 194.919 102.063 193.876 102.772 193.22C103.508 192.543 104.578 191.996 105.98 191.58C106.716 191.122 107.708 190.938 108.956 191.028C109.063 191.035 109.169 191.001 109.253 190.934C109.338 190.867 109.394 190.772 109.412 190.667C109.43 190.562 109.408 190.454 109.351 190.366C109.293 190.277 109.204 190.214 109.1 190.188C87.8523 184.596 72.1483 174.492 61.5723 154.404C61.5178 154.299 61.426 154.217 61.314 154.174C61.2021 154.131 61.0777 154.131 60.9643 154.172C51.9563 157.556 42.2443 151.7 38.5803 143.748C35.3723 136.788 36.1403 124.74 43.8523 120.668C46.4043 120.084 48.9083 119.452 50.3563 122.316C52.0443 125.66 54.5723 131.5 56.8443 132.356C57.1323 132.468 57.3003 132.37 57.3483 132.06C57.5883 130.516 58.0923 128.756 58.1403 127.22C58.4123 118.191 60.4817 109.65 64.3483 101.596C64.487 101.58 64.6043 101.607 64.7003 101.676C64.9297 101.836 64.9883 102.044 64.8763 102.3C63.5643 105.25 62.6177 108.375 62.0363 111.676C62.0337 111.685 62.0328 111.694 62.0336 111.702C62.0343 111.711 62.0369 111.72 62.0409 111.727C62.045 111.735 62.0506 111.742 62.0574 111.748C62.0641 111.753 62.0719 111.758 62.0803 111.76C62.0887 111.763 62.0976 111.764 62.1063 111.763C62.1151 111.762 62.1236 111.76 62.1314 111.756C62.1392 111.752 62.1462 111.746 62.1518 111.739C62.1574 111.733 62.1617 111.725 62.1643 111.716C64.6843 105.868 66.4843 103.316 72.7563 101.62C75.2417 100.943 77.6017 99.9776 79.8363 98.7243C83.6923 96.5643 88.7963 89.1883 93.3563 93.7323C95.1803 95.5457 97.4577 96.087 100.188 95.3563C100.268 95.335 100.276 95.2976 100.212 95.2443L100.044 95.1003C99.9857 95.047 99.9883 95.0017 100.052 94.9643C102.442 93.295 105.034 92.159 107.828 91.5563C111.988 90.6523 115.212 93.5803 119.3 93.5643C124.62 93.5323 127.1 90.8363 131.612 88.9083C131.863 88.8017 132.1 88.8257 132.324 88.9803C134.218 90.3137 135.86 91.3217 137.252 92.0043C142.86 94.7563 150.092 91.6443 156.452 93.9643C156.548 93.9963 156.604 94.079 156.62 94.2123C156.62 94.2443 156.626 94.2737 156.636 94.3003C156.652 94.3537 156.69 94.3963 156.748 94.4283C159.74 95.9803 163.364 96.4363 165.844 97.5483C167.116 98.1163 174.836 101.636 174.924 103.716C174.935 103.978 175.044 104.18 175.252 104.324C175.914 104.788 176.354 105.383 176.572 106.108ZM78.7963 113.948C80.5163 113.988 86.1883 109.804 89.5723 108.196C93.183 106.474 97.0257 106.164 101.1 107.268C111.956 110.204 112.564 96.0043 101.828 96.6363C92.5163 97.1883 80.6683 102.588 77.5163 112.132C77.4489 112.337 77.4303 112.555 77.4622 112.769C77.494 112.983 77.5754 113.186 77.6998 113.362C77.8242 113.539 77.9881 113.683 78.1785 113.785C78.3689 113.887 78.5805 113.943 78.7963 113.948ZM86.7003 144.636C90.743 148.386 94.5643 149.194 98.1643 147.06C104.436 143.332 105.9 135.084 103.46 128.372C102.298 125.183 100.028 122.602 96.6523 120.628C91.5697 119.167 87.6417 120.012 84.8683 123.164C82.6123 125.735 81.4843 129.047 81.4843 133.1C81.4843 137.618 83.223 141.463 86.7003 144.636ZM47.1723 146.076C49.4603 148.082 51.839 148.839 54.3083 148.348C56.1083 147.996 56.7483 146.524 56.4123 144.836C55.7883 141.66 52.4443 123.756 46.9483 125.644C45.167 126.258 43.999 127.132 43.4443 128.268C40.1377 135.063 41.3803 140.999 47.1723 146.076ZM130.476 150.004C130.21 149.855 129.887 149.794 129.508 149.82C129.247 149.842 129.06 149.97 128.948 150.204C128.426 151.287 127.543 151.943 126.3 152.172C126.039 152.226 125.852 152.132 125.74 151.892L125.492 151.38C125.428 151.238 125.317 151.124 125.177 151.056C125.038 150.988 124.879 150.971 124.727 151.008C124.575 151.045 124.44 151.133 124.345 151.258C124.25 151.382 124.2 151.536 124.204 151.692C124.236 153.575 124.631 154.719 125.388 155.124C125.042 156.004 125.319 156.647 126.22 157.052C130.116 158.796 133.124 156.34 134.468 152.748C135.786 149.239 135.036 146.058 132.22 143.204C131.516 142.49 130.738 142.463 129.884 143.124C129.802 143.186 129.748 143.278 129.733 143.38C129.718 143.482 129.744 143.585 129.804 143.668C131.244 145.599 131.468 147.711 130.476 150.004ZM70.3963 153.044C67.9723 163.748 78.9323 168.356 87.6443 166.388C92.9563 165.188 98.8203 160.972 93.2363 155.212C87.3697 149.164 80.527 147.514 72.7083 150.26C71.5163 150.676 70.6523 151.916 70.3963 153.044ZM114.068 177.508C122.25 181.556 130.578 181.639 139.052 177.756C142.791 176.594 146.178 174.743 149.212 172.204C151.996 169.884 154.636 165.436 153.212 161.668C153.166 161.546 153.081 161.442 152.971 161.371C152.86 161.301 152.728 161.267 152.596 161.276C151.828 161.335 151.084 161.495 150.364 161.756C134.716 167.383 118.967 167.37 103.116 161.716C102.951 161.657 102.773 161.638 102.599 161.66C102.424 161.682 102.257 161.744 102.111 161.842C101.965 161.94 101.844 162.071 101.757 162.224C101.67 162.377 101.621 162.549 101.612 162.724C101.436 166.244 102.559 169.298 104.98 171.884C107.012 174.055 110.042 175.93 114.068 177.508Z" fill="#FFC7A7"/>
<path d="M78.7966 113.948C78.5807 113.943 78.3692 113.887 78.1788 113.785C77.9884 113.683 77.8244 113.538 77.7 113.362C77.5756 113.186 77.4943 112.982 77.4624 112.769C77.4306 112.555 77.4491 112.337 77.5166 112.132C80.6686 102.588 92.5166 97.1882 101.829 96.6362C112.565 96.0042 111.957 110.204 101.101 107.268C97.0259 106.164 93.1832 106.474 89.5726 108.196C86.1886 109.804 80.5166 113.988 78.7966 113.948Z" fill="#333C4A"/>
<path d="M176.573 106.108C177.813 107.66 180.429 110.78 179.901 112.556C179.533 113.788 178.794 114.081 177.685 113.436C171.565 109.884 165.133 105.58 157.869 106.404C155.517 107.199 153.981 107.601 153.261 107.612C146.277 107.708 145.341 97.0681 153.805 96.6441C162.77 96.1961 170.359 99.3508 176.573 106.108Z" fill="#333C4A"/>
<path d="M173.693 123.036C177.693 129.986 177.479 137.087 173.053 144.34C172.349 144.228 171.823 144.034 171.477 143.756C173.226 140.999 173.983 137.895 173.749 134.444C173.077 124.652 168.567 120.052 160.221 120.644C160.573 119.62 161.914 119.143 164.245 119.212C164.511 119.218 164.773 119.178 165.029 119.092L166.389 118.636C166.666 118.546 166.943 118.54 167.221 118.62C169.738 119.372 171.895 120.844 173.693 123.036Z" fill="#FEFEFE"/>
<path d="M96.6524 120.628C93.0844 120.399 90.423 121.282 88.6684 123.276C83.1964 129.5 82.5404 136.62 86.7004 144.636C83.223 141.463 81.4844 137.618 81.4844 133.1C81.4844 129.047 82.6124 125.735 84.8684 123.164C87.6417 120.012 91.5697 119.167 96.6524 120.628Z" fill="#FEFEFE"/>
<path d="M171.476 143.756C159.668 159.74 143.548 132.132 160.22 120.644C168.567 120.052 173.076 124.652 173.748 134.444C173.983 137.895 173.226 140.999 171.476 143.756ZM163.181 137.119C163.822 137.053 164.409 136.708 164.812 136.159C165.214 135.61 165.4 134.902 165.328 134.191C165.255 133.479 164.931 132.823 164.426 132.366C163.922 131.909 163.277 131.689 162.636 131.754C161.994 131.819 161.407 132.165 161.005 132.714C160.602 133.263 160.416 133.971 160.489 134.682C160.561 135.394 160.885 136.05 161.39 136.507C161.895 136.964 162.539 137.184 163.181 137.119Z" fill="#141319"/>
<path d="M96.6524 120.628C100.028 122.602 102.298 125.183 103.46 128.372C105.9 135.084 104.436 143.332 98.1644 147.06C94.5644 149.194 90.7431 148.386 86.7004 144.636C82.5404 136.62 83.1964 129.5 88.6684 123.276C90.4231 121.282 93.0844 120.399 96.6524 120.628ZM94.359 137.226C94.671 137.263 94.9882 137.229 95.2923 137.127C95.5965 137.025 95.8818 136.857 96.1319 136.632C96.3819 136.407 96.5919 136.13 96.7498 135.816C96.9077 135.502 97.0104 135.158 97.0521 134.804C97.1362 134.087 96.9666 133.371 96.5806 132.812C96.1946 132.253 95.6238 131.897 94.9938 131.823C94.6818 131.786 94.3646 131.82 94.0604 131.922C93.7563 132.024 93.471 132.192 93.2209 132.417C92.9708 132.642 92.7609 132.919 92.603 133.233C92.4451 133.547 92.3424 133.891 92.3007 134.245C92.2165 134.962 92.3861 135.678 92.7721 136.237C93.1581 136.796 93.729 137.152 94.359 137.226Z" fill="#141319"/>
<path d="M47.1722 146.076C41.3802 140.999 40.1375 135.063 43.4442 128.268C43.9988 127.132 45.1669 126.258 46.9482 125.644C52.4442 123.756 55.7882 141.66 56.4122 144.836C56.7482 146.524 56.1082 147.996 54.3082 148.348C51.8388 148.839 49.4602 148.082 47.1722 146.076Z" fill="#FC8E79"/>
<path d="M205.549 127.06C206.215 125.951 207.047 125.396 208.045 125.396C214.517 125.404 215.053 135.02 213.541 139.364C212.117 143.444 205.205 151.74 200.381 147.348C200.194 147.183 200.077 146.975 200.029 146.724C199.069 141.54 202.189 132.796 204.149 128.284C204.242 128.071 204.402 127.892 204.605 127.772L205.181 127.428C205.333 127.339 205.459 127.212 205.549 127.06Z" fill="#FC8E79"/>
<path d="M92.301 134.245C92.1257 135.737 93.0472 137.072 94.3593 137.226C95.6713 137.38 96.877 136.295 97.0523 134.803C97.2275 133.312 96.306 131.977 94.994 131.823C93.6819 131.669 92.4762 132.753 92.301 134.245Z" fill="#FEFEFE"/>
<path d="M160.489 134.682C160.639 136.163 161.845 137.254 163.181 137.118C164.517 136.983 165.479 135.672 165.328 134.19C165.178 132.709 163.972 131.618 162.636 131.754C161.3 131.89 160.339 133.201 160.489 134.682Z" fill="#FEFEFE"/>
<path d="M125.389 155.124C127.901 154.308 129.597 152.602 130.477 150.004C131.469 147.711 131.245 145.599 129.805 143.668C129.744 143.585 129.718 143.482 129.733 143.38C129.748 143.278 129.803 143.187 129.885 143.124C130.738 142.463 131.517 142.49 132.221 143.204C135.037 146.058 135.786 149.239 134.469 152.749C133.125 156.341 130.117 158.797 126.221 157.053C125.319 156.647 125.042 156.004 125.389 155.124Z" fill="#FBA98B"/>
<path d="M174.196 165.668C169.951 166.703 166.319 166.14 163.3 163.98C155.14 158.156 165.804 150.948 171.06 149.684C176.618 148.404 182.204 148.095 187.82 148.756C189.255 148.927 189.842 149.762 189.58 151.26C188.284 158.764 181.308 164.068 174.196 165.668Z" fill="#FC8E79"/>
<path d="M87.6446 166.388C78.9326 168.356 67.9726 163.748 70.3966 153.044C70.6526 151.916 71.5166 150.676 72.7086 150.26C80.5273 147.513 87.3699 149.164 93.2366 155.212C98.8206 160.972 92.9566 165.188 87.6446 166.388Z" fill="#FC8E79"/>
<path d="M130.476 150.004C129.596 152.601 127.9 154.308 125.388 155.124C124.631 154.719 124.236 153.575 124.204 151.692C124.2 151.536 124.25 151.382 124.345 151.257C124.44 151.133 124.575 151.044 124.727 151.008C124.879 150.971 125.038 150.988 125.177 151.056C125.317 151.124 125.428 151.238 125.492 151.38L125.74 151.892C125.852 152.132 126.039 152.225 126.3 152.172C127.543 151.943 128.426 151.287 128.948 150.204C129.06 149.969 129.247 149.841 129.508 149.82C129.887 149.793 130.21 149.855 130.476 150.004Z" fill="#FED0B2"/>
<path d="M139.053 177.756C137.063 175.596 134.653 174.236 131.821 173.676C127.261 172.772 115.501 171.748 114.069 177.508C110.042 175.93 107.013 174.055 104.981 171.884C102.559 169.298 101.437 166.244 101.613 162.724C101.621 162.549 101.671 162.377 101.757 162.224C101.844 162.071 101.965 161.94 102.111 161.842C102.257 161.744 102.424 161.682 102.599 161.66C102.774 161.638 102.951 161.657 103.117 161.716C118.967 167.37 134.717 167.383 150.365 161.756C151.085 161.495 151.829 161.335 152.597 161.276C152.729 161.267 152.86 161.301 152.971 161.371C153.082 161.442 153.167 161.546 153.213 161.668C154.637 165.436 151.997 169.884 149.213 172.204C146.178 174.743 142.791 176.594 139.053 177.756Z" fill="#211B24"/>
<path d="M139.052 177.756C130.578 181.639 122.25 181.556 114.068 177.508C115.5 171.748 127.26 172.772 131.82 173.676C134.652 174.236 137.063 175.596 139.052 177.756Z" fill="#FC8E79"/>
<path d="M115.213 191.06C120.837 202.468 136.181 200.764 142.133 190.972L144.653 190.692L154.269 192.284C156.357 203.756 146.317 211.308 136.157 213.372C131.234 208.54 127.975 205.705 126.381 204.868C119.666 201.337 113.239 197.764 107.101 194.148C106.9 194.03 106.742 193.851 106.651 193.637C106.559 193.423 106.539 193.185 106.593 192.959C106.647 192.732 106.771 192.529 106.949 192.379C107.127 192.228 107.348 192.139 107.581 192.124C108.333 192.076 109.018 191.745 109.637 191.132C109.813 190.956 110.029 190.873 110.285 190.884L115.213 191.06Z" fill="#FC8E79"/>
<path d="M115.212 191.06C124.21 192.063 133.183 192.034 142.132 190.972C136.18 200.764 120.836 202.468 115.212 191.06Z" fill="#F75E54"/>
<path d="M105.98 191.581C104.578 191.997 103.508 192.543 102.772 193.221C102.063 193.877 101.756 194.919 101.852 196.349C102.388 204.365 110.612 210.373 117.732 212.597C120.004 213.935 122.634 214.765 125.62 215.085C125.876 215.116 126.118 215.218 126.316 215.381L136.668 224.085C136.876 224.255 136.954 224.477 136.9 224.749L136.644 226.101C116.988 227.085 99.8122 223.957 81.5322 218.277L73.9082 215.677C73.6446 215.588 73.4252 215.402 73.2956 215.156C73.1659 214.91 73.1361 214.624 73.2122 214.357C77.2762 199.677 91.7962 193.365 105.98 191.581Z" fill="#375B8B"/>
<path d="M154.268 192.284L160.996 194.14C169.804 197.972 179.924 204.484 180.86 215.228C180.882 215.511 180.762 215.708 180.5 215.82C166.522 221.852 151.903 225.279 136.644 226.1L136.9 224.748C136.954 224.476 136.876 224.255 136.668 224.084L126.316 215.38C126.118 215.218 125.877 215.116 125.62 215.084C122.634 214.764 120.004 213.935 117.732 212.596C124.111 214.367 130.252 214.626 136.156 213.372C146.316 211.308 156.356 203.756 154.268 192.284Z" fill="#265073"/>
</svg>
