<svg width="256" height="256" viewBox="0 0 256 256" fill="none" xmlns="http://www.w3.org/2000/svg">
<path d="M83.7788 214.411L87.8028 216.731" stroke="#CDB4C9" stroke-width="2"/>
<path d="M206.979 74.8753C205.155 71.702 202.864 68.742 200.107 65.9953" stroke="#F5F5F2" stroke-width="2"/>
<path d="M200.107 65.9954C201.857 63.6594 202.323 61.614 201.507 59.8594C201.436 59.7046 201.32 59.5746 201.175 59.4856C201.029 59.3965 200.861 59.3522 200.69 59.3582C200.519 59.3641 200.353 59.4201 200.212 59.5191C200.072 59.6181 199.963 59.7558 199.899 59.9153C199.009 62.2193 197.241 63.2327 194.595 62.9554C194.27 62.918 194.118 62.7367 194.139 62.4114C194.307 59.6114 193.987 57.0754 191.427 55.4594" stroke="#F1AF9B" stroke-width="2"/>
<path d="M191.427 55.4593C188.984 52.5953 186.299 50.0913 183.371 47.9473C163.451 33.3553 137.227 25.4352 112.627 30.1712C70.0671 38.3712 42.3791 71.7473 36.9391 114.187C31.7311 154.747 48.2991 193.355 83.7791 214.411" stroke="#F5F5F2" stroke-width="2"/>
<path d="M191.427 55.4595C185.771 53.9315 186.563 58.1315 186.523 61.6835C186.523 61.9929 186.366 62.1502 186.051 62.1555L184.643 62.1715" stroke="#E8A68F" stroke-width="2"/>
<path d="M184.644 62.1716C184.084 61.9263 183.801 61.4596 183.796 60.7716C183.791 60.3788 183.652 59.9995 183.401 59.6968C183.151 59.3941 182.805 59.1862 182.42 59.1076C173.556 57.2756 167.548 53.6116 160.644 48.0676C151.836 40.9956 141.924 34.9716 131.004 42.6916C130.944 42.7345 130.873 42.7586 130.8 42.7608C130.726 42.7631 130.654 42.7435 130.591 42.7044C130.528 42.6653 130.478 42.6084 130.446 42.5408C130.414 42.4731 130.402 42.3976 130.412 42.3236L131.108 37.7076C131.128 37.5717 131.114 37.433 131.068 37.3037C131.021 37.1744 130.942 37.0586 130.84 36.9667C130.737 36.8748 130.612 36.8096 130.477 36.777C130.343 36.7443 130.202 36.7452 130.068 36.7796C127.038 37.5743 124.23 38.8783 121.644 40.6916C121.544 40.7601 121.432 40.8068 121.313 40.8286C121.194 40.8504 121.073 40.8468 120.956 40.818C120.84 40.7892 120.731 40.736 120.637 40.6617C120.543 40.5875 120.466 40.4941 120.412 40.3876C119.862 39.3263 119.086 38.5049 118.084 37.9236C117.828 37.7743 117.553 37.7236 117.26 37.7716C116.081 37.9689 115.118 38.3903 114.372 39.0356C109.828 42.9716 105.564 47.2436 99.5316 48.5956C94.5796 49.7076 86.6036 49.0596 82.5476 54.4276C80.9876 56.4916 81.1157 59.0676 81.0437 61.6036C81.033 62.089 80.889 62.1316 80.6117 61.7316C78.6917 58.9956 76.4757 58.7823 73.9637 61.0916C73.7343 61.2996 73.641 61.2489 73.6837 60.9396C73.8917 59.2863 73.7716 57.6703 73.3236 56.0916C73.2276 55.7556 73.065 55.7209 72.8357 55.9876C67.9077 61.8756 65.6917 72.3716 72.4597 77.8996C72.4872 77.9222 72.5073 77.9526 72.5172 77.9869C72.5271 78.0211 72.5264 78.0576 72.5151 78.0914C72.5038 78.1252 72.4825 78.1549 72.4541 78.1763C72.4256 78.1978 72.3913 78.2101 72.3556 78.2116C67.2783 78.4623 63.4463 80.7529 60.8597 85.0836C56.9717 91.5956 60.1476 98.2356 61.7956 104.692C63.0356 109.588 58.6116 112.988 62.0276 117.652" stroke="#EEB394" stroke-width="2"/>
<path d="M62.0272 117.652C62.0378 118.724 62.2725 119.342 62.7312 119.508C62.8241 119.542 62.9042 119.604 62.9605 119.685C63.0168 119.767 63.0465 119.863 63.0457 119.962C63.0448 120.061 63.0133 120.158 62.9556 120.238C62.8979 120.319 62.8167 120.379 62.7232 120.412C58.8432 121.748 54.3232 125.26 53.2992 129.46C50.1552 142.412 61.3632 150.924 73.3232 147.58" stroke="#F4D6C2" stroke-width="2"/>
<path d="M73.3232 147.58C79.9872 163.804 95.3233 174.02 112.283 176.82C116.902 177.582 119.947 178.23 121.419 178.764" stroke="#F5E0CD" stroke-width="2"/>
<path d="M121.419 178.763L121.027 182.691" stroke="#F4C9B4" stroke-width="2"/>
<path d="M121.028 182.691C121.097 183.433 120.892 184.126 120.412 184.771C119.452 186.051 113.812 186.827 111.956 187.307" stroke="#F4D6C2" stroke-width="2"/>
<path d="M111.955 187.307L106.019 189.275" stroke="#B79FB2" stroke-width="2"/>
<path d="M106.019 189.275C93.9148 193.683 89.1148 203.459 83.7788 214.411" stroke="#C4ACBD" stroke-width="2"/>
<path d="M146.267 187.531C144.155 198.211 133.811 202.147 124.131 200.459" stroke="#BF7C80" stroke-width="2"/>
<path d="M124.131 200.459L124.355 199.491C124.419 199.219 124.59 199.07 124.867 199.043C130.059 198.563 130.563 194.155 129.739 189.987C128.913 185.838 126.009 183.406 121.027 182.691" stroke="#FDB290" stroke-width="2"/>
<path d="M99.0273 221.843L98.0033 198.027C97.9998 197.942 97.9708 197.859 97.9201 197.79C97.8694 197.721 97.7993 197.668 97.7186 197.639C97.638 197.61 97.5505 197.605 97.4672 197.626C97.384 197.647 97.3089 197.692 97.2513 197.755C95.5073 199.627 93.4193 213.515 92.7953 216.779C92.6193 217.723 92.1553 218.067 91.2993 218.339" stroke="#8F5F89" stroke-width="2"/>
<path d="M124.131 200.459C118.019 199.107 111.067 194.363 111.955 187.307" stroke="#C0898E" stroke-width="2"/>
<path d="M200.107 65.9953C198.022 68.39 195.593 70.5607 192.819 72.5073C192.674 72.6101 192.55 72.7411 192.456 72.8925C192.362 73.0439 192.3 73.2126 192.273 73.3882C192.246 73.5639 192.255 73.743 192.3 73.9147C192.344 74.0864 192.423 74.2472 192.531 74.3873C195.083 77.6753 200.419 82.9553 198.267 87.3393C198.129 87.622 198.211 87.8087 198.515 87.8993L201.203 88.7073C201.433 88.7767 201.635 88.894 201.811 89.0593C205.595 92.8033 197.595 93.2273 195.851 93.5553C195.585 93.6033 195.379 93.7393 195.235 93.9633C194.547 95.03 193.953 96.1526 193.451 97.3313C192.411 99.7633 194.139 100.259 195.243 101.643C196.075 102.673 196.947 103.71 197.859 104.755C197.936 104.845 198.044 104.902 198.162 104.917C198.28 104.932 198.4 104.903 198.499 104.835C202.075 102.347 207.307 102.259 209.643 106.387C212.547 111.539 207.995 117.307 202.875 118.715C196.627 120.435 192.603 117.907 187.299 119.667" stroke="#E8A68F" stroke-width="2"/>
<path d="M187.299 119.667C183.891 121.723 183.859 125.083 182.715 128.323C182.544 128.819 182.464 128.803 182.475 128.275C182.643 118.531 183.187 105.523 178.419 96.723C178.11 96.1523 177.68 96.035 177.131 96.371C175.552 97.331 173.854 97.811 172.035 97.811C171.79 97.811 171.555 97.755 171.331 97.643L166.819 95.403C166.526 95.2537 166.224 95.235 165.915 95.347C162.971 96.4137 160 96.3417 157.003 95.131C151.635 92.963 145.675 90.155 143.811 84.275" stroke="#F0835D" stroke-width="2"/>
<path d="M127.827 142.963C127.438 144.457 126.328 145.699 124.499 146.691C124.222 146.841 124.206 147.014 124.451 147.211L125.387 147.979" stroke="#FEC9A9" stroke-width="2"/>
<path d="M117.195 155.563L113.643 153.803C113.382 153.675 113.257 153.755 113.267 154.043C113.278 154.299 113.363 154.512 113.523 154.683C113.683 154.853 113.875 154.968 114.099 155.027L115.963 155.523" stroke="#E8A685" stroke-width="2"/>
<path d="M115.963 155.524C113.251 155.492 116.099 160.164 117.107 161.804C120.147 166.737 124.712 168.926 130.803 168.372" stroke="#FEE8D9" stroke-width="2"/>
<path d="M126.123 179.155L121.419 178.763" stroke="#FDBC9B" stroke-width="2"/>
<path d="M75.0194 134.267L73.6914 131.355" stroke="#DB9B7B" stroke-width="2"/>
<path d="M145.963 224.387L146.299 223.459C146.34 223.343 146.35 223.218 146.328 223.097C146.305 222.976 146.251 222.863 146.171 222.771C139.475 215.043 132.763 208.091 123.987 206.115C114.328 203.939 108.339 198.326 106.019 189.275" stroke="#8F5F89" stroke-width="2"/>
<path d="M135.123 86.5156C134.328 93.545 130.67 98.1503 124.147 100.332" stroke="#FEC7A7" stroke-width="2"/>
<path d="M124.147 100.331C123.259 100.459 118.771 99.9553 118.659 100.507C118.616 100.721 118.499 100.878 118.307 100.979C113.579 103.363 111.363 98.6512 110.915 94.7632C110.667 92.5472 111.307 90.2673 111.675 88.0113C111.697 87.8774 111.689 87.7402 111.65 87.6101C111.61 87.48 111.542 87.3604 111.45 87.2602C111.357 87.1601 111.243 87.082 111.116 87.0319C110.989 86.9819 110.851 86.9611 110.715 86.9712L106.651 87.2672C106.533 87.276 106.422 87.3239 106.334 87.4034C106.245 87.483 106.185 87.5898 106.163 87.7073C103.603 101.059 88.5949 103.979 77.8109 98.9473C77.682 98.8869 77.5406 98.8578 77.3983 98.8625C77.2559 98.8671 77.1167 98.9053 76.992 98.9739C76.8672 99.0425 76.7604 99.1396 76.6803 99.2573C76.6002 99.375 76.549 99.51 76.5309 99.6513C76.2669 101.635 75.4349 103.843 75.0829 105.507C73.3389 113.662 72.8749 122.278 73.6909 131.355" stroke="#FEC9A9" stroke-width="2"/>
<path d="M73.691 131.355C70.659 128.595 68.739 126.059 65.147 124.419C65.042 124.363 64.9189 124.35 64.8049 124.385C64.6909 124.419 64.5953 124.498 64.539 124.603C64.4828 124.708 64.4706 124.831 64.5051 124.945C64.5396 125.059 64.618 125.155 64.723 125.211L66.803 126.523" stroke="#DB9171" stroke-width="2"/>
<path d="M66.8031 126.523C66.6911 127.094 66.707 127.627 66.851 128.123C66.8856 128.241 66.8906 128.366 66.8654 128.486C66.8403 128.606 66.7859 128.718 66.7071 128.811C66.3871 129.195 65.9284 129.377 65.3311 129.355" stroke="#FCAB89" stroke-width="2"/>
<path d="M65.3314 129.356C66.6594 127.3 59.8914 127.06 59.0034 126.884C58.806 126.845 58.6018 126.862 58.4131 126.932C58.2245 127.001 58.0587 127.122 57.934 127.28C57.8093 127.437 57.7303 127.626 57.7059 127.826C57.6814 128.026 57.7124 128.228 57.7954 128.412C58.7394 130.502 60.1181 131.31 61.9314 130.836" stroke="#FEC9A9" stroke-width="2"/>
<path d="M61.9312 130.835C58.6912 134.171 59.4352 142.435 65.1552 140.291C65.3952 140.2 65.6432 140.174 65.8992 140.211L69.0832 140.675C69.2674 140.702 69.4552 140.69 69.6349 140.641C69.8146 140.592 69.9823 140.506 70.1278 140.389C70.2733 140.272 70.3934 140.127 70.4807 139.961C70.568 139.796 70.6206 139.614 70.6352 139.427L71.0352 133.971C71.0506 133.765 71.1417 133.572 71.2912 133.427C71.7979 132.92 72.4512 132.729 73.2512 132.851" stroke="#FCAB89" stroke-width="2"/>
<path d="M73.2515 132.852C73.2675 133.62 73.9475 135.804 75.0195 134.268" stroke="#DB9171" stroke-width="2"/>
<path d="M75.0192 134.267C75.5472 135.542 76.3926 136.23 77.5552 136.331C77.6151 136.337 77.6731 136.355 77.7258 136.384C77.7786 136.413 77.825 136.453 77.8623 136.5C77.8996 136.548 77.9271 136.603 77.943 136.662C77.959 136.721 77.9632 136.783 77.9552 136.843C77.5952 139.411 78.7073 141.507 77.4913 144.083C77.4699 144.126 77.4513 144.123 77.4353 144.075C77.4033 144.001 77.3713 143.934 77.3393 143.875C77.2699 143.731 77.1739 143.705 77.0512 143.795C76.6139 144.11 76.3659 144.539 76.3073 145.083C76.2759 145.329 76.1762 145.562 76.0192 145.755C75.2726 146.662 74.3739 147.27 73.3232 147.579" stroke="#FEC9A9" stroke-width="2"/>
<path d="M184.643 62.1711C185.198 62.6618 185.566 63.1338 185.747 63.5871C185.87 63.8804 185.782 64.0778 185.483 64.1791L178.675 66.4591C178.493 66.5198 178.332 66.6312 178.211 66.7803C178.09 66.9294 178.014 67.11 177.992 67.3008C177.97 67.4916 178.003 67.6846 178.087 67.8572C178.172 68.0298 178.303 68.1748 178.467 68.2751C180.011 69.2271 184.435 71.2511 184.027 73.3951C182.371 82.2351 176.731 89.1871 167.747 90.9871C159.102 92.7258 151.123 90.4884 143.811 84.2751" stroke="#EB6D3C" stroke-width="2"/>
<path d="M143.811 84.2755C142.851 82.5262 142.227 80.2409 141.939 77.4195" stroke="#F78F62" stroke-width="2"/>
<path d="M141.939 77.4196C142.744 75.8783 143.059 74.489 142.883 73.2517C142.491 70.5077 138.843 70.7396 137.379 72.2356C136.51 73.1316 135.259 73.5237 133.627 73.4117C133.35 73.3903 133.134 73.265 132.979 73.0356C131.8 71.329 130.211 70.2223 128.211 69.7156C127.907 69.6356 127.712 69.7477 127.627 70.0517L126.827 72.8916C126.758 73.137 126.603 73.3077 126.363 73.4037C125.328 73.8037 124.315 74.225 123.323 74.6676C122.395 75.0836 121.995 75.7957 122.123 76.8037C122.4 79.0117 122.995 81.121 123.907 83.1316C123.996 83.3309 124.033 83.5494 124.015 83.7668C123.997 83.9842 123.924 84.1936 123.804 84.3755C123.684 84.5574 123.519 84.706 123.326 84.8074C123.133 84.9088 122.917 84.9598 122.699 84.9557C121.43 84.929 120.475 85.505 119.835 86.6836" stroke="#EB6D3C" stroke-width="2"/>
<path d="M119.835 86.6831C118.208 84.9871 117.448 83.1605 117.555 81.2031C117.571 80.8885 117.43 80.7818 117.131 80.8831L116.707 81.0271" stroke="#F79C70" stroke-width="2"/>
<path d="M116.707 81.0273L118.491 77.2513C118.554 77.1226 118.573 76.9769 118.545 76.8364C118.517 76.6959 118.445 76.5683 118.338 76.4731C118.231 76.3779 118.095 76.3203 117.953 76.3091C117.81 76.2979 117.667 76.3339 117.547 76.4113C113.499 78.9793 107.643 76.8432 103.363 75.3632C103.107 75.2726 102.87 75.3073 102.651 75.4673C101.488 76.3259 100.91 77.438 100.915 78.8033C100.926 82.334 100.16 85.6219 98.6188 88.6672C98.5406 88.823 98.419 88.9529 98.2687 89.0411C98.1183 89.1294 97.9457 89.1723 97.7715 89.1647C97.5974 89.1571 97.4291 89.0993 97.2871 88.9983C97.145 88.8972 97.0352 88.7573 96.9708 88.5953L96.3308 86.9713C96.2598 86.7935 96.1434 86.6374 95.9933 86.5186C95.8432 86.3997 95.6646 86.3223 95.4752 86.294C95.2858 86.2657 95.0924 86.2874 94.9141 86.3571C94.7357 86.4268 94.5788 86.542 94.4588 86.6913C92.9495 88.5579 90.9682 89.9739 88.5149 90.9393C83.9309 92.7393 83.1148 88.3393 79.2188 89.1393C71.1708 90.8033 72.3628 100.515 71.4588 106.667C71.0348 109.563 68.2268 111.579 65.8348 113.699C64.8962 114.531 64.7788 115.51 65.4828 116.635C65.6137 116.839 65.6857 117.077 65.6909 117.323L65.7149 119.267" stroke="#EB6D3C" stroke-width="2"/>
<path d="M65.7154 119.268C64.542 119.049 63.3127 118.51 62.0273 117.652" stroke="#F79C70" stroke-width="2"/>
<path d="M206.979 74.875C229.795 119.235 219.715 173.299 182.195 205.859C178.878 208.739 175.368 211.411 171.667 213.875" stroke="#E1DFDC" stroke-width="2"/>
<path d="M171.667 213.875C166.347 201.115 159.611 191.619 146.267 187.531" stroke="#B79FB2" stroke-width="2"/>
<path d="M146.267 187.531L138.083 185.483C137.753 185.399 137.458 185.213 137.241 184.951C137.023 184.69 136.895 184.366 136.875 184.027L136.539 178.988" stroke="#F4C9B4" stroke-width="2"/>
<path d="M136.539 178.987C136.88 178.715 137.128 178.565 137.283 178.539C146.008 176.96 154.139 174.141 161.675 170.083" stroke="#F5DDCB" stroke-width="2"/>
<path d="M161.675 170.083C171.435 164.203 177.035 156.227 182.867 146.467C183.011 146.222 183.216 146.15 183.483 146.251C199.315 152.331 211.315 127.587 195.067 120.635C192.643 119.595 190.243 120.139 187.723 120.619C187.392 120.678 187.251 120.361 187.299 119.667" stroke="#F4C9B4" stroke-width="2"/>
<path d="M170.259 126.939C169.432 127.344 168.656 127.563 167.931 127.595" stroke="#E8A383" stroke-width="2"/>
<path d="M167.932 127.595L167.124 128.043" stroke="#FDB291" stroke-width="2"/>
<path d="M167.123 128.043C164.107 123.963 159.251 120.507 154.051 121.107C140.339 122.691 141.563 148.315 157.555 142.275" stroke="#A67365" stroke-width="2"/>
<path d="M157.555 142.275C157.39 142.963 157.731 143.403 158.579 143.595" stroke="#FEE6D7" stroke-width="2"/>
<path d="M136.54 178.988L126.124 179.156" stroke="#FDBA99" stroke-width="2"/>
<path d="M126.123 179.155C126.832 178.44 126.79 177.31 125.995 175.763C125.878 175.523 125.824 175.27 125.835 175.003C125.851 174.571 125.499 169.803 125.803 169.763C125.995 169.731 125.995 169.688 125.803 169.635C125.718 169.608 125.646 169.584 125.587 169.563C125.51 169.528 125.445 169.469 125.404 169.394C125.363 169.319 125.348 169.233 125.361 169.15C125.374 169.066 125.414 168.99 125.475 168.933C125.537 168.876 125.615 168.841 125.699 168.835L130.803 168.371" stroke="#FED1B1" stroke-width="2"/>
<path d="M130.803 168.371C136.883 166.846 140.421 162.976 141.419 156.763C141.442 156.619 141.427 156.471 141.374 156.335C141.322 156.199 141.234 156.079 141.12 155.988C141.006 155.897 140.87 155.838 140.726 155.817C140.582 155.795 140.434 155.813 140.299 155.867C132.411 159.024 124.605 159.086 116.883 156.051" stroke="#FEE6D7" stroke-width="2"/>
<path d="M116.883 156.051C117.064 155.993 117.168 155.83 117.195 155.563" stroke="#E8A383" stroke-width="2"/>
<path d="M117.195 155.564L122.467 156.7C122.739 156.758 122.969 156.684 123.155 156.476L125.395 154.004C125.587 153.79 125.667 153.54 125.635 153.252C125.545 152.404 125.785 151.721 126.355 151.204C126.558 151.017 126.689 150.793 126.747 150.532C126.966 149.614 126.513 148.764 125.387 147.98" stroke="#FED1B1" stroke-width="2"/>
<path d="M125.388 147.979C130.26 148.635 133.42 143.939 129.116 140.971C129.078 140.946 129.036 140.928 128.991 140.92C128.946 140.913 128.9 140.914 128.857 140.926C128.814 140.937 128.773 140.958 128.739 140.987C128.705 141.015 128.678 141.051 128.66 141.091L127.828 142.963" stroke="#FEC7A7" stroke-width="2"/>
<path d="M127.827 142.963C127.806 141.262 127.462 139.713 126.795 138.315C126.678 138.07 126.675 137.825 126.787 137.579C127.432 136.203 127.806 134.537 127.907 132.579C128.251 126.011 127.627 120.203 127.523 113.979C127.523 113.969 127.526 113.963 127.531 113.963C127.611 113.947 127.68 113.929 127.739 113.907C127.856 113.865 127.904 113.782 127.883 113.659C127.835 113.35 127.731 113.083 127.571 112.859C127.427 112.641 127.352 112.401 127.347 112.139C127.307 109.571 126.467 107.531 126.739 104.915C127.059 101.843 126.195 100.315 124.147 100.331" stroke="#FED1B1" stroke-width="2"/>
<path d="M87.8032 216.731L91.2992 218.339" stroke="#BA9FB3" stroke-width="2"/>
<path d="M91.2993 218.339L99.0273 221.843" stroke="#AD92A8" stroke-width="2"/>
<path d="M99.0273 221.844C114.473 227.428 130.118 228.276 145.963 224.388" stroke="#BA9FB3" stroke-width="2"/>
<path d="M145.963 224.387C155.142 222.318 163.71 218.814 171.667 213.875" stroke="#AD92A8" stroke-width="2"/>
<path d="M161.675 170.083C161.958 165.689 163.075 161.798 165.027 158.411C165.203 158.108 165.289 157.761 165.276 157.411C165.263 157.06 165.152 156.721 164.954 156.431C164.757 156.141 164.482 155.913 164.161 155.772C163.84 155.631 163.486 155.584 163.139 155.635C158.499 156.331 151.955 155.371 148.027 151.747C147.829 151.565 147.692 151.325 147.635 151.059L146.923 147.499C146.875 147.259 146.923 147.043 147.067 146.851C147.958 145.683 148.779 145.139 149.531 145.219C152.598 145.55 155.614 145.009 158.579 143.595" stroke="#FDBA99" stroke-width="2"/>
<path d="M158.579 143.595L164.587 140.707" stroke="#FDD1C0" stroke-width="2"/>
<path d="M164.587 140.708C167.171 141.188 168.515 135.619 168.963 133.835C169.031 133.577 169.183 133.348 169.395 133.188C170.315 132.508 172.851 131.643 173.259 130.779C173.291 130.713 173.303 130.639 173.293 130.566C173.283 130.493 173.252 130.424 173.203 130.369C173.155 130.314 173.091 130.274 173.02 130.254C172.949 130.235 172.873 130.237 172.803 130.26L169.155 131.388C169.031 131.428 168.896 131.419 168.778 131.365C168.659 131.31 168.565 131.212 168.515 131.092L167.699 129.188" stroke="#A55F4E" stroke-width="2"/>
<path d="M167.699 129.187C167.688 128.857 167.824 128.726 168.107 128.795" stroke="#FC9E7B" stroke-width="2"/>
<path d="M168.107 128.795C169.707 128.694 170.424 128.075 170.259 126.939" stroke="#E78F6D" stroke-width="2"/>
<path d="M170.26 126.939L173.308 125.859C173.429 125.817 173.535 125.739 173.609 125.634C173.684 125.529 173.724 125.404 173.724 125.275C173.796 117.547 172.524 109.843 171.636 102.147C171.622 102.027 171.567 101.914 171.48 101.827C171.393 101.74 171.279 101.684 171.156 101.667C165.108 100.907 157.244 101.475 152.228 99.955C145.726 97.9817 141.516 93.403 139.596 86.219C139.539 86.0076 139.402 85.827 139.213 85.7162C139.024 85.6054 138.8 85.5733 138.588 85.627L135.124 86.515" stroke="#FDBA99" stroke-width="2"/>
<path d="M135.123 86.5151L128.811 84.0352" stroke="#FDB290" stroke-width="2"/>
<path d="M116.883 156.051L115.963 155.523" stroke="#E8BBAB" stroke-width="2"/>
<path d="M73.2512 132.851C71.3526 130.462 69.2032 128.353 66.8032 126.523" stroke="#DA7C5B" stroke-width="2"/>
<path d="M141.939 77.4195C137.563 81.9555 133.123 80.4515 128.219 77.9635C128.119 77.9121 128.007 77.8892 127.896 77.8974C127.784 77.9056 127.676 77.9445 127.585 78.0099C127.494 78.0753 127.423 78.1647 127.38 78.268C127.336 78.3714 127.322 78.4847 127.339 78.5956C127.552 80.0782 128.203 81.3102 129.291 82.2915C129.397 82.3872 129.47 82.5148 129.499 82.6558C129.528 82.7968 129.511 82.9439 129.451 83.0755C129.227 83.5555 129.014 83.8755 128.811 84.0355" stroke="#F0835D" stroke-width="2"/>
<path d="M128.811 84.0352C128.486 84.5898 128.395 84.9738 128.539 85.1872C134.795 94.5152 118.555 100.795 116.099 93.6352C116.003 93.3578 116.011 93.0858 116.123 92.8191C117.371 89.9471 119.363 90.2272 122.019 90.0432C122.122 90.0352 122.219 89.9946 122.297 89.9273C122.374 89.86 122.428 89.7695 122.451 89.6691C122.473 89.5688 122.463 89.4639 122.421 89.37C122.379 89.276 122.309 89.1979 122.219 89.1472C121.131 88.5445 120.337 87.7232 119.835 86.6832" stroke="#F1906B" stroke-width="2"/>
<path d="M116.707 81.0273C113.035 82.0193 109.027 80.7313 105.435 80.1873C105.152 80.1446 104.989 80.2646 104.947 80.5473C103.475 90.7553 95.2668 98.5073 84.5148 96.6113C83.9228 96.51 83.0002 95.8806 81.7468 94.7233C81.5495 94.542 81.3202 94.4646 81.0588 94.4913C76.2268 95.0433 74.7228 97.5953 73.8188 102.283C72.8508 107.275 70.9788 112.515 70.9068 117.179C70.8588 119.905 71.0882 122.614 71.5948 125.307C71.6108 125.366 71.5975 125.422 71.5548 125.475C71.5122 125.529 71.4562 125.558 71.3868 125.563C71.3068 125.574 71.2615 125.542 71.2508 125.467C70.7868 122.294 68.9415 120.227 65.7148 119.267" stroke="#F1906B" stroke-width="2"/>
<path d="M61.9312 130.835C62.9552 129.886 64.0885 129.393 65.3312 129.355" stroke="#FDB593" stroke-width="2"/>
<path d="M167.124 128.044C167.22 128.454 167.412 128.836 167.7 129.188" stroke="#A55747" stroke-width="2"/>
<path d="M164.587 140.707C167.035 134.043 164.611 126.187 156.371 125.947" stroke="#A68B8C" stroke-width="2"/>
<path d="M156.372 125.947C155.772 125.811 155.884 124.475 156.772 124.571" stroke="#642423" stroke-width="2"/>
<path d="M156.771 124.571C161.176 125.398 164.264 127.881 166.035 132.019C166.082 132.128 166.167 132.217 166.274 132.27C166.381 132.323 166.503 132.336 166.618 132.307C166.732 132.278 166.832 132.208 166.899 132.111C166.965 132.014 166.993 131.896 166.979 131.779C166.427 126.531 162.419 122.771 156.987 123.883" stroke="#532A32" stroke-width="2"/>
<path d="M156.987 123.883C153.312 124.347 150.547 125.944 148.691 128.675C148.614 128.787 148.582 128.923 148.602 129.057C148.623 129.191 148.694 129.312 148.801 129.396C148.908 129.48 149.044 129.521 149.181 129.51C149.318 129.5 149.446 129.438 149.539 129.339C150.67 128.096 151.798 127.491 152.923 127.523" stroke="#642423" stroke-width="2"/>
<path d="M152.923 127.523L151.931 128.811C151.718 129.083 151.737 129.337 151.987 129.571L153.739 131.227C153.853 131.333 153.999 131.396 154.153 131.407C154.308 131.417 154.461 131.373 154.587 131.283L156.531 129.891C156.647 129.808 156.725 129.682 156.749 129.542C156.773 129.401 156.741 129.257 156.659 129.139L155.907 128.027C155.721 127.745 155.785 127.659 156.099 127.771C162.891 130.179 162.291 138.227 157.555 142.275" stroke="#A68B8C" stroke-width="2"/>
<path d="M168.108 128.795C167.937 128.433 167.878 128.033 167.932 127.595" stroke="#E68765" stroke-width="2"/>
<path d="M156.371 125.947C155.166 126.784 154.017 127.31 152.923 127.523" stroke="#BC9695" stroke-width="2"/>
<path d="M156.771 124.571C156.659 124.192 156.731 123.963 156.987 123.883" stroke="#69363B" stroke-width="2"/>
<path d="M125.667 42.1957C123.283 42.1637 119.419 44.1557 120.811 47.1077C120.955 47.4117 121.184 47.5023 121.499 47.3797C123.76 46.5103 125.24 44.9077 125.939 42.5717C126.014 42.3263 125.923 42.201 125.667 42.1957Z" stroke="#F48C3E" stroke-width="2"/>
<path d="M110.228 53.2243C110.625 53.5084 111.342 53.31 112.223 52.6728C113.104 52.0356 114.075 51.0118 114.923 49.8266C115.772 48.6414 116.428 47.3919 116.748 46.353C117.067 45.3141 117.024 44.5708 116.627 44.2867C116.23 44.0027 115.512 44.201 114.632 44.8382C113.751 45.4754 112.78 46.4992 111.931 47.6844C111.083 48.8696 110.427 50.1191 110.107 51.158C109.788 52.197 109.831 52.9403 110.228 53.2243Z" stroke="#F48C3E" stroke-width="2"/>
<path d="M100.131 52.3873C95.667 53.2033 86.203 54.7393 86.307 61.4113C86.3177 61.8966 86.4883 61.9633 86.819 61.6113C90.867 57.3713 95.467 55.9393 100.467 53.3553C100.574 53.2959 100.657 53.2006 100.701 53.0862C100.744 52.9718 100.746 52.8457 100.706 52.73C100.666 52.6142 100.586 52.5164 100.481 52.4537C100.376 52.391 100.252 52.3675 100.131 52.3873Z" stroke="#F48C3E" stroke-width="2"/>
<path d="M191.131 130.564C186.299 129.46 181.499 134.38 185.123 138.468" stroke="#FD8A65" stroke-width="2"/>
<path d="M185.124 138.467C185.369 139.016 185.772 139.456 186.332 139.787C186.577 139.926 186.702 139.856 186.708 139.579C186.729 138.928 186.985 138.384 187.476 137.947C187.774 137.686 187.849 137.739 187.7 138.107C187.476 138.678 187.609 139.206 188.1 139.691C188.26 139.851 188.452 139.934 188.676 139.939C190.878 140.014 192.718 139.203 194.196 137.507" stroke="#FC9E7B" stroke-width="2"/>
<path d="M194.195 137.508C194.985 136.665 195.294 135.356 195.123 133.58" stroke="#FD8A65" stroke-width="2"/>
<path d="M195.123 133.579C196.403 132.875 196.185 131.566 194.467 129.651C192.494 127.459 190.198 126.947 187.579 128.115C187.464 128.167 187.37 128.256 187.313 128.369C187.255 128.481 187.238 128.61 187.264 128.734C187.291 128.857 187.358 128.968 187.457 129.048C187.555 129.127 187.677 129.171 187.803 129.171L190.251 129.195C190.555 129.195 190.779 129.329 190.923 129.595C191.073 129.867 191.142 130.19 191.131 130.563" stroke="#FDB290" stroke-width="2"/>
<path d="M195.123 133.579C194.345 131.611 193.014 130.606 191.131 130.563" stroke="#FE9773" stroke-width="2"/>
<path d="M194.196 137.507L193.892 133.339C193.882 133.207 193.834 133.08 193.752 132.976C193.671 132.872 193.561 132.795 193.436 132.755L189.828 131.587C189.697 131.545 189.558 131.537 189.422 131.562C189.287 131.587 189.16 131.645 189.052 131.731C187.364 133.091 185.86 136.435 185.124 138.467" stroke="#FD825E" stroke-width="2"/>
<path d="M145.611 108.995C152.731 105.987 160.491 107.243 165.867 112.843C166.097 113.088 166.187 113.043 166.139 112.707C166.022 111.939 165.739 111.179 165.291 110.427C160.835 103.035 152.603 101.531 144.843 104.043C142.435 104.827 142.619 108.331 144.867 109.027C145.118 109.107 145.366 109.096 145.611 108.995Z" stroke="#FEC57E" stroke-width="2"/>
<path d="M143.747 153.484C143.859 152.998 143.683 152.849 143.219 153.036C142.787 153.212 142.443 153.492 142.187 153.876C142.001 154.169 142.078 154.337 142.419 154.38C143.145 154.47 143.587 154.172 143.747 153.484Z" stroke="#E8A383" stroke-width="2"/>
<path d="M102.907 108.003C104.219 108.312 105.547 108.534 106.891 108.667C107.131 108.688 107.339 108.619 107.515 108.459C108.609 107.44 108.638 106.52 107.603 105.699C101.027 100.507 90.5153 104.155 86.6833 111.187C86.4273 111.656 86.518 111.736 86.9553 111.427C91.8273 107.971 97.0513 106.635 102.907 108.003Z" stroke="#FECD86" stroke-width="2"/>
<path d="M86.2506 138.355C83.9626 140.707 85.9787 142.531 86.0667 145.059C86.0773 145.395 85.9226 145.609 85.6026 145.699L82.4587 146.587C82.2783 146.641 82.1197 146.751 82.0071 146.902C81.8945 147.053 81.8341 147.237 81.835 147.424C81.8359 147.612 81.8981 147.793 82.0121 147.941C82.1262 148.089 82.2858 148.195 82.4667 148.243C85.08 148.947 86.152 150.699 85.6827 153.499C85.6293 153.809 85.7467 154.027 86.0347 154.155C92.8133 157.19 99.5253 156.998 106.171 153.579C107.84 152.726 109.003 151.377 109.659 149.531C109.755 149.27 109.733 149.019 109.595 148.779C108.411 146.705 106.544 145.409 103.995 144.891" stroke="#FEC9A9" stroke-width="2"/>
<path d="M103.995 144.891C108.528 142.496 110.302 138.523 109.315 132.971C109.28 132.779 109.186 132.603 109.046 132.467C108.906 132.331 108.727 132.243 108.534 132.215C108.342 132.186 108.146 132.219 107.975 132.309C107.803 132.399 107.665 132.541 107.579 132.715L107.331 133.195" stroke="#F9E1CD" stroke-width="2"/>
<path d="M107.331 133.196C107.278 130.833 106.603 128.785 105.307 127.052" stroke="#B07D71" stroke-width="2"/>
<path d="M105.307 127.051C105.312 126.833 105.408 126.742 105.595 126.779" stroke="#BC8170" stroke-width="2"/>
<path d="M105.595 126.779L108.075 130.827C108.278 131.158 108.358 131.131 108.315 130.747C106.947 117.907 92.6352 117.995 86.7152 127.435C86.5499 127.702 86.3472 127.736 86.1072 127.539L83.3792 125.363C83.0219 125.08 82.9445 125.142 83.1472 125.547C83.7072 126.688 84.5152 127.574 85.5712 128.203C85.8192 128.352 86.0055 128.586 86.0955 128.862C86.1856 129.138 86.1734 129.436 86.0612 129.703C85.949 129.969 85.7443 130.185 85.4851 130.311C85.2259 130.437 84.9296 130.464 84.6512 130.387C83.2432 130.008 81.9845 129.395 80.8752 128.547C80.7045 128.414 80.6246 128.454 80.6352 128.667C80.7472 130.491 83.3552 132.163 84.9152 133.115C85.1446 133.254 85.2832 133.451 85.3312 133.707L86.2512 138.355" stroke="#9C7970" stroke-width="2"/>
<path d="M105.595 126.779C103.222 124.193 100.318 123.07 96.883 123.411C96.8324 123.416 96.7831 123.432 96.7378 123.456C96.6925 123.481 96.6521 123.515 96.619 123.555C96.1604 124.073 96.2591 124.286 96.9151 124.195" stroke="#5A272C" stroke-width="2"/>
<path d="M96.915 124.195C96.2163 124.547 95.5576 125.123 94.939 125.923" stroke="#4E232E" stroke-width="2"/>
<path d="M94.9395 125.923C87.9555 128.443 87.0035 135.243 89.3555 141.915" stroke="#97878A" stroke-width="2"/>
<path d="M89.3555 141.915L86.2515 138.355" stroke="#9C6F65" stroke-width="2"/>
<path d="M105.307 127.051C102.838 124.929 100.04 123.977 96.915 124.195" stroke="#6D2B2E" stroke-width="2"/>
<path d="M103.995 144.892C98.4115 144.404 92.6435 144.332 89.3555 141.916" stroke="#F8D7C3" stroke-width="2"/>
<path d="M107.332 133.195C107.468 140.851 101.004 146.699 93.8996 140.779C88.9716 136.675 90.5876 129.891 94.9396 125.923" stroke="#AA8B8B" stroke-width="2"/>
<path d="M125.203 137.875C125.071 137.797 124.919 137.757 124.765 137.759C124.611 137.761 124.461 137.805 124.331 137.887C124.2 137.968 124.095 138.085 124.026 138.222C123.957 138.36 123.927 138.514 123.939 138.667L124.395 144.555C124.417 144.799 124.524 145.028 124.698 145.201C124.872 145.374 125.102 145.48 125.346 145.499C125.59 145.518 125.832 145.45 126.028 145.306C126.225 145.163 126.364 144.953 126.419 144.715C127.035 142.083 128.043 139.539 125.203 137.875Z" stroke="#FEE8D9" stroke-width="2"/>
<path d="M102.731 139.46C102.251 138.953 101.713 138.497 101.115 138.092C100.902 137.953 100.702 137.966 100.515 138.132C99.0488 139.454 97.3235 140.156 95.3395 140.236C94.9341 140.252 94.8861 140.39 95.1955 140.652C98.0648 143.046 100.883 142.998 103.651 140.508C103.875 140.3 103.851 140.132 103.579 140.004L103.259 139.852C103.057 139.756 102.881 139.625 102.731 139.46Z" stroke="#AE5F51" stroke-width="2"/>
<path d="M191.427 55.4593C185.771 53.9313 186.563 58.1313 186.523 61.6833C186.523 61.9926 186.366 62.1499 186.051 62.1553L184.643 62.1712C184.083 61.9259 183.8 61.4593 183.795 60.7712C183.79 60.3785 183.651 59.9992 183.401 59.6964C183.15 59.3937 182.804 59.1858 182.419 59.1073C173.555 57.2753 167.547 53.6112 160.643 48.0672C151.835 40.9952 141.923 34.9713 131.003 42.6913C130.943 42.7342 130.873 42.7582 130.799 42.7605C130.726 42.7628 130.653 42.7432 130.59 42.7041C130.528 42.665 130.477 42.6081 130.445 42.5404C130.413 42.4728 130.401 42.3973 130.411 42.3232L131.107 37.7073C131.128 37.5714 131.114 37.4326 131.067 37.3033C131.02 37.174 130.942 37.0583 130.839 36.9664C130.736 36.8745 130.612 36.8093 130.477 36.7766C130.342 36.744 130.201 36.7449 130.067 36.7793C127.038 37.5739 124.23 38.8779 121.643 40.6913C121.544 40.7598 121.431 40.8065 121.312 40.8283C121.194 40.8501 121.072 40.8465 120.956 40.8177C120.839 40.7889 120.73 40.7356 120.636 40.6614C120.542 40.5872 120.466 40.4937 120.411 40.3873C119.862 39.3259 119.086 38.5046 118.083 37.9233C117.827 37.7739 117.552 37.7232 117.259 37.7712C116.08 37.9686 115.118 38.3899 114.371 39.0353C109.827 42.9713 105.563 47.2433 99.5311 48.5953C94.5791 49.7073 86.6031 49.0593 82.5471 54.4273C80.9871 56.4913 81.1151 59.0673 81.0431 61.6033C81.0325 62.0886 80.8885 62.1313 80.6111 61.7313C78.6911 58.9953 76.4751 58.7819 73.9631 61.0913C73.7338 61.2993 73.6405 61.2486 73.6831 60.9393C73.8911 59.2859 73.7711 57.6699 73.3231 56.0913C73.2271 55.7553 73.0645 55.7206 72.8351 55.9873C67.9071 61.8753 65.6911 72.3713 72.4591 77.8993C72.4867 77.9219 72.5068 77.9523 72.5167 77.9865C72.5266 78.0208 72.5258 78.0572 72.5146 78.0911C72.5033 78.1249 72.482 78.1545 72.4535 78.176C72.4251 78.1974 72.3907 78.2098 72.3551 78.2113C67.2778 78.462 63.4458 80.7526 60.8591 85.0833C56.9711 91.5953 60.1471 98.2353 61.7951 104.691C63.0351 109.587 58.6111 112.987 62.0271 117.651C62.0378 118.723 62.2724 119.342 62.7311 119.507C62.824 119.541 62.9041 119.603 62.9604 119.685C63.0167 119.766 63.0465 119.863 63.0456 119.962C63.0447 120.061 63.0133 120.157 62.9556 120.238C62.8978 120.318 62.8166 120.379 62.7231 120.411C58.8431 121.747 54.3231 125.259 53.2991 129.459C50.1551 142.411 61.3631 150.923 73.3231 147.579C79.9871 163.803 95.3231 174.019 112.283 176.819C116.902 177.582 119.947 178.23 121.419 178.763L121.027 182.691C121.096 183.433 120.891 184.126 120.411 184.771C119.451 186.051 113.811 186.827 111.955 187.307L106.019 189.275C93.9151 193.683 89.1151 203.459 83.7791 214.411C48.2991 193.355 31.7311 154.747 36.9391 114.187C42.3791 71.7473 70.0671 38.3712 112.627 30.1712C137.227 25.4352 163.451 33.3553 183.371 47.9473C186.299 50.0913 188.984 52.5953 191.427 55.4593Z" fill="#EBECE6"/>
<path d="M184.644 62.1716C185.198 62.6623 185.566 63.1343 185.748 63.5876C185.87 63.8809 185.782 64.0783 185.484 64.1796L178.676 66.4596C178.493 66.5203 178.332 66.6317 178.211 66.7808C178.09 66.9299 178.014 67.1105 177.993 67.3013C177.971 67.4921 178.004 67.6851 178.088 67.8577C178.172 68.0303 178.304 68.1753 178.468 68.2756C180.012 69.2276 184.436 71.2516 184.028 73.3956C182.372 82.2356 176.732 89.1876 167.748 90.9876C159.102 92.7263 151.124 90.4889 143.812 84.2756C142.852 82.5263 142.228 80.2409 141.94 77.4196C142.745 75.8783 143.06 74.489 142.884 73.2516C142.492 70.5076 138.844 70.7396 137.38 72.2356C136.51 73.1316 135.26 73.5236 133.628 73.4116C133.35 73.3903 133.134 73.2649 132.98 73.0356C131.801 71.3289 130.212 70.2223 128.212 69.7156C127.908 69.6356 127.713 69.7476 127.628 70.0516L126.828 72.8916C126.758 73.1369 126.604 73.3076 126.364 73.4036C125.329 73.8036 124.316 74.2249 123.324 74.6676C122.396 75.0836 121.996 75.7956 122.124 76.8036C122.401 79.0116 122.996 81.1209 123.908 83.1316C123.997 83.3308 124.034 83.5493 124.016 83.7668C123.998 83.9842 123.925 84.1935 123.805 84.3755C123.684 84.5574 123.52 84.7059 123.327 84.8073C123.133 84.9088 122.918 84.9598 122.7 84.9556C121.43 84.929 120.476 85.5049 119.836 86.6836C118.209 84.9876 117.449 83.161 117.556 81.2036C117.572 80.889 117.43 80.7823 117.132 80.8836L116.708 81.0276L118.492 77.2516C118.555 77.123 118.574 76.9772 118.546 76.8367C118.518 76.6962 118.445 76.5686 118.338 76.4734C118.231 76.3782 118.096 76.3206 117.953 76.3094C117.811 76.2983 117.668 76.3342 117.548 76.4116C113.5 78.9796 107.644 76.8436 103.364 75.3636C103.108 75.2729 102.87 75.3076 102.652 75.4676C101.489 76.3263 100.91 77.4383 100.916 78.8036C100.926 82.3343 100.161 85.6223 98.6196 88.6676C98.5414 88.8234 98.4198 88.9532 98.2695 89.0415C98.1191 89.1297 97.9465 89.1727 97.7724 89.1651C97.5982 89.1574 97.4299 89.0996 97.2879 88.9986C97.1458 88.8976 97.036 88.7576 96.9716 88.5956L96.3316 86.9716C96.2606 86.7938 96.1442 86.6377 95.9941 86.5189C95.844 86.4001 95.6654 86.3227 95.476 86.2943C95.2867 86.266 95.0932 86.2878 94.9149 86.3575C94.7366 86.4272 94.5796 86.5424 94.4597 86.6916C92.9503 88.5583 90.969 89.9743 88.5157 90.9396C83.9317 92.7396 83.1156 88.3396 79.2196 89.1396C71.1716 90.8036 72.3637 100.516 71.4597 106.668C71.0357 109.564 68.2277 111.58 65.8357 113.7C64.897 114.532 64.7797 115.51 65.4837 116.636C65.6145 116.839 65.6865 117.078 65.6917 117.324L65.7157 119.268C64.5423 119.049 63.313 118.51 62.0276 117.652C58.6116 112.988 63.0356 109.588 61.7956 104.692C60.1476 98.2356 56.9717 91.5956 60.8597 85.0836C63.4463 80.7529 67.2783 78.4623 72.3556 78.2116C72.3913 78.2101 72.4256 78.1978 72.4541 78.1763C72.4825 78.1549 72.5038 78.1252 72.5151 78.0914C72.5264 78.0576 72.5271 78.0211 72.5172 77.9869C72.5073 77.9526 72.4872 77.9222 72.4597 77.8996C65.6917 72.3716 67.9077 61.8756 72.8357 55.9876C73.065 55.7209 73.2276 55.7556 73.3236 56.0916C73.7716 57.6703 73.8917 59.2863 73.6837 60.9396C73.641 61.2489 73.7343 61.2996 73.9637 61.0916C76.4757 58.7823 78.6917 58.9956 80.6117 61.7316C80.889 62.1316 81.033 62.089 81.0437 61.6036C81.1157 59.0676 80.9876 56.4916 82.5476 54.4276C86.6036 49.0596 94.5797 49.7076 99.5317 48.5956C105.564 47.2436 109.828 42.9716 114.372 39.0356C115.118 38.3903 116.081 37.9689 117.26 37.7716C117.553 37.7236 117.828 37.7743 118.084 37.9236C119.086 38.5049 119.862 39.3263 120.412 40.3876C120.466 40.4941 120.543 40.5875 120.637 40.6617C120.731 40.736 120.84 40.7892 120.956 40.818C121.073 40.8468 121.194 40.8504 121.313 40.8286C121.432 40.8068 121.544 40.7601 121.644 40.6916C124.23 38.8783 127.038 37.5743 130.068 36.7796C130.202 36.7452 130.343 36.7443 130.477 36.777C130.612 36.8096 130.737 36.8748 130.84 36.9667C130.943 37.0586 131.021 37.1744 131.068 37.3037C131.114 37.433 131.128 37.5717 131.108 37.7076L130.412 42.3236C130.402 42.3976 130.414 42.4731 130.446 42.5408C130.478 42.6084 130.528 42.6653 130.591 42.7044C130.654 42.7435 130.726 42.7631 130.8 42.7608C130.873 42.7586 130.944 42.7345 131.004 42.6916C141.924 34.9716 151.836 40.9956 160.644 48.0676C167.548 53.6116 173.556 57.2756 182.42 59.1076C182.805 59.1862 183.151 59.3941 183.401 59.6968C183.652 59.9995 183.791 60.3788 183.796 60.7716C183.801 61.4596 184.084 61.9263 184.644 62.1716ZM125.668 42.1956C123.284 42.1636 119.42 44.1556 120.812 47.1076C120.956 47.4116 121.185 47.5023 121.5 47.3796C123.761 46.5103 125.241 44.9076 125.94 42.5716C126.014 42.3263 125.924 42.2009 125.668 42.1956ZM110.228 53.2244C110.625 53.5085 111.343 53.3101 112.223 52.6729C113.104 52.0357 114.075 51.0119 114.924 49.8267C115.772 48.6415 116.428 47.392 116.748 46.3531C117.067 45.3141 117.024 44.5709 116.627 44.2868C116.23 44.0028 115.513 44.2011 114.632 44.8383C113.751 45.4755 112.78 46.4993 111.932 47.6845C111.083 48.8697 110.427 50.1192 110.107 51.1581C109.788 52.197 109.832 52.9403 110.228 53.2244ZM100.132 52.3876C95.6677 53.2036 86.2037 54.7396 86.3077 61.4116C86.3183 61.897 86.489 61.9636 86.8196 61.6116C90.8676 57.3716 95.4677 55.9396 100.468 53.3556C100.575 53.2962 100.658 53.2009 100.701 53.0865C100.745 52.9721 100.747 52.846 100.707 52.7303C100.667 52.6146 100.587 52.5167 100.482 52.4541C100.377 52.3914 100.253 52.3678 100.132 52.3876Z" fill="#F17941"/>
<path d="M120.811 47.1077C119.419 44.1557 123.283 42.1637 125.667 42.1957C125.923 42.201 126.014 42.3263 125.939 42.5717C125.24 44.9077 123.76 46.5103 121.499 47.3797C121.184 47.5023 120.955 47.4117 120.811 47.1077Z" fill="#F69F3A"/>
<path d="M111.931 47.6844C110.164 50.1525 109.401 52.6328 110.228 53.2243C111.054 53.8159 113.156 52.2947 114.923 49.8266C116.69 47.3586 117.453 44.8783 116.626 44.2867C115.8 43.6952 113.698 45.2164 111.931 47.6844Z" fill="#F69F3A"/>
<path d="M86.307 61.4113C86.203 54.7393 95.667 53.2033 100.131 52.3873C100.252 52.3675 100.376 52.391 100.481 52.4537C100.586 52.5164 100.666 52.6142 100.706 52.73C100.746 52.8457 100.744 52.9718 100.701 53.0862C100.657 53.2006 100.574 53.2959 100.467 53.3553C95.467 55.9393 90.867 57.3713 86.819 61.6113C86.4883 61.9633 86.3177 61.8966 86.307 61.4113Z" fill="#F69F3A"/>
<path d="M191.427 55.4595C193.987 57.0755 194.307 59.6115 194.139 62.4115C194.118 62.7369 194.27 62.9182 194.595 62.9555C197.24 63.2329 199.008 62.2195 199.899 59.9155C199.963 59.756 200.071 59.6183 200.212 59.5193C200.352 59.4202 200.518 59.3643 200.689 59.3583C200.86 59.3524 201.029 59.3966 201.174 59.4857C201.32 59.5748 201.435 59.7048 201.507 59.8595C202.323 61.6142 201.856 63.6595 200.107 65.9955C198.022 68.3902 195.592 70.5609 192.819 72.5075C192.673 72.6103 192.55 72.7413 192.456 72.8927C192.362 73.0441 192.3 73.2128 192.273 73.3884C192.246 73.5641 192.255 73.7432 192.299 73.9149C192.344 74.0866 192.423 74.2474 192.531 74.3875C195.083 77.6755 200.419 82.9555 198.267 87.3395C198.128 87.6222 198.211 87.8089 198.515 87.8995L201.203 88.7075C201.432 88.7769 201.635 88.8942 201.811 89.0595C205.595 92.8035 197.595 93.2275 195.851 93.5555C195.584 93.6035 195.379 93.7395 195.235 93.9635C194.547 95.0302 193.952 96.1529 193.451 97.3315C192.411 99.7635 194.139 100.26 195.243 101.644C196.075 102.673 196.947 103.71 197.859 104.756C197.936 104.845 198.044 104.903 198.162 104.917C198.28 104.932 198.4 104.903 198.499 104.836C202.075 102.348 207.307 102.26 209.643 106.388C212.547 111.54 207.995 117.307 202.875 118.715C196.627 120.436 192.603 117.908 187.299 119.668C183.891 121.724 183.859 125.084 182.715 128.324C182.544 128.82 182.464 128.804 182.475 128.276C182.643 118.532 183.187 105.524 178.419 96.7235C178.11 96.1528 177.68 96.0355 177.131 96.3715C175.552 97.3315 173.854 97.8115 172.035 97.8115C171.79 97.8115 171.555 97.7555 171.331 97.6435L166.819 95.4035C166.526 95.2542 166.224 95.2355 165.915 95.3475C162.971 96.4142 160 96.3422 157.003 95.1315C151.635 92.9635 145.675 90.1555 143.811 84.2755C151.123 90.4888 159.102 92.7262 167.747 90.9875C176.731 89.1875 182.371 82.2355 184.027 73.3955C184.435 71.2515 180.011 69.2275 178.467 68.2755C178.303 68.1752 178.172 68.0302 178.087 67.8576C178.003 67.685 177.97 67.492 177.992 67.3012C178.014 67.1104 178.09 66.9298 178.211 66.7807C178.332 66.6316 178.493 66.5202 178.675 66.4595L185.483 64.1795C185.782 64.0782 185.87 63.8809 185.747 63.5875C185.566 63.1342 185.198 62.6622 184.643 62.1715L186.051 62.1555C186.366 62.1502 186.523 61.9929 186.523 61.6835C186.563 58.1315 185.771 53.9315 191.427 55.4595Z" fill="#E46037"/>
<path d="M200.107 65.9953C202.864 68.742 205.155 71.702 206.979 74.8753C229.795 119.235 219.715 173.299 182.195 205.859C178.878 208.739 175.368 211.411 171.667 213.875C166.347 201.115 159.611 191.619 146.267 187.531L138.083 185.483C137.753 185.399 137.458 185.213 137.241 184.951C137.023 184.689 136.895 184.366 136.875 184.027L136.539 178.987C136.88 178.715 137.128 178.566 137.283 178.539C146.008 176.961 154.139 174.142 161.675 170.083C171.435 164.203 177.035 156.227 182.867 146.467C183.011 146.222 183.216 146.15 183.483 146.251C199.315 152.331 211.315 127.587 195.067 120.635C192.643 119.595 190.243 120.139 187.723 120.619C187.392 120.678 187.251 120.361 187.299 119.667C192.603 117.907 196.627 120.435 202.875 118.715C207.995 117.307 212.547 111.539 209.643 106.387C207.307 102.259 202.075 102.347 198.499 104.835C198.4 104.903 198.28 104.932 198.162 104.917C198.044 104.902 197.936 104.845 197.859 104.755C196.947 103.71 196.075 102.673 195.243 101.643C194.139 100.259 192.411 99.7633 193.451 97.3313C193.952 96.1526 194.547 95.0299 195.235 93.9633C195.379 93.7393 195.584 93.6033 195.851 93.5553C197.595 93.2273 205.595 92.8033 201.811 89.0593C201.635 88.894 201.432 88.7767 201.203 88.7073L198.515 87.8993C198.211 87.8087 198.128 87.622 198.267 87.3393C200.419 82.9553 195.083 77.6753 192.531 74.3873C192.423 74.2472 192.344 74.0864 192.299 73.9147C192.255 73.743 192.246 73.5639 192.273 73.3882C192.3 73.2126 192.362 73.0439 192.456 72.8925C192.55 72.7411 192.673 72.6101 192.819 72.5073C195.592 70.5607 198.022 68.39 200.107 65.9953Z" fill="#EBECE6"/>
<path d="M141.939 77.4196C137.563 81.9556 133.123 80.4516 128.219 77.9636C128.12 77.9122 128.008 77.8893 127.896 77.8975C127.784 77.9057 127.677 77.9446 127.586 78.01C127.494 78.0754 127.423 78.1648 127.38 78.2681C127.336 78.3715 127.322 78.4848 127.339 78.5957C127.553 80.0783 128.203 81.3103 129.291 82.2916C129.398 82.3873 129.471 82.5149 129.499 82.6559C129.528 82.7969 129.511 82.944 129.451 83.0756C129.227 83.5556 129.014 83.8756 128.811 84.0356C128.486 84.5903 128.395 84.9743 128.539 85.1876C134.795 94.5156 118.555 100.796 116.099 93.6356C116.003 93.3583 116.011 93.0863 116.123 92.8196C117.371 89.9476 119.363 90.2277 122.019 90.0437C122.122 90.0357 122.219 89.9951 122.297 89.9278C122.374 89.8605 122.428 89.77 122.451 89.6696C122.473 89.5693 122.463 89.4644 122.421 89.3705C122.379 89.2765 122.309 89.1984 122.219 89.1477C121.131 88.545 120.337 87.7236 119.835 86.6836C120.475 85.505 121.43 84.929 122.699 84.9557C122.917 84.9598 123.133 84.9088 123.326 84.8074C123.519 84.706 123.684 84.5574 123.804 84.3755C123.925 84.1936 123.997 83.9842 124.015 83.7668C124.033 83.5494 123.996 83.3309 123.907 83.1316C122.995 81.121 122.401 79.0117 122.123 76.8037C121.995 75.7957 122.395 75.0836 123.323 74.6676C124.315 74.225 125.329 73.8037 126.363 73.4037C126.603 73.3077 126.758 73.137 126.827 72.8916L127.627 70.0517C127.713 69.7477 127.907 69.6356 128.211 69.7156C130.211 70.2223 131.801 71.329 132.979 73.0356C133.134 73.265 133.35 73.3903 133.627 73.4117C135.259 73.5237 136.51 73.1316 137.379 72.2356C138.843 70.7396 142.491 70.5077 142.883 73.2517C143.059 74.489 142.745 75.8783 141.939 77.4196Z" fill="#E46037"/>
<path d="M116.707 81.0273C113.035 82.0193 109.027 80.7313 105.435 80.1873C105.152 80.1446 104.989 80.2646 104.947 80.5473C103.475 90.7553 95.2669 98.5073 84.5149 96.6113C83.9229 96.51 83.0002 95.8806 81.7468 94.7233C81.5495 94.5419 81.3202 94.4646 81.0588 94.4913C76.2268 95.0433 74.7228 97.5953 73.8188 102.283C72.8508 107.275 70.9788 112.515 70.9068 117.179C70.8588 119.905 71.0882 122.614 71.5948 125.307C71.6108 125.366 71.5975 125.422 71.5548 125.475C71.5122 125.529 71.4562 125.558 71.3868 125.563C71.3068 125.574 71.2615 125.542 71.2508 125.467C70.7868 122.294 68.9415 120.227 65.7149 119.267L65.6909 117.323C65.6857 117.077 65.6137 116.839 65.4828 116.635C64.7788 115.51 64.8962 114.531 65.8348 113.699C68.2268 111.579 71.0348 109.563 71.4588 106.667C72.3628 100.515 71.1708 90.8033 79.2188 89.1393C83.1148 88.3393 83.9309 92.7393 88.5149 90.9393C90.9682 89.9739 92.9495 88.5579 94.4588 86.6913C94.5788 86.542 94.7357 86.4268 94.9141 86.3571C95.0924 86.2874 95.2858 86.2657 95.4752 86.294C95.6646 86.3223 95.8432 86.3997 95.9933 86.5186C96.1434 86.6374 96.2598 86.7935 96.3308 86.9713L96.9708 88.5953C97.0352 88.7573 97.145 88.8972 97.2871 88.9983C97.4291 89.0993 97.5974 89.1571 97.7715 89.1647C97.9457 89.1723 98.1183 89.1294 98.2687 89.0411C98.419 88.9529 98.5406 88.823 98.6188 88.6673C100.16 85.6219 100.926 82.334 100.915 78.8033C100.91 77.438 101.488 76.3259 102.651 75.4673C102.87 75.3073 103.107 75.2726 103.363 75.3632C107.643 76.8432 113.499 78.9793 117.547 76.4113C117.667 76.3339 117.81 76.2979 117.953 76.3091C118.095 76.3203 118.231 76.3779 118.338 76.4731C118.445 76.5683 118.517 76.6959 118.545 76.8364C118.573 76.9769 118.554 77.1226 118.491 77.2513L116.707 81.0273Z" fill="#E46037"/>
<path d="M141.939 77.4187C142.227 80.2401 142.851 82.5254 143.811 84.2748C145.675 90.1548 151.635 92.9628 157.003 95.1308C160 96.3414 162.971 96.4134 165.915 95.3468C166.224 95.2348 166.526 95.2534 166.819 95.4028L171.331 97.6428C171.555 97.7548 171.79 97.8108 172.035 97.8108C173.854 97.8108 175.552 97.3307 177.131 96.3707C177.68 96.0347 178.11 96.1521 178.419 96.7228C183.187 105.523 182.643 118.531 182.475 128.275C182.464 128.803 182.544 128.819 182.715 128.323C183.859 125.083 183.891 121.723 187.299 119.667C187.251 120.36 187.392 120.677 187.723 120.619C190.243 120.139 192.643 119.595 195.067 120.635C211.315 127.587 199.315 152.331 183.483 146.251C183.216 146.149 183.011 146.221 182.867 146.467C177.035 156.227 171.435 164.203 161.675 170.083C161.958 165.688 163.075 161.797 165.027 158.411C165.202 158.107 165.288 157.76 165.276 157.41C165.263 157.06 165.151 156.72 164.954 156.43C164.757 156.14 164.482 155.912 164.161 155.771C163.84 155.631 163.486 155.583 163.139 155.635C158.499 156.331 151.955 155.371 148.027 151.747C147.829 151.565 147.692 151.324 147.635 151.059L146.923 147.499C146.875 147.259 146.923 147.043 147.067 146.851C147.958 145.683 148.779 145.139 149.531 145.219C152.598 145.549 155.614 145.008 158.579 143.595L164.587 140.707C167.171 141.187 168.515 135.619 168.963 133.835C169.03 133.576 169.183 133.348 169.395 133.187C170.315 132.507 172.851 131.643 173.259 130.779C173.291 130.712 173.303 130.638 173.293 130.565C173.283 130.492 173.251 130.424 173.203 130.368C173.154 130.313 173.09 130.273 173.019 130.253C172.948 130.234 172.873 130.236 172.803 130.259L169.155 131.387C169.031 131.427 168.896 131.419 168.777 131.364C168.659 131.309 168.565 131.211 168.515 131.091L167.699 129.187C167.688 128.856 167.824 128.725 168.107 128.795C169.707 128.693 170.424 128.075 170.259 126.939L173.307 125.859C173.429 125.817 173.534 125.738 173.609 125.634C173.683 125.529 173.723 125.403 173.723 125.275C173.795 117.547 172.523 109.843 171.635 102.147C171.621 102.026 171.567 101.914 171.48 101.827C171.393 101.74 171.279 101.683 171.155 101.667C165.107 100.907 157.243 101.475 152.227 99.9548C145.726 97.9814 141.515 93.4027 139.595 86.2187C139.539 86.0074 139.401 85.8267 139.212 85.7159C139.024 85.6051 138.799 85.5731 138.587 85.6268L135.123 86.5147L128.811 84.0348C129.014 83.8748 129.227 83.5548 129.451 83.0748C129.511 82.9431 129.528 82.796 129.499 82.655C129.47 82.514 129.397 82.3864 129.291 82.2908C128.203 81.3094 127.552 80.0774 127.339 78.5948C127.322 78.4839 127.336 78.3706 127.38 78.2672C127.423 78.1639 127.494 78.0745 127.585 78.0091C127.676 77.9437 127.784 77.9048 127.896 77.8966C128.007 77.8884 128.119 77.9113 128.219 77.9627C133.123 80.4507 137.563 81.9547 141.939 77.4187ZM191.131 130.563C186.299 129.459 181.499 134.379 185.123 138.467C185.368 139.016 185.771 139.456 186.331 139.787C186.576 139.925 186.702 139.856 186.707 139.579C186.728 138.928 186.984 138.384 187.475 137.947C187.774 137.685 187.848 137.739 187.699 138.107C187.475 138.677 187.608 139.205 188.099 139.691C188.259 139.851 188.451 139.933 188.675 139.939C190.878 140.013 192.718 139.203 194.195 137.507C194.984 136.664 195.294 135.355 195.123 133.579C196.403 132.875 196.184 131.565 194.467 129.651C192.494 127.459 190.198 126.947 187.579 128.115C187.464 128.166 187.369 128.256 187.312 128.368C187.255 128.481 187.238 128.61 187.264 128.733C187.29 128.857 187.358 128.968 187.456 129.047C187.554 129.127 187.677 129.17 187.803 129.171L190.251 129.195C190.555 129.195 190.779 129.328 190.923 129.595C191.072 129.867 191.142 130.189 191.131 130.563Z" fill="#FCA582"/>
<path d="M116.707 81.0273L117.131 80.8833C117.43 80.782 117.571 80.8887 117.555 81.2033C117.449 83.1607 118.209 84.9873 119.835 86.6833C120.337 87.7233 121.131 88.5446 122.219 89.1473C122.309 89.1981 122.379 89.2761 122.421 89.3701C122.463 89.4641 122.473 89.569 122.451 89.6693C122.428 89.7696 122.374 89.8601 122.297 89.9274C122.219 89.9948 122.122 90.0354 122.019 90.0433C119.363 90.2273 117.371 89.9473 116.123 92.8193C116.011 93.086 116.003 93.358 116.099 93.6353C118.555 100.795 134.795 94.5153 128.539 85.1873C128.395 84.974 128.486 84.59 128.811 84.0353L135.123 86.5153C134.328 93.5446 130.67 98.15 124.147 100.331C123.259 100.459 118.771 99.9553 118.659 100.507C118.617 100.721 118.499 100.878 118.307 100.979C113.579 103.363 111.363 98.6513 110.915 94.7633C110.667 92.5473 111.307 90.2673 111.675 88.0113C111.697 87.8775 111.689 87.7403 111.65 87.6102C111.611 87.48 111.542 87.3604 111.45 87.2603C111.358 87.1601 111.243 87.082 111.116 87.032C110.989 86.9819 110.852 86.9612 110.715 86.9713L106.651 87.2673C106.534 87.276 106.422 87.3239 106.334 87.4035C106.246 87.483 106.186 87.5898 106.163 87.7073C103.603 101.059 88.5952 103.979 77.8112 98.9473C77.6822 98.8869 77.5408 98.8579 77.3985 98.8625C77.2562 98.8671 77.117 98.9053 76.9922 98.9739C76.8674 99.0425 76.7607 99.1397 76.6805 99.2574C76.6004 99.3751 76.5492 99.5101 76.5312 99.6513C76.2672 101.635 75.4352 103.843 75.0832 105.507C73.3392 113.662 72.8752 122.278 73.6912 131.355C70.6592 128.595 68.7392 126.059 65.1472 124.419C65.0421 124.363 64.9191 124.351 64.8051 124.385C64.691 124.42 64.5954 124.498 64.5392 124.603C64.483 124.708 64.4707 124.831 64.5052 124.945C64.5397 125.059 64.6181 125.155 64.7232 125.211L66.8032 126.523C66.6912 127.094 66.7072 127.627 66.8512 128.123C66.8857 128.241 66.8907 128.365 66.8655 128.485C66.8404 128.605 66.786 128.717 66.7072 128.811C66.3872 129.195 65.9285 129.377 65.3312 129.355C66.6592 127.299 59.8912 127.059 59.0032 126.883C58.8057 126.845 58.6015 126.861 58.4129 126.931C58.2243 127.001 58.0585 127.122 57.9338 127.279C57.809 127.437 57.7301 127.626 57.7056 127.826C57.6812 128.026 57.7122 128.228 57.7952 128.411C58.7392 130.502 60.1178 131.31 61.9312 130.835C58.6912 134.171 59.4352 142.435 65.1552 140.291C65.3952 140.201 65.6432 140.174 65.8992 140.211L69.0832 140.675C69.2674 140.702 69.4551 140.69 69.6348 140.641C69.8145 140.592 69.9823 140.506 70.1278 140.389C70.2733 140.272 70.3934 140.127 70.4807 139.961C70.5679 139.796 70.6205 139.614 70.6352 139.427L71.0352 133.971C71.0505 133.765 71.1417 133.572 71.2912 133.427C71.7978 132.921 72.4512 132.729 73.2512 132.851C73.2672 133.619 73.9472 135.803 75.0192 134.267C75.5472 135.542 76.3925 136.23 77.5552 136.331C77.615 136.337 77.673 136.355 77.7257 136.384C77.7785 136.413 77.8249 136.453 77.8622 136.501C77.8995 136.548 77.927 136.603 77.943 136.662C77.9589 136.721 77.9631 136.783 77.9552 136.843C77.5952 139.411 78.7072 141.507 77.4912 144.083C77.4698 144.126 77.4512 144.123 77.4352 144.075C77.4032 144.001 77.3712 143.934 77.3392 143.875C77.2698 143.731 77.1738 143.705 77.0512 143.795C76.6138 144.11 76.3658 144.539 76.3072 145.083C76.2758 145.329 76.1761 145.562 76.0192 145.755C75.2725 146.662 74.3738 147.27 73.3232 147.579C61.3632 150.923 50.1552 142.411 53.2992 129.459C54.3232 125.259 58.8432 121.747 62.7232 120.411C62.8167 120.379 62.8979 120.318 62.9556 120.238C63.0133 120.157 63.0448 120.061 63.0457 119.962C63.0465 119.863 63.0168 119.766 62.9605 119.685C62.9042 119.603 62.8241 119.541 62.7312 119.507C62.2725 119.342 62.0378 118.723 62.0272 117.651C63.3125 118.51 64.5418 119.049 65.7152 119.267C68.9418 120.227 70.7872 122.294 71.2512 125.467C71.2618 125.542 71.3072 125.574 71.3872 125.563C71.4565 125.558 71.5125 125.529 71.5552 125.475C71.5978 125.422 71.6112 125.366 71.5952 125.307C71.0885 122.614 70.8592 119.905 70.9072 117.179C70.9792 112.515 72.8512 107.275 73.8192 102.283C74.7232 97.5953 76.2272 95.0433 81.0592 94.4913C81.3205 94.4646 81.5498 94.542 81.7472 94.7233C83.0005 95.8806 83.9232 96.51 84.5152 96.6113C95.2672 98.5073 103.475 90.7553 104.947 80.5473C104.99 80.2646 105.153 80.1446 105.435 80.1873C109.027 80.7313 113.035 82.0193 116.707 81.0273Z" fill="#FDBF9E"/>
<path d="M170.259 126.939C169.432 127.344 168.656 127.563 167.931 127.595L167.123 128.043C164.107 123.963 159.251 120.507 154.051 121.107C140.339 122.691 141.563 148.315 157.555 142.275C157.389 142.963 157.731 143.403 158.579 143.595C155.613 145.008 152.597 145.55 149.531 145.219C148.779 145.139 147.957 145.683 147.067 146.851C146.923 147.043 146.875 147.259 146.923 147.499L147.635 151.059C147.692 151.325 147.829 151.565 148.027 151.747C151.955 155.371 158.499 156.331 163.139 155.635C163.486 155.584 163.84 155.631 164.161 155.772C164.482 155.912 164.757 156.141 164.954 156.431C165.151 156.72 165.263 157.06 165.275 157.41C165.288 157.761 165.202 158.107 165.027 158.411C163.075 161.798 161.957 165.688 161.675 170.083C154.139 174.142 146.008 176.96 137.283 178.539C137.128 178.566 136.88 178.715 136.539 178.987L126.123 179.155C126.832 178.44 126.789 177.31 125.995 175.763C125.877 175.523 125.824 175.27 125.835 175.003C125.851 174.571 125.499 169.803 125.803 169.763C125.995 169.731 125.995 169.688 125.803 169.635C125.717 169.608 125.645 169.584 125.587 169.563C125.509 169.528 125.445 169.469 125.404 169.394C125.363 169.319 125.348 169.233 125.361 169.149C125.373 169.066 125.414 168.99 125.475 168.933C125.536 168.876 125.615 168.841 125.699 168.835L130.803 168.371C136.883 166.846 140.421 162.976 141.419 156.763C141.442 156.619 141.427 156.471 141.374 156.335C141.322 156.199 141.234 156.08 141.12 155.988C141.006 155.897 140.87 155.838 140.726 155.817C140.582 155.795 140.434 155.813 140.299 155.867C132.411 159.024 124.605 159.086 116.883 156.051C117.064 155.992 117.168 155.83 117.195 155.563L122.467 156.699C122.739 156.758 122.968 156.683 123.155 156.475L125.395 154.003C125.587 153.79 125.667 153.539 125.635 153.251C125.544 152.403 125.784 151.72 126.355 151.203C126.557 151.016 126.688 150.792 126.747 150.531C126.965 149.614 126.512 148.763 125.387 147.979C130.259 148.635 133.419 143.939 129.115 140.971C129.077 140.945 129.035 140.928 128.99 140.92C128.945 140.912 128.9 140.914 128.856 140.926C128.813 140.937 128.773 140.958 128.738 140.986C128.704 141.015 128.677 141.051 128.659 141.091L127.827 142.963C127.805 141.262 127.461 139.712 126.795 138.315C126.677 138.07 126.675 137.824 126.787 137.579C127.432 136.203 127.805 134.536 127.907 132.579C128.251 126.011 127.627 120.203 127.523 113.979C127.523 113.968 127.525 113.963 127.531 113.963C127.611 113.947 127.68 113.928 127.739 113.907C127.856 113.864 127.904 113.782 127.883 113.659C127.835 113.35 127.731 113.083 127.571 112.859C127.427 112.64 127.352 112.4 127.347 112.139C127.307 109.571 126.467 107.531 126.739 104.915C127.059 101.843 126.195 100.315 124.147 100.331C130.669 98.1497 134.328 93.5443 135.123 86.515L138.587 85.627C138.799 85.5733 139.024 85.6054 139.212 85.7162C139.401 85.827 139.538 86.0076 139.595 86.219C141.515 93.403 145.725 97.9817 152.227 99.955C157.243 101.475 165.107 100.907 171.155 101.667C171.278 101.684 171.393 101.74 171.48 101.827C171.567 101.914 171.621 102.027 171.635 102.147C172.523 109.843 173.795 117.547 173.723 125.275C173.723 125.404 173.683 125.529 173.609 125.634C173.534 125.739 173.428 125.817 173.307 125.859L170.259 126.939ZM145.611 108.995C152.731 105.987 160.491 107.243 165.867 112.843C166.096 113.088 166.187 113.043 166.139 112.707C166.021 111.939 165.739 111.179 165.291 110.427C160.835 103.035 152.603 101.531 144.843 104.043C142.435 104.827 142.619 108.331 144.867 109.027C145.117 109.107 145.365 109.096 145.611 108.995ZM143.747 153.483C143.859 152.998 143.683 152.848 143.219 153.035C142.787 153.211 142.443 153.491 142.187 153.875C142 154.168 142.077 154.336 142.419 154.379C143.144 154.47 143.587 154.171 143.747 153.483Z" fill="#FECEAF"/>
<path d="M124.147 100.331C126.195 100.315 127.059 101.843 126.739 104.915C126.467 107.531 127.307 109.571 127.347 112.139C127.352 112.401 127.427 112.641 127.571 112.859C127.731 113.083 127.835 113.35 127.883 113.659C127.904 113.782 127.856 113.865 127.739 113.907C127.68 113.929 127.611 113.947 127.531 113.963C127.526 113.963 127.523 113.969 127.523 113.979C127.627 120.203 128.251 126.011 127.907 132.579C127.806 134.537 127.432 136.203 126.787 137.579C126.675 137.825 126.678 138.07 126.795 138.315C127.462 139.713 127.806 141.262 127.827 142.963C127.438 144.457 126.328 145.699 124.499 146.691C124.222 146.841 124.206 147.014 124.451 147.211L125.387 147.979C126.512 148.763 126.966 149.614 126.747 150.531C126.688 150.793 126.558 151.017 126.355 151.203C125.784 151.721 125.544 152.403 125.635 153.251C125.667 153.539 125.587 153.79 125.395 154.003L123.155 156.475C122.968 156.683 122.739 156.758 122.467 156.699L117.195 155.563L113.643 153.803C113.382 153.675 113.256 153.755 113.267 154.043C113.278 154.299 113.363 154.513 113.523 154.683C113.683 154.854 113.875 154.969 114.099 155.027L115.963 155.523C113.251 155.491 116.099 160.163 117.107 161.803C120.147 166.737 124.712 168.926 130.803 168.371L125.699 168.835C125.615 168.842 125.536 168.876 125.475 168.933C125.414 168.99 125.374 169.066 125.361 169.15C125.348 169.233 125.363 169.319 125.404 169.394C125.445 169.469 125.509 169.529 125.587 169.563C125.646 169.585 125.718 169.609 125.803 169.635C125.995 169.689 125.995 169.731 125.803 169.763C125.499 169.803 125.851 174.571 125.835 175.003C125.824 175.27 125.878 175.523 125.995 175.763C126.79 177.31 126.832 178.441 126.123 179.155L121.419 178.763C119.947 178.23 116.902 177.582 112.283 176.819C95.3229 174.019 79.9869 163.803 73.3229 147.579C74.3736 147.27 75.2722 146.662 76.0189 145.755C76.1758 145.562 76.2756 145.329 76.3069 145.083C76.3656 144.539 76.6136 144.11 77.0509 143.795C77.1736 143.705 77.2696 143.731 77.3389 143.875C77.3709 143.934 77.4029 144.001 77.4349 144.075C77.4509 144.123 77.4696 144.126 77.4909 144.083C78.7069 141.507 77.5949 139.411 77.9549 136.843C77.9628 136.783 77.9587 136.721 77.9427 136.662C77.9267 136.603 77.8993 136.548 77.862 136.501C77.8247 136.453 77.7782 136.413 77.7255 136.384C77.6727 136.355 77.6147 136.337 77.5549 136.331C76.3923 136.23 75.5469 135.542 75.0189 134.267L73.6909 131.355C72.8749 122.278 73.3389 113.662 75.0829 105.507C75.4349 103.843 76.2669 101.635 76.5309 99.6513C76.549 99.51 76.6002 99.375 76.6803 99.2573C76.7604 99.1396 76.8672 99.0425 76.992 98.9739C77.1167 98.9053 77.2559 98.8671 77.3983 98.8625C77.5406 98.8578 77.682 98.8869 77.8109 98.9473C88.5949 103.979 103.603 101.059 106.163 87.7073C106.185 87.5898 106.245 87.483 106.334 87.4034C106.422 87.3239 106.533 87.276 106.651 87.2672L110.715 86.9712C110.851 86.9611 110.989 86.9819 111.116 87.0319C111.243 87.082 111.357 87.1601 111.45 87.2602C111.542 87.3604 111.61 87.48 111.65 87.6101C111.689 87.7402 111.697 87.8774 111.675 88.0113C111.307 90.2673 110.667 92.5472 110.915 94.7632C111.363 98.6512 113.579 103.363 118.307 100.979C118.499 100.878 118.616 100.721 118.659 100.507C118.771 99.9553 123.259 100.459 124.147 100.331ZM102.907 108.003C104.219 108.313 105.547 108.534 106.891 108.667C107.131 108.689 107.339 108.619 107.515 108.459C108.608 107.441 108.638 106.521 107.603 105.699C101.027 100.507 90.5149 104.155 86.6829 111.187C86.4269 111.657 86.5176 111.737 86.9549 111.427C91.8269 107.971 97.0509 106.635 102.907 108.003ZM86.2509 138.355C83.9629 140.707 85.9789 142.531 86.0669 145.059C86.0776 145.395 85.9229 145.609 85.6029 145.699L82.4589 146.587C82.2786 146.64 82.12 146.751 82.0074 146.902C81.8948 147.053 81.8343 147.237 81.8352 147.424C81.8362 147.612 81.8984 147.793 82.0124 147.941C82.1265 148.089 82.2861 148.195 82.4669 148.243C85.0803 148.947 86.1523 150.699 85.6829 153.499C85.6296 153.809 85.7469 154.027 86.0349 154.155C92.8136 157.19 99.5256 156.998 106.171 153.579C107.84 152.726 109.003 151.377 109.659 149.531C109.755 149.27 109.734 149.019 109.595 148.779C108.411 146.705 106.544 145.409 103.995 144.891C108.528 142.497 110.302 138.523 109.315 132.971C109.28 132.78 109.186 132.603 109.045 132.467C108.905 132.332 108.726 132.243 108.534 132.215C108.342 132.187 108.146 132.22 107.974 132.31C107.803 132.399 107.665 132.541 107.579 132.715L107.331 133.195C107.278 130.833 106.603 128.785 105.307 127.051C105.312 126.833 105.408 126.742 105.595 126.779L108.075 130.827C108.278 131.158 108.358 131.131 108.315 130.747C106.947 117.907 92.6349 117.995 86.7149 127.435C86.5496 127.702 86.3469 127.737 86.1069 127.539L83.3789 125.363C83.0216 125.081 82.9442 125.142 83.1469 125.547C83.7069 126.689 84.5149 127.574 85.5709 128.203C85.8189 128.352 86.0052 128.586 86.0953 128.862C86.1853 129.138 86.1732 129.437 86.0609 129.703C85.9487 129.969 85.744 130.185 85.4848 130.311C85.2256 130.437 84.9294 130.464 84.6509 130.387C83.2429 130.009 81.9843 129.395 80.8749 128.547C80.7043 128.414 80.6243 128.454 80.6349 128.667C80.7469 130.491 83.3549 132.163 84.9149 133.115C85.1443 133.254 85.2829 133.451 85.3309 133.707L86.2509 138.355ZM125.203 137.875C125.07 137.797 124.919 137.757 124.765 137.759C124.611 137.761 124.461 137.805 124.33 137.887C124.2 137.969 124.094 138.085 124.025 138.222C123.956 138.36 123.926 138.514 123.939 138.667L124.395 144.555C124.416 144.799 124.524 145.028 124.698 145.201C124.872 145.374 125.102 145.48 125.345 145.499C125.589 145.518 125.831 145.45 126.028 145.306C126.225 145.163 126.363 144.953 126.419 144.715C127.035 142.083 128.043 139.539 125.203 137.875Z" fill="#FED3B3"/>
<path d="M165.867 112.843C160.491 107.243 152.731 105.987 145.611 108.995C145.366 109.096 145.118 109.107 144.867 109.027C142.619 108.331 142.435 104.827 144.843 104.043C152.603 101.531 160.835 103.035 165.291 110.427C165.739 111.179 166.022 111.939 166.139 112.707C166.187 113.043 166.097 113.088 165.867 112.843Z" fill="#FDBC4C"/>
<path d="M102.907 108.003C97.0513 106.635 91.8273 107.971 86.9553 111.427C86.518 111.736 86.4273 111.656 86.6833 111.187C90.5153 104.155 101.027 100.507 107.603 105.699C108.638 106.52 108.609 107.44 107.515 108.459C107.339 108.619 107.131 108.688 106.891 108.667C105.547 108.534 104.219 108.312 102.907 108.003Z" fill="#FEC659"/>
<path d="M105.595 126.779C103.222 124.192 100.318 123.07 96.8832 123.411C96.8326 123.416 96.7833 123.431 96.738 123.456C96.6926 123.481 96.6523 123.515 96.6192 123.555C96.1605 124.072 96.2592 124.286 96.9152 124.195C96.2166 124.547 95.5579 125.123 94.9392 125.923C87.9552 128.443 87.0032 135.243 89.3552 141.915L86.2512 138.355L85.3312 133.707C85.2832 133.451 85.1446 133.254 84.9152 133.115C83.3552 132.163 80.7472 130.491 80.6352 128.667C80.6246 128.454 80.7045 128.414 80.8752 128.547C81.9845 129.395 83.2432 130.008 84.6512 130.387C84.9296 130.464 85.2259 130.437 85.4851 130.311C85.7443 130.185 85.949 129.969 86.0612 129.703C86.1734 129.436 86.1856 129.138 86.0955 128.862C86.0055 128.586 85.8192 128.352 85.5712 128.203C84.5152 127.574 83.7072 126.688 83.1472 125.547C82.9445 125.142 83.0219 125.08 83.3792 125.363L86.1072 127.539C86.3472 127.736 86.5499 127.702 86.7152 127.435C92.6352 117.995 106.947 117.907 108.315 130.747C108.358 131.131 108.278 131.158 108.075 130.827L105.595 126.779Z" fill="#3A1F2C"/>
<path d="M167.123 128.043C167.219 128.454 167.411 128.835 167.699 129.187L168.515 131.091C168.565 131.212 168.659 131.309 168.777 131.364C168.896 131.419 169.031 131.427 169.155 131.387L172.803 130.259C172.873 130.236 172.948 130.234 173.02 130.254C173.091 130.273 173.154 130.313 173.203 130.369C173.252 130.424 173.283 130.492 173.293 130.565C173.303 130.638 173.291 130.713 173.259 130.779C172.851 131.643 170.315 132.507 169.395 133.187C169.183 133.348 169.031 133.576 168.963 133.835C168.515 135.619 167.171 141.187 164.587 140.707C167.035 134.043 164.611 126.187 156.371 125.947C155.771 125.811 155.883 124.475 156.771 124.571C161.177 125.398 164.265 127.88 166.035 132.019C166.082 132.128 166.167 132.217 166.274 132.27C166.381 132.323 166.503 132.336 166.618 132.307C166.733 132.278 166.832 132.208 166.899 132.111C166.965 132.014 166.994 131.896 166.979 131.779C166.427 126.531 162.419 122.771 156.987 123.883C153.313 124.347 150.547 125.944 148.691 128.675C148.614 128.787 148.582 128.924 148.602 129.057C148.623 129.191 148.694 129.312 148.801 129.396C148.908 129.481 149.044 129.521 149.181 129.511C149.318 129.5 149.446 129.439 149.539 129.339C150.67 128.096 151.798 127.491 152.923 127.523L151.931 128.811C151.718 129.083 151.737 129.336 151.987 129.571L153.739 131.227C153.853 131.333 153.999 131.396 154.153 131.406C154.308 131.416 154.461 131.373 154.587 131.283L156.531 129.891C156.647 129.808 156.725 129.682 156.749 129.541C156.773 129.401 156.741 129.256 156.659 129.139L155.907 128.027C155.721 127.744 155.785 127.659 156.099 127.771C162.891 130.179 162.291 138.227 157.555 142.275C141.563 148.315 140.339 122.691 154.051 121.107C159.251 120.507 164.107 123.963 167.123 128.043Z" fill="#4E181A"/>
<path d="M105.595 126.779C105.408 126.742 105.312 126.833 105.307 127.051C102.838 124.929 100.04 123.977 96.9151 124.195C96.2591 124.286 96.1604 124.073 96.619 123.555C96.6521 123.515 96.6925 123.481 96.7378 123.456C96.7831 123.432 96.8324 123.416 96.883 123.411C100.318 123.07 103.222 124.193 105.595 126.779Z" fill="#792F2C"/>
<path d="M156.771 124.571C156.659 124.193 156.731 123.963 156.987 123.883C162.419 122.771 166.427 126.531 166.979 131.779C166.994 131.896 166.965 132.014 166.899 132.111C166.833 132.208 166.733 132.278 166.618 132.307C166.503 132.336 166.381 132.323 166.274 132.27C166.167 132.217 166.082 132.128 166.035 132.019C164.265 127.881 161.177 125.398 156.771 124.571Z" fill="#583C49"/>
<path d="M156.987 123.883C156.731 123.963 156.659 124.192 156.771 124.571C155.883 124.475 155.771 125.811 156.371 125.947C155.166 126.784 154.016 127.309 152.923 127.523C151.798 127.491 150.67 128.096 149.539 129.339C149.446 129.438 149.318 129.5 149.181 129.51C149.044 129.521 148.908 129.48 148.801 129.396C148.694 129.312 148.623 129.191 148.602 129.057C148.582 128.923 148.614 128.787 148.691 128.675C150.547 125.944 153.312 124.347 156.987 123.883Z" fill="#792F2C"/>
<path d="M96.9156 124.195C100.041 123.977 102.838 124.929 105.308 127.051C106.604 128.785 107.278 130.833 107.332 133.195C107.468 140.851 101.004 146.699 93.8996 140.779C88.9716 136.675 90.5876 129.891 94.9396 125.923C95.5582 125.123 96.2169 124.547 96.9156 124.195ZM102.732 139.459C102.252 138.953 101.713 138.497 101.116 138.091C100.902 137.953 100.702 137.966 100.516 138.131C99.0489 139.454 97.3236 140.155 95.3396 140.235C94.9342 140.251 94.8862 140.39 95.1955 140.651C98.0649 143.046 100.884 142.998 103.652 140.507C103.876 140.299 103.852 140.131 103.58 140.003L103.26 139.851C103.057 139.755 102.881 139.625 102.732 139.459Z" fill="#61272F"/>
<path d="M73.691 131.355L75.019 134.267C73.947 135.803 73.267 133.619 73.251 132.851C71.3523 130.461 69.203 128.352 66.803 126.523L64.723 125.211C64.618 125.155 64.5396 125.059 64.5051 124.945C64.4706 124.831 64.4828 124.708 64.539 124.603C64.5953 124.498 64.6909 124.419 64.8049 124.385C64.9189 124.35 65.042 124.363 65.147 124.419C68.739 126.059 70.659 128.595 73.691 131.355Z" fill="#B86243"/>
<path d="M94.9395 125.923C90.5875 129.891 88.9715 136.675 93.8995 140.779C101.004 146.699 107.468 140.851 107.332 133.195L107.58 132.715C107.665 132.541 107.804 132.4 107.975 132.31C108.147 132.22 108.342 132.187 108.535 132.215C108.727 132.244 108.906 132.332 109.046 132.468C109.186 132.603 109.281 132.78 109.316 132.971C110.302 138.523 108.529 142.497 103.996 144.891C98.4115 144.403 92.6435 144.331 89.3555 141.915C87.0035 135.243 87.9555 128.443 94.9395 125.923Z" fill="#F3EEE7"/>
<path d="M156.371 125.947C164.611 126.187 167.035 134.043 164.587 140.707L158.579 143.595C157.731 143.403 157.39 142.963 157.555 142.275C162.291 138.227 162.891 130.179 156.099 127.771C155.785 127.659 155.721 127.744 155.907 128.027L156.659 129.139C156.741 129.256 156.773 129.4 156.749 129.541C156.725 129.682 156.647 129.807 156.531 129.891L154.587 131.283C154.461 131.373 154.308 131.416 154.153 131.406C153.999 131.396 153.853 131.332 153.739 131.227L151.987 129.571C151.737 129.336 151.718 129.083 151.931 128.811L152.923 127.523C154.017 127.31 155.166 126.784 156.371 125.947Z" fill="#FEFDFE"/>
<path d="M66.8032 126.523C69.2032 128.353 71.3525 130.462 73.2512 132.851C72.4512 132.729 71.7979 132.921 71.2912 133.427C71.1417 133.572 71.0506 133.765 71.0352 133.971L70.6352 139.427C70.6206 139.614 70.568 139.796 70.4807 139.961C70.3934 140.127 70.2733 140.273 70.1278 140.39C69.9823 140.507 69.8146 140.592 69.6349 140.641C69.4552 140.691 69.2674 140.702 69.0832 140.675L65.8992 140.211C65.6432 140.174 65.3952 140.201 65.1552 140.291C59.4352 142.435 58.6912 134.171 61.9312 130.835C62.9552 129.886 64.0885 129.393 65.3312 129.355C65.9285 129.377 66.3872 129.195 66.7072 128.811C66.7861 128.718 66.8405 128.606 66.8656 128.486C66.8907 128.366 66.8858 128.241 66.8512 128.123C66.7072 127.627 66.6912 127.094 66.8032 126.523Z" fill="#FB9673"/>
<path d="M65.3314 129.356C64.0887 129.393 62.9554 129.886 61.9314 130.836C60.1181 131.31 58.7394 130.502 57.7954 128.412C57.7124 128.228 57.6814 128.026 57.7059 127.826C57.7303 127.626 57.8093 127.437 57.934 127.28C58.0587 127.122 58.2245 127.001 58.4131 126.932C58.6018 126.862 58.806 126.845 59.0034 126.884C59.8914 127.06 66.6594 127.3 65.3314 129.356Z" fill="#FED3B3"/>
<path d="M170.26 126.939C170.425 128.075 169.708 128.694 168.108 128.795C167.937 128.432 167.878 128.032 167.932 127.595C168.657 127.563 169.433 127.344 170.26 126.939Z" fill="#D17857"/>
<path d="M167.932 127.595C167.878 128.033 167.937 128.433 168.108 128.795C167.825 128.726 167.689 128.857 167.7 129.187C167.412 128.835 167.22 128.454 167.124 128.043L167.932 127.595Z" fill="#FB9673"/>
<path d="M195.123 133.579C194.345 131.611 193.014 130.606 191.131 130.563C191.142 130.19 191.073 129.867 190.923 129.595C190.779 129.329 190.555 129.195 190.251 129.195L187.803 129.171C187.677 129.171 187.555 129.127 187.457 129.048C187.358 128.968 187.291 128.857 187.264 128.734C187.238 128.61 187.255 128.481 187.313 128.369C187.37 128.256 187.464 128.167 187.579 128.115C190.198 126.947 192.494 127.459 194.467 129.651C196.185 131.566 196.403 132.875 195.123 133.579Z" fill="#FDBF9E"/>
<path d="M191.131 130.564C193.014 130.606 194.344 131.612 195.123 133.58C195.294 135.356 194.984 136.665 194.195 137.508L193.891 133.34C193.882 133.207 193.833 133.081 193.752 132.977C193.671 132.873 193.56 132.796 193.435 132.756L189.827 131.588C189.697 131.546 189.557 131.537 189.422 131.562C189.287 131.587 189.159 131.646 189.051 131.732C187.363 133.092 185.859 136.436 185.123 138.468C181.499 134.38 186.299 129.46 191.131 130.564Z" fill="#FE6E48"/>
<path d="M194.196 137.507C192.718 139.203 190.878 140.014 188.676 139.939C188.452 139.934 188.26 139.851 188.1 139.691C187.609 139.206 187.476 138.678 187.7 138.107C187.849 137.739 187.774 137.686 187.476 137.947C186.985 138.384 186.729 138.928 186.708 139.579C186.702 139.856 186.577 139.926 186.332 139.787C185.772 139.456 185.369 139.016 185.124 138.467C185.86 136.435 187.364 133.091 189.052 131.731C189.16 131.645 189.287 131.587 189.422 131.562C189.558 131.537 189.697 131.545 189.828 131.587L193.436 132.755C193.561 132.795 193.671 132.872 193.752 132.976C193.834 133.08 193.882 133.207 193.892 133.339L194.196 137.507Z" fill="#FB9673"/>
<path d="M103.259 139.852L103.579 140.004C103.851 140.132 103.875 140.3 103.651 140.508C100.883 142.998 98.0648 143.046 95.1955 140.652C94.8861 140.39 94.9341 140.252 95.3395 140.236C97.3235 140.156 99.0488 139.454 100.515 138.132C100.702 137.966 100.902 137.953 101.115 138.092C101.713 138.497 102.251 138.953 102.731 139.46C102.881 139.625 103.057 139.756 103.259 139.852Z" fill="#FB9673"/>
<path d="M125.203 137.875C128.043 139.539 127.035 142.083 126.419 144.715C126.363 144.953 126.225 145.163 126.028 145.306C125.831 145.45 125.589 145.518 125.345 145.499C125.101 145.48 124.872 145.374 124.698 145.201C124.523 145.028 124.416 144.799 124.395 144.555L123.939 138.667C123.926 138.514 123.956 138.36 124.025 138.222C124.094 138.085 124.2 137.968 124.33 137.887C124.46 137.805 124.611 137.761 124.765 137.759C124.919 137.757 125.07 137.797 125.203 137.875Z" fill="#FEFDFE"/>
<path d="M86.2506 138.355L89.3546 141.915C92.6426 144.331 98.4106 144.403 103.995 144.891C106.544 145.409 108.411 146.705 109.595 148.779C109.733 149.019 109.755 149.27 109.659 149.531C109.003 151.377 107.84 152.726 106.171 153.579C99.5253 156.998 92.8133 157.19 86.0347 154.155C85.7467 154.027 85.6293 153.809 85.6827 153.499C86.152 150.699 85.08 148.947 82.4667 148.243C82.2858 148.195 82.1262 148.089 82.0121 147.941C81.8981 147.793 81.8359 147.612 81.835 147.424C81.8341 147.237 81.8945 147.053 82.0071 146.902C82.1197 146.751 82.2783 146.641 82.4587 146.587L85.6026 145.699C85.9226 145.609 86.0773 145.395 86.0667 145.059C85.9787 142.531 83.9626 140.707 86.2506 138.355Z" fill="#FDBF9E"/>
<path d="M125.387 147.979L124.451 147.211C124.206 147.014 124.222 146.841 124.499 146.691C126.328 145.699 127.438 144.457 127.827 142.963L128.659 141.091C128.677 141.051 128.705 141.015 128.739 140.987C128.773 140.958 128.813 140.937 128.856 140.926C128.9 140.914 128.946 140.913 128.99 140.92C129.035 140.928 129.077 140.946 129.115 140.971C133.419 143.939 130.259 148.635 125.387 147.979Z" fill="#FDBF9E"/>
<path d="M143.747 153.484C143.587 154.172 143.145 154.47 142.419 154.38C142.078 154.337 142.001 154.169 142.187 153.876C142.443 153.492 142.787 153.212 143.219 153.036C143.683 152.849 143.859 152.998 143.747 153.484Z" fill="#D17857"/>
<path d="M117.195 155.563C117.169 155.829 117.065 155.992 116.883 156.051L115.963 155.523L114.099 155.027C113.875 154.968 113.683 154.853 113.523 154.683C113.363 154.512 113.278 154.299 113.267 154.043C113.257 153.755 113.382 153.675 113.643 153.803L117.195 155.563Z" fill="#D17857"/>
<path d="M115.963 155.524L116.883 156.052C124.606 159.086 132.411 159.025 140.299 155.868C140.434 155.813 140.582 155.796 140.726 155.817C140.87 155.839 141.006 155.898 141.12 155.989C141.234 156.08 141.322 156.2 141.374 156.336C141.427 156.472 141.442 156.62 141.419 156.764C140.422 162.977 136.883 166.846 130.803 168.372C124.712 168.926 120.147 166.737 117.107 161.804C116.099 160.164 113.251 155.492 115.963 155.524Z" fill="#FEFDFE"/>
<path d="M136.539 178.987L136.875 184.027C136.896 184.366 137.024 184.689 137.241 184.951C137.458 185.213 137.753 185.399 138.083 185.483L146.267 187.531C144.155 198.211 133.811 202.147 124.131 200.459L124.355 199.491C124.419 199.219 124.59 199.07 124.867 199.043C130.059 198.563 130.563 194.155 129.739 189.987C128.913 185.838 126.009 183.406 121.027 182.691L121.419 178.763L126.123 179.155L136.539 178.987Z" fill="#FCA582"/>
<path d="M121.027 182.691C126.008 183.406 128.912 185.838 129.739 189.987C130.563 194.155 130.059 198.563 124.867 199.043C124.59 199.07 124.419 199.219 124.355 199.491L124.131 200.459C118.019 199.107 111.067 194.363 111.955 187.307C113.811 186.827 119.451 186.051 120.411 184.771C120.891 184.126 121.096 183.433 121.027 182.691Z" fill="#FDBF9E"/>
<path d="M111.955 187.307C111.067 194.363 118.019 199.107 124.131 200.459C133.811 202.147 144.155 198.211 146.267 187.531C159.611 191.619 166.347 201.115 171.667 213.875C163.709 218.814 155.141 222.318 145.963 224.387L146.299 223.459C146.34 223.343 146.35 223.218 146.328 223.097C146.305 222.976 146.251 222.863 146.171 222.771C139.475 215.043 132.763 208.091 123.987 206.115C114.328 203.939 108.339 198.326 106.019 189.275L111.955 187.307Z" fill="#82527D"/>
<path d="M106.019 189.275C108.339 198.326 114.328 203.939 123.987 206.115C132.763 208.091 139.475 215.043 146.171 222.771C146.251 222.863 146.305 222.976 146.328 223.097C146.35 223.218 146.34 223.343 146.299 223.459L145.963 224.387C130.117 228.275 114.472 227.427 99.0268 221.843L98.0028 198.027C97.9993 197.941 97.9703 197.859 97.9196 197.789C97.8689 197.72 97.7988 197.668 97.7181 197.639C97.6375 197.609 97.5499 197.605 97.4667 197.626C97.3835 197.646 97.3083 197.691 97.2508 197.755C95.5068 199.627 93.4188 213.515 92.7948 216.779C92.6188 217.723 92.1548 218.067 91.2988 218.339L87.8028 216.731L83.7788 214.411C89.1148 203.459 93.9148 193.683 106.019 189.275Z" fill="#9C6B94"/>
<path d="M99.0273 221.843L91.2993 218.339C92.1553 218.067 92.6193 217.723 92.7953 216.779C93.4193 213.515 95.5073 199.627 97.2513 197.755C97.3089 197.692 97.384 197.647 97.4672 197.626C97.5505 197.605 97.638 197.61 97.7186 197.639C97.7993 197.668 97.8694 197.721 97.9201 197.79C97.9708 197.859 97.9998 197.942 98.0033 198.027L99.0273 221.843Z" fill="#82527D"/>
</svg>
