<svg width="256" height="256" viewBox="0 0 256 256" fill="none" xmlns="http://www.w3.org/2000/svg">
<path d="M47.0202 70.7289C40.3802 88.2569 37.3322 105.969 34.0602 124.313C32.8362 131.177 29.4682 131.569 23.2442 132.225C22.771 132.277 22.3363 132.511 22.0308 132.876C21.7253 133.241 21.5725 133.71 21.6042 134.185C21.9082 138.654 23.6842 142.108 26.9322 144.545" stroke="#FEDBA8" stroke-width="2"/>
<path d="M26.932 144.545C22.268 148.889 22.252 156.681 24.764 162.017" stroke="#FEE2B3" stroke-width="2"/>
<path d="M24.7642 162.017L26.4202 164.305C26.5855 164.535 26.6308 164.782 26.5562 165.049C25.5268 168.622 25.4282 172.18 26.2602 175.721" stroke="#FEDBA8" stroke-width="2"/>
<path d="M230.124 167.297C229.591 166.689 229.311 166.03 229.284 165.321C229.279 165.049 229.38 164.825 229.588 164.649C234.98 160.057 233.724 151.121 230.188 145.865C230.034 145.636 230.058 145.425 230.26 145.233C233.084 142.617 236.516 137.089 234.228 133.473C234.164 133.369 234.075 133.283 233.97 133.22C233.864 133.157 233.744 133.121 233.62 133.113C231.26 132.953 228.348 133.193 226.516 131.521C224.463 129.654 223.18 127.193 222.668 124.137C219.508 105.353 215.372 84.4171 207.3 65.9451C201.02 51.5771 188.052 33.8411 172.252 29.7931C168.183 28.7478 162.895 27.9238 156.388 27.3211C154.234 27.1238 152.183 26.6918 150.236 26.0251C142.092 23.2491 135.044 20.7291 125.7 19.5211" stroke="#FEDBA8" stroke-width="2"/>
<path d="M125.701 19.5211C89.9325 16.2651 59.5565 38.0811 47.0205 70.7291" stroke="#FEE2B3" stroke-width="2"/>
<path d="M125.7 19.5211C126.996 21.5131 128.884 20.9931 129.836 23.5851C135.236 38.4171 134.044 54.7211 119.612 63.9371C104.42 73.6331 85.5639 78.0171 70.7399 65.7051C70.4768 65.4869 70.1472 65.3649 69.8055 65.3591C69.4638 65.3533 69.1303 65.464 68.8599 65.6731C66.1239 67.7931 58.6839 73.0171 55.2759 70.8011C55.0626 70.6624 54.8679 70.6864 54.6919 70.8731L46.4839 79.7851C46.3904 79.8843 46.2669 79.9502 46.1324 79.9726C45.9979 79.9951 45.8598 79.9728 45.7391 79.9093C45.6185 79.8458 45.5219 79.7445 45.4643 79.621C45.4066 79.4974 45.391 79.3584 45.4199 79.2251C45.6759 78.0811 49.0519 70.4811 47.0199 70.7291" stroke="#FEBF5D" stroke-width="2"/>
<path d="M230.124 167.297L230.572 172.769" stroke="#E7CA9D" stroke-width="2"/>
<path d="M230.572 172.769L230.332 171.537C230.317 171.436 230.266 171.344 230.188 171.277C230.11 171.211 230.011 171.174 229.909 171.175C229.806 171.176 229.708 171.214 229.631 171.282C229.555 171.35 229.505 171.444 229.492 171.545C227.972 180.529 211.468 188.993 203.284 187.329C195.1 185.665 194.924 177.097 194.836 170.577C194.767 165.409 195.023 160.297 195.604 155.241" stroke="#F8A942" stroke-width="2"/>
<path d="M195.604 155.241C211.028 156.409 222.06 141.281 215.108 127.521C212.468 122.305 207.156 119.225 201.916 123.089" stroke="#FFC07D" stroke-width="2"/>
<path d="M201.916 123.089C200.172 109.937 183.476 99.1689 172.516 93.825C171.113 93.1423 170.164 92.6169 169.668 92.2489C169.132 91.8569 168.86 91.9049 168.348 92.2489" stroke="#F8A942" stroke-width="2"/>
<path d="M168.348 92.2491C160.882 83.2997 154.823 73.0464 150.172 61.4891" stroke="#FDB16F" stroke-width="2"/>
<path d="M150.172 61.489C150.156 59.1157 149.671 56.5157 148.717 53.689C148.535 53.1557 148.399 53.1664 148.309 53.721C145.845 69.177 132.292 82.273 118.884 88.329C97.8285 97.841 62.9005 95.249 53.0205 121.537" stroke="#F8A942" stroke-width="2"/>
<path d="M53.0198 121.537C46.0838 120.577 41.8358 126.601 40.9158 132.617C39.8438 139.599 41.8491 145.497 46.9318 150.313C50.9851 154.153 55.6918 155.783 61.0518 155.201" stroke="#FFC07D" stroke-width="2"/>
<path d="M61.0522 155.201C62.2682 160.871 62.4042 166.345 61.4602 171.625C58.9162 185.857 44.3962 187.097 33.1882 183.313C32.2282 182.985 29.7482 180.457 29.9722 182.281" stroke="#F8A942" stroke-width="2"/>
<path d="M29.9723 182.281L26.2603 175.721" stroke="#E7CA9D" stroke-width="2"/>
<path d="M24.7642 162.017C24.8228 161.393 25.1348 160.937 25.7002 160.649C25.7642 160.612 25.8068 160.631 25.8282 160.705C25.8495 160.775 25.8655 160.849 25.8762 160.929C25.8762 160.934 25.8778 160.938 25.8808 160.941C25.8838 160.944 25.8879 160.945 25.8922 160.945C25.8964 160.945 25.9005 160.944 25.9035 160.941C25.9065 160.938 25.9082 160.934 25.9082 160.929C27.1668 156.529 28.7882 152.423 30.7722 148.609C31.4335 147.335 31.1082 146.404 29.7962 145.817L26.9322 144.545" stroke="#FEBF5D" stroke-width="2"/>
<path d="M175.196 107.249C170.039 102.774 164.132 100.63 157.476 100.817C153.236 100.937 149.676 104.889 152.444 108.785C154.516 111.705 156.82 111.073 160.444 110.377C168.044 108.929 173.796 114.505 180.068 117.393C180.249 117.477 180.449 117.509 180.647 117.485C180.845 117.462 181.033 117.384 181.189 117.261C181.346 117.137 181.465 116.973 181.534 116.786C181.603 116.599 181.619 116.397 181.58 116.201C181.265 114.601 180.54 113.142 179.404 111.825" stroke="#E6A17B" stroke-width="2"/>
<path d="M182.58 109.313C188.852 115.241 195.476 121.089 199.556 128.753C199.663 128.956 199.756 128.951 199.836 128.737L201.916 123.089" stroke="#F9B16D" stroke-width="2"/>
<path d="M195.604 155.241C194.5 154.532 193.666 154.729 193.1 155.833C191.89 158.201 190.22 160.999 188.092 164.225" stroke="#F9B16D" stroke-width="2"/>
<path d="M188.092 164.225C175.764 179.937 156.732 188.713 137.068 191.129" stroke="#F7A966" stroke-width="2"/>
<path d="M137.068 191.129C129.836 191.625 122.799 191.471 115.956 190.665" stroke="#FEAB90" stroke-width="2"/>
<path d="M115.956 190.665C97.0681 187.993 77.7881 178.113 67.4761 161.745" stroke="#F7A966" stroke-width="2"/>
<path d="M67.4758 161.745L64.0838 155.313C63.9504 155.057 63.7398 154.943 63.4518 154.969L61.0518 155.201" stroke="#F9B16D" stroke-width="2"/>
<path d="M59.2358 129.121L59.0758 130.073C59.0332 130.34 59.0892 130.582 59.2439 130.801C60.1959 132.113 58.3958 132.969 60.0518 134.785C62.3345 137.302 64.3479 140.537 66.0919 144.489C67.8305 148.42 70.1132 151.241 72.9399 152.953" stroke="#FFCCAD" stroke-width="2"/>
<path d="M72.94 152.953C70.908 157.838 71.8493 161.889 75.764 165.105C81.172 169.561 91.5399 169.969 96.3479 164.433" stroke="#FDB899" stroke-width="2"/>
<path d="M96.3481 164.433C96.8601 165.575 97.8521 166.207 99.3241 166.329C99.5961 166.351 99.8388 166.444 100.052 166.609L101.884 168.001C102.103 168.167 102.343 168.199 102.604 168.097C104.183 167.452 105.513 167.751 106.596 168.993C106.777 169.207 107.009 169.319 107.292 169.329L110.228 169.449" stroke="#FFCCAD" stroke-width="2"/>
<path d="M110.228 169.449C110.825 171.177 111.807 172.676 113.172 173.945C113.401 174.153 113.639 174.164 113.884 173.977L115.196 172.977" stroke="#96766B" stroke-width="2"/>
<path d="M115.196 172.977C115.196 173.553 114.972 174.169 114.524 174.825C114.447 174.942 114.419 175.085 114.447 175.222C114.476 175.36 114.558 175.482 114.676 175.561C122.172 180.489 136.564 181.265 143.588 174.993" stroke="#FDB899" stroke-width="2"/>
<path d="M143.588 174.993C147.017 173.825 148.948 171.068 149.38 166.721C149.412 166.39 149.263 166.214 148.932 166.193C147.092 166.089 145.172 167.089 143.996 167.305C134.737 169.044 125.42 169.156 116.044 167.641" stroke="#96766B" stroke-width="2"/>
<path d="M116.044 167.641C116.055 166.585 115.551 166.089 114.532 166.153C114.274 166.169 114.016 166.11 113.791 165.983C113.565 165.856 113.381 165.666 113.262 165.436C113.142 165.207 113.092 164.947 113.117 164.69C113.143 164.432 113.242 164.187 113.404 163.985C113.591 163.75 113.412 163.265 112.868 162.529C112.719 162.321 112.529 162.158 112.3 162.041C111.383 161.577 110.761 160.849 110.436 159.857C110.401 159.749 110.404 159.631 110.444 159.525C110.485 159.419 110.561 159.33 110.66 159.273C111.999 158.505 113.095 157.46 113.948 156.137C114.009 156.044 114.043 155.936 114.047 155.825C114.052 155.713 114.026 155.603 113.972 155.506C113.919 155.408 113.84 155.327 113.744 155.27C113.649 155.214 113.539 155.184 113.428 155.185H112.652C112.364 155.185 112.321 155.081 112.524 154.873C113.292 154.073 113.58 153.11 113.388 151.985C113.377 151.919 113.379 151.852 113.396 151.787C113.412 151.723 113.442 151.662 113.484 151.61C113.526 151.558 113.578 151.515 113.637 151.485C113.696 151.454 113.761 151.436 113.828 151.433C114.708 151.38 115.564 151.414 116.396 151.537C116.839 151.606 116.919 151.468 116.636 151.121L116.316 150.721C116.281 150.682 116.233 150.658 116.183 150.654C116.132 150.649 116.082 150.665 116.044 150.697C115.969 150.756 115.903 150.844 115.844 150.961C115.828 150.991 115.802 151.016 115.771 151.032C115.74 151.048 115.706 151.053 115.672 151.048C115.639 151.042 115.608 151.026 115.586 151.002C115.564 150.978 115.55 150.946 115.548 150.913C115.383 149.66 114.905 148.542 114.116 147.561C114.035 147.462 113.989 147.34 113.983 147.213C113.977 147.086 114.013 146.961 114.084 146.857L115.052 145.473C115.193 145.269 115.271 145.027 115.276 144.777C115.281 144.222 115.084 143.748 114.684 143.353C114.466 143.14 114.323 142.859 114.276 142.553L113.476 137.265C113.464 137.175 113.471 137.084 113.499 136.998C113.527 136.912 113.574 136.834 113.636 136.769C114.041 136.364 114.175 135.878 114.036 135.313C113.977 135.057 113.975 134.798 114.028 134.537C115.196 128.825 116.22 122.513 112.412 117.497C112.247 117.273 112.031 117.121 111.764 117.041C110.025 116.492 108.484 115.593 107.14 114.345C107.06 114.27 106.995 114.18 106.95 114.08C106.905 113.979 106.881 113.871 106.879 113.76C106.877 113.65 106.896 113.54 106.937 113.437C106.978 113.334 107.039 113.24 107.116 113.161C107.745 112.51 107.911 111.761 107.612 110.913C107.532 110.684 107.375 110.609 107.14 110.689C106.697 110.838 106.311 110.785 105.98 110.529" stroke="#FFCCAD" stroke-width="2"/>
<path d="M105.98 110.529C107.649 109.494 108.548 108.041 108.676 106.169" stroke="#E6A17B" stroke-width="2"/>
<path d="M230.572 172.769C228.172 183.529 212.884 196.649 203.684 202.905" stroke="#E1BB8D" stroke-width="2"/>
<path d="M203.684 202.905C202.495 202.569 201.548 202.833 200.844 203.697C200.764 203.793 200.653 203.858 200.529 203.878C200.406 203.899 200.279 203.874 200.172 203.809C188.732 197.009 187.42 182.449 187.876 170.481C187.9 169.937 189.468 163.585 188.092 164.225" stroke="#F1932B" stroke-width="2"/>
<path d="M76.9883 217.089C90.2949 222.433 104.322 225.497 119.068 226.281" stroke="#E39D9E" stroke-width="2"/>
<path d="M119.068 226.281C139.953 227.577 159.7 224.348 178.308 216.593" stroke="#D38F9A" stroke-width="2"/>
<path d="M67.4759 161.745C67.1665 161.761 66.8999 161.836 66.6759 161.969C66.5775 162.03 66.5003 162.121 66.4545 162.228C66.4088 162.335 66.3967 162.454 66.4199 162.569C67.8759 169.679 69.0305 176.839 69.8839 184.049C71.5799 198.481 64.7639 207.233 49.5879 201.193C49.4757 201.148 49.3512 201.143 49.2359 201.18C49.1205 201.216 49.0215 201.292 48.9559 201.393L48.6519 201.881" stroke="#F1932B" stroke-width="2"/>
<path d="M48.6522 201.881C41.1802 196.553 34.9535 190.02 29.9722 182.281" stroke="#E1BB8D" stroke-width="2"/>
<path d="M150.172 61.4891C149.004 65.5531 147.988 69.4011 146.212 73.0011C138.394 88.8997 125.786 98.8571 108.388 102.873" stroke="#F7A25F" stroke-width="2"/>
<path d="M108.388 102.873C99.0865 103.86 90.3905 106.014 82.2998 109.337" stroke="#E08A40" stroke-width="2"/>
<path d="M82.2998 109.337C78.0118 110.449 74.7878 112.561 70.5798 115.153C65.2145 118.46 61.4332 123.116 59.2358 129.121" stroke="#F8B572" stroke-width="2"/>
<path d="M59.2365 129.121C59.0978 129.393 58.9485 129.59 58.7885 129.713C58.7068 129.776 58.6102 129.818 58.508 129.833C58.4058 129.849 58.3013 129.838 58.2044 129.802C58.1076 129.766 58.0214 129.706 57.9543 129.627C57.8871 129.549 57.8411 129.454 57.8205 129.353C57.1112 125.865 55.5112 123.26 53.0205 121.537" stroke="#F9B16D" stroke-width="2"/>
<path d="M168.348 92.2492L182.58 109.313" stroke="#F7A25F" stroke-width="2"/>
<path d="M182.58 109.313C181.775 110.428 180.716 111.265 179.404 111.825" stroke="#FDB899" stroke-width="2"/>
<path d="M179.404 111.825L175.196 107.249" stroke="#E4926D" stroke-width="2"/>
<path d="M175.196 107.249C175.447 107.228 175.636 107.14 175.764 106.985C175.956 106.745 175.932 106.529 175.692 106.337C166.807 99.1053 159.524 90.5293 153.844 80.6093C153.772 80.4825 153.669 80.3759 153.545 80.2991C153.421 80.2224 153.28 80.178 153.134 80.17C152.988 80.1621 152.843 80.1908 152.711 80.2536C152.58 80.3163 152.466 80.4111 152.38 80.5293C150.828 82.6519 149.215 84.7746 147.54 86.8973C137.388 99.7533 126.156 104.057 110.612 107.657C110.346 107.721 110.175 107.623 110.1 107.361C109.866 106.513 109.391 106.116 108.676 106.169" stroke="#FDB899" stroke-width="2"/>
<path d="M108.676 106.169L108.388 102.873" stroke="#E4926D" stroke-width="2"/>
<path d="M139.052 192.505C136.548 194.753 134.58 197.433 131.38 198.561C124.196 201.111 118.711 199.079 114.924 192.465" stroke="#FC9C82" stroke-width="2"/>
<path d="M115.956 190.665C116.175 191.167 115.831 191.767 114.924 192.465" stroke="#F68D4F" stroke-width="2"/>
<path d="M114.924 192.465L114.021 192.633" stroke="#F59A58" stroke-width="2"/>
<path d="M114.02 192.633L100.412 194.385" stroke="#E36738" stroke-width="2"/>
<path d="M100.412 194.385C99.5959 194.38 98.8332 194.631 98.1239 195.137C97.8868 195.306 97.6165 195.42 97.3319 195.473C86.6012 197.42 79.3239 203.471 75.4999 213.625C75.4492 213.761 75.4359 213.908 75.4612 214.05C75.4866 214.192 75.5497 214.325 75.6439 214.433C76.4066 215.324 76.8546 216.209 76.9879 217.089" stroke="#F3753C" stroke-width="2"/>
<path d="M76.9879 217.089C66.6572 213.196 57.2119 208.127 48.6519 201.881" stroke="#DFB386" stroke-width="2"/>
<path d="M105.98 110.529C102.404 113.089 100.828 110.521 97.4758 110.393C91.6678 110.161 85.8358 114.385 81.0118 117.105C79.5398 117.937 78.8651 117.51 78.9878 115.825C79.1211 113.969 80.2251 111.806 82.2998 109.337" stroke="#E6A580" stroke-width="2"/>
<path d="M116.044 167.641L110.292 166.361C109.978 166.292 109.783 166.414 109.708 166.729C109.511 167.534 109.684 168.441 110.228 169.449" stroke="#967A71" stroke-width="2"/>
<path d="M96.3484 164.433C99.6924 158.201 90.4764 153.113 85.8364 151.889C81.6498 150.785 77.3511 151.14 72.9404 152.953" stroke="#FDBD9F" stroke-width="2"/>
<path d="M203.684 202.905C196.196 208.43 187.737 212.993 178.308 216.593" stroke="#DFB386" stroke-width="2"/>
<path d="M178.308 216.593C176.484 209.99 173.116 204.844 168.204 201.153" stroke="#E36738" stroke-width="2"/>
<path d="M168.204 201.153C167.57 200.935 167.22 200.7 167.156 200.449" stroke="#D35B2E" stroke-width="2"/>
<path d="M167.156 200.449C164.458 198.694 161.556 197.334 158.452 196.369C156.484 195.761 141.924 191.753 141.196 193.217" stroke="#E36738" stroke-width="2"/>
<path d="M141.196 193.217C140.454 193.158 139.74 192.921 139.052 192.505" stroke="#F59A58" stroke-width="2"/>
<path d="M139.052 192.505C138.007 192.398 137.345 191.94 137.068 191.129" stroke="#F68D4F" stroke-width="2"/>
<path d="M143.588 174.993C137.834 171.5 130.572 170.281 121.804 171.337C118.599 171.721 116.396 172.268 115.196 172.977" stroke="#94675D" stroke-width="2"/>
<path d="M99.9483 195.345C98.1883 213.489 123.884 215.625 135.58 213.689" stroke="#D74446" stroke-width="2"/>
<path d="M136.884 218.489C117.668 221.409 98.8364 215.929 86.9964 199.945C86.9164 199.839 86.8444 199.841 86.7804 199.953L86.6524 200.169C86.5777 200.292 86.583 200.409 86.6684 200.521C98.2124 216.361 117.404 222.281 136.54 219.257" stroke="#D74446" stroke-width="2"/>
<path d="M136.54 219.257L137.66 224.705C137.686 224.834 137.682 224.967 137.648 225.095C137.614 225.222 137.552 225.34 137.465 225.439C137.378 225.538 137.27 225.615 137.148 225.666C137.027 225.716 136.895 225.738 136.764 225.729C132.788 225.441 121.748 224.425 119.068 226.281" stroke="#E75150" stroke-width="2"/>
<path d="M114.02 192.633L109.884 194.457C109.774 194.506 109.678 194.582 109.605 194.679C109.533 194.775 109.485 194.889 109.468 195.009C109.004 198.593 112.572 202.209 115.396 203.593C123.508 207.572 131.548 207.463 139.516 203.265C142.481 201.708 144.164 199.041 144.564 195.265C144.59 195.004 144.51 194.78 144.324 194.593C143.524 193.799 142.481 193.34 141.196 193.217" stroke="#E9766B" stroke-width="2"/>
<path d="M167.156 200.449C159.049 210.263 148.958 216.276 136.884 218.489" stroke="#C73741" stroke-width="2"/>
<path d="M136.884 218.489L135.58 213.689" stroke="#E75150" stroke-width="2"/>
<path d="M135.58 213.689C140.908 212.209 146.668 210.369 150.564 206.145C150.572 206.133 150.575 206.119 150.573 206.104C150.572 206.09 150.565 206.077 150.555 206.067C150.545 206.057 150.531 206.05 150.517 206.048C150.503 206.047 150.488 206.05 150.476 206.057C147.762 208.447 144.548 210.276 140.836 211.545C136.826 212.921 132.823 213.655 128.828 213.745C118.172 213.993 99.1723 210.489 100.556 195.881C100.578 195.647 100.479 195.487 100.26 195.401C100.154 195.359 100.05 195.34 99.9482 195.345" stroke="#C73741" stroke-width="2"/>
<path d="M99.9482 195.345C100.231 195.217 100.386 194.897 100.412 194.385" stroke="#E75150" stroke-width="2"/>
<path d="M168.204 201.153C167.671 201.297 167.313 201.468 167.132 201.665C158.78 211.02 148.583 216.884 136.54 219.257" stroke="#C73741" stroke-width="2"/>
<path d="M163.172 121.777C159.193 122.732 156.508 124.489 155.116 127.049C153.063 130.815 152.34 134.745 152.948 138.841C153.724 144.097 157.628 149.697 163.308 149.593C165.761 149.545 168.153 148.492 170.484 146.433" stroke="#8A6D60" stroke-width="2"/>
<path d="M170.484 146.433C171.514 146.438 172.463 145.601 173.332 143.921C176.468 137.878 176.575 132.084 173.652 126.537C171.02 121.561 167.18 118.985 161.588 121.409C161.327 121.526 161.268 121.71 161.412 121.961C161.647 122.372 162.234 122.31 163.172 121.777" stroke="#FFE3D3" stroke-width="2"/>
<path d="M170.484 146.433C176.17 134.535 173.732 126.316 163.172 121.777" stroke="#89898C" stroke-width="2"/>
<path d="M53.516 128.105C51.612 125.121 48.316 126.601 46.988 129.041C43.316 135.769 45.764 142.801 51.708 147.321C53.756 148.873 59.14 149.593 59.068 145.793C58.9453 139.601 57.0946 133.705 53.516 128.105Z" stroke="#FDB899" stroke-width="2"/>
<path d="M205.212 126.977C200.956 130.273 199.548 139.977 199.004 144.745C198.508 149.041 202.852 149.617 205.612 147.745C210.562 144.385 212.898 139.78 212.62 133.929C212.476 130.905 208.884 124.137 205.212 126.977Z" stroke="#FDB899" stroke-width="2"/>
<path d="M130.244 145.393C129.342 145.068 128.596 144.937 128.004 145.001C127.949 145.006 127.898 145.027 127.855 145.061C127.813 145.095 127.781 145.141 127.764 145.192C127.747 145.244 127.745 145.3 127.76 145.353C127.774 145.405 127.803 145.453 127.844 145.489C131.004 148.417 130.42 153.297 125.268 152.953C125.136 152.944 125.006 152.986 124.903 153.071C124.801 153.155 124.734 153.276 124.716 153.409C124.577 154.609 124.828 156.041 125.468 157.705" stroke="#FFCCAD" stroke-width="2"/>
<path d="M125.468 157.705C126.929 159.796 128.964 159.99 131.572 158.289C135.796 155.537 136.804 147.337 131.316 144.945C131.073 144.841 130.798 144.827 130.54 144.905C129.996 145.076 129.897 145.238 130.244 145.393" stroke="#FDB899" stroke-width="2"/>
<path d="M125.468 157.705C129.5 154.633 133.412 150.409 130.244 145.393" stroke="#FDBD9F" stroke-width="2"/>
<path d="M161.348 162.929C165.252 166.425 170.628 166.529 175.5 165.841C182.108 164.913 189.5 157.625 189.34 150.745C189.335 150.452 189.199 150.244 188.932 150.121C188.132 149.748 187.172 149.564 186.052 149.569C181.828 149.609 177.66 149.721 173.428 149.633C167.951 149.516 163.599 151.657 160.372 156.057C158.54 158.553 159.244 161.049 161.348 162.929Z" stroke="#FDB899" stroke-width="2"/>
<path d="M88.8042 148.945C103.9 155.993 109.324 127.705 94.6122 123.337" stroke="#897266" stroke-width="2"/>
<path d="M94.6123 123.337C93.9616 122.126 92.5883 121.689 90.4923 122.025C83.9163 123.073 80.7963 128.673 80.8443 135.041C80.887 140.801 83.263 145.612 87.9723 149.473C88.0622 149.547 88.1734 149.591 88.2898 149.598C88.4062 149.606 88.5219 149.576 88.6203 149.513C88.855 149.364 88.9163 149.174 88.8043 148.945" stroke="#FEE7D8" stroke-width="2"/>
<path d="M94.6123 123.337C89.4203 123.097 85.6203 126.697 84.1403 131.489C81.9377 138.625 83.4923 144.444 88.8043 148.945" stroke="#89898C" stroke-width="2"/>
<path d="M164.271 138.291C164.846 138 165.272 137.472 165.454 136.824C165.637 136.176 165.562 135.461 165.245 134.837C164.928 134.212 164.396 133.729 163.765 133.494C163.134 133.259 162.457 133.291 161.882 133.583C161.306 133.875 160.881 134.402 160.698 135.05C160.515 135.698 160.59 136.413 160.907 137.037C161.224 137.662 161.756 138.145 162.387 138.38C163.018 138.615 163.695 138.583 164.271 138.291Z" stroke="#89898C" stroke-width="2"/>
<path d="M93.5974 139.241C94.2317 139.252 94.8449 138.981 95.3021 138.488C95.7594 137.995 96.0232 137.319 96.0356 136.611C96.048 135.902 95.8079 135.218 95.3681 134.71C94.9283 134.201 94.3249 133.909 93.6906 133.898C93.0563 133.887 92.4431 134.157 91.9859 134.651C91.5286 135.144 91.2648 135.819 91.2524 136.527C91.24 137.236 91.4801 137.92 91.9199 138.429C92.3597 138.938 92.9631 139.23 93.5974 139.241Z" stroke="#89898C" stroke-width="2"/>
<path d="M125.7 19.5211C126.996 21.5131 128.884 20.9931 129.836 23.5851C135.236 38.4171 134.044 54.7211 119.612 63.9371C104.42 73.6331 85.5639 78.0171 70.7399 65.7051C70.4768 65.487 70.1472 65.365 69.8055 65.3591C69.4638 65.3533 69.1303 65.4641 68.8599 65.6731C66.1239 67.7931 58.6839 73.0171 55.2759 70.8011C55.0626 70.6625 54.8679 70.6865 54.6919 70.8731L46.4839 79.7851C46.3904 79.8844 46.2669 79.9503 46.1324 79.9727C45.9979 79.9951 45.8598 79.9729 45.7391 79.9094C45.6185 79.8459 45.5219 79.7446 45.4643 79.621C45.4066 79.4975 45.391 79.3584 45.4199 79.2251C45.6759 78.0811 49.0519 70.4811 47.0199 70.7291C59.5559 38.0811 89.9319 16.2651 125.7 19.5211Z" fill="#FEC568"/>
<path d="M125.7 19.5211C135.044 20.7291 142.092 23.2491 150.236 26.0251C152.183 26.6918 154.234 27.1238 156.388 27.3211C162.895 27.9238 168.183 28.7478 172.252 29.7931C188.052 33.8411 201.02 51.5771 207.3 65.9451C215.372 84.4171 219.508 105.353 222.668 124.137C223.18 127.193 224.463 129.654 226.516 131.521C228.348 133.193 231.26 132.953 233.62 133.113C233.744 133.121 233.864 133.157 233.97 133.22C234.075 133.283 234.164 133.369 234.228 133.473C236.516 137.089 233.084 142.617 230.26 145.233C230.058 145.425 230.034 145.636 230.188 145.865C233.724 151.121 234.98 160.057 229.588 164.649C229.38 164.825 229.279 165.049 229.284 165.321C229.311 166.03 229.591 166.689 230.124 167.297L230.572 172.769L230.332 171.537C230.317 171.436 230.266 171.343 230.188 171.277C230.11 171.21 230.011 171.174 229.909 171.175C229.806 171.176 229.708 171.214 229.631 171.282C229.555 171.35 229.505 171.444 229.492 171.545C227.972 180.529 211.468 188.993 203.284 187.329C195.1 185.665 194.924 177.097 194.836 170.577C194.767 165.409 195.023 160.297 195.604 155.241C211.028 156.409 222.06 141.281 215.108 127.521C212.468 122.305 207.156 119.225 201.916 123.089C200.172 109.937 183.476 99.1691 172.516 93.8251C171.114 93.1424 170.164 92.6171 169.668 92.2491C169.132 91.8571 168.86 91.9051 168.348 92.2491C160.882 83.2998 154.823 73.0464 150.172 61.4891C150.156 59.1158 149.671 56.5158 148.716 53.6891C148.535 53.1558 148.399 53.1664 148.308 53.7211C145.844 69.1771 132.292 82.2731 118.884 88.3291C97.8282 97.8411 62.9002 95.2491 53.0202 121.537C46.0842 120.577 41.8362 126.601 40.9162 132.617C39.8442 139.598 41.8495 145.497 46.9322 150.313C50.9855 154.153 55.6922 155.782 61.0522 155.201C62.2682 160.87 62.4042 166.345 61.4602 171.625C58.9162 185.857 44.3962 187.097 33.1882 183.313C32.2282 182.985 29.7482 180.457 29.9722 182.281L26.2602 175.721C25.4282 172.18 25.5269 168.622 26.5562 165.049C26.6309 164.782 26.5855 164.534 26.4202 164.305L24.7642 162.017C24.8229 161.393 25.1349 160.937 25.7002 160.649C25.7642 160.612 25.8069 160.63 25.8282 160.705C25.8495 160.774 25.8655 160.849 25.8762 160.929C25.8762 160.933 25.8779 160.937 25.8809 160.94C25.8839 160.943 25.888 160.945 25.8922 160.945C25.8965 160.945 25.9005 160.943 25.9035 160.94C25.9065 160.937 25.9082 160.933 25.9082 160.929C27.1669 156.529 28.7882 152.422 30.7722 148.609C31.4335 147.334 31.1082 146.404 29.7962 145.817L26.9322 144.545C23.6842 142.108 21.9082 138.654 21.6042 134.185C21.5725 133.71 21.7253 133.241 22.0308 132.876C22.3363 132.511 22.771 132.278 23.2442 132.225C29.4682 131.569 32.8362 131.177 34.0602 124.313C37.3322 105.969 40.3802 88.2571 47.0202 70.7291C49.0522 70.4811 45.6762 78.0811 45.4202 79.2251C45.3914 79.3584 45.4069 79.4974 45.4646 79.621C45.5223 79.7445 45.6188 79.8458 45.7395 79.9093C45.8601 79.9728 45.9983 79.9951 46.1328 79.9726C46.2673 79.9502 46.3907 79.8843 46.4842 79.7851L54.6922 70.8731C54.8682 70.6864 55.0629 70.6624 55.2762 70.8011C58.6842 73.0171 66.1242 67.7931 68.8602 65.6731C69.1306 65.464 69.4641 65.3533 69.8058 65.3591C70.1476 65.3649 70.4771 65.4869 70.7402 65.7051C85.5642 78.0171 104.42 73.6331 119.612 63.9371C134.044 54.7211 135.236 38.4171 129.836 23.5851C128.884 20.9931 126.996 21.5131 125.7 19.5211Z" fill="#FEB852"/>
<path d="M150.172 61.489C149.004 65.553 147.988 69.401 146.212 73.001C138.393 88.8997 125.785 98.857 108.388 102.873C99.0867 103.86 90.3907 106.014 82.3 109.337C78.012 110.449 74.788 112.561 70.58 115.153C65.2147 118.46 61.4333 123.116 59.236 129.121C59.0973 129.393 58.948 129.59 58.788 129.713C58.7063 129.776 58.6097 129.818 58.5075 129.833C58.4053 129.849 58.3009 129.838 58.204 129.802C58.1071 129.766 58.021 129.706 57.9538 129.627C57.8866 129.549 57.8406 129.454 57.82 129.353C57.1107 125.865 55.5107 123.26 53.02 121.537C62.9 95.249 97.828 97.841 118.884 88.329C132.292 82.273 145.844 69.177 148.308 53.721C148.399 53.1664 148.535 53.1557 148.716 53.689C149.671 56.5157 150.156 59.1157 150.172 61.489Z" fill="#F29A32"/>
<path d="M150.172 61.4891C154.823 73.0464 160.882 83.2997 168.348 92.2491L182.58 109.313C181.775 110.428 180.716 111.265 179.404 111.825L175.196 107.249C175.447 107.228 175.636 107.14 175.764 106.985C175.956 106.745 175.932 106.529 175.692 106.337C166.807 99.1051 159.524 90.5291 153.844 80.6091C153.772 80.4823 153.669 80.3756 153.545 80.2989C153.421 80.2222 153.28 80.1778 153.134 80.1698C152.988 80.1619 152.843 80.1906 152.711 80.2534C152.58 80.3161 152.466 80.4109 152.38 80.5291C150.828 82.6517 149.215 84.7744 147.54 86.8971C137.388 99.7531 126.156 104.057 110.612 107.657C110.346 107.721 110.175 107.622 110.1 107.361C109.866 106.513 109.391 106.116 108.676 106.169L108.388 102.873C125.786 98.8571 138.394 88.8997 146.212 73.0011C147.988 69.4011 149.004 65.5531 150.172 61.4891Z" fill="#FBA98B"/>
<path d="M175.196 107.249C170.038 102.775 164.132 100.631 157.476 100.817C153.236 100.937 149.676 104.889 152.444 108.785C154.516 111.705 156.82 111.073 160.444 110.377C168.044 108.929 173.796 114.505 180.068 117.393C180.249 117.477 180.449 117.509 180.647 117.485C180.845 117.462 181.033 117.384 181.189 117.261C181.346 117.138 181.465 116.973 181.534 116.786C181.603 116.599 181.619 116.397 181.58 116.201C181.265 114.601 180.54 113.143 179.404 111.825C180.716 111.265 181.774 110.428 182.58 109.313C188.852 115.241 195.476 121.089 199.556 128.753C199.662 128.956 199.756 128.951 199.836 128.737L201.916 123.089C207.156 119.225 212.468 122.305 215.108 127.521C222.06 141.281 211.028 156.409 195.604 155.241C194.5 154.532 193.665 154.729 193.1 155.833C191.889 158.201 190.22 160.999 188.092 164.225C175.764 179.937 156.732 188.713 137.068 191.129C129.836 191.625 122.798 191.471 115.956 190.665C97.0678 187.993 77.7878 178.113 67.4758 161.745L64.0838 155.313C63.9505 155.057 63.7398 154.943 63.4518 154.969L61.0518 155.201C55.6918 155.783 50.9851 154.153 46.9318 150.313C41.8491 145.497 39.8438 139.599 40.9158 132.617C41.8358 126.601 46.0838 120.577 53.0198 121.537C55.5105 123.26 57.1105 125.865 57.8198 129.353C57.8404 129.455 57.8864 129.549 57.9536 129.628C58.0208 129.706 58.1069 129.766 58.2038 129.802C58.3007 129.838 58.4051 129.849 58.5073 129.833C58.6095 129.818 58.7061 129.777 58.7878 129.713C58.9478 129.591 59.0971 129.393 59.2358 129.121L59.0758 130.073C59.0331 130.34 59.0892 130.583 59.2438 130.801C60.1958 132.113 58.3958 132.969 60.0518 134.785C62.3345 137.303 64.3478 140.537 66.0918 144.489C67.8305 148.42 70.1131 151.241 72.9398 152.953C70.9078 157.839 71.8491 161.889 75.7638 165.105C81.1718 169.561 91.5398 169.969 96.3478 164.433C96.8598 165.575 97.8518 166.207 99.3238 166.329C99.5958 166.351 99.8385 166.444 100.052 166.609L101.884 168.001C102.102 168.167 102.342 168.199 102.604 168.097C104.182 167.452 105.513 167.751 106.596 168.993C106.777 169.207 107.009 169.319 107.292 169.329L110.228 169.449C110.825 171.177 111.806 172.676 113.172 173.945C113.401 174.153 113.638 174.164 113.884 173.977L115.196 172.977C115.196 173.553 114.972 174.169 114.524 174.825C114.446 174.942 114.419 175.084 114.447 175.222C114.476 175.36 114.558 175.482 114.676 175.561C122.172 180.489 136.564 181.265 143.588 174.993C147.017 173.825 148.948 171.068 149.38 166.721C149.412 166.391 149.262 166.215 148.932 166.193C147.092 166.089 145.172 167.089 143.996 167.305C134.737 169.044 125.42 169.156 116.044 167.641C116.054 166.585 115.55 166.089 114.532 166.153C114.273 166.17 114.016 166.111 113.79 165.984C113.565 165.856 113.381 165.666 113.262 165.437C113.142 165.207 113.092 164.948 113.117 164.69C113.143 164.432 113.242 164.187 113.404 163.985C113.59 163.751 113.412 163.265 112.868 162.529C112.718 162.321 112.529 162.159 112.3 162.041C111.382 161.577 110.761 160.849 110.436 159.857C110.4 159.749 110.403 159.632 110.444 159.526C110.485 159.419 110.561 159.33 110.66 159.273C111.998 158.505 113.094 157.46 113.948 156.137C114.008 156.044 114.043 155.936 114.047 155.825C114.051 155.714 114.025 155.604 113.972 155.506C113.919 155.408 113.84 155.327 113.744 155.271C113.648 155.214 113.539 155.185 113.428 155.185H112.652C112.364 155.185 112.321 155.081 112.524 154.873C113.292 154.073 113.58 153.111 113.388 151.985C113.376 151.92 113.379 151.852 113.396 151.788C113.412 151.723 113.442 151.663 113.484 151.61C113.525 151.558 113.578 151.515 113.637 151.485C113.696 151.454 113.761 151.437 113.828 151.433C114.708 151.38 115.564 151.415 116.396 151.537C116.838 151.607 116.918 151.468 116.636 151.121L116.316 150.721C116.281 150.683 116.233 150.658 116.182 150.654C116.132 150.649 116.082 150.665 116.044 150.697C115.969 150.756 115.902 150.844 115.844 150.961C115.828 150.992 115.802 151.017 115.771 151.032C115.74 151.048 115.705 151.053 115.672 151.048C115.639 151.043 115.608 151.027 115.586 151.002C115.564 150.978 115.55 150.947 115.548 150.913C115.382 149.66 114.905 148.543 114.116 147.561C114.035 147.462 113.988 147.34 113.983 147.213C113.977 147.086 114.012 146.961 114.084 146.857L115.052 145.473C115.193 145.27 115.271 145.028 115.276 144.777C115.281 144.223 115.084 143.748 114.684 143.353C114.466 143.141 114.322 142.86 114.276 142.553L113.476 137.265C113.463 137.175 113.471 137.084 113.499 136.998C113.527 136.912 113.573 136.834 113.636 136.769C114.041 136.364 114.174 135.879 114.036 135.313C113.977 135.057 113.974 134.799 114.028 134.537C115.196 128.825 116.22 122.513 112.412 117.497C112.246 117.273 112.03 117.121 111.764 117.041C110.025 116.492 108.484 115.593 107.14 114.345C107.059 114.271 106.995 114.18 106.95 114.08C106.905 113.98 106.881 113.871 106.879 113.761C106.876 113.65 106.896 113.541 106.937 113.438C106.978 113.335 107.039 113.241 107.116 113.161C107.745 112.511 107.91 111.761 107.612 110.913C107.532 110.684 107.374 110.609 107.14 110.689C106.697 110.839 106.31 110.785 105.98 110.529C107.649 109.495 108.548 108.041 108.676 106.169C109.39 106.116 109.865 106.513 110.1 107.361C110.174 107.623 110.345 107.721 110.612 107.657C126.156 104.057 137.388 99.7533 147.54 86.8973C149.214 84.7746 150.828 82.6519 152.38 80.5293C152.465 80.4111 152.579 80.3163 152.711 80.2536C152.843 80.1908 152.988 80.1621 153.134 80.17C153.279 80.178 153.421 80.2224 153.545 80.2991C153.669 80.3759 153.772 80.4825 153.844 80.6093C159.524 90.5293 166.806 99.1053 175.692 106.337C175.932 106.529 175.956 106.745 175.764 106.985C175.636 107.14 175.446 107.228 175.196 107.249ZM163.172 121.777C159.193 122.732 156.508 124.489 155.116 127.049C153.062 130.815 152.34 134.745 152.948 138.841C153.724 144.097 157.628 149.697 163.308 149.593C165.761 149.545 168.153 148.492 170.484 146.433C171.513 146.439 172.462 145.601 173.332 143.921C176.468 137.879 176.574 132.084 173.652 126.537C171.02 121.561 167.18 118.985 161.588 121.409C161.326 121.527 161.268 121.711 161.412 121.961C161.646 122.372 162.233 122.311 163.172 121.777ZM53.5158 128.105C51.6118 125.121 48.3158 126.601 46.9878 129.041C43.3158 135.769 45.7638 142.801 51.7078 147.321C53.7558 148.873 59.1398 149.593 59.0678 145.793C58.9452 139.601 57.0945 133.705 53.5158 128.105ZM205.212 126.977C200.956 130.273 199.548 139.977 199.004 144.745C198.508 149.041 202.852 149.617 205.612 147.745C210.561 144.385 212.897 139.78 212.62 133.929C212.476 130.905 208.884 124.137 205.212 126.977ZM130.244 145.393C129.342 145.068 128.596 144.937 128.004 145.001C127.95 145.006 127.898 145.027 127.855 145.061C127.813 145.095 127.781 145.141 127.764 145.193C127.747 145.245 127.745 145.3 127.76 145.353C127.774 145.406 127.803 145.453 127.844 145.489C131.004 148.417 130.42 153.297 125.268 152.953C125.136 152.944 125.006 152.986 124.903 153.071C124.801 153.156 124.734 153.277 124.716 153.409C124.577 154.609 124.828 156.041 125.468 157.705C126.929 159.796 128.964 159.991 131.572 158.289C135.796 155.537 136.804 147.337 131.316 144.945C131.073 144.842 130.798 144.828 130.54 144.905C129.996 145.076 129.897 145.239 130.244 145.393ZM161.348 162.929C165.252 166.425 170.628 166.529 175.5 165.841C182.108 164.913 189.5 157.625 189.34 150.745C189.334 150.452 189.198 150.244 188.932 150.121C188.132 149.748 187.172 149.564 186.052 149.569C181.828 149.609 177.66 149.721 173.428 149.633C167.95 149.516 163.598 151.657 160.372 156.057C158.54 158.553 159.244 161.049 161.348 162.929Z" fill="#FFC7A7"/>
<path d="M201.916 123.089L199.836 128.737C199.756 128.95 199.663 128.956 199.556 128.753C195.476 121.089 188.852 115.241 182.58 109.313L168.348 92.2489C168.86 91.9049 169.132 91.8569 169.668 92.2489C170.164 92.6169 171.113 93.1423 172.516 93.825C183.476 99.169 200.172 109.937 201.916 123.089Z" fill="#F29A32"/>
<path d="M175.196 107.249L179.404 111.825C180.54 113.142 181.265 114.601 181.58 116.201C181.619 116.397 181.603 116.599 181.534 116.786C181.465 116.973 181.346 117.137 181.189 117.261C181.033 117.384 180.845 117.462 180.647 117.485C180.449 117.509 180.249 117.477 180.068 117.393C173.796 114.505 168.044 108.929 160.444 110.377C156.82 111.073 154.516 111.705 152.444 108.785C149.676 104.889 153.236 100.937 157.476 100.817C164.132 100.63 170.039 102.774 175.196 107.249Z" fill="#CD7A4E"/>
<path d="M108.388 102.873L108.676 106.169C108.548 108.041 107.649 109.494 105.98 110.529C102.404 113.089 100.828 110.521 97.4758 110.393C91.6678 110.161 85.8358 114.385 81.0118 117.105C79.5398 117.937 78.8651 117.51 78.9878 115.825C79.1211 113.969 80.2251 111.806 82.2998 109.337C90.3905 106.014 99.0865 103.86 108.388 102.873Z" fill="#CD7A4E"/>
<path d="M82.2998 109.337C80.2252 111.806 79.1212 113.969 78.9878 115.825C78.8652 117.51 79.5398 117.937 81.0118 117.105C85.8358 114.385 91.6678 110.161 97.4758 110.393C100.828 110.521 102.404 113.089 105.98 110.529C106.311 110.785 106.697 110.838 107.14 110.689C107.375 110.609 107.532 110.684 107.612 110.913C107.911 111.761 107.745 112.51 107.116 113.161C107.039 113.241 106.978 113.335 106.937 113.437C106.896 113.54 106.876 113.65 106.879 113.761C106.881 113.871 106.905 113.979 106.95 114.08C106.995 114.18 107.059 114.27 107.14 114.345C108.484 115.593 110.025 116.492 111.764 117.041C112.031 117.121 112.247 117.273 112.412 117.497C116.22 122.513 115.196 128.825 114.028 134.537C113.975 134.798 113.977 135.057 114.036 135.313C114.175 135.878 114.041 136.364 113.636 136.769C113.574 136.834 113.527 136.912 113.499 136.998C113.471 137.084 113.463 137.175 113.476 137.265L114.276 142.553C114.322 142.86 114.466 143.14 114.684 143.353C115.084 143.748 115.281 144.222 115.276 144.777C115.271 145.027 115.193 145.269 115.052 145.473L114.084 146.857C114.012 146.961 113.977 147.086 113.983 147.213C113.988 147.34 114.035 147.462 114.116 147.561C114.905 148.542 115.383 149.66 115.548 150.913C115.55 150.947 115.564 150.978 115.586 151.002C115.608 151.026 115.639 151.042 115.672 151.048C115.705 151.053 115.74 151.048 115.771 151.032C115.802 151.016 115.828 150.992 115.844 150.961C115.903 150.844 115.969 150.756 116.044 150.697C116.082 150.665 116.132 150.649 116.182 150.654C116.233 150.658 116.281 150.682 116.316 150.721L116.636 151.121C116.919 151.468 116.839 151.606 116.396 151.537C115.564 151.414 114.708 151.38 113.828 151.433C113.761 151.437 113.696 151.454 113.637 151.485C113.578 151.515 113.525 151.558 113.484 151.61C113.442 151.662 113.412 151.723 113.396 151.787C113.379 151.852 113.376 151.919 113.388 151.985C113.58 153.11 113.292 154.073 112.524 154.873C112.321 155.081 112.364 155.185 112.652 155.185H113.428C113.539 155.184 113.648 155.214 113.744 155.27C113.84 155.327 113.919 155.408 113.972 155.506C114.025 155.603 114.051 155.714 114.047 155.825C114.043 155.936 114.009 156.044 113.948 156.137C113.095 157.46 111.999 158.505 110.66 159.273C110.561 159.33 110.485 159.419 110.444 159.525C110.403 159.632 110.4 159.749 110.436 159.857C110.761 160.849 111.383 161.577 112.3 162.041C112.529 162.158 112.719 162.321 112.868 162.529C113.412 163.265 113.591 163.75 113.404 163.985C113.242 164.187 113.143 164.432 113.117 164.69C113.092 164.947 113.142 165.207 113.262 165.436C113.381 165.666 113.565 165.856 113.79 165.983C114.016 166.111 114.273 166.17 114.532 166.153C115.551 166.089 116.055 166.585 116.044 167.641L110.292 166.361C109.977 166.292 109.783 166.414 109.708 166.729C109.511 167.534 109.684 168.441 110.228 169.449L107.292 169.329C107.009 169.318 106.777 169.206 106.596 168.993C105.513 167.75 104.183 167.452 102.604 168.097C102.343 168.198 102.103 168.166 101.884 168.001L100.052 166.609C99.8385 166.444 99.5958 166.35 99.3238 166.329C97.8518 166.206 96.8598 165.574 96.3478 164.433C99.6918 158.201 90.4758 153.113 85.8358 151.889C81.6492 150.785 77.3505 151.14 72.9398 152.953C70.1132 151.241 67.8305 148.42 66.0919 144.489C64.3479 140.537 62.3345 137.302 60.0518 134.785C58.3958 132.969 60.1959 132.113 59.2439 130.801C59.0892 130.582 59.0332 130.34 59.0758 130.073L59.2358 129.121C61.4332 123.116 65.2145 118.46 70.5799 115.153C74.7879 112.561 78.0118 110.449 82.2998 109.337ZM88.8039 148.945C103.9 155.993 109.324 127.705 94.6118 123.337C93.9612 122.126 92.5878 121.689 90.4918 122.025C83.9158 123.073 80.7959 128.673 80.8439 135.041C80.8865 140.801 83.2625 145.612 87.9718 149.473C88.0618 149.547 88.1729 149.591 88.2893 149.598C88.4058 149.606 88.5215 149.576 88.6199 149.513C88.8545 149.364 88.9158 149.174 88.8039 148.945Z" fill="#FED0B2"/>
<path d="M170.484 146.433C176.17 134.534 173.732 126.316 163.172 121.777C162.234 122.31 161.647 122.372 161.412 121.961C161.268 121.71 161.327 121.526 161.588 121.409C167.18 118.985 171.02 121.561 173.652 126.537C176.575 132.084 176.468 137.878 173.332 143.921C172.463 145.601 171.514 146.438 170.484 146.433Z" fill="#FEFEFE"/>
<path d="M94.6123 123.337C89.4203 123.097 85.6203 126.697 84.1403 131.489C81.9376 138.625 83.4923 144.444 88.8043 148.945C88.9163 149.174 88.855 149.364 88.6203 149.513C88.5219 149.576 88.4062 149.606 88.2898 149.598C88.1734 149.591 88.0622 149.547 87.9723 149.473C83.263 145.612 80.887 140.801 80.8443 135.041C80.7963 128.673 83.9163 123.073 90.4923 122.025C92.5883 121.689 93.9616 122.126 94.6123 123.337Z" fill="#FEFEFE"/>
<path d="M163.172 121.777C173.732 126.316 176.169 134.535 170.484 146.433C168.153 148.492 165.761 149.545 163.308 149.593C157.628 149.697 153.724 144.097 152.948 138.841C152.34 134.745 153.063 130.815 155.116 127.049C156.508 124.489 159.193 122.732 163.172 121.777ZM164.271 138.292C164.846 138 165.272 137.472 165.454 136.824C165.637 136.176 165.562 135.461 165.245 134.837C164.928 134.213 164.396 133.73 163.765 133.495C163.134 133.259 162.457 133.291 161.882 133.583C161.306 133.875 160.881 134.403 160.698 135.051C160.515 135.698 160.59 136.413 160.907 137.038C161.224 137.662 161.756 138.145 162.387 138.38C163.018 138.615 163.695 138.583 164.271 138.292Z" fill="#141319"/>
<path d="M94.6118 123.337C109.324 127.705 103.9 155.993 88.8038 148.945C83.4918 144.444 81.9372 138.625 84.1398 131.489C85.6198 126.697 89.4198 123.097 94.6118 123.337ZM93.5972 139.241C94.2315 139.252 94.8447 138.981 95.302 138.488C95.7592 137.995 96.0231 137.319 96.0354 136.611C96.0478 135.902 95.8077 135.218 95.3679 134.71C94.9282 134.201 94.3248 133.909 93.6905 133.898C93.0562 133.886 92.443 134.157 91.9857 134.65C91.5284 135.144 91.2646 135.819 91.2522 136.527C91.2399 137.236 91.48 137.92 91.9197 138.429C92.3595 138.938 92.9629 139.23 93.5972 139.241Z" fill="#141319"/>
<path d="M46.988 129.041C48.316 126.601 51.612 125.121 53.516 128.105C57.0946 133.705 58.9453 139.601 59.068 145.793C59.14 149.593 53.756 148.873 51.708 147.321C45.764 142.801 43.316 135.769 46.988 129.041Z" fill="#FBA98B"/>
<path d="M205.212 126.977C208.884 124.137 212.476 130.905 212.62 133.929C212.898 139.78 210.562 144.385 205.612 147.745C202.852 149.617 198.508 149.041 199.004 144.745C199.548 139.977 200.956 130.273 205.212 126.977Z" fill="#FBA98B"/>
<path d="M160.907 137.037C161.567 138.338 163.072 138.899 164.27 138.291C165.468 137.684 165.904 136.137 165.245 134.837C164.585 133.536 163.079 132.975 161.881 133.583C160.684 134.19 160.247 135.737 160.907 137.037Z" fill="#FEFEFE"/>
<path d="M91.2526 136.527C91.2269 138.003 92.2768 139.217 93.5976 139.24C94.9185 139.264 96.0101 138.086 96.0359 136.611C96.0616 135.135 95.0117 133.92 93.6909 133.897C92.37 133.874 91.2784 135.052 91.2526 136.527Z" fill="#FEFEFE"/>
<path d="M26.932 144.545L29.796 145.817C31.108 146.404 31.4334 147.335 30.772 148.609C28.788 152.423 27.1667 156.529 25.908 160.929C25.908 160.934 25.9063 160.938 25.9033 160.941C25.9003 160.944 25.8963 160.945 25.892 160.945C25.8878 160.945 25.8837 160.944 25.8807 160.941C25.8777 160.938 25.876 160.934 25.876 160.929C25.8654 160.849 25.8494 160.775 25.828 160.705C25.8067 160.631 25.764 160.612 25.7 160.649C25.1347 160.937 24.8227 161.393 24.764 162.017C22.252 156.681 22.268 148.889 26.932 144.545Z" fill="#FEC568"/>
<path d="M125.468 157.705C129.5 154.633 133.412 150.409 130.244 145.393C129.897 145.238 129.996 145.076 130.54 144.905C130.798 144.827 131.073 144.841 131.316 144.945C136.804 147.337 135.796 155.537 131.572 158.289C128.964 159.99 126.929 159.796 125.468 157.705Z" fill="#FBA98B"/>
<path d="M130.244 145.393C133.412 150.409 129.5 154.633 125.468 157.705C124.828 156.041 124.577 154.609 124.716 153.409C124.734 153.276 124.801 153.155 124.903 153.071C125.006 152.986 125.136 152.944 125.268 152.953C130.42 153.297 131.004 148.417 127.844 145.489C127.803 145.453 127.774 145.405 127.76 145.353C127.745 145.3 127.747 145.244 127.764 145.192C127.781 145.141 127.813 145.095 127.855 145.061C127.898 145.027 127.949 145.006 128.004 145.001C128.596 144.937 129.342 145.068 130.244 145.393Z" fill="#FED0B2"/>
<path d="M161.348 162.929C159.244 161.049 158.54 158.553 160.372 156.057C163.599 151.657 167.951 149.516 173.428 149.633C177.66 149.721 181.828 149.609 186.052 149.569C187.172 149.564 188.132 149.748 188.932 150.121C189.199 150.244 189.335 150.452 189.34 150.745C189.5 157.625 182.108 164.913 175.5 165.841C170.628 166.529 165.252 166.425 161.348 162.929Z" fill="#FBA98B"/>
<path d="M96.3479 164.433C91.5399 169.969 81.172 169.561 75.764 165.105C71.8493 161.889 70.908 157.839 72.94 152.953C77.3506 151.14 81.6493 150.785 85.8359 151.889C90.4759 153.113 99.6919 158.201 96.3479 164.433Z" fill="#FBA98B"/>
<path d="M195.604 155.241C195.023 160.297 194.767 165.409 194.836 170.577C194.924 177.097 195.1 185.665 203.284 187.329C211.468 188.993 227.972 180.529 229.492 171.545C229.505 171.444 229.555 171.35 229.631 171.282C229.708 171.214 229.806 171.176 229.909 171.175C230.011 171.174 230.111 171.21 230.188 171.277C230.266 171.343 230.317 171.436 230.332 171.537L230.572 172.769C228.172 183.529 212.884 196.649 203.684 202.905C202.495 202.569 201.548 202.833 200.844 203.697C200.764 203.794 200.653 203.858 200.529 203.879C200.406 203.899 200.279 203.875 200.172 203.809C188.732 197.009 187.42 182.449 187.876 170.481C187.9 169.937 189.468 163.585 188.092 164.225C190.22 160.999 191.89 158.201 193.1 155.833C193.666 154.729 194.5 154.532 195.604 155.241Z" fill="#F29A32"/>
<path d="M67.4762 161.745C67.1669 161.761 66.9002 161.836 66.6762 161.969C66.5779 162.031 66.5007 162.121 66.4549 162.228C66.4091 162.335 66.3971 162.454 66.4202 162.569C67.8762 169.679 69.0309 176.839 69.8842 184.049C71.5802 198.481 64.7642 207.233 49.5882 201.193C49.4761 201.148 49.3516 201.143 49.2362 201.18C49.1209 201.216 49.0219 201.292 48.9562 201.393L48.6522 201.881C41.1802 196.553 34.9536 190.02 29.9722 182.281C29.7482 180.457 32.2282 182.985 33.1882 183.313C44.3962 187.097 58.9162 185.857 61.4602 171.625C62.4042 166.345 62.2682 160.871 61.0522 155.201L63.4522 154.969C63.7402 154.943 63.9509 155.057 64.0842 155.313L67.4762 161.745Z" fill="#F29A32"/>
<path d="M67.4759 161.745C77.7879 178.113 97.0679 187.993 115.956 190.665C116.175 191.167 115.831 191.767 114.924 192.465L114.02 192.633L100.412 194.385C99.5959 194.38 98.8332 194.631 98.1239 195.137C97.8867 195.306 97.6165 195.42 97.3319 195.473C86.6012 197.42 79.3239 203.471 75.4999 213.625C75.4492 213.761 75.4358 213.908 75.4612 214.05C75.4865 214.192 75.5496 214.325 75.6439 214.433C76.4065 215.324 76.8545 216.209 76.9879 217.089C66.6572 213.196 57.2119 208.127 48.6519 201.881L48.9559 201.393C49.0215 201.292 49.1205 201.216 49.2359 201.18C49.3512 201.143 49.4757 201.148 49.5879 201.193C64.7639 207.233 71.5799 198.481 69.8839 184.049C69.0305 176.839 67.8759 169.679 66.4199 162.569C66.3967 162.454 66.4088 162.335 66.4545 162.228C66.5003 162.121 66.5775 162.03 66.6759 161.969C66.8999 161.836 67.1665 161.761 67.4759 161.745Z" fill="#EF8B24"/>
<path d="M188.092 164.225C189.468 163.585 187.9 169.937 187.876 170.481C187.42 182.449 188.732 197.009 200.172 203.809C200.279 203.874 200.405 203.899 200.529 203.878C200.652 203.858 200.764 203.793 200.844 203.697C201.548 202.833 202.495 202.569 203.684 202.905C196.196 208.43 187.737 212.993 178.308 216.593C176.484 209.99 173.116 204.844 168.204 201.153C167.569 200.934 167.22 200.7 167.156 200.449C164.457 198.694 161.556 197.334 158.452 196.369C156.484 195.761 141.924 191.753 141.196 193.217C140.455 193.158 139.74 192.921 139.052 192.505C138.007 192.398 137.345 191.94 137.068 191.129C156.732 188.713 175.764 179.937 188.092 164.225Z" fill="#EF8B24"/>
<path d="M143.588 174.993C137.834 171.5 130.572 170.281 121.804 171.337C118.599 171.721 116.396 172.268 115.196 172.977L113.884 173.977C113.639 174.164 113.402 174.153 113.172 173.945C111.807 172.676 110.826 171.177 110.228 169.449C109.684 168.441 109.511 167.534 109.708 166.729C109.783 166.414 109.978 166.292 110.292 166.361L116.044 167.641C125.42 169.156 134.738 169.044 143.996 167.305C145.172 167.089 147.092 166.089 148.932 166.193C149.263 166.214 149.412 166.39 149.38 166.721C148.948 171.068 147.018 173.825 143.588 174.993Z" fill="#2D242F"/>
<path d="M143.588 174.993C136.564 181.265 122.172 180.489 114.676 175.561C114.558 175.482 114.476 175.36 114.447 175.222C114.419 175.084 114.447 174.942 114.524 174.825C114.972 174.169 115.196 173.553 115.196 172.977C116.396 172.268 118.599 171.721 121.804 171.337C130.572 170.281 137.833 171.5 143.588 174.993Z" fill="#FBA98B"/>
<path d="M115.956 190.665C122.799 191.471 129.836 191.625 137.068 191.129C137.346 191.94 138.007 192.399 139.052 192.505C136.548 194.753 134.58 197.433 131.38 198.561C124.196 201.111 118.711 199.079 114.924 192.465C115.831 191.767 116.175 191.167 115.956 190.665Z" fill="#FC8E79"/>
<path d="M114.02 192.633L109.884 194.457C109.774 194.506 109.679 194.582 109.606 194.679C109.533 194.775 109.486 194.889 109.468 195.009C109.004 198.593 112.572 202.209 115.396 203.593C123.508 207.572 131.548 207.463 139.516 203.265C142.482 201.708 144.164 199.041 144.564 195.265C144.591 195.004 144.511 194.78 144.324 194.593C143.524 193.799 142.482 193.34 141.196 193.217C141.924 191.753 156.484 195.761 158.452 196.369C161.556 197.335 164.458 198.695 167.156 200.449C159.05 210.263 148.959 216.276 136.884 218.489L135.58 213.689C140.908 212.209 146.668 210.369 150.564 206.145C150.572 206.133 150.575 206.119 150.573 206.104C150.572 206.09 150.565 206.077 150.555 206.067C150.545 206.056 150.531 206.05 150.517 206.048C150.503 206.047 150.489 206.05 150.476 206.057C147.762 208.447 144.548 210.276 140.836 211.545C136.826 212.921 132.823 213.655 128.828 213.745C118.172 213.993 99.1722 210.489 100.556 195.881C100.578 195.647 100.479 195.487 100.26 195.401C100.154 195.359 100.05 195.34 99.9482 195.345C100.231 195.217 100.386 194.897 100.412 194.385L114.02 192.633Z" fill="#D7434B"/>
<path d="M114.02 192.633L114.924 192.465C118.71 199.079 124.196 201.111 131.38 198.561C134.58 197.433 136.548 194.753 139.052 192.505C139.74 192.921 140.454 193.159 141.196 193.217C142.481 193.34 143.524 193.799 144.324 194.593C144.51 194.78 144.59 195.004 144.564 195.265C144.164 199.041 142.481 201.708 139.516 203.265C131.548 207.463 123.508 207.572 115.396 203.593C112.572 202.209 109.004 198.593 109.468 195.009C109.485 194.889 109.533 194.775 109.605 194.679C109.678 194.582 109.774 194.506 109.884 194.457L114.02 192.633Z" fill="#FBA98B"/>
<path d="M100.412 194.385C100.385 194.897 100.231 195.217 99.9479 195.345C98.1879 213.489 123.884 215.625 135.58 213.689L136.884 218.489C117.668 221.409 98.8359 215.929 86.9959 199.945C86.9159 199.839 86.8439 199.841 86.7799 199.953L86.6519 200.169C86.5772 200.292 86.5826 200.409 86.6679 200.521C98.2119 216.361 117.404 222.281 136.54 219.257L137.66 224.705C137.686 224.834 137.682 224.968 137.648 225.095C137.614 225.222 137.552 225.34 137.465 225.439C137.378 225.538 137.27 225.616 137.148 225.666C137.027 225.716 136.895 225.738 136.764 225.729C132.788 225.441 121.748 224.425 119.068 226.281C104.321 225.497 90.2946 222.433 76.9879 217.089C76.8546 216.209 76.4066 215.324 75.6439 214.433C75.5497 214.325 75.4866 214.192 75.4612 214.05C75.4359 213.908 75.4492 213.761 75.4999 213.625C79.3239 203.471 86.6012 197.42 97.3319 195.473C97.6165 195.42 97.8868 195.306 98.1239 195.137C98.8332 194.631 99.5959 194.38 100.412 194.385Z" fill="#F75E54"/>
<path d="M99.9483 195.345C100.05 195.34 100.154 195.359 100.26 195.401C100.479 195.487 100.578 195.647 100.556 195.881C99.1723 210.489 118.172 213.993 128.828 213.745C132.823 213.655 136.826 212.921 140.836 211.545C144.548 210.276 147.762 208.447 150.476 206.057C150.489 206.05 150.503 206.047 150.517 206.048C150.532 206.05 150.545 206.057 150.555 206.067C150.565 206.077 150.572 206.09 150.573 206.104C150.575 206.119 150.572 206.133 150.564 206.145C146.668 210.369 140.908 212.209 135.58 213.689C123.884 215.625 98.1883 213.489 99.9483 195.345Z" fill="#B62A37"/>
<path d="M136.884 218.489C148.959 216.276 159.05 210.263 167.156 200.449C167.22 200.7 167.57 200.935 168.204 201.153C167.671 201.297 167.314 201.468 167.132 201.665C158.78 211.02 148.583 216.884 136.54 219.257C117.404 222.281 98.2124 216.361 86.6684 200.521C86.583 200.409 86.5777 200.292 86.6524 200.169L86.7804 199.953C86.8444 199.841 86.9164 199.839 86.9964 199.945C98.8364 215.929 117.668 221.409 136.884 218.489Z" fill="#B62A37"/>
<path d="M168.204 201.153C173.116 204.844 176.484 209.99 178.308 216.593C159.7 224.348 139.953 227.577 119.068 226.281C121.748 224.425 132.788 225.441 136.764 225.729C136.895 225.738 137.027 225.716 137.148 225.666C137.27 225.616 137.378 225.538 137.465 225.439C137.552 225.34 137.614 225.222 137.648 225.095C137.682 224.967 137.686 224.834 137.66 224.705L136.54 219.257C148.583 216.884 158.78 211.02 167.132 201.665C167.313 201.468 167.671 201.297 168.204 201.153Z" fill="#D7434B"/>
</svg>
