<svg width="256" height="256" viewBox="0 0 256 256" fill="none" xmlns="http://www.w3.org/2000/svg">
<path d="M17.0501 112.459C17.7667 116.961 19.7375 121.001 22.9625 124.579C23.0433 124.669 23.0893 124.784 23.0922 124.904C23.0952 125.025 23.0548 125.142 22.9785 125.235C16.8174 132.723 11.29 144.707 22.7539 150.587C22.9839 150.705 23.0561 150.883 22.9705 151.123C21.0291 156.723 22.2645 162.643 27.5673 165.731C27.8026 165.87 27.8828 166.073 27.8079 166.339C24.9921 175.947 30.6398 182.987 40.443 181.779C40.4983 181.772 40.5547 181.777 40.6073 181.796C40.6599 181.815 40.7071 181.846 40.745 181.887C40.7829 181.928 40.8102 181.977 40.8247 182.031C40.8392 182.085 40.8403 182.141 40.8281 182.195C38.6701 192.227 46.9892 199.387 56.2469 194.315C56.5143 194.171 56.7042 194.238 56.8165 194.515C59.4077 200.851 66.3711 210.019 73.4226 210.979" stroke="#9F999D" stroke-width="2"/>
<path d="M73.4233 210.979L77.2099 211.411C77.4987 211.443 77.7447 211.563 77.9479 211.771L81.8227 215.651" stroke="#969197" stroke-width="2"/>
<path d="M81.8218 215.651L78.0032 223.243C77.6556 223.941 77.8214 224.483 78.5006 224.867C79.6451 225.501 80.8698 226.029 82.1748 226.451C88.5766 228.515 95.0372 230.357 101.557 231.979" stroke="#F8CC98" stroke-width="2"/>
<path d="M196.862 204.139C200.75 200.843 203.459 197.105 204.989 192.923C205.031 192.81 205.112 192.716 205.219 192.659C205.325 192.601 205.449 192.585 205.566 192.611C216.308 194.995 224.475 190.291 222.726 178.307C222.689 178.03 222.809 177.859 223.087 177.795C230.933 176.067 232.834 170.275 230.62 162.779C230.588 162.673 230.596 162.559 230.643 162.457C230.69 162.355 230.773 162.274 230.877 162.227C236.364 159.867 237.094 152.251 234.872 147.539C234.754 147.283 234.813 147.078 235.048 146.923C240.664 143.19 241.667 138.102 238.057 131.659" stroke="#908D91" stroke-width="2"/>
<path d="M238.056 131.658L232.938 124.178C232.783 123.954 232.786 123.73 232.946 123.506C236.468 118.498 237.583 112.234 232.994 107.49C232.812 107.298 232.802 107.098 232.962 106.89C236.829 101.818 235.457 93.8184 229.577 90.8984" stroke="#969197" stroke-width="2"/>
<path d="M229.576 90.8985C228.961 90.7705 228.806 90.4132 229.11 89.8266C234.373 79.7306 225.998 72.3225 216.243 73.2985C216.132 73.3104 216.02 73.2883 215.923 73.2351C215.825 73.1819 215.746 73.1002 215.696 73.001C215.647 72.9017 215.628 72.7897 215.644 72.6798C215.66 72.57 215.709 72.4677 215.785 72.3866C219.845 68.0026 220.47 62.3546 215.954 57.9306C211.13 53.1999 205.161 50.8826 198.048 50.9786C197.921 50.981 197.796 50.9533 197.681 50.8977C197.567 50.842 197.467 50.7601 197.39 50.6586C190.218 41.1652 180.501 37.2773 168.237 38.9946" stroke="#9F999D" stroke-width="2"/>
<path d="M168.238 38.9947L166.376 35.4187" stroke="#969197" stroke-width="2"/>
<path d="M166.377 35.419C159.325 23.443 141.853 12.875 128.488 21.907C128.268 22.0563 128.06 22.0403 127.862 21.859C122.209 16.7336 115.716 14.971 108.384 16.571C104.004 17.531 97.2648 21.307 96.0615 26.235C95.9652 26.635 95.778 26.6857 95.4999 26.387C85.9454 16.099 73.3103 26.859 70.6148 37.211C70.5453 37.483 70.3715 37.6136 70.0934 37.603C61.2287 37.219 46.4036 40.475 40.8361 48.235C37.4667 52.923 39.9777 57.699 42.4245 62.179C42.468 62.2573 42.4915 62.345 42.4929 62.4346C42.4943 62.5242 42.4736 62.6129 42.4326 62.6932C42.3915 62.7735 42.3314 62.8429 42.2573 62.8955C42.1832 62.9481 42.0974 62.9822 42.0073 62.995C31.2735 64.475 24.0053 70.347 30.0862 82.187C30.2146 82.443 30.1424 82.6083 29.8696 82.683C22.2806 84.7683 19.8765 89.4616 22.6576 96.763C22.8983 97.411 23.7326 98.203 24.0134 98.955C24.1257 99.2483 24.0374 99.459 23.7486 99.587C18.4432 101.912 16.2104 106.203 17.05 112.459" stroke="#A59EA1" stroke-width="2"/>
<path d="M166.377 35.4187L161.114 38.9147" stroke="#3C313A" stroke-width="2"/>
<path d="M161.114 38.9148C160.488 39.3788 159.833 39.6561 159.149 39.7468C158.876 39.7841 158.648 39.9095 158.467 40.1228C157.91 40.7841 157.194 41.0641 156.317 40.9628C156.192 40.9479 156.065 40.9618 155.947 41.0035C155.828 41.0451 155.722 41.1133 155.635 41.2028L153.501 43.3628C153.356 43.5068 153.188 43.6215 152.995 43.7068C151.471 44.3521 149.912 44.9015 148.318 45.3548C145.422 46.1868 143.305 47.8428 140.537 48.9868C139.045 49.5948 138.363 50.7308 136.855 51.4588C133.79 52.9308 132.298 54.1308 130.332 56.5948C130.243 56.7071 130.121 56.7894 129.984 56.8309C129.846 56.8724 129.699 56.8709 129.562 56.8268C128.568 56.4961 127.755 56.6668 127.124 57.3388C126.92 57.5522 126.672 57.6588 126.377 57.6588C125.035 57.6588 123.629 58.2108 122.158 59.3148C120.89 60.2588 118.232 61.5708 114.184 63.2508C113.954 63.3468 113.713 63.3762 113.462 63.3388C112.852 63.2482 112.355 63.4268 111.969 63.8748C111.788 64.0828 111.566 64.2321 111.304 64.3228C107.878 65.4508 105.295 67.7788 102.303 68.9388C100.383 69.6802 98.4492 70.3761 96.5025 71.0268C93.1278 72.1575 90.8388 73.1708 89.6354 74.0668C88.2075 75.1228 86.8517 75.6135 85.5681 75.5388C85.3007 75.5228 85.0761 75.6161 84.8943 75.8188C81.0837 80.1068 75.0589 80.6748 70.5825 84.0188C69.5958 84.7548 67.7908 85.0748 67.1891 85.8188C67.0233 86.0268 66.8227 86.1895 66.5874 86.3068C62.6832 88.2695 59.1909 90.7868 56.1103 93.8588C55.6824 94.2908 55.1556 94.6534 54.5299 94.9468C51.8184 96.2428 50.96 98.8748 48.2966 100.035C48.0773 100.131 47.9811 100.061 48.0078 99.8268C48.0238 99.6668 50.2781 97.7148 50.6632 96.9068C50.7541 96.7095 50.8931 96.5574 51.0803 96.4508L52.4842 95.6748C52.9656 95.4081 52.9335 95.2482 52.388 95.1948C50.8878 95.0508 49.8289 94.9068 48.5613 95.9228C45.0315 98.7335 41.5311 101.573 38.0602 104.443C37.3275 105.045 35.6348 105.621 32.9821 106.171C32.72 106.229 32.4954 106.357 32.3082 106.555L29.6287 109.451C29.5478 109.537 29.4506 109.605 29.3429 109.652C29.2353 109.699 29.1196 109.723 29.003 109.723C26.4894 109.744 24.8234 110.909 24.0051 113.219C23.9089 113.491 23.7377 113.704 23.4917 113.859C22.7002 114.365 22.3819 115.093 22.537 116.043C22.5798 116.309 22.5558 116.571 22.4648 116.827C22.3686 117.083 22.2884 117.299 22.2242 117.475C22.1941 117.556 22.141 117.626 22.0713 117.677C22.0017 117.728 21.9186 117.757 21.8323 117.761C21.746 117.766 21.6604 117.745 21.586 117.701C21.5116 117.657 21.4518 117.592 21.4139 117.515L19.7934 114.179C19.6811 113.949 19.5019 113.797 19.2559 113.723C18.7586 113.568 18.5206 113.173 18.5419 112.539C18.5473 112.272 18.4243 112.179 18.1729 112.259L17.7558 112.387C17.7255 112.395 17.6935 112.396 17.6629 112.39C17.6322 112.383 17.6038 112.369 17.5805 112.349C17.5572 112.329 17.5397 112.304 17.5296 112.275C17.5196 112.247 17.5173 112.216 17.5231 112.187C17.6515 111.355 17.0899 111.931 17.0498 112.459" stroke="#453840" stroke-width="2"/>
<path d="M168.239 38.9948C166.704 40.5362 164.442 40.8455 161.452 39.9228C161.136 39.8215 161.024 39.4855 161.115 38.9148" stroke="#362C36" stroke-width="2"/>
<path d="M229.577 90.8992C229.309 90.9152 229.087 90.9739 228.911 91.0752C228.718 91.1819 228.713 91.2965 228.895 91.4192L231.823 93.4432C232.112 93.6405 232.219 93.9098 232.144 94.2512C231.63 96.5472 233.163 97.3872 233.66 98.9152C234.286 100.862 234.205 102.849 233.419 104.875C233.4 104.932 233.363 104.98 233.313 105.013C233.263 105.045 233.203 105.06 233.143 105.054C233.084 105.049 233.028 105.023 232.985 104.982C232.942 104.941 232.914 104.886 232.906 104.827C232.088 99.8432 231.277 96.2752 225.445 95.5872C224.525 95.4752 224.346 95.0539 224.908 94.3232C225.469 93.5872 225.766 92.5525 225.798 91.2192C225.934 84.8192 222.212 76.7152 215.249 75.8352C213.313 75.5899 211.901 75.3792 211.013 75.2032C210.934 75.1874 210.86 75.1512 210.799 75.0983C210.738 75.0454 210.692 74.9777 210.666 74.902C210.64 74.8263 210.634 74.7455 210.65 74.6677C210.666 74.5899 210.703 74.5179 210.756 74.4592L211.936 73.1472C211.979 73.0988 212.012 73.042 212.032 72.9805C212.052 72.9189 212.06 72.8538 212.054 72.7892C212.048 72.7247 212.028 72.6621 211.997 72.6053C211.966 72.5485 211.923 72.4988 211.871 72.4592L211.398 72.0912C211.157 71.9099 210.922 71.9178 210.692 72.1152L209.248 73.3872C209.018 73.5845 208.796 73.5765 208.582 73.3632C208.047 72.8245 207.416 72.6378 206.689 72.8032C206.389 72.8672 206.154 73.0272 205.983 73.2832C204.33 75.7712 200.672 72.4432 199.1 76.8112C198.514 78.4272 197.945 78.9392 196.557 79.6832C196.509 79.7099 196.466 79.7072 196.428 79.6752C196.359 79.6165 196.297 79.5499 196.244 79.4752C196.121 79.3045 196.057 79.3259 196.051 79.5392C196.046 79.8752 196.092 80.1978 196.188 80.5072C197.487 84.5072 198.351 88.5952 198.779 92.7712C199.525 100.035 195.161 106.771 186.986 103.011C183.382 101.353 179.592 101.286 175.619 102.811" stroke="#362C36" stroke-width="2"/>
<path d="M175.62 102.811L172.13 100.443" stroke="#6E3D3C" stroke-width="2"/>
<path d="M172.129 100.443C163.818 93.4507 159.053 84.3387 155.13 74.1547" stroke="#784B45" stroke-width="2"/>
<path d="M155.13 74.1554L152.418 65.4755C152.389 65.3807 152.336 65.2953 152.264 65.2277C152.191 65.16 152.102 65.1126 152.005 65.09C151.907 65.0673 151.806 65.0703 151.709 65.0987C151.613 65.127 151.525 65.1796 151.455 65.2514C136.43 80.9314 123.241 91.8115 100.161 91.9235C95.7646 91.9475 83.2178 90.8834 80.1051 93.5474C77.8428 95.4754 76.8722 100.179 75.0511 101.531C67.1171 107.435 58.6696 113.283 55.1157 122.195" stroke="#724441" stroke-width="2"/>
<path d="M55.1161 122.195C53.9181 125.699 53.3485 129.419 53.4073 133.355C53.4127 133.803 53.3084 133.833 53.0944 133.443C50.7198 129.107 45.1043 129.731 42.0157 132.627C28.6024 145.171 43.933 169.187 60.8119 163.195C60.9246 163.158 61.0465 163.16 61.1554 163.203C61.2643 163.246 61.353 163.325 61.4055 163.427L64.3016 168.931" stroke="#784B45" stroke-width="2"/>
<path d="M64.3024 168.931C63.9815 169.059 63.7569 169.289 63.6285 169.619C63.5806 169.746 63.5703 169.884 63.5987 170.017C63.6271 170.151 63.6931 170.273 63.789 170.371C65.7624 172.411 65.5779 174.611 66.8294 176.643C71.5866 184.371 77.2022 191.971 80.1304 200.771C81.0529 203.531 79.1276 207.059 78.4457 209.747C78.3708 210.041 78.1809 210.185 77.8761 210.179C76.293 210.142 74.8089 210.409 73.4237 210.979" stroke="#362C36" stroke-width="2"/>
<path d="M238.055 131.659C237.756 132.523 237.876 133.249 238.416 133.835C238.571 134.001 238.62 134.193 238.561 134.411C238.507 134.593 238.392 134.729 238.216 134.819C237.986 134.937 237.847 135.121 237.799 135.371C237.408 137.435 237.186 139.499 237.133 141.563C237.085 143.419 236.138 144.571 234.67 145.435C234.435 145.574 234.199 145.579 233.964 145.451C231.638 144.203 229.434 144.139 227.354 145.259C225.952 146.006 224.706 145.961 223.615 145.123C223.487 145.027 223.383 145.046 223.302 145.179L223.174 145.395C223.051 145.598 222.949 145.587 222.869 145.363L222.308 143.795" stroke="#27202A" stroke-width="2"/>
<path d="M222.308 143.795C221.795 135.843 215.77 126.451 206.753 132.187C206.518 132.336 206.376 132.275 206.328 132.003C204.395 121.739 194.744 114.555 187.339 107.987C184.323 105.307 179.501 104.371 175.619 102.811" stroke="#653636" stroke-width="2"/>
<path d="M222.309 143.795C222.405 155.211 212.329 166.971 200.031 163.915C199.921 163.888 199.804 163.898 199.698 163.944C199.592 163.99 199.504 164.07 199.445 164.171C189.728 181.142 175.023 192.155 155.331 197.211C150.865 198.363 147.009 198.95 143.763 198.971" stroke="#5F3130" stroke-width="2"/>
<path d="M180.183 172.019L183.945 156.499C184.025 156.163 184.234 155.977 184.571 155.939C187.764 155.563 191.302 156.275 195.248 156.139C195.521 156.129 195.746 156.022 195.922 155.819C196.495 155.174 196.866 154.358 197.037 153.371C199.155 141.091 197.423 126.979 188.534 117.635C187.002 116.027 182.894 111.979 180.528 114.067" stroke="#A14E41" stroke-width="2"/>
<path d="M180.529 114.067C177.181 109.481 173.205 106.102 168.6 103.931" stroke="#744240" stroke-width="2"/>
<path d="M155.13 74.1549C154.99 74.0749 154.849 74.0456 154.704 74.0669C154.642 74.077 154.582 74.1015 154.531 74.1384C154.479 74.1753 154.437 74.2238 154.406 74.2801C154.376 74.3364 154.359 74.399 154.357 74.4633C154.354 74.5276 154.366 74.5917 154.391 74.6509C154.424 74.7256 154.445 74.8029 154.456 74.8829C154.472 74.9843 154.453 75.0776 154.4 75.1629C154.266 75.3602 154.129 75.4189 153.99 75.3389C153.809 75.2376 153.64 75.2509 153.485 75.3789C149.193 79.0349 144.612 83.3789 140.433 86.2669C131.293 92.5923 121.177 96.3763 110.084 97.6189C103.867 98.3149 96.3503 97.7309 89.5233 97.5389C85.7608 97.4269 82.945 98.4349 79.9848 101.123C71.5454 108.803 61.71 113.355 56.8485 123.915C56.8325 123.952 56.8057 123.971 56.7683 123.971C56.6988 123.982 56.6293 123.984 56.5597 123.979C56.3672 123.963 56.2923 123.862 56.3351 123.675C56.7469 121.936 56.3405 121.443 55.1157 122.195" stroke="#AA5B4A" stroke-width="2"/>
<path d="M117.048 199.188C115.893 201.667 113.355 203.049 109.435 203.331" stroke="#653636" stroke-width="2"/>
<path d="M109.435 203.331C108.531 203.171 106.951 203.499 104.694 204.315" stroke="#8E582A" stroke-width="2"/>
<path d="M104.693 204.315C96.2271 205.744 88.6033 209.523 81.8218 215.651" stroke="#905F31" stroke-width="2"/>
<path d="M172.13 100.443L168.6 103.931" stroke="#A75545" stroke-width="2"/>
<path d="M168.599 103.931C163.722 101.875 156.887 100.155 152.154 102.187C147.132 104.355 147.902 111.659 153.148 112.803C154.873 113.179 156.75 112.571 158.523 112.203C167.452 110.355 174.415 114.939 180.408 120.979" stroke="#7E5049" stroke-width="2"/>
<path d="M180.409 120.979C180.388 121.059 180.31 121.126 180.176 121.179C180.032 121.232 180.016 121.312 180.128 121.419L180.401 121.691C180.519 121.808 180.519 121.926 180.401 122.043C179.395 123.078 178.85 124.32 178.764 125.771C178.754 126.027 178.633 126.219 178.403 126.347L174.874 128.267" stroke="#AA5B4A" stroke-width="2"/>
<path d="M174.872 128.267C157.127 114.051 143.85 146.075 161.355 156.163C162.216 156.659 163.919 156.715 166.465 156.331" stroke="#D7B0A6" stroke-width="2"/>
<path d="M166.465 156.331C165.519 158.07 165.422 159.121 166.176 159.483C166.272 159.528 166.354 159.599 166.411 159.687C166.469 159.776 166.501 159.878 166.503 159.984C166.506 160.089 166.479 160.193 166.425 160.285C166.372 160.376 166.294 160.45 166.201 160.499C160.096 163.755 162.599 169.411 167.388 172.091C170.942 174.067 176.236 172.875 180.183 172.019" stroke="#AA5B4A" stroke-width="2"/>
<path d="M180.184 172.019C177.044 179.704 172.009 185.603 165.078 189.715C159.222 193.192 152.117 196.277 143.763 198.971" stroke="#A75545" stroke-width="2"/>
<path d="M143.762 198.971C142.698 199.584 140.685 199.856 137.722 199.787" stroke="#693F39" stroke-width="2"/>
<path d="M137.722 199.788C130.924 200.054 124.033 199.854 117.048 199.188" stroke="#A75545" stroke-width="2"/>
<path d="M117.048 199.187C95.6208 196.651 76.3272 187.307 64.3018 168.931" stroke="#6F433F" stroke-width="2"/>
<path d="M196.862 204.139C196.177 204.715 194.76 205.646 192.61 206.931C187.572 209.939 182.711 209.71 178.026 206.243C177.977 206.207 177.921 206.183 177.862 206.171C177.803 206.159 177.742 206.159 177.683 206.173C177.625 206.187 177.57 206.213 177.522 206.25C177.475 206.287 177.436 206.334 177.408 206.387C176.204 208.75 174.373 210.214 171.913 210.779" stroke="#787B86" stroke-width="2"/>
<path d="M171.913 210.779C165.025 206.608 157.288 203.928 148.705 202.739" stroke="#7D471E" stroke-width="2"/>
<path d="M148.704 202.739C144.634 203.017 142.137 202.345 141.211 200.723C141.146 200.612 141.052 200.519 140.939 200.454C140.827 200.39 140.699 200.356 140.57 200.355C139.564 200.366 138.615 200.177 137.722 199.787" stroke="#5F3130" stroke-width="2"/>
<path d="M166.466 156.331C169.445 155.937 172.097 154.758 174.424 152.795C182.149 146.259 181.925 135.355 174.873 128.267" stroke="#D1A9A2" stroke-width="2"/>
<path d="M180.528 114.067C182.154 116.078 182.991 118.323 183.039 120.803C183.043 120.978 182.999 121.15 182.913 121.302C182.827 121.454 182.702 121.581 182.551 121.668C182.399 121.756 182.227 121.801 182.051 121.799C181.876 121.798 181.705 121.749 181.555 121.659L180.408 120.979" stroke="#784945" stroke-width="2"/>
<path d="M160.031 231.211C149.393 233.702 138.464 234.787 127.244 234.467" stroke="#DFB386" stroke-width="2"/>
<path d="M127.244 234.467C126.378 234.296 126.795 233.581 128.496 232.323C128.726 232.152 128.739 231.968 128.536 231.771C123.338 226.619 118.067 222.091 112.171 216.387C108.363 212.707 105.87 208.683 104.694 204.315" stroke="#F1932B" stroke-width="2"/>
<path d="M148.704 202.739C147.527 209.454 142.757 213.563 134.392 215.067" stroke="#BB5D2A" stroke-width="2"/>
<path d="M134.392 215.067C124.524 216.531 112.499 214.291 109.435 203.331" stroke="#C66930" stroke-width="2"/>
<path d="M101.558 231.979C110.2 233.579 118.763 234.408 127.245 234.467" stroke="#E1BB8D" stroke-width="2"/>
<path d="M171.912 210.779C176.26 214.08 179.106 218.16 180.448 223.019C180.71 223.974 180.378 224.632 179.453 224.995C173.153 227.427 166.679 229.499 160.031 231.211" stroke="#D4A780" stroke-width="2"/>
<path d="M160.031 231.211C154.159 222.907 146.158 217.984 136.029 216.443C135.745 216.4 135.579 216.238 135.531 215.955C135.424 215.363 135.045 215.067 134.392 215.067" stroke="#E47F1E" stroke-width="2"/>
<path d="M73.9524 121.491C74.1466 121.57 74.3587 121.596 74.5663 121.565C74.7739 121.534 74.9693 121.447 75.1316 121.315C82.48 115.259 89.3712 110.227 99.5434 112.283C104.164 113.211 110.366 111.923 108.793 105.563C107.654 100.979 101.3 100.819 97.209 101.307C88.3791 102.368 81.3034 106.416 75.982 113.451C74.9872 114.763 71.3932 120.427 73.9524 121.491Z" stroke="#7E5049" stroke-width="2"/>
<path d="M84.4292 152.65C88.2799 155.962 94.5453 157.539 99.0217 155.011C109.122 149.307 107.509 127.739 95.7487 125.019C87.6301 123.139 80.4181 129.019 78.8938 136.771C77.6477 143.101 79.4928 148.394 84.4292 152.65Z" stroke="#D7B0A6" stroke-width="2"/>
<path d="M46.917 155.059C48.8905 156.755 54.4259 159.139 55.7576 155.747C57.0652 152.403 53.3429 142.691 51.8187 139.395C49.5644 134.539 45.1762 133.787 42.9059 139.115C40.3067 145.211 41.6437 150.526 46.917 155.059Z" stroke="#A75545" stroke-width="2"/>
<path d="M130.414 159.211C129.863 159.142 129.336 159.342 128.833 159.811C128.619 160.008 128.371 160.067 128.087 159.987L127.085 159.691C126.923 159.644 126.752 159.633 126.586 159.66C126.419 159.687 126.261 159.75 126.122 159.845C125.984 159.94 125.869 160.065 125.785 160.21C125.702 160.355 125.653 160.516 125.64 160.683C125.576 161.558 125.758 162.307 126.186 162.931" stroke="#BF6E4E" stroke-width="2"/>
<path d="M126.185 162.931C125.763 163.507 125.792 164.099 126.274 164.707C126.413 164.887 126.614 165.004 126.835 165.035C131.189 165.627 134.106 164.115 135.588 160.499C137.441 155.987 134.986 152.875 131.753 150.123C131.683 150.064 131.594 150.032 131.502 150.036C131.411 150.04 131.324 150.078 131.26 150.143C131.196 150.208 131.158 150.296 131.156 150.387C131.154 150.478 131.187 150.567 131.247 150.635C133.665 153.515 133.387 156.374 130.413 159.211" stroke="#AA5B4A" stroke-width="2"/>
<path d="M126.186 162.931L130.414 159.211" stroke="#B9674A" stroke-width="2"/>
<path d="M73.23 171.819C78.4445 175.755 84.1884 176.374 90.4618 173.675C93.1894 172.507 95.9651 169.643 95.1388 166.435C93.9275 161.723 86.8598 158.171 82.3192 157.147C77.5058 156.059 73.5963 157.174 70.5906 160.491C67.5341 163.875 70.1815 169.523 73.23 171.819Z" stroke="#AA5B4A" stroke-width="2"/>
<path d="M112.692 170.331C111.782 170.587 111.165 171.051 110.838 171.723C110.715 171.979 110.721 172.233 110.854 172.483C117.521 185.011 141.772 185.355 149.137 173.339C149.787 172.275 149.289 171.699 148.407 171.091" stroke="#623B34" stroke-width="2"/>
<path d="M148.408 171.091C147.905 170.12 147.073 169.19 145.913 168.299C145.688 168.123 145.442 168.078 145.175 168.163C134.623 171.448 123.795 172.171 112.692 170.331" stroke="#D7B0A6" stroke-width="2"/>
<path d="M148.408 171.091C141.631 177.225 133.502 179.451 124.02 177.771C118.896 176.87 115.12 174.39 112.692 170.331" stroke="#89898C" stroke-width="2"/>
<path d="M93.6631 155.896C95.0134 155.993 96.3756 155.739 97.6719 155.149C98.9682 154.56 100.173 153.646 101.218 152.459C102.263 151.273 103.128 149.838 103.762 148.236C104.397 146.634 104.789 144.896 104.916 143.122C105.174 139.539 104.338 136.026 102.591 133.354C100.845 130.683 98.3323 129.073 95.6053 128.878C94.255 128.781 92.8928 129.035 91.5965 129.625C90.3002 130.215 89.0951 131.129 88.0502 132.315C87.0052 133.501 86.1408 134.936 85.5062 136.538C84.8717 138.14 84.4795 139.878 84.3519 141.652C84.0944 145.235 84.9307 148.749 86.6769 151.42C88.4231 154.091 90.9361 155.702 93.6631 155.896Z" stroke="#838385" stroke-width="2"/>
<path d="M165.116 156.014C166.484 155.926 167.816 155.487 169.035 154.723C170.254 153.959 171.338 152.884 172.223 151.56C173.108 150.236 173.778 148.688 174.195 147.006C174.611 145.324 174.766 143.54 174.65 141.755C174.417 138.152 173.095 134.766 170.977 132.344C168.858 129.922 166.116 128.661 163.354 128.839C161.986 128.927 160.655 129.366 159.435 130.131C158.216 130.895 157.133 131.97 156.247 133.294C155.362 134.618 154.692 136.165 154.276 137.848C153.859 139.53 153.704 141.314 153.82 143.099C154.054 146.702 155.375 150.087 157.494 152.51C159.612 154.932 162.354 156.193 165.116 156.014Z" stroke="#838385" stroke-width="2"/>
<path d="M96.6042 139.504C96.6037 139.202 96.4832 138.914 96.2692 138.701C96.0552 138.488 95.7653 138.369 95.4631 138.37L94.0512 138.372C93.9016 138.372 93.7535 138.402 93.6154 138.459C93.4773 138.516 93.3519 138.6 93.2463 138.706C93.1407 138.812 93.057 138.937 93 139.075C92.943 139.213 92.9138 139.361 92.9141 139.51L92.9212 143.59C92.9217 143.891 93.0423 144.18 93.2563 144.393C93.4702 144.605 93.7602 144.724 94.0623 144.724L95.4742 144.722C95.6238 144.721 95.7719 144.692 95.91 144.634C96.0481 144.577 96.1735 144.493 96.2791 144.387C96.3847 144.282 96.4684 144.156 96.5254 144.018C96.5824 143.881 96.6116 143.733 96.6114 143.584L96.6042 139.504Z" stroke="#838385" stroke-width="2"/>
<path d="M166.433 140.031C166.438 139.596 166.269 139.177 165.964 138.867C165.658 138.556 165.242 138.379 164.806 138.374L164.228 138.368C164.012 138.366 163.798 138.406 163.598 138.486C163.397 138.567 163.215 138.685 163.06 138.836C162.906 138.987 162.783 139.166 162.698 139.365C162.614 139.563 162.569 139.775 162.567 139.991L162.534 143.063C162.53 143.498 162.699 143.916 163.004 144.227C163.309 144.538 163.725 144.715 164.162 144.72L164.739 144.726C164.955 144.728 165.169 144.688 165.37 144.608C165.57 144.527 165.753 144.408 165.907 144.258C166.061 144.107 166.184 143.927 166.269 143.729C166.354 143.531 166.399 143.318 166.401 143.103L166.433 140.031Z" stroke="#838385" stroke-width="2"/>
<path d="M166.377 35.419L161.114 38.915C160.488 39.379 159.833 39.6563 159.149 39.747C158.876 39.7843 158.649 39.9096 158.467 40.123C157.911 40.7843 157.194 41.0643 156.317 40.963C156.192 40.9481 156.065 40.962 155.947 41.0036C155.829 41.0453 155.722 41.1135 155.635 41.203L153.501 43.363C153.357 43.507 153.188 43.6216 152.996 43.707C151.471 44.3523 149.912 44.9016 148.319 45.355C145.423 46.187 143.305 47.843 140.537 48.987C139.045 49.595 138.363 50.731 136.855 51.459C133.79 52.931 132.298 54.131 130.333 56.595C130.243 56.7073 130.122 56.7896 129.984 56.8311C129.846 56.8725 129.699 56.8711 129.563 56.827C128.568 56.4963 127.755 56.667 127.124 57.339C126.921 57.5523 126.672 57.659 126.378 57.659C125.035 57.659 123.629 58.211 122.158 59.315C120.89 60.259 118.232 61.571 114.184 63.251C113.954 63.347 113.713 63.3763 113.462 63.339C112.852 63.2483 112.355 63.427 111.97 63.875C111.788 64.083 111.566 64.2323 111.304 64.323C107.878 65.451 105.295 67.779 102.303 68.939C100.383 69.6803 98.4495 70.3763 96.5027 71.027C93.128 72.1576 90.839 73.171 89.6356 74.067C88.2077 75.123 86.8519 75.6137 85.5684 75.539C85.3009 75.523 85.0763 75.6163 84.8945 75.819C81.0839 80.107 75.0592 80.675 70.5827 84.019C69.596 84.755 67.791 85.075 67.1893 85.819C67.0235 86.027 66.8229 86.1896 66.5876 86.307C62.6835 88.2696 59.1911 90.787 56.1105 93.859C55.6827 94.291 55.1559 94.6536 54.5301 94.947C51.8186 96.243 50.9602 98.875 48.2968 100.035C48.0775 100.131 47.9813 100.062 48.008 99.827C48.0241 99.667 50.2783 97.715 50.6634 96.907C50.7543 96.7096 50.8934 96.5576 51.0806 96.451L52.4845 95.675C52.9658 95.4083 52.9337 95.2483 52.3882 95.195C50.888 95.051 49.8291 94.907 48.5616 95.923C45.0318 98.7336 41.5314 101.574 38.0604 104.443C37.3277 105.046 35.635 105.622 32.9823 106.171C32.7202 106.23 32.4956 106.358 32.3084 106.555L29.629 109.451C29.5481 109.537 29.4508 109.605 29.3432 109.652C29.2355 109.699 29.1198 109.723 29.0032 109.723C26.4896 109.744 24.8236 110.91 24.0053 113.219C23.9091 113.491 23.7379 113.704 23.4919 113.859C22.7004 114.366 22.3822 115.094 22.5373 116.043C22.5801 116.31 22.556 116.571 22.4651 116.827C22.3688 117.083 22.2886 117.299 22.2244 117.475C22.1944 117.556 22.1412 117.626 22.0716 117.677C22.0019 117.728 21.9188 117.757 21.8325 117.761C21.7462 117.766 21.6606 117.745 21.5862 117.701C21.5119 117.657 21.452 117.592 21.4141 117.515L19.7936 114.179C19.6813 113.95 19.5022 113.798 19.2562 113.723C18.7588 113.568 18.5208 113.174 18.5422 112.539C18.5475 112.272 18.4245 112.179 18.1731 112.259L17.756 112.387C17.7257 112.396 17.6938 112.397 17.6631 112.39C17.6324 112.383 17.6041 112.369 17.5807 112.349C17.5574 112.329 17.5399 112.304 17.5298 112.275C17.5198 112.247 17.5176 112.217 17.5233 112.187C17.6517 111.355 17.0901 111.931 17.05 112.459C16.2104 106.203 18.4432 101.912 23.7486 99.587C24.0374 99.459 24.1257 99.2483 24.0134 98.955C23.7326 98.203 22.8983 97.411 22.6576 96.763C19.8765 89.4616 22.2806 84.7683 29.8696 82.683C30.1424 82.6083 30.2146 82.443 30.0862 82.187C24.0053 70.347 31.2735 64.475 42.0073 62.995C42.0974 62.9822 42.1832 62.9481 42.2573 62.8955C42.3314 62.8429 42.3915 62.7735 42.4326 62.6932C42.4736 62.6129 42.4943 62.5242 42.4929 62.4346C42.4915 62.345 42.468 62.2573 42.4245 62.179C39.9777 57.699 37.4667 52.923 40.8361 48.235C46.4036 40.475 61.2287 37.219 70.0934 37.603C70.3715 37.6136 70.5453 37.483 70.6148 37.211C73.3103 26.859 85.9454 16.099 95.4999 26.387C95.778 26.6857 95.9652 26.635 96.0615 26.235C97.2648 21.307 104.004 17.531 108.384 16.571C115.716 14.971 122.209 16.7336 127.862 21.859C128.06 22.0403 128.268 22.0563 128.488 21.907C141.853 12.875 159.325 23.443 166.377 35.419Z" fill="#4B3D44"/>
<path d="M166.378 35.4187L168.239 38.9947C166.704 40.5361 164.442 40.8454 161.452 39.9227C161.136 39.8214 161.024 39.4854 161.115 38.9147L166.378 35.4187Z" fill="#2D242F"/>
<path d="M229.576 90.8985C229.309 90.9145 229.087 90.9732 228.911 91.0746C228.718 91.1812 228.713 91.2959 228.895 91.4186L231.823 93.4426C232.111 93.6399 232.218 93.9092 232.144 94.2505C231.63 96.5465 233.162 97.3866 233.66 98.9146C234.285 100.861 234.205 102.848 233.419 104.875C233.4 104.931 233.363 104.98 233.312 105.012C233.262 105.045 233.203 105.059 233.143 105.054C233.084 105.048 233.028 105.023 232.985 104.981C232.942 104.94 232.914 104.886 232.906 104.827C232.087 99.8426 231.277 96.2746 225.445 95.5866C224.525 95.4746 224.346 95.0532 224.907 94.3226C225.469 93.5866 225.766 92.5519 225.798 91.2186C225.934 84.8186 222.212 76.7146 215.249 75.8346C213.313 75.5892 211.901 75.3785 211.013 75.2025C210.934 75.1868 210.86 75.1506 210.799 75.0977C210.738 75.0448 210.692 74.977 210.666 74.9014C210.639 74.8257 210.634 74.7449 210.65 74.667C210.666 74.5892 210.703 74.5173 210.756 74.4586L211.935 73.1465C211.979 73.0982 212.011 73.0414 212.032 72.9798C212.052 72.9183 212.059 72.8532 212.053 72.7886C212.047 72.7241 212.028 72.6615 211.997 72.6047C211.965 72.5479 211.923 72.4981 211.871 72.4586L211.398 72.0906C211.157 71.9093 210.922 71.9172 210.692 72.1146L209.248 73.3866C209.018 73.5839 208.796 73.5759 208.582 73.3626C208.047 72.8239 207.416 72.6372 206.689 72.8025C206.389 72.8666 206.154 73.0266 205.983 73.2826C204.33 75.7706 200.672 72.4426 199.1 76.8106C198.514 78.4266 197.945 78.9386 196.557 79.6826C196.509 79.7092 196.466 79.7066 196.428 79.6746C196.359 79.6159 196.297 79.5492 196.244 79.4746C196.121 79.3039 196.057 79.3253 196.051 79.5386C196.046 79.8746 196.091 80.1972 196.188 80.5066C197.487 84.5066 198.351 88.5946 198.779 92.7706C199.525 100.035 195.161 106.771 186.986 103.011C183.381 101.352 179.592 101.285 175.619 102.811L172.129 100.443C163.818 93.4506 159.053 84.3386 155.13 74.1546L152.418 65.4746C152.389 65.3798 152.336 65.2944 152.264 65.2268C152.191 65.1592 152.102 65.1117 152.005 65.0891C151.908 65.0664 151.806 65.0694 151.709 65.0978C151.613 65.1261 151.525 65.1787 151.455 65.2505C136.43 80.9305 123.241 91.8106 100.161 91.9226C95.7647 91.9466 83.2178 90.8825 80.1052 93.5465C77.8429 95.4745 76.8722 100.179 75.0512 101.531C67.1171 107.435 58.6697 113.283 55.1158 122.195C53.9178 125.699 53.3482 129.419 53.407 133.355C53.4124 133.803 53.3081 133.832 53.0942 133.443C50.7196 129.107 45.104 129.731 42.0154 132.627C28.6021 145.171 43.9327 169.187 60.8116 163.195C60.9244 163.157 61.0462 163.16 61.1551 163.202C61.264 163.245 61.3528 163.324 61.4053 163.427L64.3013 168.931C63.9804 169.059 63.7558 169.288 63.6274 169.619C63.5795 169.745 63.5692 169.883 63.5976 170.017C63.626 170.15 63.692 170.273 63.7879 170.371C65.7614 172.411 65.5769 174.611 66.8283 176.643C71.5855 184.371 77.2011 191.971 80.1293 200.771C81.0518 203.531 79.1265 207.059 78.4446 209.747C78.3697 210.04 78.1799 210.184 77.875 210.179C76.2919 210.141 74.8078 210.408 73.4226 210.979C66.3711 210.019 59.4077 200.851 56.8165 194.515C56.7042 194.237 56.5143 194.171 56.2469 194.315C46.9892 199.387 38.6701 192.227 40.8281 182.195C40.8403 182.14 40.8392 182.084 40.8247 182.03C40.8102 181.976 40.7829 181.927 40.745 181.886C40.7071 181.845 40.6599 181.814 40.6073 181.795C40.5547 181.776 40.4983 181.771 40.443 181.779C30.6398 182.987 24.9921 175.947 27.8079 166.339C27.8828 166.072 27.8026 165.869 27.5673 165.731C22.2645 162.643 21.0291 156.723 22.9705 151.123C23.0561 150.883 22.9839 150.704 22.7539 150.587C11.29 144.707 16.8174 132.723 22.9785 125.235C23.0548 125.141 23.0952 125.024 23.0922 124.904C23.0893 124.783 23.0433 124.668 22.9625 124.579C19.7375 121 17.7667 116.96 17.0501 112.459C17.0902 111.931 17.6517 111.355 17.5234 112.187C17.5176 112.216 17.5198 112.247 17.5299 112.275C17.5399 112.303 17.5574 112.329 17.5808 112.349C17.6041 112.369 17.6324 112.383 17.6631 112.39C17.6938 112.396 17.7258 112.395 17.756 112.387L18.1732 112.259C18.4245 112.179 18.5475 112.272 18.5422 112.539C18.5208 113.173 18.7588 113.568 19.2562 113.723C19.5022 113.797 19.6814 113.949 19.7937 114.179L21.4142 117.515C21.4521 117.592 21.5119 117.657 21.5863 117.7C21.6606 117.744 21.7463 117.765 21.8325 117.761C21.9188 117.757 22.0019 117.727 22.0716 117.676C22.1413 117.626 22.1944 117.555 22.2244 117.475C22.2886 117.299 22.3688 117.083 22.4651 116.827C22.556 116.571 22.5801 116.309 22.5373 116.043C22.3822 115.093 22.7004 114.365 23.4919 113.859C23.738 113.704 23.9091 113.491 24.0054 113.219C24.8236 110.909 26.4896 109.744 29.0033 109.723C29.1199 109.723 29.2356 109.699 29.3432 109.652C29.4508 109.605 29.5481 109.536 29.629 109.451L32.3084 106.555C32.4956 106.357 32.7202 106.229 32.9823 106.171C35.635 105.621 37.3277 105.045 38.0604 104.443C41.5314 101.573 45.0318 98.7332 48.5616 95.9226C49.8291 94.9066 50.888 95.0506 52.3882 95.1946C52.9337 95.2479 52.9658 95.4079 52.4845 95.6746L51.0806 96.4505C50.8934 96.5572 50.7543 96.7092 50.6634 96.9066C50.2784 97.7146 48.0241 99.6666 48.008 99.8266C47.9813 100.061 48.0776 100.131 48.2968 100.035C50.9602 98.8746 51.8186 96.2425 54.5302 94.9465C55.1559 94.6532 55.6827 94.2906 56.1105 93.8586C59.1911 90.7866 62.6835 88.2692 66.5877 86.3066C66.823 86.1892 67.0235 86.0266 67.1893 85.8186C67.791 85.0746 69.596 84.7546 70.5828 84.0186C75.0592 80.6746 81.0839 80.1066 84.8945 75.8186C85.0763 75.6159 85.301 75.5226 85.5684 75.5386C86.852 75.6133 88.2077 75.1226 89.6357 74.0666C90.839 73.1706 93.128 72.1572 96.5028 71.0266C98.4495 70.3759 100.383 69.6799 102.303 68.9386C105.295 67.7786 107.878 65.4506 111.304 64.3226C111.566 64.2319 111.788 64.0826 111.97 63.8746C112.355 63.4266 112.852 63.2479 113.462 63.3386C113.713 63.3759 113.954 63.3465 114.184 63.2505C118.232 61.5705 120.89 60.2586 122.158 59.3146C123.629 58.2106 125.035 57.6586 126.378 57.6586C126.672 57.6586 126.921 57.5519 127.124 57.3386C127.755 56.6666 128.568 56.4959 129.563 56.8266C129.699 56.8707 129.846 56.8721 129.984 56.8307C130.122 56.7892 130.243 56.7069 130.333 56.5946C132.298 54.1306 133.79 52.9306 136.855 51.4586C138.363 50.7306 139.045 49.5946 140.537 48.9866C143.305 47.8426 145.423 46.1865 148.319 45.3545C149.912 44.9012 151.471 44.3519 152.996 43.7066C153.188 43.6212 153.357 43.5066 153.501 43.3626L155.635 41.2025C155.722 41.1131 155.829 41.0449 155.947 41.0032C156.065 40.9616 156.192 40.9477 156.317 40.9626C157.194 41.0639 157.911 40.7839 158.467 40.1226C158.649 39.9092 158.876 39.7839 159.149 39.7465C159.833 39.6559 160.488 39.3786 161.114 38.9146C161.023 39.4852 161.136 39.8212 161.451 39.9226C164.441 40.8452 166.703 40.5359 168.238 38.9946C180.501 37.2773 190.219 41.1652 197.391 50.6586C197.468 50.7601 197.568 50.842 197.682 50.8977C197.797 50.9533 197.922 50.981 198.049 50.9786C205.162 50.8826 211.13 53.1999 215.955 57.9306C220.471 62.3546 219.845 68.0026 215.786 72.3866C215.71 72.4677 215.661 72.57 215.645 72.6798C215.629 72.7897 215.647 72.9017 215.697 73.001C215.747 73.1002 215.826 73.1819 215.923 73.2351C216.021 73.2883 216.133 73.3104 216.243 73.2985C225.998 72.3225 234.374 79.7306 229.111 89.8266C228.806 90.4132 228.961 90.7705 229.576 90.8985Z" fill="#3F333C"/>
<path d="M155.13 74.1554C154.99 74.0754 154.849 74.0461 154.704 74.0675C154.642 74.0775 154.582 74.102 154.531 74.1389C154.479 74.1759 154.437 74.2243 154.406 74.2806C154.376 74.3369 154.359 74.3996 154.357 74.4638C154.354 74.5281 154.366 74.5922 154.391 74.6514C154.424 74.7261 154.445 74.8035 154.456 74.8835C154.472 74.9848 154.453 75.0781 154.4 75.1635C154.266 75.3608 154.129 75.4195 153.99 75.3395C153.809 75.2381 153.64 75.2515 153.485 75.3795C149.193 79.0355 144.612 83.3795 140.433 86.2675C131.293 92.5928 121.177 96.3768 110.084 97.6195C103.867 98.3155 96.3503 97.7315 89.5233 97.5395C85.7608 97.4275 82.945 98.4355 79.9848 101.123C71.5454 108.803 61.71 113.355 56.8485 123.915C56.8325 123.953 56.8057 123.971 56.7683 123.971C56.6988 123.982 56.6293 123.985 56.5597 123.979C56.3672 123.963 56.2923 123.862 56.3351 123.675C56.7469 121.937 56.3405 121.443 55.1157 122.195C58.6696 113.283 67.1171 107.435 75.0511 101.531C76.8722 100.179 77.8428 95.4754 80.1051 93.5474C83.2178 90.8834 95.7646 91.9475 100.161 91.9235C123.241 91.8115 136.43 80.9314 151.455 65.2514C151.525 65.1796 151.613 65.127 151.709 65.0987C151.806 65.0703 151.907 65.0673 152.005 65.09C152.102 65.1126 152.191 65.16 152.264 65.2277C152.336 65.2953 152.389 65.3807 152.418 65.4755L155.13 74.1554Z" fill="#A45445"/>
<path d="M229.577 90.8992C235.457 93.8192 236.829 101.819 232.962 106.891C232.801 107.099 232.812 107.299 232.994 107.491C237.583 112.235 236.468 118.499 232.946 123.507C232.785 123.731 232.783 123.955 232.938 124.179L238.056 131.659C237.757 132.523 237.877 133.249 238.417 133.835C238.572 134.001 238.62 134.193 238.561 134.411C238.508 134.593 238.393 134.729 238.217 134.819C237.987 134.937 237.847 135.121 237.799 135.371C237.409 137.435 237.187 139.499 237.134 141.563C237.085 143.419 236.139 144.571 234.671 145.435C234.435 145.574 234.2 145.579 233.965 145.451C231.638 144.203 229.435 144.139 227.354 145.259C225.953 146.006 224.707 145.961 223.616 145.123C223.488 145.027 223.383 145.046 223.303 145.179L223.175 145.395C223.052 145.598 222.95 145.587 222.87 145.363L222.308 143.795C221.795 135.843 215.77 126.451 206.753 132.187C206.518 132.337 206.376 132.275 206.328 132.003C204.395 121.739 194.744 114.555 187.339 107.987C184.323 105.307 179.501 104.371 175.619 102.811C179.592 101.286 183.382 101.353 186.986 103.011C195.161 106.771 199.525 100.035 198.779 92.7712C198.351 88.5952 197.487 84.5072 196.188 80.5072C196.092 80.1978 196.046 79.8752 196.051 79.5392C196.057 79.3259 196.121 79.3045 196.244 79.4752C196.297 79.5499 196.359 79.6165 196.428 79.6752C196.466 79.7072 196.509 79.7099 196.557 79.6832C197.945 78.9392 198.514 78.4272 199.1 76.8112C200.672 72.4432 204.33 75.7712 205.983 73.2832C206.154 73.0272 206.389 72.8672 206.689 72.8032C207.416 72.6378 208.047 72.8245 208.582 73.3632C208.796 73.5765 209.018 73.5845 209.248 73.3872L210.692 72.1152C210.922 71.9178 211.157 71.9099 211.398 72.0912L211.871 72.4592C211.923 72.4988 211.966 72.5485 211.997 72.6053C212.028 72.6621 212.048 72.7247 212.054 72.7892C212.06 72.8538 212.052 72.9189 212.032 72.9805C212.012 73.042 211.979 73.0988 211.936 73.1472L210.756 74.4592C210.703 74.5179 210.666 74.5899 210.65 74.6677C210.634 74.7455 210.64 74.8263 210.666 74.902C210.692 74.9777 210.738 75.0454 210.799 75.0983C210.86 75.1512 210.934 75.1874 211.013 75.2032C211.901 75.3792 213.313 75.5899 215.249 75.8352C222.212 76.7152 225.934 84.8192 225.798 91.2192C225.766 92.5525 225.469 93.5872 224.908 94.3232C224.346 95.0539 224.525 95.4752 225.445 95.5872C231.277 96.2752 232.088 99.8432 232.906 104.827C232.914 104.886 232.942 104.941 232.985 104.982C233.028 105.023 233.084 105.049 233.143 105.054C233.203 105.06 233.263 105.045 233.313 105.013C233.363 104.98 233.4 104.932 233.419 104.875C234.205 102.849 234.286 100.862 233.66 98.9152C233.162 97.3872 231.63 96.5472 232.144 94.2512C232.219 93.9098 232.112 93.6405 231.823 93.4432L228.895 91.4192C228.713 91.2965 228.718 91.1819 228.911 91.0752C229.087 90.9739 229.309 90.9152 229.577 90.8992Z" fill="#2D242F"/>
<path d="M155.13 74.1549C159.053 84.3389 163.818 93.4509 172.129 100.443L168.599 103.931C163.722 101.875 156.887 100.155 152.154 102.187C147.132 104.355 147.902 111.659 153.148 112.803C154.873 113.179 156.75 112.571 158.523 112.203C167.452 110.355 174.415 114.939 180.408 120.979C180.387 121.059 180.309 121.126 180.175 121.179C180.031 121.232 180.015 121.312 180.127 121.419L180.4 121.691C180.518 121.808 180.518 121.926 180.4 122.043C179.395 123.078 178.849 124.32 178.764 125.771C178.753 126.027 178.633 126.219 178.403 126.347L174.873 128.267C157.127 114.051 143.851 146.075 161.355 156.163C162.216 156.659 163.92 156.715 166.465 156.331C165.519 158.07 165.422 159.12 166.177 159.483C166.272 159.528 166.354 159.598 166.411 159.687C166.469 159.775 166.501 159.878 166.504 159.984C166.506 160.089 166.479 160.193 166.426 160.284C166.372 160.375 166.294 160.45 166.201 160.499C160.096 163.755 162.599 169.411 167.388 172.091C170.942 174.067 176.237 172.875 180.183 172.019C177.044 179.704 172.009 185.603 165.077 189.715C159.221 193.192 152.116 196.278 143.762 198.971C142.698 199.584 140.684 199.856 137.722 199.787C130.924 200.054 124.033 199.854 117.048 199.187C95.6206 196.651 76.327 187.307 64.3016 168.931L61.4055 163.427C61.353 163.325 61.2643 163.245 61.1554 163.203C61.0465 163.16 60.9246 163.157 60.8119 163.195C43.933 169.187 28.6024 145.171 42.0157 132.627C45.1043 129.731 50.7198 129.107 53.0944 133.443C53.3084 133.832 53.4127 133.803 53.4073 133.355C53.3485 129.419 53.9181 125.699 55.1161 122.195C56.3408 121.443 56.7473 121.936 56.3354 123.675C56.2927 123.862 56.3675 123.963 56.5601 123.979C56.6296 123.984 56.6991 123.982 56.7687 123.971C56.8061 123.971 56.8328 123.952 56.8489 123.915C61.7104 113.355 71.5457 108.803 79.9851 101.123C82.9454 98.4349 85.7612 97.4269 89.5236 97.5389C96.3506 97.7309 103.867 98.3149 110.085 97.6189C121.177 96.3763 131.293 92.5923 140.433 86.2669C144.613 83.3789 149.193 79.0349 153.485 75.3789C153.64 75.2509 153.809 75.2376 153.991 75.3389C154.13 75.4189 154.266 75.3602 154.4 75.1629C154.453 75.0776 154.472 74.9843 154.456 74.8829C154.445 74.8029 154.424 74.7256 154.392 74.6509C154.366 74.5917 154.354 74.5276 154.357 74.4633C154.36 74.399 154.377 74.3364 154.407 74.2801C154.437 74.2238 154.479 74.1753 154.531 74.1384C154.583 74.1015 154.642 74.077 154.705 74.0669C154.849 74.0456 154.991 74.0749 155.13 74.1549ZM73.9524 121.491C74.1466 121.57 74.3587 121.596 74.5664 121.565C74.774 121.534 74.9693 121.448 75.1317 121.315C82.4801 115.259 89.3712 110.227 99.5435 112.283C104.164 113.211 110.366 111.923 108.793 105.563C107.654 100.979 101.3 100.819 97.209 101.307C88.3791 102.368 81.3035 106.416 75.982 113.451C74.9873 114.763 71.3933 120.427 73.9524 121.491ZM84.4295 152.651C88.2802 155.963 94.5456 157.539 99.022 155.011C109.122 149.307 107.51 127.739 95.7489 125.019C87.6304 123.139 80.4183 129.019 78.8941 136.771C77.648 143.102 79.4931 148.395 84.4295 152.651ZM46.9173 155.059C48.8908 156.755 54.4261 159.139 55.7578 155.747C57.0655 152.403 53.3431 142.691 51.8189 139.395C49.5646 134.539 45.1765 133.787 42.9061 139.115C40.3069 145.211 41.644 150.526 46.9173 155.059ZM130.413 159.211C129.862 159.142 129.336 159.342 128.833 159.811C128.619 160.008 128.37 160.067 128.087 159.987L127.084 159.691C126.922 159.644 126.752 159.633 126.585 159.66C126.419 159.686 126.26 159.75 126.122 159.845C125.983 159.94 125.868 160.064 125.785 160.209C125.702 160.355 125.652 160.516 125.64 160.683C125.576 161.558 125.758 162.307 126.185 162.931C125.763 163.507 125.792 164.099 126.274 164.707C126.413 164.886 126.614 165.004 126.835 165.035C131.189 165.627 134.106 164.115 135.588 160.499C137.441 155.987 134.986 152.875 131.753 150.123C131.684 150.063 131.594 150.032 131.502 150.036C131.411 150.04 131.324 150.078 131.26 150.143C131.196 150.208 131.159 150.295 131.156 150.386C131.154 150.478 131.187 150.567 131.248 150.635C133.665 153.515 133.387 156.374 130.413 159.211ZM73.2304 171.819C78.4449 175.755 84.1888 176.374 90.4622 173.675C93.1898 172.507 95.9655 169.643 95.1392 166.435C93.9279 161.723 86.8602 158.171 82.3196 157.147C77.5063 156.059 73.5967 157.174 70.591 160.491C67.5346 163.875 70.1819 169.523 73.2304 171.819ZM112.692 170.331C111.783 170.587 111.165 171.051 110.839 171.723C110.716 171.979 110.721 172.232 110.855 172.483C117.521 185.011 141.773 185.355 149.137 173.339C149.787 172.275 149.29 171.699 148.407 171.091C147.904 170.12 147.073 169.19 145.912 168.299C145.688 168.123 145.442 168.078 145.174 168.163C134.622 171.448 123.795 172.171 112.692 170.331Z" fill="#B0624E"/>
<path d="M172.129 100.443L175.619 102.811C179.502 104.371 184.323 105.307 187.34 107.987C194.744 114.555 204.395 121.739 206.328 132.003C206.377 132.275 206.518 132.336 206.754 132.187C215.771 126.451 221.795 135.843 222.309 143.795C222.405 155.211 212.329 166.971 200.031 163.915C199.921 163.887 199.804 163.897 199.698 163.944C199.592 163.99 199.504 164.07 199.445 164.171C189.728 181.142 175.023 192.155 155.331 197.211C150.865 198.363 147.009 198.95 143.763 198.971C152.117 196.278 159.222 193.192 165.078 189.715C172.009 185.603 177.044 179.704 180.184 172.019L183.946 156.499C184.027 156.163 184.235 155.976 184.572 155.939C187.765 155.563 191.303 156.275 195.25 156.139C195.522 156.128 195.747 156.022 195.924 155.819C196.496 155.174 196.868 154.358 197.039 153.371C199.157 141.091 197.424 126.979 188.535 117.635C187.003 116.027 182.895 111.979 180.529 114.067C177.181 109.48 173.204 106.102 168.6 103.931L172.129 100.443Z" fill="#9D473C"/>
<path d="M73.9524 121.491C71.3932 120.427 74.9872 114.763 75.982 113.451C81.3034 106.416 88.3791 102.368 97.209 101.307C101.3 100.819 107.654 100.979 108.793 105.563C110.366 111.923 104.164 113.211 99.5434 112.283C89.3712 110.227 82.48 115.259 75.1316 121.315C74.9693 121.447 74.7739 121.534 74.5663 121.565C74.3587 121.596 74.1466 121.57 73.9524 121.491Z" fill="#4B3D44"/>
<path d="M168.599 103.931C173.204 106.101 177.18 109.48 180.528 114.067C182.154 116.077 182.991 118.323 183.039 120.803C183.043 120.977 183 121.15 182.914 121.302C182.828 121.454 182.703 121.581 182.551 121.668C182.399 121.755 182.227 121.801 182.052 121.799C181.877 121.797 181.705 121.749 181.555 121.659L180.408 120.979C174.415 114.939 167.452 110.355 158.523 112.203C156.75 112.571 154.873 113.179 153.148 112.803C147.902 111.659 147.132 104.355 152.154 102.187C156.887 100.155 163.722 101.875 168.599 103.931Z" fill="#4B3D44"/>
<path d="M180.183 172.019C176.236 172.875 170.942 174.067 167.388 172.091C162.599 169.411 160.096 163.755 166.201 160.499C166.294 160.45 166.372 160.376 166.425 160.284C166.479 160.193 166.506 160.089 166.503 159.984C166.501 159.878 166.469 159.776 166.411 159.687C166.354 159.599 166.272 159.528 166.176 159.483C165.422 159.121 165.519 158.07 166.465 156.331C169.444 155.937 172.097 154.758 174.423 152.795C182.149 146.259 181.924 135.355 174.873 128.267L178.402 126.347C178.632 126.219 178.753 126.027 178.763 125.771C178.849 124.321 179.395 123.078 180.4 122.043C180.518 121.926 180.518 121.809 180.4 121.691L180.127 121.419C180.015 121.313 180.031 121.233 180.175 121.179C180.309 121.126 180.387 121.059 180.408 120.979L181.555 121.659C181.705 121.749 181.877 121.798 182.052 121.8C182.227 121.801 182.399 121.756 182.551 121.668C182.702 121.581 182.828 121.455 182.914 121.302C183 121.15 183.043 120.978 183.039 120.803C182.991 118.323 182.154 116.078 180.528 114.067C182.895 111.979 187.002 116.027 188.535 117.635C197.423 126.979 199.156 141.091 197.038 153.371C196.867 154.358 196.495 155.174 195.923 155.819C195.747 156.022 195.522 156.129 195.249 156.139C191.302 156.275 187.764 155.563 184.572 155.939C184.235 155.977 184.026 156.163 183.946 156.499L180.183 172.019Z" fill="#A45445"/>
<path d="M84.4292 152.65C79.4928 148.394 77.6477 143.101 78.8938 136.771C80.4181 129.019 87.6301 123.139 95.7487 125.019C107.509 127.739 109.122 149.307 99.0217 155.011C94.5453 157.539 88.2799 155.962 84.4292 152.65ZM93.6625 155.896C95.0128 155.992 96.3749 155.739 97.6712 155.149C98.9676 154.559 100.173 153.645 101.218 152.459C102.263 151.273 103.127 149.837 103.762 148.235C104.396 146.633 104.788 144.896 104.916 143.121C105.173 139.539 104.337 136.025 102.591 133.354C100.845 130.682 98.3317 129.072 95.6047 128.877C94.2544 128.781 92.8922 129.034 91.5959 129.624C90.2996 130.214 89.0945 131.128 88.0496 132.314C87.0046 133.5 86.1402 134.936 85.5056 136.538C84.8711 138.14 84.4788 139.877 84.3513 141.652C84.0938 145.234 84.9301 148.748 86.6763 151.419C88.4224 154.091 90.9355 155.701 93.6625 155.896Z" fill="#FEFEFE"/>
<path d="M174.872 128.267C181.924 135.355 182.148 146.259 174.423 152.795C172.097 154.757 169.444 155.936 166.465 156.331C163.919 156.715 162.216 156.659 161.355 156.163C143.85 146.075 157.127 114.051 174.872 128.267ZM165.116 156.014C166.484 155.926 167.815 155.487 169.034 154.723C170.254 153.959 171.337 152.884 172.222 151.56C173.108 150.236 173.778 148.688 174.194 147.006C174.611 145.324 174.766 143.539 174.65 141.755C174.416 138.151 173.095 134.766 170.976 132.344C168.858 129.922 166.116 128.661 163.354 128.839C161.986 128.927 160.654 129.366 159.435 130.13C158.216 130.895 157.132 131.97 156.247 133.294C155.362 134.618 154.692 136.165 154.275 137.847C153.859 139.53 153.704 141.314 153.819 143.098C154.053 146.702 155.375 150.087 157.493 152.51C159.612 154.932 162.354 156.192 165.116 156.014Z" fill="#FEFEFE"/>
<path d="M93.6631 155.896C90.9361 155.702 88.4231 154.091 86.6769 151.42C84.9307 148.749 84.0944 145.235 84.3519 141.652C84.4795 139.878 84.8717 138.14 85.5062 136.538C86.1408 134.936 87.0052 133.501 88.0502 132.315C89.0951 131.129 90.3002 130.215 91.5965 129.625C92.8928 129.035 94.255 128.781 95.6053 128.878C98.3323 129.073 100.845 130.683 102.591 133.354C104.338 136.026 105.174 139.539 104.916 143.122C104.789 144.896 104.397 146.634 103.762 148.236C103.128 149.838 102.263 151.273 101.218 152.459C100.173 153.646 98.9682 154.56 97.6719 155.149C96.3756 155.739 95.0134 155.993 93.6631 155.896ZM96.604 139.504C96.6035 139.203 96.483 138.914 96.269 138.701C96.055 138.489 95.7651 138.369 95.463 138.37L94.051 138.372C93.9014 138.373 93.7534 138.402 93.6153 138.46C93.4771 138.517 93.3517 138.601 93.2461 138.706C93.1405 138.812 93.0568 138.937 92.9998 139.075C92.9428 139.213 92.9136 139.361 92.9139 139.51L92.921 143.59C92.9215 143.892 93.0421 144.18 93.2561 144.393C93.4701 144.606 93.76 144.725 94.0621 144.724L95.474 144.722C95.6236 144.722 95.7717 144.692 95.9098 144.635C96.0479 144.577 96.1734 144.493 96.2789 144.388C96.3845 144.282 96.4682 144.157 96.5252 144.019C96.5822 143.881 96.6114 143.733 96.6112 143.584L96.604 139.504Z" fill="#07080B"/>
<path d="M165.116 156.014C162.354 156.193 159.612 154.932 157.494 152.51C155.375 150.087 154.054 146.702 153.82 143.099C153.704 141.314 153.859 139.53 154.276 137.848C154.692 136.165 155.362 134.618 156.247 133.294C157.133 131.97 158.216 130.895 159.435 130.131C160.655 129.366 161.986 128.927 163.354 128.839C166.116 128.661 168.858 129.922 170.977 132.344C173.095 134.766 174.417 138.152 174.65 141.755C174.766 143.54 174.611 145.324 174.195 147.006C173.778 148.688 173.108 150.236 172.223 151.56C171.338 152.884 170.254 153.959 169.035 154.723C167.816 155.487 166.484 155.926 165.116 156.014ZM166.433 140.031C166.438 139.596 166.269 139.177 165.964 138.866C165.659 138.556 165.242 138.379 164.806 138.374L164.228 138.368C164.012 138.366 163.798 138.406 163.598 138.486C163.397 138.567 163.215 138.685 163.061 138.836C162.906 138.987 162.783 139.166 162.698 139.364C162.614 139.563 162.569 139.775 162.567 139.991L162.534 143.063C162.53 143.497 162.699 143.916 163.004 144.227C163.309 144.538 163.726 144.715 164.162 144.72L164.739 144.726C164.955 144.728 165.17 144.688 165.37 144.607C165.57 144.527 165.753 144.408 165.907 144.258C166.062 144.107 166.185 143.927 166.269 143.729C166.354 143.531 166.399 143.318 166.401 143.103L166.433 140.031Z" fill="#07080B"/>
<path d="M238.056 131.659C241.666 138.102 240.664 143.19 235.048 146.923C234.813 147.078 234.754 147.283 234.872 147.539C237.094 152.251 236.364 159.867 230.876 162.227C230.773 162.274 230.69 162.355 230.643 162.457C230.595 162.559 230.587 162.673 230.62 162.779C232.834 170.275 230.933 176.067 223.087 177.795C222.809 177.859 222.688 178.03 222.726 178.307C224.475 190.291 216.308 194.995 205.566 192.611C205.448 192.585 205.325 192.601 205.218 192.659C205.112 192.716 205.03 192.81 204.989 192.923C203.459 197.105 200.75 200.843 196.862 204.139C196.177 204.715 194.76 205.646 192.61 206.931C187.572 209.939 182.711 209.71 178.026 206.243C177.977 206.208 177.921 206.183 177.862 206.171C177.803 206.159 177.742 206.16 177.684 206.173C177.625 206.187 177.57 206.213 177.522 206.25C177.475 206.287 177.436 206.334 177.408 206.387C176.205 208.75 174.373 210.214 171.913 210.779C165.024 206.609 157.288 203.929 148.704 202.739C144.634 203.017 142.137 202.345 141.211 200.723C141.146 200.612 141.052 200.519 140.939 200.454C140.827 200.39 140.699 200.356 140.57 200.355C139.564 200.366 138.615 200.177 137.722 199.787C140.685 199.857 142.698 199.585 143.762 198.971C147.009 198.95 150.865 198.363 155.331 197.211C175.023 192.155 189.727 181.142 199.445 164.171C199.503 164.07 199.592 163.99 199.698 163.944C199.804 163.898 199.92 163.888 200.031 163.915C212.329 166.971 222.405 155.211 222.309 143.795L222.87 145.363C222.95 145.587 223.052 145.598 223.175 145.395L223.303 145.179C223.384 145.046 223.488 145.027 223.616 145.123C224.707 145.961 225.953 146.006 227.355 145.259C229.435 144.139 231.639 144.203 233.965 145.451C234.2 145.579 234.436 145.574 234.671 145.435C236.139 144.571 237.086 143.419 237.134 141.563C237.187 139.499 237.409 137.435 237.8 135.371C237.848 135.121 237.987 134.937 238.217 134.819C238.393 134.729 238.508 134.593 238.562 134.411C238.621 134.193 238.572 134.001 238.417 133.835C237.877 133.249 237.757 132.523 238.056 131.659Z" fill="#211B24"/>
<path d="M46.917 155.059C41.6437 150.526 40.3067 145.211 42.9059 139.115C45.1762 133.787 49.5644 134.539 51.8187 139.395C53.3429 142.691 57.0652 152.403 55.7576 155.747C54.4259 159.139 48.8905 156.755 46.917 155.059Z" fill="#9D473C"/>
<path d="M95.4622 138.37L94.0503 138.372C93.4212 138.373 92.912 138.883 92.9131 139.51L92.9203 143.59C92.9214 144.218 93.4323 144.725 94.0614 144.724L95.4733 144.722C96.1025 144.721 96.6116 144.211 96.6105 143.584L96.6034 139.504C96.6023 138.876 96.0914 138.369 95.4622 138.37Z" fill="#FEFEFE"/>
<path d="M164.807 138.374L164.229 138.368C163.321 138.359 162.577 139.085 162.567 139.991L162.535 143.063C162.525 143.968 163.254 144.71 164.162 144.72L164.74 144.726C165.648 144.735 166.392 144.009 166.402 143.103L166.434 140.031C166.443 139.125 165.715 138.384 164.807 138.374Z" fill="#FEFEFE"/>
<path d="M126.185 162.931L130.413 159.211C133.387 156.374 133.665 153.515 131.247 150.635C131.187 150.567 131.154 150.478 131.156 150.387C131.158 150.296 131.196 150.208 131.26 150.143C131.324 150.078 131.411 150.04 131.502 150.036C131.594 150.032 131.683 150.064 131.753 150.123C134.986 152.875 137.441 155.987 135.588 160.499C134.106 164.115 131.189 165.627 126.835 165.035C126.614 165.004 126.413 164.887 126.274 164.707C125.792 164.099 125.763 163.507 126.185 162.931Z" fill="#A45445"/>
<path d="M73.23 171.819C70.1815 169.523 67.5341 163.875 70.5906 160.491C73.5963 157.174 77.5058 156.059 82.3192 157.147C86.8598 158.171 93.9275 161.723 95.1388 166.435C95.9651 169.643 93.1894 172.507 90.4618 173.675C84.1884 176.374 78.4445 175.755 73.23 171.819Z" fill="#A45445"/>
<path d="M130.414 159.211L126.186 162.931C125.758 162.307 125.576 161.558 125.64 160.683C125.653 160.516 125.702 160.355 125.785 160.21C125.869 160.065 125.984 159.94 126.122 159.845C126.261 159.75 126.419 159.687 126.586 159.66C126.752 159.633 126.923 159.644 127.085 159.691L128.087 159.987C128.371 160.067 128.619 160.008 128.833 159.811C129.336 159.342 129.863 159.142 130.414 159.211Z" fill="#CD7A4E"/>
<path d="M148.408 171.091C141.631 177.224 133.502 179.451 124.02 177.771C118.896 176.87 115.12 174.39 112.692 170.331C123.795 172.171 134.623 171.448 145.175 168.163C145.442 168.078 145.688 168.123 145.913 168.299C147.073 169.19 147.905 170.12 148.408 171.091Z" fill="#FEFEFE"/>
<path d="M64.3024 168.931C76.3278 187.307 95.6214 196.651 117.049 199.187C115.894 201.667 113.356 203.049 109.436 203.331C108.532 203.171 106.952 203.499 104.695 204.315C96.2284 205.745 88.6046 209.523 81.8231 215.651L77.9483 211.771C77.7451 211.563 77.499 211.443 77.2102 211.411L73.4237 210.979C74.8089 210.409 76.293 210.142 77.8761 210.179C78.1809 210.185 78.3708 210.041 78.4457 209.747C79.1276 207.059 81.0529 203.531 80.1304 200.771C77.2022 191.971 71.5866 184.371 66.8294 176.643C65.5779 174.611 65.7624 172.411 63.789 170.371C63.6931 170.273 63.6271 170.151 63.5987 170.017C63.5703 169.884 63.5806 169.746 63.6285 169.619C63.7569 169.289 63.9815 169.059 64.3024 168.931Z" fill="#2D242F"/>
<path d="M112.692 170.331C115.12 174.39 118.895 176.87 124.019 177.771C133.501 179.451 141.631 177.225 148.407 171.091C149.289 171.699 149.787 172.275 149.137 173.339C141.772 185.355 117.521 185.011 110.854 172.483C110.721 172.233 110.715 171.979 110.838 171.723C111.165 171.051 111.782 170.587 112.692 170.331Z" fill="#141319"/>
<path d="M117.048 199.188C124.032 199.854 130.924 200.054 137.721 199.788C138.614 200.177 139.564 200.366 140.569 200.355C140.699 200.356 140.826 200.39 140.939 200.454C141.051 200.519 141.145 200.612 141.211 200.723C142.136 202.345 144.634 203.017 148.704 202.74C147.527 209.454 142.756 213.563 134.392 215.067C124.524 216.531 112.499 214.291 109.435 203.331C113.355 203.049 115.893 201.668 117.048 199.188Z" fill="#9D473C"/>
<path d="M148.704 202.739C157.288 203.928 165.024 206.608 171.912 210.779C176.26 214.08 179.106 218.16 180.448 223.019C180.71 223.974 180.379 224.632 179.453 224.995C173.153 227.427 166.679 229.499 160.031 231.211C154.159 222.907 146.158 217.984 136.029 216.443C135.745 216.4 135.579 216.238 135.531 215.955C135.424 215.363 135.045 215.067 134.392 215.067C142.757 213.563 147.527 209.454 148.704 202.739Z" fill="#D87317"/>
<path d="M109.435 203.331C112.5 214.291 124.525 216.531 134.392 215.067C135.045 215.067 135.425 215.363 135.532 215.955C135.58 216.237 135.745 216.4 136.029 216.443C146.158 217.984 154.159 222.907 160.032 231.211C149.394 233.701 138.465 234.787 127.244 234.467C126.378 234.296 126.795 233.581 128.496 232.323C128.726 232.152 128.739 231.968 128.536 231.771C123.338 226.619 118.067 222.091 112.171 216.387C108.363 212.707 105.87 208.683 104.694 204.315C106.951 203.499 108.531 203.171 109.435 203.331Z" fill="#EF8B24"/>
<path d="M104.693 204.315C105.87 208.683 108.362 212.707 112.17 216.387C118.066 222.091 123.337 226.619 128.536 231.771C128.739 231.968 128.725 232.152 128.495 232.323C126.795 233.581 126.378 234.296 127.244 234.467C118.762 234.408 110.199 233.579 101.557 231.979C95.0372 230.358 88.5766 228.515 82.1748 226.451C80.8698 226.029 79.6451 225.501 78.5006 224.867C77.8214 224.483 77.6556 223.942 78.0032 223.243L81.8218 215.651C88.6033 209.523 96.2272 205.744 104.693 204.315Z" fill="#F29A32"/>
</svg>
