<svg width="256" height="256" viewBox="0 0 256 256" fill="none" xmlns="http://www.w3.org/2000/svg">
<path d="M56.5794 50.689C46.1261 60.2196 38.0381 71.3743 32.3154 84.153" stroke="#7DA691" stroke-width="2"/>
<path d="M32.3155 84.1528C29.6541 89.7208 27.5075 95.4115 25.8755 101.225" stroke="#75A18C" stroke-width="2"/>
<path d="M25.8755 101.225C23.8329 108.281 22.5475 115.529 22.0195 122.969" stroke="#669681" stroke-width="2"/>
<path d="M22.0197 122.969C20.7717 137.342 22.3077 151.529 26.6277 165.529" stroke="#59907C" stroke-width="2"/>
<path d="M26.6279 165.529C35.7693 193.63 53.3959 214.822 79.5079 229.105C83.5826 231.334 87.5533 232.969 91.4199 234.009" stroke="#4B8971" stroke-width="2"/>
<path d="M91.4194 234.009L98.2994 236.225" stroke="#225852" stroke-width="2"/>
<path d="M98.2998 236.225C106.182 238.438 114.177 239.761 122.284 240.193" stroke="#428F77" stroke-width="2"/>
<path d="M122.284 240.193L123.948 240.265" stroke="#277362" stroke-width="2"/>
<path d="M123.948 240.265C126.033 240.713 128.222 240.75 130.516 240.377" stroke="#328476" stroke-width="2"/>
<path d="M130.516 240.377L134.1 240.145" stroke="#277362" stroke-width="2"/>
<path d="M134.1 240.145C140.489 239.622 146.622 238.667 152.5 237.281" stroke="#428F77" stroke-width="2"/>
<path d="M104.74 26.0168C86.4783 30.1875 70.4249 38.4115 56.5796 50.6888" stroke="#7DA993" stroke-width="2"/>
<path d="M234.132 136.777C235.118 114.185 229.809 93.3582 218.204 74.2969" stroke="#4D9077" stroke-width="2"/>
<path d="M218.204 74.2969C206.012 54.8169 186.012 36.9529 163.516 30.8489" stroke="#5B9783" stroke-width="2"/>
<path d="M163.515 30.8488L160.355 27.4648" stroke="#254145" stroke-width="2"/>
<path d="M160.356 27.4649C157.135 24.5902 153.671 22.0275 149.964 19.7769" stroke="#284247" stroke-width="2"/>
<path d="M149.964 19.7768C146.524 17.6435 142.809 16.3875 138.82 16.0088C138.404 15.9705 137.986 16.0574 137.619 16.2584C137.253 16.4594 136.955 16.7653 136.764 17.1368C135.596 19.4142 134.079 21.4408 132.212 23.2168" stroke="#435A57" stroke-width="2"/>
<path d="M132.212 23.2168C122.857 23.0461 113.7 23.9795 104.74 26.0168" stroke="#7FAD97" stroke-width="2"/>
<path d="M149.964 19.7767C149.831 20.422 149.607 20.8994 149.292 21.2087C149.084 21.4114 148.844 21.4647 148.572 21.3687L141.044 18.7207" stroke="#372628" stroke-width="2"/>
<path d="M141.044 18.7208C139.132 17.5128 137.404 20.8088 136.548 22.3048" stroke="#402B2C" stroke-width="2"/>
<path d="M136.548 22.3049C133.444 25.8969 130.284 29.9689 127.132 32.8729C117.364 41.8809 106.444 45.3369 93.6758 49.1689" stroke="#372628" stroke-width="2"/>
<path d="M93.6757 49.1687C81.5877 53.1047 71.0996 58.0087 62.6036 67.1687C56.4436 73.8167 54.4117 81.4167 55.2197 90.2967" stroke="#402B2C" stroke-width="2"/>
<path d="M55.2194 90.2969C55.1661 93.1929 55.9101 95.9582 57.4514 98.5929C57.7767 99.1582 57.9128 99.6782 57.8594 100.153C57.8481 100.241 57.8115 100.325 57.754 100.393C57.6965 100.461 57.6206 100.511 57.5354 100.537C57.4501 100.563 57.3592 100.565 57.2733 100.54C57.1875 100.516 57.1104 100.468 57.0514 100.401C56.0914 99.3129 54.7901 98.5742 53.1475 98.1849" stroke="#372628" stroke-width="2"/>
<path d="M53.1477 98.1848C51.1797 95.6461 50.0383 92.0461 49.7236 87.3848" stroke="#342426" stroke-width="2"/>
<path d="M49.7236 87.3848C49.969 83.6728 51.1636 79.7342 53.3076 75.5688" stroke="#878C74" stroke-width="2"/>
<path d="M53.3076 75.5688C64.9156 55.2328 83.2916 48.3128 103.556 41.2168C115.836 36.9208 124.132 32.5528 132.212 23.2168" stroke="#8E9179" stroke-width="2"/>
<path d="M141.044 18.7207C140.9 19.6167 141.676 20.4167 143.372 21.1207C143.639 21.2336 143.854 21.4423 143.972 21.7047C144.969 23.9074 144.556 25.7687 142.732 27.2887C142.54 27.454 142.321 27.5127 142.076 27.4647C138.902 26.878 137.06 25.158 136.548 22.3047" stroke="#25141C" stroke-width="2"/>
<path d="M160.355 27.465C160.211 27.7796 159.929 27.913 159.507 27.865C159.385 27.849 159.323 27.777 159.323 27.649C159.323 27.5796 159.331 27.505 159.347 27.425C159.354 27.3725 159.341 27.335 159.309 27.3188C159.277 27.3025 159.228 27.3085 159.172 27.3358C159.116 27.363 159.055 27.4098 158.999 27.4683C158.944 27.5268 158.897 27.5934 158.867 27.657C158.67 28.0943 158.491 28.5556 158.331 29.041C158.243 29.3 158.068 29.5205 157.835 29.665C153.835 32.113 150.595 33.801 148.699 36.409C148.075 37.2676 147.403 37.9556 146.683 38.473C141.339 42.313 136.358 46.577 131.739 51.265C131.649 51.3556 131.499 51.417 131.291 51.449C131.035 51.481 130.814 51.5903 130.627 51.777C127.931 54.441 124.659 56.433 122.355 59.425C119.881 62.6356 117.387 65.1583 114.875 66.993C113.249 68.1823 112.105 69.2063 111.443 70.065C111.289 70.2623 111.089 70.385 110.843 70.433C108.379 70.897 104.275 74.961 102.283 76.673C101.643 77.225 100.787 77.553 100.131 78.289C99.5501 78.9503 99.0808 79.3876 98.7234 79.601C86.8514 86.737 73.7474 90.9209 61.8194 99.0809C60.2594 100.145 58.5234 100.113 56.8274 101.097C56.5949 101.231 56.3257 101.279 56.0674 101.233C54.6008 100.993 53.6275 99.977 53.1475 98.185" stroke="#190D16" stroke-width="2"/>
<path d="M55.2197 90.2967C57.5877 91.0007 58.7104 89.8514 58.5877 86.8487C58.4917 84.5527 60.8197 82.7607 62.5237 81.9607C67.0517 79.8167 70.5557 76.2887 74.1797 73.5767C76.5211 71.8327 78.145 70.2434 79.0517 68.8087C79.969 67.3634 80.8011 66.334 81.5478 65.7207C81.744 65.5563 81.9139 65.362 82.0517 65.1447C83.2757 63.1207 85.6117 61.2567 86.5077 58.9687C86.5984 58.7287 86.7477 58.5314 86.9557 58.3767C88.225 57.4487 89.2864 56.3287 90.1397 55.0167C91.2677 53.2887 95.9637 51.4807 93.6757 49.1687" stroke="#25141C" stroke-width="2"/>
<path d="M53.3074 75.5688C52.2514 76.1688 50.7154 73.5528 48.9794 73.3048C48.7181 73.2675 48.5128 73.3581 48.3634 73.5768C45.8301 77.2941 43.5528 80.2675 41.5314 82.4968C39.0674 85.2168 35.9954 85.7688 32.3154 84.1528" stroke="#C3DFB5" stroke-width="2"/>
<path d="M163.516 30.8489C166.134 35.2222 167.545 39.6542 167.748 44.1449" stroke="#4D6252" stroke-width="2"/>
<path d="M167.748 44.145L164.62 53.641" stroke="#22121A" stroke-width="2"/>
<path d="M164.619 53.6408L164.515 52.4328C164.494 52.1661 164.35 52.0408 164.083 52.0568C163.678 52.0834 163.433 51.9074 163.347 51.5288C163.294 51.2941 163.145 51.1634 162.899 51.1368C160.251 50.8888 158.923 53.6008 157.211 54.7848C156.993 54.9394 156.814 55.1341 156.675 55.3688C156.526 55.6408 156.35 55.8328 156.147 55.9448C155.998 56.0301 155.923 55.9874 155.923 55.8168V55.2728C155.923 54.9101 155.798 54.8594 155.547 55.1208C150.001 60.8381 144.609 66.6994 139.371 72.7048C137.115 75.2888 134.683 77.6728 132.307 80.1528C132.296 80.1637 132.281 80.1704 132.265 80.1719C132.249 80.1733 132.233 80.1694 132.219 80.1608C132.161 80.1181 132.099 80.0995 132.035 80.1048C131.986 80.1091 131.935 80.1229 131.888 80.1445C131.842 80.166 131.802 80.1945 131.773 80.2261C131.745 80.2577 131.73 80.2912 131.73 80.3223C131.729 80.3534 131.744 80.3807 131.771 80.4008C131.921 80.5181 131.921 80.6168 131.771 80.6968C131.68 80.7471 131.589 80.7853 131.516 80.8043C131.443 80.8234 131.391 80.8221 131.371 80.8008C131.339 80.7688 131.305 80.7314 131.267 80.6888C131.225 80.6435 131.17 80.6158 131.11 80.6101C131.05 80.6044 130.989 80.6212 130.938 80.6576C130.886 80.694 130.848 80.7479 130.827 80.8103C130.807 80.8727 130.807 80.9399 130.827 81.0008C130.95 81.4008 130.841 81.5741 130.499 81.5208C130.174 81.4728 129.934 81.5954 129.779 81.8888C129.182 83.0354 128.267 83.7661 127.035 84.0808C126.817 84.1341 126.769 84.2568 126.891 84.4488C126.929 84.5128 126.995 84.5581 127.091 84.5848C127.164 84.6018 127.228 84.6451 127.271 84.7064C127.314 84.7677 127.333 84.8427 127.324 84.917C127.315 84.9913 127.279 85.0597 127.223 85.1091C127.167 85.1585 127.094 85.1855 127.019 85.1848C122.659 85.2728 118.619 85.0248 114.419 85.8648C112.846 86.1794 111.273 86.4941 109.699 86.8088C104.915 87.7528 100.155 89.7208 95.5554 91.3128C88.0674 93.9128 77.2034 99.5608 73.3874 107.673C72.3794 109.811 71.4914 111.283 70.7234 112.089C68.0674 114.873 64.9315 115.665 61.9475 117.857C58.9395 120.07 55.6728 121.081 52.1475 120.889" stroke="#120810" stroke-width="2"/>
<path d="M52.1476 120.889C50.5743 118.217 49.7876 115.377 49.7876 112.369" stroke="#596857" stroke-width="2"/>
<path d="M49.7876 112.369L52.2676 119.529C52.4809 120.142 52.6169 120.126 52.6756 119.481C53.2036 113.753 55.9396 109.225 57.5076 104.721C57.6089 104.433 57.5609 104.172 57.3636 103.937C56.4356 102.838 55.1076 101.945 53.3796 101.257" stroke="#2F1C22" stroke-width="2"/>
<path d="M53.3797 101.257L51.4277 98.1929" stroke="#596857" stroke-width="2"/>
<path d="M51.4279 98.1928C49.6572 94.5661 49.0892 90.9634 49.7238 87.3848" stroke="#697362" stroke-width="2"/>
<path d="M218.204 74.2969C218.124 75.0275 218.3 75.6035 218.732 76.0249C218.803 76.079 218.849 76.1591 218.861 76.2476C218.873 76.3361 218.85 76.4258 218.796 76.4969C218.741 76.568 218.661 76.6146 218.573 76.6266C218.484 76.6386 218.395 76.615 218.324 76.5609L218.148 76.4489C217.998 76.3635 217.844 76.3475 217.684 76.4009C215.321 77.2489 213.35 78.6035 211.772 80.4649C209.58 83.0489 207.196 83.6329 207.14 87.7689C207.14 87.9555 207.046 88.0489 206.86 88.0489H206.54C206.491 88.0491 206.443 88.0308 206.405 87.9971C206.367 87.9635 206.341 87.9167 206.332 87.8649L206.292 87.5449C206.26 87.3262 206.142 87.2622 205.94 87.3529C205.801 87.4169 205.654 87.4649 205.5 87.4969" stroke="#75B185" stroke-width="2"/>
<path d="M205.5 87.4968C204.278 83.7208 202.153 80.3848 199.124 77.4888" stroke="#495E4E" stroke-width="2"/>
<path d="M199.124 77.4888C194.649 73.4835 189.151 71.0248 182.628 70.1128" stroke="#6B7B64" stroke-width="2"/>
<path d="M182.628 70.113C189.292 64.929 191.596 57.337 189.324 49.177" stroke="#586958" stroke-width="2"/>
<path d="M189.323 49.1768C185.462 43.0594 179.82 40.6861 172.396 42.0568" stroke="#6B7B64" stroke-width="2"/>
<path d="M172.396 42.0569L167.748 44.1449" stroke="#586958" stroke-width="2"/>
<path d="M189.324 49.1769C188.476 49.8116 188.249 50.9262 188.644 52.5209C188.684 52.6656 188.671 52.8202 188.605 52.9556C188.54 53.0909 188.427 53.1977 188.288 53.2557C188.15 53.3137 187.994 53.3191 187.852 53.2706C187.71 53.2222 187.59 53.1234 187.516 52.9929C184.78 48.5369 180.044 47.2489 174.692 45.7209C172.66 45.1449 172.028 44.0969 172.396 42.0569" stroke="#402B2C" stroke-width="2"/>
<path d="M182.628 70.1128L177.652 72.3048C177.31 72.4541 177.326 72.5421 177.7 72.5688C181.23 72.8408 185.236 73.5421 189.716 74.6728C197.31 76.5875 202.206 81.5475 204.404 89.5528" stroke="#402B2C" stroke-width="2"/>
<path d="M204.404 89.5528C204.857 91.0248 205.094 92.3208 205.116 93.4408C205.137 94.3902 204.729 95.1448 203.892 95.7048C203.694 95.8382 203.585 96.0248 203.564 96.2648C203.452 97.4222 203.617 98.5155 204.06 99.5448C204.166 99.7902 204.185 100.046 204.116 100.313C203.772 101.649 203.516 102.633 204.116 103.993C205.028 106.065 208.54 114.121 207.044 116.001C206.825 116.273 206.681 116.236 206.612 115.889C206.292 114.217 206.092 112.593 205.316 111.041C203.932 108.249 201.876 105.193 201.756 101.993C201.574 97.0755 200.764 92.7635 199.324 89.0568C195.036 78.0088 180.532 75.2328 170.212 73.8248C170.141 73.8154 170.076 73.7827 170.026 73.732C169.976 73.6813 169.945 73.6155 169.936 73.5448C169.928 73.4742 169.943 73.4028 169.98 73.342C170.017 73.2811 170.073 73.2343 170.14 73.2088C176.305 70.8195 180.236 66.6515 181.932 60.7048" stroke="#1E0F16" stroke-width="2"/>
<path d="M181.932 60.705L185.852 59.577C186.046 59.5215 186.223 59.4161 186.363 59.2714C186.503 59.1268 186.603 58.948 186.652 58.753C188.388 51.929 181.9 47.985 176.308 47.257C172.574 46.7716 169.516 48.449 167.132 52.289" stroke="#3A2328" stroke-width="2"/>
<path d="M167.132 52.2888L164.62 53.6408" stroke="#1E0F16" stroke-width="2"/>
<path d="M181.932 60.7049C181.34 51.1449 174.724 50.1369 167.132 52.2889" stroke="#2B191E" stroke-width="2"/>
<path d="M204.404 89.5528C204.158 85.3448 202.422 81.6968 199.196 78.6088C198.812 78.2408 198.828 77.8968 199.124 77.4888" stroke="#302122" stroke-width="2"/>
<path d="M205.5 87.4968C206.502 92.4835 206.26 97.4648 204.772 102.441C204.735 102.564 204.727 102.696 204.751 102.823C204.775 102.951 204.828 103.072 204.908 103.177C213.18 114.345 205.892 123.913 200.716 134.065" stroke="#3B5742" stroke-width="2"/>
<path d="M200.716 134.065C199.292 133.67 197.684 133.766 195.892 134.353" stroke="#857657" stroke-width="2"/>
<path d="M195.892 134.353C192.478 136.732 189.83 140.001 187.948 144.161C187.702 144.71 187.604 144.684 187.652 144.081C188.908 129.289 186.812 111.121 174.972 100.993C159.444 87.7209 132.244 86.1849 113.14 89.1209" stroke="#855633" stroke-width="2"/>
<path d="M113.14 89.1206C95.9476 91.5446 77.8996 100.777 73.1636 118.473C70.7743 127.395 69.6703 136.246 69.8516 145.025C69.8623 145.627 69.7823 145.641 69.6116 145.065C68.3103 140.793 65.9796 137.449 62.6196 135.033" stroke="#855C3A" stroke-width="2"/>
<path d="M62.6194 135.033C61.1101 133.86 59.2861 133.55 57.1475 134.105" stroke="#857657" stroke-width="2"/>
<path d="M57.1476 134.105C56.7956 131.273 55.9128 128.796 54.4995 126.673" stroke="#495E4E" stroke-width="2"/>
<path d="M54.4994 126.673L52.1475 120.889" stroke="#556453" stroke-width="2"/>
<path d="M51.4275 98.1927C49.8382 97.9581 48.9609 96.4487 48.7955 93.6647C48.7635 93.1581 48.6782 93.1554 48.5395 93.6567C48.4062 94.1581 48.1022 94.5047 47.6275 94.6967C47.4816 94.7573 47.3505 94.8479 47.2429 94.9624C47.1353 95.0769 47.0536 95.2127 47.0035 95.3607L45.1795 100.681C45.0368 101.099 44.775 101.465 44.4266 101.736C44.0782 102.006 43.6585 102.168 43.2195 102.201C40.3955 102.417 36.3475 103.161 33.6915 102.057C33.1795 101.849 30.1235 100.881 29.9715 100.617C29.8595 100.425 29.6942 100.302 29.4755 100.249C29.0169 100.142 28.7342 100.265 28.6275 100.617C28.5209 100.953 28.2915 101.11 27.9395 101.089C27.3795 101.057 26.9582 101.307 26.6755 101.841C26.647 101.895 26.6052 101.942 26.5541 101.976C26.503 102.01 26.4441 102.031 26.3828 102.037C26.3215 102.042 26.2598 102.032 26.2034 102.008C26.1469 101.983 26.0974 101.945 26.0595 101.897C25.9208 101.721 25.8595 101.497 25.8755 101.225" stroke="#ACCFA5" stroke-width="2"/>
<path d="M234.132 136.777C232.516 173.172 217.18 201.729 188.124 222.449C185.153 224.566 181.614 226.572 177.508 228.465" stroke="#4C8C73" stroke-width="2"/>
<path d="M177.508 228.465C177.321 228.555 177.116 228.286 176.892 227.657" stroke="#439B77" stroke-width="2"/>
<path d="M176.892 227.657C177.444 227.473 177.58 227.465 177.388 226.849C174.252 216.822 170.078 207.236 164.868 198.089" stroke="#82B78A" stroke-width="2"/>
<path d="M164.868 198.089C162.926 194.777 160.425 192.006 157.364 189.777" stroke="#5EB07F" stroke-width="2"/>
<path d="M157.364 189.777C156.302 187.42 154.449 186.3 151.804 186.417" stroke="#43956A" stroke-width="2"/>
<path d="M151.804 186.417L151.26 185.985" stroke="#3E795A" stroke-width="2"/>
<path d="M151.26 185.985C159.972 183.889 165.956 181.537 172.564 175.609" stroke="#B2AF71" stroke-width="2"/>
<path d="M172.563 175.609C176.43 172.19 179.649 168.161 182.219 163.521C182.358 163.276 182.563 163.172 182.835 163.209C190.283 164.137 195.283 164.009 200.059 159.161" stroke="#B2A96A" stroke-width="2"/>
<path d="M200.06 159.161C206.604 152.777 211.82 139.073 200.716 134.065" stroke="#B2C98E" stroke-width="2"/>
<path d="M195.892 134.353C196.004 134.657 196.137 134.899 196.292 135.081C196.457 135.273 196.662 135.337 196.908 135.273L198.732 134.825C199.073 134.739 199.385 134.798 199.668 135.001C206.908 140.161 204.516 150.049 200.452 156.521C200.312 156.737 200.258 156.994 200.3 157.241C200.38 157.801 200.3 158.441 200.06 159.161" stroke="#FCC87F" stroke-width="2"/>
<path d="M172.564 175.609C172.233 175.438 171.865 175.393 171.46 175.473C171.321 175.5 171.265 175.444 171.292 175.305L172.212 171.281C172.227 171.223 172.223 171.162 172.201 171.107C172.179 171.051 172.14 171.004 172.089 170.972C172.038 170.939 171.978 170.923 171.917 170.926C171.856 170.928 171.797 170.949 171.748 170.985L171.06 171.497C170.868 171.641 170.713 171.609 170.596 171.401C169.332 169.121 172.996 167.753 171.652 165.577" stroke="#FCAE62" stroke-width="2"/>
<path d="M171.652 165.577C178.276 162.257 176.732 159.265 170.708 157.033" stroke="#FB985A" stroke-width="2"/>
<path d="M170.708 157.033C172.041 154.18 172.196 151.244 171.172 148.225" stroke="#FCAE62" stroke-width="2"/>
<path d="M171.172 148.225L171.436 146.969" stroke="#F4C59B" stroke-width="2"/>
<path d="M171.435 146.969C172.129 146.222 172.491 145.449 172.523 144.649C172.683 140.964 171.683 137.708 169.523 134.881" stroke="#825732" stroke-width="2"/>
<path d="M169.524 134.881C169.001 134.054 168.833 133.606 169.02 133.537C169.229 133.46 169.415 133.33 169.561 133.161C169.706 132.992 169.806 132.788 169.851 132.569C169.896 132.351 169.884 132.124 169.817 131.911C169.75 131.699 169.63 131.506 169.468 131.353C167.092 129.105 165.18 127.433 162.036 125.473C160.404 124.454 158.862 123.236 157.412 121.817" stroke="#FCAE62" stroke-width="2"/>
<path d="M157.412 121.817L167.7 123.401C167.966 123.444 168.204 123.382 168.412 123.217C168.918 122.822 169.406 122.569 169.876 122.457" stroke="#FBA25F" stroke-width="2"/>
<path d="M169.876 122.457L172.74 124.065C172.964 124.191 173.223 124.238 173.477 124.2C173.731 124.161 173.965 124.039 174.142 123.852C174.318 123.666 174.427 123.425 174.452 123.17C174.476 122.914 174.414 122.657 174.276 122.441C168.201 112.942 159.558 109.169 148.348 111.121C146.812 111.387 145.478 111.966 144.348 112.857" stroke="#825732" stroke-width="2"/>
<path d="M144.348 112.857C143.809 112.867 143.582 113.307 143.668 114.177C143.694 114.475 143.558 114.635 143.26 114.657C142.913 114.678 142.62 114.558 142.38 114.297C142.22 114.131 142.11 113.937 142.052 113.713C141.476 111.625 139.7 110.817 138.78 109.449C137.388 107.377 136.276 104.569 134.588 102.801C134.504 102.712 134.403 102.641 134.29 102.591C134.178 102.542 134.056 102.515 133.932 102.513C130.94 102.401 130.38 100.401 128.324 99.2566C125.481 97.6779 122.481 96.5579 119.324 95.8966C116.14 95.2246 112.58 93.8086 108.996 93.7766C108.887 93.7748 108.783 93.7383 108.697 93.6723C108.611 93.6064 108.549 93.5146 108.519 93.4106C108.49 93.3065 108.494 93.1957 108.533 93.0945C108.571 92.9933 108.641 92.9071 108.732 92.8486L111.284 91.2646C111.448 91.164 111.629 91.091 111.82 91.0486C112.209 90.9739 112.553 90.8353 112.852 90.6326C112.891 90.6082 112.92 90.5716 112.936 90.5285C112.952 90.4854 112.953 90.4382 112.94 90.3943C112.926 90.3505 112.898 90.3124 112.86 90.286C112.823 90.2597 112.778 90.2465 112.732 90.2486H112.324C112.286 90.2458 112.26 90.2293 112.249 90.2018C112.239 90.1744 112.245 90.1375 112.266 90.097C112.287 90.0565 112.322 90.0148 112.366 89.9785C112.41 89.9422 112.46 89.9134 112.508 89.8966C112.897 89.7633 113.108 89.5046 113.14 89.1206" stroke="#FCAE62" stroke-width="2"/>
<path d="M190.54 146.593C189.302 149.398 187.908 152.078 186.356 154.633C186.3 154.726 186.27 154.833 186.27 154.942C186.269 155.05 186.297 155.157 186.352 155.251C186.407 155.345 186.486 155.423 186.581 155.476C186.676 155.529 186.783 155.555 186.892 155.553C192.556 155.398 196.55 152.809 198.876 147.785C200.956 143.305 196.18 140.401 193.108 142.665C192.292 143.268 191.436 144.577 190.54 146.593Z" stroke="#F58848" stroke-width="2"/>
<path d="M144.348 112.857C143.18 115.337 144.676 117.793 147.54 117.489" stroke="#825D38" stroke-width="2"/>
<path d="M147.54 117.489C147.657 117.953 147.58 118.419 147.308 118.889C147.175 119.113 147.209 119.307 147.412 119.473C149.948 121.497 153.756 121.601 157.412 121.817" stroke="#FBA866" stroke-width="2"/>
<path d="M169.523 134.881C160.771 126.513 153.203 126.462 146.819 134.729" stroke="#825D38" stroke-width="2"/>
<path d="M146.82 134.729C143.244 140.721 142.46 154.065 153.028 153.361C157.854 153.041 162.673 152.641 167.484 152.161C169.974 151.916 171.204 150.604 171.172 148.225" stroke="#F4CBA1" stroke-width="2"/>
<path d="M170.708 157.033C164.852 154.825 155.052 154.721 151.212 160.785C151.052 161.035 151.014 161.299 151.1 161.577C152.996 168.081 166.676 167.193 171.652 165.577" stroke="#FB9E61" stroke-width="2"/>
<path d="M151.26 185.985L139.884 187.585" stroke="#897E52" stroke-width="2"/>
<path d="M139.884 187.585C132.742 188.705 125.465 188.947 118.052 188.313" stroke="#DA6F42" stroke-width="2"/>
<path d="M118.052 188.313L103.332 185.817" stroke="#897E52" stroke-width="2"/>
<path d="M103.332 185.817C103.305 185.716 103.1 185.625 102.716 185.545" stroke="#8E9A62" stroke-width="2"/>
<path d="M102.715 185.545C90.6994 182.145 81.4354 173.633 75.0274 162.737C74.8781 162.491 74.6701 162.417 74.4034 162.513C70.6648 163.873 67.1421 163.969 63.8354 162.801" stroke="#B2AF71" stroke-width="2"/>
<path d="M63.8357 162.801C59.2437 158.331 56.2544 154.225 54.8677 150.481C51.8277 142.267 54.4117 137.118 62.6197 135.033" stroke="#FCCE86" stroke-width="2"/>
<path d="M85.2276 118.681C83.4996 120.609 82.3236 121.617 82.5236 123.857C82.5365 124.01 82.5891 124.156 82.6762 124.282C82.7632 124.409 82.8818 124.51 83.02 124.576C83.1582 124.642 83.3113 124.671 83.4642 124.66C83.6171 124.649 83.7644 124.598 83.8916 124.513C87.9316 121.841 92.7956 117.873 97.5316 117.273C100.758 116.862 104.492 116.916 108.732 117.433C112.404 117.889 114.068 112.257 109.452 111.257C99.6382 109.124 91.5636 111.598 85.2276 118.681Z" stroke="#825D38" stroke-width="2"/>
<path d="M85.4834 147.809C86.6354 153.665 93.6674 153.457 98.1954 153.809C104.379 154.289 109.931 154.609 111.963 147.881C113.483 142.862 112.401 138.259 108.715 134.073" stroke="#F4CBA1" stroke-width="2"/>
<path d="M108.715 134.073C104.819 126.777 94.6434 128.401 89.6434 133.185C85.4034 137.243 84.0167 142.118 85.4834 147.809" stroke="#855C3A" stroke-width="2"/>
<path d="M108.715 134.073C98.6914 127.665 88.0114 133.689 86.1794 144.937C86.0247 145.87 85.7927 146.827 85.4834 147.809" stroke="#7D7373" stroke-width="2"/>
<path d="M64.0515 142.297C60.3395 140.833 57.4115 144.545 58.3955 148.001C59.7635 152.777 65.8115 155.313 70.4115 155.113C70.5386 155.106 70.6619 155.066 70.7681 154.996C70.8743 154.925 70.9595 154.828 71.0145 154.714C71.0695 154.6 71.0923 154.473 71.0805 154.347C71.0687 154.222 71.0228 154.102 70.9475 154.001C68.3475 150.489 67.4675 143.649 64.0515 142.297Z" stroke="#FB9E61" stroke-width="2"/>
<path d="M123.668 153.369C127.708 153.457 124.724 158.097 122.38 158.689C122.156 158.748 121.988 158.873 121.876 159.065C119.708 162.649 129.348 161.801 128.772 155.921C128.516 153.361 126.012 150.873 123.5 152.881C123.454 152.916 123.421 152.964 123.405 153.018C123.388 153.073 123.389 153.131 123.408 153.185C123.427 153.239 123.462 153.286 123.508 153.319C123.555 153.352 123.611 153.369 123.668 153.369Z" stroke="#FCA95C" stroke-width="2"/>
<path d="M124.512 156.125C124.557 155.979 124.547 155.817 124.483 155.65C124.42 155.483 124.305 155.314 124.144 155.153C123.983 154.991 123.78 154.84 123.545 154.709C123.311 154.577 123.051 154.467 122.779 154.386C122.231 154.221 121.669 154.181 121.218 154.275C120.767 154.368 120.464 154.587 120.375 154.884C120.331 155.031 120.341 155.192 120.404 155.359C120.467 155.526 120.582 155.695 120.743 155.857C120.904 156.018 121.108 156.169 121.342 156.301C121.576 156.432 121.836 156.542 122.108 156.623C122.657 156.788 123.218 156.828 123.669 156.735C124.12 156.641 124.423 156.422 124.512 156.125Z" stroke="#FCCE86" stroke-width="2"/>
<path d="M89.8679 167.209C94.6039 168.009 98.8466 167.225 102.596 164.857C104.66 163.553 105.284 161.217 103.204 159.577C98.6972 156.009 93.8252 155.356 88.5879 157.617" stroke="#FBA866" stroke-width="2"/>
<path d="M88.5874 157.617C88.5448 156.854 88.3048 156.276 87.8674 155.881C87.6754 155.71 87.4567 155.668 87.2114 155.753C84.3741 156.724 82.1101 158.436 80.4194 160.889C80.3367 161.007 80.2803 161.142 80.2541 161.286C80.2279 161.429 80.2324 161.578 80.2674 161.721C80.7474 163.657 82.5474 168.361 85.3314 167.033C85.4554 166.976 85.591 166.949 85.7273 166.955C85.8635 166.96 85.9965 166.998 86.1154 167.065C88.1741 168.249 89.4248 168.297 89.8674 167.209" stroke="#FDC778" stroke-width="2"/>
<path d="M88.5878 157.617C85.9905 158.737 84.4331 160.419 83.9158 162.665C83.8518 162.937 83.8971 163.19 84.0518 163.425C85.3584 165.467 87.2971 166.729 89.8678 167.209" stroke="#FCBA75" stroke-width="2"/>
<path d="M122.979 179.489C130.409 181.835 136.403 180.614 140.963 175.825" stroke="#E67645" stroke-width="2"/>
<path d="M140.963 175.825C141.587 174.811 141.955 173.665 142.067 172.385C142.089 172.134 141.982 172.051 141.747 172.137C134.459 174.745 124.955 175.241 118.051 171.025C117.822 170.886 117.713 170.95 117.723 171.217C117.862 175.233 119.614 177.99 122.979 179.489" stroke="#C3663E" stroke-width="2"/>
<path d="M140.964 175.825C136.121 176.006 131.505 175.993 127.116 175.785C125.798 175.721 124.326 176.31 122.7 177.553C122.661 177.582 122.629 177.62 122.607 177.663C122.585 177.706 122.574 177.754 122.573 177.803C122.572 177.851 122.582 177.899 122.603 177.943C122.623 177.987 122.654 178.026 122.692 178.057C123.716 178.894 123.812 179.371 122.98 179.489" stroke="#AC281B" stroke-width="2"/>
<path d="M53.3795 101.257C50.4461 104.686 49.2488 108.39 49.7875 112.369" stroke="#727965" stroke-width="2"/>
<path d="M54.4995 126.673L52.7635 124.201C52.6628 124.056 52.529 123.937 52.3732 123.854C52.2174 123.771 52.044 123.727 51.8669 123.723C51.6899 123.72 51.5144 123.759 51.3546 123.837C51.1949 123.914 51.0554 124.028 50.9476 124.169C48.5476 127.342 45.5422 129.782 41.9315 131.489C41.7022 131.596 41.4755 131.59 41.2515 131.473C34.8755 128.081 37.0835 122.641 38.5315 117.257C38.6342 116.872 38.6128 116.464 38.4704 116.092C38.328 115.72 38.0719 115.402 37.7389 115.184C37.4058 114.967 37.0129 114.86 36.6164 114.881C36.2198 114.901 35.8401 115.047 35.5315 115.297C32.8329 117.468 30.0382 119.462 27.1476 121.281C26.8862 121.446 26.6622 121.406 26.4755 121.161C26.3155 120.948 26.2462 120.7 26.2675 120.417C26.2782 120.23 26.2435 120.052 26.1635 119.881C25.8755 119.3 25.4995 119.286 25.0355 119.841C24.8755 120.038 24.7449 120.252 24.6436 120.481C24.0409 121.942 23.1662 122.772 22.0195 122.969" stroke="#90BE95" stroke-width="2"/>
<path d="M169.876 122.457C162.996 116.841 156.948 116.913 147.54 117.489" stroke="#805136" stroke-width="2"/>
<path d="M57.1475 134.105C52.0915 136.377 49.8569 140.241 50.4435 145.697" stroke="#C0D09A" stroke-width="2"/>
<path d="M50.4439 145.697C49.4999 144.886 48.8253 145.302 48.4199 146.945C48.3506 147.222 48.1879 147.419 47.9319 147.537C45.8573 148.507 44.1373 149.913 42.7719 151.753C42.6042 151.973 42.3839 152.147 42.1319 152.257C40.2599 153.057 39.0492 154.451 38.4999 156.441C38.2919 157.198 37.2706 158.243 35.4359 159.577C35.2279 159.726 34.9986 159.809 34.7479 159.825C31.1479 160.041 30.3879 162.337 28.3559 164.401C28.2652 164.491 28.1586 164.529 28.0359 164.513L27.5639 164.449C27.2706 164.406 27.1346 164.531 27.1559 164.825C27.1879 165.289 27.0119 165.523 26.6279 165.529" stroke="#75B185" stroke-width="2"/>
<path d="M171.435 146.969C171.083 133.593 157.843 126.873 146.819 134.729" stroke="#797471" stroke-width="2"/>
<path d="M153.6 151.733C155.36 151.829 157.094 151.088 158.419 149.674C159.744 148.259 160.552 146.288 160.666 144.192C160.779 142.097 160.189 140.05 159.024 138.501C157.859 136.952 156.216 136.028 154.455 135.932C152.695 135.837 150.961 136.578 149.636 137.992C148.311 139.406 147.503 141.378 147.389 143.473C147.276 145.569 147.866 147.616 149.031 149.165C150.196 150.714 151.839 151.638 153.6 151.733Z" stroke="#797471" stroke-width="2"/>
<path d="M101.437 151.931C103.197 152.085 104.957 151.415 106.33 150.068C107.702 148.721 108.574 146.808 108.754 144.75C108.934 142.691 108.408 140.655 107.29 139.091C106.172 137.526 104.555 136.561 102.795 136.406C101.034 136.252 99.274 136.923 97.9017 138.269C96.5293 139.616 95.6572 141.529 95.477 143.588C95.2969 145.647 95.8236 147.682 96.9413 149.247C98.0589 150.812 99.6759 151.777 101.437 151.931Z" stroke="#797471" stroke-width="2"/>
<path d="M63.8358 162.801C56.4598 160.155 51.9958 154.454 50.4438 145.697" stroke="#B2C98E" stroke-width="2"/>
<path d="M155.124 142.329C155.076 135.289 147.948 140.545 151.492 143.041C152.718 143.905 153.825 143.899 154.812 143.025C155.02 142.838 155.124 142.606 155.124 142.329Z" stroke="#797471" stroke-width="2"/>
<path d="M152.5 237.281L161.924 234.505" stroke="#429279" stroke-width="2"/>
<path d="M161.924 234.505L166.036 233.145" stroke="#235B54" stroke-width="2"/>
<path d="M166.036 233.145C169.934 232.068 173.758 230.508 177.508 228.465" stroke="#277C71" stroke-width="2"/>
<path d="M103.302 143.177C103.651 142.715 103.778 142.114 103.654 141.507C103.53 140.9 103.166 140.336 102.641 139.939C102.382 139.743 102.09 139.593 101.784 139.499C101.478 139.405 101.163 139.369 100.857 139.391C100.551 139.414 100.26 139.496 100.001 139.632C99.7413 139.768 99.5189 139.956 99.3459 140.185C98.9965 140.647 98.8697 141.248 98.9936 141.855C99.1175 142.462 99.4818 143.026 100.006 143.423C100.266 143.619 100.557 143.769 100.864 143.863C101.17 143.957 101.485 143.993 101.791 143.97C102.097 143.948 102.388 143.866 102.647 143.73C102.906 143.593 103.129 143.406 103.302 143.177Z" stroke="#797471" stroke-width="2"/>
<path d="M153.252 140.393C153.281 140.32 153.282 140.238 153.254 140.164C153.225 140.09 153.17 140.03 153.099 139.995C153.028 139.961 152.946 139.954 152.87 139.978C152.795 140.001 152.731 140.052 152.692 140.121C152.345 140.67 152.294 141.278 152.54 141.945C152.614 142.147 152.758 142.249 152.972 142.249H153.316C153.742 142.249 153.809 142.094 153.516 141.785C153.153 141.401 153.065 140.937 153.252 140.393Z" stroke="#B0988E" stroke-width="2"/>
<path d="M101.108 140.937C100.788 140.841 100.631 140.961 100.636 141.297C100.652 141.926 100.996 142.358 101.668 142.593C101.908 142.673 102.047 142.585 102.084 142.329C102.18 141.619 101.855 141.155 101.108 140.937Z" stroke="#B0988E" stroke-width="2"/>
<path d="M102.715 185.545C102.609 185.737 102.577 185.932 102.619 186.129C102.683 186.396 102.614 186.625 102.411 186.817L98.6514 190.401" stroke="#43956A" stroke-width="2"/>
<path d="M98.6517 190.401L98.3237 190.289C98.057 190.193 97.8197 190.241 97.6117 190.433C87.7557 199.489 86.3477 217.353 85.8917 229.873C85.8906 229.905 85.898 229.937 85.9133 229.966C85.9287 229.995 85.9512 230.019 85.9789 230.036C86.0065 230.053 86.0382 230.062 86.0706 230.063C86.1031 230.064 86.1352 230.056 86.1637 230.041C86.3557 229.934 86.5157 229.798 86.6437 229.633" stroke="#82B78A" stroke-width="2"/>
<path d="M86.6436 229.633L86.8115 231.353" stroke="#439B77" stroke-width="2"/>
<path d="M86.8115 231.353L91.4195 234.009" stroke="#3E795A" stroke-width="2"/>
<path d="M103.331 185.817C103.203 185.902 103.113 185.998 103.059 186.105C103.033 186.161 103.019 186.222 103.02 186.285C103.021 186.347 103.037 186.408 103.065 186.463C103.094 186.518 103.135 186.566 103.186 186.602C103.236 186.639 103.294 186.663 103.355 186.673L105.627 187.049C105.932 187.096 106.223 187.22 106.475 187.409C108.699 189.097 110.971 190.241 113.203 192.185C116.755 195.284 121.011 197.001 125.971 197.337" stroke="#1A644B" stroke-width="2"/>
<path d="M125.972 197.337C126.089 197.459 126.142 197.766 126.132 198.257C126.126 198.513 126.252 198.625 126.508 198.593L130.42 198.145C130.55 198.13 130.675 198.086 130.787 198.017C130.899 197.948 130.995 197.855 131.068 197.745L131.508 197.081C131.524 197.054 131.521 197.033 131.5 197.017C131.42 196.937 131.337 196.857 131.252 196.777C131.097 196.643 131.07 196.489 131.172 196.313C131.225 196.211 131.313 196.131 131.436 196.073" stroke="#6B8B3F" stroke-width="2"/>
<path d="M131.436 196.073C133.396 199.305 135.94 197.617 138.876 196.257C143.34 194.187 147.174 191.265 150.38 187.489C150.721 187.089 151.196 186.731 151.804 186.417" stroke="#1A644B" stroke-width="2"/>
<path d="M157.364 189.777C153.124 196.716 147.652 202.601 140.948 207.433C140.721 207.598 140.438 207.667 140.161 207.627C139.885 207.586 139.636 207.439 139.468 207.217L134.492 200.665C134.055 200.094 133.895 200.164 134.012 200.873C134.228 202.185 134.604 203.513 134.572 204.745C134.225 216.441 134.068 228.241 134.1 240.145" stroke="#3A9B70" stroke-width="2"/>
<path d="M130.516 240.377C130.724 240.121 130.825 239.844 130.82 239.545C130.809 239.241 130.652 239.078 130.348 239.057C128.369 238.913 126.55 238.305 124.892 237.233C124.839 237.197 124.778 237.176 124.714 237.171C124.65 237.167 124.586 237.178 124.528 237.206C124.469 237.233 124.419 237.275 124.38 237.327C124.342 237.379 124.317 237.441 124.308 237.505L123.948 240.265" stroke="#2A9070" stroke-width="2"/>
<path d="M122.283 240.193C122.107 238.214 122.03 236.966 122.051 236.449C122.382 227.265 122.617 218.081 122.755 208.897C122.795 206.081 123.235 203.609 123.915 201.017C123.933 200.941 123.924 200.862 123.89 200.793C123.857 200.723 123.801 200.666 123.732 200.632C123.663 200.598 123.584 200.588 123.508 200.604C123.433 200.62 123.365 200.661 123.315 200.721C122.043 202.305 117.859 208.465 115.539 207.249C109.683 204.169 103.811 197.241 99.4194 191.721" stroke="#3A9B70" stroke-width="2"/>
<path d="M99.4194 191.721C99.0194 191.465 98.7634 191.025 98.6514 190.401" stroke="#5EA27B" stroke-width="2"/>
<path d="M125.452 208.097L130.836 208.305C130.911 208.308 130.986 208.296 131.056 208.268C131.126 208.24 131.19 208.198 131.242 208.143C131.295 208.089 131.336 208.024 131.363 207.953C131.389 207.881 131.4 207.805 131.396 207.729L131.108 200.985C131.092 200.707 130.945 200.577 130.668 200.593L126.388 200.913C126.052 200.939 125.809 201.102 125.66 201.401C124.679 203.331 124.409 205.393 124.852 207.585C124.879 207.725 124.953 207.853 125.062 207.946C125.171 208.039 125.309 208.092 125.452 208.097Z" stroke="#2A9070" stroke-width="2"/>
<path d="M124.772 211.129L124.644 216.569C124.643 216.609 124.649 216.649 124.664 216.686C124.678 216.723 124.7 216.757 124.727 216.786C124.755 216.815 124.787 216.838 124.824 216.855C124.86 216.871 124.9 216.88 124.94 216.881L125.084 216.889C126.636 216.927 128.127 216.85 129.229 216.676C130.332 216.502 130.956 216.245 130.964 215.961L131.06 212.057C131.064 211.916 130.916 211.773 130.625 211.635C130.335 211.498 129.906 211.369 129.364 211.256C128.823 211.143 128.178 211.048 127.469 210.977C126.759 210.906 125.997 210.86 125.228 210.841L125.084 210.833C125.044 210.832 125.004 210.839 124.967 210.853C124.929 210.867 124.895 210.889 124.866 210.916C124.837 210.944 124.814 210.977 124.798 211.013C124.782 211.05 124.773 211.089 124.772 211.129Z" stroke="#2A9070" stroke-width="2"/>
<path d="M125.748 220.721C125.652 220.689 125.556 220.659 125.46 220.633C125.193 220.558 125.062 220.657 125.068 220.929L125.1 224.633C125.1 224.953 125.246 225.182 125.54 225.321C126.916 225.977 128.289 226.038 129.66 225.505C129.932 225.398 130.092 225.203 130.14 224.921C130.62 222.361 128.7 219.977 126.012 220.729C125.921 220.755 125.833 220.753 125.748 220.721Z" stroke="#2A9070" stroke-width="2"/>
<path d="M129.315 228.921H126.195C126.032 228.92 125.869 228.951 125.717 229.013C125.565 229.074 125.427 229.165 125.311 229.281C125.194 229.396 125.101 229.533 125.038 229.684C124.974 229.835 124.941 229.997 124.939 230.161V233.417C124.937 234.004 125.208 234.569 125.693 234.986C126.178 235.403 126.836 235.639 127.523 235.641H127.955C128.296 235.642 128.633 235.585 128.948 235.475C129.263 235.365 129.549 235.202 129.791 234.997C130.032 234.792 130.224 234.549 130.355 234.28C130.486 234.012 130.554 233.724 130.555 233.433V230.177C130.556 230.013 130.525 229.85 130.464 229.698C130.402 229.547 130.311 229.409 130.196 229.292C130.08 229.175 129.943 229.082 129.792 229.019C129.641 228.955 129.479 228.922 129.315 228.921Z" stroke="#2A9070" stroke-width="2"/>
<path d="M118.052 188.313C118.313 188.948 118.718 189.489 119.268 189.937" stroke="#66392B" stroke-width="2"/>
<path d="M119.268 189.937C121.636 191.913 125.18 194.209 125.972 197.337" stroke="#666F2F" stroke-width="2"/>
<path d="M131.436 196.073C130.993 195.23 131.036 194.636 131.564 194.289C133.937 192.732 136.225 190.99 138.428 189.065" stroke="#666F2F" stroke-width="2"/>
<path d="M138.428 189.065C139.11 188.825 139.596 188.331 139.884 187.585" stroke="#66392B" stroke-width="2"/>
<path d="M138.428 189.065L133.82 191.209C133.58 191.321 133.326 191.356 133.06 191.313C128.908 190.689 124.06 192.761 120.396 190.049C120.004 189.761 119.692 189.777 119.268 189.937" stroke="#B7601F" stroke-width="2"/>
<path d="M164.868 198.089L173.708 219.337C173.74 219.406 173.75 219.478 173.74 219.553C173.686 219.873 173.716 219.9 173.828 219.633" stroke="#78BD90" stroke-width="2"/>
<path d="M173.828 219.633C173.017 220.219 172.393 220.894 171.956 221.657" stroke="#39A17D" stroke-width="2"/>
<path d="M171.956 221.657L165.772 228.009C165.484 228.307 165.321 228.249 165.284 227.833L163.476 206.361C163.476 206.329 163.463 206.298 163.441 206.276C163.418 206.253 163.388 206.241 163.356 206.241C163.324 206.241 163.294 206.253 163.271 206.276C163.248 206.298 163.236 206.329 163.236 206.361L161.924 234.505" stroke="#357F60" stroke-width="2"/>
<path d="M99.4195 191.721C94.5821 196.841 91.6275 202.755 90.5555 209.465C90.5395 209.561 90.4808 209.619 90.3795 209.641C90.2995 209.651 90.2382 209.678 90.1955 209.721C89.8808 210.025 89.7155 210.214 89.6995 210.289L88.0835 219.185" stroke="#78BD90" stroke-width="2"/>
<path d="M88.0835 219.185L86.6436 229.633" stroke="#5DA888" stroke-width="2"/>
<path d="M98.2996 236.225L96.6276 211.729C96.6276 211.708 96.6169 211.692 96.5956 211.681C96.5263 211.654 96.4569 211.654 96.3876 211.681C96.3023 211.713 96.2569 211.777 96.2516 211.873L95.2276 225.649C95.2009 225.964 95.0703 226.014 94.8356 225.801L89.1636 220.633" stroke="#357F60" stroke-width="2"/>
<path d="M89.1635 220.633L88.0835 219.185" stroke="#39A17D" stroke-width="2"/>
<path d="M176.892 227.657L173.828 219.633" stroke="#5DA888" stroke-width="2"/>
<path d="M171.956 221.657C172.708 221.705 168.492 226.009 168.18 226.345C166.156 228.497 166.076 230.361 166.036 233.145" stroke="#1A6A58" stroke-width="2"/>
<path d="M86.8115 231.353C87.1209 230.841 87.3929 230.646 87.6275 230.769C89.7342 231.873 92.0088 232.441 94.4515 232.473C94.7662 232.478 94.9209 232.323 94.9155 232.009L94.8835 227.665C94.8838 227.381 94.7816 227.106 94.5956 226.889C93.6196 225.729 88.8915 221.729 89.1635 220.633" stroke="#1A6A58" stroke-width="2"/>
<path d="M149.964 19.7768C149.83 20.4222 149.606 20.8995 149.292 21.2088C149.084 21.4115 148.844 21.4648 148.572 21.3688L141.044 18.7208C139.132 17.5128 137.404 20.8088 136.548 22.3048C133.444 25.8968 130.284 29.9688 127.132 32.8728C117.364 41.8808 106.444 45.3368 93.6756 49.1688C81.5876 53.1048 71.0996 58.0088 62.6036 67.1688C56.4436 73.8168 54.4116 81.4168 55.2196 90.2968C55.1663 93.1928 55.9103 95.9582 57.4516 98.5928C57.7769 99.1582 57.913 99.6782 57.8596 100.153C57.8483 100.241 57.8117 100.325 57.7542 100.393C57.6967 100.461 57.6208 100.511 57.5355 100.537C57.4503 100.563 57.3594 100.564 57.2735 100.54C57.1877 100.516 57.1106 100.468 57.0516 100.401C56.0916 99.3128 54.7903 98.5742 53.1477 98.1848C51.1797 95.6462 50.0383 92.0462 49.7236 87.3848C49.969 83.6728 51.1636 79.7342 53.3076 75.5688C64.9156 55.2328 83.2916 48.3128 103.556 41.2168C115.836 36.9208 124.132 32.5528 132.212 23.2168C134.078 21.4408 135.596 19.4142 136.764 17.1368C136.955 16.7653 137.253 16.4594 137.619 16.2584C137.985 16.0574 138.404 15.9705 138.82 16.0088C142.809 16.3875 146.524 17.6435 149.964 19.7768Z" fill="#523D38"/>
<path d="M141.044 18.7208C140.9 19.6168 141.676 20.4168 143.372 21.1208C143.639 21.2337 143.854 21.4424 143.972 21.7048C144.969 23.9075 144.556 25.7688 142.732 27.2888C142.54 27.4542 142.321 27.5128 142.076 27.4648C138.902 26.8781 137.06 25.1582 136.548 22.3048C137.404 20.8088 139.132 17.5128 141.044 18.7208Z" fill="#2D1920"/>
<path d="M141.043 18.7207L148.571 21.3687C148.843 21.4647 149.083 21.4114 149.291 21.2087C149.606 20.8994 149.83 20.422 149.963 19.7767C153.67 22.0274 157.134 24.59 160.355 27.4647C160.211 27.7794 159.929 27.9127 159.507 27.8647C159.385 27.8487 159.323 27.7767 159.323 27.6487C159.323 27.5794 159.331 27.5047 159.347 27.4247C159.354 27.3723 159.341 27.3348 159.309 27.3185C159.277 27.3023 159.228 27.3083 159.172 27.3355C159.116 27.3627 159.055 27.4096 158.999 27.4681C158.944 27.5266 158.897 27.5932 158.867 27.6567C158.67 28.094 158.491 28.5554 158.331 29.0407C158.243 29.2998 158.068 29.5203 157.835 29.6647C153.835 32.1127 150.595 33.8007 148.699 36.4087C148.075 37.2674 147.403 37.9554 146.683 38.4727C141.339 42.3127 136.358 46.5767 131.739 51.2647C131.649 51.3554 131.499 51.4167 131.291 51.4487C131.035 51.4807 130.814 51.59 130.627 51.7767C127.931 54.4407 124.659 56.4327 122.355 59.4247C119.881 62.6354 117.387 65.158 114.875 66.9927C113.249 68.182 112.105 69.206 111.443 70.0647C111.289 70.262 111.089 70.3847 110.843 70.4327C108.379 70.8967 104.275 74.9607 102.283 76.6727C101.643 77.2247 100.787 77.5527 100.131 78.2887C99.5501 78.95 99.0808 79.3874 98.7234 79.6007C86.8514 86.7367 73.7474 90.9207 61.8194 99.0807C60.2594 100.145 58.5234 100.113 56.8274 101.097C56.5949 101.231 56.3257 101.279 56.0674 101.233C54.6008 100.993 53.6275 99.9767 53.1475 98.1847C54.7901 98.574 56.0914 99.3127 57.0514 100.401C57.1104 100.468 57.1875 100.516 57.2733 100.54C57.3592 100.564 57.4501 100.563 57.5354 100.537C57.6206 100.511 57.6965 100.461 57.754 100.393C57.8115 100.324 57.8481 100.241 57.8594 100.153C57.9128 99.678 57.7767 99.158 57.4514 98.5927C55.9101 95.958 55.1661 93.1927 55.2194 90.2967C57.5874 91.0007 58.7101 89.8514 58.5875 86.8487C58.4915 84.5527 60.8194 82.7607 62.5234 81.9607C67.0514 79.8167 70.5554 76.2887 74.1794 73.5767C76.5208 71.8327 78.1448 70.2434 79.0514 68.8087C79.9688 67.3634 80.8008 66.334 81.5475 65.7207C81.7437 65.5563 81.9137 65.362 82.0514 65.1447C83.2754 63.1207 85.6114 61.2567 86.5074 58.9687C86.5981 58.7287 86.7474 58.5314 86.9554 58.3767C88.2248 57.4487 89.2861 56.3287 90.1395 55.0167C91.2675 53.2887 95.9634 51.4807 93.6754 49.1687C106.443 45.3367 117.363 41.8807 127.131 32.8727C130.283 29.9687 133.443 25.8967 136.547 22.3047C137.059 25.158 138.902 26.878 142.075 27.4647C142.321 27.5127 142.539 27.454 142.731 27.2887C144.555 25.7687 144.969 23.9074 143.971 21.7047C143.853 21.4423 143.639 21.2336 143.371 21.1207C141.675 20.4167 140.899 19.6167 141.043 18.7207Z" fill="#1C0E18"/>
<path d="M132.211 23.2168C124.131 32.5528 115.835 36.9208 103.555 41.2168C83.2914 48.3128 64.9154 55.2328 53.3074 75.5688C52.2514 76.1688 50.7154 73.5528 48.9794 73.3048C48.7181 73.2675 48.5128 73.3581 48.3634 73.5768C45.8301 77.2941 43.5528 80.2675 41.5314 82.4968C39.0674 85.2168 35.9954 85.7688 32.3154 84.1528C38.0381 71.3741 46.1261 60.2195 56.5794 50.6888C70.4248 38.4115 86.4781 30.1875 104.739 26.0168C113.699 23.9795 122.857 23.0461 132.211 23.2168Z" fill="#CAE4B9"/>
<path d="M160.356 27.465L163.516 30.849C166.135 35.2223 167.545 39.6543 167.748 44.145L164.62 53.641L164.516 52.433C164.495 52.1663 164.351 52.041 164.084 52.057C163.679 52.0836 163.433 51.9076 163.348 51.529C163.295 51.2943 163.145 51.1636 162.9 51.137C160.252 50.889 158.924 53.601 157.212 54.785C156.993 54.9396 156.815 55.1343 156.676 55.369C156.527 55.641 156.351 55.833 156.148 55.945C155.999 56.0303 155.924 55.9876 155.924 55.817V55.273C155.924 54.9103 155.799 54.8596 155.548 55.121C150.001 60.8383 144.609 66.6996 139.372 72.705C137.116 75.289 134.684 77.673 132.308 80.153C132.296 80.1639 132.281 80.1706 132.265 80.172C132.249 80.1735 132.233 80.1696 132.22 80.161C132.161 80.1183 132.1 80.0996 132.036 80.105C131.986 80.1092 131.935 80.123 131.889 80.1446C131.842 80.1662 131.802 80.1946 131.774 80.2263C131.746 80.2579 131.73 80.2914 131.73 80.3225C131.73 80.3536 131.744 80.3809 131.772 80.401C131.921 80.5183 131.921 80.617 131.772 80.697C131.68 80.7473 131.59 80.7854 131.516 80.8045C131.443 80.8236 131.392 80.8223 131.372 80.801C131.34 80.769 131.305 80.7316 131.268 80.689C131.226 80.6437 131.17 80.616 131.11 80.6103C131.05 80.6046 130.99 80.6214 130.938 80.6578C130.887 80.6942 130.848 80.748 130.828 80.8104C130.808 80.8728 130.808 80.9401 130.828 81.001C130.951 81.401 130.841 81.5743 130.5 81.521C130.174 81.4729 129.935 81.5956 129.78 81.889C129.183 83.0356 128.268 83.7663 127.036 84.0809C126.817 84.1343 126.769 84.257 126.892 84.449C126.929 84.513 126.996 84.5583 127.092 84.585C127.165 84.602 127.229 84.6453 127.272 84.7066C127.315 84.7679 127.333 84.8429 127.324 84.9172C127.316 84.9915 127.28 85.0599 127.223 85.1093C127.167 85.1587 127.095 85.1856 127.02 85.185C122.66 85.273 118.62 85.025 114.42 85.865C112.847 86.1796 111.273 86.4943 109.7 86.8089C104.916 87.7529 100.156 89.721 95.5558 91.313C88.0678 93.913 77.2039 99.561 73.3879 107.673C72.3799 109.812 71.4918 111.284 70.7238 112.089C68.0678 114.873 64.9319 115.665 61.9479 117.857C58.9399 120.07 55.6732 121.081 52.1479 120.889C50.5745 118.217 49.7879 115.377 49.7879 112.369L52.2678 119.529C52.4812 120.142 52.6172 120.126 52.6759 119.481C53.2039 113.753 55.9398 109.225 57.5078 104.721C57.6092 104.433 57.5612 104.172 57.3638 103.937C56.4358 102.838 55.1079 101.945 53.3799 101.257L51.4279 98.1929C49.6572 94.5663 49.0892 90.9636 49.7238 87.385C50.0385 92.0463 51.1799 95.6463 53.1479 98.185C53.6279 99.977 54.6012 100.993 56.0678 101.233C56.3261 101.279 56.5953 101.231 56.8279 101.097C58.5239 100.113 60.2598 100.145 61.8198 99.0809C73.7478 90.9209 86.8518 86.737 98.7239 79.601C99.0812 79.3876 99.5505 78.9503 100.132 78.289C100.788 77.553 101.644 77.225 102.284 76.673C104.276 74.961 108.38 70.897 110.844 70.433C111.089 70.385 111.289 70.2623 111.444 70.065C112.105 69.2063 113.249 68.1823 114.876 66.993C117.388 65.1583 119.881 62.6356 122.356 59.425C124.66 56.433 127.932 54.441 130.628 51.777C130.815 51.5903 131.036 51.481 131.292 51.449C131.5 51.417 131.649 51.3556 131.74 51.265C136.359 46.577 141.34 42.313 146.684 38.473C147.404 37.9556 148.076 37.2676 148.7 36.409C150.596 33.801 153.836 32.113 157.836 29.665C158.068 29.5205 158.244 29.3 158.332 29.041C158.492 28.5556 158.671 28.0943 158.868 27.657C158.898 27.5934 158.944 27.5268 159 27.4683C159.055 27.4098 159.116 27.363 159.173 27.3358C159.229 27.3085 159.277 27.3025 159.309 27.3188C159.341 27.335 159.355 27.3725 159.348 27.425C159.332 27.505 159.324 27.5796 159.324 27.649C159.324 27.777 159.385 27.849 159.508 27.865C159.929 27.913 160.212 27.7796 160.356 27.465Z" fill="#160B14"/>
<path d="M163.516 30.8489C186.012 36.9529 206.012 54.8169 218.204 74.2969C218.124 75.0275 218.3 75.6035 218.732 76.0249C218.803 76.079 218.849 76.1591 218.861 76.2476C218.873 76.3361 218.85 76.4258 218.796 76.4969C218.742 76.568 218.661 76.6146 218.573 76.6266C218.484 76.6386 218.395 76.615 218.324 76.5609L218.148 76.4489C217.998 76.3635 217.844 76.3475 217.684 76.4009C215.321 77.2489 213.35 78.6035 211.772 80.4649C209.58 83.0489 207.196 83.6329 207.14 87.7689C207.14 87.9555 207.046 88.0489 206.86 88.0489H206.54C206.491 88.0491 206.443 88.0308 206.405 87.9971C206.367 87.9635 206.341 87.9167 206.332 87.8649L206.292 87.5449C206.26 87.3262 206.142 87.2622 205.94 87.3529C205.801 87.4169 205.654 87.4649 205.5 87.4969C204.278 83.7209 202.153 80.3849 199.124 77.4889C194.649 73.4835 189.15 71.0249 182.628 70.1129C189.292 64.9289 191.596 57.3369 189.324 49.1769C185.462 43.0595 179.82 40.6862 172.396 42.0569L167.748 44.1449C167.545 39.6542 166.134 35.2222 163.516 30.8489Z" fill="#83B890"/>
<path d="M189.324 49.1768C188.476 49.8114 188.249 50.9261 188.644 52.5208C188.684 52.6655 188.671 52.8201 188.605 52.9555C188.54 53.0908 188.427 53.1976 188.288 53.2556C188.15 53.3136 187.994 53.3189 187.852 53.2705C187.71 53.2221 187.59 53.1233 187.516 52.9928C184.78 48.5368 180.044 47.2488 174.692 45.7208C172.66 45.1448 172.028 44.0968 172.396 42.0568C179.82 40.6861 185.462 43.0594 189.324 49.1768Z" fill="#523D38"/>
<path d="M172.396 42.0569C172.028 44.0969 172.66 45.1449 174.692 45.7209C180.044 47.2489 184.78 48.5369 187.516 52.9929C187.59 53.1234 187.71 53.2222 187.852 53.2706C187.995 53.3191 188.15 53.3137 188.288 53.2557C188.427 53.1977 188.54 53.0909 188.605 52.9556C188.671 52.8202 188.684 52.6656 188.644 52.5209C188.249 50.9262 188.476 49.8116 189.324 49.1769C191.596 57.3369 189.292 64.9289 182.628 70.1129L177.652 72.3049C177.31 72.4542 177.326 72.5422 177.7 72.5689C181.23 72.8409 185.236 73.5422 189.716 74.6729C197.31 76.5876 202.206 81.5476 204.404 89.5529C204.857 91.0249 205.094 92.3209 205.116 93.4409C205.137 94.3902 204.729 95.1449 203.892 95.7049C203.694 95.8382 203.585 96.0249 203.564 96.2649C203.452 97.4222 203.617 98.5155 204.06 99.5449C204.166 99.7902 204.185 100.046 204.116 100.313C203.772 101.649 203.516 102.633 204.116 103.993C205.028 106.065 208.54 114.121 207.044 116.001C206.825 116.273 206.681 116.236 206.612 115.889C206.292 114.217 206.092 112.593 205.316 111.041C203.932 108.249 201.876 105.193 201.756 101.993C201.574 97.0755 200.764 92.7635 199.324 89.0569C195.036 78.0089 180.532 75.2329 170.212 73.8249C170.141 73.8154 170.076 73.7828 170.026 73.7321C169.976 73.6814 169.945 73.6155 169.936 73.5449C169.928 73.4742 169.943 73.4028 169.98 73.342C170.017 73.2812 170.073 73.2343 170.14 73.2089C176.305 70.8195 180.236 66.6516 181.932 60.7049L185.852 59.5769C186.046 59.5214 186.222 59.416 186.363 59.2713C186.503 59.1267 186.603 58.9479 186.652 58.7529C188.388 51.9289 181.9 47.9849 176.308 47.2569C172.574 46.7716 169.516 48.4489 167.132 52.2889L164.62 53.6409L167.748 44.1449L172.396 42.0569Z" fill="#2D1920"/>
<path d="M181.932 60.7047C181.34 51.1447 174.724 50.1367 167.132 52.2887C169.516 48.4487 172.574 46.7714 176.308 47.2567C181.9 47.9847 188.388 51.9287 186.652 58.7527C186.603 58.9477 186.503 59.1265 186.363 59.2712C186.223 59.4158 186.046 59.5212 185.852 59.5767L181.932 60.7047Z" fill="#472D30"/>
<path d="M93.6757 49.1687C95.9637 51.4807 91.2677 53.2887 90.1397 55.0167C89.2863 56.3287 88.225 57.4487 86.9556 58.3767C86.7476 58.5314 86.5983 58.7287 86.5076 58.9687C85.6116 61.2567 83.2756 63.1207 82.0516 65.1447C81.9139 65.362 81.7439 65.5563 81.5477 65.7207C80.801 66.334 79.969 67.3634 79.0516 68.8087C78.145 70.2434 76.521 71.8327 74.1797 73.5767C70.5557 76.2887 67.0517 79.8167 62.5237 81.9607C60.8197 82.7607 58.4917 84.5527 58.5877 86.8487C58.7103 89.8514 57.5877 91.0007 55.2197 90.2967C54.4117 81.4167 56.4436 73.8167 62.6036 67.1687C71.0996 58.0087 81.5877 53.1047 93.6757 49.1687Z" fill="#2D1920"/>
<path d="M164.619 53.6408L167.131 52.2888C174.723 50.1368 181.339 51.1448 181.931 60.7048C180.235 66.6514 176.305 70.8194 170.139 73.2088C170.073 73.2342 170.017 73.2811 169.98 73.3419C169.943 73.4027 169.928 73.4741 169.936 73.5448C169.944 73.6154 169.976 73.6813 170.026 73.732C170.076 73.7827 170.141 73.8153 170.211 73.8248C180.531 75.2328 195.035 78.0088 199.323 89.0568C200.763 92.7634 201.574 97.0754 201.755 101.993C201.875 105.193 203.931 108.249 205.315 111.041C206.091 112.593 206.291 114.217 206.611 115.889C206.681 116.235 206.825 116.273 207.043 116.001C208.539 114.121 205.027 106.065 204.115 103.993C203.515 102.633 203.771 101.649 204.115 100.313C204.185 100.046 204.166 99.7901 204.059 99.5448C203.617 98.5154 203.451 97.4221 203.563 96.2648C203.585 96.0248 203.694 95.8381 203.891 95.7048C204.729 95.1448 205.137 94.3901 205.115 93.4408C205.094 92.3208 204.857 91.0248 204.403 89.5528C204.158 85.3448 202.422 81.6968 199.195 78.6088C198.811 78.2408 198.827 77.8968 199.123 77.4888C202.153 80.3848 204.278 83.7208 205.499 87.4968C206.502 92.4834 206.259 97.4648 204.771 102.441C204.734 102.564 204.727 102.695 204.751 102.823C204.774 102.951 204.828 103.072 204.907 103.177C213.179 114.345 205.891 123.913 200.715 134.065C199.291 133.67 197.683 133.766 195.891 134.353C192.478 136.731 189.83 140.001 187.947 144.161C187.702 144.71 187.603 144.683 187.651 144.081C188.907 129.289 186.811 111.121 174.971 100.993C159.443 87.7208 132.243 86.1848 113.139 89.1208C95.9475 91.5448 77.8994 100.777 73.1634 118.473C70.7741 127.395 69.6701 136.246 69.8514 145.025C69.8621 145.627 69.7821 145.641 69.6114 145.065C68.3101 140.793 65.9794 137.449 62.6194 135.033C61.1101 133.859 59.2861 133.55 57.1475 134.105C56.7955 131.273 55.9127 128.795 54.4994 126.673L52.1475 120.889C55.6728 121.081 58.9395 120.07 61.9475 117.857C64.9315 115.665 68.0674 114.873 70.7234 112.089C71.4914 111.283 72.3795 109.811 73.3875 107.673C77.2035 99.5608 88.0674 93.9128 95.5554 91.3128C100.155 89.7208 104.915 87.7528 109.699 86.8088C111.273 86.4941 112.846 86.1795 114.419 85.8648C118.619 85.0248 122.659 85.2728 127.019 85.1848C127.094 85.1855 127.167 85.1585 127.223 85.1091C127.279 85.0597 127.315 84.9913 127.324 84.917C127.333 84.8427 127.314 84.7677 127.271 84.7064C127.228 84.6451 127.164 84.6018 127.091 84.5848C126.995 84.5581 126.929 84.5128 126.891 84.4488C126.769 84.2568 126.817 84.1341 127.035 84.0808C128.267 83.7661 129.182 83.0354 129.779 81.8888C129.934 81.5954 130.174 81.4728 130.499 81.5208C130.841 81.5741 130.95 81.4008 130.827 81.0008C130.807 80.9399 130.807 80.8727 130.827 80.8103C130.848 80.7479 130.886 80.694 130.938 80.6576C130.989 80.6212 131.05 80.6044 131.11 80.6101C131.17 80.6158 131.225 80.6435 131.267 80.6888C131.305 80.7314 131.339 80.7688 131.371 80.8008C131.391 80.8221 131.443 80.8234 131.516 80.8043C131.589 80.7853 131.68 80.7471 131.771 80.6968C131.921 80.6168 131.921 80.5181 131.771 80.4008C131.744 80.3807 131.729 80.3534 131.73 80.3223C131.73 80.2912 131.745 80.2577 131.773 80.2261C131.802 80.1945 131.842 80.166 131.888 80.1445C131.935 80.1229 131.986 80.1091 132.035 80.1048C132.099 80.0995 132.161 80.1181 132.219 80.1608C132.233 80.1694 132.249 80.1733 132.265 80.1719C132.281 80.1704 132.296 80.1637 132.307 80.1528C134.683 77.6728 137.115 75.2888 139.371 72.7048C144.609 66.6994 150.001 60.8381 155.547 55.1208C155.798 54.8594 155.923 54.9101 155.923 55.2728V55.8168C155.923 55.9874 155.998 56.0301 156.147 55.9448C156.35 55.8328 156.526 55.6408 156.675 55.3688C156.814 55.1341 156.993 54.9394 157.211 54.7848C158.923 53.6008 160.251 50.8888 162.899 51.1368C163.145 51.1634 163.294 51.2941 163.347 51.5288C163.433 51.9074 163.678 52.0834 164.083 52.0568C164.35 52.0408 164.494 52.1661 164.515 52.4328L164.619 53.6408Z" fill="#0E040B"/>
<path d="M182.628 70.1128C189.15 71.0248 194.649 73.4835 199.124 77.4888C198.828 77.8968 198.812 78.2408 199.196 78.6088C202.422 81.6968 204.158 85.3448 204.404 89.5528C202.206 81.5475 197.31 76.5875 189.716 74.6728C185.236 73.5421 181.23 72.8408 177.7 72.5688C177.326 72.5421 177.31 72.4541 177.652 72.3048L182.628 70.1128Z" fill="#523D38"/>
<path d="M53.3075 75.5688C51.1635 79.7341 49.9689 83.6728 49.7235 87.3848C49.0889 90.9635 49.6569 94.5661 51.4275 98.1928C49.8382 97.9581 48.9609 96.4488 48.7955 93.6648C48.7635 93.1581 48.6782 93.1555 48.5395 93.6568C48.4062 94.1581 48.1022 94.5048 47.6275 94.6968C47.4816 94.7574 47.3505 94.8479 47.2429 94.9625C47.1353 95.077 47.0536 95.2128 47.0035 95.3608L45.1795 100.681C45.0368 101.099 44.775 101.466 44.4266 101.736C44.0782 102.006 43.6585 102.168 43.2195 102.201C40.3955 102.417 36.3475 103.161 33.6915 102.057C33.1795 101.849 30.1235 100.881 29.9715 100.617C29.8595 100.425 29.6942 100.302 29.4755 100.249C29.0169 100.142 28.7342 100.265 28.6275 100.617C28.5209 100.953 28.2915 101.11 27.9395 101.089C27.3795 101.057 26.9582 101.307 26.6755 101.841C26.647 101.895 26.6052 101.942 26.5541 101.976C26.503 102.01 26.4441 102.031 26.3828 102.037C26.3215 102.042 26.2598 102.032 26.2034 102.008C26.1469 101.983 26.0974 101.945 26.0595 101.897C25.9208 101.721 25.8595 101.497 25.8755 101.225C27.5075 95.4115 29.6542 89.7208 32.3155 84.1528C35.9955 85.7688 39.0675 85.2168 41.5315 82.4968C43.5529 80.2675 45.8302 77.2941 48.3635 73.5768C48.5129 73.3581 48.7182 73.2675 48.9795 73.3048C50.7155 73.5528 52.2515 76.1688 53.3075 75.5688Z" fill="#BBDAB0"/>
<path d="M218.204 74.2969C229.809 93.3582 235.118 114.185 234.132 136.777C232.516 173.172 217.18 201.729 188.124 222.449C185.153 224.566 181.614 226.572 177.508 228.465C177.321 228.556 177.116 228.286 176.892 227.657C177.444 227.473 177.58 227.465 177.388 226.849C174.252 216.822 170.078 207.236 164.868 198.089C162.926 194.777 160.425 192.006 157.364 189.777C156.302 187.42 154.449 186.3 151.804 186.417L151.26 185.985C159.972 183.889 165.956 181.537 172.564 175.609C176.43 172.19 179.649 168.161 182.22 163.521C182.358 163.276 182.564 163.172 182.836 163.209C190.284 164.137 195.284 164.009 200.06 159.161C206.604 152.777 211.82 139.073 200.716 134.065C205.892 123.913 213.18 114.345 204.908 103.177C204.828 103.073 204.775 102.951 204.751 102.823C204.727 102.696 204.735 102.564 204.772 102.441C206.26 97.4649 206.502 92.4835 205.5 87.4969C205.654 87.4649 205.801 87.4169 205.94 87.3529C206.142 87.2622 206.26 87.3262 206.292 87.5449L206.332 87.8649C206.341 87.9167 206.367 87.9635 206.405 87.9971C206.443 88.0308 206.491 88.0491 206.54 88.0489H206.86C207.046 88.0489 207.14 87.9555 207.14 87.7689C207.196 83.6329 209.58 83.0489 211.772 80.4649C213.35 78.6035 215.321 77.2489 217.684 76.4009C217.844 76.3475 217.998 76.3635 218.148 76.4489L218.324 76.5609C218.395 76.615 218.485 76.6386 218.573 76.6266C218.662 76.6146 218.742 76.568 218.796 76.4969C218.85 76.4258 218.874 76.3361 218.862 76.2476C218.85 76.1591 218.803 76.079 218.732 76.0249C218.3 75.6035 218.124 75.0275 218.204 74.2969Z" fill="#67AA79"/>
<path d="M195.892 134.353C196.004 134.657 196.137 134.9 196.292 135.081C196.457 135.273 196.662 135.337 196.908 135.273L198.732 134.825C199.073 134.74 199.385 134.798 199.668 135.001C206.908 140.161 204.516 150.049 200.452 156.521C200.312 156.737 200.258 156.994 200.3 157.241C200.38 157.801 200.3 158.441 200.06 159.161C195.284 164.009 190.284 164.137 182.836 163.209C182.564 163.172 182.358 163.276 182.22 163.521C179.649 168.161 176.43 172.19 172.564 175.609C172.233 175.438 171.865 175.393 171.46 175.473C171.321 175.5 171.265 175.444 171.292 175.305L172.212 171.281C172.227 171.223 172.223 171.162 172.201 171.107C172.179 171.051 172.14 171.004 172.089 170.972C172.038 170.939 171.978 170.923 171.917 170.926C171.856 170.928 171.797 170.949 171.748 170.985L171.06 171.497C170.868 171.641 170.713 171.609 170.596 171.401C169.332 169.121 172.996 167.753 171.652 165.577C178.276 162.257 176.732 159.265 170.708 157.033C172.041 154.18 172.196 151.244 171.172 148.225L171.436 146.969C172.129 146.222 172.492 145.449 172.524 144.649C172.684 140.964 171.684 137.708 169.524 134.881C169.001 134.054 168.833 133.606 169.02 133.537C169.229 133.46 169.415 133.33 169.561 133.161C169.706 132.992 169.806 132.788 169.851 132.57C169.896 132.351 169.884 132.124 169.817 131.911C169.75 131.699 169.63 131.506 169.468 131.353C167.092 129.105 165.18 127.433 162.036 125.473C160.404 124.454 158.862 123.236 157.412 121.817L167.7 123.401C167.966 123.444 168.204 123.382 168.412 123.217C168.918 122.822 169.406 122.569 169.876 122.457L172.74 124.065C172.964 124.191 173.223 124.239 173.477 124.2C173.731 124.162 173.965 124.039 174.142 123.853C174.318 123.666 174.427 123.426 174.452 123.17C174.476 122.914 174.414 122.657 174.276 122.441C168.201 112.942 159.558 109.169 148.348 111.121C146.812 111.388 145.478 111.966 144.348 112.857C143.809 112.868 143.582 113.308 143.668 114.177C143.694 114.476 143.558 114.636 143.26 114.657C142.913 114.678 142.62 114.558 142.38 114.297C142.22 114.132 142.11 113.937 142.052 113.713C141.476 111.625 139.7 110.817 138.78 109.449C137.388 107.377 136.276 104.569 134.588 102.801C134.504 102.712 134.403 102.641 134.29 102.592C134.178 102.542 134.056 102.515 133.932 102.513C130.94 102.401 130.38 100.401 128.324 99.2569C125.481 97.6783 122.481 96.5583 119.324 95.8969C116.14 95.2249 112.58 93.8089 108.996 93.7769C108.887 93.7751 108.783 93.7386 108.697 93.6727C108.611 93.6068 108.549 93.515 108.519 93.4109C108.49 93.3068 108.494 93.196 108.533 93.0948C108.571 92.9936 108.641 92.9074 108.732 92.8489L111.284 91.2649C111.448 91.1643 111.629 91.0914 111.82 91.0489C112.209 90.9743 112.553 90.8356 112.852 90.6329C112.891 90.6085 112.92 90.5719 112.936 90.5288C112.952 90.4857 112.953 90.4385 112.94 90.3947C112.926 90.3508 112.898 90.3127 112.86 90.2864C112.823 90.26 112.778 90.2468 112.732 90.2489H112.324C112.286 90.2461 112.26 90.2296 112.249 90.2022C112.239 90.1747 112.245 90.1378 112.266 90.0973C112.287 90.0568 112.322 90.0151 112.366 89.9788C112.41 89.9425 112.46 89.9137 112.508 89.8969C112.897 89.7636 113.108 89.5049 113.14 89.1209C132.244 86.1849 159.444 87.7209 174.972 100.993C186.812 111.121 188.908 129.289 187.652 144.081C187.604 144.684 187.702 144.71 187.948 144.161C189.83 140.001 192.478 136.732 195.892 134.353ZM190.54 146.593C189.302 149.398 187.908 152.078 186.356 154.633C186.3 154.726 186.27 154.833 186.269 154.942C186.269 155.05 186.297 155.157 186.352 155.251C186.407 155.345 186.486 155.423 186.581 155.476C186.676 155.529 186.783 155.555 186.892 155.553C192.556 155.398 196.55 152.809 198.876 147.785C200.956 143.305 196.18 140.401 193.108 142.665C192.292 143.268 191.436 144.577 190.54 146.593Z" fill="#FCA85B"/>
<path d="M113.14 89.1206C113.108 89.5046 112.897 89.7633 112.508 89.8966C112.46 89.9134 112.41 89.9422 112.366 89.9785C112.322 90.0148 112.287 90.0565 112.266 90.097C112.245 90.1375 112.239 90.1744 112.25 90.2018C112.26 90.2293 112.286 90.2458 112.324 90.2486H112.732C112.778 90.2465 112.823 90.2597 112.861 90.286C112.898 90.3124 112.926 90.3505 112.94 90.3943C112.953 90.4382 112.952 90.4854 112.936 90.5285C112.92 90.5716 112.891 90.6082 112.852 90.6326C112.553 90.8353 112.209 90.9739 111.82 91.0486C111.629 91.091 111.448 91.164 111.284 91.2646L108.732 92.8486C108.641 92.9071 108.571 92.9933 108.533 93.0945C108.494 93.1957 108.49 93.3065 108.519 93.4106C108.549 93.5146 108.611 93.6064 108.697 93.6723C108.783 93.7383 108.888 93.7748 108.996 93.7766C112.58 93.8086 116.14 95.2246 119.324 95.8966C122.481 96.5579 125.481 97.6779 128.324 99.2566C130.38 100.401 130.94 102.401 133.932 102.513C134.056 102.515 134.178 102.542 134.29 102.591C134.403 102.641 134.504 102.712 134.588 102.801C136.276 104.569 137.388 107.377 138.78 109.449C139.7 110.817 141.476 111.625 142.052 113.713C142.11 113.937 142.22 114.131 142.38 114.297C142.62 114.558 142.913 114.678 143.26 114.657C143.558 114.635 143.694 114.475 143.668 114.177C143.582 113.307 143.809 112.867 144.348 112.857C143.18 115.337 144.676 117.793 147.54 117.489C147.657 117.953 147.58 118.419 147.308 118.889C147.174 119.113 147.209 119.307 147.412 119.473C149.948 121.497 153.756 121.601 157.412 121.817C158.862 123.235 160.404 124.454 162.036 125.473C165.18 127.433 167.092 129.105 169.468 131.353C169.63 131.506 169.75 131.698 169.817 131.911C169.884 132.124 169.896 132.351 169.851 132.569C169.806 132.788 169.706 132.991 169.561 133.161C169.415 133.33 169.229 133.459 169.02 133.537C168.833 133.606 169.001 134.054 169.524 134.881C160.772 126.513 153.204 126.462 146.82 134.729C143.244 140.721 142.46 154.065 153.028 153.361C157.854 153.041 162.673 152.641 167.484 152.161C169.974 151.915 171.204 150.603 171.172 148.225C172.196 151.243 172.041 154.179 170.708 157.033C164.852 154.825 155.052 154.721 151.212 160.785C151.052 161.035 151.014 161.299 151.1 161.577C152.996 168.081 166.676 167.193 171.652 165.577C172.996 167.753 169.332 169.121 170.596 171.401C170.713 171.609 170.868 171.641 171.06 171.497L171.748 170.985C171.797 170.948 171.856 170.928 171.917 170.925C171.978 170.923 172.038 170.939 172.089 170.972C172.14 171.004 172.179 171.051 172.201 171.106C172.223 171.162 172.227 171.223 172.212 171.281L171.292 175.305C171.265 175.443 171.321 175.499 171.46 175.473C171.865 175.393 172.233 175.438 172.564 175.609C165.956 181.537 159.972 183.889 151.26 185.985L139.884 187.585C132.742 188.705 125.465 188.947 118.052 188.313L103.332 185.817C103.305 185.715 103.1 185.625 102.716 185.545C90.6997 182.145 81.4357 173.633 75.0277 162.737C74.8784 162.491 74.6703 162.417 74.4037 162.513C70.665 163.873 67.1424 163.969 63.8357 162.801C59.2437 158.331 56.2544 154.225 54.8677 150.481C51.8277 142.267 54.4117 137.118 62.6197 135.033C65.9797 137.449 68.3103 140.793 69.6117 145.065C69.7823 145.641 69.8623 145.627 69.8517 145.025C69.6703 136.246 70.7743 127.395 73.1637 118.473C77.8997 100.777 95.9477 91.5446 113.14 89.1206ZM85.2277 118.681C83.4997 120.609 82.3237 121.617 82.5237 123.857C82.5366 124.009 82.5892 124.156 82.6763 124.282C82.7633 124.408 82.8819 124.51 83.0201 124.576C83.1583 124.642 83.3114 124.671 83.4643 124.66C83.6171 124.649 83.7645 124.598 83.8917 124.513C87.9317 121.841 92.7957 117.873 97.5317 117.273C100.758 116.862 104.492 116.915 108.732 117.433C112.404 117.889 114.068 112.257 109.452 111.257C99.6383 109.123 91.5637 111.598 85.2277 118.681ZM85.4837 147.809C86.6357 153.665 93.6677 153.457 98.1957 153.809C104.38 154.289 109.932 154.609 111.964 147.881C113.484 142.862 112.401 138.259 108.716 134.073C104.82 126.777 94.6437 128.401 89.6437 133.185C85.4037 137.243 84.017 142.118 85.4837 147.809ZM64.0517 142.297C60.3397 140.833 57.4117 144.545 58.3957 148.001C59.7637 152.777 65.8117 155.313 70.4117 155.113C70.5388 155.106 70.6621 155.066 70.7683 154.995C70.8745 154.925 70.9597 154.828 71.0147 154.713C71.0697 154.599 71.0925 154.473 71.0807 154.347C71.0689 154.222 71.023 154.102 70.9477 154.001C68.3477 150.489 67.4677 143.649 64.0517 142.297ZM123.668 153.369C127.708 153.457 124.724 158.097 122.38 158.689C122.156 158.747 121.988 158.873 121.876 159.065C119.708 162.649 129.348 161.801 128.772 155.921C128.516 153.361 126.012 150.873 123.5 152.881C123.454 152.915 123.421 152.963 123.405 153.018C123.388 153.073 123.389 153.131 123.408 153.185C123.426 153.239 123.461 153.286 123.508 153.319C123.555 153.352 123.611 153.369 123.668 153.369ZM124.513 156.125C124.557 155.978 124.547 155.817 124.484 155.65C124.42 155.483 124.305 155.314 124.144 155.152C123.983 154.991 123.78 154.84 123.545 154.709C123.311 154.577 123.051 154.467 122.779 154.386C122.231 154.221 121.669 154.181 121.218 154.275C120.767 154.368 120.464 154.587 120.375 154.884C120.331 155.031 120.341 155.192 120.404 155.359C120.467 155.526 120.583 155.695 120.743 155.857C120.904 156.018 121.108 156.169 121.342 156.301C121.576 156.432 121.836 156.542 122.108 156.623C122.657 156.788 123.218 156.828 123.669 156.735C124.12 156.641 124.424 156.422 124.513 156.125ZM89.8677 167.209C94.6037 168.009 98.8464 167.225 102.596 164.857C104.66 163.553 105.284 161.217 103.204 159.577C98.697 156.009 93.825 155.355 88.5877 157.617C88.545 156.854 88.305 156.275 87.8677 155.881C87.6757 155.71 87.457 155.667 87.2117 155.753C84.3743 156.723 82.1104 158.435 80.4197 160.889C80.3369 161.007 80.2806 161.142 80.2544 161.285C80.2281 161.429 80.2327 161.577 80.2677 161.721C80.7477 163.657 82.5477 168.361 85.3317 167.033C85.4556 166.976 85.5913 166.949 85.7276 166.954C85.8638 166.96 85.9968 166.998 86.1157 167.065C88.1744 168.249 89.425 168.297 89.8677 167.209ZM122.98 179.489C130.409 181.835 136.404 180.614 140.964 175.825C141.588 174.811 141.956 173.665 142.068 172.385C142.089 172.134 141.982 172.051 141.748 172.137C134.46 174.745 124.956 175.241 118.052 171.025C117.822 170.886 117.713 170.95 117.724 171.217C117.862 175.233 119.614 177.99 122.98 179.489Z" fill="#FCB468"/>
<path d="M51.4275 98.1927L53.3795 101.257C50.4462 104.686 49.2489 108.39 49.7875 112.369C49.7875 115.377 50.5742 118.217 52.1476 120.889L54.4995 126.673L52.7635 124.201C52.6628 124.056 52.529 123.937 52.3732 123.854C52.2174 123.771 52.044 123.726 51.8669 123.723C51.6899 123.72 51.5144 123.759 51.3546 123.836C51.1949 123.914 51.0554 124.028 50.9476 124.169C48.5476 127.342 45.5422 129.782 41.9315 131.489C41.7022 131.595 41.4755 131.59 41.2515 131.473C34.8755 128.081 37.0835 122.641 38.5315 117.257C38.6342 116.872 38.6128 116.464 38.4704 116.092C38.328 115.719 38.0719 115.402 37.7389 115.184C37.4058 114.966 37.0129 114.86 36.6164 114.88C36.2198 114.901 35.8401 115.046 35.5315 115.297C32.8329 117.467 30.0382 119.462 27.1476 121.281C26.8862 121.446 26.6622 121.406 26.4755 121.161C26.3155 120.947 26.2462 120.699 26.2675 120.417C26.2782 120.23 26.2435 120.051 26.1635 119.881C25.8755 119.299 25.4995 119.286 25.0355 119.841C24.8755 120.038 24.7449 120.251 24.6436 120.481C24.0409 121.942 23.1662 122.771 22.0195 122.969C22.5475 115.529 23.8329 108.281 25.8755 101.225C25.8595 101.497 25.9209 101.721 26.0595 101.897C26.0974 101.945 26.1469 101.983 26.2034 102.008C26.2598 102.032 26.3215 102.042 26.3828 102.037C26.4441 102.031 26.503 102.01 26.5541 101.976C26.6052 101.942 26.647 101.895 26.6755 101.841C26.9582 101.307 27.3796 101.057 27.9396 101.089C28.2916 101.11 28.5209 100.953 28.6275 100.617C28.7342 100.265 29.0169 100.142 29.4755 100.249C29.6942 100.302 29.8595 100.425 29.9715 100.617C30.1235 100.881 33.1796 101.849 33.6916 102.057C36.3476 103.161 40.3955 102.417 43.2195 102.201C43.6585 102.168 44.0782 102.006 44.4266 101.736C44.775 101.465 45.0368 101.099 45.1795 100.681L47.0035 95.3607C47.0536 95.2127 47.1353 95.0769 47.2429 94.9624C47.3505 94.8479 47.4816 94.7573 47.6275 94.6967C48.1022 94.5047 48.4062 94.1581 48.5396 93.6567C48.6782 93.1554 48.7636 93.1581 48.7956 93.6647C48.9609 96.4487 49.8382 97.9581 51.4275 98.1927Z" fill="#9CC49A"/>
<path d="M53.3795 101.257C55.1075 101.945 56.4354 102.838 57.3634 103.937C57.5608 104.172 57.6088 104.433 57.5074 104.721C55.9394 109.225 53.2035 113.753 52.6755 119.481C52.6168 120.126 52.4808 120.142 52.2674 119.529L49.7875 112.369C49.2488 108.39 50.4461 104.686 53.3795 101.257Z" fill="#472D30"/>
<path d="M85.2276 118.681C91.5636 111.598 99.6382 109.124 109.452 111.257C114.068 112.257 112.404 117.889 108.732 117.433C104.492 116.916 100.758 116.862 97.5316 117.273C92.7956 117.873 87.9316 121.841 83.8916 124.513C83.7644 124.598 83.6171 124.649 83.4642 124.66C83.3113 124.671 83.1582 124.642 83.02 124.576C82.8818 124.51 82.7632 124.409 82.6762 124.282C82.5891 124.156 82.5365 124.01 82.5236 123.857C82.3236 121.617 83.4996 120.609 85.2276 118.681Z" fill="#070608"/>
<path d="M169.876 122.457C162.996 116.841 156.948 116.913 147.54 117.489C144.676 117.793 143.18 115.337 144.348 112.857C145.478 111.966 146.812 111.387 148.348 111.121C159.558 109.169 168.201 112.942 174.276 122.441C174.414 122.657 174.476 122.914 174.452 123.17C174.427 123.425 174.318 123.666 174.142 123.852C173.965 124.039 173.731 124.161 173.477 124.2C173.223 124.238 172.964 124.191 172.74 124.065L169.876 122.457Z" fill="#070608"/>
<path d="M54.4997 126.673C55.913 128.795 56.7957 131.273 57.1477 134.105C52.0917 136.377 49.857 140.241 50.4437 145.697C49.4997 144.886 48.825 145.302 48.4197 146.945C48.3504 147.222 48.1877 147.419 47.9317 147.537C45.857 148.507 44.137 149.913 42.7717 151.753C42.604 151.973 42.3837 152.147 42.1317 152.257C40.2597 153.057 39.049 154.451 38.4997 156.441C38.2917 157.198 37.2704 158.243 35.4357 159.577C35.2277 159.726 34.9984 159.809 34.7477 159.825C31.1477 160.041 30.3877 162.337 28.3557 164.401C28.265 164.491 28.1584 164.529 28.0357 164.513L27.5637 164.449C27.2703 164.406 27.1343 164.531 27.1557 164.825C27.1877 165.289 27.0117 165.523 26.6277 165.529C22.3077 151.529 20.7717 137.342 22.0197 122.969C23.1663 122.771 24.041 121.942 24.6437 120.481C24.745 120.251 24.8757 120.038 25.0357 119.841C25.4997 119.286 25.8757 119.299 26.1637 119.881C26.2437 120.051 26.2783 120.23 26.2677 120.417C26.2463 120.699 26.3157 120.947 26.4757 121.161C26.6624 121.406 26.8864 121.446 27.1477 121.281C30.0384 119.462 32.833 117.467 35.5317 115.297C35.8402 115.046 36.22 114.901 36.6165 114.88C37.013 114.86 37.406 114.966 37.739 115.184C38.0721 115.402 38.3282 115.719 38.4706 116.092C38.613 116.464 38.6344 116.872 38.5317 117.257C37.0837 122.641 34.8757 128.081 41.2517 131.473C41.4757 131.59 41.7024 131.595 41.9317 131.489C45.5424 129.782 48.5477 127.342 50.9477 124.169C51.0556 124.028 51.195 123.914 51.3548 123.836C51.5146 123.759 51.6901 123.72 51.8671 123.723C52.0441 123.726 52.2176 123.771 52.3734 123.854C52.5292 123.937 52.6629 124.056 52.7637 124.201L54.4997 126.673Z" fill="#83B890"/>
<path d="M169.876 122.457C169.407 122.569 168.919 122.822 168.412 123.217C168.204 123.382 167.967 123.444 167.7 123.401L157.412 121.817C153.756 121.601 149.948 121.497 147.412 119.473C147.209 119.308 147.175 119.113 147.308 118.889C147.58 118.42 147.657 117.953 147.54 117.489C156.948 116.913 162.996 116.841 169.876 122.457Z" fill="#F99B63"/>
<path d="M169.523 134.881C171.683 137.708 172.683 140.964 172.523 144.649C172.491 145.449 172.129 146.222 171.435 146.969C171.083 133.593 157.843 126.873 146.819 134.729C153.203 126.462 160.771 126.513 169.523 134.881Z" fill="#070608"/>
<path d="M108.715 134.073C98.6914 127.665 88.0114 133.689 86.1794 144.937C86.0247 145.87 85.7927 146.827 85.4834 147.809C84.0167 142.118 85.4034 137.243 89.6434 133.185C94.6434 128.401 104.819 126.777 108.715 134.073Z" fill="#0E040B"/>
<path d="M171.436 146.969L171.172 148.225C171.204 150.603 169.974 151.915 167.484 152.161C162.673 152.641 157.854 153.041 153.028 153.361C142.46 154.065 143.244 140.721 146.82 134.729C157.844 126.873 171.084 133.593 171.436 146.969ZM153.6 151.733C155.361 151.829 157.094 151.088 158.419 149.673C159.744 148.259 160.553 146.288 160.666 144.192C160.78 142.097 160.189 140.05 159.024 138.501C157.86 136.952 156.216 136.028 154.456 135.932C152.695 135.837 150.962 136.578 149.636 137.992C148.311 139.406 147.503 141.378 147.39 143.473C147.276 145.569 147.867 147.616 149.031 149.165C150.196 150.714 151.839 151.638 153.6 151.733Z" fill="#EBE1DA"/>
<path d="M108.715 134.073C112.401 138.259 113.483 142.862 111.963 147.881C109.931 154.609 104.379 154.289 98.1954 153.809C93.6674 153.457 86.6354 153.665 85.4834 147.809C85.7927 146.827 86.0247 145.87 86.1794 144.937C88.0114 133.689 98.6914 127.665 108.715 134.073ZM101.436 151.931C103.197 152.085 104.957 151.415 106.329 150.068C107.702 148.721 108.574 146.808 108.754 144.75C108.934 142.691 108.407 140.655 107.29 139.091C106.172 137.526 104.555 136.56 102.795 136.406C101.034 136.252 99.2737 136.922 97.9014 138.269C96.529 139.616 95.6569 141.529 95.4768 143.588C95.2967 145.647 95.8233 147.682 96.941 149.247C98.0586 150.811 99.6756 151.777 101.436 151.931Z" fill="#EBE1DA"/>
<path d="M62.6195 135.033C54.4115 137.118 51.8275 142.268 54.8675 150.481C56.2542 154.225 59.2435 158.332 63.8355 162.801C56.4595 160.156 51.9955 154.454 50.4435 145.697C49.8569 140.241 52.0915 136.377 57.1475 134.105C59.2862 133.55 61.1102 133.86 62.6195 135.033Z" fill="#FCE8A3"/>
<path d="M200.716 134.065C211.82 139.073 206.604 152.777 200.06 159.161C200.3 158.441 200.38 157.801 200.3 157.241C200.258 156.994 200.312 156.737 200.452 156.521C204.516 150.049 206.908 140.161 199.668 135.001C199.385 134.798 199.073 134.739 198.732 134.825L196.908 135.273C196.662 135.337 196.457 135.273 196.292 135.081C196.137 134.899 196.004 134.657 195.892 134.353C197.684 133.766 199.292 133.67 200.716 134.065Z" fill="#FCE8A3"/>
<path d="M153.6 151.733C151.839 151.638 150.196 150.714 149.031 149.165C147.866 147.616 147.276 145.569 147.389 143.473C147.503 141.378 148.311 139.406 149.636 137.992C150.961 136.578 152.695 135.837 154.455 135.932C156.216 136.028 157.859 136.952 159.024 138.501C160.189 140.05 160.779 142.097 160.666 144.192C160.552 146.288 159.744 148.259 158.419 149.674C157.094 151.088 155.36 151.829 153.6 151.733ZM155.124 142.329C155.076 135.289 147.948 140.545 151.492 143.041C152.718 143.905 153.825 143.9 154.811 143.025C155.019 142.838 155.124 142.606 155.124 142.329Z" fill="#070608"/>
<path d="M101.437 151.931C99.6759 151.777 98.0589 150.812 96.9413 149.247C95.8236 147.682 95.2969 145.647 95.477 143.588C95.6572 141.529 96.5293 139.616 97.9017 138.269C99.274 136.923 101.034 136.252 102.795 136.406C104.555 136.561 106.172 137.526 107.29 139.091C108.408 140.655 108.934 142.691 108.754 144.75C108.574 146.808 107.702 148.721 106.33 150.068C104.957 151.415 103.197 152.085 101.437 151.931ZM103.302 143.177C103.651 142.715 103.778 142.114 103.654 141.507C103.53 140.9 103.166 140.336 102.641 139.939C102.381 139.742 102.09 139.593 101.784 139.499C101.478 139.405 101.163 139.368 100.857 139.391C100.551 139.414 100.26 139.496 100 139.632C99.7411 139.768 99.5187 139.956 99.3457 140.185C98.9963 140.647 98.8696 141.248 98.9935 141.855C99.1173 142.462 99.4817 143.026 100.006 143.423C100.266 143.619 100.557 143.769 100.863 143.863C101.17 143.957 101.485 143.993 101.791 143.97C102.097 143.947 102.388 143.866 102.647 143.729C102.906 143.593 103.129 143.405 103.302 143.177Z" fill="#070608"/>
<path d="M151.492 143.041C147.948 140.545 155.076 135.289 155.124 142.329C155.124 142.606 155.02 142.838 154.812 143.025C153.825 143.899 152.718 143.905 151.492 143.041ZM153.252 140.393C153.281 140.319 153.282 140.238 153.254 140.164C153.225 140.09 153.17 140.03 153.099 139.995C153.028 139.961 152.946 139.954 152.87 139.978C152.795 140.001 152.731 140.052 152.692 140.121C152.345 140.67 152.294 141.278 152.54 141.945C152.614 142.147 152.758 142.249 152.972 142.249H153.316C153.742 142.249 153.809 142.094 153.516 141.785C153.153 141.401 153.065 140.937 153.252 140.393Z" fill="#EBE1DA"/>
<path d="M103.302 143.177C103.129 143.406 102.906 143.593 102.647 143.73C102.388 143.866 102.097 143.948 101.791 143.97C101.485 143.993 101.17 143.957 100.864 143.863C100.557 143.769 100.266 143.619 100.006 143.423C99.4818 143.026 99.1175 142.462 98.9936 141.855C98.8697 141.248 98.9965 140.647 99.3459 140.185C99.5189 139.956 99.7413 139.768 100.001 139.632C100.26 139.496 100.551 139.414 100.857 139.391C101.163 139.369 101.478 139.405 101.784 139.499C102.09 139.593 102.382 139.743 102.641 139.939C103.166 140.336 103.53 140.9 103.654 141.507C103.778 142.114 103.651 142.715 103.302 143.177ZM101.108 140.937C100.788 140.841 100.631 140.961 100.636 141.297C100.652 141.926 100.996 142.358 101.668 142.593C101.908 142.673 102.047 142.585 102.084 142.329C102.18 141.62 101.854 141.156 101.108 140.937Z" fill="#EBE1DA"/>
<path d="M153.252 140.393C153.065 140.937 153.153 141.401 153.516 141.785C153.809 142.094 153.742 142.249 153.316 142.249H152.972C152.758 142.249 152.614 142.147 152.54 141.945C152.294 141.278 152.345 140.67 152.692 140.121C152.731 140.052 152.795 140.001 152.87 139.978C152.946 139.954 153.028 139.961 153.099 139.995C153.17 140.03 153.225 140.09 153.254 140.164C153.282 140.238 153.281 140.32 153.252 140.393Z" fill="#754F41"/>
<path d="M101.108 140.937C101.855 141.155 102.18 141.619 102.084 142.329C102.047 142.585 101.908 142.673 101.668 142.593C100.996 142.358 100.652 141.926 100.636 141.297C100.631 140.961 100.788 140.841 101.108 140.937Z" fill="#754F41"/>
<path d="M58.3955 148.001C57.4115 144.545 60.3395 140.833 64.0515 142.297C67.4675 143.649 68.3475 150.489 70.9475 154.001C71.0228 154.102 71.0687 154.222 71.0805 154.347C71.0923 154.473 71.0695 154.599 71.0145 154.713C70.9595 154.828 70.8743 154.925 70.7681 154.995C70.6619 155.066 70.5386 155.106 70.4115 155.113C65.8115 155.313 59.7635 152.777 58.3955 148.001Z" fill="#F98759"/>
<path d="M193.108 142.665C196.18 140.401 200.956 143.305 198.876 147.785C196.55 152.809 192.556 155.398 186.892 155.553C186.783 155.555 186.676 155.529 186.581 155.476C186.486 155.423 186.407 155.345 186.352 155.251C186.297 155.157 186.269 155.05 186.27 154.942C186.27 154.833 186.3 154.726 186.356 154.633C187.908 152.078 189.302 149.398 190.54 146.593C191.436 144.577 192.292 143.268 193.108 142.665Z" fill="#ED6735"/>
<path d="M50.4439 145.697C51.9959 154.454 56.4599 160.155 63.8359 162.801C67.1426 163.969 70.6652 163.873 74.4039 162.513C74.6706 162.417 74.8786 162.491 75.0279 162.737C81.4359 173.633 90.6999 182.145 102.716 185.545C102.609 185.737 102.577 185.931 102.62 186.129C102.684 186.395 102.615 186.625 102.412 186.817L98.6519 190.401L98.3239 190.289C98.0573 190.193 97.8199 190.241 97.6119 190.433C87.7559 199.489 86.3479 217.353 85.8919 229.873C85.8908 229.905 85.8983 229.937 85.9136 229.966C85.9289 229.995 85.9515 230.019 85.9791 230.036C86.0067 230.053 86.0384 230.062 86.0709 230.063C86.1033 230.064 86.1354 230.056 86.1639 230.041C86.3559 229.934 86.5159 229.798 86.6439 229.633L86.8119 231.353L91.4199 234.009C87.5533 232.969 83.5826 231.334 79.5079 229.105C53.3959 214.822 35.7693 193.63 26.6279 165.529C27.0119 165.523 27.1879 165.289 27.1559 164.825C27.1346 164.531 27.2706 164.406 27.5639 164.449L28.0359 164.513C28.1586 164.529 28.2652 164.491 28.3559 164.401C30.3879 162.337 31.1479 160.041 34.7479 159.825C34.9986 159.809 35.2279 159.726 35.4359 159.577C37.2706 158.243 38.2919 157.198 38.4999 156.441C39.0492 154.451 40.2599 153.057 42.1319 152.257C42.3839 152.147 42.6042 151.973 42.7719 151.753C44.1373 149.913 45.8573 148.507 47.9319 147.537C48.1879 147.419 48.3506 147.222 48.4199 146.945C48.8253 145.302 49.4999 144.886 50.4439 145.697Z" fill="#67AA79"/>
<path d="M122.38 158.689C124.724 158.097 127.708 153.457 123.668 153.369C123.611 153.369 123.555 153.352 123.508 153.319C123.462 153.286 123.427 153.239 123.408 153.185C123.389 153.131 123.388 153.073 123.405 153.018C123.421 152.964 123.454 152.916 123.5 152.881C126.012 150.873 128.516 153.361 128.772 155.921C129.348 161.801 119.708 162.649 121.876 159.065C121.988 158.873 122.156 158.748 122.38 158.689Z" fill="#FB9E50"/>
<path d="M122.108 156.624C123.251 156.966 124.327 156.743 124.513 156.126C124.698 155.508 123.922 154.729 122.779 154.386C121.637 154.043 120.56 154.266 120.375 154.884C120.189 155.502 120.965 156.281 122.108 156.624Z" fill="#FCE8A3"/>
<path d="M88.5874 157.617C85.9901 158.737 84.4327 160.42 83.9154 162.665C83.8514 162.937 83.8967 163.19 84.0514 163.425C85.3581 165.468 87.2968 166.729 89.8674 167.209C89.4248 168.297 88.1741 168.249 86.1154 167.065C85.9965 166.998 85.8635 166.96 85.7273 166.955C85.591 166.949 85.4554 166.976 85.3314 167.033C82.5474 168.361 80.7474 163.657 80.2674 161.721C80.2324 161.578 80.2279 161.429 80.2541 161.286C80.2803 161.142 80.3367 161.007 80.4194 160.889C82.1101 158.436 84.3741 156.724 87.2114 155.753C87.4567 155.668 87.6754 155.71 87.8674 155.881C88.3048 156.276 88.5448 156.854 88.5874 157.617Z" fill="#FED987"/>
<path d="M170.708 157.033C176.732 159.265 178.276 162.257 171.652 165.577C166.676 167.193 152.996 168.081 151.1 161.577C151.014 161.299 151.052 161.035 151.212 160.785C155.052 154.721 164.852 154.825 170.708 157.033Z" fill="#F98759"/>
<path d="M89.8678 167.209C87.2971 166.729 85.3584 165.468 84.0518 163.425C83.8971 163.19 83.8518 162.937 83.9158 162.665C84.4331 160.42 85.9905 158.737 88.5878 157.617C93.8252 155.356 98.6971 156.009 103.204 159.577C105.284 161.217 104.66 163.553 102.596 164.857C98.8465 167.225 94.6038 168.009 89.8678 167.209Z" fill="#F99B63"/>
<path d="M140.963 175.825C136.121 176.006 131.505 175.993 127.115 175.785C125.798 175.721 124.326 176.31 122.699 177.553C122.661 177.582 122.629 177.62 122.607 177.663C122.585 177.706 122.573 177.754 122.573 177.803C122.572 177.851 122.582 177.899 122.603 177.943C122.623 177.987 122.654 178.026 122.691 178.057C123.715 178.894 123.811 179.371 122.979 179.489C119.614 177.99 117.862 175.233 117.723 171.217C117.713 170.95 117.822 170.886 118.051 171.025C124.955 175.241 134.459 174.745 141.747 172.137C141.982 172.051 142.089 172.134 142.067 172.385C141.955 173.665 141.587 174.811 140.963 175.825Z" fill="#891814"/>
<path d="M140.964 175.825C136.404 180.614 130.409 181.835 122.98 179.489C123.812 179.371 123.716 178.894 122.692 178.057C122.654 178.026 122.623 177.987 122.603 177.943C122.582 177.899 122.572 177.851 122.573 177.803C122.574 177.754 122.585 177.706 122.607 177.663C122.629 177.62 122.661 177.582 122.7 177.553C124.326 176.31 125.798 175.721 127.116 175.785C131.505 175.993 136.121 176.006 140.964 175.825Z" fill="#CF3722"/>
<path d="M102.715 185.545C103.099 185.625 103.305 185.716 103.331 185.817C103.203 185.902 103.113 185.998 103.059 186.105C103.032 186.161 103.019 186.223 103.02 186.285C103.021 186.347 103.036 186.408 103.065 186.463C103.094 186.518 103.135 186.566 103.185 186.602C103.236 186.639 103.294 186.663 103.355 186.673L105.627 187.049C105.932 187.096 106.223 187.22 106.475 187.409C108.699 189.097 110.971 190.241 113.203 192.185C116.755 195.284 121.011 197.001 125.971 197.337C126.089 197.46 126.142 197.766 126.131 198.257C126.126 198.513 126.251 198.625 126.507 198.593L130.419 198.145C130.55 198.13 130.675 198.086 130.787 198.017C130.899 197.948 130.995 197.855 131.067 197.745L131.507 197.081C131.523 197.054 131.521 197.033 131.499 197.017C131.419 196.937 131.337 196.857 131.251 196.777C131.097 196.644 131.07 196.489 131.171 196.313C131.225 196.212 131.313 196.132 131.435 196.073C133.395 199.305 135.939 197.617 138.875 196.257C143.339 194.188 147.174 191.265 150.379 187.489C150.721 187.089 151.195 186.732 151.803 186.417C154.449 186.3 156.302 187.42 157.363 189.777C153.123 196.716 147.651 202.601 140.947 207.433C140.72 207.598 140.438 207.667 140.161 207.627C139.884 207.587 139.635 207.439 139.467 207.217L134.491 200.665C134.054 200.094 133.894 200.164 134.011 200.873C134.227 202.185 134.603 203.513 134.571 204.745C134.225 216.441 134.067 228.241 134.099 240.145L130.515 240.377C130.723 240.121 130.825 239.844 130.819 239.545C130.809 239.241 130.651 239.078 130.347 239.057C128.369 238.913 126.55 238.305 124.891 237.233C124.838 237.197 124.777 237.176 124.714 237.171C124.65 237.167 124.586 237.178 124.527 237.206C124.469 237.233 124.418 237.275 124.38 237.327C124.341 237.379 124.316 237.441 124.307 237.505L123.947 240.265L122.283 240.193C122.107 238.214 122.03 236.966 122.051 236.449C122.382 227.265 122.617 218.081 122.755 208.897C122.795 206.081 123.235 203.609 123.915 201.017C123.932 200.942 123.924 200.863 123.89 200.793C123.857 200.723 123.801 200.667 123.732 200.632C123.663 200.598 123.584 200.588 123.508 200.604C123.433 200.62 123.365 200.661 123.315 200.721C122.043 202.305 117.859 208.465 115.539 207.249C109.683 204.169 103.811 197.241 99.4194 191.721C99.0194 191.465 98.7634 191.025 98.6514 190.401L102.411 186.817C102.614 186.625 102.683 186.396 102.619 186.129C102.577 185.932 102.609 185.737 102.715 185.545ZM125.451 208.097L130.835 208.305C130.911 208.309 130.986 208.296 131.056 208.268C131.126 208.24 131.189 208.198 131.242 208.144C131.295 208.089 131.336 208.024 131.362 207.953C131.389 207.881 131.4 207.805 131.395 207.729L131.107 200.985C131.091 200.708 130.945 200.577 130.667 200.593L126.387 200.913C126.051 200.94 125.809 201.102 125.659 201.401C124.678 203.332 124.409 205.393 124.851 207.585C124.879 207.726 124.953 207.853 125.062 207.946C125.171 208.039 125.308 208.092 125.451 208.097ZM124.771 211.129L124.643 216.569C124.642 216.609 124.649 216.649 124.663 216.686C124.678 216.723 124.699 216.757 124.727 216.786C124.754 216.815 124.787 216.839 124.824 216.855C124.86 216.871 124.899 216.88 124.939 216.881L125.083 216.889C126.635 216.927 128.127 216.85 129.229 216.676C130.332 216.502 130.956 216.245 130.963 215.961L131.059 212.057C131.064 211.916 130.916 211.773 130.625 211.635C130.334 211.498 129.906 211.369 129.364 211.256C128.822 211.143 128.178 211.048 127.468 210.977C126.759 210.906 125.997 210.86 125.227 210.841L125.083 210.833C125.043 210.832 125.004 210.839 124.966 210.853C124.929 210.867 124.895 210.889 124.866 210.916C124.837 210.944 124.814 210.977 124.798 211.013C124.781 211.05 124.772 211.089 124.771 211.129ZM125.747 220.721C125.651 220.689 125.555 220.66 125.459 220.633C125.193 220.558 125.062 220.657 125.067 220.929L125.099 224.633C125.099 224.953 125.246 225.182 125.539 225.321C126.915 225.977 128.289 226.038 129.659 225.505C129.931 225.398 130.091 225.204 130.139 224.921C130.619 222.361 128.699 219.977 126.011 220.729C125.921 220.756 125.833 220.753 125.747 220.721ZM129.315 228.921H126.195C126.032 228.92 125.869 228.951 125.717 229.013C125.565 229.075 125.427 229.166 125.311 229.281C125.194 229.396 125.101 229.533 125.037 229.684C124.974 229.835 124.94 229.997 124.939 230.161V233.417C124.937 234.005 125.208 234.569 125.693 234.986C126.178 235.403 126.836 235.639 127.523 235.641H127.955C128.296 235.642 128.633 235.586 128.948 235.475C129.263 235.365 129.549 235.203 129.791 234.998C130.032 234.793 130.224 234.549 130.355 234.28C130.486 234.012 130.554 233.724 130.555 233.433V230.177C130.556 230.013 130.525 229.851 130.463 229.699C130.402 229.547 130.311 229.409 130.196 229.292C130.08 229.175 129.943 229.083 129.792 229.019C129.641 228.955 129.479 228.922 129.315 228.921Z" fill="#1F7F5B"/>
<path d="M103.331 185.817L118.051 188.313C118.313 188.948 118.718 189.489 119.267 189.937C121.635 191.913 125.179 194.209 125.971 197.337C121.011 197.001 116.755 195.284 113.203 192.185C110.971 190.241 108.699 189.097 106.475 187.409C106.223 187.22 105.932 187.096 105.627 187.049L103.355 186.673C103.294 186.663 103.236 186.639 103.186 186.602C103.135 186.566 103.094 186.518 103.065 186.463C103.037 186.408 103.021 186.347 103.02 186.285C103.019 186.222 103.033 186.161 103.059 186.105C103.113 185.998 103.203 185.902 103.331 185.817Z" fill="#15483B"/>
<path d="M151.26 185.985L151.804 186.417C151.196 186.732 150.721 187.089 150.38 187.489C147.174 191.265 143.34 194.188 138.876 196.257C135.94 197.617 133.396 199.305 131.436 196.073C130.993 195.23 131.036 194.636 131.564 194.289C133.937 192.732 136.225 190.99 138.428 189.065C139.11 188.825 139.596 188.332 139.884 187.585L151.26 185.985Z" fill="#15483B"/>
<path d="M139.884 187.585C139.596 188.331 139.11 188.825 138.428 189.065L133.82 191.209C133.58 191.321 133.326 191.355 133.06 191.313C128.908 190.689 124.06 192.761 120.396 190.049C120.004 189.761 119.692 189.777 119.268 189.937C118.718 189.489 118.313 188.947 118.052 188.313C125.465 188.947 132.742 188.705 139.884 187.585Z" fill="#B7291B"/>
<path d="M138.428 189.065C136.225 190.99 133.937 192.732 131.564 194.289C131.036 194.636 130.993 195.23 131.436 196.073C131.313 196.132 131.225 196.212 131.172 196.313C131.07 196.489 131.097 196.644 131.252 196.777C131.337 196.857 131.42 196.937 131.5 197.017C131.521 197.033 131.524 197.054 131.508 197.081L131.068 197.745C130.995 197.855 130.899 197.948 130.787 198.017C130.675 198.086 130.55 198.13 130.42 198.145L126.508 198.593C126.252 198.625 126.126 198.513 126.132 198.257C126.142 197.766 126.089 197.46 125.972 197.337C125.18 194.209 121.636 191.913 119.268 189.937C119.692 189.777 120.004 189.761 120.396 190.049C124.06 192.761 128.908 190.689 133.06 191.313C133.326 191.356 133.58 191.321 133.82 191.209L138.428 189.065Z" fill="#B79623"/>
<path d="M157.364 189.777C160.425 192.006 162.927 194.777 164.868 198.089L173.708 219.337C173.74 219.406 173.751 219.478 173.74 219.553C173.687 219.873 173.716 219.9 173.828 219.633C173.017 220.22 172.393 220.894 171.956 221.657L165.772 228.009C165.484 228.308 165.321 228.249 165.284 227.833L163.476 206.361C163.476 206.329 163.463 206.299 163.441 206.276C163.418 206.253 163.388 206.241 163.356 206.241C163.324 206.241 163.294 206.253 163.271 206.276C163.249 206.299 163.236 206.329 163.236 206.361L161.924 234.505L152.5 237.281C146.622 238.668 140.489 239.622 134.1 240.145C134.068 228.241 134.225 216.441 134.572 204.745C134.604 203.513 134.228 202.185 134.012 200.873C133.895 200.164 134.055 200.094 134.492 200.665L139.468 207.217C139.636 207.439 139.885 207.586 140.161 207.627C140.438 207.667 140.721 207.598 140.948 207.433C147.652 202.601 153.124 196.716 157.364 189.777Z" fill="#54B685"/>
<path d="M98.6517 190.401C98.7637 191.025 99.0197 191.465 99.4197 191.721C94.5824 196.841 91.6277 202.755 90.5557 209.465C90.5397 209.561 90.481 209.619 90.3797 209.641C90.2997 209.651 90.2384 209.678 90.1957 209.721C89.8811 210.025 89.7157 210.214 89.6997 210.289L88.0837 219.185L86.6437 229.633C86.5157 229.798 86.3557 229.934 86.1637 230.041C86.1352 230.056 86.1031 230.064 86.0706 230.063C86.0382 230.062 86.0065 230.053 85.9789 230.036C85.9512 230.019 85.9287 229.995 85.9133 229.966C85.898 229.937 85.8906 229.905 85.8917 229.873C86.3477 217.353 87.7557 199.489 97.6117 190.433C97.8197 190.241 98.057 190.193 98.3237 190.289L98.6517 190.401Z" fill="#9CC49A"/>
<path d="M99.4195 191.721C103.811 197.241 109.684 204.169 115.54 207.249C117.86 208.465 122.043 202.305 123.315 200.721C123.365 200.661 123.433 200.62 123.508 200.604C123.584 200.588 123.663 200.598 123.732 200.632C123.801 200.666 123.857 200.723 123.891 200.793C123.924 200.862 123.933 200.941 123.915 201.017C123.235 203.609 122.795 206.081 122.755 208.897C122.617 218.081 122.382 227.265 122.051 236.449C122.03 236.966 122.107 238.214 122.283 240.193C114.177 239.761 106.182 238.438 98.2995 236.225L96.6275 211.729C96.6275 211.707 96.6168 211.691 96.5955 211.681C96.5262 211.654 96.4568 211.654 96.3875 211.681C96.3022 211.713 96.2568 211.777 96.2515 211.873L95.2275 225.649C95.2008 225.963 95.0702 226.014 94.8355 225.801L89.1635 220.633L88.0835 219.185L89.6995 210.289C89.7155 210.214 89.8808 210.025 90.1955 209.721C90.2382 209.678 90.2995 209.651 90.3795 209.641C90.4808 209.619 90.5395 209.561 90.5555 209.465C91.6275 202.755 94.5821 196.841 99.4195 191.721Z" fill="#54B685"/>
<path d="M164.868 198.089C170.078 207.236 174.252 216.822 177.388 226.849C177.58 227.465 177.444 227.473 176.892 227.657L173.828 219.633C173.716 219.9 173.686 219.873 173.74 219.553C173.75 219.478 173.74 219.406 173.708 219.337L164.868 198.089Z" fill="#9CC49A"/>
<path d="M130.836 208.305L125.452 208.097C125.309 208.092 125.171 208.039 125.062 207.946C124.953 207.853 124.879 207.725 124.852 207.585C124.409 205.393 124.679 203.331 125.66 201.401C125.809 201.102 126.052 200.939 126.388 200.913L130.668 200.593C130.945 200.577 131.092 200.707 131.108 200.985L131.396 207.729C131.4 207.805 131.389 207.881 131.363 207.953C131.336 208.024 131.295 208.089 131.242 208.143C131.19 208.198 131.126 208.24 131.056 208.268C130.986 208.296 130.911 208.308 130.836 208.305Z" fill="#35A184"/>
<path d="M171.956 221.657C172.708 221.705 168.492 226.009 168.18 226.345C166.156 228.497 166.076 230.361 166.036 233.145L161.924 234.505L163.236 206.361C163.236 206.329 163.248 206.298 163.271 206.276C163.294 206.253 163.324 206.241 163.356 206.241C163.388 206.241 163.418 206.253 163.441 206.276C163.463 206.298 163.476 206.329 163.476 206.361L165.284 227.833C165.321 228.249 165.484 228.307 165.772 228.009L171.956 221.657Z" fill="#15483B"/>
<path d="M124.772 211.129C124.773 211.089 124.782 211.05 124.798 211.013C124.814 210.977 124.837 210.944 124.866 210.916C124.895 210.889 124.929 210.867 124.967 210.853C125.004 210.839 125.044 210.832 125.084 210.833L125.228 210.841C125.997 210.86 126.759 210.906 127.469 210.977C128.178 211.048 128.823 211.143 129.364 211.256C129.906 211.369 130.335 211.498 130.625 211.635C130.916 211.773 131.064 211.916 131.06 212.057L130.964 215.961C130.956 216.245 130.332 216.502 129.229 216.676C128.127 216.85 126.636 216.927 125.084 216.889L124.94 216.881C124.9 216.88 124.86 216.871 124.824 216.855C124.787 216.838 124.755 216.815 124.727 216.786C124.7 216.757 124.678 216.723 124.664 216.686C124.649 216.649 124.643 216.609 124.644 216.569L124.772 211.129Z" fill="#35A184"/>
<path d="M98.2995 236.225L91.4195 234.009L86.8115 231.353C87.1209 230.841 87.3929 230.646 87.6275 230.769C89.7342 231.873 92.0088 232.441 94.4515 232.473C94.7662 232.478 94.9209 232.324 94.9155 232.009L94.8835 227.665C94.8838 227.381 94.7816 227.106 94.5956 226.889C93.6196 225.729 88.8915 221.729 89.1635 220.633L94.8355 225.801C95.0702 226.014 95.2009 225.964 95.2275 225.649L96.2515 211.873C96.2568 211.777 96.3022 211.713 96.3875 211.681C96.4569 211.654 96.5262 211.654 96.5956 211.681C96.6169 211.692 96.6275 211.708 96.6275 211.729L98.2995 236.225Z" fill="#15483B"/>
<path d="M88.0835 219.185L89.1635 220.633C88.8915 221.729 93.6196 225.729 94.5956 226.889C94.7816 227.106 94.8838 227.381 94.8835 227.665L94.9155 232.009C94.9209 232.323 94.7662 232.478 94.4515 232.473C92.0088 232.441 89.7342 231.873 87.6275 230.769C87.3929 230.646 87.1209 230.841 86.8115 231.353L86.6436 229.633L88.0835 219.185Z" fill="#1E8B75"/>
<path d="M173.828 219.633L176.892 227.657C177.116 228.286 177.321 228.555 177.508 228.465C173.758 230.507 169.934 232.067 166.036 233.145C166.076 230.361 166.156 228.497 168.18 226.345C168.492 226.009 172.708 221.705 171.956 221.657C172.393 220.894 173.017 220.219 173.828 219.633Z" fill="#1E8B75"/>
<path d="M126.012 220.729C128.7 219.977 130.62 222.361 130.14 224.921C130.092 225.203 129.932 225.398 129.66 225.505C128.289 226.038 126.916 225.977 125.54 225.321C125.246 225.182 125.1 224.953 125.1 224.633L125.068 220.929C125.062 220.657 125.193 220.558 125.46 220.633C125.556 220.659 125.652 220.689 125.748 220.721C125.833 220.753 125.921 220.755 126.012 220.729Z" fill="#35A184"/>
<path d="M129.315 228.921C129.479 228.922 129.641 228.955 129.792 229.019C129.943 229.082 130.08 229.175 130.196 229.292C130.311 229.409 130.402 229.547 130.464 229.698C130.525 229.85 130.556 230.013 130.555 230.177V233.433C130.554 233.724 130.486 234.012 130.355 234.28C130.224 234.549 130.032 234.792 129.791 234.997C129.549 235.202 129.263 235.365 128.948 235.475C128.633 235.585 128.296 235.642 127.955 235.641H127.523C126.836 235.639 126.178 235.403 125.693 234.986C125.208 234.569 124.937 234.004 124.939 233.417V230.161C124.941 229.997 124.974 229.835 125.038 229.684C125.101 229.533 125.194 229.396 125.311 229.281C125.427 229.165 125.565 229.074 125.717 229.013C125.869 228.951 126.032 228.92 126.195 228.921H129.315Z" fill="#35A184"/>
<path d="M130.516 240.377C128.222 240.75 126.033 240.713 123.948 240.265L124.308 237.505C124.317 237.441 124.342 237.379 124.38 237.327C124.419 237.275 124.469 237.233 124.528 237.206C124.586 237.178 124.65 237.167 124.714 237.171C124.778 237.176 124.839 237.197 124.892 237.233C126.55 238.305 128.369 238.913 130.348 239.057C130.652 239.078 130.809 239.241 130.82 239.545C130.825 239.844 130.724 240.121 130.516 240.377Z" fill="#35A184"/>
</svg>
