<svg width="256" height="256" viewBox="0 0 256 256" fill="none" xmlns="http://www.w3.org/2000/svg">
<path d="M61.9678 42.0117C51.4344 50.2891 42.9624 60.1984 36.5518 71.7397" stroke="#739484" stroke-width="2"/>
<path d="M36.5517 71.7397C30.317 82.7691 26.061 94.5104 23.7837 106.964" stroke="#638979" stroke-width="2"/>
<path d="M23.7837 106.964C20.4077 124.553 20.9464 141.897 25.3997 158.996" stroke="#497C68" stroke-width="2"/>
<path d="M25.3994 158.996C28.5141 170.041 33.1914 180.316 39.4314 189.82" stroke="#406F5B" stroke-width="2"/>
<path d="M39.4316 189.82C52.541 209.27 70.1223 223.009 92.1756 231.036" stroke="#3B695A" stroke-width="2"/>
<path d="M92.1758 231.036L94.3518 231.476" stroke="#94936F" stroke-width="2"/>
<path d="M94.3516 231.476L100.528 233.076" stroke="#717D43" stroke-width="2"/>
<path d="M100.528 233.076C100.853 233.481 101.525 233.532 102.544 233.228" stroke="#71723D" stroke-width="2"/>
<path d="M102.543 233.228C103.111 234.996 121.831 236.396 123.071 236.46" stroke="#78864E" stroke-width="2"/>
<path d="M123.071 236.46C132.181 236.716 141.245 235.985 150.263 234.268" stroke="#717D43" stroke-width="2"/>
<path d="M150.264 234.268C150.626 234.284 150.909 234.006 151.112 233.436" stroke="#71723D" stroke-width="2"/>
<path d="M151.112 233.436L153.848 233.316" stroke="#452B32" stroke-width="2"/>
<path d="M153.848 233.316L163.944 230.58" stroke="#71723D" stroke-width="2"/>
<path d="M163.944 230.58C164.035 230.233 164.152 230.201 164.296 230.484" stroke="#94936F" stroke-width="2"/>
<path d="M164.296 230.484C184.992 224.084 204.064 207.716 216.184 190.164" stroke="#396451" stroke-width="2"/>
<path d="M216.184 190.164C225.069 176.783 230.632 162.063 232.872 146.004" stroke="#3A6954" stroke-width="2"/>
<path d="M232.872 146.004C236.691 118.745 231.715 93.3931 217.944 69.9478" stroke="#41755E" stroke-width="2"/>
<path d="M217.943 69.9477C205.359 49.8277 186.807 33.8437 164.503 25.6997" stroke="#4A816B" stroke-width="2"/>
<path d="M164.504 25.6998C148.29 19.8811 131.605 17.9691 114.448 19.9638" stroke="#588877" stroke-width="2"/>
<path d="M114.448 19.9639C108.16 20.7532 102.042 22.1399 96.0957 24.1239" stroke="#648E7C" stroke-width="2"/>
<path d="M96.0958 24.1238C83.5251 28.1078 72.1491 34.0704 61.9678 42.0118" stroke="#749987" stroke-width="2"/>
<path d="M164.504 25.6997C163.808 29.5797 160.392 32.3557 159.056 35.6197C158.956 35.8715 158.793 36.0945 158.584 36.2677C156.253 38.1824 155.538 40.1344 156.44 42.1237" stroke="#75B185" stroke-width="2"/>
<path d="M156.44 42.1238C141.912 36.5078 126.848 31.9078 111.472 29.3318" stroke="#506354" stroke-width="2"/>
<path d="M111.472 29.3319C111.344 29.1506 111.269 29.1132 111.248 29.2199" stroke="#6B7B64" stroke-width="2"/>
<path d="M111.247 29.2199C108.351 24.1319 115.343 24.3799 114.447 19.9639" stroke="#90BE95" stroke-width="2"/>
<path d="M111.248 29.2199L101.144 28.5879" stroke="#778169" stroke-width="2"/>
<path d="M101.144 28.5878L101.384 28.4518C101.494 28.3876 101.581 28.2914 101.635 28.176C101.688 28.0607 101.705 27.9317 101.684 27.8064C101.662 27.681 101.602 27.5654 101.513 27.4748C101.424 27.3843 101.309 27.3232 101.184 27.2998L97.2397 26.5718C96.9677 26.5238 96.7917 26.3691 96.7117 26.1078L96.0957 24.1238" stroke="#ACCFA5" stroke-width="2"/>
<path d="M101.143 28.5879C86.9595 30.2039 79.4635 40.2279 76.9595 53.7639" stroke="#878C74" stroke-width="2"/>
<path d="M76.9596 53.7639L76.0316 59.4679C75.9889 59.7399 75.8369 59.8359 75.5756 59.7559L75.0796 59.5959" stroke="#656F5E" stroke-width="2"/>
<path d="M75.0794 59.5957C64.8154 57.3877 52.5114 57.5717 45.8154 66.7877" stroke="#818470" stroke-width="2"/>
<path d="M45.8157 66.7878C44.5677 68.9478 43.917 70.9532 43.8637 72.8038C43.6823 79.1078 43.845 86.3585 44.3517 94.5558" stroke="#656F5E" stroke-width="2"/>
<path d="M44.3518 94.5559C43.4504 94.5079 43.0958 93.4626 43.2878 91.4199C43.3198 91.0892 43.1731 90.9612 42.8478 91.0359C40.4478 91.5905 38.1198 91.4865 35.8638 90.7239" stroke="#9FC9A0" stroke-width="2"/>
<path d="M35.8637 90.7237L34.8718 90.3797C34.6051 90.2837 34.5171 90.1024 34.6077 89.8357C36.0557 85.5077 37.6237 81.6997 42.0317 80.0197C42.3144 79.9077 42.4477 79.7024 42.4317 79.4037C42.2984 77.0037 42.4104 74.6251 42.7677 72.2677C42.8797 71.5424 42.5784 71.2677 41.8637 71.4437C41.3411 71.5664 40.6824 71.3984 39.8877 70.9397C39.7917 70.8842 39.6846 70.8492 39.5732 70.8368C39.4617 70.8244 39.3482 70.835 39.2398 70.8677L36.5517 71.7397" stroke="#ACCFA5" stroke-width="2"/>
<path d="M217.944 69.9478L215.296 72.5078C215.104 72.6944 214.874 72.7691 214.608 72.7318L212.384 72.4598C212.293 72.4491 212.256 72.3984 212.272 72.3078L212.296 72.0998C212.344 71.7638 212.248 71.7158 212.008 71.9558L211.352 72.6278" stroke="#5F9E6C" stroke-width="2"/>
<path d="M211.352 72.6279C210.749 69.3852 209.237 66.9932 206.816 65.4519C196.352 58.8119 184.488 52.9959 171.224 48.0039" stroke="#3B5742" stroke-width="2"/>
<path d="M171.223 48.0038L156.439 42.1238" stroke="#425C49" stroke-width="2"/>
<path d="M111.471 29.3318C111.375 29.3905 111.309 29.4731 111.271 29.5798C111.186 29.8465 111.277 30.0198 111.543 30.0998C113.335 30.6225 115.151 31.0038 116.991 31.2438C117.343 31.2865 117.509 31.4838 117.487 31.8358C117.477 32.0598 117.373 32.2438 117.175 32.3878C117.015 32.5105 116.834 32.5558 116.631 32.5238C112.546 31.7878 108.426 31.5744 104.271 31.8838C104.015 31.9048 103.758 31.8578 103.527 31.7478C102.669 31.3478 101.781 31.2678 100.863 31.5078C100.796 31.5258 100.736 31.5654 100.694 31.6204C100.651 31.6755 100.627 31.743 100.626 31.8128C100.625 31.8825 100.647 31.9506 100.689 32.0068C100.73 32.0629 100.789 32.104 100.855 32.1238C107.159 33.8838 113.863 33.7878 119.647 35.1238C122.842 35.8651 125.901 36.7158 128.823 37.6758C128.974 37.7129 129.104 37.8084 129.184 37.9411C129.264 38.0739 129.289 38.2331 129.251 38.3838C129.214 38.5344 129.119 38.6641 128.986 38.7444C128.853 38.8247 128.694 38.8489 128.543 38.8118C109.639 35.5558 90.5515 40.8598 77.9595 55.4198" stroke="#372628" stroke-width="2"/>
<path d="M77.9595 55.4198C77.5061 54.2731 77.1728 53.7211 76.9595 53.7638" stroke="#302122" stroke-width="2"/>
<path d="M171.223 48.0039C170.791 47.8972 170.506 48.0012 170.367 48.3159C170.255 48.5772 170.333 48.7532 170.599 48.8439L171.135 49.0279C171.285 49.0812 171.335 49.1852 171.287 49.3399C171.037 50.1239 170.647 50.8066 170.119 51.3879C169.842 51.6919 169.693 51.6412 169.671 51.2359C169.666 51.1292 169.669 51.0226 169.679 50.9159C169.684 50.8688 169.676 50.8212 169.656 50.7784C169.635 50.7357 169.604 50.6994 169.564 50.6737C169.524 50.648 169.478 50.6338 169.43 50.6328C169.383 50.6318 169.336 50.6439 169.295 50.6679C167.914 51.4199 166.519 52.1399 165.111 52.8279C163.615 53.5559 161.527 53.7559 159.895 55.0359C159.712 55.183 159.492 55.2846 159.255 55.3319C157.679 55.6199 156.439 56.7959 155.287 57.2439C153.458 57.9532 151.658 58.7239 149.887 59.5559C148.215 60.3399 145.831 61.0279 143.975 62.2119C142.103 63.4039 140.231 63.8279 138.383 64.9959C138.361 65.0103 138.339 65.0248 138.323 65.0366C138.307 65.0483 138.297 65.0566 138.295 65.0599L138.399 65.2439C138.437 65.3186 138.418 65.3746 138.343 65.4119L132.991 67.8359C132.741 67.9479 132.479 67.9986 132.207 67.9879L130.687 67.9239C130.405 67.9079 130.186 68.0199 130.031 68.2599C129.322 69.3532 128.327 70.1932 127.047 70.7799C126.829 70.8812 126.599 70.9346 126.359 70.9399C124.925 70.9719 123.821 71.6092 123.047 72.8519C122.98 72.9587 122.89 73.0489 122.783 73.1154C122.676 73.1819 122.556 73.2231 122.431 73.2359C121.503 73.3106 120.525 73.7052 119.495 74.4199C118.135 75.3532 116.029 76.0892 113.175 76.6279C112.909 76.6812 112.682 76.8066 112.495 77.0039C111.594 77.9426 110.389 78.2652 108.879 77.9719C104.138 77.0386 99.8315 75.5799 95.9595 73.5959C88.0635 69.5479 79.6955 65.1399 77.9595 55.4199" stroke="#150912" stroke-width="2"/>
<path d="M211.352 72.6277C211.149 74.4997 211.192 75.745 211.48 76.3637" stroke="#324B35" stroke-width="2"/>
<path d="M211.479 76.3638C210.098 97.0944 208.826 113.974 207.663 127.004C207.567 128.065 207.237 129.35 206.671 130.86" stroke="#2B3F2B" stroke-width="2"/>
<path d="M206.672 130.86C201.178 127.628 196.133 128.468 191.536 133.38" stroke="#855F35" stroke-width="2"/>
<path d="M191.536 133.38C189.248 136.174 187.301 139.337 185.696 142.868C185.685 142.893 185.665 142.913 185.639 142.924C185.614 142.934 185.585 142.934 185.56 142.924C185.534 142.913 185.514 142.893 185.504 142.867C185.493 142.842 185.493 142.813 185.504 142.788C186.512 139.948 187.784 137.612 187.448 134.556C186.16 122.964 182.4 110.78 179.096 99.5316C179.021 99.2756 178.85 99.1369 178.584 99.1156C161.021 97.6436 143.602 95.1769 126.328 91.7156C113.4 89.1289 101.077 84.8223 89.3597 78.7956C89.1037 78.6623 88.9144 78.7263 88.7917 78.9876L85.3438 86.5556" stroke="#85512E" stroke-width="2"/>
<path d="M85.3436 86.5559C80.1222 98.3532 75.3276 110.313 70.9596 122.436C69.5036 126.479 68.7009 129.839 68.5516 132.516C68.3169 136.713 68.8076 141.023 70.0236 145.444" stroke="#866042" stroke-width="2"/>
<path d="M70.0237 145.444C68.1091 138.697 65.0771 133.782 60.9277 130.7" stroke="#855C3A" stroke-width="2"/>
<path d="M60.9277 130.7C55.8131 128.007 51.3411 128.689 47.5117 132.748" stroke="#866F49" stroke-width="2"/>
<path d="M47.5116 132.748L45.3916 109.476" stroke="#3B5742" stroke-width="2"/>
<path d="M45.3916 109.476L44.3516 94.5559" stroke="#495E4E" stroke-width="2"/>
<path d="M45.8158 66.7878L44.9678 70.7318" stroke="#2B191E" stroke-width="2"/>
<path d="M44.9677 70.7317L44.9517 77.0117C44.9517 77.4011 45.1117 77.4837 45.4317 77.2597C54.1943 71.0677 63.9597 67.5744 74.7277 66.7797C75.085 66.7531 75.173 66.5851 74.9917 66.2757C73.0077 62.8597 69.4317 62.2917 65.7997 62.1717C65.6742 62.1695 65.5523 62.1265 65.4517 62.0489C65.3511 61.9712 65.2768 61.863 65.2397 61.7397C65.1277 61.3877 65.2103 60.9504 65.4877 60.4277" stroke="#1E0F16" stroke-width="2"/>
<path d="M65.4873 60.4277C69.162 61.4464 72.3593 61.169 75.0793 59.5957" stroke="#2B191E" stroke-width="2"/>
<path d="M65.4878 60.428C60.9998 59.804 55.5998 61.396 52.0478 64.252C50.9598 65.1267 49.8904 66.012 48.8398 66.908C48.6553 67.0662 48.508 67.2599 48.4078 67.476L45.6798 73.18C45.6507 73.2381 45.6034 73.285 45.5451 73.3135C45.4868 73.342 45.4207 73.3505 45.357 73.3378C45.2934 73.3251 45.2357 73.2918 45.1928 73.243C45.1499 73.1943 45.1243 73.1328 45.1198 73.068L44.9678 70.732" stroke="#3A2328" stroke-width="2"/>
<path d="M35.8639 90.7239L34.8799 92.0679C34.6933 92.3185 34.7093 92.5559 34.9279 92.7799C37.8079 95.6332 39.1386 98.2679 38.9199 100.684" stroke="#90BE95" stroke-width="2"/>
<path d="M38.9197 100.684C35.7037 103.66 32.5784 106.012 29.5437 107.74C29.3304 107.862 29.1197 107.86 28.9117 107.732C27.4984 106.879 26.2504 106.959 25.1677 107.972C25.0778 108.057 24.9674 108.117 24.8471 108.147C24.7268 108.177 24.6006 108.174 24.4808 108.141C24.3609 108.107 24.2515 108.043 24.163 107.954C24.0745 107.866 24.01 107.756 23.9757 107.636L23.7837 106.964" stroke="#82B78A" stroke-width="2"/>
<path d="M232.872 146.004C232.701 145.972 232.546 146.044 232.407 146.22C232.274 146.396 232.112 146.425 231.92 146.308C229.68 144.9 229.4 129.796 229.12 127.692C227.576 115.964 225.167 104.068 220.607 93.2518C218.303 87.7851 215.261 82.1558 211.479 76.3638" stroke="#4F8655" stroke-width="2"/>
<path d="M164.296 230.484C164.291 230.334 164.333 230.209 164.424 230.108C164.552 229.964 164.6 229.796 164.568 229.604C162.272 216.292 158.8 200.428 143.048 197.604" stroke="#A3AA69" stroke-width="2"/>
<path d="M143.048 197.604C140.536 196.495 137.648 195.913 134.384 195.86" stroke="#808837" stroke-width="2"/>
<path d="M134.383 195.86C133.541 195.711 133.245 194.652 133.495 192.684" stroke="#A2823E" stroke-width="2"/>
<path d="M133.496 192.684V186.564" stroke="#9B7140" stroke-width="2"/>
<path d="M133.496 186.564C155.088 185.02 171.288 179.116 181.808 158.972C181.936 158.727 182.125 158.66 182.376 158.772L186.144 160.388" stroke="#A28C4E" stroke-width="2"/>
<path d="M186.144 160.388C201.936 166.292 219.672 142.404 206.672 130.86" stroke="#A29A55" stroke-width="2"/>
<path d="M191.536 133.38C192.005 133.785 192.512 133.921 193.056 133.788C193.322 133.718 193.541 133.577 193.712 133.364C195.317 131.305 197.432 130.388 200.056 130.612C200.312 130.633 200.482 130.766 200.568 131.012C201.232 132.98 202.384 136.524 204.304 138.156C204.495 138.316 204.625 138.539 204.672 138.788C206.536 148.26 201.392 153.612 194.104 158.436C191.52 160.14 189.144 160.02 186.144 160.388" stroke="#FCAC57" stroke-width="2"/>
<path d="M133.495 186.564L130.087 186.116" stroke="#F48343" stroke-width="2"/>
<path d="M130.087 186.116C132.311 185.236 135.77 184.399 140.463 183.604C144.373 182.948 149.303 181.204 155.255 178.372C162.621 174.868 168.661 169.756 173.375 163.036" stroke="#FCA95C" stroke-width="2"/>
<path d="M173.375 163.036C175.423 161.692 176.541 159.905 176.727 157.676" stroke="#FA9355" stroke-width="2"/>
<path d="M176.727 157.676C178.589 152.934 180.271 147.881 181.775 142.516C182.399 140.292 182.439 137.364 182.207 135.46C181.359 128.476 177.799 117.692 175.375 107.012C175.348 106.898 175.285 106.797 175.196 106.722C175.107 106.647 174.996 106.603 174.879 106.596L161.319 105.708" stroke="#FCA95C" stroke-width="2"/>
<path d="M161.319 105.708C156.647 105.116 150.701 103.862 143.479 101.948C127.319 97.665 112.527 92.321 99.1035 85.9156C96.1035 84.4916 92.9595 83.2756 90.1035 81.1236C89.8955 80.969 89.7195 80.9983 89.5755 81.2116C89.2501 81.697 89.0955 82.3076 89.1115 83.0436" stroke="#FCAD65" stroke-width="2"/>
<path d="M89.1115 83.0437L87.8315 86.3717" stroke="#FDBC6C" stroke-width="2"/>
<path d="M87.8318 86.3718L87.1198 87.1878C86.9704 87.3585 86.7837 87.4252 86.5597 87.3878C86.1117 87.3025 85.7064 87.0252 85.3438 86.5558" stroke="#FCAD65" stroke-width="2"/>
<path d="M199.432 137.772C193.552 132.332 188.312 148.228 187.104 150.996C186.96 151.321 187.064 151.46 187.416 151.412C191.224 150.852 197.392 149.124 199.592 145.828C201 143.724 201.568 139.74 199.432 137.772Z" stroke="#EE7E3C" stroke-width="2"/>
<path d="M161.319 105.708C159.023 107.66 157.271 111.988 161.503 113.228" stroke="#FDB871" stroke-width="2"/>
<path d="M161.504 113.228C157.6 112.988 148.44 113.204 147.024 117.044C146.945 117.258 146.934 117.489 146.992 117.708C147.546 119.75 148.84 120.524 150.872 120.028C155.208 118.977 159.16 118.417 162.728 118.348C166.2 118.276 169.832 119.396 173.456 120.212" stroke="#826141" stroke-width="2"/>
<path d="M173.456 120.212C173.018 121.503 172.064 122.735 170.592 123.908C170.378 124.073 170.29 124.292 170.328 124.564C170.648 126.868 170.4 129.524 171.736 131.588C173.072 133.644 174.168 135.164 173.304 137.172" stroke="#FDB871" stroke-width="2"/>
<path d="M173.304 137.172C170.576 127.388 160.36 122.724 151.408 127.924C151.188 128.054 151.02 128.258 150.936 128.499C150.851 128.741 150.854 129.004 150.944 129.244C150.976 129.334 151.149 129.297 151.464 129.132" stroke="#826141" stroke-width="2"/>
<path d="M151.463 129.132C151.378 129.655 151.525 130.148 151.903 130.612" stroke="#F4CFAA" stroke-width="2"/>
<path d="M151.904 130.612C146.016 135.228 147.496 145.148 155.272 146.356" stroke="#826141" stroke-width="2"/>
<path d="M155.272 146.356C154.37 146.692 154.698 146.983 156.256 147.228" stroke="#F4CFAA" stroke-width="2"/>
<path d="M156.256 147.228L157.088 147.892C157.376 148.121 157.339 148.22 156.976 148.188C155.744 148.081 154.917 148.652 154.496 149.9C154.443 150.054 154.477 150.185 154.6 150.292C154.845 150.5 154.939 150.756 154.88 151.06C154.828 151.321 154.856 151.591 154.96 151.836C155.381 152.796 156.04 153.641 156.936 154.372" stroke="#FDB871" stroke-width="2"/>
<path d="M156.935 154.372C154.114 155.753 152.815 157.652 153.039 160.068" stroke="#FBA269" stroke-width="2"/>
<path d="M153.04 160.068L148.936 160.292C148.642 160.308 148.4 160.425 148.208 160.644C146.858 162.175 145.192 163.143 143.208 163.548" stroke="#FDB871" stroke-width="2"/>
<path d="M143.208 163.548C144.264 160.46 144.842 157.425 144.944 154.444C144.954 154.172 144.861 154.132 144.664 154.324C137.456 161.516 126.04 164.884 115.672 163.54C115.442 163.508 115.354 163.606 115.408 163.836C116.16 166.838 117.837 169.342 120.44 171.348" stroke="#AF6243" stroke-width="2"/>
<path d="M120.439 171.348C122.578 172.665 125.119 173.351 128.063 173.404" stroke="#E67A4E" stroke-width="2"/>
<path d="M128.064 173.404C128.026 173.553 127.826 173.636 127.464 173.652C127.149 173.668 127.085 173.801 127.272 174.052L127.464 174.308C127.597 174.489 127.552 174.58 127.328 174.58L118.576 174.692C118.551 174.692 118.526 174.7 118.507 174.716C118.488 174.733 118.475 174.755 118.472 174.78C118.456 174.849 118.453 174.921 118.464 174.996C118.469 175.03 118.466 175.065 118.456 175.098C118.446 175.131 118.428 175.161 118.405 175.186C118.382 175.211 118.353 175.23 118.322 175.241C118.29 175.252 118.257 175.256 118.224 175.252C115.432 174.988 112.592 175.412 110.736 172.94C110.57 172.721 110.354 172.582 110.088 172.524C107.224 171.873 104.512 170.838 101.952 169.42C98.5996 167.556 96.3676 169.308 93.4476 168.916C91.5809 168.665 89.8742 167.94 88.3276 166.74C88.2849 166.702 88.2636 166.657 88.2636 166.604C88.2636 166.529 88.2636 166.452 88.2636 166.372C88.2582 166.19 88.1649 166.086 87.9836 166.06C83.9676 165.428 78.9596 160.316 77.4476 156.076C77.3766 155.874 77.2415 155.7 77.0627 155.583C76.884 155.465 76.6714 155.409 76.457 155.424C76.2427 155.438 76.0384 155.522 75.875 155.663C75.7116 155.804 75.5981 155.994 75.5516 156.204L74.2476 162.26" stroke="#FDB871" stroke-width="2"/>
<path d="M74.2477 162.26L72.3677 158.692" stroke="#A39B62" stroke-width="2"/>
<path d="M72.3674 158.692C72.2554 156.82 71.8394 155.428 72.0554 153.516C72.4181 150.295 71.7408 147.604 70.0234 145.444" stroke="#FDB871" stroke-width="2"/>
<path d="M87.8318 86.3717C86.4078 92.6117 83.8558 98.6037 81.7758 104.644C81.2078 106.276 79.8398 107.788 79.6078 109.964C79.5758 110.23 79.4825 110.47 79.3278 110.684C77.9571 112.54 77.2131 113.916 77.0958 114.812C76.8238 116.876 76.0638 119.657 74.8158 123.156C72.4105 129.865 71.5998 137.137 72.3838 144.972C72.4478 145.668 72.9278 146.268 73.6318 146.212C73.9358 146.185 74.0745 146.02 74.0478 145.716C73.3705 136.804 74.6558 128.246 77.9038 120.044C81.1198 111.94 84.1198 103.676 86.7438 95.4517C87.1438 94.1984 87.8772 93.9584 88.9438 94.7317C91.8558 96.8384 94.6211 99.1317 97.2398 101.612C97.3634 101.728 97.5248 101.796 97.6944 101.803C97.864 101.81 98.0304 101.755 98.1629 101.649C98.2953 101.543 98.385 101.392 98.4153 101.225C98.4456 101.058 98.4145 100.886 98.3278 100.74C95.4958 95.9797 91.7758 90.7637 91.5598 85.1077C91.5118 83.8757 90.4958 81.9957 89.1118 83.0437" stroke="#FECB80" stroke-width="2"/>
<path d="M107.672 114.276C101.328 109.972 89.0957 112.1 82.8797 115.34C81.7703 115.921 81.6237 116.684 82.4397 117.628C83.3277 118.652 84.1117 118.772 85.4637 118.396C91.0157 116.865 96.5383 116.844 102.032 118.332C105.04 119.148 108.328 118.964 108.088 114.996C108.078 114.852 108.035 114.711 107.963 114.587C107.891 114.462 107.791 114.355 107.672 114.276Z" stroke="#826141" stroke-width="2"/>
<path d="M86.1597 142.22C88.0743 144.678 90.9063 146.148 94.6557 146.628C98.9277 147.172 103.44 149.212 107.232 146.348C113.76 141.404 112.064 134.9 106.832 129.908" stroke="#F8CDA1" stroke-width="2"/>
<path d="M106.832 129.908C106.32 124.764 95.7437 125.836 92.8717 127.044C88.4477 128.916 80.7917 137.708 86.1597 142.22" stroke="#8A6447" stroke-width="2"/>
<path d="M106.832 129.908C95.621 126.932 88.7303 131.036 86.1597 142.22" stroke="#85756F" stroke-width="2"/>
<path d="M124.072 144.012C123.528 143.847 123.122 143.828 122.856 143.956C122.546 144.105 122.28 144.35 122.099 144.653C121.918 144.956 121.833 145.301 121.856 145.634C121.878 145.967 122.008 146.271 122.225 146.498C122.442 146.725 122.733 146.863 123.056 146.892L124.592 147.044C124.842 147.07 125.095 147.014 125.31 146.882C125.525 146.75 125.69 146.551 125.781 146.316C125.871 146.081 125.881 145.822 125.809 145.581C125.737 145.339 125.588 145.128 125.384 144.98L124.072 144.012Z" stroke="#FDD28E" stroke-width="2"/>
<path d="M124.071 144.012C125.298 144.166 126.258 144.796 126.951 145.9C127.133 146.182 127.074 146.401 126.775 146.556C125.815 147.062 124.781 147.361 123.671 147.452C123.373 147.473 123.127 147.598 122.935 147.828C122.301 148.612 122.213 149.545 122.671 150.628C122.789 150.9 122.997 151.06 123.295 151.108C127.567 151.74 132.271 146.268 127.223 143.212C126.671 142.876 123.135 142.1 124.071 144.012Z" stroke="#FCAD65" stroke-width="2"/>
<path d="M103.944 158.828C103.882 157.287 102.754 155.852 100.808 154.838C98.8614 153.825 96.2567 153.316 93.5664 153.424C90.8761 153.532 88.3206 154.248 86.462 155.415C84.6035 156.581 83.5941 158.102 83.656 159.643C83.7179 161.184 84.846 162.62 86.7922 163.633C88.7383 164.646 91.343 165.155 94.0333 165.047C96.7236 164.939 99.2791 164.223 101.138 163.057C102.996 161.891 104.006 160.37 103.944 158.828Z" stroke="#FBA269" stroke-width="2"/>
<path d="M45.3914 109.476C43.8554 107.604 43.4581 104.892 44.1994 101.34C44.2634 101.041 44.2181 100.758 44.0634 100.492C43.4714 99.4624 43.2848 98.3584 43.5034 97.1797C43.5205 97.1156 43.5129 97.0474 43.482 96.9887C43.4511 96.93 43.3992 96.885 43.3366 96.8629C43.2741 96.8407 43.2055 96.8428 43.1445 96.8689C43.0835 96.895 43.0346 96.9432 43.0074 97.0037C42.5381 97.8784 41.8288 98.377 40.8794 98.4997C40.6341 98.5317 40.4634 98.6597 40.3674 98.8837C39.8661 100.046 39.3834 100.646 38.9194 100.684" stroke="#75B185" stroke-width="2"/>
<path d="M47.5116 132.748C44.6796 136.929 44.1223 141.604 45.8396 146.772" stroke="#B3C280" stroke-width="2"/>
<path d="M45.8394 146.772C45.2581 146.655 44.9461 146.945 44.9034 147.644C44.8928 147.847 44.7994 147.897 44.6234 147.796L44.3674 147.636C44.1807 147.524 43.9888 147.519 43.7914 147.62C37.3194 150.852 30.5834 154.012 27.5354 159.62C27.4532 159.774 27.325 159.899 27.1687 159.976C27.0123 160.054 26.8356 160.081 26.6631 160.054C26.4906 160.027 26.331 159.946 26.2063 159.824C26.0816 159.702 25.9981 159.544 25.9674 159.372C25.9034 159.036 25.7141 158.911 25.3994 158.996" stroke="#5F9E6C" stroke-width="2"/>
<path d="M176.728 157.676C171.405 152.806 164.808 151.705 156.936 154.372" stroke="#FB9E61" stroke-width="2"/>
<path d="M156.255 147.228C162.623 146.092 166.927 145.9 171.695 140.988" stroke="#F4CBA1" stroke-width="2"/>
<path d="M171.696 140.988C172.965 141.015 173.501 139.743 173.304 137.172" stroke="#825D38" stroke-width="2"/>
<path d="M173.455 120.212C174.031 120.036 174.517 119.519 174.911 118.66C175.109 118.244 175.021 117.897 174.647 117.62C170.717 114.681 166.335 113.217 161.503 113.228" stroke="#825D38" stroke-width="2"/>
<path d="M171.696 140.988C169.125 130.161 162.381 126.209 151.464 129.132" stroke="#797471" stroke-width="2"/>
<path d="M155.271 146.356C158.847 146.66 161.583 143.196 162.591 140.188C164.775 133.676 158.455 126.7 151.903 130.612" stroke="#797471" stroke-width="2"/>
<path d="M100.529 146.681C101.415 146.958 102.357 147.029 103.3 146.888C104.243 146.747 105.17 146.398 106.027 145.86C106.884 145.322 107.654 144.605 108.294 143.752C108.934 142.899 109.43 141.925 109.756 140.887C110.413 138.789 110.333 136.555 109.532 134.675C108.731 132.795 107.276 131.424 105.486 130.863C104.6 130.585 103.658 130.515 102.715 130.656C101.771 130.797 100.845 131.146 99.9882 131.684C99.1314 132.222 98.3611 132.938 97.7212 133.791C97.0814 134.645 96.5846 135.618 96.2591 136.657C95.6018 138.755 95.6824 140.989 96.4831 142.869C97.2839 144.748 98.7392 146.12 100.529 146.681Z" stroke="#7D7269" stroke-width="2"/>
<path d="M60.9275 130.7C52.3089 133.174 49.3515 138.545 52.0555 146.812C52.8555 149.26 54.7862 151.67 57.8475 154.044C57.9547 154.127 58.0331 154.241 58.0719 154.37C58.1106 154.5 58.1077 154.637 58.0635 154.764C57.7329 155.724 57.7382 156.67 58.0795 157.604C58.1755 157.865 58.1969 158.129 58.1435 158.396L57.7515 160.356" stroke="#FDC778" stroke-width="2"/>
<path d="M57.7514 160.356C51.97 157.593 47.9994 153.065 45.8394 146.772" stroke="#AAB573" stroke-width="2"/>
<path d="M155.761 138.874C155.983 138.852 156.197 138.778 156.391 138.656C156.586 138.534 156.757 138.368 156.895 138.165C157.033 137.962 157.136 137.728 157.196 137.475C157.256 137.222 157.274 136.956 157.247 136.691C157.194 136.157 156.965 135.663 156.611 135.317C156.257 134.971 155.806 134.801 155.359 134.846C155.137 134.868 154.923 134.942 154.728 135.064C154.534 135.185 154.362 135.352 154.224 135.555C154.086 135.758 153.984 135.992 153.924 136.245C153.863 136.498 153.846 136.764 153.872 137.028C153.926 137.563 154.155 138.057 154.509 138.403C154.863 138.749 155.313 138.919 155.761 138.874Z" stroke="#797471" stroke-width="2"/>
<path d="M99.7995 138.564L101.895 138.548C102.091 138.546 102.279 138.466 102.416 138.327C102.554 138.188 102.631 138 102.631 137.804V137.132C102.629 136.668 102.583 136.208 102.495 135.78C102.408 135.351 102.281 134.962 102.122 134.635C101.963 134.308 101.775 134.049 101.569 133.874C101.362 133.698 101.142 133.609 100.919 133.612H100.711C100.265 133.617 99.8389 133.992 99.527 134.655C99.2151 135.318 99.0427 136.214 99.0475 137.148V137.82C99.0475 137.918 99.067 138.016 99.1049 138.106C99.1427 138.197 99.1983 138.28 99.2682 138.349C99.3381 138.418 99.4211 138.473 99.5123 138.51C99.6035 138.546 99.7011 138.565 99.7995 138.564Z" stroke="#797471" stroke-width="2"/>
<path d="M72.3674 158.692C68.1807 161.193 63.338 161.721 57.8394 160.276" stroke="#A2975A" stroke-width="2"/>
<path d="M57.8395 160.276C58.2075 160.436 58.1781 160.463 57.7515 160.356" stroke="#A9A364" stroke-width="2"/>
<path d="M64.4073 143.06C60.4713 132.596 50.7753 141.492 58.1833 148.692C60.7647 151.204 63.8233 152.326 67.3593 152.06C67.447 152.052 67.5316 152.023 67.606 151.976C67.6804 151.929 67.7425 151.866 67.7872 151.79C67.8318 151.715 67.8576 151.631 67.8625 151.544C67.8674 151.457 67.8513 151.371 67.8153 151.292C66.6047 148.614 65.4687 145.87 64.4073 143.06Z" stroke="#F58E4F" stroke-width="2"/>
<path d="M101.2 137.156L101.344 135.748C101.357 135.644 101.333 135.54 101.276 135.452C101.219 135.365 101.133 135.301 101.033 135.271C100.933 135.241 100.826 135.248 100.73 135.29C100.635 135.332 100.557 135.406 100.512 135.5C100.181 136.124 100.208 136.726 100.592 137.308C100.933 137.825 101.136 137.774 101.2 137.156Z" stroke="#A89E95" stroke-width="2"/>
<path d="M156.032 137.732C156.144 137.193 156.018 136.7 155.656 136.252C155.341 135.863 155.096 135.903 154.92 136.372C154.68 137.017 154.818 137.553 155.336 137.98C155.704 138.284 155.936 138.201 156.032 137.732Z" stroke="#9F8F89" stroke-width="2"/>
<path d="M57.8394 160.276C59.0314 163.564 61.1674 165.892 63.1354 168.66" stroke="#4F8655" stroke-width="2"/>
<path d="M63.1356 168.66C62.2076 171.055 61.1516 173.417 59.9676 175.748C58.9276 177.788 56.9356 179.108 55.7836 181.372C55.661 181.612 55.4903 181.807 55.2716 181.956C53.101 183.428 51.581 185.399 50.7116 187.868C50.6263 188.108 50.5996 188.356 50.6316 188.612C51.0956 192.212 45.8156 188.924 44.9276 188.164C44.6663 187.945 44.4316 187.972 44.2236 188.244C43.2796 189.513 41.973 189.887 40.3036 189.364C40.181 189.327 40.1116 189.372 40.0956 189.5L40.0556 189.788C40.0343 189.937 39.965 189.969 39.8476 189.884C39.7356 189.799 39.597 189.777 39.4316 189.82" stroke="#518B5E" stroke-width="2"/>
<path d="M173.376 163.036C167.224 164.364 157.536 165.244 153.04 160.068" stroke="#FB9E61" stroke-width="2"/>
<path d="M143.207 163.548L141.063 167.596" stroke="#AE5E3A" stroke-width="2"/>
<path d="M141.064 167.596C133.981 164.833 127.394 165.3 121.304 168.996C120.434 169.524 120.146 170.308 120.44 171.348" stroke="#982017" stroke-width="2"/>
<path d="M128.063 173.404C133.407 173.569 137.741 171.633 141.063 167.596" stroke="#E67645" stroke-width="2"/>
<path d="M130.088 186.116L121.536 186.212" stroke="#F58E4F" stroke-width="2"/>
<path d="M121.536 186.212C102.328 185.796 83.9356 179.812 74.2476 162.26" stroke="#A2975A" stroke-width="2"/>
<path d="M121.536 186.212L121.72 192.588" stroke="#9B7140" stroke-width="2"/>
<path d="M121.719 192.588C121.885 194.369 121.562 195.513 120.751 196.02" stroke="#A2823E" stroke-width="2"/>
<path d="M120.752 196.02C106.976 197.324 99.0237 204.052 95.3438 217.404" stroke="#A3AA69" stroke-width="2"/>
<path d="M95.3438 217.404C94.3891 214.993 93.2904 212.919 92.0477 211.18C82.0797 197.26 72.8957 182.676 63.1357 168.66" stroke="#4A8054" stroke-width="2"/>
<path d="M95.3438 217.404C94.0318 221.329 92.9758 225.873 92.1758 231.036" stroke="#A5AF72" stroke-width="2"/>
<path d="M133.496 192.684L121.72 192.588" stroke="#F47933" stroke-width="2"/>
<path d="M134.383 195.86C134.679 201.692 131.839 204.604 127.063 207.3C126.844 207.426 126.586 207.47 126.336 207.424C126.086 207.379 125.859 207.247 125.695 207.052C123.253 204.124 121.466 200.777 120.335 197.012" stroke="#D9902A" stroke-width="2"/>
<path d="M120.335 197.012C119.973 196.846 120.111 196.516 120.751 196.02" stroke="#FDB25C" stroke-width="2"/>
<path d="M143.048 197.604C149.032 199.497 153.349 202.585 156 206.868C159.984 213.292 162.12 222.556 163.208 229.516C163.312 230.22 163.376 230.188 163.944 230.58" stroke="#DBB855" stroke-width="2"/>
<path d="M153.848 233.316C153.997 227.215 153.365 221.236 151.952 215.38C151.845 214.948 151.784 214.956 151.768 215.404L151.112 233.436" stroke="#8C4F18" stroke-width="2"/>
<path d="M150.263 234.268C149.847 234.278 149.453 234.185 149.08 233.988C148.824 233.854 148.738 233.649 148.823 233.372C149.799 230.196 150.199 226.42 148.111 223.532C144.039 217.908 135.88 215.26 130.728 212.596C130.514 212.484 130.391 212.548 130.359 212.788L129.671 218.412C129.669 218.448 129.653 218.482 129.626 218.506C129.599 218.53 129.564 218.542 129.528 218.54C129.491 218.538 129.458 218.521 129.434 218.494C129.41 218.467 129.397 218.432 129.399 218.396C129.33 216.172 129.426 213.95 129.687 211.732C129.693 211.678 129.688 211.623 129.671 211.571C129.655 211.519 129.628 211.472 129.593 211.431C129.558 211.39 129.514 211.358 129.466 211.335C129.417 211.312 129.365 211.3 129.311 211.3L125.744 211.236C125.349 211.225 125.125 211.025 125.071 210.636L124.695 207.972C124.669 207.79 124.602 207.628 124.495 207.484C122.186 204.252 120.285 200.865 118.792 197.324" stroke="#B7A129" stroke-width="2"/>
<path d="M118.792 197.324C118.888 196.998 119.402 196.894 120.335 197.012" stroke="#DBB855" stroke-width="2"/>
<path d="M118.792 197.324C115.288 197.484 112.376 198.284 110.056 199.724" stroke="#DBC35B" stroke-width="2"/>
<path d="M110.056 199.724C108.045 200.721 106.794 201.564 106.304 202.252C102.552 207.5 97.1837 216.244 96.7677 222.748C96.7517 223.015 96.645 223.236 96.4477 223.412C95.0024 224.724 94.2184 226.329 94.0957 228.228" stroke="#E2CC66" stroke-width="2"/>
<path d="M94.0958 228.228C93.2585 229.262 93.3438 230.345 94.3518 231.476" stroke="#DBC35B" stroke-width="2"/>
<path d="M123.072 236.46V213.548C123.071 213.387 123.021 213.229 122.928 213.098C122.835 212.966 122.704 212.866 122.552 212.812C116.064 210.428 113.568 205.132 110.056 199.724" stroke="#BEB639" stroke-width="2"/>
<path d="M102.544 233.228L103.48 215.868C103.49 215.591 103.552 215.327 103.664 215.076C103.952 214.425 103.85 213.833 103.36 213.3C103.269 213.204 103.156 213.132 103.03 213.09C102.905 213.049 102.771 213.04 102.642 213.064C102.513 213.088 102.392 213.144 102.291 213.227C102.189 213.31 102.111 213.418 102.064 213.54C100.202 218.276 99.5756 223.185 100.184 228.268C100.192 228.35 100.175 228.433 100.136 228.505C100.096 228.578 100.036 228.637 99.9619 228.674C99.8882 228.711 99.805 228.725 99.7231 228.714C99.6413 228.703 99.5647 228.667 99.5036 228.612L96.2476 225.508C96.1992 225.461 96.1382 225.43 96.0723 225.419C96.0063 225.407 95.9382 225.416 95.8762 225.443C95.8142 225.47 95.7611 225.515 95.7234 225.572C95.6856 225.629 95.6648 225.696 95.6636 225.764C95.6636 226.271 96.0662 226.977 96.8716 227.884" stroke="#BEAB34" stroke-width="2"/>
<path d="M96.8717 227.884C95.2877 227.671 94.3624 227.785 94.0957 228.228" stroke="#BEB639" stroke-width="2"/>
<path d="M106.848 207.3C107.594 205.918 108.514 204.686 109.608 203.604C109.885 203.332 109.861 203.086 109.536 202.868L109.216 202.652C109.092 202.571 108.942 202.538 108.795 202.56C108.648 202.583 108.513 202.658 108.416 202.772L104.024 207.916C103.784 208.198 103.81 208.454 104.104 208.684L105.504 209.788C105.733 209.964 105.76 210.166 105.584 210.396C103.952 212.524 105.384 215.46 106.544 217.884C109.064 223.124 113.912 216.188 114.4 213.508C114.448 213.257 114.344 213.116 114.088 213.084C112.274 212.854 110.562 212.292 108.952 211.396C108.722 211.268 108.477 211.204 108.216 211.204H107.296C107.159 211.205 107.026 211.162 106.916 211.081C106.806 211 106.725 210.885 106.685 210.754C106.644 210.622 106.647 210.481 106.692 210.35C106.737 210.22 106.823 210.107 106.936 210.028C108.157 209.18 109.178 208.118 110 206.844C110.037 206.786 110.054 206.717 110.049 206.649C110.044 206.58 110.017 206.515 109.972 206.463C109.927 206.411 109.867 206.375 109.8 206.36C109.733 206.345 109.663 206.352 109.6 206.38C108.986 206.662 108.41 207.017 107.872 207.444C107.69 207.588 107.485 207.644 107.256 207.612L106.984 207.572C106.808 207.55 106.762 207.46 106.848 207.3Z" stroke="#BCB557" stroke-width="2"/>
<path d="M100.528 233.076C99.7756 230.846 98.5569 229.116 96.8716 227.884" stroke="#B7A129" stroke-width="2"/>
<path d="M164.503 25.6998C163.807 29.5798 160.391 32.3558 159.055 35.6198C158.956 35.8716 158.793 36.0945 158.583 36.2678C156.253 38.1824 155.538 40.1344 156.439 42.1238C141.911 36.5078 126.847 31.9078 111.471 29.3318C111.343 29.1504 111.269 29.1131 111.247 29.2198C108.351 24.1318 115.343 24.3798 114.447 19.9638C131.605 17.9691 148.29 19.8811 164.503 25.6998Z" fill="#83B890"/>
<path d="M114.448 19.9636C115.344 24.3796 108.352 24.1316 111.248 29.2196L101.144 28.5876L101.384 28.4516C101.494 28.3874 101.581 28.2912 101.635 28.1759C101.688 28.0605 101.705 27.9315 101.684 27.8062C101.662 27.6809 101.602 27.5652 101.513 27.4747C101.424 27.3841 101.309 27.3231 101.184 27.2996L97.2397 26.5716C96.9677 26.5236 96.7917 26.369 96.7117 26.1076L96.0957 24.1236C102.042 22.1396 108.16 20.753 114.448 19.9636Z" fill="#9CC49A"/>
<path d="M96.0957 24.1238L96.7118 26.1078C96.7918 26.3691 96.9678 26.5238 97.2398 26.5718L101.184 27.2998C101.309 27.3232 101.424 27.3843 101.513 27.4748C101.602 27.5654 101.662 27.681 101.684 27.8064C101.705 27.9317 101.688 28.0607 101.635 28.176C101.581 28.2914 101.494 28.3876 101.384 28.4518L101.144 28.5878C86.9598 30.2038 79.4637 40.2278 76.9597 53.7638L76.0318 59.4678C75.9891 59.7398 75.8371 59.8358 75.5757 59.7558L75.0798 59.5958C64.8158 57.3878 52.5118 57.5718 45.8158 66.7878C44.5678 68.9478 43.9171 70.9531 43.8637 72.8038C43.6824 79.1078 43.8451 86.3584 44.3517 94.5558C43.4504 94.5078 43.0957 93.4624 43.2877 91.4198C43.3197 91.0891 43.1731 90.9611 42.8478 91.0358C40.4478 91.5904 38.1197 91.4864 35.8637 90.7238L34.8718 90.3798C34.6051 90.2838 34.5171 90.1024 34.6077 89.8358C36.0557 85.5078 37.6237 81.6998 42.0317 80.0198C42.3144 79.9078 42.4477 79.7024 42.4317 79.4038C42.2984 77.0038 42.4104 74.6251 42.7677 72.2678C42.8797 71.5424 42.5784 71.2678 41.8637 71.4438C41.3411 71.5664 40.6824 71.3984 39.8877 70.9398C39.7917 70.8843 39.6846 70.8493 39.5732 70.8369C39.4617 70.8245 39.3482 70.835 39.2398 70.8678L36.5517 71.7398C42.9624 60.1984 51.4344 50.2891 61.9677 42.0118C72.1491 34.0704 83.5251 28.1078 96.0957 24.1238Z" fill="#BBDAB0"/>
<path d="M164.504 25.6997C186.808 33.8437 205.36 49.8277 217.944 69.9477L215.296 72.5077C215.104 72.6944 214.874 72.769 214.608 72.7317L212.384 72.4597C212.293 72.449 212.256 72.3984 212.272 72.3077L212.296 72.0997C212.344 71.7637 212.248 71.7157 212.008 71.9557L211.352 72.6277C210.749 69.385 209.237 66.993 206.816 65.4517C196.352 58.8117 184.488 52.9957 171.224 48.0037L156.44 42.1237C155.538 40.1344 156.253 38.1824 158.584 36.2677C158.793 36.0945 158.956 35.8715 159.056 35.6197C160.392 32.3557 163.808 29.5797 164.504 25.6997Z" fill="#67AA79"/>
<path d="M101.143 28.5879L111.247 29.2199C111.269 29.1132 111.343 29.1506 111.471 29.3319C111.375 29.3906 111.309 29.4732 111.271 29.5799C111.186 29.8466 111.277 30.0199 111.543 30.0999C113.335 30.6226 115.151 31.0039 116.991 31.2439C117.343 31.2866 117.509 31.4839 117.487 31.8359C117.477 32.0599 117.373 32.2439 117.175 32.3879C117.015 32.5106 116.834 32.5559 116.631 32.5239C112.546 31.7879 108.426 31.5746 104.271 31.8839C104.015 31.9049 103.758 31.8579 103.527 31.7479C102.669 31.3479 101.781 31.2679 100.863 31.5079C100.796 31.5259 100.736 31.5655 100.694 31.6205C100.651 31.6756 100.627 31.7431 100.626 31.8129C100.625 31.8826 100.647 31.9507 100.689 32.0069C100.73 32.063 100.789 32.1041 100.855 32.1239C107.159 33.8839 113.863 33.7879 119.647 35.1239C122.842 35.8652 125.901 36.7159 128.823 37.6759C128.974 37.713 129.104 37.8085 129.184 37.9412C129.264 38.074 129.289 38.2332 129.251 38.3839C129.214 38.5345 129.119 38.6643 128.986 38.7445C128.853 38.8248 128.694 38.849 128.543 38.8119C109.639 35.5559 90.5515 40.8599 77.9595 55.4199C77.5061 54.2732 77.1728 53.7212 76.9595 53.7639C79.4635 40.2279 86.9595 30.2039 101.143 28.5879Z" fill="#523D38"/>
<path d="M111.471 29.3318C126.847 31.9078 141.911 36.5078 156.439 42.1238L171.223 48.0038C170.791 47.8971 170.506 48.0011 170.367 48.3158C170.255 48.5771 170.333 48.7531 170.599 48.8438L171.135 49.0278C171.285 49.0811 171.335 49.1851 171.287 49.3398C171.037 50.1238 170.647 50.8065 170.119 51.3878C169.842 51.6918 169.693 51.6411 169.671 51.2358C169.666 51.1291 169.669 51.0225 169.679 50.9158C169.684 50.8687 169.676 50.8211 169.656 50.7783C169.635 50.7356 169.604 50.6993 169.564 50.6736C169.524 50.6479 169.478 50.6337 169.43 50.6327C169.383 50.6317 169.336 50.6438 169.295 50.6678C167.914 51.4198 166.519 52.1398 165.111 52.8278C163.615 53.5558 161.527 53.7558 159.895 55.0358C159.712 55.1829 159.492 55.2845 159.255 55.3318C157.679 55.6198 156.439 56.7958 155.287 57.2438C153.458 57.9531 151.658 58.7238 149.887 59.5558C148.215 60.3398 145.831 61.0278 143.975 62.2118C142.103 63.4038 140.231 63.8278 138.383 64.9958C138.361 65.0102 138.339 65.0247 138.323 65.0364C138.307 65.0482 138.297 65.0565 138.295 65.0598L138.399 65.2438C138.437 65.3185 138.418 65.3745 138.343 65.4118L132.991 67.8358C132.741 67.9478 132.479 67.9985 132.207 67.9878L130.687 67.9238C130.405 67.9078 130.186 68.0198 130.031 68.2598C129.322 69.3531 128.327 70.1931 127.047 70.7798C126.829 70.8811 126.599 70.9344 126.359 70.9398C124.925 70.9718 123.821 71.6091 123.047 72.8518C122.98 72.9586 122.89 73.0488 122.783 73.1153C122.676 73.1818 122.556 73.223 122.431 73.2358C121.503 73.3105 120.525 73.7051 119.495 74.4198C118.135 75.3531 116.029 76.0891 113.175 76.6278C112.909 76.6811 112.682 76.8064 112.495 77.0038C111.594 77.9425 110.389 78.2651 108.879 77.9718C104.138 77.0385 99.8315 75.5798 95.9595 73.5958C88.0635 69.5478 79.6955 65.1398 77.9595 55.4198C90.5515 40.8598 109.639 35.5558 128.543 38.8118C128.694 38.8489 128.853 38.8247 128.986 38.7444C129.119 38.6642 129.214 38.5344 129.251 38.3838C129.289 38.2331 129.264 38.0739 129.184 37.9411C129.104 37.8084 128.974 37.7129 128.823 37.6758C125.901 36.7158 122.842 35.8651 119.647 35.1238C113.863 33.7878 107.159 33.8838 100.855 32.1238C100.789 32.104 100.73 32.0629 100.689 32.0068C100.647 31.9506 100.625 31.8825 100.626 31.8128C100.627 31.743 100.651 31.6755 100.694 31.6204C100.736 31.5654 100.796 31.5258 100.863 31.5078C101.781 31.2678 102.669 31.3478 103.527 31.7478C103.758 31.8578 104.015 31.9048 104.271 31.8838C108.426 31.5744 112.546 31.7878 116.631 32.5238C116.834 32.5558 117.015 32.5105 117.175 32.3878C117.373 32.2438 117.477 32.0598 117.487 31.8358C117.509 31.4838 117.343 31.2865 116.991 31.2438C115.151 31.0038 113.335 30.6225 111.543 30.0998C111.277 30.0198 111.186 29.8465 111.271 29.5798C111.309 29.4731 111.375 29.3905 111.471 29.3318Z" fill="#1C0E18"/>
<path d="M171.224 48.0039C184.488 52.9959 196.352 58.8119 206.816 65.4519C209.237 66.9932 210.749 69.3852 211.352 72.6279C211.149 74.4999 211.192 75.7452 211.48 76.3639C210.098 97.0946 208.826 113.975 207.664 127.004C207.568 128.065 207.237 129.351 206.672 130.86C201.178 127.628 196.133 128.468 191.536 133.38C189.248 136.175 187.301 139.337 185.696 142.868C185.685 142.893 185.665 142.914 185.639 142.924C185.614 142.935 185.585 142.934 185.56 142.924C185.534 142.913 185.514 142.893 185.504 142.867C185.493 142.842 185.493 142.813 185.504 142.788C186.512 139.948 187.784 137.612 187.448 134.556C186.16 122.964 182.4 110.78 179.096 99.5319C179.021 99.2759 178.85 99.1372 178.584 99.1159C161.021 97.6439 143.602 95.1772 126.328 91.7159C113.4 89.1292 101.077 84.8226 89.3597 78.7959C89.1037 78.6626 88.9144 78.7265 88.7917 78.9879L85.3437 86.5559C80.1224 98.3532 75.3277 110.313 70.9597 122.436C69.5037 126.479 68.701 129.839 68.5517 132.516C68.317 136.713 68.8077 141.023 70.0237 145.444C68.109 138.697 65.077 133.783 60.9277 130.7C55.813 128.007 51.341 128.689 47.5117 132.748L45.3917 109.476L44.3517 94.5559C43.845 86.3586 43.6823 79.1079 43.8637 72.8039C43.917 70.9532 44.5677 68.9479 45.8157 66.7879L44.9677 70.7319L44.9517 77.0119C44.9517 77.4012 45.1117 77.4839 45.4317 77.2599C54.1943 71.0679 63.9597 67.5746 74.7277 66.7799C75.085 66.7532 75.173 66.5852 74.9917 66.2759C73.0077 62.8599 69.4317 62.2919 65.7997 62.1719C65.6742 62.1697 65.5524 62.1266 65.4517 62.049C65.3511 61.9714 65.2768 61.8631 65.2397 61.7399C65.1277 61.3879 65.2103 60.9506 65.4877 60.4279C69.1623 61.4466 72.3597 61.1692 75.0797 59.5959L75.5757 59.7559C75.837 59.8359 75.989 59.7399 76.0317 59.4679L76.9597 53.7639C77.173 53.7212 77.5063 54.2732 77.9597 55.4199C79.6957 65.1399 88.0637 69.5479 95.9597 73.5959C99.8317 75.5799 104.138 77.0386 108.88 77.9719C110.389 78.2652 111.594 77.9426 112.496 77.0039C112.682 76.8066 112.909 76.6812 113.176 76.6279C116.029 76.0892 118.136 75.3532 119.496 74.4199C120.525 73.7052 121.504 73.3106 122.432 73.2359C122.556 73.2231 122.677 73.1819 122.783 73.1154C122.89 73.0489 122.98 72.9587 123.048 72.8519C123.821 71.6092 124.925 70.9719 126.36 70.9399C126.6 70.9346 126.829 70.8812 127.048 70.7799C128.328 70.1932 129.322 69.3532 130.032 68.2599C130.186 68.0199 130.405 67.9079 130.688 67.9239L132.208 67.9879C132.48 67.9986 132.741 67.9479 132.992 67.8359L138.344 65.4119C138.418 65.3746 138.437 65.3186 138.4 65.2439L138.296 65.0599C138.297 65.0566 138.307 65.0483 138.323 65.0366C138.339 65.0248 138.361 65.0103 138.384 64.9959C140.232 63.8279 142.104 63.4039 143.976 62.2119C145.832 61.0279 148.216 60.3399 149.888 59.5559C151.658 58.7239 153.458 57.9532 155.288 57.2439C156.44 56.7959 157.68 55.6199 159.256 55.3319C159.492 55.2846 159.712 55.183 159.896 55.0359C161.528 53.7559 163.616 53.5559 165.112 52.8279C166.52 52.1399 167.914 51.4199 169.296 50.6679C169.337 50.6439 169.383 50.6318 169.431 50.6328C169.478 50.6338 169.524 50.648 169.564 50.6737C169.604 50.6994 169.636 50.7357 169.656 50.7784C169.677 50.8212 169.685 50.8688 169.68 50.9159C169.669 51.0226 169.666 51.1292 169.672 51.2359C169.693 51.6412 169.842 51.6919 170.12 51.3879C170.648 50.8066 171.037 50.1239 171.288 49.3399C171.336 49.1852 171.285 49.0812 171.136 49.0279L170.6 48.8439C170.333 48.7532 170.256 48.5772 170.368 48.3159C170.506 48.0012 170.792 47.8972 171.224 48.0039Z" fill="#0E040B"/>
<path d="M75.0798 59.5957C72.3598 61.1691 69.1624 61.4464 65.4878 60.4277C60.9998 59.8037 55.5998 61.3957 52.0478 64.2517C50.9598 65.1264 49.8904 66.0117 48.8398 66.9077C48.6553 67.0659 48.508 67.2596 48.4078 67.4757L45.6798 73.1797C45.6507 73.2378 45.6034 73.2847 45.5451 73.3132C45.4868 73.3417 45.4207 73.3503 45.357 73.3375C45.2934 73.3248 45.2357 73.2915 45.1928 73.2427C45.1499 73.194 45.1243 73.1325 45.1198 73.0677L44.9678 70.7317L45.8158 66.7877C52.5118 57.5717 64.8158 57.3877 75.0798 59.5957Z" fill="#472D30"/>
<path d="M65.4877 60.428C65.2103 60.9507 65.1277 61.388 65.2397 61.74C65.2768 61.8633 65.3511 61.9715 65.4517 62.0492C65.5523 62.1268 65.6742 62.1698 65.7997 62.172C69.4317 62.292 73.0077 62.86 74.9917 66.276C75.173 66.5854 75.085 66.7534 74.7277 66.78C63.9597 67.5747 54.1943 71.068 45.4317 77.26C45.1117 77.484 44.9517 77.4014 44.9517 77.012L44.9677 70.732L45.1197 73.068C45.1241 73.1328 45.1498 73.1943 45.1927 73.243C45.2355 73.2918 45.2932 73.3251 45.3569 73.3378C45.4206 73.3505 45.4866 73.342 45.545 73.3135C45.6033 73.285 45.6506 73.2381 45.6797 73.18L48.4077 67.476C48.5079 67.2599 48.6552 67.0662 48.8397 66.908C49.8903 66.012 50.9597 65.1267 52.0477 64.252C55.5997 61.396 60.9997 59.804 65.4877 60.428Z" fill="#2D1920"/>
<path d="M35.8637 90.7237L34.8797 92.0677C34.693 92.3184 34.709 92.5557 34.9277 92.7797C37.8077 95.6331 39.1384 98.2677 38.9197 100.684C35.7037 103.66 32.5784 106.012 29.5437 107.74C29.3304 107.862 29.1197 107.86 28.9117 107.732C27.4984 106.878 26.2504 106.958 25.1677 107.972C25.0778 108.057 24.9674 108.117 24.8471 108.147C24.7268 108.177 24.6006 108.174 24.4808 108.141C24.3609 108.107 24.2515 108.043 24.163 107.954C24.0745 107.866 24.01 107.756 23.9757 107.636L23.7837 106.964C26.061 94.5104 30.317 82.7691 36.5517 71.7397L39.2397 70.8677C39.3482 70.835 39.4617 70.8244 39.5731 70.8368C39.6846 70.8492 39.7916 70.8842 39.8877 70.9397C40.6824 71.3984 41.341 71.5664 41.8637 71.4437C42.5784 71.2677 42.8797 71.5424 42.7677 72.2677C42.4104 74.6251 42.2984 77.0037 42.4317 79.4037C42.4477 79.7024 42.3144 79.9077 42.0317 80.0197C37.6237 81.6997 36.0557 85.5077 34.6077 89.8357C34.517 90.1024 34.605 90.2837 34.8717 90.3797L35.8637 90.7237Z" fill="#9CC49A"/>
<path d="M217.944 69.9478C231.714 93.3931 236.69 118.745 232.872 146.004C232.701 145.972 232.546 146.044 232.408 146.22C232.274 146.396 232.112 146.425 231.92 146.308C229.68 144.9 229.4 129.796 229.12 127.692C227.576 115.964 225.168 104.068 220.608 93.2518C218.304 87.7851 215.261 82.1558 211.48 76.3638C211.192 75.7451 211.149 74.4998 211.352 72.6278L212.008 71.9558C212.248 71.7158 212.344 71.7638 212.296 72.0998L212.272 72.3078C212.256 72.3984 212.293 72.4491 212.384 72.4598L214.608 72.7318C214.874 72.7691 215.104 72.6944 215.296 72.5078L217.944 69.9478Z" fill="#56915F"/>
<path d="M232.871 146.004C230.631 162.062 225.069 176.782 216.183 190.164C204.063 207.716 184.991 224.084 164.295 230.484C164.29 230.334 164.333 230.209 164.423 230.108C164.551 229.964 164.599 229.796 164.567 229.604C162.271 216.292 158.799 200.428 143.047 197.604C140.535 196.494 137.647 195.913 134.383 195.86C133.541 195.71 133.245 194.652 133.495 192.684V186.564C155.087 185.02 171.287 179.116 181.807 158.972C181.935 158.726 182.125 158.66 182.375 158.772L186.143 160.388C201.935 166.292 219.671 142.404 206.671 130.86C207.237 129.35 207.567 128.065 207.663 127.004C208.826 113.974 210.098 97.0944 211.479 76.3638C215.261 82.1558 218.303 87.7851 220.607 93.2518C225.167 104.068 227.575 115.964 229.119 127.692C229.399 129.796 229.679 144.9 231.919 146.308C232.111 146.425 232.274 146.396 232.407 146.22C232.546 146.044 232.701 145.972 232.871 146.004Z" fill="#487A4B"/>
<path d="M191.536 133.38C192.005 133.785 192.512 133.921 193.056 133.788C193.322 133.718 193.541 133.577 193.712 133.364C195.317 131.305 197.432 130.388 200.056 130.612C200.312 130.633 200.482 130.766 200.568 131.012C201.232 132.98 202.384 136.524 204.304 138.156C204.495 138.316 204.625 138.539 204.672 138.788C206.536 148.26 201.392 153.612 194.104 158.436C191.52 160.14 189.144 160.02 186.144 160.388L182.376 158.772C182.125 158.66 181.936 158.726 181.808 158.972C171.288 179.116 155.088 185.02 133.496 186.564L130.088 186.116C132.312 185.236 135.77 184.398 140.464 183.604C144.373 182.948 149.304 181.204 155.256 178.372C162.621 174.868 168.661 169.756 173.376 163.036C175.424 161.692 176.541 159.905 176.728 157.676C178.589 152.934 180.272 147.881 181.776 142.516C182.4 140.292 182.44 137.364 182.208 135.46C181.36 128.476 177.8 117.692 175.376 107.012C175.349 106.898 175.286 106.797 175.196 106.722C175.107 106.647 174.996 106.603 174.88 106.596L161.32 105.708C156.648 105.116 150.701 103.862 143.48 101.948C127.32 97.6649 112.528 92.3209 99.1037 85.9156C96.1037 84.4916 92.9597 83.2756 90.1037 81.1236C89.8957 80.9689 89.7197 80.9983 89.5757 81.2116C89.2504 81.6969 89.0957 82.3076 89.1117 83.0436L87.8318 86.3716L87.1198 87.1876C86.9704 87.3583 86.7837 87.4249 86.5597 87.3876C86.1117 87.3023 85.7064 87.0249 85.3438 86.5556L88.7917 78.9876C88.9144 78.7263 89.1037 78.6623 89.3597 78.7956C101.077 84.8223 113.4 89.1289 126.328 91.7156C143.602 95.1769 161.021 97.6436 178.584 99.1156C178.85 99.1369 179.021 99.2756 179.096 99.5316C182.4 110.78 186.16 122.964 187.448 134.556C187.784 137.612 186.512 139.948 185.504 142.788C185.493 142.813 185.493 142.842 185.504 142.867C185.514 142.893 185.534 142.913 185.56 142.924C185.585 142.934 185.614 142.934 185.639 142.924C185.665 142.913 185.685 142.893 185.696 142.868C187.301 139.337 189.248 136.174 191.536 133.38ZM199.432 137.772C193.552 132.332 188.312 148.228 187.104 150.996C186.96 151.321 187.064 151.46 187.416 151.412C191.224 150.852 197.392 149.124 199.592 145.828C201 143.724 201.568 139.74 199.432 137.772Z" fill="#FB9E50"/>
<path d="M161.32 105.708C159.024 107.66 157.272 111.988 161.504 113.228C157.6 112.988 148.44 113.204 147.024 117.044C146.945 117.258 146.934 117.489 146.992 117.708C147.546 119.75 148.84 120.524 150.872 120.028C155.208 118.977 159.16 118.417 162.728 118.348C166.2 118.276 169.832 119.396 173.456 120.212C173.018 121.502 172.064 122.734 170.592 123.908C170.378 124.073 170.29 124.292 170.328 124.564C170.648 126.868 170.4 129.524 171.736 131.588C173.072 133.644 174.168 135.164 173.304 137.172C170.576 127.388 160.36 122.724 151.408 127.924C151.187 128.054 151.02 128.258 150.935 128.499C150.85 128.741 150.853 129.004 150.944 129.244C150.976 129.334 151.149 129.297 151.464 129.132C151.378 129.654 151.525 130.148 151.904 130.612C146.016 135.228 147.496 145.148 155.272 146.356C154.37 146.692 154.698 146.982 156.256 147.228L157.088 147.892C157.376 148.121 157.338 148.22 156.976 148.188C155.744 148.081 154.917 148.652 154.496 149.9C154.442 150.054 154.477 150.185 154.6 150.292C154.845 150.5 154.938 150.756 154.88 151.06C154.827 151.32 154.855 151.591 154.96 151.836C155.381 152.796 156.04 153.641 156.936 154.372C154.114 155.753 152.816 157.652 153.04 160.068L148.936 160.292C148.642 160.308 148.4 160.425 148.208 160.644C146.858 162.174 145.192 163.142 143.208 163.548C144.264 160.46 144.842 157.425 144.944 154.444C144.954 154.172 144.861 154.132 144.664 154.324C137.456 161.516 126.04 164.884 115.672 163.54C115.442 163.508 115.354 163.606 115.408 163.836C116.16 166.838 117.837 169.342 120.44 171.348C122.578 172.665 125.12 173.35 128.064 173.404C128.026 173.553 127.826 173.636 127.464 173.652C127.149 173.668 127.085 173.801 127.272 174.052L127.464 174.308C127.597 174.489 127.552 174.58 127.328 174.58L118.576 174.692C118.551 174.691 118.526 174.7 118.507 174.716C118.488 174.732 118.475 174.755 118.472 174.78C118.456 174.849 118.453 174.921 118.464 174.996C118.469 175.03 118.466 175.065 118.456 175.098C118.446 175.131 118.428 175.161 118.405 175.186C118.382 175.211 118.353 175.229 118.322 175.241C118.29 175.252 118.257 175.256 118.224 175.252C115.432 174.988 112.592 175.412 110.736 172.94C110.57 172.721 110.354 172.582 110.088 172.524C107.224 171.873 104.512 170.838 101.952 169.42C98.5996 167.556 96.3676 169.308 93.4476 168.916C91.5809 168.665 89.8742 167.94 88.3276 166.74C88.2849 166.702 88.2636 166.657 88.2636 166.604C88.2636 166.529 88.2636 166.452 88.2636 166.372C88.2582 166.19 88.1649 166.086 87.9836 166.06C83.9676 165.428 78.9596 160.316 77.4476 156.076C77.3766 155.873 77.2415 155.7 77.0628 155.583C76.884 155.465 76.6714 155.409 76.4571 155.424C76.2427 155.438 76.0384 155.522 75.875 155.663C75.7116 155.804 75.5981 155.993 75.5516 156.204L74.2476 162.26L72.3676 158.692C72.2556 156.82 71.8396 155.428 72.0556 153.516C72.4182 150.294 71.7409 147.604 70.0236 145.444C68.8076 141.022 68.3169 136.713 68.5516 132.516C68.7009 129.838 69.5036 126.478 70.9596 122.436C75.3276 110.313 80.1222 98.353 85.3436 86.5556C85.7062 87.025 86.1116 87.3023 86.5596 87.3876C86.7836 87.425 86.9702 87.3583 87.1196 87.1876L87.8316 86.3716C86.4076 92.6116 83.8556 98.6036 81.7756 104.644C81.2076 106.276 79.8396 107.788 79.6076 109.964C79.5756 110.23 79.4822 110.47 79.3276 110.684C77.9569 112.54 77.2129 113.916 77.0956 114.812C76.8236 116.876 76.0636 119.657 74.8156 123.156C72.4102 129.865 71.5996 137.137 72.3836 144.972C72.4476 145.668 72.9276 146.268 73.6316 146.212C73.9356 146.185 74.0742 146.02 74.0476 145.716C73.3702 136.804 74.6556 128.246 77.9036 120.044C81.1196 111.94 84.1196 103.676 86.7436 95.4516C87.1436 94.1983 87.8769 93.9583 88.9436 94.7316C91.8556 96.8383 94.6209 99.1316 97.2396 101.612C97.3631 101.728 97.5246 101.796 97.6942 101.803C97.8638 101.809 98.0302 101.755 98.1626 101.649C98.2951 101.542 98.3847 101.392 98.415 101.225C98.4453 101.058 98.4143 100.886 98.3276 100.74C95.4956 95.9796 91.7756 90.7636 91.5596 85.1076C91.5116 83.8756 90.4956 81.9956 89.1116 83.0436C89.0956 82.3076 89.2502 81.697 89.5756 81.2116C89.7196 80.9983 89.8956 80.969 90.1036 81.1236C92.9596 83.2756 96.1036 84.4916 99.1036 85.9156C112.528 92.321 127.32 97.665 143.48 101.948C150.701 103.862 156.648 105.116 161.32 105.708ZM107.672 114.276C101.328 109.972 89.0956 112.1 82.8796 115.34C81.7702 115.921 81.6236 116.684 82.4396 117.628C83.3276 118.652 84.1116 118.772 85.4636 118.396C91.0156 116.865 96.5382 116.844 102.032 118.332C105.04 119.148 108.328 118.964 108.088 114.996C108.078 114.851 108.035 114.711 107.963 114.586C107.891 114.462 107.791 114.355 107.672 114.276ZM86.1596 142.22C88.0742 144.678 90.9062 146.148 94.6556 146.628C98.9276 147.172 103.44 149.212 107.232 146.348C113.76 141.404 112.064 134.9 106.832 129.908C106.32 124.764 95.7436 125.836 92.8716 127.044C88.4476 128.916 80.7916 137.708 86.1596 142.22ZM124.072 144.012C123.528 143.846 123.122 143.828 122.856 143.956C122.545 144.105 122.28 144.35 122.099 144.653C121.918 144.956 121.833 145.3 121.855 145.634C121.878 145.967 122.008 146.27 122.225 146.498C122.441 146.725 122.733 146.863 123.056 146.892L124.592 147.044C124.842 147.07 125.095 147.013 125.31 146.882C125.525 146.75 125.69 146.551 125.78 146.316C125.871 146.081 125.881 145.822 125.809 145.58C125.737 145.339 125.588 145.128 125.384 144.98L124.072 144.012C125.298 144.166 126.258 144.796 126.952 145.9C127.133 146.182 127.074 146.401 126.776 146.556C125.816 147.062 124.781 147.361 123.672 147.452C123.373 147.473 123.128 147.598 122.936 147.828C122.301 148.612 122.213 149.545 122.672 150.628C122.789 150.9 122.997 151.06 123.296 151.108C127.568 151.74 132.272 146.268 127.224 143.212C126.672 142.876 123.136 142.1 124.072 144.012ZM103.943 158.828C103.881 157.287 102.753 155.852 100.807 154.838C98.8611 153.825 96.2564 153.316 93.5661 153.424C90.8758 153.532 88.3203 154.248 86.4618 155.415C84.6032 156.581 83.5938 158.102 83.6557 159.643C83.7177 161.184 84.8458 162.62 86.7919 163.633C88.738 164.646 91.3427 165.155 94.033 165.047C96.7233 164.939 99.2788 164.223 101.137 163.057C102.996 161.891 104.005 160.369 103.943 158.828Z" fill="#FDBC79"/>
<path d="M87.8318 86.3717L89.1118 83.0437C90.4958 81.9957 91.5118 83.8757 91.5598 85.1077C91.7758 90.7637 95.4958 95.9797 98.3278 100.74C98.4145 100.886 98.4456 101.058 98.4153 101.225C98.385 101.392 98.2953 101.543 98.1629 101.649C98.0304 101.755 97.864 101.81 97.6944 101.803C97.5248 101.796 97.3634 101.728 97.2398 101.612C94.6211 99.1317 91.8558 96.8384 88.9438 94.7317C87.8772 93.9584 87.1438 94.1984 86.7438 95.4517C84.1198 103.676 81.1198 111.94 77.9038 120.044C74.6558 128.246 73.3705 136.804 74.0478 145.716C74.0745 146.02 73.9358 146.185 73.6318 146.212C72.9278 146.268 72.4478 145.668 72.3838 144.972C71.5998 137.137 72.4105 129.865 74.8158 123.156C76.0638 119.657 76.8238 116.876 77.0958 114.812C77.2131 113.916 77.9571 112.54 79.3278 110.684C79.4825 110.47 79.5758 110.23 79.6078 109.964C79.8398 107.788 81.2078 106.276 81.7758 104.644C83.8558 98.6037 86.4078 92.6117 87.8318 86.3717Z" fill="#FED987"/>
<path d="M35.8634 90.7239C38.1194 91.4865 40.4474 91.5905 42.8474 91.0359C43.1728 90.9612 43.3194 91.0892 43.2874 91.4199C43.0954 93.4626 43.4501 94.5079 44.3514 94.5559L45.3914 109.476C43.8554 107.604 43.4581 104.892 44.1994 101.34C44.2634 101.041 44.2181 100.759 44.0634 100.492C43.4714 99.4625 43.2848 98.3585 43.5034 97.1799C43.5205 97.1158 43.5129 97.0476 43.482 96.9889C43.4511 96.9301 43.3992 96.8852 43.3366 96.863C43.2741 96.8408 43.2055 96.843 43.1445 96.8691C43.0835 96.8952 43.0346 96.9433 43.0074 97.0039C42.5381 97.8785 41.8288 98.3772 40.8794 98.4999C40.6341 98.5319 40.4634 98.6599 40.3674 98.8839C39.8661 100.047 39.3834 100.647 38.9194 100.684C39.1381 98.2679 37.8074 95.6332 34.9274 92.7799C34.7088 92.5559 34.6928 92.3185 34.8794 92.0679L35.8634 90.7239Z" fill="#83B890"/>
<path d="M45.3917 109.476L47.5117 132.748C44.6797 136.929 44.1224 141.604 45.8397 146.772C45.2584 146.654 44.9464 146.945 44.9037 147.644C44.893 147.846 44.7997 147.897 44.6237 147.796L44.3677 147.636C44.181 147.524 43.989 147.518 43.7917 147.62C37.3197 150.852 30.5837 154.012 27.5357 159.62C27.4535 159.774 27.3253 159.898 27.1689 159.976C27.0126 160.054 26.8359 160.081 26.6634 160.054C26.4909 160.027 26.3312 159.946 26.2065 159.824C26.0818 159.702 25.9984 159.544 25.9677 159.372C25.9037 159.036 25.7144 158.91 25.3997 158.996C20.9464 141.897 20.4077 124.553 23.7837 106.964L23.9757 107.636C24.01 107.756 24.0745 107.866 24.163 107.954C24.2515 108.043 24.3609 108.107 24.4808 108.141C24.6006 108.174 24.7268 108.177 24.8471 108.147C24.9674 108.117 25.0778 108.057 25.1677 107.972C26.2504 106.958 27.4984 106.878 28.9117 107.732C29.1197 107.86 29.3304 107.862 29.5437 107.74C32.5784 106.012 35.7037 103.66 38.9197 100.684C39.3837 100.646 39.8664 100.046 40.3677 98.8837C40.4637 98.6597 40.6344 98.5317 40.8797 98.4997C41.829 98.377 42.5384 97.8784 43.0077 97.0037C43.0348 96.9432 43.0838 96.895 43.1448 96.8689C43.2058 96.8428 43.2744 96.8407 43.3369 96.8629C43.3994 96.885 43.4513 96.93 43.4822 96.9887C43.5131 97.0474 43.5208 97.1156 43.5037 97.1797C43.285 98.3584 43.4717 99.4624 44.0637 100.492C44.2184 100.758 44.2637 101.041 44.1997 101.34C43.4584 104.892 43.8557 107.604 45.3917 109.476Z" fill="#67AA79"/>
<path d="M161.319 105.708L174.879 106.596C174.996 106.603 175.107 106.647 175.196 106.722C175.285 106.797 175.348 106.898 175.375 107.012C177.799 117.692 181.359 128.476 182.207 135.46C182.439 137.364 182.399 140.292 181.775 142.516C180.271 147.881 178.589 152.934 176.727 157.676C171.405 152.806 164.807 151.705 156.935 154.372C156.039 153.641 155.381 152.796 154.959 151.836C154.855 151.591 154.827 151.321 154.879 151.06C154.938 150.756 154.845 150.5 154.599 150.292C154.477 150.185 154.442 150.054 154.495 149.9C154.917 148.652 155.743 148.081 156.975 148.188C157.338 148.22 157.375 148.121 157.087 147.892L156.255 147.228C162.623 146.092 166.927 145.9 171.695 140.988C172.965 141.014 173.501 139.742 173.303 137.172C174.167 135.164 173.071 133.644 171.735 131.588C170.399 129.524 170.647 126.868 170.327 124.564C170.29 124.292 170.378 124.073 170.591 123.908C172.063 122.734 173.018 121.502 173.455 120.212C174.031 120.036 174.517 119.518 174.911 118.66C175.109 118.244 175.021 117.897 174.647 117.62C170.717 114.681 166.335 113.217 161.503 113.228C157.271 111.988 159.023 107.66 161.319 105.708Z" fill="#FCB468"/>
<path d="M107.672 114.276C107.791 114.355 107.891 114.462 107.963 114.587C108.035 114.711 108.078 114.852 108.088 114.996C108.328 118.964 105.04 119.148 102.032 118.332C96.5383 116.844 91.0157 116.865 85.4637 118.396C84.1117 118.772 83.3277 118.652 82.4397 117.628C81.6237 116.684 81.7703 115.921 82.8797 115.34C89.0957 112.1 101.328 109.972 107.672 114.276Z" fill="#070608"/>
<path d="M161.504 113.228C166.336 113.217 170.717 114.681 174.648 117.62C175.021 117.897 175.109 118.244 174.912 118.66C174.517 119.518 174.032 120.036 173.456 120.212C169.832 119.396 166.2 118.276 162.728 118.348C159.16 118.417 155.208 118.977 150.872 120.028C148.84 120.524 147.546 119.75 146.992 117.708C146.934 117.489 146.945 117.258 147.024 117.044C148.44 113.204 157.6 112.988 161.504 113.228Z" fill="#070608"/>
<path d="M173.304 137.172C173.501 139.742 172.965 141.014 171.696 140.988C169.125 130.161 162.381 126.209 151.464 129.132C151.149 129.297 150.976 129.334 150.944 129.244C150.854 129.004 150.851 128.741 150.936 128.499C151.02 128.258 151.188 128.054 151.408 127.924C160.36 122.724 170.576 127.388 173.304 137.172Z" fill="#070608"/>
<path d="M106.832 129.908C95.621 126.932 88.7303 131.036 86.1597 142.22C80.7917 137.708 88.4477 128.916 92.8717 127.044C95.7437 125.836 106.32 124.764 106.832 129.908Z" fill="#160B14"/>
<path d="M171.695 140.988C166.927 145.9 162.623 146.092 156.255 147.228C154.698 146.983 154.37 146.692 155.271 146.356C158.847 146.66 161.583 143.196 162.591 140.188C164.775 133.676 158.455 126.7 151.903 130.612C151.525 130.148 151.378 129.655 151.463 129.132C162.381 126.209 169.125 130.161 171.695 140.988Z" fill="#EBE1DA"/>
<path d="M106.832 129.908C112.064 134.9 113.76 141.404 107.232 146.348C103.44 149.212 98.9277 147.172 94.6557 146.628C90.9063 146.148 88.0743 144.679 86.1597 142.22C88.7303 131.036 95.621 126.932 106.832 129.908ZM100.529 146.681C101.415 146.958 102.357 147.029 103.3 146.888C104.244 146.747 105.17 146.398 106.027 145.86C106.884 145.322 107.654 144.606 108.294 143.752C108.934 142.899 109.431 141.925 109.756 140.887C110.413 138.789 110.333 136.555 109.532 134.675C108.731 132.795 107.276 131.424 105.486 130.863C104.6 130.585 103.658 130.515 102.715 130.656C101.772 130.797 100.845 131.146 99.9884 131.684C99.1316 132.222 98.3613 132.938 97.7214 133.792C97.0816 134.645 96.5848 135.619 96.2593 136.657C95.602 138.755 95.6825 140.989 96.4833 142.869C97.2841 144.749 98.7394 146.12 100.529 146.681Z" fill="#F3DEC9"/>
<path d="M206.672 130.86C219.672 142.404 201.936 166.292 186.144 160.388C189.144 160.02 191.52 160.14 194.104 158.436C201.392 153.612 206.536 148.26 204.672 138.788C204.625 138.539 204.495 138.316 204.304 138.156C202.384 136.524 201.232 132.98 200.568 131.012C200.482 130.766 200.312 130.633 200.056 130.612C197.432 130.388 195.317 131.305 193.712 133.364C193.541 133.577 193.322 133.718 193.056 133.788C192.512 133.921 192.005 133.785 191.536 133.38C196.133 128.468 201.178 127.628 206.672 130.86Z" fill="#FCBA5E"/>
<path d="M60.9276 130.7C52.3089 133.175 49.3516 138.545 52.0556 146.812C52.8556 149.26 54.7863 151.671 57.8476 154.044C57.9547 154.127 58.0332 154.241 58.072 154.371C58.1107 154.5 58.1078 154.637 58.0636 154.764C57.7329 155.724 57.7383 156.671 58.0796 157.604C58.1756 157.865 58.1969 158.129 58.1436 158.396L57.7516 160.356C51.9703 157.593 47.9996 153.065 45.8396 146.772C44.1223 141.604 44.6796 136.929 47.5116 132.748C51.3409 128.689 55.8129 128.007 60.9276 130.7Z" fill="#FED987"/>
<path d="M155.272 146.356C147.496 145.148 146.016 135.228 151.904 130.612C158.456 126.7 164.776 133.676 162.592 140.188C161.584 143.196 158.848 146.66 155.272 146.356ZM155.761 138.874C155.982 138.852 156.197 138.778 156.391 138.656C156.586 138.535 156.757 138.368 156.895 138.165C157.033 137.962 157.135 137.728 157.196 137.475C157.256 137.222 157.274 136.956 157.247 136.691C157.194 136.157 156.965 135.663 156.611 135.317C156.257 134.971 155.806 134.801 155.359 134.846C155.137 134.868 154.923 134.942 154.728 135.064C154.534 135.185 154.362 135.352 154.224 135.555C154.086 135.758 153.984 135.992 153.924 136.245C153.863 136.498 153.846 136.764 153.872 137.028C153.925 137.563 154.154 138.057 154.509 138.403C154.863 138.749 155.313 138.919 155.761 138.874Z" fill="#070608"/>
<path d="M100.529 146.681C98.7392 146.12 97.2839 144.748 96.4831 142.869C95.6824 140.989 95.6018 138.755 96.2591 136.657C96.5846 135.618 97.0814 134.645 97.7212 133.791C98.3611 132.938 99.1314 132.222 99.9882 131.684C100.845 131.146 101.771 130.797 102.715 130.656C103.658 130.515 104.6 130.585 105.486 130.863C107.276 131.424 108.731 132.795 109.532 134.675C110.333 136.555 110.413 138.789 109.756 140.887C109.43 141.925 108.934 142.899 108.294 143.752C107.654 144.605 106.884 145.322 106.027 145.86C105.17 146.398 104.243 146.747 103.3 146.888C102.357 147.029 101.415 146.958 100.529 146.681ZM99.7995 138.564L101.895 138.548C102.091 138.546 102.279 138.466 102.416 138.327C102.554 138.188 102.631 138 102.631 137.804V137.132C102.629 136.667 102.583 136.208 102.495 135.779C102.408 135.351 102.281 134.962 102.122 134.635C101.963 134.308 101.775 134.049 101.569 133.874C101.362 133.698 101.142 133.609 100.919 133.612H100.711C100.265 133.617 99.8389 133.992 99.527 134.655C99.2151 135.318 99.0427 136.214 99.0475 137.148V137.82C99.0475 137.918 99.067 138.016 99.1049 138.106C99.1428 138.197 99.1983 138.28 99.2682 138.349C99.3382 138.418 99.4211 138.473 99.5123 138.509C99.6035 138.546 99.7011 138.565 99.7995 138.564Z" fill="#070608"/>
<path d="M60.9275 130.7C65.0769 133.782 68.1089 138.697 70.0235 145.444C71.7409 147.604 72.4182 150.294 72.0555 153.516C71.8395 155.428 72.2555 156.82 72.3675 158.692C68.1809 161.193 63.3382 161.721 57.8395 160.276C58.2075 160.436 58.1782 160.462 57.7515 160.356L58.1435 158.396C58.1969 158.129 58.1755 157.865 58.0795 157.604C57.7382 156.67 57.7329 155.724 58.0635 154.764C58.1077 154.637 58.1106 154.5 58.0719 154.37C58.0331 154.241 57.9547 154.127 57.8475 154.044C54.7862 151.67 52.8555 149.26 52.0555 146.812C49.3515 138.545 52.3089 133.174 60.9275 130.7ZM64.4075 143.06C60.4715 132.596 50.7755 141.492 58.1835 148.692C60.7649 151.204 63.8235 152.326 67.3595 152.06C67.4472 152.052 67.5318 152.023 67.6062 151.976C67.6806 151.929 67.7428 151.866 67.7874 151.79C67.832 151.715 67.8579 151.631 67.8628 151.544C67.8677 151.457 67.8515 151.371 67.8155 151.292C66.6049 148.614 65.4689 145.87 64.4075 143.06Z" fill="#FCB468"/>
<path d="M99.7995 138.564C99.7011 138.565 99.6035 138.546 99.5123 138.51C99.4211 138.473 99.3381 138.418 99.2682 138.349C99.1983 138.28 99.1427 138.197 99.1049 138.106C99.067 138.016 99.0475 137.918 99.0475 137.82V137.148C99.0427 136.214 99.2151 135.318 99.527 134.655C99.8389 133.992 100.265 133.617 100.711 133.612H100.919C101.142 133.609 101.362 133.698 101.569 133.874C101.775 134.049 101.963 134.308 102.122 134.635C102.281 134.962 102.408 135.351 102.495 135.78C102.583 136.208 102.629 136.668 102.631 137.132V137.804C102.631 138 102.554 138.188 102.416 138.327C102.279 138.466 102.091 138.546 101.895 138.548L99.7995 138.564ZM101.199 137.156L101.343 135.748C101.357 135.644 101.332 135.54 101.276 135.452C101.219 135.365 101.133 135.301 101.033 135.271C100.933 135.241 100.826 135.248 100.73 135.29C100.635 135.332 100.557 135.406 100.511 135.5C100.181 136.124 100.207 136.727 100.591 137.308C100.933 137.825 101.135 137.775 101.199 137.156Z" fill="#EBE1DA"/>
<path d="M155.761 138.874C155.313 138.919 154.863 138.749 154.509 138.403C154.155 138.057 153.926 137.563 153.872 137.028C153.846 136.764 153.863 136.498 153.924 136.245C153.984 135.992 154.086 135.758 154.224 135.555C154.362 135.352 154.534 135.185 154.728 135.064C154.923 134.942 155.137 134.868 155.359 134.846C155.806 134.801 156.257 134.971 156.611 135.317C156.965 135.663 157.194 136.157 157.247 136.691C157.274 136.956 157.256 137.222 157.196 137.475C157.136 137.728 157.033 137.962 156.895 138.165C156.757 138.368 156.586 138.534 156.391 138.656C156.197 138.778 155.983 138.852 155.761 138.874ZM156.032 137.732C156.144 137.193 156.019 136.7 155.656 136.252C155.341 135.863 155.096 135.903 154.92 136.372C154.68 137.017 154.819 137.553 155.336 137.98C155.704 138.284 155.936 138.201 156.032 137.732Z" fill="#EBE1DA"/>
<path d="M100.592 137.308C100.208 136.726 100.181 136.124 100.512 135.5C100.557 135.406 100.635 135.332 100.73 135.29C100.826 135.248 100.933 135.241 101.033 135.271C101.133 135.301 101.219 135.365 101.276 135.452C101.333 135.54 101.357 135.644 101.344 135.748L101.2 137.156C101.136 137.774 100.933 137.825 100.592 137.308Z" fill="#645A4F"/>
<path d="M155.336 137.98C154.818 137.553 154.68 137.017 154.92 136.372C155.096 135.903 155.341 135.863 155.656 136.252C156.018 136.7 156.144 137.193 156.032 137.732C155.936 138.201 155.704 138.284 155.336 137.98Z" fill="#523D38"/>
<path d="M187.104 150.996C188.312 148.228 193.552 132.332 199.432 137.772C201.568 139.74 201 143.724 199.592 145.828C197.392 149.124 191.224 150.852 187.416 151.412C187.064 151.46 186.96 151.321 187.104 150.996Z" fill="#E05E28"/>
<path d="M58.1833 148.692C50.7753 141.492 60.4713 132.596 64.4073 143.06C65.4687 145.87 66.6047 148.614 67.8153 151.292C67.8513 151.371 67.8674 151.457 67.8625 151.544C67.8576 151.631 67.8318 151.715 67.7872 151.79C67.7425 151.866 67.6804 151.929 67.606 151.976C67.5316 152.023 67.447 152.052 67.3593 152.06C63.8233 152.326 60.7647 151.204 58.1833 148.692Z" fill="#ED6735"/>
<path d="M124.071 144.012C123.135 142.1 126.671 142.876 127.223 143.212C132.271 146.268 127.567 151.74 123.295 151.108C122.997 151.06 122.789 150.9 122.671 150.628C122.213 149.545 122.301 148.612 122.935 147.828C123.127 147.598 123.373 147.473 123.671 147.452C124.781 147.361 125.815 147.062 126.775 146.556C127.074 146.401 127.133 146.182 126.951 145.9C126.258 144.796 125.298 144.166 124.071 144.012Z" fill="#FB9E50"/>
<path d="M124.072 144.012L125.384 144.98C125.588 145.128 125.737 145.339 125.809 145.581C125.881 145.822 125.871 146.081 125.781 146.316C125.69 146.551 125.525 146.75 125.31 146.882C125.095 147.014 124.842 147.07 124.592 147.044L123.056 146.892C122.733 146.863 122.442 146.725 122.225 146.498C122.008 146.271 121.878 145.967 121.856 145.634C121.833 145.301 121.918 144.956 122.099 144.653C122.28 144.35 122.546 144.105 122.856 143.956C123.122 143.828 123.528 143.847 124.072 144.012Z" fill="#FCE8A3"/>
<path d="M45.8394 146.772C47.9994 153.065 51.9701 157.593 57.7514 160.356C58.1781 160.463 58.2074 160.436 57.8394 160.276C59.0314 163.564 61.1674 165.892 63.1354 168.66C62.2074 171.055 61.1514 173.417 59.9674 175.748C58.9274 177.788 56.9354 179.108 55.7834 181.372C55.6608 181.612 55.4901 181.807 55.2714 181.956C53.1008 183.428 51.5807 185.399 50.7114 187.868C50.6261 188.108 50.5994 188.356 50.6314 188.612C51.0954 192.212 45.8154 188.924 44.9274 188.164C44.6661 187.945 44.4314 187.972 44.2234 188.244C43.2794 189.513 41.9728 189.887 40.3034 189.364C40.1808 189.327 40.1114 189.372 40.0954 189.5L40.0554 189.788C40.0341 189.937 39.9648 189.969 39.8474 189.884C39.7354 189.799 39.5967 189.777 39.4314 189.82C33.1914 180.316 28.5141 170.041 25.3994 158.996C25.7141 158.911 25.9034 159.036 25.9674 159.372C25.9981 159.544 26.0816 159.702 26.2063 159.824C26.331 159.946 26.4906 160.027 26.6631 160.054C26.8356 160.081 27.0123 160.054 27.1687 159.976C27.325 159.899 27.4532 159.774 27.5354 159.62C30.5834 154.012 37.3194 150.852 43.7914 147.62C43.9888 147.519 44.1807 147.524 44.3674 147.636L44.6234 147.796C44.7994 147.897 44.8928 147.847 44.9034 147.644C44.9461 146.945 45.2581 146.655 45.8394 146.772Z" fill="#56915F"/>
<path d="M176.727 157.676C176.541 159.905 175.423 161.692 173.375 163.036C167.223 164.364 157.535 165.244 153.039 160.068C152.815 157.652 154.114 155.753 156.935 154.372C164.807 151.705 171.405 152.806 176.727 157.676Z" fill="#F98759"/>
<path d="M94.033 165.047C99.6353 164.822 104.072 162.038 103.943 158.829C103.815 155.619 99.1685 153.2 93.5662 153.425C87.9639 153.65 83.5269 156.434 83.6558 159.643C83.7847 162.853 88.4307 165.272 94.033 165.047Z" fill="#F98759"/>
<path d="M143.208 163.548L141.064 167.596C133.981 164.833 127.394 165.3 121.304 168.996C120.434 169.524 120.146 170.308 120.44 171.348C117.837 169.342 116.16 166.838 115.408 163.836C115.354 163.606 115.442 163.508 115.672 163.54C126.04 164.884 137.456 161.516 144.664 154.324C144.861 154.132 144.954 154.172 144.944 154.444C144.842 157.425 144.264 160.46 143.208 163.548Z" fill="#60080C"/>
<path d="M128.064 173.404C133.408 173.569 137.741 171.633 141.064 167.596L143.208 163.548C145.192 163.142 146.858 162.174 148.208 160.644C148.4 160.425 148.642 160.308 148.936 160.292L153.04 160.068C157.536 165.244 167.224 164.364 173.376 163.036C168.661 169.756 162.621 174.868 155.256 178.372C149.304 181.204 144.373 182.948 140.464 183.604C135.77 184.398 132.312 185.236 130.088 186.116L121.536 186.212C102.328 185.796 83.9356 179.812 74.2476 162.26L75.5516 156.204C75.5981 155.994 75.7116 155.804 75.875 155.663C76.0384 155.522 76.2427 155.438 76.457 155.424C76.6714 155.409 76.884 155.465 77.0627 155.583C77.2415 155.7 77.3766 155.874 77.4476 156.076C78.9596 160.316 83.9676 165.428 87.9836 166.06C88.1649 166.086 88.2582 166.19 88.2636 166.372C88.2636 166.452 88.2636 166.529 88.2636 166.604C88.2636 166.657 88.2849 166.702 88.3276 166.74C89.8742 167.94 91.5809 168.665 93.4476 168.916C96.3676 169.308 98.5996 167.556 101.952 169.42C104.512 170.838 107.224 171.873 110.088 172.524C110.354 172.582 110.57 172.721 110.736 172.94C112.592 175.412 115.432 174.988 118.224 175.252C118.257 175.256 118.29 175.252 118.322 175.241C118.353 175.23 118.382 175.211 118.405 175.186C118.428 175.161 118.446 175.131 118.456 175.098C118.466 175.065 118.469 175.03 118.464 174.996C118.453 174.921 118.456 174.849 118.472 174.78C118.475 174.755 118.488 174.733 118.507 174.716C118.526 174.7 118.551 174.692 118.576 174.692L127.328 174.58C127.552 174.58 127.597 174.489 127.464 174.308L127.272 174.052C127.085 173.801 127.149 173.668 127.464 173.652C127.826 173.636 128.026 173.553 128.064 173.404Z" fill="#FCB468"/>
<path d="M72.3674 158.692L74.2474 162.26C83.9354 179.812 102.327 185.796 121.535 186.212L121.719 192.588C121.885 194.369 121.562 195.513 120.751 196.02C106.975 197.324 99.0234 204.052 95.3434 217.404C94.3887 214.993 93.29 212.919 92.0474 211.18C82.0794 197.26 72.8954 182.676 63.1354 168.66C61.1674 165.892 59.0314 163.564 57.8394 160.276C63.338 161.721 68.1807 161.193 72.3674 158.692Z" fill="#487A4B"/>
<path d="M141.064 167.596C137.741 171.633 133.408 173.569 128.064 173.404C125.12 173.35 122.578 172.665 120.44 171.348C120.146 170.308 120.434 169.524 121.304 168.996C127.394 165.3 133.981 164.833 141.064 167.596Z" fill="#CF3722"/>
<path d="M63.1356 168.66C72.8956 182.676 82.0796 197.26 92.0476 211.18C93.2903 212.919 94.389 214.993 95.3436 217.404C94.0316 221.329 92.9756 225.873 92.1756 231.036C70.1223 223.009 52.541 209.271 39.4316 189.82C39.597 189.777 39.7356 189.799 39.8476 189.884C39.965 189.969 40.0343 189.937 40.0556 189.788L40.0956 189.5C40.1116 189.372 40.181 189.327 40.3036 189.364C41.973 189.887 43.2796 189.513 44.2236 188.244C44.4316 187.972 44.6663 187.945 44.9276 188.164C45.8156 188.924 51.0956 192.212 50.6316 188.612C50.5996 188.356 50.6263 188.108 50.7116 187.868C51.581 185.399 53.101 183.428 55.2716 181.956C55.4903 181.807 55.661 181.612 55.7836 181.372C56.9356 179.108 58.9276 177.788 59.9676 175.748C61.1516 173.417 62.2076 171.055 63.1356 168.66Z" fill="#4B855D"/>
<path d="M130.088 186.116L133.496 186.564V192.684L121.72 192.588L121.536 186.212L130.088 186.116Z" fill="#ED6735"/>
<path d="M121.719 192.588L133.495 192.684C133.245 194.652 133.541 195.711 134.383 195.86C134.679 201.692 131.839 204.604 127.063 207.3C126.844 207.426 126.586 207.47 126.336 207.424C126.086 207.379 125.859 207.247 125.695 207.052C123.253 204.124 121.466 200.777 120.335 197.012C119.973 196.847 120.111 196.516 120.751 196.02C121.562 195.513 121.885 194.369 121.719 192.588Z" fill="#FB8A30"/>
<path d="M134.383 195.86C137.647 195.913 140.535 196.495 143.047 197.604C149.031 199.497 153.349 202.585 155.999 206.868C159.983 213.292 162.119 222.556 163.207 229.516C163.311 230.22 163.376 230.188 163.944 230.58L153.847 233.316C153.997 227.215 153.365 221.236 151.951 215.38C151.845 214.948 151.784 214.956 151.768 215.404L151.111 233.436C150.909 234.007 150.626 234.284 150.263 234.268C149.847 234.279 149.453 234.185 149.08 233.988C148.824 233.855 148.738 233.649 148.823 233.372C149.799 230.196 150.199 226.42 148.111 223.532C144.039 217.908 135.88 215.26 130.728 212.596C130.514 212.484 130.391 212.548 130.359 212.788L129.671 218.412C129.669 218.448 129.653 218.482 129.626 218.506C129.599 218.53 129.564 218.542 129.528 218.54C129.491 218.538 129.458 218.521 129.434 218.494C129.41 218.467 129.397 218.432 129.399 218.396C129.33 216.172 129.426 213.951 129.687 211.732C129.693 211.678 129.688 211.623 129.671 211.571C129.655 211.519 129.628 211.472 129.593 211.431C129.558 211.39 129.514 211.358 129.466 211.335C129.417 211.313 129.365 211.301 129.311 211.3L125.744 211.236C125.349 211.225 125.125 211.025 125.071 210.636L124.695 207.972C124.669 207.791 124.602 207.628 124.495 207.484C122.186 204.252 120.285 200.865 118.792 197.324C118.888 196.999 119.402 196.895 120.335 197.012C121.466 200.777 123.253 204.124 125.695 207.052C125.859 207.247 126.086 207.379 126.336 207.424C126.586 207.47 126.844 207.426 127.064 207.3C131.84 204.604 134.679 201.692 134.383 195.86Z" fill="#B79623"/>
<path d="M120.752 196.02C120.112 196.516 119.973 196.846 120.336 197.012C119.402 196.894 118.888 196.998 118.792 197.324C115.288 197.484 112.376 198.284 110.056 199.724C108.045 200.721 106.794 201.564 106.304 202.252C102.552 207.5 97.1838 216.244 96.7678 222.748C96.7518 223.014 96.6451 223.236 96.4478 223.412C95.0024 224.724 94.2184 226.329 94.0958 228.228C93.2584 229.262 93.3438 230.345 94.3518 231.476L92.1758 231.036C92.9758 225.873 94.0318 221.329 95.3438 217.404C99.0238 204.052 106.976 197.324 120.752 196.02Z" fill="#FED987"/>
<path d="M118.792 197.324C120.285 200.865 122.186 204.252 124.496 207.484C124.602 207.628 124.669 207.79 124.696 207.972L125.072 210.636C125.125 211.025 125.349 211.225 125.744 211.236L129.312 211.3C129.365 211.3 129.418 211.312 129.466 211.335C129.514 211.358 129.558 211.39 129.593 211.431C129.629 211.472 129.655 211.519 129.671 211.571C129.688 211.623 129.693 211.678 129.688 211.732C129.426 213.95 129.33 216.172 129.4 218.396C129.399 218.414 129.401 218.431 129.407 218.448C129.413 218.465 129.422 218.481 129.434 218.494C129.458 218.521 129.492 218.538 129.528 218.54C129.564 218.542 129.599 218.53 129.626 218.506C129.653 218.482 129.67 218.448 129.672 218.412L130.36 212.788C130.392 212.548 130.514 212.484 130.728 212.596C135.88 215.26 144.04 217.908 148.112 223.532C150.2 226.42 149.8 230.196 148.824 233.372C148.738 233.649 148.824 233.854 149.08 233.988C149.453 234.185 149.848 234.278 150.264 234.268C141.245 235.985 132.181 236.716 123.072 236.46V213.548C123.071 213.386 123.021 213.229 122.928 213.098C122.835 212.966 122.704 212.866 122.552 212.812C116.064 210.428 113.568 205.132 110.056 199.724C112.376 198.284 115.288 197.484 118.792 197.324Z" fill="#B7AC2E"/>
<path d="M143.048 197.604C158.8 200.428 162.272 216.292 164.568 229.604C164.6 229.796 164.552 229.964 164.424 230.108C164.333 230.209 164.291 230.334 164.296 230.484C164.152 230.201 164.035 230.233 163.944 230.58C163.376 230.188 163.312 230.22 163.208 229.516C162.12 222.556 159.984 213.292 156 206.868C153.349 202.585 149.032 199.497 143.048 197.604Z" fill="#FED987"/>
<path d="M110.056 199.724C113.568 205.132 116.064 210.428 122.552 212.812C122.704 212.866 122.835 212.966 122.928 213.098C123.021 213.229 123.071 213.387 123.072 213.548V236.46C121.832 236.396 103.112 234.996 102.544 233.228L103.48 215.868C103.49 215.591 103.552 215.327 103.664 215.076C103.952 214.425 103.85 213.833 103.36 213.3C103.269 213.204 103.156 213.132 103.03 213.09C102.905 213.049 102.771 213.04 102.642 213.064C102.513 213.088 102.392 213.144 102.291 213.227C102.19 213.31 102.112 213.418 102.064 213.54C100.202 218.276 99.5757 223.185 100.184 228.268C100.192 228.35 100.176 228.433 100.136 228.505C100.096 228.578 100.036 228.637 99.962 228.674C99.8884 228.711 99.8051 228.725 99.7233 228.714C99.6414 228.703 99.5649 228.667 99.5037 228.612L96.2477 225.508C96.1993 225.461 96.1384 225.43 96.0724 225.419C96.0065 225.407 95.9383 225.416 95.8763 225.443C95.8144 225.47 95.7613 225.515 95.7235 225.572C95.6857 225.629 95.6649 225.696 95.6637 225.764C95.6637 226.271 96.0664 226.977 96.8717 227.884C95.2877 227.671 94.3624 227.785 94.0957 228.228C94.2184 226.329 95.0024 224.724 96.4477 223.412C96.645 223.236 96.7517 223.015 96.7677 222.748C97.1837 216.244 102.552 207.5 106.304 202.252C106.794 201.564 108.045 200.721 110.056 199.724ZM106.848 207.3C107.594 205.919 108.514 204.687 109.608 203.604C109.885 203.332 109.861 203.087 109.536 202.868L109.216 202.652C109.092 202.571 108.942 202.539 108.795 202.561C108.648 202.583 108.513 202.658 108.416 202.772L104.024 207.916C103.784 208.199 103.81 208.455 104.104 208.684L105.504 209.788C105.733 209.964 105.76 210.167 105.584 210.396C103.952 212.524 105.384 215.46 106.544 217.884C109.064 223.124 113.912 216.188 114.4 213.508C114.448 213.257 114.344 213.116 114.088 213.084C112.274 212.855 110.562 212.292 108.952 211.396C108.722 211.268 108.477 211.204 108.216 211.204H107.296C107.159 211.205 107.026 211.162 106.916 211.081C106.806 211 106.725 210.885 106.684 210.754C106.644 210.622 106.647 210.481 106.692 210.351C106.737 210.22 106.823 210.107 106.936 210.028C108.157 209.18 109.178 208.119 110 206.844C110.037 206.786 110.054 206.718 110.049 206.649C110.044 206.581 110.017 206.515 109.972 206.463C109.927 206.411 109.867 206.375 109.8 206.36C109.733 206.345 109.662 206.352 109.6 206.38C108.986 206.663 108.41 207.017 107.872 207.444C107.69 207.588 107.485 207.644 107.256 207.612L106.984 207.572C106.808 207.551 106.762 207.46 106.848 207.3Z" fill="#C5BF44"/>
<path d="M106.984 207.572L107.256 207.612C107.485 207.644 107.69 207.588 107.872 207.444C108.41 207.017 108.986 206.662 109.6 206.38C109.663 206.352 109.733 206.345 109.8 206.36C109.867 206.375 109.927 206.411 109.972 206.463C110.017 206.515 110.044 206.58 110.049 206.649C110.054 206.717 110.037 206.786 110 206.844C109.178 208.118 108.157 209.18 106.936 210.028C106.823 210.107 106.737 210.22 106.692 210.35C106.647 210.481 106.644 210.622 106.685 210.754C106.725 210.885 106.806 211 106.916 211.081C107.026 211.162 107.159 211.205 107.296 211.204H108.216C108.477 211.204 108.722 211.268 108.952 211.396C110.562 212.292 112.274 212.854 114.088 213.084C114.344 213.116 114.448 213.257 114.4 213.508C113.912 216.188 109.064 223.124 106.544 217.884C105.384 215.46 103.952 212.524 105.584 210.396C105.76 210.166 105.733 209.964 105.504 209.788L104.104 208.684C103.81 208.454 103.784 208.198 104.024 207.916L108.416 202.772C108.513 202.658 108.648 202.583 108.795 202.56C108.942 202.538 109.092 202.571 109.216 202.652L109.536 202.868C109.861 203.086 109.885 203.332 109.608 203.604C108.514 204.686 107.594 205.918 106.848 207.3C106.762 207.46 106.808 207.55 106.984 207.572Z" fill="#B3AB69"/>
<path d="M102.544 233.228C101.525 233.532 100.853 233.481 100.528 233.076C99.7756 230.847 98.5569 229.116 96.8716 227.884C96.0662 226.977 95.6636 226.271 95.6636 225.764C95.6648 225.696 95.6856 225.629 95.7234 225.572C95.7611 225.515 95.8142 225.47 95.8762 225.443C95.9382 225.416 96.0063 225.407 96.0723 225.419C96.1382 225.43 96.1992 225.461 96.2476 225.508L99.5036 228.612C99.5647 228.667 99.6413 228.703 99.7231 228.714C99.805 228.725 99.8882 228.711 99.9619 228.674C100.036 228.636 100.096 228.578 100.136 228.505C100.175 228.433 100.192 228.35 100.184 228.268C99.5756 223.185 100.202 218.276 102.064 213.54C102.111 213.418 102.189 213.31 102.291 213.227C102.392 213.144 102.513 213.088 102.642 213.064C102.771 213.04 102.905 213.049 103.03 213.09C103.156 213.132 103.269 213.204 103.36 213.3C103.85 213.833 103.952 214.425 103.664 215.076C103.552 215.327 103.49 215.591 103.48 215.868L102.544 233.228Z" fill="#B79623"/>
<path d="M153.848 233.316L151.112 233.436L151.768 215.404C151.784 214.956 151.845 214.948 151.952 215.38C153.365 221.236 153.997 227.215 153.848 233.316Z" fill="#60080C"/>
<path d="M96.8718 227.884C98.5571 229.116 99.7758 230.847 100.528 233.076L94.3518 231.476C93.3438 230.345 93.2585 229.263 94.0958 228.228C94.3625 227.785 95.2878 227.671 96.8718 227.884Z" fill="#B7AC2E"/>
</svg>
