<svg width="256" height="256" viewBox="0 0 256 256" fill="none" xmlns="http://www.w3.org/2000/svg">
<path d="M53.1779 52.8414C44.6125 61.7267 37.8952 71.7721 33.0259 82.9774" stroke="#729E86" stroke-width="2"/>
<path d="M33.0255 82.9774C32.7909 83.6387 32.5456 84.012 32.2896 84.0974" stroke="#639884" stroke-width="2"/>
<path d="M79.1933 33.7773C69.3586 38.8013 60.6866 45.156 53.1772 52.8413" stroke="#72A189" stroke-width="2"/>
<path d="M233.122 143.481C236.522 109.041 226.794 76.5853 201.994 51.9933" stroke="#5C9B8A" stroke-width="2"/>
<path d="M201.994 51.9934C190.762 41.0707 177.73 33.0067 162.898 27.8014" stroke="#6FA490" stroke-width="2"/>
<path d="M162.898 27.8014C134.818 17.6094 105.53 20.2414 79.1938 33.7774" stroke="#74A58D" stroke-width="2"/>
<path d="M162.897 27.8014C161.271 29.1187 159.543 29.5054 157.713 28.9614C157.479 28.892 157.247 28.9 157.017 28.9854L150.617 31.3534C150.34 31.4547 150.201 31.652 150.201 31.9454C150.201 33.4334 149.553 34.3774 148.257 34.7774C144.081 36.0734 140.209 38.4174 136.129 40.1054C135.313 40.4414 134.519 41.1694 133.745 42.2894C133.596 42.5027 133.647 42.6494 133.897 42.7294C134.943 43.06 135.855 43.628 136.633 44.4334C136.665 44.4707 136.681 44.516 136.681 44.5694C136.676 44.6387 136.665 44.708 136.649 44.7774C136.607 44.916 136.657 44.9854 136.801 44.9854C137.993 44.9854 138.513 46.9134 137.761 47.0894" stroke="#AACCA2" stroke-width="2"/>
<path d="M137.762 47.0893L134.594 45.3773" stroke="#6E705C" stroke-width="2"/>
<path d="M134.593 45.3774C135.473 44.2734 133.033 43.6974 132.289 43.3854C127.111 41.2094 121.441 40.0494 115.281 39.9054C96.9533 39.4814 77.7934 44.7134 64.6974 57.8974C64.4147 58.1854 64.1267 58.6387 63.8333 59.2574C63.2253 60.5454 61.8173 61.3934 61.2253 62.2974C57.8333 67.4814 55.6493 73.148 54.6733 79.2974" stroke="#D3CD9B" stroke-width="2"/>
<path d="M54.6739 79.2974C53.1859 79.452 52.3912 78.9667 52.2899 77.8414C52.2776 77.7104 52.234 77.5846 52.163 77.4745C52.0919 77.3645 51.9955 77.2735 51.8819 77.2094C50.6872 76.5374 49.6339 76.7134 48.7219 77.7374C48.5459 77.9347 48.3326 78.0787 48.0819 78.1694C47.6979 78.3054 37.3939 81.2094 37.2659 82.6254C37.2499 82.86 37.1299 83.012 36.9059 83.0814C36.2926 83.2787 35.6952 83.2067 35.1139 82.8654C34.8526 82.716 34.6526 82.7747 34.5139 83.0414L34.2499 83.5214C34.0472 83.9054 33.8072 83.9294 33.5299 83.5934L33.0259 82.9774" stroke="#A0C89C" stroke-width="2"/>
<path d="M201.994 51.9933L201.578 52.9453C201.434 53.292 201.548 53.4653 201.922 53.4653H202.29C202.333 53.468 202.374 53.4851 202.406 53.5139C202.438 53.5427 202.46 53.5815 202.467 53.624C202.474 53.6666 202.467 53.7104 202.447 53.7483C202.426 53.7863 202.393 53.8162 202.354 53.8333C201.372 54.196 200.692 54.1426 200.314 53.6733C200.138 53.4493 199.911 53.3 199.634 53.2253C198.439 52.9 197.383 52.324 196.466 51.4973C196.263 51.3106 196.05 51.3 195.826 51.4653C194.658 52.3293 194.444 53.4146 195.186 54.7213C195.218 54.78 195.212 54.8333 195.17 54.8813C195.111 54.94 195.063 54.9906 195.026 55.0333C195.02 55.0402 195.018 55.0486 195.018 55.0573C195.018 55.066 195.02 55.0744 195.026 55.0813C195.959 56.404 196.948 57.676 197.994 58.8973C198.159 59.0893 198.18 59.2973 198.058 59.5213C197.924 59.7613 197.852 60.036 197.842 60.3453" stroke="#92C39F" stroke-width="2"/>
<path d="M197.842 60.3454C194.247 56.0094 189.868 52.7801 184.706 50.6574" stroke="#60695A" stroke-width="2"/>
<path d="M184.705 50.6574C174.999 45.756 165.367 45.8307 155.809 50.8814" stroke="#797865" stroke-width="2"/>
<path d="M155.81 50.8814C152.54 52.8974 149.791 55.3294 147.562 58.1774C147.364 58.4334 147.191 58.4174 147.042 58.1294C144.727 53.7081 141.634 50.0281 137.762 47.0894" stroke="#6A6F5F" stroke-width="2"/>
<path d="M134.594 45.3772L129.521 43.4652" stroke="#937058" stroke-width="2"/>
<path d="M129.521 43.4653C107.097 36.9453 76.8575 45.6413 62.3855 64.1613" stroke="#A2795E" stroke-width="2"/>
<path d="M62.3855 64.1613C58.6629 69.4306 56.2735 75.2866 55.2175 81.7293" stroke="#9B755B" stroke-width="2"/>
<path d="M55.2177 81.7293C54.1084 82.4066 53.9271 81.5959 54.6737 79.2973" stroke="#C4C898" stroke-width="2"/>
<path d="M129.521 43.4652C128.257 44.9372 131.409 45.2972 132.329 45.7932" stroke="#3D1C1F" stroke-width="2"/>
<path d="M132.329 45.7934C132.175 46.1294 132.204 46.5107 132.417 46.9374C132.471 47.0435 132.489 47.1642 132.469 47.2821C132.448 47.4 132.391 47.509 132.305 47.5934C131.671 48.2227 130.916 48.444 130.041 48.2574C129.833 48.2147 129.641 48.252 129.465 48.3694C128.452 49.0307 127.324 49.388 126.081 49.4414C125.922 49.4489 125.769 49.5076 125.646 49.6086C125.524 49.7097 125.438 49.8475 125.401 50.0014L125.193 50.8654C125.162 50.9932 125.095 51.1091 125 51.1987C124.905 51.2883 124.786 51.3476 124.657 51.3694C112.833 53.268 101.601 56.9214 90.9613 62.3294C88.1693 63.7454 85.3293 65.8974 82.4653 67.6334C82.3827 67.6863 82.2846 67.7096 82.1871 67.6995C82.0895 67.6893 81.9984 67.6462 81.9285 67.5773C81.8587 67.5084 81.8144 67.4178 81.8029 67.3204C81.7914 67.223 81.8134 67.1246 81.8653 67.0414L83.1053 64.8894C83.1483 64.8202 83.166 64.7383 83.1554 64.6575C83.1448 64.5767 83.1065 64.5022 83.047 64.4465C82.9875 64.3908 82.9107 64.3575 82.8294 64.3522C82.7481 64.3469 82.6675 64.3699 82.6013 64.4174C78.4493 67.2494 76.1773 70.0094 73.9373 74.4334C72.9933 76.2894 71.5853 77.764 69.7133 78.8574C69.6612 78.8881 69.6031 78.9074 69.5428 78.9139C69.4826 78.9204 69.4214 78.9141 69.3633 78.8952C69.3052 78.8764 69.2516 78.8454 69.2057 78.8045C69.1599 78.7635 69.123 78.7134 69.0973 78.6574L67.8173 75.7534C67.7106 75.5027 67.7186 75.2574 67.8413 75.0174C70.124 70.692 73.18 67.0174 77.0093 63.9934C77.1163 63.9088 77.1895 63.7884 77.2159 63.6536C77.2423 63.5189 77.2201 63.3784 77.1533 63.2574C76.9933 62.9747 76.7506 62.9534 76.4253 63.1934C70.5693 67.5614 66.5106 73.236 64.2493 80.2174C64.1746 80.452 64.0226 80.6227 63.7933 80.7294L60.6973 82.1054C60.5426 82.173 60.3682 82.1792 60.2103 82.1226C60.0523 82.066 59.923 81.9509 59.8493 81.8014C59.316 80.724 58.4706 80.028 57.3133 79.7134C56.9986 79.628 56.876 79.4254 56.9453 79.1054C57.9426 74.4814 59.7213 70.1934 62.2813 66.2414C62.5853 65.7774 62.6199 65.084 62.3853 64.1614" stroke="#452122" stroke-width="2"/>
<path d="M117.313 44.8654C117.429 44.7734 117.513 44.6477 117.553 44.5057C117.594 44.3637 117.588 44.2124 117.538 44.0727C117.488 43.9331 117.396 43.8119 117.274 43.726C117.152 43.6401 117.006 43.5938 116.857 43.5934C106.641 43.6414 95.2894 45.6654 88.2974 53.3934C88.2768 53.4192 88.2646 53.4509 88.2627 53.484C88.2608 53.5171 88.2692 53.5499 88.2867 53.578C88.3043 53.6061 88.3301 53.6281 88.3607 53.6409C88.3913 53.6536 88.4251 53.6566 88.4574 53.6494C97.2148 51.244 105.937 48.756 114.625 46.1854C115.735 45.86 116.631 45.42 117.313 44.8654Z" stroke="#A2795E" stroke-width="2"/>
<path d="M155.81 50.8813C156.06 53.0626 154.996 54.9426 152.618 56.5213C152.38 56.6816 152.207 56.9197 152.13 57.1933C151.863 58.1853 152.106 58.8439 152.858 59.1693C152.963 59.2144 153.058 59.2818 153.137 59.3673C153.215 59.4527 153.276 59.5542 153.314 59.6653L153.946 61.5453C153.982 61.6566 154.06 61.7499 154.164 61.8063C154.268 61.8626 154.39 61.878 154.506 61.8493C158.818 60.8573 162.962 60.8333 167.482 60.4733C171.626 60.1533 176.034 62.2013 179.906 64.2973C180.362 64.5453 181.202 64.4253 181.642 64.1373C181.828 64.0199 182.012 64.0199 182.194 64.1373C183.554 65.0386 184.69 64.8813 185.602 63.6653C185.794 63.4093 185.89 63.1213 185.89 62.8013V61.9453C185.89 61.6626 186.031 61.5373 186.314 61.5693C186.81 61.6333 187.29 61.7639 187.754 61.9613C191.226 63.4413 191.29 58.4573 193.13 56.7213" stroke="#3D1C1F" stroke-width="2"/>
<path d="M193.129 56.7215C198.025 61.2975 201.351 66.4788 203.105 72.2655C204.929 78.2708 205.532 84.7402 204.913 91.6735C204.892 91.8548 204.809 92.0015 204.665 92.1135L204.217 92.4415C203.945 92.6388 203.823 92.9055 203.849 93.2415C204.132 96.9802 203.5 100.548 201.953 103.946C201.799 104.282 201.679 104.268 201.593 103.905L201.417 103.177C201.38 103.012 201.279 102.919 201.113 102.897C200.132 102.769 199.295 102.324 198.601 101.561C198.521 101.473 198.459 101.369 198.421 101.255C198.382 101.141 198.367 101.019 198.377 100.897C198.564 98.4815 198.489 96.0682 198.153 93.6575C198.095 93.2468 197.967 93.2228 197.769 93.5855C196.257 96.3375 197.137 99.0815 196.153 101.705C196.063 101.961 195.884 102.058 195.617 101.994C194.956 101.828 194.308 101.94 193.673 102.329C193.46 102.463 193.233 102.484 192.993 102.394L190.193 101.305C189.815 101.161 189.58 101.287 189.489 101.682C189.468 101.794 189.401 101.884 189.289 101.953C188.964 102.167 188.809 102.079 188.825 101.689L188.873 100.041C188.879 99.8388 188.783 99.7135 188.585 99.6655C188.009 99.5375 187.761 99.2708 187.841 98.8655C187.889 98.615 187.861 98.3562 187.761 98.1215C186.727 95.6308 185.527 93.2282 184.161 90.9135C183.209 89.2895 179.801 85.3455 178.241 84.4175C169.849 79.4335 161.417 77.0735 152.689 74.0255C149.793 73.0095 145.385 70.8335 145.033 67.3535C145.012 67.1562 144.9 67.0628 144.697 67.0735C142.767 67.1908 141.535 67.5588 141.001 68.1775C128.673 82.5055 109.113 81.4655 93.1694 88.8575C86.7134 91.8495 79.1215 91.3695 75.2975 98.8095C74.0975 101.145 73.2175 107.185 73.4095 109.825C73.7455 114.524 73.4708 119.204 72.5854 123.865C72.5374 124.127 72.3881 124.303 72.1375 124.394C70.0815 125.162 70.4575 127.481 67.5615 126.801C67.3055 126.743 67.0521 126.756 66.8015 126.841C65.9108 127.151 65.1561 126.911 64.5375 126.122C64.3615 125.892 64.2841 125.634 64.3055 125.346C64.3695 124.492 64.2094 123.551 63.8254 122.522C61.2708 115.738 58.8574 108.073 56.5854 99.5295" stroke="#240D14" stroke-width="2"/>
<path d="M56.5854 99.5294C58.3721 100.132 59.0068 98.8414 58.4895 95.6574C58.4361 95.316 58.5775 95.1134 58.9135 95.0494L61.6734 94.5054C61.7291 94.4936 61.7805 94.4682 61.8226 94.4318C61.8646 94.3953 61.896 94.3489 61.9135 94.2974L62.7535 92.0574C62.8548 91.78 63.0388 91.7 63.3055 91.8174C66.4575 93.2094 67.6174 90.7614 69.3214 88.3374C70.1588 87.1374 70.6308 85.772 70.7375 84.2414C70.7534 84.0084 70.8102 83.7783 70.9055 83.5614L72.1135 80.8734C72.2201 80.6387 72.3748 80.4467 72.5774 80.2974C74.1614 79.1614 76.8815 74.3294 78.6095 74.9294C78.7449 74.9767 78.8661 75.0576 78.9618 75.1646C79.0574 75.2716 79.1244 75.401 79.1563 75.5409C79.1883 75.6808 79.1843 75.8265 79.1446 75.9644C79.1049 76.1023 79.0309 76.2279 78.9294 76.3294C77.0414 78.2174 75.5695 80.4654 75.3055 83.0494C75.1855 84.2734 73.7455 84.4414 73.8095 85.9694C73.8111 86.0308 73.8293 86.0904 73.8625 86.1421C73.8956 86.1939 73.9423 86.2358 73.9978 86.2635C74.0533 86.2912 74.1155 86.3038 74.178 86.2999C74.2406 86.296 74.3011 86.2758 74.3535 86.2414C87.5055 77.3134 101.633 72.5694 118.241 66.0014C121.793 64.5987 125.423 63.4254 129.129 62.4814C131.329 61.9214 133.609 60.8094 136.081 60.3774C136.364 60.324 136.572 60.172 136.705 59.9214C137.313 58.7854 138.244 58.0814 139.497 57.8094C139.666 57.7741 139.819 57.6853 139.933 57.5563C140.047 57.4272 140.117 57.2648 140.131 57.0931C140.145 56.9214 140.104 56.7496 140.013 56.6034C139.922 56.4571 139.786 56.3442 139.625 56.2814C136.052 54.884 132.319 54.276 128.425 54.4574C128.246 54.4683 128.069 54.4171 127.923 54.3122C127.778 54.2073 127.673 54.0551 127.626 53.8811C127.579 53.707 127.593 53.5216 127.666 53.3556C127.739 53.1897 127.866 53.0534 128.025 52.9694C130.849 51.4894 135.857 54.0894 138.449 53.0494C138.771 52.9203 139.057 52.7083 139.275 52.4369C139.492 52.1656 139.633 51.8455 139.682 51.5123C139.731 51.179 139.686 50.8457 139.552 50.5493C139.417 50.2529 139.199 50.0051 138.921 49.8334L132.329 45.7934" stroke="#36181C" stroke-width="2"/>
<path d="M56.5854 99.5293C56.004 94.1586 55.8387 88.9879 56.0894 84.0173C56.1107 83.6759 55.9614 83.5666 55.6414 83.6893C55.3534 83.7959 55.0307 84.2119 54.6733 84.9373" stroke="#2C1217" stroke-width="2"/>
<path d="M54.6733 84.9373L55.2173 81.7293" stroke="#68705C" stroke-width="2"/>
<path d="M184.706 50.6574L193.13 56.7214" stroke="#33161A" stroke-width="2"/>
<path d="M197.841 60.3453C199.777 62.564 201.407 65.084 202.729 67.9053" stroke="#4C6054" stroke-width="2"/>
<path d="M202.73 67.9055C211.154 87.7055 204.522 108.737 195.09 126.601C194.956 126.852 195.026 127.025 195.298 127.121C201.047 129.18 205.49 132.913 208.626 138.321" stroke="#3C5550" stroke-width="2"/>
<path d="M208.626 138.321C216.714 151.305 218.442 167.497 211.77 181.569" stroke="#4C6054" stroke-width="2"/>
<path d="M211.77 181.569C201.666 199.633 183.402 206.361 163.298 203.961" stroke="#3C5550" stroke-width="2"/>
<path d="M163.298 203.961L161.994 203.841C161.7 203.815 161.495 203.665 161.378 203.393C157.874 195.335 152.012 189.7 143.794 186.489" stroke="#604C28" stroke-width="2"/>
<path d="M143.794 186.489L141.394 186.073C141.106 186.025 140.882 186.121 140.722 186.361C140.364 186.9 140.007 186.988 139.65 186.625" stroke="#42291A" stroke-width="2"/>
<path d="M139.65 186.625C140.57 185.097 137.482 185.249 136.154 185.113" stroke="#7E422B" stroke-width="2"/>
<path d="M136.153 185.113C135.177 183.935 135.007 182.537 135.641 180.921" stroke="#753C31" stroke-width="2"/>
<path d="M135.641 180.921C153.273 179.545 172.353 173.241 180.825 156.097C180.996 155.745 181.252 155.665 181.593 155.857L183.409 156.857C183.665 157.001 183.935 157.105 184.217 157.169C192.308 158.988 198.505 156.916 202.809 150.953C206.969 145.185 206.889 138.969 202.049 133.705C199.841 131.313 195.153 128.649 191.961 130.257C189.393 131.553 188.193 136.449 188.073 139.001" stroke="#894E3A" stroke-width="2"/>
<path d="M188.074 139.001C188.074 141.028 188.327 142.988 188.834 144.881C189.26 146.455 188.74 146.983 187.274 146.465C187.054 146.387 186.861 146.252 186.714 146.073C184.927 143.892 183.572 141.127 182.65 137.777" stroke="#824534" stroke-width="2"/>
<path d="M182.649 137.777L182.345 129.473" stroke="#8B5D48" stroke-width="2"/>
<path d="M182.346 129.473C182.922 116.78 182.914 107.647 182.322 102.073C181.538 94.7374 176.618 91.3374 169.722 88.7534C159.954 85.0894 151.538 81.5534 144.09 73.9534C143.887 73.7507 143.695 73.756 143.514 73.9694C134.658 84.3454 118.522 88.0894 105.058 90.2254" stroke="#894E3A" stroke-width="2"/>
<path d="M105.057 90.2254C94.9028 91.9907 88.3774 93.3294 85.4814 94.2414C77.6334 96.7214 75.2734 103.297 75.2734 110.865C75.2734 117.863 75.2841 124.844 75.3055 131.809" stroke="#8B5D48" stroke-width="2"/>
<path d="M75.3058 131.809C74.9058 131.905 74.7297 131.793 74.7777 131.473" stroke="#824534" stroke-width="2"/>
<path d="M74.7776 131.473C70.5003 129.255 66.5696 129.212 62.9856 131.345" stroke="#894E3A" stroke-width="2"/>
<path d="M62.9856 131.345C55.5216 134.217 52.4976 141.497 55.3696 149.121" stroke="#896A53" stroke-width="2"/>
<path d="M55.3696 149.121C60.5483 157.02 67.7696 159.153 77.0336 155.521" stroke="#894E3A" stroke-width="2"/>
<path d="M77.0336 155.521C76.8416 155.217 77.0176 155.068 77.5616 155.073" stroke="#824534" stroke-width="2"/>
<path d="M77.5618 155.073C82.6658 169.673 97.3938 176.881 111.898 179.449" stroke="#8B6351" stroke-width="2"/>
<path d="M111.898 179.449L120.17 180.713" stroke="#894E3A" stroke-width="2"/>
<path d="M120.169 180.713C120.191 182.004 119.94 183.183 119.417 184.249" stroke="#753C31" stroke-width="2"/>
<path d="M119.418 184.249C119.06 184.66 118.626 184.873 118.114 184.889" stroke="#7E422B" stroke-width="2"/>
<path d="M118.114 184.889L115.082 185.465" stroke="#854A30" stroke-width="2"/>
<path d="M115.081 185.465L110.441 186.609" stroke="#42291A" stroke-width="2"/>
<path d="M110.441 186.609L104.673 189.057" stroke="#604C28" stroke-width="2"/>
<path d="M104.674 189.057C94.3537 193.801 91.3537 215.289 90.7937 225.297" stroke="#8B6351" stroke-width="2"/>
<path d="M90.7934 225.297C90.4014 223.513 90.3934 221.673 89.4814 220.057C80.4334 204.041 67.0734 191.033 54.2654 179.089C49.1027 174.268 44.9881 168.86 41.9214 162.865" stroke="#3C5550" stroke-width="2"/>
<path d="M41.9216 162.865C39.6709 157.953 38.0843 152.812 37.1616 147.441" stroke="#566454" stroke-width="2"/>
<path d="M37.1614 147.441L37.0894 146.097" stroke="#8B755E" stroke-width="2"/>
<path d="M37.0894 146.097C37.212 145.948 37.364 145.871 37.5454 145.865C37.6578 145.86 37.7686 145.895 37.8589 145.964C37.9493 146.032 38.0138 146.13 38.0414 146.241C39.3374 151.847 41.2947 157.196 43.9134 162.289C44.8814 164.177 46.4574 164.657 48.3854 164.137C48.6894 164.057 48.836 163.86 48.8253 163.545C48.7533 161.033 48.2174 155.441 51.0414 154.817C51.0973 154.806 51.1504 154.784 51.1976 154.751C51.2448 154.719 51.2851 154.678 51.3164 154.629C51.3476 154.581 51.3691 154.527 51.3795 154.47C51.39 154.413 51.3893 154.354 51.3773 154.297C50.6653 150.865 49.2253 143.049 52.2173 141.169C52.42 141.047 52.5587 140.873 52.6333 140.649C54.052 136.596 56.316 133.105 59.4253 130.177C59.644 129.975 59.7293 129.727 59.6813 129.433C59.404 127.737 59.8894 126.284 61.1374 125.073C61.2269 124.986 61.2958 124.88 61.3387 124.764C61.3817 124.648 61.3976 124.524 61.3854 124.401C61.0387 120.401 60.1614 116.532 58.7534 112.793C58.6734 112.585 58.524 112.465 58.3054 112.433L55.8173 112.065" stroke="#240D14" stroke-width="2"/>
<path d="M55.8176 112.065L57.6176 111.377C57.7445 111.327 57.8547 111.241 57.9353 111.131C58.0159 111.02 58.0639 110.89 58.0736 110.753C58.095 110.311 57.9243 109.881 57.5617 109.465" stroke="#8B755E" stroke-width="2"/>
<path d="M57.5615 109.465C55.5455 101.113 53.8655 94.5133 54.6735 84.9373" stroke="#566454" stroke-width="2"/>
<path d="M233.121 143.481C232.38 150.921 230.841 158.175 228.505 165.241" stroke="#5A9886" stroke-width="2"/>
<path d="M228.505 165.241C226.415 171.337 223.809 177.233 220.689 182.929" stroke="#588B7C" stroke-width="2"/>
<path d="M220.69 182.929C220.05 182.951 219.532 182.716 219.138 182.225C218.978 182.028 218.78 181.972 218.546 182.057L217.978 182.273C217.919 182.294 217.857 182.3 217.795 182.291C217.734 182.283 217.676 182.259 217.625 182.223C217.575 182.187 217.534 182.139 217.506 182.084C217.479 182.029 217.465 181.967 217.466 181.905C217.498 180.711 217.212 179.639 216.61 178.689C216.45 178.449 216.252 178.412 216.018 178.577L213.578 180.321C213.418 180.433 213.287 180.577 213.186 180.753C212.892 181.265 212.42 181.537 211.77 181.569" stroke="#6EAF95" stroke-width="2"/>
<path d="M208.626 138.321C208.999 138.012 209.463 137.911 210.018 138.017C210.3 138.071 210.511 137.975 210.65 137.729C224.09 113.937 223.41 87.6013 206.618 65.5373C206.534 65.4287 206.419 65.349 206.288 65.3093C206.157 65.2697 206.016 65.2721 205.887 65.3162C205.757 65.3603 205.644 65.4439 205.564 65.5553C205.485 65.6667 205.442 65.8003 205.442 65.9373C205.442 66.4813 205.178 66.7293 204.65 66.6813C204.383 66.66 204.18 66.764 204.042 66.9933C203.695 67.548 203.258 67.852 202.73 67.9053" stroke="#6EAF95" stroke-width="2"/>
<path d="M182.346 129.473L182.298 127.417C182.293 127.204 182.189 127.084 181.986 127.057L181.73 127.025C181.469 126.988 181.332 126.839 181.322 126.577C181.274 125.497 180.698 124.673 180.706 123.657C180.727 117.812 180.645 111.961 180.458 106.105C180.226 98.8093 178.858 93.6813 171.818 91.2973C166.98 89.66 162.799 88.116 159.274 86.6653C153.858 84.4333 148.738 80.8173 143.594 77.5853C143.373 77.4468 143.106 77.4009 142.85 77.4573C141.789 77.692 141.111 78.3053 140.818 79.2973C140.738 79.5747 140.578 79.796 140.338 79.9613C130.418 86.9133 117.618 90.4333 105.37 91.9853C105.167 92.012 105.066 91.9213 105.066 91.7133L105.058 90.2253" stroke="#FAA472" stroke-width="2"/>
<path d="M57.5614 109.465C50.1054 112.025 44.5321 116.721 40.8414 123.553C36.1694 132.209 35.6494 137.953 36.2414 148.057C36.2468 148.164 36.3028 148.223 36.4094 148.233L36.6094 148.265C36.8654 148.297 37.0174 148.185 37.0654 147.929L37.1614 147.441" stroke="#C7D3A3" stroke-width="2"/>
<path d="M41.9216 162.865C41.8042 162.988 41.6549 163.063 41.4736 163.089C41.1962 163.121 40.9909 163.012 40.8576 162.761C38.7509 158.729 37.3216 154.465 36.5696 149.969C36.5482 149.841 36.4736 149.777 36.3456 149.777C36.0256 149.783 35.7162 149.655 35.4176 149.393C31.7696 146.193 31.4016 151.681 28.4256 151.705C28.1696 151.705 27.9696 151.815 27.8256 152.033L26.7776 153.593C26.6176 153.833 26.4523 153.836 26.2816 153.601C26.0096 153.233 25.6816 152.988 25.2976 152.865" stroke="#77B395" stroke-width="2"/>
<path d="M25.2975 152.865C20.9882 129.297 23.3188 106.375 32.2895 84.0973" stroke="#629380" stroke-width="2"/>
<path d="M37.4593 105.772C37.4399 105.637 37.3852 105.508 37.2983 105.393C37.2115 105.278 37.0942 105.179 36.9533 105.102C36.8123 105.025 36.6504 104.971 36.4767 104.943C36.3031 104.915 36.1211 104.914 35.9412 104.94C35.5779 104.992 35.2451 105.151 35.016 105.381C34.7869 105.611 34.6804 105.894 34.7197 106.167C34.7392 106.302 34.7938 106.431 34.8807 106.546C34.9675 106.661 35.0848 106.76 35.2257 106.837C35.3667 106.914 35.5286 106.968 35.7023 106.996C35.8759 107.024 36.0579 107.025 36.2378 106.999C36.6011 106.946 36.9339 106.788 37.163 106.558C37.3921 106.328 37.4986 106.045 37.4593 105.772Z" stroke="#C1D5A9" stroke-width="2"/>
<path d="M182.649 137.777C181.609 139.644 181.18 141.884 181.361 144.497" stroke="#F39B6D" stroke-width="2"/>
<path d="M181.361 144.497C181.009 144.817 180.681 144.996 180.377 145.033" stroke="#FAA472" stroke-width="2"/>
<path d="M180.378 145.033L180.458 144.625C180.522 144.332 180.404 144.159 180.106 144.105C178.367 143.78 176.65 143.415 174.954 143.009C174.802 142.974 174.66 142.906 174.538 142.81C174.416 142.714 174.316 142.592 174.246 142.453C174.176 142.314 174.137 142.162 174.132 142.006C174.127 141.851 174.156 141.696 174.218 141.553C174.378 141.18 174.287 141.023 173.946 141.081C173.706 141.129 173.57 141.273 173.538 141.513C173.324 143.055 172.463 144.055 170.954 144.513" stroke="#FCBA8A" stroke-width="2"/>
<path d="M170.954 144.513C170.735 144.076 170.703 143.671 170.858 143.297" stroke="#FAD4BA" stroke-width="2"/>
<path d="M170.858 143.297C171.818 142.62 172.46 141.772 172.786 140.753C172.871 140.492 172.871 140.233 172.786 139.977C171.143 134.777 167.599 131.356 162.154 129.713" stroke="#945E45" stroke-width="2"/>
<path d="M162.154 129.713C153.146 126.537 145.458 134.569 149.722 143.441" stroke="#C76B4C" stroke-width="2"/>
<path d="M149.721 143.441L148.809 143.857" stroke="#FAD4BA" stroke-width="2"/>
<path d="M148.81 143.857C148.682 143.543 148.548 143.295 148.41 143.113C148.365 143.049 148.297 143.004 148.219 142.99C148.142 142.976 148.062 142.993 147.998 143.037C147.933 143.082 147.888 143.15 147.874 143.228C147.86 143.305 147.877 143.385 147.922 143.449C149.164 145.417 150.783 146.985 152.778 148.153C153.242 148.425 153.204 148.583 152.666 148.625C151.058 148.753 150.586 146.553 149.082 146.265C148.831 146.217 148.602 146.119 148.394 145.969L145.962 144.201C145.759 144.052 145.532 144.012 145.282 144.081C144.194 144.396 143.423 144.039 142.97 143.009C142.919 142.89 142.829 142.793 142.714 142.734C142.6 142.674 142.468 142.657 142.341 142.684C142.214 142.711 142.1 142.782 142.018 142.883C141.936 142.985 141.89 143.111 141.89 143.241V144.465C141.89 144.796 141.772 144.847 141.538 144.617L141.202 144.273C141.01 144.087 140.761 143.974 140.498 143.953C138.103 143.788 135.738 143.54 133.402 143.209C133.327 143.198 133.259 143.164 133.205 143.111C133.152 143.058 133.117 142.99 133.105 142.916C133.094 142.841 133.106 142.765 133.141 142.699C133.175 142.632 133.23 142.578 133.298 142.545L133.658 142.377C133.866 142.281 133.922 142.129 133.826 141.921C132.746 139.633 130.906 140.801 129.042 140.465C128.919 140.442 128.792 140.452 128.675 140.496C128.558 140.54 128.455 140.615 128.378 140.713C127.738 141.508 127.039 141.705 126.282 141.305C124.484 140.351 122.836 140.217 121.338 140.905C121.226 140.956 121.104 140.977 120.983 140.966C120.862 140.954 120.747 140.912 120.65 140.841C118.719 139.439 116.871 139.495 115.106 141.009C114.935 141.153 114.738 141.225 114.514 141.225C113.506 141.233 110.914 142.233 110.33 141.225C110.218 141.028 110.13 141.039 110.066 141.257C109.207 144.201 107.442 146.308 104.77 147.577" stroke="#FCBA8A" stroke-width="2"/>
<path d="M104.769 147.577C104.743 146.649 104.466 146.196 103.938 146.217" stroke="#FAD4BA" stroke-width="2"/>
<path d="M103.938 146.217C106.551 145.023 107.844 143.241 107.817 140.873" stroke="#B46D4D" stroke-width="2"/>
<path d="M107.817 140.873C108.175 138.836 107.828 136.793 106.777 134.745" stroke="#945E45" stroke-width="2"/>
<path d="M106.778 134.745C107.567 133.935 106.751 132.847 104.33 131.481" stroke="#A4664A" stroke-width="2"/>
<path d="M104.33 131.481C104.932 131.332 105.306 131.02 105.45 130.545C105.54 130.236 105.45 129.991 105.178 129.809L103.57 128.713C103.346 128.559 103.095 128.473 102.818 128.457C93.3776 127.961 84.7697 131.369 82.8097 141.409C82.7617 141.655 82.655 141.873 82.4896 142.065C80.4256 144.529 79.4763 147.079 79.6417 149.713C79.7323 151.089 79.7323 152.161 79.6417 152.929C79.6315 153.014 79.5932 153.092 79.5329 153.152C79.4725 153.211 79.3938 153.249 79.3094 153.258C79.225 153.268 79.14 153.248 79.0681 153.203C78.9963 153.158 78.9419 153.089 78.9137 153.009C78.4923 151.831 78.2043 150.633 78.0497 149.417C78.0123 149.156 77.863 149.036 77.6017 149.057C77.4257 149.079 77.223 149.167 76.9937 149.321" stroke="#FCBA8A" stroke-width="2"/>
<path d="M76.9934 149.321L75.3054 131.809" stroke="#F39B6D" stroke-width="2"/>
<path d="M86.5936 118.905C84.5056 121.129 82.6656 122.681 84.2736 125.393C84.307 125.451 84.3542 125.499 84.411 125.534C84.4678 125.569 84.5325 125.589 84.5995 125.593C84.6666 125.597 84.7339 125.584 84.7956 125.557C84.8574 125.529 84.9116 125.486 84.9536 125.433C88.8336 120.321 92.2897 116.425 99.0097 116.537C100.722 116.569 102.842 117.401 104.874 117.505C105.146 117.521 105.386 117.436 105.594 117.249C108.314 114.817 105.53 111.441 102.666 111.585C96.2389 111.911 90.8816 114.351 86.5936 118.905Z" stroke="#945E45" stroke-width="2"/>
<path d="M152.697 111.761C146.969 111.097 146.481 119.129 152.345 117.553C160.321 115.409 166.145 119.065 170.681 125.441C170.857 125.687 171.06 125.711 171.289 125.513C172.74 124.26 172.78 122.876 171.409 121.361C166.375 115.82 160.137 112.62 152.697 111.761Z" stroke="#945E45" stroke-width="2"/>
<path d="M25.2976 152.865L27.2496 160.865" stroke="#48847C" stroke-width="2"/>
<path d="M55.8177 112.065C41.8417 116.977 35.3537 132.041 37.0897 146.097" stroke="#957C63" stroke-width="2"/>
<path d="M54.0979 118.569C46.5059 122.089 39.4579 133.497 40.8979 142.177C40.9512 142.503 41.1298 142.604 41.4338 142.481C42.7778 141.943 43.9512 140.953 44.9539 139.513C46.7939 136.857 62.0498 116.801 54.4818 118.441C54.349 118.468 54.2201 118.511 54.0979 118.569Z" stroke="#703F27" stroke-width="2"/>
<path d="M104.33 131.481C95.2657 124.881 76.7057 139.193 87.1057 145.209" stroke="#A46C53" stroke-width="2"/>
<path d="M87.1055 145.209C88.6201 147.273 90.2948 148.201 92.1294 147.993" stroke="#D79564" stroke-width="2"/>
<path d="M92.1296 147.993C96.423 149.071 100.636 148.932 104.77 147.577" stroke="#FADBC3" stroke-width="2"/>
<path d="M148.809 143.857C150.767 146.369 153.172 147.855 156.025 148.313C160.345 149.009 167.857 148.169 170.953 144.513" stroke="#FADBC3" stroke-width="2"/>
<path d="M180.378 145.033C177.81 155.225 172.666 159.425 164.642 165.801C156.41 172.337 145.69 176.153 135.482 178.129C131.658 178.873 127.434 178.745 123.402 178.857C117.682 179.017 112.93 178.065 107.594 176.681C107.536 176.666 107.475 176.669 107.419 176.692C107.364 176.714 107.317 176.754 107.286 176.806C107.255 176.858 107.241 176.918 107.246 176.979C107.251 177.041 107.274 177.099 107.314 177.145C107.735 177.636 108.276 177.975 108.938 178.161C109.146 178.22 109.356 178.252 109.57 178.257C110.476 178.268 111.252 178.665 111.898 179.449" stroke="#FAAB7C" stroke-width="2"/>
<path d="M77.5617 155.073L76.9937 149.321" stroke="#F3A276" stroke-width="2"/>
<path d="M130.481 155.921C127.921 156.433 126.753 157.129 123.865 155.569C123.817 155.543 123.761 155.533 123.707 155.542C123.652 155.55 123.602 155.577 123.564 155.617C123.526 155.658 123.503 155.71 123.499 155.765C123.494 155.82 123.507 155.875 123.537 155.921C124.929 158.097 128.745 157.185 130.577 156.177C131.1 155.884 131.068 155.799 130.481 155.921Z" stroke="#E69973" stroke-width="2"/>
<path d="M118.314 164.537C117.972 164.068 117.508 163.628 116.922 163.217C116.452 162.892 116.372 162.969 116.682 163.449C120.29 169.025 124.85 173.153 132.026 170.985C135.108 170.057 137.247 167.881 138.442 164.457" stroke="#A7634D" stroke-width="2"/>
<path d="M138.442 164.457C138.97 163.748 139.236 163.364 139.242 163.305C139.402 162.233 138.975 161.892 137.962 162.281C130.57 165.129 125.674 164.305 118.314 164.537" stroke="#F3A276" stroke-width="2"/>
<path d="M138.442 164.457C134.106 165.865 121.986 168.121 118.314 164.537" stroke="#9E4530" stroke-width="2"/>
<path d="M162.154 129.713C155.986 130.569 149.882 131.849 150.09 139.049C150.143 140.937 150.922 142.316 152.426 143.185" stroke="#601611" stroke-width="2"/>
<path d="M152.426 143.185C152.639 143.777 152.999 144.193 153.506 144.433C153.703 144.524 153.903 144.532 154.106 144.457L159.762 142.377C159.993 142.29 160.248 142.296 160.474 142.393L161.778 142.961" stroke="#802519" stroke-width="2"/>
<path d="M161.777 142.961C157.644 147.703 153.625 147.863 149.721 143.441" stroke="#C68C86" stroke-width="2"/>
<path d="M74.7774 131.473C74.1854 131.649 73.6867 131.959 73.2814 132.401C73.1161 132.583 73.0254 132.799 73.0094 133.049L72.7534 137.761C72.7375 137.989 72.7674 138.22 72.8414 138.441C73.0547 139.076 72.8547 139.532 72.2414 139.809C68.3694 141.561 64.1534 143.449 64.2654 148.273C64.3774 153.377 70.4094 155.249 74.4414 155.401C74.7168 155.412 74.9888 155.333 75.2174 155.177L76.2494 154.481C76.5001 154.311 76.6707 154.369 76.7614 154.657L77.0334 155.521" stroke="#F18C5F" stroke-width="2"/>
<path d="M55.3696 149.121L55.8176 148.593C55.9776 148.407 56.031 148.193 55.9776 147.953C54.5323 141.532 56.8683 135.996 62.9856 131.345" stroke="#F8B17E" stroke-width="2"/>
<path d="M106.778 134.745C104.5 132.628 102.119 131.863 99.6335 132.449" stroke="#3D110E" stroke-width="2"/>
<path d="M99.6336 132.449C97.8789 131.943 96.4336 131.873 95.2976 132.241C88.7909 134.343 85.9563 138.631 86.7936 145.105" stroke="#A28783" stroke-width="2"/>
<path d="M86.7937 145.105C86.895 145.143 86.999 145.177 87.1057 145.209" stroke="#7F4124" stroke-width="2"/>
<path d="M170.858 143.297C170.404 137.425 167.673 133.548 162.665 131.665C160.913 131.009 153.545 132.585 157.921 135.465C158.135 135.604 158.356 135.623 158.585 135.521L159.697 135.033" stroke="#937F7E" stroke-width="2"/>
<path d="M159.698 135.033C160.092 135.044 160.29 135.188 160.29 135.465C160.311 140.687 157.69 143.26 152.426 143.185" stroke="#4D1812" stroke-width="2"/>
<path d="M135.641 180.921L120.169 180.713" stroke="#E4845C" stroke-width="2"/>
<path d="M181.362 144.497L180.362 154.105C180.339 154.312 180.372 154.527 180.454 154.721C180.536 154.915 180.666 155.081 180.825 155.198C180.985 155.315 181.168 155.378 181.351 155.378C181.535 155.379 181.711 155.317 181.858 155.201C182.21 154.929 182.463 155.012 182.617 155.449C182.691 155.659 182.835 155.836 183.025 155.951C183.214 156.066 183.438 156.112 183.658 156.081C188.18 155.441 191.53 153.316 193.706 149.705C197.066 144.129 192.913 140.633 188.073 139.001" stroke="#F18C5F" stroke-width="2"/>
<path d="M161.778 142.961C163.378 140.793 164.41 135.969 161.69 134.001C161.578 133.921 161.443 133.88 161.306 133.884C161.168 133.889 161.036 133.938 160.93 134.025L159.698 135.033" stroke="#B38E87" stroke-width="2"/>
<path d="M99.6338 132.449C99.9218 135.201 99.1751 136.772 97.3938 137.161" stroke="#937F7E" stroke-width="2"/>
<path d="M97.3937 137.161C96.727 136.761 96.5057 135.951 96.7297 134.729C96.7777 134.463 96.6657 134.329 96.3937 134.329C95.455 134.335 94.8523 134.759 94.5857 135.601C93.0977 140.345 95.6417 144.305 99.6737 146.449C101.071 147.196 102.492 147.119 103.938 146.217" stroke="#B38E87" stroke-width="2"/>
<path d="M92.1297 147.993L86.7937 145.105" stroke="#D5B094" stroke-width="2"/>
<path d="M107.818 140.873C105.108 144.1 102.38 144.82 99.6337 143.033C99.4044 142.884 99.2231 142.689 99.0898 142.449C98.8551 142.039 98.5244 141.724 98.0978 141.505C97.8684 141.388 97.6951 141.215 97.5777 140.985C96.9377 139.7 96.8764 138.425 97.3938 137.161" stroke="#4D1812" stroke-width="2"/>
<path d="M90.7937 225.297C90.9537 225.932 90.9564 226.583 90.8017 227.249" stroke="#ADB292" stroke-width="2"/>
<path d="M90.8018 227.249C90.8444 227.708 90.6711 228.26 90.2817 228.905" stroke="#829B69" stroke-width="2"/>
<path d="M90.2815 228.905C73.4815 222.388 59.2015 212.188 47.4415 198.305C38.0868 187.265 31.3562 174.785 27.2495 160.865" stroke="#478079" stroke-width="2"/>
<path d="M90.2817 228.905L100.554 231.681C100.604 231.696 100.656 231.699 100.708 231.691C100.759 231.683 100.809 231.663 100.852 231.635C100.895 231.606 100.932 231.568 100.959 231.523C100.986 231.479 101.004 231.429 101.01 231.377L101.914 223.953" stroke="#6C7751" stroke-width="2"/>
<path d="M101.914 223.953C102.41 224.215 102.799 224.004 103.082 223.321C103.194 223.06 103.388 222.908 103.666 222.865C104.151 222.791 104.738 222.943 105.426 223.321" stroke="#2A3135" stroke-width="2"/>
<path d="M105.425 223.321L105.281 232.401C105.279 232.521 105.318 232.638 105.393 232.731C105.467 232.825 105.572 232.889 105.689 232.913C120.991 236.199 136.263 236.148 151.505 232.761" stroke="#6C7751" stroke-width="2"/>
<path d="M151.505 232.761L157.561 231.329C157.876 231.255 158.004 231.06 157.945 230.745L156.529 222.633C156.47 222.293 156.298 221.982 156.041 221.75C155.785 221.518 155.458 221.378 155.113 221.353C153.183 221.204 152.132 220.257 151.961 218.513" stroke="#416C63" stroke-width="2"/>
<path d="M151.962 218.513C152.271 217.857 152.748 217.476 153.394 217.369" stroke="#586E60" stroke-width="2"/>
<path d="M153.394 217.369C157.41 218.497 158.426 227.265 158.666 230.473C158.687 230.751 158.836 230.86 159.114 230.801C162.65 229.996 166.159 228.777 169.642 227.145" stroke="#6C7751" stroke-width="2"/>
<path d="M169.641 227.145C192.004 218.601 209.02 203.863 220.689 182.929" stroke="#478079" stroke-width="2"/>
<path d="M126.114 169.969C126.007 170.204 126.074 170.375 126.314 170.481C127.954 171.233 133.162 170.385 134.05 168.769C134.226 168.449 134.132 168.297 133.77 168.313C132.082 168.385 126.882 168.281 126.114 169.969Z" stroke="#881E16" stroke-width="2"/>
<path d="M169.642 227.145C167.378 217.801 164.338 211.369 162.346 204.673C162.255 204.359 162.367 204.167 162.682 204.097L163.298 203.961" stroke="#829B69" stroke-width="2"/>
<path d="M136.154 185.113C133.554 185.753 120.409 187.257 119.417 184.249" stroke="#D9784D" stroke-width="2"/>
<path d="M139.649 186.625L138.377 190.417" stroke="#A66436" stroke-width="2"/>
<path d="M138.378 190.417L137.618 187.649C137.584 187.524 137.521 187.409 137.435 187.313C137.348 187.216 137.24 187.142 137.119 187.095C136.999 187.048 136.869 187.031 136.74 187.044C136.611 187.057 136.487 187.1 136.378 187.169C133.194 189.207 130.298 191.583 127.69 194.297C127.514 194.479 127.335 194.481 127.154 194.305L119.426 186.785C119.207 186.577 119.018 186.345 118.858 186.089L118.114 184.889" stroke="#E9854C" stroke-width="2"/>
<path d="M138.377 190.417C136.529 195.401 131.761 202.041 126.457 203.345C125.279 203.633 124.369 203.537 123.729 203.057C117.916 198.695 115.033 192.831 115.081 185.465" stroke="#AC6C3B" stroke-width="2"/>
<path d="M143.793 186.489C143.633 192.201 142.089 200.961 137.721 204.569C137.519 204.735 137.303 204.751 137.073 204.617C136.327 204.175 135.921 203.5 135.857 202.593C135.854 202.514 135.823 202.439 135.77 202.381C135.717 202.322 135.645 202.285 135.566 202.274C135.488 202.264 135.409 202.281 135.342 202.323C135.275 202.366 135.225 202.43 135.201 202.505L132.897 208.713C132.844 208.856 132.756 208.983 132.641 209.083C132.526 209.182 132.387 209.252 132.239 209.284C132.09 209.317 131.935 209.312 131.789 209.269C131.643 209.227 131.51 209.149 131.401 209.041C129.433 207.057 126.825 205.153 124.457 208.033C121.497 211.649 118.457 204.617 118.017 202.513C117.995 202.411 117.946 202.316 117.874 202.24C117.802 202.163 117.712 202.107 117.611 202.077C117.51 202.048 117.403 202.046 117.302 202.072C117.2 202.098 117.108 202.151 117.033 202.225L115.425 203.833C115.312 203.946 115.175 204.032 115.025 204.086C114.875 204.141 114.716 204.162 114.557 204.148C114.399 204.134 114.245 204.086 114.108 204.007C113.97 203.928 113.852 203.819 113.761 203.689C110.273 198.713 110.113 193.857 110.441 186.609" stroke="#886E33" stroke-width="2"/>
<path d="M153.394 217.369L155.058 205.041C155.069 204.942 155.047 204.842 154.995 204.758C154.942 204.673 154.862 204.609 154.769 204.575C154.675 204.542 154.572 204.541 154.478 204.574C154.384 204.606 154.303 204.669 154.25 204.753C154.01 205.148 153.658 205.199 153.194 204.905C152.986 204.772 152.828 204.593 152.722 204.369C151.095 200.951 149.991 197.108 149.41 192.841C149.383 192.644 149.263 192.54 149.05 192.529C148.879 192.524 148.802 192.607 148.818 192.777L151.322 220.865" stroke="#938951" stroke-width="2"/>
<path d="M151.322 220.865L151.506 232.761" stroke="#7B8653" stroke-width="2"/>
<path d="M105.426 223.321C105.564 217.679 106.172 212.127 107.25 206.665C107.372 206.047 107.343 206.039 107.162 206.641L101.914 223.953" stroke="#644B25" stroke-width="2"/>
<path d="M90.8015 227.249L91.3375 228.097C91.5295 228.396 91.6655 228.372 91.7455 228.025C92.0868 226.633 92.3642 224.535 92.5775 221.729C92.9055 217.425 95.0575 208.401 96.0255 204.881C97.6575 198.972 100.54 193.697 104.673 189.057" stroke="#D1A96A" stroke-width="2"/>
<path d="M151.962 218.513C151.946 219.287 151.732 220.071 151.322 220.865" stroke="#687E63" stroke-width="2"/>
<path d="M162.898 27.8014C161.271 29.1187 159.543 29.5054 157.714 28.9614C157.479 28.892 157.247 28.9 157.018 28.9854L150.618 31.3534C150.341 31.4547 150.202 31.652 150.202 31.9454C150.202 33.4334 149.554 34.3774 148.258 34.7774C144.082 36.0734 140.21 38.4174 136.13 40.1054C135.314 40.4414 134.519 41.1694 133.746 42.2894C133.597 42.5027 133.647 42.6494 133.898 42.7294C134.943 43.06 135.855 43.628 136.634 44.4334C136.666 44.4707 136.682 44.516 136.682 44.5693C136.677 44.6387 136.666 44.708 136.65 44.7774C136.607 44.916 136.658 44.9854 136.802 44.9854C137.994 44.9854 138.514 46.9134 137.762 47.0894L134.594 45.3774C135.474 44.2734 133.034 43.6974 132.29 43.3854C127.111 41.2094 121.442 40.0494 115.282 39.9054C96.9539 39.4814 77.7939 44.7134 64.6979 57.8974C64.4152 58.1854 64.1272 58.6387 63.8339 59.2574C63.2259 60.5454 61.8179 61.3934 61.2259 62.2974C57.8339 67.4814 55.6499 73.148 54.6739 79.2973C53.1859 79.452 52.3912 78.9667 52.2899 77.8414C52.2776 77.7104 52.234 77.5845 52.163 77.4745C52.0919 77.3644 51.9955 77.2735 51.8819 77.2093C50.6872 76.5373 49.6339 76.7133 48.7219 77.7373C48.5459 77.9347 48.3326 78.0787 48.0819 78.1694C47.6979 78.3054 37.3939 81.2094 37.2659 82.6253C37.2499 82.86 37.1299 83.012 36.9059 83.0814C36.2926 83.2787 35.6952 83.2067 35.1139 82.8654C34.8526 82.716 34.6526 82.7747 34.5139 83.0414L34.2499 83.5214C34.0472 83.9054 33.8072 83.9294 33.5299 83.5934L33.0259 82.9774C37.8952 71.772 44.6125 61.7267 53.1779 52.8414C60.6872 45.156 69.3592 38.8014 79.1939 33.7774C105.53 20.2414 134.818 17.6094 162.898 27.8014Z" fill="#AECD9E"/>
<path d="M162.897 27.8016C177.729 33.0069 190.761 41.0709 201.993 51.9936L201.577 52.9456C201.433 53.2922 201.548 53.4656 201.921 53.4656H202.289C202.332 53.4682 202.373 53.4854 202.405 53.5142C202.438 53.543 202.459 53.5818 202.467 53.6243C202.474 53.6668 202.467 53.7106 202.446 53.7486C202.426 53.7866 202.393 53.8165 202.353 53.8336C201.372 54.1962 200.692 54.1429 200.313 53.6736C200.137 53.4496 199.911 53.3002 199.633 53.2256C198.439 52.9002 197.383 52.3242 196.465 51.4976C196.263 51.3109 196.049 51.3002 195.825 51.4656C194.657 52.3296 194.444 53.4149 195.185 54.7216C195.217 54.7802 195.212 54.8336 195.169 54.8816C195.111 54.9402 195.063 54.9909 195.025 55.0336C195.02 55.0405 195.017 55.0489 195.017 55.0576C195.017 55.0662 195.02 55.0746 195.025 55.0816C195.959 56.4042 196.948 57.6762 197.993 58.8976C198.159 59.0896 198.18 59.2976 198.057 59.5216C197.924 59.7616 197.852 60.0362 197.841 60.3456C194.247 56.0096 189.868 52.7802 184.705 50.6576C174.999 45.7562 165.367 45.8309 155.809 50.8816C152.54 52.8976 149.791 55.3296 147.561 58.1776C147.364 58.4336 147.191 58.4176 147.041 58.1296C144.727 53.7082 141.633 50.0282 137.761 47.0896C138.513 46.9136 137.993 44.9856 136.801 44.9856C136.657 44.9856 136.607 44.9162 136.649 44.7776C136.665 44.7082 136.676 44.6389 136.681 44.5696C136.681 44.5162 136.665 44.4709 136.633 44.4336C135.855 43.6282 134.943 43.0602 133.897 42.7296C133.647 42.6496 133.596 42.5029 133.745 42.2896C134.519 41.1696 135.313 40.4416 136.129 40.1056C140.209 38.4176 144.081 36.0736 148.257 34.7776C149.553 34.3776 150.201 33.4336 150.201 31.9456C150.201 31.6522 150.34 31.4549 150.617 31.3536L157.017 28.9856C157.247 28.9002 157.479 28.8922 157.713 28.9616C159.543 29.5056 161.271 29.1189 162.897 27.8016Z" fill="#A5CBA5"/>
<path d="M134.594 45.3774L129.522 43.4654C107.098 36.9454 76.8577 45.6414 62.3857 64.1614C58.6631 69.4307 56.2737 75.2867 55.2177 81.7294C54.1084 82.4067 53.9271 81.596 54.6737 79.2974C55.6497 73.148 57.8337 67.4814 61.2257 62.2974C61.8177 61.3934 63.2257 60.5454 63.8337 59.2574C64.1271 58.6387 64.4151 58.1854 64.6977 57.8974C77.7937 44.7134 96.9537 39.4814 115.282 39.9054C121.442 40.0494 127.111 41.2094 132.29 43.3854C133.034 43.6974 135.474 44.2734 134.594 45.3774Z" fill="#F7CD97"/>
<path d="M129.521 43.4653C128.257 44.9373 131.409 45.2973 132.329 45.7933C132.175 46.1293 132.204 46.5106 132.417 46.9373C132.471 47.0434 132.489 47.1641 132.469 47.2821C132.448 47.4 132.391 47.509 132.305 47.5933C131.671 48.2226 130.916 48.444 130.041 48.2573C129.833 48.2146 129.641 48.252 129.465 48.3693C128.452 49.0306 127.324 49.388 126.081 49.4413C125.922 49.4488 125.769 49.5076 125.646 49.6086C125.524 49.7096 125.438 49.8475 125.401 50.0013L125.193 50.8653C125.162 50.9931 125.095 51.109 125 51.1986C124.905 51.2882 124.786 51.3476 124.657 51.3693C112.833 53.268 101.601 56.9213 90.9613 62.3293C88.1693 63.7453 85.3293 65.8973 82.4653 67.6333C82.3827 67.6863 82.2846 67.7096 82.1871 67.6994C82.0895 67.6892 81.9984 67.6461 81.9285 67.5773C81.8587 67.5084 81.8144 67.4178 81.8029 67.3204C81.7914 67.223 81.8134 67.1245 81.8653 67.0413L83.1053 64.8893C83.1483 64.8201 83.166 64.7382 83.1554 64.6574C83.1448 64.5767 83.1065 64.5021 83.047 64.4464C82.9875 64.3908 82.9107 64.3574 82.8294 64.3521C82.7481 64.3468 82.6675 64.3698 82.6013 64.4173C78.4493 67.2493 76.1773 70.0093 73.9373 74.4333C72.9933 76.2893 71.5853 77.764 69.7133 78.8573C69.6612 78.8881 69.6031 78.9073 69.5428 78.9139C69.4826 78.9204 69.4214 78.914 69.3633 78.8951C69.3052 78.8763 69.2516 78.8454 69.2057 78.8044C69.1599 78.7634 69.123 78.7133 69.0973 78.6573L67.8173 75.7533C67.7106 75.5026 67.7186 75.2573 67.8413 75.0173C70.124 70.692 73.18 67.0173 77.0093 63.9933C77.1163 63.9087 77.1895 63.7883 77.2159 63.6536C77.2423 63.5188 77.2201 63.3784 77.1533 63.2573C76.9933 62.9746 76.7506 62.9533 76.4253 63.1933C70.5693 67.5613 66.5106 73.236 64.2493 80.2173C64.1746 80.452 64.0226 80.6226 63.7933 80.7293L60.6973 82.1053C60.5426 82.173 60.3682 82.1791 60.2103 82.1225C60.0523 82.0659 59.923 81.9509 59.8493 81.8013C59.316 80.724 58.4706 80.028 57.3133 79.7133C56.9986 79.628 56.876 79.4253 56.9453 79.1053C57.9426 74.4813 59.7213 70.1933 62.2813 66.2413C62.5853 65.7773 62.6199 65.084 62.3853 64.1613C76.8573 45.6413 107.097 36.9453 129.521 43.4653ZM117.313 44.8653C117.429 44.7733 117.513 44.6476 117.553 44.5056C117.593 44.3636 117.588 44.2123 117.538 44.0727C117.488 43.933 117.396 43.8119 117.274 43.726C117.152 43.6401 117.006 43.5937 116.857 43.5933C106.641 43.6413 95.2893 45.6653 88.2973 53.3933C88.2766 53.4192 88.2645 53.4509 88.2626 53.4839C88.2607 53.517 88.269 53.5499 88.2866 53.578C88.3042 53.6061 88.33 53.628 88.3606 53.6408C88.3911 53.6536 88.425 53.6566 88.4573 53.6493C97.2146 51.244 105.937 48.756 114.625 46.1853C115.735 45.86 116.631 45.42 117.313 44.8653Z" fill="#4C2524"/>
<path d="M129.521 43.4654L134.593 45.3774L137.761 47.0894C141.633 50.0281 144.727 53.7081 147.041 58.1294C147.191 58.4174 147.364 58.4334 147.561 58.1774C149.791 55.3294 152.54 52.8974 155.809 50.8814C156.06 53.0628 154.996 54.9428 152.617 56.5214C152.38 56.6818 152.207 56.9198 152.129 57.1934C151.863 58.1854 152.105 58.8441 152.857 59.1694C152.963 59.2145 153.058 59.282 153.137 59.3674C153.215 59.4529 153.276 59.5544 153.313 59.6654L153.945 61.5454C153.982 61.6568 154.06 61.75 154.164 61.8064C154.268 61.8628 154.39 61.8782 154.505 61.8494C158.817 60.8574 162.961 60.8334 167.481 60.4734C171.625 60.1534 176.033 62.2014 179.905 64.2974C180.361 64.5454 181.201 64.4254 181.641 64.1374C181.828 64.0201 182.012 64.0201 182.193 64.1374C183.553 65.0388 184.689 64.8814 185.601 63.6654C185.793 63.4094 185.889 63.1214 185.889 62.8014V61.9454C185.889 61.6628 186.031 61.5374 186.313 61.5694C186.809 61.6334 187.289 61.7641 187.753 61.9614C191.225 63.4414 191.289 58.4574 193.129 56.7214C198.025 61.2974 201.351 66.4788 203.105 72.2654C204.929 78.2708 205.532 84.7401 204.913 91.6734C204.892 91.8547 204.809 92.0014 204.665 92.1134L204.217 92.4414C203.945 92.6388 203.823 92.9054 203.849 93.2414C204.132 96.9801 203.5 100.548 201.953 103.945C201.799 104.281 201.679 104.268 201.593 103.905L201.417 103.177C201.38 103.012 201.279 102.919 201.113 102.897C200.132 102.769 199.295 102.324 198.601 101.561C198.521 101.473 198.459 101.369 198.421 101.255C198.382 101.14 198.367 101.019 198.377 100.897C198.564 98.4814 198.489 96.0681 198.153 93.6574C198.095 93.2468 197.967 93.2227 197.769 93.5854C196.257 96.3374 197.137 99.0814 196.153 101.705C196.063 101.961 195.884 102.057 195.617 101.993C194.956 101.828 194.308 101.94 193.673 102.329C193.46 102.463 193.233 102.484 192.993 102.393L190.193 101.305C189.815 101.161 189.58 101.287 189.489 101.681C189.468 101.793 189.401 101.884 189.289 101.953C188.964 102.167 188.809 102.079 188.825 101.689L188.873 100.041C188.879 99.8388 188.783 99.7134 188.585 99.6654C188.009 99.5374 187.761 99.2708 187.841 98.8654C187.889 98.6149 187.861 98.3562 187.761 98.1214C186.727 95.6308 185.527 93.2281 184.161 90.9134C183.209 89.2894 179.801 85.3454 178.241 84.4174C169.849 79.4334 161.417 77.0734 152.689 74.0254C149.793 73.0094 145.385 70.8334 145.033 67.3534C145.012 67.1561 144.9 67.0628 144.697 67.0734C142.767 67.1908 141.535 67.5588 141.001 68.1774C128.673 82.5054 109.113 81.4654 93.1694 88.8574C86.7134 91.8494 79.1215 91.3694 75.2975 98.8094C74.0975 101.145 73.2175 107.185 73.4095 109.825C73.7455 114.524 73.4708 119.204 72.5854 123.865C72.5374 124.127 72.3881 124.303 72.1375 124.393C70.0815 125.161 70.4575 127.481 67.5615 126.801C67.3055 126.743 67.0521 126.756 66.8015 126.841C65.9108 127.151 65.1561 126.911 64.5375 126.121C64.3615 125.892 64.2841 125.633 64.3055 125.345C64.3695 124.492 64.2094 123.551 63.8254 122.521C61.2708 115.737 58.8574 108.073 56.5854 99.5294C58.3721 100.132 59.0068 98.8414 58.4895 95.6574C58.4361 95.3161 58.5775 95.1134 58.9135 95.0494L61.6734 94.5054C61.7291 94.4937 61.7805 94.4683 61.8226 94.4318C61.8646 94.3953 61.896 94.349 61.9135 94.2974L62.7535 92.0574C62.8548 91.7801 63.0388 91.7001 63.3055 91.8174C66.4575 93.2094 67.6174 90.7614 69.3214 88.3374C70.1588 87.1374 70.6308 85.7721 70.7375 84.2414C70.7534 84.0085 70.8102 83.7784 70.9055 83.5614L72.1135 80.8734C72.2201 80.6388 72.3748 80.4468 72.5774 80.2974C74.1614 79.1614 76.8815 74.3294 78.6095 74.9294C78.7449 74.9768 78.8661 75.0577 78.9618 75.1647C79.0574 75.2716 79.1244 75.4011 79.1563 75.541C79.1883 75.6809 79.1843 75.8266 79.1446 75.9645C79.1049 76.1024 79.0309 76.2279 78.9294 76.3294C77.0414 78.2174 75.5695 80.4654 75.3055 83.0494C75.1855 84.2734 73.7455 84.4414 73.8095 85.9694C73.8111 86.0308 73.8293 86.0905 73.8625 86.1422C73.8956 86.1939 73.9423 86.2358 73.9978 86.2636C74.0533 86.2913 74.1155 86.3039 74.178 86.3C74.2406 86.2961 74.3011 86.2759 74.3535 86.2414C87.5055 77.3134 101.633 72.5694 118.241 66.0014C121.793 64.5988 125.423 63.4254 129.129 62.4814C131.329 61.9214 133.609 60.8094 136.081 60.3774C136.364 60.3241 136.572 60.1721 136.705 59.9214C137.313 58.7854 138.244 58.0814 139.497 57.8094C139.666 57.7742 139.819 57.6854 139.933 57.5563C140.047 57.4273 140.117 57.2648 140.131 57.0931C140.145 56.9214 140.104 56.7497 140.013 56.6034C139.922 56.4572 139.786 56.3442 139.625 56.2814C136.052 54.8841 132.319 54.2761 128.425 54.4574C128.246 54.4684 128.069 54.4171 127.923 54.3122C127.778 54.2074 127.673 54.0552 127.626 53.8811C127.579 53.7071 127.593 53.5216 127.666 53.3557C127.739 53.1898 127.866 53.0534 128.025 52.9694C130.849 51.4894 135.857 54.0894 138.449 53.0494C138.771 52.9204 139.057 52.7084 139.275 52.437C139.492 52.1657 139.633 51.8456 139.682 51.5123C139.731 51.1791 139.686 50.8458 139.552 50.5494C139.417 50.253 139.199 50.0052 138.921 49.8334L132.329 45.7934C131.409 45.2974 128.257 44.9374 129.521 43.4654Z" fill="#2E1319"/>
<path d="M117.313 44.8654C116.631 45.42 115.735 45.86 114.625 46.1854C105.937 48.756 97.2148 51.244 88.4574 53.6494C88.4251 53.6566 88.3913 53.6536 88.3607 53.6409C88.3301 53.6281 88.3043 53.6061 88.2867 53.578C88.2692 53.5499 88.2608 53.5171 88.2627 53.484C88.2646 53.4509 88.2768 53.4192 88.2974 53.3934C95.2894 45.6654 106.641 43.6414 116.857 43.5934C117.006 43.5938 117.152 43.6401 117.274 43.726C117.396 43.8119 117.488 43.9331 117.538 44.0727C117.588 44.2124 117.594 44.3637 117.553 44.5057C117.513 44.6477 117.429 44.7734 117.313 44.8654Z" fill="#F7CD97"/>
<path d="M132.329 45.7934L138.921 49.8334C139.199 50.0051 139.417 50.2529 139.551 50.5493C139.686 50.8457 139.731 51.179 139.682 51.5123C139.633 51.8455 139.492 52.1656 139.274 52.4369C139.057 52.7083 138.771 52.9203 138.449 53.0494C135.857 54.0894 130.849 51.4894 128.025 52.9694C127.865 53.0534 127.739 53.1897 127.666 53.3556C127.593 53.5216 127.579 53.707 127.626 53.8811C127.673 54.0551 127.777 54.2073 127.923 54.3122C128.068 54.4171 128.246 54.4683 128.425 54.4574C132.319 54.276 136.052 54.884 139.625 56.2814C139.786 56.3442 139.922 56.4571 140.013 56.6034C140.104 56.7496 140.145 56.9214 140.131 57.0931C140.116 57.2648 140.047 57.4272 139.933 57.5563C139.819 57.6853 139.666 57.7741 139.497 57.8094C138.244 58.0814 137.313 58.7854 136.705 59.9214C136.572 60.172 136.364 60.324 136.081 60.3774C133.609 60.8094 131.329 61.9214 129.129 62.4814C125.423 63.4254 121.793 64.5987 118.241 66.0014C101.633 72.5694 87.5054 77.3134 74.3534 86.2414C74.301 86.2758 74.2405 86.296 74.1779 86.2999C74.1154 86.3038 74.0532 86.2912 73.9977 86.2635C73.9422 86.2358 73.8955 86.1939 73.8624 86.1421C73.8292 86.0904 73.811 86.0308 73.8094 85.9694C73.7454 84.4414 75.1854 84.2734 75.3054 83.0494C75.5694 80.4654 77.0413 78.2174 78.9293 76.3294C79.0308 76.2279 79.1048 76.1023 79.1445 75.9644C79.1842 75.8265 79.1882 75.6808 79.1562 75.5409C79.1243 75.401 79.0573 75.2716 78.9617 75.1646C78.866 75.0576 78.7448 74.9767 78.6094 74.9294C76.8814 74.3294 74.1613 79.1614 72.5773 80.2974C72.3747 80.4467 72.22 80.6387 72.1134 80.8734L70.9054 83.5614C70.8101 83.7783 70.7533 84.0084 70.7374 84.2414C70.6307 85.772 70.1587 87.1374 69.3213 88.3374C67.6173 90.7614 66.4574 93.2094 63.3054 91.8174C63.0387 91.7 62.8547 91.78 62.7534 92.0574L61.9134 94.2974C61.8959 94.3489 61.8645 94.3953 61.8225 94.4318C61.7804 94.4682 61.729 94.4936 61.6733 94.5054L58.9134 95.0494C58.5774 95.1134 58.436 95.316 58.4894 95.6574C59.0067 98.8414 58.372 100.132 56.5854 99.5294C56.004 94.1587 55.8387 88.988 56.0894 84.0174C56.1107 83.676 55.9614 83.5667 55.6414 83.6894C55.3534 83.796 55.0307 84.212 54.6733 84.9374L55.2173 81.7294C56.2733 75.2867 58.6627 69.4307 62.3854 64.1614C62.62 65.084 62.5853 65.7774 62.2813 66.2414C59.7213 70.1934 57.9427 74.4814 56.9454 79.1054C56.876 79.4254 56.9987 79.628 57.3134 79.7134C58.4707 80.028 59.316 80.724 59.8494 81.8014C59.9231 81.9509 60.0524 82.066 60.2104 82.1226C60.3683 82.1792 60.5427 82.173 60.6974 82.1054L63.7934 80.7294C64.0227 80.6227 64.1747 80.452 64.2494 80.2174C66.5107 73.236 70.5693 67.5614 76.4253 63.1934C76.7507 62.9534 76.9934 62.9747 77.1534 63.2574C77.2201 63.3784 77.2423 63.5189 77.216 63.6536C77.1896 63.7884 77.1164 63.9088 77.0094 63.9934C73.18 67.0174 70.124 70.692 67.8414 75.0174C67.7187 75.2574 67.7107 75.5027 67.8173 75.7534L69.0974 78.6574C69.123 78.7134 69.16 78.7635 69.2058 78.8045C69.2516 78.8454 69.3053 78.8764 69.3634 78.8952C69.4214 78.9141 69.4826 78.9204 69.5429 78.9139C69.6032 78.9074 69.6613 78.8881 69.7134 78.8574C71.5854 77.764 72.9934 76.2894 73.9374 74.4334C76.1774 70.0094 78.4494 67.2494 82.6014 64.4174C82.6676 64.3699 82.7482 64.3469 82.8294 64.3522C82.9107 64.3575 82.9876 64.3908 83.0471 64.4465C83.1065 64.5022 83.1448 64.5767 83.1555 64.6575C83.1661 64.7383 83.1484 64.8202 83.1054 64.8894L81.8653 67.0414C81.8135 67.1246 81.7915 67.223 81.803 67.3204C81.8145 67.4178 81.8588 67.5084 81.9286 67.5773C81.9984 67.6462 82.0896 67.6893 82.1872 67.6995C82.2847 67.7096 82.3828 67.6863 82.4653 67.6334C85.3293 65.8974 88.1694 63.7454 90.9614 62.3294C101.601 56.9214 112.833 53.268 124.657 51.3694C124.786 51.3476 124.905 51.2883 125 51.1987C125.095 51.1091 125.163 50.9932 125.193 50.8654L125.401 50.0014C125.438 49.8475 125.524 49.7097 125.646 49.6086C125.769 49.5076 125.922 49.4489 126.081 49.4414C127.324 49.388 128.452 49.0307 129.465 48.3694C129.641 48.252 129.833 48.2147 130.041 48.2574C130.916 48.444 131.671 48.2227 132.305 47.5934C132.391 47.509 132.449 47.4 132.469 47.2821C132.489 47.1642 132.471 47.0435 132.417 46.9374C132.204 46.5107 132.175 46.1294 132.329 45.7934Z" fill="#3E1D1F"/>
<path d="M184.706 50.6576L193.13 56.7216C191.29 58.4576 191.226 63.4416 187.754 61.9616C187.29 61.7642 186.81 61.6336 186.314 61.5696C186.031 61.5376 185.89 61.6629 185.89 61.9456V62.8016C185.89 63.1216 185.794 63.4096 185.602 63.6656C184.69 64.8816 183.554 65.0389 182.194 64.1376C182.012 64.0202 181.828 64.0202 181.642 64.1376C181.202 64.4256 180.362 64.5456 179.906 64.2976C176.034 62.2016 171.626 60.1536 167.482 60.4736C162.962 60.8336 158.818 60.8576 154.506 61.8496C154.39 61.8783 154.268 61.8629 154.164 61.8065C154.06 61.7502 153.982 61.6569 153.946 61.5456L153.314 59.6656C153.276 59.5545 153.215 59.453 153.137 59.3676C153.058 59.2821 152.963 59.2147 152.858 59.1696C152.106 58.8442 151.863 58.1856 152.13 57.1936C152.207 56.92 152.38 56.6819 152.618 56.5216C154.996 54.9429 156.06 53.0629 155.81 50.8816C165.367 45.8309 174.999 45.7562 184.706 50.6576Z" fill="#4C2524"/>
<path d="M184.705 50.6574C189.868 52.7801 194.247 56.0094 197.841 60.3454C199.777 62.5641 201.407 65.0841 202.729 67.9054C211.153 87.7054 204.521 108.737 195.089 126.601C194.956 126.852 195.025 127.025 195.297 127.121C201.047 129.18 205.489 132.913 208.625 138.321C216.713 151.305 218.441 167.497 211.769 181.569C201.665 199.633 183.401 206.361 163.297 203.961L161.993 203.841C161.7 203.815 161.495 203.665 161.377 203.393C157.873 195.335 152.012 189.7 143.793 186.489L141.393 186.073C141.105 186.025 140.881 186.121 140.721 186.361C140.364 186.9 140.007 186.988 139.649 186.625C140.569 185.097 137.481 185.249 136.153 185.113C135.177 183.935 135.007 182.537 135.641 180.921C153.273 179.545 172.353 173.241 180.825 156.097C180.996 155.745 181.252 155.665 181.593 155.857L183.409 156.857C183.665 157.001 183.935 157.105 184.217 157.169C192.308 158.988 198.505 156.916 202.809 150.953C206.969 145.185 206.889 138.969 202.049 133.705C199.841 131.313 195.153 128.649 191.961 130.257C189.393 131.553 188.193 136.449 188.073 139.001C188.073 141.028 188.327 142.988 188.833 144.881C189.26 146.455 188.74 146.983 187.273 146.465C187.054 146.387 186.86 146.252 186.713 146.073C184.927 143.892 183.572 141.127 182.649 137.777L182.345 129.473C182.921 116.78 182.913 107.647 182.321 102.073C181.537 94.7374 176.617 91.3374 169.721 88.7534C159.953 85.0894 151.537 81.5534 144.089 73.9534C143.887 73.7507 143.695 73.7561 143.513 73.9694C134.657 84.3454 118.521 88.0894 105.057 90.2254C94.9027 91.9907 88.3773 93.3294 85.4813 94.2414C77.6333 96.7214 75.2733 103.297 75.2733 110.865C75.2733 117.863 75.284 124.844 75.3054 131.809C74.9054 131.905 74.7293 131.793 74.7773 131.473C70.5 129.255 66.5694 129.212 62.9854 131.345C55.5214 134.217 52.4973 141.497 55.3693 149.121C60.548 157.02 67.7694 159.153 77.0334 155.521C76.8414 155.217 77.0174 155.068 77.5614 155.073C82.6654 169.673 97.3934 176.881 111.897 179.449L120.169 180.713C120.191 182.004 119.94 183.183 119.417 184.249C119.06 184.66 118.625 184.873 118.113 184.889L115.081 185.465L110.441 186.609L104.673 189.057C94.3533 193.801 91.3534 215.289 90.7934 225.297C90.4014 223.513 90.3933 221.673 89.4813 220.057C80.4333 204.041 67.0733 191.033 54.2653 179.089C49.1027 174.268 44.988 168.86 41.9213 162.865C39.6707 157.953 38.084 152.812 37.1614 147.441L37.0894 146.097C37.212 145.948 37.364 145.871 37.5454 145.865C37.6578 145.861 37.7686 145.895 37.8589 145.964C37.9493 146.032 38.0138 146.13 38.0414 146.241C39.3374 151.847 41.2947 157.196 43.9134 162.289C44.8814 164.177 46.4574 164.657 48.3854 164.137C48.6894 164.057 48.836 163.86 48.8253 163.545C48.7533 161.033 48.2174 155.441 51.0414 154.817C51.0973 154.806 51.1504 154.784 51.1976 154.752C51.2448 154.719 51.2851 154.678 51.3164 154.629C51.3476 154.581 51.3691 154.527 51.3795 154.47C51.39 154.413 51.3893 154.354 51.3773 154.297C50.6653 150.865 49.2253 143.049 52.2173 141.169C52.42 141.047 52.5587 140.873 52.6333 140.649C54.052 136.596 56.316 133.105 59.4253 130.177C59.644 129.975 59.7293 129.727 59.6813 129.433C59.404 127.737 59.8894 126.284 61.1374 125.073C61.2269 124.986 61.2958 124.881 61.3387 124.764C61.3817 124.648 61.3976 124.524 61.3854 124.401C61.0387 120.401 60.1614 116.532 58.7534 112.793C58.6734 112.585 58.524 112.465 58.3054 112.433L55.8173 112.065L57.6173 111.377C57.7443 111.327 57.8544 111.241 57.935 111.131C58.0157 111.021 58.0636 110.89 58.0733 110.753C58.0947 110.311 57.924 109.881 57.5614 109.465C55.5454 101.113 53.8653 94.5134 54.6733 84.9374C55.0307 84.2121 55.3534 83.7961 55.6414 83.6894C55.9614 83.5667 56.1107 83.6761 56.0894 84.0174C55.8387 88.9881 56.004 94.1587 56.5854 99.5294C58.8574 108.073 61.2707 115.737 63.8253 122.521C64.2093 123.551 64.3694 124.492 64.3054 125.345C64.284 125.633 64.3614 125.892 64.5374 126.121C65.156 126.911 65.9107 127.151 66.8014 126.841C67.052 126.756 67.3054 126.743 67.5614 126.801C70.4574 127.481 70.0814 125.161 72.1374 124.393C72.388 124.303 72.5374 124.127 72.5854 123.865C73.4707 119.204 73.7454 114.524 73.4094 109.825C73.2174 107.185 74.0974 101.145 75.2974 98.8094C79.1214 91.3694 86.7133 91.8494 93.1693 88.8574C109.113 81.4654 128.673 82.5054 141.001 68.1774C141.535 67.5587 142.767 67.1907 144.697 67.0734C144.9 67.0627 145.012 67.1561 145.033 67.3534C145.385 70.8334 149.793 73.0094 152.689 74.0254C161.417 77.0734 169.849 79.4334 178.241 84.4174C179.801 85.3454 183.209 89.2894 184.161 90.9134C185.527 93.2281 186.727 95.6308 187.761 98.1214C187.861 98.3562 187.888 98.6149 187.841 98.8654C187.761 99.2707 188.009 99.5374 188.585 99.6654C188.783 99.7134 188.879 99.8387 188.873 100.041L188.825 101.689C188.809 102.079 188.964 102.167 189.289 101.953C189.401 101.884 189.468 101.793 189.489 101.681C189.58 101.287 189.815 101.161 190.193 101.305L192.993 102.393C193.233 102.484 193.46 102.463 193.673 102.329C194.308 101.94 194.956 101.828 195.617 101.993C195.884 102.057 196.063 101.961 196.153 101.705C197.137 99.0814 196.257 96.3374 197.769 93.5854C197.967 93.2227 198.095 93.2467 198.153 93.6574C198.489 96.0681 198.564 98.4814 198.377 100.897C198.367 101.019 198.382 101.14 198.421 101.255C198.459 101.369 198.521 101.473 198.601 101.561C199.295 102.324 200.132 102.769 201.113 102.897C201.279 102.919 201.38 103.012 201.417 103.177L201.593 103.905C201.679 104.268 201.799 104.281 201.953 103.945C203.5 100.548 204.132 96.9801 203.849 93.2414C203.823 92.9054 203.945 92.6387 204.217 92.4414L204.665 92.1134C204.809 92.0014 204.892 91.8547 204.913 91.6734C205.532 84.7401 204.929 78.2707 203.105 72.2654C201.351 66.4787 198.025 61.2974 193.129 56.7214L184.705 50.6574Z" fill="#1A060F"/>
<path d="M201.994 51.9933C226.794 76.5853 236.522 109.041 233.122 143.481C232.38 150.921 230.842 158.175 228.506 165.241C226.415 171.337 223.81 177.233 220.69 182.929C220.05 182.951 219.532 182.716 219.138 182.225C218.978 182.028 218.78 181.972 218.546 182.057L217.978 182.273C217.919 182.294 217.857 182.3 217.795 182.291C217.734 182.283 217.676 182.259 217.626 182.223C217.575 182.187 217.534 182.139 217.507 182.084C217.479 182.028 217.465 181.967 217.466 181.905C217.498 180.711 217.212 179.639 216.61 178.689C216.45 178.449 216.252 178.412 216.018 178.577L213.578 180.321C213.418 180.433 213.287 180.577 213.186 180.753C212.892 181.265 212.42 181.537 211.77 181.569C218.442 167.497 216.714 151.305 208.626 138.321C208.999 138.012 209.463 137.911 210.018 138.017C210.3 138.071 210.511 137.975 210.65 137.729C224.09 113.937 223.41 87.6013 206.618 65.5373C206.534 65.4287 206.419 65.349 206.288 65.3093C206.156 65.2696 206.016 65.272 205.886 65.3162C205.757 65.3603 205.644 65.4439 205.564 65.5553C205.485 65.6667 205.442 65.8003 205.442 65.9373C205.442 66.4813 205.178 66.7293 204.65 66.6813C204.383 66.66 204.18 66.764 204.042 66.9933C203.695 67.548 203.258 67.852 202.73 67.9053C201.407 65.084 199.778 62.564 197.842 60.3453C197.852 60.036 197.924 59.7613 198.058 59.5213C198.18 59.2973 198.159 59.0893 197.994 58.8973C196.948 57.676 195.959 56.404 195.026 55.0813C195.02 55.0744 195.018 55.066 195.018 55.0573C195.018 55.0486 195.02 55.0402 195.026 55.0333C195.063 54.9906 195.111 54.94 195.17 54.8813C195.212 54.8333 195.218 54.78 195.186 54.7213C194.444 53.4146 194.658 52.3293 195.826 51.4653C196.05 51.3 196.263 51.3106 196.466 51.4973C197.383 52.324 198.439 52.9 199.634 53.2253C199.911 53.3 200.138 53.4493 200.314 53.6733C200.692 54.1426 201.372 54.196 202.354 53.8333C202.393 53.8162 202.426 53.7863 202.447 53.7483C202.467 53.7104 202.474 53.6666 202.467 53.624C202.46 53.5815 202.438 53.5427 202.406 53.5139C202.374 53.4851 202.333 53.468 202.29 53.4653H201.922C201.548 53.4653 201.434 53.292 201.578 52.9453L201.994 51.9933Z" fill="#7EBA98"/>
<path d="M208.626 138.321C205.49 132.913 201.047 129.18 195.298 127.121C195.026 127.025 194.956 126.852 195.09 126.601C204.522 108.737 211.154 87.7053 202.73 67.9053C203.258 67.852 203.695 67.548 204.042 66.9933C204.18 66.764 204.383 66.66 204.65 66.6813C205.178 66.7293 205.442 66.4813 205.442 65.9373C205.442 65.8003 205.485 65.6667 205.564 65.5553C205.644 65.4439 205.757 65.3603 205.886 65.3162C206.016 65.2721 206.156 65.2697 206.288 65.3093C206.419 65.349 206.534 65.4287 206.618 65.5373C223.41 87.6013 224.09 113.937 210.65 137.729C210.511 137.975 210.3 138.071 210.018 138.017C209.463 137.911 208.999 138.012 208.626 138.321Z" fill="#5DA491"/>
<path d="M182.346 129.474L182.298 127.418C182.293 127.204 182.189 127.084 181.986 127.058L181.73 127.026C181.468 126.988 181.332 126.839 181.322 126.578C181.274 125.498 180.698 124.674 180.706 123.658C180.727 117.812 180.645 111.962 180.458 106.106C180.226 98.8096 178.858 93.6816 171.818 91.2976C166.98 89.6602 162.799 88.1163 159.274 86.6656C153.858 84.4336 148.738 80.8176 143.594 77.5856C143.373 77.4471 143.106 77.4011 142.85 77.4576C141.789 77.6923 141.111 78.3056 140.818 79.2976C140.738 79.5749 140.578 79.7962 140.338 79.9616C130.418 86.9136 117.618 90.4336 105.37 91.9856C105.167 92.0122 105.066 91.9216 105.066 91.7136L105.058 90.2256C118.522 88.0896 134.658 84.3456 143.514 73.9696C143.695 73.7562 143.887 73.7509 144.09 73.9536C151.538 81.5536 159.954 85.0896 169.722 88.7536C176.618 91.3376 181.538 94.7376 182.322 102.074C182.914 107.647 182.922 116.78 182.346 129.474Z" fill="#F89564"/>
<path d="M54.6735 79.2975C53.9268 81.5962 54.1081 82.4069 55.2175 81.7296L54.6735 84.9375C53.8655 94.5135 55.5455 101.114 57.5615 109.466C50.1055 112.026 44.5322 116.722 40.8415 123.554C36.1695 132.21 35.6495 137.954 36.2415 148.058C36.2468 148.164 36.3029 148.223 36.4095 148.234L36.6095 148.266C36.8655 148.298 37.0175 148.186 37.0655 147.93L37.1615 147.442C38.0842 152.812 39.6708 157.954 41.9215 162.866C41.8041 162.988 41.6548 163.063 41.4735 163.09C41.1962 163.122 40.9909 163.012 40.8575 162.762C38.7509 158.73 37.3215 154.466 36.5695 149.97C36.5481 149.842 36.4735 149.778 36.3455 149.778C36.0255 149.783 35.7161 149.655 35.4175 149.394C31.7695 146.194 31.4015 151.682 28.4255 151.706C28.1695 151.706 27.9695 151.815 27.8255 152.034L26.7775 153.594C26.6175 153.834 26.4522 153.836 26.2815 153.602C26.0095 153.234 25.6815 152.988 25.2975 152.866C20.9882 129.298 23.3188 106.375 32.2895 84.0975C32.5455 84.0122 32.7908 83.6389 33.0255 82.9776L33.5295 83.5936C33.8068 83.9296 34.0468 83.9056 34.2495 83.5216L34.5135 83.0416C34.6522 82.7749 34.8522 82.7162 35.1135 82.8656C35.6949 83.2069 36.2922 83.2789 36.9055 83.0816C37.1295 83.0122 37.2495 82.8602 37.2655 82.6255C37.3935 81.2095 47.6975 78.3056 48.0815 78.1696C48.3322 78.0789 48.5455 77.9349 48.7215 77.7375C49.6335 76.7135 50.6868 76.5375 51.8815 77.2095C51.9951 77.2737 52.0915 77.3646 52.1626 77.4747C52.2336 77.5847 52.2772 77.7106 52.2895 77.8416C52.3908 78.9669 53.1855 79.4522 54.6735 79.2975ZM37.4593 105.772C37.4398 105.637 37.3852 105.508 37.2983 105.393C37.2115 105.278 37.0942 105.179 36.9533 105.102C36.8123 105.025 36.6504 104.971 36.4767 104.943C36.3031 104.915 36.1211 104.914 35.9412 104.94C35.5779 104.993 35.2451 105.151 35.016 105.381C34.7869 105.611 34.6804 105.894 34.7197 106.167C34.7392 106.302 34.7938 106.431 34.8807 106.546C34.9675 106.661 35.0848 106.76 35.2257 106.837C35.3667 106.914 35.5286 106.968 35.7023 106.996C35.8759 107.024 36.0579 107.025 36.2378 106.999C36.6011 106.947 36.9339 106.788 37.163 106.558C37.3921 106.328 37.4986 106.045 37.4593 105.772Z" fill="#91C299"/>
<path d="M182.345 129.474L182.649 137.778C181.609 139.644 181.18 141.884 181.361 144.498C181.009 144.818 180.681 144.996 180.377 145.034L180.457 144.626C180.521 144.332 180.404 144.159 180.105 144.106C178.367 143.78 176.649 143.415 174.953 143.01C174.802 142.974 174.66 142.906 174.538 142.81C174.415 142.714 174.316 142.592 174.246 142.453C174.175 142.315 174.136 142.162 174.132 142.007C174.127 141.851 174.156 141.696 174.217 141.554C174.377 141.18 174.287 141.023 173.945 141.082C173.705 141.13 173.569 141.274 173.537 141.514C173.324 143.055 172.463 144.055 170.953 144.514C170.735 144.076 170.703 143.671 170.857 143.298C171.817 142.62 172.46 141.772 172.785 140.754C172.871 140.492 172.871 140.234 172.785 139.978C171.143 134.778 167.599 131.356 162.153 129.714C153.145 126.538 145.457 134.57 149.721 143.442L148.809 143.858C148.681 143.543 148.548 143.295 148.409 143.114C148.365 143.049 148.296 143.004 148.219 142.99C148.142 142.976 148.062 142.993 147.997 143.038C147.933 143.082 147.888 143.151 147.874 143.228C147.86 143.305 147.877 143.385 147.921 143.45C149.164 145.418 150.783 146.986 152.777 148.154C153.241 148.426 153.204 148.583 152.665 148.626C151.057 148.754 150.585 146.554 149.081 146.266C148.831 146.218 148.601 146.119 148.393 145.97L145.961 144.202C145.759 144.052 145.532 144.012 145.281 144.082C144.193 144.396 143.423 144.039 142.969 143.01C142.919 142.89 142.829 142.793 142.714 142.734C142.6 142.675 142.468 142.657 142.341 142.684C142.214 142.712 142.1 142.782 142.018 142.883C141.936 142.985 141.89 143.111 141.889 143.242V144.466C141.889 144.796 141.772 144.847 141.537 144.618L141.201 144.274C141.01 144.087 140.761 143.974 140.497 143.954C138.103 143.788 135.737 143.54 133.401 143.21C133.327 143.199 133.258 143.164 133.205 143.111C133.152 143.058 133.117 142.99 133.105 142.916C133.094 142.842 133.106 142.766 133.141 142.699C133.175 142.633 133.23 142.579 133.297 142.546L133.657 142.378C133.865 142.282 133.921 142.13 133.825 141.922C132.745 139.634 130.905 140.802 129.041 140.466C128.919 140.442 128.792 140.452 128.675 140.496C128.557 140.54 128.455 140.615 128.377 140.714C127.737 141.508 127.039 141.706 126.281 141.306C124.484 140.351 122.836 140.218 121.337 140.906C121.226 140.956 121.103 140.977 120.983 140.966C120.862 140.955 120.747 140.912 120.649 140.842C118.719 139.439 116.871 139.495 115.105 141.01C114.935 141.154 114.737 141.226 114.513 141.226C113.505 141.234 110.913 142.234 110.329 141.226C110.217 141.028 110.129 141.039 110.065 141.258C109.207 144.202 107.441 146.308 104.769 147.578C104.743 146.65 104.465 146.196 103.937 146.218C106.551 145.023 107.844 143.242 107.817 140.874C108.175 138.836 107.828 136.794 106.777 134.746C107.567 133.935 106.751 132.847 104.329 131.482C104.932 131.332 105.305 131.02 105.449 130.546C105.54 130.236 105.449 129.991 105.177 129.81L103.569 128.714C103.345 128.559 103.095 128.474 102.817 128.458C93.3774 127.962 84.7695 131.37 82.8095 141.41C82.7615 141.655 82.6548 141.874 82.4895 142.066C80.4255 144.53 79.4761 147.079 79.6415 149.714C79.7321 151.09 79.7321 152.162 79.6415 152.93C79.6313 153.014 79.593 153.092 79.5327 153.152C79.4723 153.212 79.3936 153.249 79.3092 153.258C79.2248 153.268 79.1398 153.248 79.0679 153.203C78.9961 153.158 78.9417 153.09 78.9135 153.01C78.4921 151.831 78.2041 150.634 78.0495 149.418C78.0121 149.156 77.8628 149.036 77.6015 149.058C77.4255 149.079 77.2228 149.167 76.9935 149.322L75.3055 131.81C75.2841 124.844 75.2734 117.863 75.2734 110.866C75.2734 103.298 77.6334 96.7215 85.4814 94.2415C88.3774 93.3295 94.9028 91.9909 105.057 90.2255L105.065 91.7135C105.065 91.9215 105.167 92.0122 105.369 91.9855C117.617 90.4335 130.417 86.9135 140.337 79.9615C140.577 79.7962 140.737 79.5749 140.817 79.2975C141.111 78.3055 141.788 77.6922 142.849 77.4576C143.105 77.4011 143.373 77.447 143.593 77.5855C148.737 80.8175 153.857 84.4335 159.273 86.6655C162.799 88.1162 166.98 89.6602 171.817 91.2975C178.857 93.6815 180.225 98.8095 180.457 106.106C180.644 111.962 180.727 117.812 180.705 123.658C180.697 124.674 181.273 125.498 181.321 126.578C181.332 126.839 181.468 126.988 181.729 127.026L181.985 127.058C182.188 127.084 182.292 127.204 182.297 127.418L182.345 129.474ZM86.5935 118.906C84.5055 121.13 82.6654 122.682 84.2734 125.394C84.3068 125.451 84.354 125.499 84.4108 125.534C84.4676 125.569 84.5323 125.589 84.5994 125.593C84.6664 125.597 84.7337 125.585 84.7955 125.557C84.8572 125.529 84.9114 125.487 84.9535 125.434C88.8335 120.322 92.2895 116.426 99.0095 116.538C100.721 116.57 102.841 117.402 104.873 117.506C105.145 117.522 105.385 117.436 105.593 117.25C108.313 114.818 105.529 111.442 102.665 111.586C96.2388 111.911 90.8815 114.351 86.5935 118.906ZM152.697 111.762C146.969 111.098 146.481 119.13 152.345 117.554C160.321 115.41 166.145 119.066 170.681 125.442C170.857 125.687 171.06 125.711 171.289 125.514C172.74 124.26 172.78 122.876 171.409 121.362C166.375 115.82 160.137 112.62 152.697 111.762Z" fill="#FBB380"/>
<path d="M36.2381 106.999C36.9946 106.89 37.5415 106.341 37.4596 105.772C37.3776 105.204 36.6979 104.831 35.9414 104.94C35.1848 105.049 34.6379 105.598 34.7199 106.167C34.8018 106.735 35.4815 107.108 36.2381 106.999Z" fill="#F1E8B9"/>
<path d="M57.5614 109.465C57.9241 109.881 58.0947 110.311 58.0734 110.753C58.0636 110.89 58.0157 111.021 57.9351 111.131C57.8544 111.241 57.7443 111.327 57.6174 111.377L55.8174 112.065C41.8414 116.977 35.3534 132.041 37.0894 146.097L37.1614 147.441L37.0654 147.929C37.0174 148.185 36.8654 148.297 36.6094 148.265L36.4094 148.233C36.3028 148.223 36.2468 148.164 36.2414 148.057C35.6494 137.953 36.1694 132.209 40.8414 123.553C44.5321 116.721 50.1054 112.025 57.5614 109.465Z" fill="#FCE4AD"/>
<path d="M86.5936 118.905C90.8816 114.351 96.2389 111.911 102.666 111.585C105.53 111.441 108.314 114.817 105.594 117.249C105.386 117.436 105.146 117.521 104.874 117.505C102.842 117.401 100.722 116.569 99.0097 116.537C92.2897 116.425 88.8336 120.321 84.9536 125.433C84.9116 125.486 84.8574 125.529 84.7956 125.557C84.7339 125.584 84.6666 125.597 84.5995 125.593C84.5325 125.589 84.4678 125.569 84.411 125.534C84.3542 125.499 84.307 125.451 84.2736 125.393C82.6656 122.681 84.5056 121.129 86.5936 118.905Z" fill="#2D0909"/>
<path d="M152.345 117.553C146.481 119.129 146.969 111.097 152.697 111.761C160.137 112.62 166.375 115.82 171.409 121.361C172.78 122.876 172.74 124.26 171.289 125.513C171.06 125.711 170.857 125.687 170.681 125.441C166.145 119.065 160.321 115.409 152.345 117.553Z" fill="#2D0909"/>
<path d="M55.8177 112.065L58.3057 112.433C58.5244 112.465 58.6737 112.585 58.7537 112.793C60.1617 116.532 61.039 120.401 61.3857 124.401C61.3979 124.524 61.382 124.648 61.339 124.764C61.2961 124.881 61.2273 124.986 61.1377 125.073C59.8897 126.284 59.4043 127.737 59.6817 129.433C59.7297 129.727 59.6443 129.975 59.4257 130.177C56.3163 133.105 54.0523 136.596 52.6337 140.649C52.559 140.873 52.4203 141.047 52.2177 141.169C49.2257 143.049 50.6657 150.865 51.3777 154.297C51.3896 154.354 51.3903 154.413 51.3799 154.47C51.3694 154.527 51.3479 154.581 51.3167 154.629C51.2854 154.678 51.2451 154.719 51.1979 154.752C51.1507 154.784 51.0976 154.806 51.0417 154.817C48.2177 155.441 48.7537 161.033 48.8257 163.545C48.8363 163.86 48.6897 164.057 48.3857 164.137C46.4577 164.657 44.8817 164.177 43.9137 162.289C41.295 157.196 39.3377 151.847 38.0417 146.241C38.0141 146.13 37.9496 146.032 37.8593 145.964C37.7689 145.895 37.6581 145.861 37.5457 145.865C37.3643 145.871 37.2123 145.948 37.0897 146.097C35.3537 132.041 41.8417 116.977 55.8177 112.065ZM54.0977 118.569C46.5057 122.089 39.4577 133.497 40.8977 142.177C40.951 142.503 41.1297 142.604 41.4337 142.481C42.7777 141.943 43.951 140.953 44.9537 139.513C46.7937 136.857 62.0497 116.801 54.4817 118.441C54.3489 118.468 54.2199 118.511 54.0977 118.569Z" fill="#2E1319"/>
<path d="M40.8979 142.177C39.4579 133.497 46.5059 122.089 54.0979 118.569C54.2201 118.511 54.349 118.468 54.4818 118.441C62.0498 116.801 46.7939 136.857 44.9539 139.513C43.9512 140.953 42.7778 141.943 41.4338 142.481C41.1298 142.604 40.9512 142.503 40.8979 142.177Z" fill="#B26A35"/>
<path d="M104.33 131.482C95.2656 124.882 76.7057 139.194 87.1057 145.21C88.6203 147.274 90.295 148.202 92.1296 147.994C96.423 149.071 100.636 148.932 104.77 147.578C107.442 146.308 109.207 144.202 110.066 141.258C110.13 141.039 110.218 141.028 110.33 141.226C110.914 142.234 113.506 141.234 114.514 141.226C114.738 141.226 114.935 141.154 115.106 141.01C116.871 139.495 118.719 139.439 120.65 140.842C120.747 140.912 120.862 140.955 120.983 140.966C121.104 140.977 121.226 140.956 121.338 140.906C122.836 140.218 124.484 140.351 126.282 141.306C127.039 141.706 127.738 141.508 128.378 140.714C128.455 140.615 128.558 140.54 128.675 140.496C128.792 140.452 128.919 140.442 129.042 140.466C130.906 140.802 132.746 139.634 133.826 141.922C133.922 142.13 133.866 142.282 133.658 142.378L133.298 142.546C133.23 142.579 133.175 142.633 133.141 142.699C133.106 142.766 133.094 142.842 133.105 142.916C133.117 142.99 133.152 143.058 133.205 143.111C133.259 143.164 133.327 143.199 133.402 143.21C135.738 143.54 138.103 143.788 140.498 143.954C140.761 143.974 141.01 144.087 141.202 144.274L141.538 144.618C141.772 144.847 141.89 144.796 141.89 144.466V143.242C141.89 143.111 141.936 142.985 142.018 142.883C142.1 142.782 142.215 142.712 142.341 142.684C142.468 142.657 142.6 142.675 142.715 142.734C142.829 142.793 142.919 142.89 142.97 143.01C143.423 144.039 144.194 144.396 145.282 144.082C145.532 144.012 145.759 144.052 145.962 144.202L148.394 145.97C148.602 146.119 148.831 146.218 149.082 146.266C150.586 146.554 151.058 148.754 152.666 148.626C153.204 148.583 153.242 148.426 152.778 148.154C150.783 146.986 149.164 145.418 147.922 143.45C147.877 143.385 147.86 143.305 147.874 143.228C147.889 143.151 147.933 143.082 147.998 143.038C148.062 142.993 148.142 142.976 148.219 142.99C148.297 143.004 148.365 143.049 148.41 143.114C148.548 143.295 148.682 143.543 148.81 143.858C150.767 146.37 153.172 147.855 156.026 148.314C160.346 149.01 167.858 148.17 170.954 144.514C172.463 144.055 173.324 143.055 173.538 141.514C173.57 141.274 173.706 141.13 173.946 141.082C174.287 141.023 174.378 141.18 174.218 141.554C174.156 141.696 174.127 141.851 174.132 142.007C174.137 142.162 174.176 142.315 174.246 142.453C174.316 142.592 174.416 142.714 174.538 142.81C174.66 142.906 174.802 142.974 174.954 143.01C176.65 143.415 178.367 143.78 180.106 144.106C180.404 144.159 180.522 144.332 180.458 144.626L180.378 145.034C177.81 155.226 172.666 159.426 164.642 165.802C156.41 172.338 145.69 176.154 135.482 178.13C131.658 178.874 127.434 178.746 123.402 178.858C117.682 179.018 112.93 178.066 107.594 176.682C107.536 176.666 107.475 176.669 107.419 176.692C107.364 176.714 107.317 176.754 107.286 176.806C107.255 176.858 107.241 176.919 107.246 176.98C107.251 177.041 107.274 177.099 107.314 177.146C107.735 177.636 108.276 177.975 108.938 178.162C109.146 178.22 109.356 178.252 109.57 178.258C110.476 178.268 111.252 178.666 111.898 179.45C97.3937 176.882 82.6657 169.674 77.5617 155.074L76.9937 149.322C77.223 149.167 77.4257 149.079 77.6017 149.058C77.863 149.036 78.0123 149.156 78.0497 149.418C78.2043 150.634 78.4923 151.831 78.9137 153.01C78.9419 153.09 78.9963 153.158 79.0681 153.203C79.14 153.248 79.225 153.268 79.3094 153.258C79.3938 153.249 79.4725 153.212 79.5329 153.152C79.5932 153.092 79.6315 153.014 79.6417 152.93C79.7323 152.162 79.7323 151.09 79.6417 149.714C79.4763 147.079 80.4256 144.53 82.4896 142.066C82.655 141.874 82.7617 141.655 82.8097 141.41C84.7697 131.37 93.3776 127.962 102.818 128.458C103.095 128.474 103.346 128.559 103.57 128.714L105.178 129.81C105.45 129.991 105.54 130.236 105.45 130.546C105.306 131.02 104.932 131.332 104.33 131.482ZM130.482 155.922C127.922 156.434 126.754 157.13 123.866 155.57C123.817 155.543 123.761 155.533 123.707 155.542C123.652 155.55 123.602 155.577 123.564 155.618C123.527 155.658 123.504 155.71 123.499 155.765C123.494 155.82 123.508 155.875 123.538 155.922C124.93 158.098 128.746 157.186 130.578 156.178C131.1 155.884 131.068 155.799 130.482 155.922ZM118.314 164.538C117.972 164.068 117.508 163.628 116.922 163.218C116.452 162.892 116.372 162.97 116.682 163.45C120.29 169.026 124.85 173.154 132.026 170.986C135.108 170.058 137.247 167.882 138.442 164.458C138.97 163.748 139.236 163.364 139.242 163.306C139.402 162.234 138.975 161.892 137.962 162.282C130.57 165.13 125.674 164.306 118.314 164.538Z" fill="#FCC093"/>
<path d="M162.154 129.713C155.986 130.569 149.882 131.849 150.09 139.049C150.143 140.937 150.922 142.316 152.426 143.185C152.639 143.777 152.999 144.193 153.506 144.433C153.703 144.524 153.903 144.532 154.106 144.457L159.762 142.377C159.993 142.29 160.248 142.296 160.474 142.393L161.778 142.961C157.644 147.703 153.626 147.863 149.722 143.441C145.458 134.569 153.146 126.537 162.154 129.713Z" fill="#932318"/>
<path d="M74.7776 131.473C74.1856 131.649 73.687 131.959 73.2816 132.401C73.1163 132.583 73.0257 132.799 73.0097 133.049L72.7537 137.761C72.7378 137.989 72.7677 138.22 72.8417 138.441C73.055 139.076 72.855 139.532 72.2416 139.809C68.3696 141.561 64.1536 143.449 64.2656 148.273C64.3776 153.377 70.4096 155.249 74.4416 155.401C74.7171 155.412 74.989 155.333 75.2176 155.177L76.2497 154.481C76.5003 154.311 76.671 154.369 76.7617 154.657L77.0336 155.521C67.7696 159.153 60.5483 157.02 55.3696 149.121L55.8176 148.593C55.9776 148.407 56.031 148.193 55.9776 147.953C54.5323 141.532 56.8683 135.996 62.9856 131.345C66.5696 129.212 70.5003 129.255 74.7776 131.473Z" fill="#F89564"/>
<path d="M104.33 131.481C106.751 132.847 107.567 133.935 106.778 134.745C104.5 132.628 102.119 131.863 99.6337 132.449C97.879 131.943 96.4337 131.873 95.2977 132.241C88.791 134.343 85.9564 138.631 86.7937 145.105C86.895 145.143 86.999 145.177 87.1057 145.209C76.7057 139.193 95.2657 124.881 104.33 131.481Z" fill="#4C1813"/>
<path d="M162.154 129.713C167.599 131.356 171.143 134.777 172.786 139.977C172.871 140.233 172.871 140.492 172.786 140.753C172.46 141.772 171.818 142.62 170.858 143.297C170.404 137.425 167.674 133.548 162.666 131.665C160.914 131.009 153.546 132.585 157.922 135.465C158.135 135.604 158.356 135.623 158.586 135.521L159.698 135.033C160.092 135.044 160.29 135.188 160.29 135.465C160.311 140.687 157.69 143.26 152.426 143.185C150.922 142.316 150.143 140.937 150.09 139.049C149.882 131.849 155.986 130.569 162.154 129.713Z" fill="#2D0909"/>
<path d="M135.642 180.922L120.17 180.714L111.898 179.45C111.252 178.666 110.476 178.268 109.57 178.258C109.356 178.252 109.146 178.22 108.938 178.162C108.276 177.975 107.735 177.636 107.314 177.146C107.274 177.099 107.251 177.041 107.246 176.98C107.241 176.919 107.255 176.858 107.286 176.806C107.317 176.754 107.364 176.714 107.419 176.692C107.475 176.669 107.536 176.666 107.594 176.682C112.93 178.066 117.682 179.018 123.402 178.858C127.434 178.746 131.658 178.874 135.482 178.13C145.69 176.154 156.41 172.338 164.642 165.802C172.666 159.426 177.81 155.226 180.378 145.034C180.682 144.996 181.01 144.818 181.362 144.498L180.362 154.106C180.339 154.313 180.372 154.527 180.454 154.721C180.537 154.915 180.666 155.081 180.825 155.198C180.985 155.315 181.168 155.378 181.351 155.378C181.535 155.379 181.711 155.317 181.858 155.202C182.21 154.93 182.463 155.012 182.618 155.45C182.691 155.659 182.835 155.836 183.025 155.951C183.214 156.067 183.438 156.113 183.658 156.082C188.18 155.442 191.53 153.316 193.706 149.706C197.066 144.13 192.914 140.634 188.074 139.002C188.194 136.45 189.394 131.554 191.962 130.258C195.154 128.65 199.842 131.314 202.05 133.706C206.89 138.97 206.97 145.186 202.81 150.954C198.506 156.916 192.308 158.988 184.218 157.17C183.935 157.106 183.666 157.002 183.41 156.858L181.594 155.858C181.252 155.666 180.996 155.746 180.826 156.098C172.354 173.242 153.274 179.546 135.642 180.922Z" fill="#F89564"/>
<path d="M62.9856 131.345C56.8683 135.996 54.5323 141.532 55.9776 147.953C56.031 148.193 55.9776 148.407 55.8176 148.593L55.3696 149.121C52.4976 141.497 55.5216 134.217 62.9856 131.345Z" fill="#F7CD97"/>
<path d="M170.857 143.297C170.703 143.671 170.735 144.076 170.953 144.513C167.857 148.169 160.345 149.009 156.025 148.313C153.172 147.855 150.767 146.369 148.809 143.857L149.721 143.441C153.625 147.863 157.644 147.703 161.777 142.961C163.377 140.793 164.409 135.969 161.689 134.001C161.578 133.921 161.443 133.88 161.305 133.884C161.168 133.889 161.036 133.938 160.929 134.025L159.697 135.033L158.585 135.521C158.356 135.623 158.135 135.604 157.921 135.465C153.545 132.585 160.913 131.009 162.665 131.665C167.673 133.548 170.404 137.425 170.857 143.297Z" fill="#F8F5F3"/>
<path d="M74.7774 131.473C74.7294 131.793 74.9054 131.905 75.3054 131.809L76.9934 149.321L77.5614 155.073C77.0174 155.068 76.8414 155.217 77.0334 155.521L76.7614 154.657C76.6707 154.369 76.5001 154.311 76.2494 154.481L75.2174 155.177C74.9888 155.333 74.7168 155.412 74.4414 155.401C70.4094 155.249 64.3774 153.377 64.2654 148.273C64.1534 143.449 68.3694 141.561 72.2414 139.809C72.8547 139.532 73.0547 139.076 72.8414 138.441C72.7674 138.22 72.7375 137.989 72.7534 137.761L73.0094 133.049C73.0254 132.799 73.1161 132.583 73.2814 132.401C73.6867 131.959 74.1854 131.649 74.7774 131.473Z" fill="#EA8359"/>
<path d="M99.6336 132.449C99.9216 135.201 99.1749 136.772 97.3936 137.161C96.7269 136.761 96.5056 135.951 96.7296 134.729C96.7776 134.463 96.6656 134.329 96.3936 134.329C95.4549 134.335 94.8523 134.759 94.5856 135.601C93.0976 140.345 95.6416 144.305 99.6736 146.449C101.071 147.196 102.492 147.119 103.938 146.217C104.466 146.196 104.743 146.649 104.77 147.577C100.636 148.932 96.4229 149.071 92.1296 147.993L86.7936 145.105C85.9563 138.631 88.7909 134.343 95.2976 132.241C96.4336 131.873 97.8789 131.943 99.6336 132.449Z" fill="#F8F5F3"/>
<path d="M106.778 134.746C107.828 136.794 108.175 138.836 107.818 140.874C105.108 144.1 102.38 144.82 99.6337 143.034C99.4044 142.884 99.2231 142.69 99.0898 142.45C98.8551 142.039 98.5244 141.724 98.0978 141.506C97.8684 141.388 97.6951 141.215 97.5777 140.986C96.9377 139.7 96.8764 138.426 97.3938 137.162C99.1751 136.772 99.9217 135.202 99.6337 132.45C102.119 131.863 104.5 132.628 106.778 134.746Z" fill="#2D0909"/>
<path d="M161.778 142.961L160.474 142.393C160.248 142.296 159.993 142.29 159.762 142.377L154.106 144.457C153.903 144.532 153.703 144.524 153.506 144.433C152.999 144.193 152.639 143.777 152.426 143.185C157.69 143.26 160.311 140.687 160.29 135.465C160.29 135.188 160.092 135.044 159.698 135.033L160.93 134.025C161.036 133.938 161.168 133.889 161.306 133.884C161.443 133.88 161.578 133.921 161.69 134.001C164.41 135.969 163.378 140.793 161.778 142.961Z" fill="#6D261A"/>
<path d="M97.3937 137.161C96.8764 138.425 96.9377 139.7 97.5777 140.985C97.695 141.215 97.8684 141.388 98.0977 141.505C98.5244 141.724 98.855 142.039 99.0897 142.449C99.223 142.689 99.4043 142.884 99.6337 143.033C102.38 144.82 105.108 144.1 107.818 140.873C107.844 143.241 106.551 145.023 103.938 146.217C102.492 147.119 101.071 147.196 99.6737 146.449C95.6417 144.305 93.0977 140.345 94.5857 135.601C94.8523 134.759 95.455 134.335 96.3937 134.329C96.6657 134.329 96.7777 134.463 96.7297 134.729C96.5057 135.951 96.727 136.761 97.3937 137.161Z" fill="#6D261A"/>
<path d="M182.65 137.777C183.572 141.127 184.927 143.892 186.714 146.073C186.86 146.252 187.054 146.387 187.273 146.465C188.74 146.983 189.26 146.455 188.834 144.881C188.327 142.988 188.073 141.028 188.073 139.001C192.913 140.633 197.066 144.129 193.706 149.705C191.53 153.316 188.18 155.441 183.658 156.081C183.438 156.112 183.214 156.066 183.025 155.951C182.835 155.836 182.691 155.659 182.617 155.449C182.463 155.012 182.21 154.929 181.858 155.201C181.711 155.317 181.535 155.379 181.351 155.378C181.168 155.378 180.985 155.315 180.825 155.198C180.666 155.081 180.536 154.915 180.454 154.721C180.372 154.526 180.339 154.312 180.362 154.105L181.362 144.497C181.18 141.884 181.61 139.644 182.65 137.777Z" fill="#EA8359"/>
<path d="M87.1057 145.209C86.999 145.177 86.895 145.143 86.7937 145.105L92.1297 147.993C90.295 148.201 88.6204 147.273 87.1057 145.209Z" fill="#B26A35"/>
<path d="M41.9216 162.865C44.9882 168.86 49.1029 174.268 54.2656 179.089C67.0736 191.033 80.4336 204.041 89.4816 220.057C90.3936 221.673 90.4016 223.514 90.7936 225.298C90.9536 225.932 90.9563 226.583 90.8016 227.25C90.8443 227.708 90.6709 228.26 90.2816 228.905C73.4816 222.388 59.2016 212.188 47.4416 198.305C38.0869 187.265 31.3563 174.785 27.2496 160.865L25.2976 152.865C25.6816 152.988 26.0096 153.233 26.2816 153.601C26.4523 153.836 26.6176 153.834 26.7776 153.594L27.8256 152.034C27.9696 151.815 28.1696 151.706 28.4256 151.706C31.4016 151.682 31.7696 146.194 35.4176 149.394C35.7162 149.655 36.0256 149.783 36.3456 149.777C36.4736 149.777 36.5482 149.842 36.5696 149.97C37.3216 154.466 38.7509 158.729 40.8576 162.761C40.9909 163.012 41.1962 163.121 41.4736 163.089C41.6549 163.063 41.8042 162.988 41.9216 162.865Z" fill="#5DA491"/>
<path d="M123.865 155.569C126.753 157.129 127.921 156.433 130.481 155.921C131.068 155.799 131.1 155.884 130.577 156.177C128.745 157.185 124.929 158.097 123.537 155.921C123.507 155.875 123.494 155.82 123.499 155.765C123.503 155.71 123.526 155.658 123.564 155.617C123.602 155.577 123.652 155.55 123.707 155.542C123.761 155.533 123.817 155.543 123.865 155.569Z" fill="#CF7253"/>
<path d="M138.442 164.457C134.106 165.865 121.986 168.121 118.314 164.537C125.674 164.305 130.57 165.129 137.962 162.281C138.975 161.892 139.402 162.233 139.242 163.305C139.236 163.364 138.97 163.748 138.442 164.457Z" fill="#EA8359"/>
<path d="M118.314 164.537C121.986 168.121 134.106 165.865 138.442 164.457C137.247 167.881 135.108 170.057 132.026 170.985C124.85 173.153 120.29 169.025 116.682 163.449C116.372 162.969 116.452 162.892 116.922 163.217C117.508 163.628 117.972 164.068 118.314 164.537ZM126.114 169.969C126.007 170.204 126.074 170.375 126.314 170.481C127.954 171.233 133.162 170.385 134.05 168.769C134.226 168.449 134.132 168.297 133.77 168.313C132.082 168.385 126.882 168.281 126.114 169.969Z" fill="#510607"/>
<path d="M126.114 169.969C126.882 168.281 132.082 168.385 133.77 168.313C134.132 168.297 134.226 168.449 134.05 168.769C133.162 170.385 127.954 171.233 126.314 170.481C126.074 170.375 126.007 170.204 126.114 169.969Z" fill="#BE3624"/>
<path d="M220.69 182.929C209.02 203.863 192.004 218.601 169.642 227.145C167.378 217.801 164.338 211.369 162.346 204.673C162.255 204.359 162.367 204.167 162.682 204.097L163.298 203.961C183.402 206.361 201.666 199.633 211.77 181.569C212.42 181.537 212.892 181.265 213.186 180.753C213.287 180.577 213.418 180.433 213.578 180.321L216.018 178.577C216.252 178.412 216.45 178.449 216.61 178.689C217.212 179.639 217.498 180.711 217.466 181.905C217.465 181.967 217.479 182.029 217.506 182.084C217.534 182.139 217.575 182.187 217.625 182.223C217.676 182.259 217.734 182.283 217.795 182.291C217.857 182.3 217.919 182.294 217.978 182.273L218.546 182.057C218.78 181.972 218.978 182.028 219.138 182.225C219.532 182.716 220.05 182.951 220.69 182.929Z" fill="#5DA491"/>
<path d="M135.642 180.921C135.007 182.537 135.178 183.935 136.154 185.113C133.554 185.753 120.409 187.257 119.417 184.249C119.94 183.183 120.191 182.004 120.169 180.713L135.642 180.921Z" fill="#CF7253"/>
<path d="M119.418 184.249C120.41 187.257 133.554 185.753 136.154 185.113C137.482 185.249 140.57 185.097 139.65 186.625L138.378 190.417L137.618 187.649C137.584 187.524 137.521 187.409 137.435 187.313C137.348 187.216 137.24 187.142 137.119 187.095C136.999 187.048 136.869 187.031 136.74 187.044C136.611 187.056 136.487 187.1 136.378 187.169C133.194 189.207 130.298 191.583 127.69 194.297C127.514 194.479 127.335 194.481 127.154 194.305L119.426 186.785C119.207 186.577 119.018 186.345 118.858 186.089L118.114 184.889C118.626 184.873 119.06 184.66 119.418 184.249Z" fill="#E27D47"/>
<path d="M118.113 184.889L118.857 186.089C119.017 186.345 119.207 186.577 119.425 186.785L127.153 194.305C127.335 194.481 127.513 194.479 127.689 194.297C130.297 191.583 133.193 189.207 136.377 187.169C136.486 187.1 136.61 187.057 136.739 187.044C136.868 187.031 136.998 187.048 137.119 187.095C137.24 187.142 137.348 187.216 137.435 187.313C137.521 187.409 137.584 187.524 137.617 187.649L138.377 190.417C136.529 195.401 131.761 202.041 126.457 203.345C125.279 203.633 124.369 203.537 123.729 203.057C117.916 198.695 115.033 192.831 115.081 185.465L118.113 184.889Z" fill="#EF8D50"/>
<path d="M115.081 185.465C115.033 192.831 117.916 198.695 123.729 203.057C124.369 203.537 125.279 203.633 126.457 203.345C131.761 202.041 136.529 195.401 138.377 190.417L139.649 186.625C140.007 186.988 140.364 186.9 140.721 186.361C140.881 186.121 141.105 186.025 141.393 186.073L143.793 186.489C143.633 192.201 142.089 200.961 137.721 204.569C137.519 204.735 137.303 204.751 137.073 204.617C136.327 204.175 135.921 203.5 135.857 202.593C135.854 202.514 135.823 202.439 135.77 202.381C135.717 202.322 135.645 202.285 135.566 202.274C135.488 202.263 135.409 202.281 135.342 202.323C135.275 202.366 135.225 202.43 135.201 202.505L132.897 208.713C132.844 208.856 132.756 208.983 132.641 209.083C132.526 209.182 132.387 209.252 132.239 209.284C132.09 209.317 131.935 209.312 131.789 209.269C131.643 209.227 131.51 209.149 131.401 209.041C129.433 207.057 126.825 205.153 124.457 208.033C121.497 211.649 118.457 204.617 118.017 202.513C117.995 202.411 117.946 202.316 117.874 202.24C117.802 202.163 117.712 202.107 117.611 202.077C117.51 202.048 117.403 202.046 117.302 202.072C117.2 202.098 117.108 202.151 117.033 202.225L115.425 203.833C115.312 203.946 115.175 204.032 115.025 204.086C114.875 204.141 114.716 204.162 114.557 204.148C114.399 204.134 114.245 204.086 114.108 204.007C113.97 203.928 113.852 203.819 113.761 203.689C110.273 198.713 110.113 193.857 110.441 186.609L115.081 185.465Z" fill="#694B25"/>
<path d="M110.442 186.609C110.114 193.857 110.274 198.713 113.762 203.689C113.853 203.819 113.971 203.928 114.108 204.007C114.246 204.086 114.399 204.134 114.557 204.148C114.716 204.162 114.876 204.141 115.026 204.086C115.176 204.032 115.312 203.946 115.426 203.833L117.034 202.225C117.108 202.151 117.201 202.098 117.302 202.072C117.404 202.046 117.511 202.048 117.611 202.077C117.712 202.107 117.803 202.163 117.874 202.24C117.946 202.316 117.995 202.411 118.018 202.513C118.458 204.617 121.498 211.649 124.458 208.033C126.826 205.153 129.434 207.057 131.402 209.041C131.51 209.149 131.643 209.227 131.789 209.269C131.936 209.312 132.09 209.317 132.239 209.284C132.388 209.252 132.526 209.182 132.641 209.083C132.756 208.983 132.844 208.856 132.898 208.713L135.202 202.505C135.226 202.43 135.275 202.366 135.342 202.323C135.409 202.281 135.488 202.264 135.567 202.274C135.645 202.285 135.717 202.322 135.77 202.381C135.824 202.439 135.855 202.514 135.858 202.593C135.922 203.5 136.327 204.175 137.074 204.617C137.303 204.751 137.519 204.735 137.722 204.569C142.09 200.961 143.634 192.201 143.794 186.489C152.012 189.7 157.874 195.335 161.378 203.393C161.495 203.665 161.7 203.815 161.994 203.841L163.298 203.961L162.682 204.097C162.367 204.167 162.255 204.359 162.346 204.673C164.338 211.369 167.378 217.801 169.642 227.145C166.159 228.777 162.65 229.996 159.114 230.801C158.836 230.86 158.687 230.751 158.666 230.473C158.426 227.265 157.41 218.497 153.394 217.369L155.058 205.041C155.069 204.943 155.047 204.843 154.995 204.758C154.942 204.673 154.862 204.609 154.769 204.576C154.675 204.542 154.572 204.541 154.478 204.574C154.384 204.606 154.303 204.669 154.25 204.753C154.01 205.148 153.658 205.199 153.194 204.905C152.986 204.772 152.828 204.593 152.722 204.369C151.095 200.951 149.991 197.108 149.41 192.841C149.383 192.644 149.263 192.54 149.05 192.529C148.879 192.524 148.802 192.607 148.818 192.777L151.322 220.865L151.506 232.761C136.263 236.148 120.991 236.199 105.69 232.913C105.573 232.889 105.468 232.825 105.393 232.731C105.319 232.638 105.279 232.521 105.282 232.401L105.426 223.321C105.564 217.679 106.172 212.127 107.25 206.665C107.372 206.047 107.343 206.039 107.162 206.641L101.914 223.953L101.01 231.377C101.004 231.429 100.986 231.479 100.959 231.523C100.932 231.568 100.895 231.606 100.852 231.635C100.809 231.664 100.759 231.683 100.708 231.691C100.656 231.699 100.604 231.696 100.554 231.681L90.2817 228.905C90.6711 228.26 90.8444 227.708 90.8018 227.249L91.3377 228.097C91.5297 228.396 91.6658 228.372 91.7458 228.025C92.0871 226.633 92.3644 224.535 92.5777 221.729C92.9057 217.425 95.0577 208.401 96.0257 204.881C97.6577 198.972 100.54 193.697 104.674 189.057L110.442 186.609Z" fill="#A69141"/>
<path d="M104.674 189.057C100.54 193.697 97.6577 198.972 96.0257 204.881C95.0577 208.401 92.9057 217.425 92.5777 221.729C92.3644 224.535 92.087 226.633 91.7457 228.025C91.6657 228.372 91.5297 228.396 91.3377 228.097L90.8017 227.249C90.9564 226.583 90.9537 225.932 90.7937 225.297C91.3537 215.289 94.3537 193.801 104.674 189.057Z" fill="#FCC093"/>
<path d="M153.394 217.37C152.748 217.476 152.271 217.858 151.962 218.514C151.946 219.287 151.732 220.071 151.322 220.866L148.818 192.778C148.802 192.607 148.879 192.524 149.05 192.53C149.263 192.54 149.383 192.644 149.41 192.842C149.991 197.108 151.095 200.951 152.722 204.37C152.828 204.594 152.986 204.772 153.194 204.906C153.658 205.199 154.01 205.148 154.25 204.754C154.303 204.67 154.384 204.606 154.478 204.574C154.572 204.542 154.675 204.542 154.769 204.576C154.862 204.609 154.942 204.673 154.995 204.758C155.047 204.843 155.069 204.943 155.058 205.042L153.394 217.37Z" fill="#7F8060"/>
<path d="M105.426 223.321C104.738 222.943 104.151 222.791 103.666 222.865C103.388 222.908 103.194 223.06 103.082 223.321C102.799 224.004 102.41 224.215 101.914 223.953L107.162 206.641C107.343 206.039 107.372 206.047 107.25 206.665C106.172 212.127 105.564 217.679 105.426 223.321Z" fill="#220509"/>
<path d="M151.962 218.513C152.132 220.257 153.183 221.204 155.114 221.353C155.458 221.379 155.785 221.518 156.042 221.75C156.298 221.982 156.47 222.293 156.53 222.633L157.946 230.745C158.004 231.06 157.876 231.255 157.562 231.329L151.506 232.761L151.322 220.865C151.732 220.071 151.946 219.287 151.962 218.513Z" fill="#507B65"/>
</svg>
