<svg width="256" height="256" viewBox="0 0 256 256" fill="none" xmlns="http://www.w3.org/2000/svg">
<path d="M68.9998 52.4328C68.1945 52.1501 67.4025 52.3528 66.6238 53.0408C49.5838 67.9848 39.1651 86.4995 35.3678 108.585C34.2051 115.331 33.3491 123.523 32.7998 133.161" stroke="#F5F5F2" stroke-width="2"/>
<path d="M32.7998 133.161C32.9705 137.705 34.5305 142.297 37.4798 146.937" stroke="#8E8B96" stroke-width="2"/>
<path d="M37.4796 146.938C36.6529 147.94 36.4769 149.423 36.9516 151.385C43.2609 177.529 57.0583 198.225 78.3436 213.473C78.5756 213.633 79.0876 213.745 79.2236 213.969" stroke="#F5F5F2" stroke-width="2"/>
<path d="M79.2231 213.969L80.9911 215.361" stroke="#FCCCB3" stroke-width="2"/>
<path d="M204.569 75.5927C199.891 68.7127 194.454 62.526 188.257 57.0327C188.033 56.8353 187.787 56.798 187.521 56.9207C187.142 57.0913 186.835 57.014 186.601 56.6887C186.489 56.5394 186.411 56.5554 186.369 56.7367C186.342 56.8274 186.321 56.9233 186.305 57.0247" stroke="#F5F5F2" stroke-width="2"/>
<path d="M186.303 57.0255L182.759 52.5375" stroke="#8E8B96" stroke-width="2"/>
<path d="M182.76 52.5371C171.92 39.3851 155.472 31.2571 138.768 28.8891C112.68 25.1931 87.096 33.017 69 52.433" stroke="#9A939D" stroke-width="2"/>
<path d="M182.76 52.5375C181.912 52.8655 182.136 53.9295 182.664 54.4735C187.648 59.6975 189.928 65.8015 192.744 72.0015C193.166 72.9242 193.099 73.7268 192.544 74.4095C192.352 74.6495 192.118 74.7028 191.84 74.5695C191.36 74.3455 190.934 74.3801 190.56 74.6735C190.505 74.7162 190.441 74.7444 190.372 74.7556C190.303 74.7669 190.232 74.7607 190.166 74.7378C190.1 74.7149 190.039 74.6759 189.991 74.6242C189.943 74.5725 189.907 74.5098 189.888 74.4415L189.552 73.1215C189.451 72.7375 189.23 72.6495 188.888 72.8575L188.376 73.1775" stroke="#2A2135" stroke-width="2"/>
<path d="M188.376 73.1773C185.128 65.6199 180.573 58.8679 174.712 52.9213C174.44 52.6439 174.274 52.6973 174.216 53.0813C174.152 53.524 174.469 54.1106 175.168 54.8413" stroke="#3D2D3E" stroke-width="2"/>
<path d="M175.167 54.8405L171.591 51.8085C171.421 51.6592 171.221 51.5925 170.991 51.6085C170.309 51.6672 169.877 52.0325 169.695 52.7045C169.621 52.9925 169.679 53.2512 169.871 53.4805C172.661 56.8298 174.682 59.6112 175.935 61.8245C176.391 62.6325 184.799 79.6965 183.863 80.5925C183.634 80.8165 183.45 80.7818 183.311 80.4885L180.055 73.5205C179.981 73.3605 179.861 73.3045 179.695 73.3525C179.191 73.4805 178.903 71.9765 178.599 71.5445C178.482 71.3792 178.399 71.3952 178.351 71.5925C178.303 71.7685 178.37 71.9392 178.551 72.1045C178.574 72.1276 178.589 72.1572 178.593 72.1892C178.598 72.2212 178.592 72.2538 178.577 72.2824C178.562 72.3109 178.538 72.3338 178.509 72.3479C178.48 72.3619 178.447 72.3663 178.415 72.3605L174.343 71.4725C174.203 71.4412 174.055 71.4662 173.932 71.5422C173.808 71.6182 173.718 71.7394 173.679 71.8805C173.482 72.5845 173.109 72.7872 172.559 72.4885C172.334 72.3656 172.067 72.3369 171.815 72.4085C169.191 73.1285 164.183 72.5925 162.999 74.4245C161.823 76.2325 163.335 77.8565 165.079 78.5525C168.479 79.9125 173.239 81.3605 175.887 83.9125C176.095 84.1098 176.111 84.3232 175.935 84.5525C175.631 84.9525 175.202 85.1578 174.647 85.1685C174.386 85.1738 174.157 85.2592 173.959 85.4245C173.213 86.0592 172.618 86.9152 172.175 87.9925C171.562 89.4965 170.469 90.6885 168.895 91.5685C168.655 91.6995 168.453 91.8929 168.311 92.1285L168.191 92.3365C168.037 92.5978 167.807 92.7258 167.503 92.7205C163.911 92.6805 160.759 92.4245 157.111 93.2885C151.871 94.5205 148.143 93.4405 142.039 91.4885C139.543 90.6938 138.114 91.0245 137.751 92.4805" stroke="#2A2135" stroke-width="2"/>
<path d="M137.751 92.481C133.021 90.3423 128.49 87.8677 124.159 85.057" stroke="#99675F" stroke-width="2"/>
<path d="M124.16 85.0574C124.794 84.6574 124.845 84.1054 124.312 83.4014C124.152 83.1934 123.941 83.0654 123.68 83.0174C122.586 82.8147 121.885 82.1907 121.576 81.1454C121.533 81.0053 121.46 80.8765 121.362 80.7686C121.264 80.6606 121.143 80.5761 121.008 80.5214C117.52 79.0601 114.482 76.9454 111.896 74.1774C111.704 73.9747 111.472 73.8761 111.2 73.8814C97.9198 74.1214 87.5118 75.3934 76.5438 82.4814C68.9838 87.3614 64.1598 92.3054 61.7918 100.785C61.7494 100.939 61.6736 101.081 61.5699 101.201C61.4662 101.322 61.3372 101.418 61.1919 101.483C61.0467 101.548 60.8889 101.58 60.7299 101.577C60.5708 101.574 60.4144 101.536 60.2718 101.465C57.1598 99.9214 54.6638 108.473 51.6398 109.329C51.5144 109.365 51.4059 109.444 51.3339 109.553C51.262 109.661 51.2314 109.792 51.2478 109.921C51.2905 110.236 51.2291 110.487 51.0638 110.673C51.0315 110.709 50.9894 110.735 50.9426 110.748C50.8958 110.76 50.8464 110.759 50.8005 110.743C50.7545 110.728 50.7141 110.7 50.6841 110.662C50.6541 110.624 50.636 110.578 50.6318 110.529C49.2665 98.1827 51.0478 86.0707 55.9758 74.1934C56.1411 73.7934 55.9518 73.5881 55.4078 73.5774" stroke="#2A2135" stroke-width="2"/>
<path d="M55.4077 73.5769C58.757 65.8009 63.2877 58.7529 68.9997 52.4329" stroke="#908B91" stroke-width="2"/>
<path d="M196.791 144.513C196.012 144.833 195.22 145.297 194.415 145.905C189.439 149.665 184.567 150.433 179.223 146.601C178.973 146.42 178.807 146.481 178.727 146.785L177.951 149.857" stroke="#8D5F58" stroke-width="2"/>
<path d="M177.951 149.857C177.077 149.292 176.525 149.579 176.295 150.721C175.655 153.905 173.935 155.113 171.135 154.345C170.858 154.27 170.602 154.316 170.367 154.481C162.618 160.07 154.717 160.34 146.663 155.289C143.543 153.329 146.351 150.521 148.127 148.537C148.293 148.345 148.498 148.214 148.743 148.145L152.407 147.065" stroke="#FDBA99" stroke-width="2"/>
<path d="M152.408 147.065C155.906 146.494 159.285 145.18 162.544 143.121" stroke="#F8CAB5" stroke-width="2"/>
<path d="M162.544 143.121C162.443 143.169 162.555 143.206 162.88 143.233" stroke="#9B6257" stroke-width="2"/>
<path d="M162.879 143.233C162.247 144.137 164.575 145.313 165.327 146.097C166.999 147.817 168.911 148.785 170.495 150.401C170.567 150.473 170.657 150.525 170.755 150.551C170.853 150.577 170.956 150.576 171.053 150.549C171.151 150.522 171.238 150.47 171.308 150.397C171.377 150.325 171.425 150.235 171.447 150.137C172.743 144.473 173.205 138.873 172.831 133.337C172.367 126.513 172.399 120.161 170.567 113.481C169.703 110.377 168.383 108.913 165.623 107.545C160.781 105.161 156.493 103.319 152.759 102.017" stroke="#FDB290" stroke-width="2"/>
<path d="M152.759 102.017C142.236 98.3424 132.301 93.2997 122.951 86.889" stroke="#FDBA99" stroke-width="2"/>
<path d="M122.953 86.8889L114.649 79.9128C114.385 79.6941 114.073 79.5439 113.739 79.4755C113.405 79.4071 113.061 79.4226 112.737 79.5208C99.9899 83.4035 88.4245 89.6595 78.0405 98.2889" stroke="#FDBC9B" stroke-width="2"/>
<path d="M78.0395 98.2888C75.7035 99.6648 73.3995 100.617 71.1275 101.145C70.9827 101.177 70.8315 101.166 70.6933 101.112C70.5551 101.058 70.4362 100.964 70.3519 100.842C70.2676 100.719 70.2218 100.575 70.2203 100.426C70.2188 100.278 70.2617 100.133 70.3435 100.009C71.0955 98.9048 71.2048 98.1794 70.6715 97.8328" stroke="#FDB290" stroke-width="2"/>
<path d="M124.16 85.0573C120.875 82.7693 117.683 80.3506 114.584 77.8013C112.216 75.8493 112.152 74.5773 108.328 75.4893C93.9919 78.9213 79.2799 85.3773 70.6719 97.8333" stroke="#8D5F58" stroke-width="2"/>
<path d="M70.6722 97.8328C65.6242 106.265 67.4162 120.969 68.3682 130.353C68.4482 131.147 68.3869 131.158 68.1842 130.385C67.5015 127.793 66.5789 125.977 65.4162 124.937C60.9362 120.926 56.3709 121.198 51.7202 125.753" stroke="#8E6C66" stroke-width="2"/>
<path d="M55.4077 73.5765C48.2984 90.1899 47.069 107.582 51.7197 125.753" stroke="#85828A" stroke-width="2"/>
<path d="M51.72 125.753C48.8294 130.255 48.0214 134.758 49.296 139.265C49.584 140.265 51.568 141.737 50.424 142.233" stroke="#F4D6C2" stroke-width="2"/>
<path d="M50.4238 142.233C49.6771 141.385 49.1118 140.918 48.7278 140.833C42.5411 139.521 37.2318 136.964 32.7998 133.161" stroke="#85828A" stroke-width="2"/>
<path d="M175.168 54.8406C181.936 63.4326 186.878 73.0459 189.992 83.6806C190.03 83.8086 190.107 83.8379 190.224 83.7686L190.416 83.6566C190.635 83.5286 190.715 83.3392 190.656 83.0886L188.376 73.1766" stroke="#312437" stroke-width="2"/>
<path d="M186.305 57.025C200.833 76.849 203.457 102.633 196.673 125.721" stroke="#85828A" stroke-width="2"/>
<path d="M196.671 125.721C188.922 120.783 183.226 122.343 179.583 130.401C179.503 130.577 179.455 130.569 179.439 130.377C179.29 128.361 179.293 126.345 179.447 124.329C179.981 117.593 179.666 110.908 178.503 104.273C178.475 104.114 178.398 103.969 178.283 103.857C178.168 103.745 178.021 103.672 177.863 103.649C163.991 101.767 150.621 98.0439 137.751 92.4812" stroke="#8D5F58" stroke-width="2"/>
<path d="M84.1841 144.033C84.6801 143.494 84.9841 142.585 85.0961 141.305" stroke="#AF7367" stroke-width="2"/>
<path d="M85.0952 141.305L85.2152 142.761C85.2419 143.065 85.3992 143.262 85.6872 143.353L95.7432 146.641" stroke="#FEDECE" stroke-width="2"/>
<path d="M76.8953 160.281C73.8233 156.222 71.338 151.857 69.4393 147.185C69.226 146.657 68.866 146.521 68.3593 146.777C61.4633 150.217 55.0553 147.945 50.4233 142.233" stroke="#8E6C66" stroke-width="2"/>
<path d="M162.879 143.233C164.81 140.273 165.498 137.739 164.943 135.633" stroke="#9C6F65" stroke-width="2"/>
<path d="M164.943 135.633L165.471 133.281" stroke="#AB7E74" stroke-width="2"/>
<path d="M165.472 133.281C162.299 129.201 158.622 126.468 154.44 125.081" stroke="#9C6F65" stroke-width="2"/>
<path d="M159.831 113.121C161.735 114.481 163.37 116.139 164.735 118.097C164.764 118.134 164.805 118.16 164.85 118.172C164.896 118.184 164.944 118.18 164.988 118.162C165.031 118.144 165.068 118.112 165.091 118.071C165.115 118.031 165.125 117.983 165.119 117.937C164.442 114.379 162.802 111.347 160.199 108.841" stroke="#8E6C66" stroke-width="2"/>
<path d="M204.568 75.593L204.176 75.769C203.968 75.8597 203.92 76.0037 204.032 76.201C213.624 92.729 217.08 115.193 216.352 133.785C216.304 134.948 216.613 135.7 217.28 136.041C217.404 136.104 217.547 136.121 217.684 136.091C217.821 136.06 217.944 135.983 218.032 135.873C219.019 134.604 219.976 134.233 220.904 134.761" stroke="#E1DFDC" stroke-width="2"/>
<path d="M220.904 134.761C219.907 135.518 218.907 136.166 217.904 136.705C211.269 140.268 204.232 142.87 196.792 144.513" stroke="#85828A" stroke-width="2"/>
<path d="M196.792 144.513C200.472 138.025 201.768 132.257 196.672 125.721" stroke="#F4C9B4" stroke-width="2"/>
<path d="M165.471 133.281C164.079 132.695 162.933 131.815 162.031 130.641C161.991 130.591 161.933 130.557 161.869 130.544C161.806 130.532 161.739 130.542 161.683 130.573C161.627 130.604 161.585 130.654 161.563 130.713C161.542 130.773 161.544 130.838 161.567 130.897C162.351 132.956 163.477 134.535 164.943 135.633" stroke="#492E3B" stroke-width="2"/>
<path d="M162.544 143.121C164.528 136.185 161.176 129.217 153.352 128.569" stroke="#97878A" stroke-width="2"/>
<path d="M153.351 128.569C151.127 127.369 147.759 129.665 146.159 131.057C146.122 131.092 146.097 131.139 146.086 131.189C146.076 131.24 146.081 131.292 146.101 131.339C146.121 131.387 146.155 131.427 146.198 131.455C146.241 131.484 146.292 131.498 146.343 131.497L150.407 131.289C150.658 131.278 150.874 131.187 151.055 131.017L153.103 129.105" stroke="#4E232E" stroke-width="2"/>
<path d="M153.104 129.105C157.976 129.673 159.336 135.697 158.456 139.625C157.28 144.905 151.368 146.865 146.8 144.585" stroke="#97878A" stroke-width="2"/>
<path d="M132.529 185.833C132.006 184.777 131.83 183.377 132.001 181.633" stroke="#8D5F58" stroke-width="2"/>
<path d="M152.759 102.017L153.439 103.777C153.535 104.033 153.719 104.191 153.991 104.249C157.293 104.964 159.362 106.495 160.199 108.841" stroke="#FEC7A7" stroke-width="2"/>
<path d="M160.2 108.841C155.24 105.145 145.168 102.241 141.744 109.137C140.192 112.281 143.52 113.425 146.064 112.377C150.698 110.468 155.288 110.716 159.832 113.121" stroke="#8E736F" stroke-width="2"/>
<path d="M159.832 113.121L159.416 113.657C159.245 113.875 159.034 113.923 158.783 113.801C154.693 111.779 150.517 111.659 146.256 113.441C146.16 113.483 146.165 113.513 146.271 113.529C146.362 113.545 146.434 113.587 146.488 113.657C146.545 113.724 146.577 113.809 146.577 113.897C146.577 113.985 146.545 114.07 146.488 114.137C146.066 114.633 145.906 115.105 146.007 115.553C146.845 119.307 149.656 122.483 154.44 125.081" stroke="#FEC7A7" stroke-width="2"/>
<path d="M154.44 125.081C141.712 123.673 137.496 138.169 146.8 144.585" stroke="#9C776E" stroke-width="2"/>
<path d="M146.801 144.585L146.553 145.009C146.414 145.249 146.465 145.439 146.705 145.577C148.427 146.569 150.329 147.065 152.409 147.065" stroke="#F9DECB" stroke-width="2"/>
<path d="M177.952 149.857C170.112 168.921 152.144 179.945 132 181.633" stroke="#8E736F" stroke-width="2"/>
<path d="M132 181.633C126.486 182.305 121.011 182.499 115.576 182.217" stroke="#FDBA99" stroke-width="2"/>
<path d="M115.576 182.217C115.587 181.999 115.256 181.919 114.584 181.977" stroke="#FEC7A7" stroke-width="2"/>
<path d="M114.585 181.978L113.969 181.402" stroke="#8E736F" stroke-width="2"/>
<path d="M117.728 168.977C121.248 169.436 124.264 169.572 126.776 169.385C135.144 168.761 140.376 164.383 142.472 156.249C142.701 155.353 142.376 154.764 141.496 154.481C141.037 154.332 140.56 154.492 140.064 154.961" stroke="#BC7F6E" stroke-width="2"/>
<path d="M140.064 154.961C135.243 156.625 130.347 157.348 125.376 157.129" stroke="#FEE6D7" stroke-width="2"/>
<path d="M124.464 150.761C126.933 149.945 128.112 148.345 128 145.961C127.989 145.689 127.893 145.454 127.712 145.257C126.944 144.393 125.949 143.726 124.728 143.257" stroke="#FEC7A7" stroke-width="2"/>
<path d="M123.992 142.769C123.928 142.219 123.566 141.707 122.904 141.233" stroke="#F9DECB" stroke-width="2"/>
<path d="M122.953 86.889C120.873 94.425 121.825 101.129 121.593 108.225C121.345 115.905 121.137 123.561 121.777 131.233C121.963 133.489 121.963 135.748 121.777 138.009C121.756 138.267 121.797 138.525 121.897 138.761L122.905 141.233" stroke="#FED1B1" stroke-width="2"/>
<path d="M122.903 141.233C122.221 140.726 121.567 140.62 120.943 140.913C120.812 140.973 120.696 141.062 120.606 141.173C120.515 141.284 120.453 141.414 120.423 141.553C119.959 143.67 120.039 145.756 120.663 147.809C120.7 147.927 120.77 148.031 120.864 148.109C120.959 148.188 121.075 148.237 121.197 148.251C121.32 148.264 121.443 148.242 121.553 148.186C121.663 148.13 121.754 148.044 121.815 147.937C122.05 147.526 122.41 147.292 122.895 147.233C123.022 147.217 123.137 147.154 123.219 147.058C123.301 146.961 123.342 146.838 123.335 146.713C123.261 145.278 123.479 143.964 123.991 142.769" stroke="#F9E1CD" stroke-width="2"/>
<path d="M123.992 142.769C124.424 142.982 124.67 143.145 124.728 143.257" stroke="#FED1B1" stroke-width="2"/>
<path d="M124.728 143.257C124.792 146.697 123.573 148.833 121.072 149.665C120.919 149.713 120.79 149.816 120.707 149.954C120.625 150.091 120.596 150.254 120.625 150.411C120.655 150.569 120.741 150.71 120.868 150.808C120.994 150.907 121.152 150.955 121.312 150.945L124.464 150.761" stroke="#FEC9A9" stroke-width="2"/>
<path d="M124.464 150.761C125.616 152.788 125.92 154.91 125.376 157.129" stroke="#FED1B1" stroke-width="2"/>
<path d="M125.376 157.129C119.862 157.46 114.31 156.767 108.72 155.049" stroke="#FEE8D9" stroke-width="2"/>
<path d="M108.72 155.049C108.533 154.399 107.797 154.135 106.512 154.257C106.24 154.284 106.088 154.433 106.056 154.705C105.256 161.729 111.464 166.913 117.728 168.977" stroke="#BC8170" stroke-width="2"/>
<path d="M117.728 168.977L112.696 169.745C112.419 169.788 112.309 169.948 112.368 170.225C112.512 170.876 112.84 171.257 113.352 171.369C113.859 171.481 113.899 171.684 113.472 171.977C111.296 173.46 110.184 175.561 110.136 178.281C110.131 178.548 110.235 178.759 110.448 178.913L113.968 181.401" stroke="#FED1B1" stroke-width="2"/>
<path d="M113.967 181.401C99.615 178.961 85.647 172.057 76.895 160.281" stroke="#8E7671" stroke-width="2"/>
<path d="M76.895 160.281C78.751 159.646 80.0124 158.427 80.679 156.625C80.7804 156.347 80.967 156.27 81.239 156.393C88.751 159.769 97.159 157.537 103.575 152.833C103.799 152.673 103.927 152.454 103.959 152.177C104.319 148.745 97.711 148.577 95.743 146.641" stroke="#FEC9A9" stroke-width="2"/>
<path d="M95.7437 146.641C97.3517 146.465 98.8796 146.857 100.296 146.553C106.696 145.177 106.968 140.417 106.416 134.913C106.394 134.684 106.28 134.521 106.072 134.425C105.832 134.313 105.57 134.3 105.288 134.385" stroke="#FEE8D9" stroke-width="2"/>
<path d="M105.288 134.385C102.824 119.537 87.3518 124.009 82.1998 133.849C81.5918 135.009 80.8558 135.225 79.6718 134.817C79.4585 134.742 79.2718 134.785 79.1118 134.945L78.8398 135.217C78.8074 135.25 78.7835 135.29 78.7701 135.335C78.7567 135.379 78.7542 135.426 78.7629 135.472C78.7715 135.517 78.791 135.56 78.8197 135.596C78.8484 135.633 78.8855 135.662 78.9278 135.681C82.7038 137.321 82.6958 140.761 84.1838 144.033" stroke="#B07D71" stroke-width="2"/>
<path d="M84.1847 144.033C83.8407 147.665 80.3767 148.217 77.1047 148.385C76.7794 148.401 76.5687 148.254 76.4727 147.945C75.5234 144.884 75.6487 141.87 76.8487 138.905C76.9447 138.665 77.102 138.476 77.3207 138.337L77.7287 138.073C77.7786 138.04 77.821 137.998 77.8533 137.948C77.8856 137.898 77.907 137.841 77.916 137.782C77.9251 137.724 77.9216 137.664 77.9059 137.606C77.8902 137.549 77.8625 137.495 77.8247 137.449C76.5874 135.886 76.6994 134.518 78.1607 133.345C78.3954 133.158 78.5154 132.916 78.5207 132.617L78.9207 113.985C78.926 113.777 78.8274 113.66 78.6247 113.633C76.5767 113.353 78.9927 103.153 79.3367 101.705C79.3989 101.441 79.3708 101.165 79.2567 100.921L78.0407 98.2891" stroke="#FEC9A9" stroke-width="2"/>
<path d="M114.584 181.977L114.168 185.305C114.138 185.526 114.036 185.731 113.876 185.886C113.716 186.041 113.509 186.138 113.288 186.161L105.808 186.961" stroke="#8E6C66" stroke-width="2"/>
<path d="M105.807 186.961C86.1515 187.825 66.1035 182.025 52.0315 167.937C51.975 167.884 51.9372 167.814 51.9238 167.738C51.9105 167.661 51.9222 167.582 51.9573 167.513C51.9924 167.444 52.049 167.388 52.1186 167.353C52.1882 167.319 52.2671 167.307 52.3435 167.321C53.8635 167.553 67.5515 168.689 67.7035 167.329C67.7248 167.111 67.6288 167.009 67.4155 167.025C66.0768 167.095 65.1168 167.041 64.5355 166.865C53.1755 163.425 44.1568 156.783 37.4795 146.938" stroke="#85828A" stroke-width="2"/>
<path d="M105.287 134.385C105.503 141.457 100.391 147.689 93.2392 144.417C88.4072 142.209 88.4472 134.305 92.6952 131.529C92.7812 131.473 92.881 131.441 92.9839 131.436C93.0868 131.432 93.1889 131.456 93.2792 131.505C93.3696 131.554 93.4449 131.627 93.497 131.716C93.5492 131.805 93.5762 131.906 93.5752 132.009V132.913C93.5738 132.976 93.5914 133.038 93.6256 133.09C93.6597 133.143 93.709 133.184 93.7668 133.208C93.8247 133.232 93.8885 133.238 93.95 133.226C94.0114 133.213 94.0676 133.182 94.1112 133.137L94.8792 132.361C95.0701 132.168 95.1968 131.92 95.2416 131.652C95.2865 131.384 95.2473 131.108 95.1296 130.864C95.0119 130.62 94.8214 130.419 94.5845 130.289C94.3476 130.158 94.076 130.105 93.8072 130.137C87.0632 130.921 86.0472 135.593 85.0952 141.305" stroke="#B09297" stroke-width="2"/>
<path d="M80.9917 215.361L85.5277 217.497" stroke="#E9B79D" stroke-width="2"/>
<path d="M85.5278 217.497L93.9518 221.489" stroke="#E4A68A" stroke-width="2"/>
<path d="M93.9512 221.489C111.082 228.561 129.002 229.598 147.711 224.601" stroke="#E9B79D" stroke-width="2"/>
<path d="M147.712 224.601L154.4 222.161" stroke="#E4A68A" stroke-width="2"/>
<path d="M154.4 222.161L161.088 219.217" stroke="#EBA08D" stroke-width="2"/>
<path d="M161.087 219.217L168.199 215.361" stroke="#E4A68A" stroke-width="2"/>
<path d="M168.2 215.361C188.989 201.713 203.309 182.891 211.16 158.897C212.434 155.003 213.909 151.91 215.584 149.617C219.253 144.587 221.885 139.726 223.48 135.033C223.576 134.75 223.504 134.523 223.264 134.353C222.992 134.155 222.696 134.078 222.376 134.121" stroke="#E1DFDC" stroke-width="2"/>
<path d="M222.376 134.121L220.904 134.761" stroke="#7B7580" stroke-width="2"/>
<path d="M153.353 128.569C153.283 128.563 153.211 128.571 153.137 128.593C153.051 128.619 153.006 128.681 153.001 128.777C152.995 128.883 153.03 128.993 153.105 129.105" stroke="#AA8B8B" stroke-width="2"/>
<path d="M168.2 215.361C165.768 207.638 162.147 201.193 157.336 196.025C152.494 190.82 146.528 188.03 139.44 187.657" stroke="#EEB394" stroke-width="2"/>
<path d="M139.44 187.657L132.784 187.049C132.506 187.023 132.249 186.895 132.069 186.694C131.889 186.494 131.801 186.236 131.824 185.977C131.84 185.843 132.074 185.795 132.528 185.833" stroke="#F4C9B4" stroke-width="2"/>
<path d="M132.528 185.833C155.392 189.041 180.464 184.889 197.568 169.249C198.592 168.316 198.41 167.884 197.024 167.953C193.461 168.129 189.904 167.99 186.352 167.537C186.302 167.53 186.257 167.505 186.223 167.467C186.19 167.43 186.17 167.382 186.169 167.332C186.167 167.282 186.182 167.232 186.213 167.192C186.243 167.152 186.287 167.124 186.336 167.113C202.712 163.225 218.264 151.177 222.376 134.121" stroke="#85828A" stroke-width="2"/>
<path d="M139.44 187.657C137.194 194.809 132.274 198.772 124.68 199.545" stroke="#F78F62" stroke-width="2"/>
<path d="M124.679 199.545C124.183 194.897 121.447 186.561 116.087 186.065C115.821 186.044 115.626 185.913 115.503 185.673C114.805 184.345 114.829 183.193 115.575 182.217" stroke="#FDB290" stroke-width="2"/>
<path d="M124.68 199.545C116.728 200.881 110.16 195.633 108.36 188.081C108.296 187.809 108.128 187.654 107.856 187.617C107.179 187.516 106.491 187.577 105.792 187.801" stroke="#F79C70" stroke-width="2"/>
<path d="M108.72 155.049C108.987 161.492 112.475 165.465 119.184 166.969C128.704 169.097 138.512 165.801 140.064 154.961" stroke="#BC9695" stroke-width="2"/>
<path d="M105.808 186.961L105.792 187.801" stroke="#F4D6C2" stroke-width="2"/>
<path d="M105.792 187.801C105.306 187.737 104.736 187.833 104.08 188.089" stroke="#EEB394" stroke-width="2"/>
<path d="M104.079 188.089C90.3432 190.921 83.7351 201.457 79.2231 213.969" stroke="#F3C4A7" stroke-width="2"/>
<path d="M93.9518 221.489L93.0318 196.433C93.0294 196.399 93.0163 196.367 92.9944 196.341C92.9725 196.315 92.943 196.297 92.9101 196.289C92.8772 196.281 92.8426 196.284 92.8112 196.296C92.7799 196.309 92.7535 196.332 92.7358 196.361C92.0532 197.598 91.5518 198.945 91.2318 200.401C90.0798 205.665 88.7358 210.881 87.1998 216.049C87.1252 216.305 86.9758 216.508 86.7518 216.657L85.5278 217.497" stroke="#F68A54" stroke-width="2"/>
<path d="M161.088 219.217C159.712 212.171 157.954 205.27 155.816 198.513C155.616 197.881 155.624 196.721 155 196.353C154.642 196.134 154.456 196.235 154.44 196.657C154.336 199.841 154.608 220.793 153.68 221.689C153.498 221.865 153.536 221.958 153.792 221.969C154.058 221.985 154.261 222.049 154.4 222.161" stroke="#F87445" stroke-width="2"/>
<path d="M147.712 224.601C144.544 220.18 140.874 216.334 136.704 213.065C130.968 208.561 123.984 206.329 117.368 203.449C109.608 200.065 104.088 196.769 104.08 188.089" stroke="#F68A54" stroke-width="2"/>
<path d="M107.991 36.0169C85.9112 41.6089 69.4312 57.0729 59.9192 77.3929C59.8818 77.4729 59.9085 77.5583 59.9992 77.6489C60.023 77.6719 60.0516 77.6894 60.083 77.7C60.1144 77.7106 60.1477 77.7141 60.1806 77.7103C60.2135 77.7064 60.2452 77.6954 60.2733 77.6778C60.3014 77.6603 60.3253 77.6368 60.3432 77.6089C74.9192 54.4809 99.5192 37.5929 126.431 33.1849C126.482 33.1828 126.53 33.1605 126.565 33.123C126.599 33.0855 126.617 33.0358 126.615 32.9849C126.613 32.934 126.591 32.886 126.553 32.8515C126.516 32.817 126.466 32.7988 126.415 32.8009C120.895 32.5449 113.375 34.6569 107.991 36.0169Z" stroke="#473343" stroke-width="2"/>
<path d="M67.1117 72.9212C65.5651 74.6759 63.9197 76.3159 62.1757 77.8413C59.6077 80.0813 58.5757 83.8813 57.7597 87.0413C57.7323 87.144 57.7437 87.2531 57.7918 87.348C57.8398 87.4428 57.9211 87.5166 58.0202 87.5552C58.1192 87.5938 58.229 87.5945 58.3285 87.5573C58.4281 87.52 58.5104 87.4474 58.5597 87.3533C60.3997 84.0013 62.2957 82.1133 65.6477 78.4493C79.1144 63.7346 95.5064 53.6306 114.824 48.1373C115.288 48.0013 116.624 47.8573 116.944 47.2973C117.205 46.8546 117.082 46.6812 116.576 46.7772C109.04 48.2172 101.216 49.7772 94.4877 52.7692C83.9704 57.4519 74.8451 64.1692 67.1117 72.9212Z" stroke="#473343" stroke-width="2"/>
<path d="M137.192 73.8891C145.544 82.2971 158.672 89.9531 170.872 89.5531C170.952 89.5509 171.029 89.5259 171.095 89.481C171.161 89.4362 171.212 89.3734 171.243 89.3001C171.275 89.2268 171.284 89.146 171.271 89.0675C171.257 88.989 171.222 88.916 171.168 88.8571C171.072 88.7531 170.792 88.5291 170.624 88.4891C158.936 85.5611 147.144 80.8331 137.384 73.6651C137.355 73.6411 137.319 73.6295 137.283 73.6326C137.246 73.6356 137.213 73.6532 137.188 73.6816C137.164 73.7101 137.151 73.7473 137.151 73.7858C137.152 73.8244 137.167 73.8613 137.192 73.8891Z" stroke="#3D2D3E" stroke-width="2"/>
<path d="M185.569 131.945L184.369 132.569" stroke="#FD8A65" stroke-width="2"/>
<path d="M184.368 132.569C179.957 134.947 179.435 137.798 182.8 141.121" stroke="#F0835D" stroke-width="2"/>
<path d="M182.8 141.121C187.16 143.081 192.632 142.897 192.784 136.649" stroke="#FD8A65" stroke-width="2"/>
<path d="M192.784 136.649C192.987 137.204 193.299 137.452 193.72 137.393C193.998 137.356 194.136 137.198 194.136 136.921C194.144 131.233 188.976 127.489 183.68 130.793C183.456 130.932 183.456 131.07 183.68 131.209C184.262 131.588 184.891 131.833 185.568 131.945" stroke="#FDBC9B" stroke-width="2"/>
<path d="M192.784 136.649C193.032 132.737 188.776 131.689 185.568 131.945" stroke="#FEA17E" stroke-width="2"/>
<path d="M182.8 141.121C183.114 140.993 183.256 140.787 183.224 140.505" stroke="#F16740" stroke-width="2"/>
<path d="M183.223 140.505C185.807 141.929 191.247 142.369 191.479 138.241C191.49 137.99 191.418 137.766 191.263 137.569C189.716 135.579 187.612 134.713 184.951 134.969" stroke="#FD825E" stroke-width="2"/>
<path d="M184.953 134.969C185.55 134.809 185.945 134.577 186.137 134.273C186.302 134.011 186.254 133.795 185.993 133.625L184.369 132.569" stroke="#F16740" stroke-width="2"/>
<path d="M184.951 134.969C184.402 135.315 184.012 135.787 183.783 136.385C183.692 136.619 183.535 136.79 183.311 136.897C181.895 137.585 182.111 139.617 183.223 140.505" stroke="#F07B55" stroke-width="2"/>
<path d="M85.3441 115.169C90.8641 110.377 97.3601 109.569 103.992 113.161C104.243 113.294 104.504 113.329 104.776 113.265C106.232 112.94 107.048 112.124 107.224 110.817C107.664 107.425 102.288 105.097 99.7601 104.969C92.4428 104.601 87.4001 107.83 84.6321 114.657C84.5905 114.751 84.5824 114.856 84.6094 114.956C84.6364 115.055 84.6967 115.142 84.7802 115.202C84.8637 115.262 84.9654 115.292 85.0681 115.286C85.1708 115.28 85.2682 115.238 85.3441 115.169Z" stroke="#8E7671" stroke-width="2"/>
<path d="M57.5918 139.329C59.3838 141.26 61.6558 141.889 64.4078 141.217C65.5518 140.937 66.6318 140.065 67.9438 139.681C68.1785 139.612 68.2798 139.455 68.2478 139.209C68.2211 139.023 68.1251 138.871 67.9598 138.753" stroke="#FCAB89" stroke-width="2"/>
<path d="M67.9604 138.753C68.1257 135.782 67.115 133.502 64.9284 131.913C64.7204 131.764 64.4884 131.689 64.2324 131.689C61.059 131.71 59.0457 131.945 58.1924 132.393C55.1284 134.009 54.4884 137.257 57.5924 139.329" stroke="#FE9773" stroke-width="2"/>
<path d="M67.9594 138.753C67.298 139.271 66.738 139.358 66.2794 139.017C66.0767 138.873 65.8527 138.798 65.6074 138.793C65.2394 138.782 64.8847 138.78 64.5434 138.785C64.3834 138.79 64.314 138.713 64.3354 138.553L64.3994 138.073C64.426 137.886 64.522 137.748 64.6874 137.657C65.4474 137.249 65.6714 136.913 65.3994 136.041C63.6234 130.473 54.6874 132.585 57.5914 139.329" stroke="#FD825E" stroke-width="2"/>
<path d="M79.8395 153.873C81.6235 151.161 79.3115 150.241 77.3355 149.385C77.2372 149.341 77.1273 149.33 77.0222 149.354C76.9172 149.377 76.8227 149.435 76.7531 149.517C76.6835 149.599 76.6426 149.702 76.6365 149.81C76.6305 149.917 76.6596 150.024 76.7195 150.113L79.1835 153.873C79.2191 153.928 79.2678 153.972 79.325 154.003C79.3823 154.034 79.4464 154.051 79.5115 154.051C79.5766 154.051 79.6406 154.034 79.6979 154.003C79.7552 153.972 79.8038 153.928 79.8395 153.873Z" stroke="#FEC9A9" stroke-width="2"/>
<path d="M166.399 136.217L168.232 135.249C168.298 135.213 168.352 135.159 168.388 135.093C168.424 135.026 168.439 134.951 168.432 134.876C168.426 134.801 168.397 134.729 168.35 134.67C168.303 134.612 168.239 134.568 168.167 134.545L166.336 133.937C166.042 133.841 165.866 133.945 165.808 134.249L165.56 135.593C165.54 135.701 165.55 135.813 165.591 135.915C165.631 136.018 165.699 136.107 165.787 136.172C165.874 136.238 165.979 136.276 166.087 136.284C166.195 136.292 166.304 136.269 166.399 136.217Z" stroke="#9C6F65" stroke-width="2"/>
<path d="M153.968 130.889C153.811 130.811 153.635 130.779 153.46 130.797C153.285 130.815 153.12 130.883 152.982 130.991C152.845 131.1 152.742 131.245 152.686 131.41C152.63 131.574 152.622 131.752 152.664 131.921C152.808 132.502 152.963 133.054 153.128 133.577C153.253 133.938 153.5 134.203 153.817 134.316C154.134 134.429 154.495 134.38 154.825 134.181C155.155 133.982 155.428 133.647 155.586 133.248C155.744 132.849 155.775 132.416 155.672 132.041C155.597 131.817 155.029 131.433 153.968 130.889Z" stroke="#9C8E95" stroke-width="2"/>
<path d="M157.504 136.826C157.947 135.62 157.76 134.538 156.944 133.578C156.747 133.348 156.614 133.383 156.544 133.682C156.203 135.228 155.539 136.119 154.552 136.354C151.15 137.17 147.888 137.524 144.768 137.418C144.504 137.409 144.243 137.469 144.01 137.593C143.777 137.717 143.58 137.899 143.439 138.122C143.298 138.346 143.218 138.602 143.207 138.866C143.196 139.129 143.255 139.391 143.376 139.626C146.816 146.186 156.768 146.482 157.752 137.85C157.763 137.772 157.748 137.696 157.712 137.634L157.56 137.378C157.51 137.295 157.479 137.203 157.47 137.107C157.46 137.012 157.472 136.915 157.504 136.826Z" stroke="#5A272C" stroke-width="2"/>
<path d="M64.0384 135.911C64.0196 135.695 63.9341 135.488 63.7869 135.3C63.6397 135.112 63.4337 134.948 63.1806 134.816C62.9275 134.685 62.6322 134.589 62.3117 134.534C61.9912 134.479 61.6518 134.466 61.3127 134.495C60.9736 134.525 60.6415 134.597 60.3354 134.707C60.0294 134.817 59.7553 134.962 59.5288 135.136C59.3024 135.309 59.128 135.507 59.0157 135.717C58.9034 135.928 58.8552 136.147 58.8741 136.363C58.893 136.578 58.9784 136.786 59.1256 136.974C59.2728 137.162 59.4788 137.326 59.7319 137.458C59.9851 137.589 60.2803 137.685 60.6008 137.74C60.9213 137.795 61.2608 137.808 61.5999 137.779C61.939 137.749 62.271 137.677 62.5771 137.567C62.8832 137.457 63.1573 137.312 63.3837 137.138C63.6101 136.965 63.7845 136.767 63.8969 136.557C64.0092 136.346 64.0573 136.127 64.0384 135.911Z" stroke="#FC9E7B" stroke-width="2"/>
<path d="M182.76 52.5371C181.912 52.8651 182.136 53.929 182.664 54.473C187.648 59.697 189.928 65.8011 192.744 72.0011C193.165 72.9237 193.098 73.7264 192.544 74.4091C192.352 74.6491 192.117 74.7024 191.84 74.569C191.36 74.345 190.933 74.3797 190.56 74.673C190.505 74.7158 190.44 74.744 190.371 74.7552C190.302 74.7664 190.232 74.7603 190.165 74.7374C190.099 74.7145 190.039 74.6755 189.99 74.6238C189.942 74.5721 189.907 74.5093 189.888 74.4411L189.552 73.121C189.45 72.737 189.229 72.6491 188.888 72.8571L188.376 73.177C185.128 65.6197 180.573 58.8677 174.712 52.921C174.44 52.6437 174.274 52.697 174.216 53.081C174.152 53.5237 174.469 54.1104 175.168 54.8411L171.592 51.8091C171.421 51.6597 171.221 51.5931 170.992 51.6091C170.309 51.6677 169.877 52.0331 169.696 52.7051C169.621 52.9931 169.68 53.2517 169.872 53.481C172.661 56.8304 174.682 59.6117 175.936 61.825C176.392 62.633 184.8 79.6971 183.864 80.5931C183.634 80.8171 183.45 80.7824 183.312 80.4891L180.056 73.521C179.981 73.361 179.861 73.3051 179.696 73.3531C179.192 73.4811 178.904 71.9771 178.6 71.5451C178.482 71.3797 178.4 71.3957 178.352 71.5931C178.304 71.7691 178.37 71.9397 178.552 72.1051C178.574 72.1281 178.589 72.1578 178.594 72.1897C178.598 72.2217 178.593 72.2544 178.578 72.2829C178.562 72.3114 178.539 72.3344 178.51 72.3484C178.48 72.3625 178.448 72.3669 178.416 72.361L174.344 71.473C174.203 71.4418 174.056 71.4668 173.932 71.5428C173.808 71.6188 173.718 71.7399 173.68 71.881C173.482 72.585 173.109 72.7877 172.56 72.4891C172.334 72.3662 172.067 72.3374 171.816 72.4091C169.192 73.1291 164.184 72.593 163 74.425C161.824 76.233 163.336 77.8571 165.08 78.5531C168.48 79.9131 173.24 81.361 175.888 83.913C176.096 84.1104 176.112 84.3237 175.936 84.5531C175.632 84.9531 175.202 85.1584 174.648 85.169C174.386 85.1744 174.157 85.2597 173.96 85.425C173.213 86.0597 172.618 86.9157 172.176 87.9931C171.562 89.4971 170.469 90.689 168.896 91.569C168.655 91.7001 168.453 91.8934 168.312 92.1291L168.192 92.3371C168.037 92.5984 167.808 92.7264 167.504 92.721C163.912 92.681 160.76 92.4251 157.112 93.2891C151.872 94.5211 148.144 93.4411 142.04 91.4891C139.544 90.6944 138.114 91.0251 137.752 92.481C133.021 90.3424 128.49 87.8677 124.16 85.0571C124.794 84.6571 124.845 84.1051 124.312 83.4011C124.152 83.1931 123.941 83.065 123.68 83.017C122.586 82.8144 121.885 82.1904 121.576 81.1451C121.533 81.0049 121.46 80.8762 121.362 80.7682C121.264 80.6602 121.143 80.5758 121.008 80.521C117.52 79.0597 114.482 76.945 111.896 74.177C111.704 73.9744 111.472 73.8757 111.2 73.881C97.9198 74.121 87.5118 75.3931 76.5438 82.481C68.9838 87.361 64.1598 92.3051 61.7918 100.785C61.7494 100.938 61.6736 101.08 61.5699 101.201C61.4662 101.322 61.3372 101.418 61.1919 101.483C61.0467 101.548 60.8889 101.58 60.7299 101.577C60.5708 101.574 60.4144 101.536 60.2718 101.465C57.1598 99.921 54.6638 108.473 51.6398 109.329C51.5144 109.364 51.4059 109.444 51.3339 109.552C51.262 109.661 51.2314 109.792 51.2478 109.921C51.2905 110.236 51.2291 110.486 51.0638 110.673C51.0315 110.709 50.9894 110.735 50.9426 110.747C50.8958 110.76 50.8464 110.758 50.8005 110.743C50.7545 110.728 50.7141 110.699 50.6841 110.661C50.6541 110.623 50.636 110.577 50.6318 110.529C49.2665 98.1824 51.0478 86.0704 55.9758 74.1931C56.1411 73.7931 55.9518 73.5877 55.4078 73.577C58.7571 65.801 63.2878 58.753 68.9998 52.433C87.0958 33.017 112.68 25.1931 138.768 28.8891C155.472 31.2571 171.92 39.3851 182.76 52.5371ZM107.992 36.017C85.9118 41.609 69.4318 57.0731 59.9198 77.3931C59.8825 77.4731 59.9091 77.5584 59.9998 77.6491C60.0236 77.6721 60.0523 77.6895 60.0836 77.7001C60.115 77.7107 60.1484 77.7142 60.1813 77.7104C60.2142 77.7066 60.2458 77.6955 60.2739 77.678C60.302 77.6604 60.3259 77.6369 60.3438 77.6091C74.9198 54.4811 99.5198 37.5931 126.432 33.185C126.483 33.1829 126.531 33.1606 126.565 33.1231C126.6 33.0856 126.618 33.036 126.616 32.985C126.614 32.9341 126.591 32.8862 126.554 32.8517C126.516 32.8171 126.467 32.7989 126.416 32.8011C120.896 32.5451 113.376 34.657 107.992 36.017ZM67.1118 72.921C65.5651 74.6757 63.9198 76.3157 62.1758 77.8411C59.6078 80.0811 58.5758 83.8811 57.7598 87.0411C57.7324 87.1438 57.7438 87.2529 57.7918 87.3477C57.8399 87.4426 57.9212 87.5164 58.0202 87.555C58.1193 87.5936 58.229 87.5943 58.3286 87.5571C58.4281 87.5198 58.5105 87.4472 58.5598 87.3531C60.3998 84.0011 62.2958 82.1131 65.6478 78.4491C79.1145 63.7344 95.5065 53.6304 114.824 48.1371C115.288 48.0011 116.624 47.8571 116.944 47.2971C117.205 46.8544 117.082 46.681 116.576 46.777C109.04 48.217 101.216 49.777 94.4878 52.769C83.9705 57.4517 74.8451 64.169 67.1118 72.921ZM137.192 73.8891C145.544 82.2971 158.672 89.9531 170.872 89.5531C170.951 89.5509 171.029 89.5259 171.095 89.481C171.16 89.4361 171.212 89.3733 171.243 89.3C171.274 89.2267 171.284 89.146 171.27 89.0675C171.257 88.989 171.221 88.916 171.168 88.8571C171.072 88.7531 170.792 88.5291 170.624 88.4891C158.936 85.5611 147.144 80.833 137.384 73.665C137.355 73.6411 137.319 73.6294 137.282 73.6325C137.246 73.6356 137.212 73.6531 137.188 73.6816C137.163 73.71 137.15 73.7473 137.151 73.7858C137.152 73.8243 137.166 73.8612 137.192 73.8891Z" fill="#35293C"/>
<path d="M59.9197 77.3929C69.4317 57.0729 85.9117 41.6089 107.992 36.0169C113.376 34.6569 120.896 32.5449 126.416 32.8009C126.467 32.7988 126.516 32.817 126.554 32.8515C126.591 32.886 126.614 32.934 126.616 32.9849C126.618 33.0358 126.6 33.0855 126.565 33.123C126.531 33.1605 126.483 33.1828 126.432 33.1849C99.5197 37.5929 74.9197 54.4809 60.3437 77.6089C60.3257 77.6368 60.3019 77.6603 60.2738 77.6778C60.2457 77.6954 60.214 77.7064 60.1811 77.7103C60.1482 77.7141 60.1149 77.7106 60.0835 77.7C60.0521 77.6894 60.0235 77.6719 59.9997 77.6489C59.909 77.5583 59.8823 77.4729 59.9197 77.3929Z" fill="#583C49"/>
<path d="M67.1117 72.9212C74.8451 64.1692 83.9704 57.4519 94.4877 52.7692C101.216 49.7772 109.04 48.2172 116.576 46.7772C117.082 46.6812 117.205 46.8546 116.944 47.2973C116.624 47.8573 115.288 48.0013 114.824 48.1373C95.5064 53.6306 79.1144 63.7346 65.6477 78.4493C62.2957 82.1133 60.3997 84.0013 58.5597 87.3533C58.5104 87.4474 58.4281 87.52 58.3285 87.5573C58.229 87.5945 58.1192 87.5938 58.0202 87.5552C57.9211 87.5166 57.8398 87.4428 57.7918 87.348C57.7437 87.2531 57.7323 87.144 57.7597 87.0413C58.5757 83.8813 59.6077 80.0813 62.1757 77.8413C63.9197 76.3159 65.5651 74.6759 67.1117 72.9212Z" fill="#583C49"/>
<path d="M175.167 54.8405C181.935 63.4325 186.877 73.0458 189.991 83.6805C190.029 83.8085 190.106 83.8378 190.223 83.7685L190.415 83.6565C190.634 83.5285 190.714 83.3392 190.655 83.0885L188.375 73.1765L188.887 72.8565C189.229 72.6485 189.45 72.7365 189.551 73.1205L189.887 74.4405C189.906 74.5088 189.942 74.5715 189.99 74.6232C190.038 74.6749 190.099 74.7139 190.165 74.7368C190.231 74.7598 190.302 74.7659 190.371 74.7547C190.44 74.7434 190.504 74.7152 190.559 74.6725C190.933 74.3792 191.359 74.3445 191.839 74.5685C192.117 74.7018 192.351 74.6485 192.543 74.4085C193.098 73.7259 193.165 72.9232 192.743 72.0005C189.927 65.8005 187.647 59.6965 182.663 54.4725C182.135 53.9285 181.911 52.8645 182.759 52.5365L186.303 57.0245C200.831 76.8485 203.455 102.632 196.671 125.72C188.922 120.782 183.226 122.342 179.583 130.401C179.503 130.577 179.455 130.568 179.439 130.376C179.29 128.36 179.293 126.344 179.447 124.328C179.981 117.592 179.666 110.907 178.503 104.272C178.475 104.114 178.398 103.968 178.283 103.856C178.168 103.744 178.021 103.671 177.863 103.649C163.991 101.766 150.621 98.0432 137.751 92.4805C138.114 91.0245 139.543 90.6938 142.039 91.4885C148.143 93.4405 151.871 94.5205 157.111 93.2885C160.759 92.4245 163.911 92.6805 167.503 92.7205C167.807 92.7258 168.037 92.5978 168.191 92.3365L168.311 92.1285C168.453 91.8929 168.655 91.6995 168.895 91.5685C170.469 90.6885 171.562 89.4965 172.175 87.9925C172.618 86.9152 173.213 86.0592 173.959 85.4245C174.157 85.2592 174.386 85.1738 174.647 85.1685C175.202 85.1578 175.631 84.9525 175.935 84.5525C176.111 84.3232 176.095 84.1098 175.887 83.9125C173.239 81.3605 168.479 79.9125 165.079 78.5525C163.335 77.8565 161.823 76.2325 162.999 74.4245C164.183 72.5925 169.191 73.1285 171.815 72.4085C172.067 72.3369 172.334 72.3656 172.559 72.4885C173.109 72.7872 173.482 72.5845 173.679 71.8805C173.718 71.7394 173.808 71.6182 173.932 71.5422C174.055 71.4662 174.203 71.4412 174.343 71.4725L178.415 72.3605C178.447 72.3663 178.48 72.3619 178.509 72.3479C178.538 72.3338 178.562 72.3109 178.577 72.2824C178.592 72.2538 178.598 72.2212 178.593 72.1892C178.589 72.1572 178.574 72.1276 178.551 72.1045C178.37 71.9392 178.303 71.7685 178.351 71.5925C178.399 71.3952 178.482 71.3792 178.599 71.5445C178.903 71.9765 179.191 73.4805 179.695 73.3525C179.861 73.3045 179.981 73.3605 180.055 73.5205L183.311 80.4885C183.45 80.7818 183.634 80.8165 183.863 80.5925C184.799 79.6965 176.391 62.6325 175.935 61.8245C174.682 59.6112 172.661 56.8298 169.871 53.4805C169.679 53.2512 169.621 52.9925 169.695 52.7045C169.877 52.0325 170.309 51.6672 170.991 51.6085C171.221 51.5925 171.421 51.6592 171.591 51.8085L175.167 54.8405Z" fill="#1E182E"/>
<path d="M68.9998 52.4328C63.2878 58.7528 58.7571 65.8008 55.4078 73.5768C48.2985 90.1901 47.0691 107.582 51.7198 125.753C48.8291 130.254 48.0211 134.758 49.2958 139.265C49.5838 140.265 51.5678 141.737 50.4238 142.233C49.6771 141.385 49.1118 140.918 48.7278 140.833C42.5411 139.521 37.2318 136.963 32.7998 133.161C33.3491 123.523 34.2051 115.331 35.3678 108.585C39.1651 86.4995 49.5838 67.9848 66.6238 53.0408C67.4025 52.3528 68.1945 52.1501 68.9998 52.4328Z" fill="#EBECE6"/>
<path d="M188.376 73.1773L190.656 83.0893C190.715 83.34 190.635 83.5293 190.416 83.6573L190.224 83.7693C190.107 83.8386 190.029 83.8093 189.992 83.6813C186.877 73.0466 181.936 63.4333 175.168 54.8413C174.469 54.1106 174.152 53.524 174.216 53.0813C174.275 52.6973 174.44 52.6439 174.712 52.9213C180.573 58.8679 185.128 65.6199 188.376 73.1773Z" fill="#443040"/>
<path d="M204.569 75.5927L204.177 75.7687C203.969 75.8593 203.921 76.0034 204.033 76.2007C213.625 92.7287 217.081 115.193 216.353 133.785C216.305 134.947 216.614 135.699 217.281 136.041C217.405 136.103 217.548 136.121 217.685 136.09C217.822 136.06 217.944 135.983 218.033 135.873C219.019 134.603 219.977 134.233 220.905 134.761C219.907 135.518 218.907 136.166 217.905 136.705C211.27 140.267 204.233 142.87 196.793 144.513C200.473 138.025 201.769 132.257 196.673 125.721C203.457 102.633 200.833 76.8487 186.305 57.0247C186.321 56.9233 186.342 56.8274 186.369 56.7367C186.411 56.5554 186.489 56.5394 186.601 56.6887C186.835 57.014 187.142 57.0913 187.521 56.9207C187.787 56.798 188.033 56.8353 188.257 57.0327C194.454 62.526 199.891 68.7127 204.569 75.5927Z" fill="#EBECE6"/>
<path d="M55.4077 73.5765C55.9517 73.5872 56.141 73.7926 55.9757 74.1926C51.0477 86.0699 49.2664 98.1819 50.6317 110.529C50.6359 110.577 50.654 110.623 50.684 110.661C50.714 110.699 50.7544 110.727 50.8004 110.743C50.8463 110.758 50.8957 110.759 50.9425 110.747C50.9893 110.735 51.0314 110.709 51.0637 110.673C51.229 110.486 51.2904 110.235 51.2477 109.921C51.2313 109.791 51.2619 109.66 51.3338 109.552C51.4057 109.443 51.5143 109.364 51.6397 109.329C54.6637 108.473 57.1597 99.9205 60.2717 101.465C60.4143 101.535 60.5707 101.573 60.7298 101.576C60.8888 101.58 61.0466 101.547 61.1918 101.482C61.337 101.417 61.4661 101.321 61.5698 101.201C61.6735 101.08 61.7493 100.938 61.7917 100.785C64.1597 92.3045 68.9837 87.3605 76.5437 82.4805C87.5117 75.3925 97.9197 74.1205 111.2 73.8805C111.472 73.8752 111.704 73.9739 111.896 74.1765C114.482 76.9445 117.52 79.0592 121.008 80.5205C121.143 80.5753 121.264 80.6597 121.362 80.7677C121.46 80.8757 121.533 81.0044 121.576 81.1446C121.885 82.1899 122.586 82.8139 123.68 83.0165C123.941 83.0645 124.152 83.1926 124.312 83.4006C124.845 84.1046 124.794 84.6566 124.16 85.0566C120.874 82.7686 117.682 80.3499 114.584 77.8006C112.216 75.8486 112.152 74.5765 108.328 75.4885C93.9917 78.9205 79.2797 85.3765 70.6717 97.8325C65.6237 106.265 67.4157 120.969 68.3677 130.353C68.4477 131.147 68.3864 131.158 68.1837 130.385C67.501 127.793 66.5784 125.977 65.4157 124.937C60.9357 120.926 56.3704 121.198 51.7197 125.753C47.069 107.582 48.2984 90.1899 55.4077 73.5765Z" fill="#1E182E"/>
<path d="M170.872 89.5531C158.672 89.9531 145.544 82.2971 137.192 73.8891C137.167 73.8613 137.152 73.8244 137.151 73.7858C137.151 73.7473 137.164 73.7101 137.188 73.6816C137.213 73.6532 137.246 73.6356 137.283 73.6326C137.319 73.6295 137.355 73.6411 137.384 73.6651C147.144 80.8331 158.936 85.5611 170.624 88.4891C170.792 88.5291 171.072 88.7531 171.168 88.8571C171.222 88.916 171.257 88.989 171.271 89.0675C171.284 89.146 171.275 89.2268 171.243 89.3001C171.212 89.3734 171.161 89.4362 171.095 89.481C171.029 89.5259 170.952 89.5509 170.872 89.5531Z" fill="#443040"/>
<path d="M124.159 85.0573C128.49 87.868 133.021 90.3426 137.751 92.4813C150.621 98.0439 163.991 101.767 177.863 103.649C178.021 103.672 178.168 103.745 178.283 103.857C178.398 103.969 178.475 104.115 178.503 104.273C179.666 110.908 179.981 117.593 179.447 124.329C179.293 126.345 179.29 128.361 179.439 130.377C179.455 130.569 179.503 130.577 179.583 130.401C183.226 122.343 188.922 120.783 196.671 125.721C201.767 132.257 200.471 138.025 196.791 144.513C196.013 144.833 195.221 145.297 194.415 145.905C189.439 149.665 184.567 150.433 179.223 146.601C178.973 146.42 178.807 146.481 178.727 146.785L177.951 149.857C177.077 149.292 176.525 149.58 176.295 150.721C175.655 153.905 173.935 155.113 171.135 154.345C170.858 154.271 170.602 154.316 170.367 154.481C162.618 160.071 154.717 160.34 146.663 155.289C143.543 153.329 146.351 150.521 148.127 148.537C148.293 148.345 148.498 148.215 148.743 148.145L152.407 147.065C155.906 146.495 159.285 145.18 162.543 143.121C162.442 143.169 162.554 143.207 162.879 143.233C162.247 144.137 164.575 145.313 165.327 146.097C166.999 147.817 168.911 148.785 170.495 150.401C170.567 150.473 170.657 150.525 170.755 150.551C170.853 150.577 170.956 150.576 171.053 150.549C171.151 150.522 171.239 150.47 171.308 150.397C171.377 150.325 171.425 150.235 171.447 150.137C172.743 144.473 173.205 138.873 172.831 133.337C172.367 126.513 172.399 120.161 170.567 113.481C169.703 110.377 168.383 108.913 165.623 107.545C160.781 105.161 156.493 103.319 152.759 102.017C142.237 98.3426 132.301 93.2999 122.951 86.8893L114.647 79.9133C114.384 79.6946 114.072 79.5443 113.738 79.4759C113.404 79.4075 113.06 79.4231 112.735 79.5213C99.9888 83.4039 88.4235 89.6599 78.0395 98.2893C75.7035 99.6653 73.3995 100.617 71.1275 101.145C70.9827 101.178 70.8315 101.166 70.6933 101.112C70.5551 101.058 70.4362 100.964 70.3519 100.842C70.2676 100.72 70.2218 100.575 70.2203 100.427C70.2188 100.279 70.2617 100.133 70.3435 100.009C71.0955 98.9053 71.2048 98.1799 70.6715 97.8333C79.2795 85.3773 93.9915 78.9213 108.327 75.4893C112.151 74.5773 112.215 75.8493 114.583 77.8013C117.682 80.3506 120.874 82.7693 124.159 85.0573ZM185.567 131.945L184.367 132.569C179.957 134.948 179.434 137.799 182.799 141.121C187.159 143.081 192.631 142.897 192.783 136.649C192.986 137.204 193.298 137.452 193.719 137.393C193.997 137.356 194.135 137.199 194.135 136.921C194.143 131.233 188.975 127.489 183.679 130.793C183.455 130.932 183.455 131.071 183.679 131.209C184.261 131.588 184.89 131.833 185.567 131.945Z" fill="#FCA582"/>
<path d="M122.953 86.8889C120.873 94.4249 121.825 101.129 121.593 108.225C121.345 115.905 121.137 123.561 121.777 131.233C121.963 133.489 121.963 135.748 121.777 138.009C121.756 138.266 121.797 138.524 121.897 138.761L122.905 141.233C122.222 140.726 121.569 140.619 120.945 140.913C120.813 140.973 120.697 141.062 120.607 141.173C120.517 141.284 120.454 141.414 120.425 141.553C119.961 143.67 120.041 145.756 120.665 147.809C120.701 147.926 120.771 148.031 120.866 148.109C120.961 148.188 121.076 148.237 121.199 148.25C121.321 148.264 121.445 148.242 121.555 148.186C121.664 148.13 121.755 148.044 121.817 147.937C122.051 147.526 122.411 147.292 122.897 147.233C123.023 147.217 123.139 147.154 123.22 147.058C123.302 146.961 123.344 146.838 123.337 146.713C123.262 145.278 123.481 143.964 123.993 142.769C124.425 142.982 124.67 143.145 124.729 143.257C124.793 146.697 123.574 148.833 121.073 149.665C120.92 149.713 120.79 149.816 120.708 149.953C120.626 150.091 120.597 150.254 120.626 150.411C120.656 150.569 120.742 150.71 120.868 150.808C120.995 150.906 121.153 150.955 121.313 150.945L124.465 150.761C125.617 152.787 125.921 154.91 125.377 157.129C119.862 157.46 114.31 156.766 108.721 155.049C108.534 154.398 107.798 154.134 106.513 154.257C106.241 154.284 106.089 154.433 106.057 154.705C105.257 161.729 111.465 166.913 117.729 168.977L112.697 169.745C112.419 169.788 112.31 169.948 112.369 170.225C112.513 170.876 112.841 171.257 113.353 171.369C113.859 171.481 113.899 171.684 113.473 171.977C111.297 173.46 110.185 175.561 110.137 178.281C110.131 178.548 110.235 178.758 110.449 178.913L113.969 181.401C99.6167 178.961 85.6487 172.057 76.8967 160.281C78.7527 159.646 80.0141 158.428 80.6807 156.625C80.7821 156.348 80.9687 156.27 81.2407 156.393C88.7527 159.769 97.1607 157.537 103.577 152.833C103.801 152.673 103.929 152.454 103.961 152.177C104.321 148.745 97.7127 148.577 95.7447 146.641C97.3527 146.465 98.8807 146.857 100.297 146.553C106.697 145.177 106.969 140.417 106.417 134.913C106.395 134.683 106.281 134.521 106.073 134.425C105.833 134.313 105.571 134.3 105.289 134.385C102.825 119.537 87.3527 124.009 82.2007 133.849C81.5927 135.009 80.8567 135.225 79.6727 134.817C79.4594 134.742 79.2727 134.785 79.1127 134.945L78.8407 135.217C78.8083 135.25 78.7844 135.291 78.771 135.335C78.7576 135.379 78.7551 135.426 78.7638 135.472C78.7724 135.517 78.7919 135.56 78.8206 135.597C78.8493 135.633 78.8864 135.662 78.9287 135.681C82.7047 137.321 82.6967 140.761 84.1847 144.033C83.8407 147.665 80.3767 148.217 77.1047 148.385C76.7794 148.401 76.5687 148.254 76.4727 147.945C75.5234 144.884 75.6487 141.87 76.8487 138.905C76.9447 138.665 77.102 138.476 77.3207 138.337L77.7287 138.073C77.7786 138.04 77.821 137.998 77.8533 137.947C77.8856 137.897 77.907 137.841 77.916 137.782C77.9251 137.723 77.9216 137.663 77.9059 137.606C77.8902 137.548 77.8625 137.495 77.8247 137.449C76.5874 135.886 76.6994 134.518 78.1607 133.345C78.3954 133.158 78.5154 132.915 78.5207 132.617L78.9207 113.985C78.926 113.777 78.8274 113.66 78.6247 113.633C76.5767 113.353 78.9927 103.153 79.3367 101.705C79.3989 101.441 79.3708 101.165 79.2567 100.921L78.0407 98.2889C88.4247 89.6595 99.99 83.4035 112.737 79.5208C113.061 79.4226 113.406 79.4071 113.739 79.4755C114.073 79.5439 114.385 79.6941 114.649 79.9128L122.953 86.8889ZM85.3447 115.169C90.8647 110.377 97.3607 109.569 103.993 113.161C104.243 113.294 104.505 113.329 104.777 113.265C106.233 112.939 107.049 112.124 107.225 110.817C107.665 107.425 102.289 105.097 99.7607 104.969C92.4434 104.601 87.4007 107.83 84.6327 114.657C84.5911 114.751 84.583 114.856 84.61 114.956C84.6369 115.055 84.6972 115.142 84.7808 115.202C84.8643 115.262 84.9659 115.292 85.0686 115.286C85.1713 115.279 85.2688 115.238 85.3447 115.169Z" fill="#FED3B3"/>
<path d="M122.952 86.889C132.301 93.2997 142.237 98.3424 152.76 102.017L153.44 103.777C153.536 104.033 153.72 104.19 153.992 104.249C157.293 104.964 159.363 106.494 160.2 108.841C155.24 105.145 145.168 102.241 141.744 109.137C140.192 112.281 143.52 113.425 146.064 112.377C150.699 110.468 155.288 110.716 159.832 113.121L159.416 113.657C159.245 113.876 159.035 113.924 158.784 113.801C154.693 111.78 150.517 111.66 146.256 113.441C146.16 113.484 146.165 113.513 146.272 113.529C146.363 113.545 146.435 113.588 146.488 113.657C146.545 113.724 146.577 113.809 146.577 113.897C146.577 113.985 146.545 114.07 146.488 114.137C146.067 114.633 145.907 115.105 146.008 115.553C146.845 119.308 149.656 122.484 154.44 125.081C141.712 123.673 137.496 138.169 146.8 144.585L146.552 145.009C146.413 145.249 146.464 145.438 146.704 145.577C148.427 146.569 150.328 147.065 152.408 147.065L148.744 148.145C148.499 148.214 148.293 148.345 148.128 148.537C146.352 150.521 143.544 153.329 146.664 155.289C154.717 160.34 162.619 160.07 170.368 154.481C170.603 154.316 170.859 154.27 171.136 154.345C173.936 155.113 175.656 153.905 176.296 150.721C176.525 149.58 177.077 149.292 177.952 149.857C170.112 168.921 152.144 179.945 132 181.633C126.485 182.305 121.011 182.5 115.576 182.217C115.587 181.998 115.256 181.918 114.584 181.977L113.968 181.401L110.448 178.913C110.235 178.758 110.131 178.548 110.136 178.281C110.184 175.561 111.296 173.46 113.472 171.977C113.899 171.684 113.859 171.481 113.352 171.369C112.84 171.257 112.512 170.876 112.368 170.225C112.309 169.948 112.419 169.788 112.696 169.745L117.728 168.977C121.248 169.436 124.264 169.572 126.776 169.385C135.144 168.761 140.376 164.382 142.472 156.249C142.701 155.353 142.376 154.764 141.496 154.481C141.037 154.332 140.56 154.492 140.064 154.961C135.243 156.625 130.347 157.348 125.376 157.129C125.92 154.91 125.616 152.788 124.464 150.761C126.933 149.945 128.112 148.345 128 145.961C127.989 145.689 127.893 145.454 127.712 145.257C126.944 144.393 125.949 143.726 124.728 143.257C124.669 143.145 124.424 142.982 123.992 142.769C123.928 142.22 123.565 141.708 122.904 141.233L121.896 138.761C121.796 138.525 121.755 138.267 121.776 138.009C121.963 135.748 121.963 133.489 121.776 131.233C121.136 123.561 121.344 115.905 121.592 108.225C121.824 101.129 120.872 94.425 122.952 86.889Z" fill="#FECEAF"/>
<path d="M70.672 97.8328C71.2054 98.1794 71.096 98.9048 70.344 100.009C70.2622 100.133 70.2193 100.278 70.2208 100.426C70.2223 100.575 70.2682 100.719 70.3525 100.842C70.4367 100.964 70.5556 101.058 70.6938 101.112C70.832 101.166 70.9833 101.177 71.128 101.145C73.4 100.617 75.704 99.6648 78.04 98.2888L79.256 100.921C79.3701 101.164 79.3983 101.441 79.336 101.705C78.992 103.153 76.576 113.353 78.624 113.633C78.8267 113.659 78.9254 113.777 78.92 113.985L78.52 132.617C78.5147 132.915 78.3947 133.158 78.16 133.345C76.6987 134.518 76.5867 135.886 77.824 137.449C77.8618 137.495 77.8895 137.548 77.9052 137.606C77.9209 137.663 77.9244 137.723 77.9153 137.782C77.9063 137.841 77.8849 137.897 77.8526 137.947C77.8204 137.997 77.7779 138.04 77.728 138.073L77.32 138.337C77.1014 138.475 76.944 138.665 76.848 138.905C75.648 141.87 75.5227 144.883 76.472 147.945C76.568 148.254 76.7787 148.401 77.104 148.385C80.376 148.217 83.84 147.665 84.184 144.033C84.68 143.494 84.984 142.585 85.096 141.305L85.216 142.761C85.2427 143.065 85.4 143.262 85.688 143.353L95.744 146.641C97.7121 148.577 104.32 148.745 103.96 152.177C103.928 152.454 103.8 152.673 103.576 152.833C97.16 157.537 88.752 159.769 81.24 156.393C80.968 156.27 80.7814 156.347 80.68 156.625C80.0134 158.427 78.752 159.646 76.896 160.281C73.824 156.222 71.3387 151.857 69.44 147.185C69.2267 146.657 68.8667 146.521 68.36 146.777C61.464 150.217 55.056 147.945 50.424 142.233C51.568 141.737 49.584 140.265 49.296 139.265C48.0214 134.758 48.8294 130.254 51.72 125.753C56.3707 121.198 60.936 120.926 65.416 124.937C66.5787 125.977 67.5014 127.793 68.184 130.385C68.3867 131.158 68.448 131.147 68.368 130.353C67.416 120.969 65.624 106.265 70.672 97.8328ZM57.592 139.329C59.384 141.259 61.656 141.889 64.408 141.217C65.552 140.937 66.632 140.065 67.944 139.681C68.1787 139.611 68.28 139.454 68.248 139.209C68.2214 139.022 68.1254 138.87 67.96 138.753C68.1254 135.782 67.1147 133.502 64.928 131.913C64.72 131.763 64.488 131.689 64.232 131.689C61.0587 131.71 59.0454 131.945 58.192 132.393C55.128 134.009 54.488 137.257 57.592 139.329ZM79.84 153.873C81.624 151.161 79.312 150.241 77.336 149.385C77.2378 149.341 77.1279 149.329 77.0228 149.353C76.9177 149.377 76.8233 149.434 76.7537 149.517C76.6841 149.599 76.6432 149.702 76.6371 149.809C76.631 149.917 76.6601 150.023 76.72 150.113L79.184 153.873C79.2197 153.927 79.2683 153.972 79.3256 154.003C79.3829 154.034 79.4469 154.05 79.512 154.05C79.5771 154.05 79.6412 154.034 79.6985 154.003C79.7557 153.972 79.8044 153.927 79.84 153.873Z" fill="#FDBF9E"/>
<path d="M152.759 102.017C156.493 103.319 160.781 105.161 165.624 107.545C168.384 108.913 169.703 110.377 170.567 113.481C172.399 120.161 172.368 126.513 172.832 133.337C173.205 138.873 172.743 144.473 171.448 150.137C171.425 150.235 171.377 150.325 171.308 150.397C171.239 150.47 171.151 150.522 171.053 150.549C170.956 150.576 170.853 150.577 170.755 150.551C170.657 150.525 170.567 150.473 170.495 150.401C168.911 148.785 167 147.817 165.328 146.097C164.576 145.313 162.248 144.137 162.88 143.233C164.81 140.273 165.498 137.74 164.943 135.633L165.471 133.281C162.298 129.201 158.621 126.468 154.44 125.081C149.656 122.484 146.845 119.308 146.007 115.553C145.906 115.105 146.066 114.633 146.488 114.137C146.545 114.07 146.577 113.985 146.577 113.897C146.577 113.809 146.545 113.724 146.488 113.657C146.434 113.588 146.362 113.545 146.271 113.529C146.165 113.513 146.16 113.484 146.256 113.441C150.517 111.66 154.693 111.78 158.783 113.801C159.034 113.924 159.245 113.876 159.416 113.657L159.832 113.121C161.736 114.481 163.37 116.14 164.736 118.097C164.765 118.134 164.805 118.161 164.851 118.173C164.896 118.184 164.945 118.181 164.988 118.163C165.032 118.145 165.068 118.113 165.092 118.072C165.115 118.031 165.125 117.984 165.119 117.937C164.442 114.38 162.802 111.348 160.2 108.841C159.362 106.495 157.293 104.964 153.992 104.249C153.72 104.191 153.536 104.033 153.44 103.777L152.759 102.017ZM166.4 136.217L168.232 135.249C168.298 135.214 168.352 135.159 168.388 135.093C168.424 135.027 168.439 134.951 168.432 134.876C168.426 134.801 168.397 134.73 168.35 134.671C168.303 134.612 168.239 134.568 168.167 134.545L166.336 133.937C166.042 133.841 165.866 133.945 165.808 134.249L165.56 135.593C165.54 135.701 165.55 135.813 165.591 135.916C165.631 136.018 165.699 136.107 165.787 136.173C165.874 136.238 165.979 136.277 166.087 136.285C166.195 136.292 166.304 136.269 166.4 136.217Z" fill="#FDBF9E"/>
<path d="M103.992 113.161C97.3601 109.569 90.8641 110.377 85.3441 115.169C85.2682 115.238 85.1708 115.28 85.0681 115.286C84.9654 115.292 84.8637 115.262 84.7802 115.202C84.6967 115.142 84.6364 115.055 84.6094 114.956C84.5824 114.856 84.5905 114.751 84.6321 114.657C87.4001 107.83 92.4428 104.601 99.7601 104.969C102.288 105.097 107.664 107.425 107.224 110.817C107.048 112.124 106.232 112.94 104.776 113.265C104.504 113.329 104.243 113.294 103.992 113.161Z" fill="#1E182E"/>
<path d="M160.2 108.841C162.802 111.348 164.442 114.38 165.12 117.937C165.125 117.984 165.116 118.031 165.092 118.072C165.068 118.113 165.032 118.144 164.988 118.163C164.945 118.181 164.896 118.184 164.851 118.172C164.805 118.16 164.765 118.134 164.736 118.097C163.37 116.14 161.736 114.481 159.832 113.121C155.288 110.716 150.698 110.468 146.064 112.377C143.52 113.425 140.192 112.281 141.744 109.137C145.168 102.241 155.24 105.145 160.2 108.841Z" fill="#1E182E"/>
<path d="M105.288 134.385C105.504 141.457 100.392 147.689 93.2398 144.417C88.4078 142.209 88.4478 134.305 92.6958 131.529C92.7818 131.473 92.8816 131.441 92.9845 131.437C93.0874 131.432 93.1895 131.456 93.2798 131.505C93.3702 131.555 93.4455 131.628 93.4976 131.716C93.5498 131.805 93.5768 131.907 93.5758 132.01V132.913C93.5744 132.976 93.592 133.038 93.6262 133.09C93.6603 133.143 93.7096 133.184 93.7674 133.208C93.8253 133.232 93.8891 133.239 93.9506 133.226C94.012 133.213 94.0682 133.183 94.1118 133.137L94.8798 132.361C95.0707 132.168 95.1974 131.92 95.2422 131.652C95.2871 131.384 95.2479 131.109 95.1302 130.864C95.0125 130.62 94.822 130.419 94.5851 130.289C94.3482 130.159 94.0766 130.106 93.8078 130.137C87.0638 130.921 86.0478 135.594 85.0958 141.306C84.9838 142.586 84.6798 143.495 84.1838 144.033C82.6958 140.761 82.7038 137.321 78.9278 135.681C78.8855 135.662 78.8484 135.634 78.8197 135.597C78.791 135.561 78.7715 135.518 78.7629 135.472C78.7542 135.427 78.7567 135.38 78.7701 135.336C78.7835 135.291 78.8074 135.251 78.8398 135.217L79.1118 134.945C79.2718 134.785 79.4585 134.743 79.6718 134.817C80.8558 135.225 81.5918 135.009 82.1998 133.849C87.3518 124.009 102.824 119.537 105.288 134.385Z" fill="#61272F"/>
<path d="M154.44 125.081C158.622 126.467 162.299 129.201 165.472 133.281C164.08 132.694 162.934 131.814 162.032 130.641C161.992 130.591 161.934 130.556 161.87 130.544C161.806 130.531 161.74 130.541 161.684 130.572C161.628 130.603 161.585 130.653 161.564 130.713C161.543 130.772 161.544 130.838 161.568 130.897C162.352 132.955 163.478 134.534 164.944 135.633C165.499 137.739 164.811 140.273 162.88 143.233C162.555 143.206 162.443 143.169 162.544 143.121C164.528 136.185 161.176 129.217 153.352 128.569C151.128 127.369 147.76 129.665 146.16 131.057C146.123 131.093 146.098 131.139 146.088 131.189C146.077 131.24 146.082 131.292 146.102 131.34C146.122 131.387 146.156 131.428 146.199 131.456C146.242 131.484 146.293 131.498 146.344 131.497L150.408 131.289C150.659 131.278 150.875 131.187 151.056 131.017L153.104 129.105C157.976 129.673 159.336 135.697 158.456 139.625C157.28 144.905 151.368 146.865 146.8 144.585C137.496 138.169 141.712 123.673 154.44 125.081ZM153.968 130.889C153.811 130.811 153.635 130.779 153.46 130.797C153.286 130.815 153.12 130.882 152.983 130.991C152.846 131.099 152.743 131.245 152.686 131.409C152.63 131.574 152.622 131.752 152.664 131.921C152.808 132.502 152.963 133.054 153.128 133.577C153.254 133.938 153.501 134.203 153.817 134.316C154.134 134.428 154.496 134.38 154.826 134.181C155.156 133.981 155.428 133.647 155.586 133.248C155.744 132.848 155.775 132.416 155.672 132.041C155.598 131.817 155.03 131.433 153.968 130.889ZM157.504 136.825C157.947 135.619 157.76 134.537 156.944 133.577C156.747 133.347 156.614 133.382 156.544 133.681C156.203 135.227 155.539 136.118 154.552 136.353C151.15 137.169 147.888 137.523 144.768 137.417C144.505 137.408 144.243 137.469 144.01 137.592C143.777 137.716 143.58 137.898 143.439 138.122C143.298 138.345 143.219 138.601 143.208 138.865C143.197 139.129 143.255 139.391 143.376 139.625C146.816 146.185 156.768 146.481 157.752 137.849C157.763 137.771 157.749 137.695 157.712 137.633L157.56 137.377C157.51 137.294 157.48 137.202 157.47 137.106C157.46 137.011 157.472 136.915 157.504 136.825Z" fill="#3A1F2C"/>
<path d="M153.351 128.569C153.282 128.563 153.21 128.571 153.135 128.593C153.05 128.619 153.004 128.681 152.999 128.777C152.994 128.883 153.028 128.993 153.103 129.105L151.055 131.017C150.874 131.187 150.658 131.278 150.407 131.289L146.343 131.497C146.292 131.498 146.241 131.484 146.198 131.455C146.155 131.427 146.121 131.387 146.101 131.339C146.081 131.292 146.076 131.24 146.086 131.189C146.097 131.139 146.122 131.092 146.159 131.057C147.759 129.665 151.127 127.369 153.351 128.569Z" fill="#61272F"/>
<path d="M153.351 128.569C161.175 129.217 164.527 136.185 162.543 143.121C159.285 145.179 155.906 146.494 152.407 147.065C150.327 147.065 148.426 146.569 146.703 145.577C146.463 145.438 146.413 145.249 146.551 145.009L146.799 144.585C151.367 146.865 157.279 144.905 158.455 139.625C159.335 135.697 157.975 129.673 153.103 129.105C153.029 128.993 152.994 128.883 152.999 128.777C153.005 128.681 153.05 128.619 153.135 128.593C153.21 128.571 153.282 128.563 153.351 128.569Z" fill="#F3EEE7"/>
<path d="M192.785 136.649C193.033 132.737 188.777 131.689 185.569 131.945C184.891 131.833 184.262 131.588 183.681 131.209C183.457 131.07 183.457 130.932 183.681 130.793C188.977 127.489 194.145 131.233 194.137 136.921C194.137 137.198 193.998 137.356 193.721 137.393C193.299 137.452 192.987 137.204 192.785 136.649Z" fill="#FED3B3"/>
<path d="M105.287 134.385C105.57 134.3 105.831 134.313 106.071 134.425C106.279 134.521 106.394 134.684 106.415 134.913C106.967 140.417 106.695 145.177 100.295 146.553C98.8792 146.857 97.3512 146.465 95.7432 146.641L85.6872 143.353C85.3992 143.263 85.2419 143.065 85.2152 142.761L85.0952 141.305C86.0472 135.593 87.0632 130.921 93.8072 130.137C94.076 130.105 94.3476 130.158 94.5845 130.289C94.8214 130.419 95.0119 130.62 95.1296 130.864C95.2473 131.108 95.2865 131.384 95.2416 131.652C95.1968 131.92 95.0701 132.168 94.8792 132.361L94.1112 133.137C94.0676 133.182 94.0114 133.213 93.95 133.226C93.8885 133.238 93.8247 133.232 93.7668 133.208C93.709 133.184 93.6597 133.143 93.6256 133.09C93.5914 133.038 93.5738 132.976 93.5752 132.913V132.009C93.5762 131.906 93.5492 131.805 93.497 131.716C93.4449 131.627 93.3696 131.554 93.2792 131.505C93.1889 131.456 93.0868 131.432 92.9839 131.436C92.881 131.441 92.7812 131.473 92.6952 131.529C88.4472 134.305 88.4072 142.209 93.2392 144.417C100.391 147.689 105.503 141.457 105.287 134.385Z" fill="#FEFDFE"/>
<path d="M165.471 133.281L164.943 135.633C163.477 134.535 162.351 132.956 161.567 130.897C161.544 130.838 161.542 130.773 161.563 130.713C161.585 130.654 161.627 130.604 161.683 130.573C161.739 130.542 161.806 130.532 161.869 130.544C161.933 130.557 161.991 130.591 162.031 130.641C162.933 131.815 164.079 132.695 165.471 133.281Z" fill="#583C49"/>
<path d="M153.968 130.889C155.03 131.433 155.598 131.817 155.672 132.041C155.775 132.416 155.744 132.849 155.586 133.248C155.428 133.647 155.156 133.982 154.826 134.181C154.496 134.38 154.134 134.429 153.818 134.316C153.501 134.203 153.254 133.938 153.128 133.577C152.963 133.054 152.808 132.502 152.664 131.921C152.622 131.752 152.63 131.574 152.686 131.41C152.743 131.245 152.846 131.1 152.983 130.991C153.12 130.883 153.286 130.815 153.46 130.797C153.635 130.779 153.811 130.811 153.968 130.889Z" fill="#FEFDFE"/>
<path d="M67.9604 138.753C67.299 139.27 66.739 139.358 66.2804 139.017C66.0777 138.873 65.8537 138.798 65.6084 138.793C65.2404 138.782 64.8857 138.78 64.5444 138.785C64.3844 138.79 64.315 138.713 64.3364 138.553L64.4004 138.073C64.427 137.886 64.523 137.748 64.6884 137.657C65.4484 137.249 65.6724 136.913 65.4004 136.041C63.6244 130.473 54.6884 132.585 57.5924 139.329C54.4884 137.257 55.1284 134.009 58.1924 132.393C59.0457 131.945 61.059 131.71 64.2324 131.689C64.4884 131.689 64.7204 131.764 64.9284 131.913C67.115 133.502 68.1257 135.782 67.9604 138.753Z" fill="#FE6E48"/>
<path d="M185.568 131.945C188.776 131.689 193.032 132.737 192.784 136.649C192.632 142.897 187.16 143.081 182.8 141.121C183.114 140.993 183.256 140.788 183.224 140.505C185.808 141.929 191.248 142.369 191.48 138.241C191.49 137.99 191.418 137.766 191.264 137.569C189.717 135.58 187.613 134.713 184.952 134.969C185.549 134.809 185.944 134.577 186.136 134.273C186.301 134.012 186.253 133.796 185.992 133.625L184.368 132.569L185.568 131.945Z" fill="#FE6E48"/>
<path d="M67.9594 138.753C68.1247 138.871 68.2207 139.023 68.2474 139.209C68.2794 139.455 68.178 139.612 67.9434 139.681C66.6314 140.065 65.5514 140.937 64.4074 141.217C61.6554 141.889 59.3834 141.26 57.5914 139.329C54.6874 132.585 63.6234 130.473 65.3994 136.041C65.6714 136.913 65.4474 137.249 64.6874 137.657C64.522 137.748 64.426 137.886 64.3994 138.073L64.3354 138.553C64.314 138.713 64.3834 138.79 64.5434 138.785C64.8847 138.78 65.2394 138.782 65.6074 138.793C65.8527 138.798 66.0767 138.873 66.2794 139.017C66.738 139.358 67.298 139.271 67.9594 138.753ZM64.0375 135.911C64.0187 135.696 63.9332 135.488 63.786 135.3C63.6388 135.112 63.4328 134.948 63.1797 134.816C62.9266 134.685 62.6313 134.589 62.3108 134.534C61.9904 134.479 61.6509 134.466 61.3118 134.495C60.9727 134.525 60.6406 134.597 60.3345 134.707C60.0285 134.817 59.7544 134.963 59.5279 135.136C59.3015 135.309 59.1271 135.507 59.0148 135.718C58.9025 135.928 58.8543 136.147 58.8732 136.363C58.8921 136.579 58.9775 136.786 59.1247 136.974C59.2719 137.162 59.4779 137.326 59.7311 137.458C59.9842 137.589 60.2794 137.685 60.5999 137.74C60.9204 137.795 61.2599 137.809 61.599 137.779C61.9381 137.749 62.2701 137.677 62.5762 137.567C62.8823 137.458 63.1564 137.312 63.3828 137.138C63.6093 136.965 63.7836 136.767 63.896 136.557C64.0083 136.346 64.0564 136.127 64.0375 135.911Z" fill="#FB9673"/>
<path d="M184.368 132.569L185.992 133.625C186.254 133.795 186.302 134.011 186.136 134.273C185.944 134.577 185.55 134.809 184.952 134.969C184.403 135.315 184.014 135.787 183.784 136.385C183.694 136.619 183.536 136.79 183.312 136.897C181.896 137.585 182.112 139.617 183.224 140.505C183.256 140.787 183.115 140.993 182.8 141.121C179.435 137.798 179.958 134.947 184.368 132.569Z" fill="#E46037"/>
<path d="M32.7998 133.161C37.2318 136.964 42.5411 139.521 48.7278 140.833C49.1118 140.918 49.6771 141.385 50.4238 142.233C55.0558 147.945 61.4638 150.217 68.3598 146.777C68.8665 146.521 69.2265 146.657 69.4398 147.185C71.3385 151.857 73.8238 156.222 76.8958 160.281C85.6478 172.057 99.6158 178.961 113.968 181.401L114.584 181.977L114.168 185.305C114.138 185.526 114.036 185.73 113.876 185.885C113.716 186.041 113.509 186.138 113.288 186.161L105.808 186.961C86.1518 187.825 66.1038 182.025 52.0318 167.937C51.9753 167.884 51.9375 167.813 51.9242 167.737C51.9108 167.66 51.9225 167.582 51.9576 167.512C51.9927 167.443 52.0493 167.387 52.1189 167.352C52.1885 167.318 52.2674 167.307 52.3438 167.321C53.8638 167.553 67.5518 168.689 67.7038 167.329C67.7251 167.11 67.6291 167.009 67.4158 167.025C66.0771 167.094 65.1171 167.041 64.5358 166.865C53.1758 163.425 44.1571 156.782 37.4798 146.937C34.5305 142.297 32.9705 137.705 32.7998 133.161Z" fill="#1E182E"/>
<path d="M157.56 137.378L157.712 137.634C157.748 137.696 157.763 137.772 157.752 137.85C156.768 146.482 146.816 146.186 143.376 139.626C143.255 139.391 143.196 139.129 143.207 138.866C143.218 138.602 143.298 138.346 143.439 138.122C143.58 137.899 143.777 137.717 144.01 137.593C144.243 137.469 144.504 137.409 144.768 137.418C147.888 137.524 151.15 137.17 154.552 136.354C155.539 136.119 156.203 135.228 156.544 133.682C156.614 133.383 156.747 133.348 156.944 133.578C157.76 134.538 157.947 135.62 157.504 136.826C157.472 136.915 157.46 137.012 157.47 137.107C157.479 137.203 157.51 137.295 157.56 137.378Z" fill="#792F2C"/>
<path d="M165.56 135.593L165.808 134.249C165.866 133.945 166.042 133.841 166.336 133.937L168.167 134.545C168.239 134.568 168.303 134.612 168.35 134.67C168.397 134.729 168.426 134.801 168.432 134.876C168.439 134.951 168.424 135.026 168.388 135.093C168.352 135.159 168.298 135.213 168.232 135.249L166.399 136.217C166.304 136.269 166.195 136.292 166.087 136.284C165.979 136.276 165.874 136.238 165.787 136.172C165.699 136.107 165.631 136.018 165.591 135.915C165.55 135.813 165.54 135.701 165.56 135.593Z" fill="#3A1F2C"/>
<path d="M168.2 215.361C165.768 207.638 162.146 201.193 157.336 196.025C152.493 190.819 146.528 188.03 139.44 187.657L132.784 187.049C132.506 187.023 132.249 186.895 132.069 186.695C131.889 186.494 131.801 186.236 131.824 185.977C131.84 185.843 132.074 185.795 132.528 185.833C155.392 189.041 180.464 184.889 197.568 169.249C198.592 168.315 198.41 167.883 197.024 167.953C193.461 168.129 189.904 167.99 186.352 167.537C186.302 167.529 186.257 167.505 186.223 167.467C186.19 167.43 186.17 167.382 186.169 167.331C186.167 167.281 186.182 167.232 186.213 167.192C186.243 167.152 186.287 167.124 186.336 167.113C202.712 163.225 218.264 151.177 222.376 134.121C222.696 134.078 222.992 134.155 223.264 134.353C223.504 134.523 223.576 134.75 223.48 135.033C221.885 139.726 219.253 144.587 215.584 149.617C213.909 151.91 212.434 155.003 211.16 158.897C203.309 182.891 188.989 201.713 168.2 215.361Z" fill="#EBECE6"/>
<path d="M222.377 134.121C218.265 151.177 202.713 163.225 186.337 167.113C186.288 167.124 186.244 167.152 186.214 167.192C186.183 167.232 186.167 167.282 186.169 167.332C186.171 167.382 186.19 167.43 186.224 167.467C186.257 167.505 186.303 167.53 186.353 167.537C189.905 167.99 193.462 168.129 197.025 167.953C198.411 167.884 198.592 168.316 197.569 169.249C180.465 184.889 155.393 189.041 132.529 185.833C132.006 184.777 131.83 183.377 132.001 181.633C152.145 179.945 170.113 168.921 177.953 149.857L178.729 146.785C178.809 146.481 178.974 146.42 179.225 146.601C184.569 150.433 189.441 149.665 194.417 145.905C195.222 145.297 196.014 144.833 196.793 144.513C204.232 142.87 211.27 140.268 217.905 136.705C218.907 136.166 219.907 135.518 220.905 134.761L222.377 134.121Z" fill="#1E182E"/>
<path d="M61.5989 137.779C63.025 137.654 64.1167 136.818 64.0374 135.911C63.9581 135.004 62.7377 134.37 61.3116 134.495C59.8856 134.62 58.7938 135.456 58.8731 136.363C58.9525 137.27 60.1728 137.903 61.5989 137.779Z" fill="#FCA582"/>
<path d="M184.951 134.969C187.613 134.713 189.717 135.579 191.263 137.569C191.418 137.766 191.49 137.99 191.479 138.241C191.247 142.369 185.807 141.929 183.223 140.505C182.111 139.617 181.895 137.585 183.311 136.897C183.535 136.79 183.693 136.62 183.783 136.385C184.013 135.788 184.402 135.315 184.951 134.969Z" fill="#FB9673"/>
<path d="M122.903 141.233C123.565 141.708 123.927 142.22 123.991 142.769C123.479 143.964 123.261 145.278 123.335 146.713C123.342 146.838 123.301 146.961 123.219 147.058C123.137 147.154 123.022 147.217 122.895 147.233C122.41 147.292 122.05 147.526 121.815 147.937C121.754 148.044 121.663 148.13 121.553 148.186C121.443 148.242 121.32 148.264 121.197 148.251C121.075 148.237 120.959 148.188 120.864 148.109C120.77 148.031 120.7 147.927 120.663 147.809C120.039 145.756 119.959 143.67 120.423 141.553C120.453 141.414 120.515 141.284 120.606 141.173C120.696 141.062 120.812 140.973 120.943 140.913C121.567 140.62 122.221 140.726 122.903 141.233Z" fill="#F3EEE7"/>
<path d="M124.728 143.257C125.949 143.726 126.944 144.393 127.712 145.257C127.893 145.454 127.989 145.689 128 145.961C128.112 148.345 126.933 149.945 124.464 150.761L121.312 150.945C121.152 150.955 120.994 150.907 120.868 150.808C120.741 150.71 120.655 150.569 120.625 150.411C120.596 150.254 120.625 150.091 120.707 149.954C120.79 149.816 120.919 149.713 121.072 149.665C123.573 148.833 124.792 146.697 124.728 143.257Z" fill="#FDBF9E"/>
<path d="M37.4801 146.938C44.1574 156.783 53.1761 163.425 64.5361 166.865C65.1174 167.041 66.0774 167.095 67.4161 167.025C67.6294 167.009 67.7254 167.111 67.7041 167.329C67.5521 168.689 53.8641 167.553 52.3441 167.321C52.2677 167.307 52.1888 167.319 52.1192 167.353C52.0496 167.388 51.993 167.444 51.9579 167.513C51.9228 167.582 51.9111 167.661 51.9244 167.738C51.9378 167.814 51.9756 167.884 52.0321 167.938C66.1041 182.026 86.1521 187.825 105.808 186.961L105.792 187.802C105.307 187.738 104.736 187.834 104.08 188.09C90.3441 190.922 83.7361 201.457 79.2241 213.969C79.0881 213.745 78.5761 213.633 78.3441 213.473C57.0588 198.225 43.2614 177.529 36.9521 151.385C36.4774 149.423 36.6534 147.94 37.4801 146.938Z" fill="#EBECE6"/>
<path d="M77.3355 149.385C79.3115 150.241 81.6235 151.161 79.8395 153.873C79.8038 153.928 79.7552 153.972 79.6979 154.003C79.6406 154.034 79.5766 154.051 79.5115 154.051C79.4464 154.051 79.3823 154.034 79.325 154.003C79.2678 153.972 79.2191 153.928 79.1835 153.873L76.7195 150.113C76.6596 150.024 76.6305 149.917 76.6365 149.81C76.6426 149.702 76.6835 149.599 76.7531 149.517C76.8227 149.435 76.9172 149.377 77.0222 149.354C77.1273 149.33 77.2372 149.341 77.3355 149.385Z" fill="#FED3B3"/>
<path d="M108.72 155.049C108.986 161.492 112.474 165.465 119.184 166.969C128.704 169.097 138.512 165.801 140.064 154.961C140.56 154.492 141.037 154.332 141.496 154.481C142.376 154.764 142.701 155.353 142.472 156.249C140.376 164.383 135.144 168.761 126.776 169.385C124.264 169.572 121.248 169.436 117.728 168.977C111.464 166.913 105.256 161.729 106.056 154.705C106.088 154.433 106.24 154.284 106.512 154.257C107.797 154.135 108.533 154.399 108.72 155.049Z" fill="#792F2C"/>
<path d="M108.72 155.049C114.31 156.766 119.862 157.46 125.376 157.129C130.347 157.348 135.243 156.625 140.064 154.961C138.512 165.801 128.704 169.097 119.184 166.969C112.475 165.465 108.987 161.492 108.72 155.049Z" fill="#FEFDFE"/>
<path d="M132 181.633C131.829 183.377 132.005 184.777 132.528 185.833C132.074 185.795 131.84 185.843 131.824 185.977C131.801 186.236 131.889 186.494 132.069 186.695C132.249 186.896 132.506 187.023 132.784 187.049L139.44 187.657C137.194 194.809 132.274 198.771 124.68 199.545C124.184 194.897 121.448 186.561 116.088 186.065C115.821 186.043 115.626 185.913 115.504 185.673C114.805 184.345 114.829 183.193 115.576 182.217C121.01 182.499 126.485 182.305 132 181.633Z" fill="#FCA582"/>
<path d="M114.584 181.977C115.256 181.919 115.587 181.999 115.576 182.217C114.829 183.193 114.805 184.345 115.504 185.673C115.627 185.913 115.821 186.044 116.088 186.065C121.448 186.561 124.184 194.897 124.68 199.545C116.728 200.881 110.16 195.633 108.36 188.081C108.296 187.809 108.128 187.655 107.856 187.617C107.179 187.516 106.491 187.577 105.792 187.801L105.808 186.961L113.288 186.161C113.509 186.138 113.717 186.041 113.876 185.886C114.036 185.73 114.139 185.526 114.168 185.305L114.584 181.977Z" fill="#FDBF9E"/>
<path d="M124.68 199.545C132.274 198.772 137.194 194.809 139.44 187.657C146.528 188.03 152.493 190.82 157.336 196.025C162.146 201.193 165.768 207.638 168.2 215.361L161.088 219.217C159.712 212.172 157.954 205.27 155.816 198.513C155.616 197.881 155.624 196.721 155 196.353C154.642 196.134 154.456 196.236 154.44 196.657C154.336 199.841 154.608 220.793 153.68 221.689C153.498 221.865 153.536 221.958 153.792 221.969C154.058 221.985 154.261 222.049 154.4 222.161L147.712 224.601C144.544 220.18 140.874 216.334 136.704 213.065C130.968 208.561 123.984 206.329 117.368 203.449C109.608 200.065 104.088 196.769 104.08 188.089C104.736 187.833 105.306 187.737 105.792 187.801C106.49 187.577 107.178 187.516 107.856 187.617C108.128 187.654 108.296 187.809 108.36 188.081C110.16 195.633 116.728 200.881 124.68 199.545Z" fill="#F17941"/>
<path d="M104.08 188.089C104.088 196.769 109.608 200.065 117.368 203.449C123.984 206.329 130.968 208.561 136.704 213.065C140.874 216.334 144.544 220.18 147.712 224.601C129.002 229.598 111.082 228.561 93.9516 221.489L93.0316 196.433C93.0292 196.399 93.0161 196.367 92.9942 196.341C92.9723 196.316 92.9428 196.297 92.9099 196.289C92.877 196.281 92.8424 196.284 92.811 196.297C92.7797 196.31 92.7533 196.332 92.7356 196.361C92.053 197.598 91.5516 198.945 91.2316 200.401C90.0796 205.665 88.7356 210.881 87.1996 216.049C87.125 216.305 86.9756 216.508 86.7516 216.657L85.5276 217.497L80.9916 215.361L79.2236 213.969C83.7356 201.457 90.3436 190.921 104.08 188.089Z" fill="#FA9B67"/>
<path d="M161.088 219.217L154.4 222.161C154.261 222.049 154.059 221.985 153.792 221.969C153.536 221.958 153.499 221.865 153.68 221.689C154.608 220.793 154.336 199.841 154.44 196.657C154.456 196.235 154.643 196.134 155 196.353C155.624 196.721 155.616 197.881 155.816 198.513C157.955 205.27 159.712 212.171 161.088 219.217Z" fill="#FE6E48"/>
<path d="M93.9523 221.489L85.5283 217.497L86.7523 216.657C86.9763 216.508 87.1257 216.305 87.2003 216.049C88.7363 210.881 90.0803 205.665 91.2323 200.401C91.5523 198.945 92.0536 197.598 92.7363 196.361C92.754 196.332 92.7804 196.309 92.8117 196.296C92.843 196.284 92.8776 196.281 92.9106 196.289C92.9435 196.297 92.973 196.315 92.9949 196.341C93.0168 196.367 93.0299 196.399 93.0323 196.433L93.9523 221.489Z" fill="#F17941"/>
</svg>
