<svg width="256" height="256" viewBox="0 0 256 256" fill="none" xmlns="http://www.w3.org/2000/svg">
<path d="M29.6988 114.938L30.4508 117.066C30.5468 117.344 30.5122 117.602 30.3468 117.842C29.0935 119.725 28.9895 121.69 30.0348 123.738" stroke="#B8A29B" stroke-width="2"/>
<path d="M30.0347 123.738L32.6187 128.026C32.813 128.349 32.9248 128.715 32.9444 129.091C32.9639 129.468 32.8905 129.844 32.7307 130.186C31.6693 132.442 31.4347 134.789 32.0267 137.226C32.0854 137.472 32.2187 137.672 32.4267 137.826C34.7147 139.546 32.9467 141.154 33.0427 142.986C33.1867 145.978 34.4507 148.448 36.8347 150.394C37.0587 150.581 37.136 150.813 37.0667 151.09C35.7653 156.312 37.52 159.896 42.3307 161.842C42.5134 161.918 42.666 162.052 42.7644 162.223C42.8628 162.394 42.9016 162.592 42.8747 162.786C42.1387 168.365 44.5547 171.112 50.1227 171.026C50.4053 171.021 50.624 171.133 50.7787 171.362C53.1147 174.797 56.4107 176.029 60.6667 175.058C61.1307 174.952 61.376 175.136 61.4027 175.61C61.8507 183.658 68.4187 183.202 74.5307 182.954C74.808 182.938 75.0453 183.032 75.2427 183.234C78.6293 186.669 82.736 187.874 87.5627 186.85C87.824 186.797 88.016 186.885 88.1387 187.114C89.6587 189.877 92.1573 191.842 95.6347 193.01" stroke="#A99692" stroke-width="2"/>
<path d="M95.6347 193.01C86.4561 195.645 77.9147 199.464 70.0107 204.466" stroke="#F3A6A3" stroke-width="2"/>
<path d="M70.0109 204.466L64.3789 207.978C64.2934 208.031 64.2208 208.103 64.1666 208.187C64.1124 208.272 64.0779 208.368 64.0656 208.468C64.0533 208.568 64.0636 208.669 64.0956 208.764C64.1277 208.859 64.1808 208.946 64.2509 209.018C79.4829 224.938 97.8589 235.25 120.459 237.65C151.163 240.914 176.803 231.472 197.379 209.322C197.419 209.278 197.449 209.225 197.466 209.168C197.483 209.111 197.488 209.051 197.478 208.991C197.469 208.932 197.447 208.876 197.413 208.827C197.379 208.777 197.335 208.736 197.283 208.706L190.371 204.738" stroke="#E8EEEE" stroke-width="2"/>
<path d="M190.371 204.738C181.931 199.146 173.747 195.962 163.947 192.826" stroke="#F3A6A3" stroke-width="2"/>
<path d="M163.947 192.826C165.589 191.519 166.837 190.018 167.691 188.322C167.824 188.056 168.037 187.962 168.331 188.042C170.448 188.618 172.184 188.474 173.539 187.61" stroke="#A99692" stroke-width="2"/>
<path d="M173.539 187.61C176.318 187.242 178.547 186.05 180.227 184.034C180.304 183.943 180.405 183.875 180.518 183.838C180.632 183.802 180.752 183.797 180.867 183.826C187.371 185.442 193.339 182.426 194.163 175.738C194.19 175.477 194.334 175.373 194.595 175.426C198.926 176.338 202.411 175.026 205.051 171.49" stroke="#8A8383" stroke-width="2"/>
<path d="M205.051 171.49C210.437 171.405 212.883 168.696 212.387 163.362C212.36 163.069 212.48 162.864 212.747 162.746C217.509 160.661 219.213 157.082 217.859 152.01C217.784 151.722 217.867 151.49 218.107 151.314C220.267 149.746 221.664 147.621 222.299 144.938" stroke="#A99692" stroke-width="2"/>
<path d="M222.299 144.938C222.555 143.429 222.36 141.92 221.715 140.41C221.592 140.122 221.632 139.858 221.835 139.618C224.454 136.504 224.611 133.229 222.307 129.794C222.24 129.695 222.198 129.582 222.184 129.465C222.17 129.348 222.185 129.231 222.227 129.122L222.867 127.37" stroke="#B8A29B" stroke-width="2"/>
<path d="M222.867 127.37C224.707 124.842 226.899 120.93 224.771 118.458C224.517 118.162 224.38 117.785 224.383 117.395C224.386 117.005 224.529 116.63 224.787 116.338C229.123 111.426 225.483 107.634 223.155 103.026C223.032 102.775 223.027 102.522 223.139 102.266C226.216 95.418 224.968 89.6127 219.395 84.85C219.163 84.6513 219.007 84.3781 218.953 84.0764C218.899 83.7748 218.95 83.4631 219.099 83.194C222.867 76.362 218.603 72.394 212.603 70.21C212.347 70.114 212.205 69.9273 212.179 69.65C211.515 62.914 208.923 58.234 202.035 56.338C201.768 56.2634 201.611 56.0927 201.563 55.826C199.907 47.106 191.715 40.794 182.819 41.098C182.541 41.1033 182.365 40.9727 182.291 40.706C180.52 34.482 176.245 31.2074 169.467 30.882" stroke="#C5A9A0" stroke-width="2"/>
<path d="M169.467 30.8823L167.267 27.9062" stroke="#B8A29B" stroke-width="2"/>
<path d="M167.267 27.9062C165.032 25.8209 162.501 25.4209 159.675 26.7062C159.424 26.8182 159.176 26.8129 158.931 26.6902C157.731 26.0662 156.611 24.8582 155.747 24.3462C150.627 21.2956 145.179 20.6289 139.403 22.3462C139.134 22.428 138.851 22.4452 138.574 22.3965C138.297 22.3479 138.036 22.2347 137.811 22.0662C128.747 15.3302 115.939 16.3142 107.715 24.3382C107.62 24.4303 107.505 24.4992 107.38 24.5395C107.255 24.5797 107.123 24.5903 106.995 24.5702C105.051 24.2902 102.979 23.7542 101.307 23.6822C94.9786 23.4182 89.4666 25.4502 85.6026 30.6102C85.525 30.714 85.4176 30.7918 85.2947 30.8332C85.1718 30.8747 85.0393 30.8778 84.9146 30.8422C77.9306 28.8102 72.6986 33.3142 70.7866 39.7622C70.7066 40.0289 70.528 40.1809 70.2506 40.2182C65.4773 40.8529 61.2826 42.7649 57.6666 45.9542C54.6346 48.6342 53.8746 51.7862 53.0986 55.4502C53.0346 55.7436 52.8613 55.9382 52.5786 56.0342C46.104 58.2049 42.6826 62.7249 42.3146 69.5942C42.2986 69.8769 42.1546 70.0582 41.8826 70.1382C34.7306 72.2182 33.1146 76.5862 35.8426 83.2982C35.893 83.4202 35.907 83.5545 35.8829 83.6849C35.8588 83.8154 35.7976 83.9367 35.7066 84.0342C30.9866 89.1302 27.9306 94.9062 32.0266 101.57C32.2374 101.914 32.3415 102.313 32.3258 102.716C32.3102 103.119 32.1754 103.508 31.9386 103.834C29.6266 107.002 27.5546 110.658 29.6986 114.938" stroke="#C5A9A0" stroke-width="2"/>
<path d="M167.267 27.9062C166.755 28.5089 166.864 28.9703 167.595 29.2903C167.757 29.3614 167.886 29.4919 167.955 29.6544C168.023 29.8169 168.026 29.9988 167.963 30.1622C164.427 39.0023 159.587 46.1462 151.915 51.7302C141.059 59.6342 127.835 65.2262 114.899 69.6742C102.152 74.0582 89.4241 78.4929 76.7147 82.9783C58.1227 89.5463 43.2507 98.3463 32.9547 115.906C32.8054 116.168 32.5867 116.344 32.2987 116.434C31.6161 116.653 31.1734 116.389 30.9707 115.642C30.9327 115.503 30.8573 115.377 30.7528 115.278C30.6483 115.179 30.5189 115.111 30.3787 115.082L29.6987 114.938" stroke="#7F4E3C" stroke-width="2"/>
<path d="M169.467 30.882C169.739 32.1407 170.144 33.3114 170.683 34.394C171.573 36.186 172.093 37.2954 172.243 37.722C173.896 42.5167 174.949 47.2154 175.403 51.818" stroke="#7F4E3C" stroke-width="2"/>
<path d="M175.403 51.818C173.579 54.5966 171.789 57.29 170.035 59.898C169.133 61.2313 166.528 63.3646 162.219 66.298C156.211 70.386 147.795 73.338 139.571 75.65C124.904 79.7726 110.416 84.434 96.1067 89.634C92.2453 91.0366 87.6133 92.53 82.2107 94.114C72.2667 97.034 48.2587 102.426 51.7467 117.938C52.8667 122.906 49.6667 121.434 47.2827 123.37C45.3627 124.93 44.8427 125.882 42.1867 125.914C40.3573 125.941 38.5173 125.821 36.6667 125.554C36.4373 125.522 36.2373 125.581 36.0667 125.73L33.9947 127.522C33.9445 127.567 33.8843 127.598 33.8192 127.615C33.7541 127.631 33.6861 127.631 33.6209 127.615C33.5556 127.6 33.4952 127.568 33.4447 127.524C33.3941 127.48 33.355 127.424 33.3307 127.362C32.696 125.671 31.5973 124.463 30.0347 123.738" stroke="#623A2E" stroke-width="2"/>
<path d="M222.867 127.37C222.152 127.354 221.75 127.621 221.659 128.17C221.641 128.287 221.591 128.397 221.515 128.488C221.44 128.578 221.341 128.647 221.229 128.686C221.118 128.726 220.998 128.734 220.882 128.711C220.766 128.688 220.659 128.634 220.571 128.554C213.35 122.037 207.374 114.858 202.643 107.018C200.307 103.154 198.355 98.5704 196.387 94.2264C192.547 85.7624 185.947 79.1384 181.771 70.8583C180.918 69.1677 180.008 67.4157 179.043 65.6024" stroke="#7F4E3C" stroke-width="2"/>
<path d="M179.043 65.602L175.403 51.818" stroke="#704233" stroke-width="2"/>
<path d="M179.043 65.6024C179.16 71.5224 180 77.2797 181.563 82.8744C183.136 88.485 185.056 92.821 187.323 95.8823C193.923 104.786 196.915 110.73 197.363 120.706C197.373 120.963 197.451 121.214 197.587 121.434L198.891 123.506" stroke="#623A2E" stroke-width="2"/>
<path d="M198.891 123.506C197.6 124.424 196.552 125.906 195.747 127.954" stroke="#A16A52" stroke-width="2"/>
<path d="M195.747 127.954C196.867 118.906 195.827 110.434 191.211 103.394C188.619 99.4501 184.067 93.834 181.563 89.162C177.475 81.538 175.307 73.138 173.435 64.722C173.365 64.402 173.232 64.3727 173.035 64.634C167.525 71.722 160.547 77.1674 152.099 80.97C136.003 88.218 120.259 92.658 103.219 97.522" stroke="#97604A" stroke-width="2"/>
<path d="M103.219 97.5223C94.5576 98.7809 86.5203 101.554 79.1069 105.842" stroke="#603223" stroke-width="2"/>
<path d="M79.1071 105.842C72.1845 108.813 66.9551 113.296 63.4191 119.29C62.2138 121.328 61.5098 123.808 61.3071 126.73" stroke="#97604A" stroke-width="2"/>
<path d="M61.3069 126.73L61.0269 130.714C60.9949 131.157 60.9149 131.165 60.7869 130.738C59.3389 126.05 57.3869 120.778 51.1229 122.602C33.6509 127.698 41.9789 159.034 64.3309 151.362C64.5491 151.288 64.7871 151.298 64.9986 151.389C65.21 151.481 65.3798 151.648 65.4749 151.858C74.1709 171.578 91.3949 184.058 112.099 188.914" stroke="#A6725D" stroke-width="2"/>
<path d="M112.099 188.914L109.027 190.146" stroke="#97604A" stroke-width="2"/>
<path d="M109.027 190.146C107.645 190.093 106.125 190.434 104.467 191.17" stroke="#A16A52" stroke-width="2"/>
<path d="M104.467 191.17L100.179 191.914" stroke="#8A423B" stroke-width="2"/>
<path d="M100.179 191.914L95.6348 193.01" stroke="#9D3F37" stroke-width="2"/>
<path d="M222.299 144.938C221.899 144.866 221.675 144.922 221.547 145.362C220.928 147.533 219.72 149.023 217.923 149.834C217.507 150.021 217.328 149.887 217.387 149.434L217.811 145.986C217.821 145.906 217.861 145.885 217.931 145.922C218.085 145.997 218.165 146.007 218.171 145.954C218.587 143.314 217.616 141.607 215.259 140.834C214.976 140.738 214.84 140.541 214.851 140.242C214.883 139.522 215.651 135.01 214.099 135.538" stroke="#623A2E" stroke-width="2"/>
<path d="M214.099 135.538C213.515 128.538 206.819 119.482 198.891 123.506" stroke="#B0765B" stroke-width="2"/>
<path d="M214.099 135.538C214.307 148.042 204.067 155.21 192.307 151.826C192.04 151.746 191.848 151.832 191.731 152.082C182.091 172.194 165.491 184.258 143.779 189.122" stroke="#A16A52" stroke-width="2"/>
<path d="M143.779 189.122C137.864 190.584 132.253 191.328 126.947 191.354" stroke="#E59C77" stroke-width="2"/>
<path d="M126.947 191.354L127.467 177.77" stroke="#F4AE8A" stroke-width="2"/>
<path d="M127.467 177.77C131.899 177.744 136.005 176.501 139.787 174.042" stroke="#E28770" stroke-width="2"/>
<path d="M139.787 174.042C144.219 171.314 150.707 164.186 150.003 158.386C149.523 154.378 146.779 153.906 143.251 154.602C139.805 155.285 136.344 155.92 132.867 156.506" stroke="#CB7461" stroke-width="2"/>
<path d="M132.867 156.506C132.611 155.669 132.112 155.002 131.371 154.506C131.168 154.366 130.927 154.296 130.683 154.306C129.675 154.344 129.08 153.882 128.899 152.922C128.829 152.528 128.987 152.285 129.371 152.194L130.299 151.97C130.42 151.943 130.529 151.881 130.615 151.791C130.7 151.701 130.757 151.588 130.778 151.465C130.799 151.342 130.784 151.216 130.734 151.101C130.685 150.986 130.603 150.888 130.499 150.818L129.995 150.49" stroke="#F4AE8A" stroke-width="2"/>
<path d="M129.995 150.49C133.675 149.92 135.643 147.888 135.899 144.394C135.92 144.101 135.798 143.89 135.531 143.762C135.328 143.661 135.086 143.661 134.803 143.762" stroke="#E59C77" stroke-width="2"/>
<path d="M134.803 143.762C133.403 140.506 126.651 138.506 126.667 135.938C126.758 122.888 126.696 109.696 126.483 96.3625" stroke="#F4AE8A" stroke-width="2"/>
<path d="M195.747 127.954C194.659 122.402 192.966 117.178 190.667 112.282C187.835 106.234 182.843 100.026 178.619 94.21C175.547 89.986 172.736 85.65 170.187 81.202C170.106 81.0642 169.976 80.9625 169.823 80.9179C169.669 80.8732 169.505 80.889 169.363 80.962C161.683 84.874 154.747 87.658 145.731 90.234C139.118 92.122 132.702 94.1647 126.483 96.362" stroke="#E59C77" stroke-width="2"/>
<path d="M126.483 96.3625L104.787 103.466C104.525 103.552 104.272 103.533 104.027 103.41C103.611 103.208 103.168 103.117 102.699 103.138" stroke="#EAA482" stroke-width="2"/>
<path d="M102.699 103.138L103.219 97.5223" stroke="#A46448" stroke-width="2"/>
<path d="M134.803 143.762C132.795 148.666 126.083 148.93 123.891 144.114C123.853 144.028 123.79 143.956 123.71 143.907C123.63 143.858 123.537 143.835 123.443 143.842C123.349 143.848 123.26 143.883 123.187 143.941C123.114 144 123.061 144.08 123.035 144.17C122.267 146.794 122.877 148.57 124.867 149.498C126.419 150.218 128.227 150.77 129.995 150.49" stroke="#EAA482" stroke-width="2"/>
<path d="M132.867 156.506C126.888 156.874 119.494 156.445 110.683 155.218C108.934 154.973 107.592 155.538 106.659 156.914C103.795 161.154 110.707 169.562 113.867 171.97" stroke="#D17D6B" stroke-width="2"/>
<path d="M113.867 171.97C117.808 175.224 122.341 177.157 127.467 177.77" stroke="#E78F7A" stroke-width="2"/>
<path d="M126.947 191.354C121.533 191.05 116.584 190.237 112.099 188.914" stroke="#EAA482" stroke-width="2"/>
<path d="M61.3071 126.73L62.4031 126.154C62.6431 126.026 62.8031 125.832 62.8831 125.57C65.2431 118.018 73.5151 113.17 79.2271 109.634C79.4191 109.512 79.5525 109.344 79.6271 109.13L80.0431 107.898" stroke="#EAA482" stroke-width="2"/>
<path d="M80.043 107.898C86.3576 106.853 92.6803 105.909 99.011 105.066C100.494 104.869 101.723 104.226 102.699 103.138" stroke="#B3765B" stroke-width="2"/>
<path d="M80.0429 107.898C79.6376 107.749 79.3256 107.064 79.1069 105.842" stroke="#A46448" stroke-width="2"/>
<path d="M190.371 204.738C189.565 205.261 187.907 206.501 185.395 208.458C179.755 212.85 173.115 216.386 166.155 218.922C135.323 230.13 95.6107 227.202 70.0107 204.466" stroke="#DC9793" stroke-width="2"/>
<path d="M152.699 190.738C148.805 201.976 140.88 207.701 128.923 207.914" stroke="#CE7460" stroke-width="2"/>
<path d="M128.923 207.914C128.79 207.445 128.582 207.077 128.299 206.81C128.231 206.743 128.18 206.661 128.148 206.573C128.116 206.484 128.105 206.39 128.115 206.298L129.131 197.85C129.168 197.546 129.035 197.386 128.731 197.37C121.43 197.013 114.862 194.605 109.027 190.146" stroke="#E59C77" stroke-width="2"/>
<path d="M157.971 191.578C153.491 208.41 140.019 216.314 123.499 213.786C111.669 211.983 103.896 204.693 100.179 191.914" stroke="#D4524D" stroke-width="2"/>
<path d="M128.923 207.914C116.083 208.058 109.955 201.626 104.467 191.17" stroke="#D87D68" stroke-width="2"/>
<path d="M205.051 171.49C206.011 170.743 205.766 170.466 204.315 170.658C204.182 170.678 204.056 170.73 203.947 170.809C203.838 170.889 203.75 170.993 203.691 171.114C201.947 174.778 199.115 175.45 195.475 174.034C193.747 173.362 192.915 176.058 192.827 177.41C192.459 183.338 185.291 183.698 181.035 182.842C180.79 182.794 180.566 182.839 180.363 182.978L173.539 187.61" stroke="#351B16" stroke-width="2"/>
<path d="M163.947 192.826L157.971 191.578" stroke="#9D3F37" stroke-width="2"/>
<path d="M157.971 191.578L152.699 190.738" stroke="#8A423B" stroke-width="2"/>
<path d="M152.699 190.738L143.779 189.122" stroke="#97604A" stroke-width="2"/>
<path d="M139.787 174.042C137.435 171.744 134.72 170.336 131.643 169.818C131.386 169.772 131.16 169.632 131.011 169.426L130.875 169.242C130.768 169.098 130.624 169.016 130.443 168.994L119.715 167.642C119.4 167.6 119.248 167.738 119.259 168.058C119.264 168.24 119.315 168.392 119.411 168.514C119.747 168.914 119.664 169.184 119.163 169.322C117.211 169.866 115.445 170.749 113.867 171.97" stroke="#BF5651" stroke-width="2"/>
<path d="M78.8748 42.5784C68.9868 48.6424 78.6508 52.7624 84.4668 52.6664C97.8668 52.4424 122.019 48.5864 131.675 38.3384C135.707 34.0744 125.235 32.0984 122.659 32.0424C108.115 31.7144 91.4188 34.8984 78.8748 42.5784Z" stroke="#AC745D" stroke-width="2"/>
<path d="M64.3466 54.314C63.9626 54.6447 63.8986 55.0287 64.1546 55.466C67.0506 60.346 73.7626 59.042 76.9066 55.29C76.9953 55.1844 77.0617 55.0619 77.1015 54.93C77.1413 54.798 77.1537 54.6596 77.1379 54.5231C77.1222 54.3866 77.0786 54.255 77.0099 54.1365C76.9412 54.018 76.8489 53.915 76.7386 53.834C72.4612 50.6927 68.3306 50.8527 64.3466 54.314Z" stroke="#AC745D" stroke-width="2"/>
<path d="M156.667 94.962C151.435 93.914 150.411 101.066 153.307 103.346C154.288 104.119 155.944 104.623 158.275 104.858C163.816 105.407 169.435 106.266 175.131 107.434C175.346 107.478 175.569 107.464 175.778 107.393C175.986 107.323 176.171 107.198 176.316 107.032C176.46 106.866 176.557 106.664 176.598 106.448C176.638 106.232 176.621 106.009 176.547 105.802C174.507 100.098 162.011 96.034 156.667 94.962Z" stroke="#AE6D50" stroke-width="2"/>
<path d="M149.235 132.57C151.699 147.378 169.387 146.746 175.867 135.106" stroke="#F6D1BF" stroke-width="2"/>
<path d="M175.867 135.106C176.587 133.618 177.603 132.45 178.915 131.602C179.123 131.474 179.208 131.288 179.171 131.042C179.011 129.866 178.499 127.594 180.339 127.474C180.386 127.472 180.432 127.461 180.474 127.44C180.517 127.42 180.555 127.391 180.586 127.355C180.617 127.319 180.641 127.277 180.657 127.232C180.672 127.187 180.678 127.138 180.675 127.09L180.635 126.634C180.63 126.574 180.611 126.516 180.582 126.463C180.552 126.411 180.511 126.366 180.462 126.331C180.413 126.297 180.357 126.274 180.298 126.264C180.239 126.254 180.18 126.258 180.123 126.274C179.301 126.498 178.76 126.37 178.499 125.89C175.859 121.112 172.147 117.938 167.363 116.37C159.643 113.842 152.227 115.77 149.243 123.922C148.165 126.861 148.163 129.744 149.235 132.57" stroke="#785340" stroke-width="2"/>
<path d="M175.867 135.106C177.915 128.938 174.667 123.354 169.259 120.514" stroke="#807F7F" stroke-width="2"/>
<path d="M169.259 120.514C168.027 119.522 166.699 118.946 165.275 118.786C165.223 118.775 165.169 118.783 165.123 118.811C165.077 118.838 165.044 118.882 165.03 118.933C165.015 118.984 165.021 119.039 165.046 119.086C165.071 119.133 165.113 119.169 165.163 119.186L169.067 120.906" stroke="#2A1813" stroke-width="2"/>
<path d="M169.067 120.906C173.504 127.648 172.595 133.498 166.339 138.458" stroke="#807F7F" stroke-width="2"/>
<path d="M166.339 138.458C169.251 135.722 170.774 132.746 170.907 129.53C171.035 126.386 170.067 121.97 166.779 120.914C166.459 120.813 166.376 120.912 166.531 121.21C174.003 135.546 153.107 139.634 154.131 126.698C154.152 126.437 154.032 126.322 153.771 126.354C153.36 126.408 153.048 126.269 152.835 125.938" stroke="#371B11" stroke-width="2"/>
<path d="M152.835 125.938C153.032 125.362 153.072 124.821 152.955 124.314C152.848 123.866 152.677 123.842 152.443 124.242C150.944 126.792 149.875 129.568 149.235 132.57" stroke="#807F7F" stroke-width="2"/>
<path d="M169.259 120.514C169.088 120.567 169.024 120.698 169.067 120.906" stroke="#A99692" stroke-width="2"/>
<path d="M152.835 125.938C151.003 131.762 152.411 138.146 158.995 139.818C161.688 140.501 164.136 140.048 166.339 138.458" stroke="#B69990" stroke-width="2"/>
<path d="M208.963 135.01C207.419 130.642 203.187 127.41 198.491 129.25C198.407 129.274 198.336 129.329 198.293 129.405C198.251 129.481 198.24 129.571 198.263 129.654C198.286 129.738 198.342 129.809 198.418 129.852C198.494 129.895 198.583 129.906 198.667 129.882C203.494 129.077 206.875 130.808 208.811 135.074C208.819 135.095 208.836 135.111 208.856 135.119C208.876 135.127 208.899 135.127 208.919 135.118C208.939 135.11 208.955 135.094 208.963 135.074C208.972 135.053 208.971 135.031 208.963 135.01Z" stroke="#E59C77" stroke-width="2"/>
<path d="M184.275 151.701C184.27 150.953 183.976 150.214 183.411 149.527C182.845 148.84 182.02 148.217 180.98 147.696C179.941 147.174 178.709 146.763 177.354 146.486C175.999 146.21 174.548 146.072 173.083 146.083C170.126 146.103 167.293 146.723 165.209 147.806C163.126 148.889 161.961 150.346 161.971 151.856C161.976 152.604 162.27 153.343 162.835 154.03C163.401 154.717 164.226 155.339 165.266 155.861C166.305 156.383 167.537 156.794 168.892 157.07C170.247 157.347 171.698 157.484 173.163 157.474C176.12 157.454 178.953 156.834 181.037 155.751C183.12 154.668 184.285 153.211 184.275 151.701Z" stroke="#F19478" stroke-width="2"/>
<path d="M80.0908 134.074C81.5415 137.093 83.2855 139.357 85.3228 140.866C93.5548 146.962 105.371 142.922 106.779 132.322" stroke="#FCDAC9" stroke-width="2"/>
<path d="M106.779 132.322C109.035 112.874 89.0032 111.146 79.3392 122.618C78.4672 123.658 77.8593 125.394 76.1233 125.866C75.9624 125.91 75.8158 125.995 75.6977 126.112C75.5796 126.23 75.4941 126.376 75.4497 126.537C75.4053 126.698 75.4035 126.867 75.4445 127.029C75.4854 127.19 75.5677 127.338 75.6832 127.458C76.0512 127.842 76.5153 128.002 77.0753 127.938C77.3579 127.906 77.4646 128.026 77.3953 128.298L76.6273 131.458C76.6108 131.521 76.6076 131.587 76.6179 131.652C76.6282 131.716 76.6518 131.778 76.6871 131.833C76.7225 131.888 76.7688 131.935 76.8232 131.971C76.8776 132.007 76.9389 132.031 77.0033 132.042C78.5126 132.309 79.5419 132.986 80.0912 134.074" stroke="#885F4E" stroke-width="2"/>
<path d="M106.779 132.322L104.243 125.618C104.158 125.378 104.003 125.317 103.779 125.434C103.379 125.65 104.011 129.026 103.963 129.834" stroke="#8A8383" stroke-width="2"/>
<path d="M103.963 129.834C103.211 130.421 102.912 129.658 103.067 127.546C103.078 127.494 103.067 127.44 103.038 127.396C103.009 127.352 102.963 127.321 102.911 127.31C102.859 127.3 102.805 127.31 102.761 127.339C102.716 127.369 102.686 127.414 102.675 127.466C101.763 130.33 100.259 134.226 97.3389 134.818C90.5549 136.186 86.1869 130.018 88.3869 123.722C88.4776 123.456 88.6296 123.229 88.8429 123.042L90.2509 121.802C90.3066 121.752 90.351 121.691 90.3811 121.622C90.4113 121.554 90.4264 121.479 90.4257 121.404C90.4249 121.329 90.4082 121.256 90.3767 121.188C90.3452 121.12 90.2996 121.059 90.2429 121.01C89.7842 120.61 89.5123 120.117 89.4269 119.53C89.3843 119.205 89.2003 119.069 88.8749 119.122C88.4749 119.186 88.1602 119.376 87.9309 119.69" stroke="#5F2625" stroke-width="2"/>
<path d="M87.9309 119.69C81.5362 122.57 78.9229 127.365 80.0909 134.074" stroke="#8A8383" stroke-width="2"/>
<path d="M103.963 129.834C105.747 140.482 90.2907 144.13 85.8987 134.122C83.6321 128.949 84.3094 124.138 87.9307 119.69" stroke="#D3A0A0" stroke-width="2"/>
<path d="M59.0108 128.546C57.6268 127.698 50.6908 129.138 49.8668 130.738C49.6855 131.085 49.7388 131.125 50.0268 130.858C52.1628 128.874 55.4108 128.858 58.8828 128.962C59.4375 128.978 59.4801 128.839 59.0108 128.546Z" stroke="#E09B7B" stroke-width="2"/>
<path d="M47.1059 135.817C47.1284 135.826 47.1639 135.801 47.2105 135.744C47.257 135.686 47.3137 135.598 47.3772 135.483C47.4408 135.369 47.51 135.23 47.5808 135.075C47.6517 134.921 47.7228 134.753 47.7902 134.582C47.9263 134.236 48.0388 133.898 48.1029 133.641C48.167 133.384 48.1775 133.23 48.1321 133.212C48.1097 133.203 48.0742 133.228 48.0276 133.285C47.981 133.342 47.9244 133.431 47.8608 133.546C47.7973 133.66 47.7281 133.799 47.6572 133.954C47.5864 134.108 47.5152 134.276 47.4478 134.447C47.3118 134.792 47.1993 135.131 47.1352 135.388C47.071 135.645 47.0605 135.799 47.1059 135.817Z" stroke="#EAA482" stroke-width="2"/>
<path d="M92.2741 151.237C92.2677 150.501 91.9855 149.774 91.4436 149.098C90.9018 148.423 90.1109 147.811 89.1162 147.299C88.1214 146.787 86.9423 146.384 85.646 146.114C84.3498 145.843 82.9619 145.71 81.5615 145.723C78.7334 145.747 76.0262 146.362 74.0356 147.431C72.045 148.5 70.9339 149.936 70.9469 151.423C70.9533 152.16 71.2355 152.887 71.7773 153.562C72.3192 154.238 73.11 154.849 74.1048 155.361C75.0996 155.874 76.2787 156.276 77.5749 156.547C78.8712 156.817 80.2591 156.95 81.6595 156.938C84.4876 156.913 87.1948 156.299 89.1854 155.23C91.176 154.161 92.287 152.725 92.2741 151.237Z" stroke="#F69C82" stroke-width="2"/>
<path d="M159.536 120.379C159.363 120.078 159.125 119.819 158.836 119.615C158.547 119.412 158.213 119.269 157.852 119.194C157.49 119.118 157.11 119.113 156.732 119.177C156.353 119.242 155.985 119.375 155.647 119.569C155.309 119.764 155.008 120.015 154.762 120.31C154.516 120.604 154.33 120.936 154.213 121.286C154.096 121.636 154.052 121.997 154.082 122.349C154.112 122.701 154.217 123.037 154.39 123.338C154.563 123.638 154.8 123.897 155.089 124.101C155.378 124.304 155.713 124.447 156.074 124.523C156.435 124.598 156.816 124.603 157.194 124.539C157.572 124.474 157.941 124.341 158.279 124.147C158.617 123.952 158.917 123.701 159.163 123.406C159.409 123.112 159.596 122.78 159.713 122.43C159.829 122.08 159.874 121.719 159.843 121.367C159.813 121.015 159.709 120.679 159.536 120.379Z" stroke="#807F7F" stroke-width="2"/>
<path d="M101.701 123.368C101.857 123.068 101.945 122.736 101.961 122.392C101.976 122.048 101.919 121.698 101.791 121.362C101.664 121.026 101.469 120.71 101.218 120.434C100.967 120.157 100.665 119.924 100.328 119.749C99.6489 119.396 98.872 119.297 98.1685 119.476C97.465 119.654 96.8926 120.095 96.5771 120.701C96.4209 121.001 96.3325 121.332 96.3169 121.677C96.3014 122.021 96.359 122.371 96.4864 122.707C96.6138 123.043 96.8086 123.358 97.0596 123.635C97.3106 123.912 97.613 124.144 97.9494 124.319C98.6288 124.673 99.4057 124.771 100.109 124.593C100.813 124.414 101.385 123.974 101.701 123.368Z" stroke="#8A8383" stroke-width="2"/>
<path d="M107.715 161.29C111.787 170.026 148.899 168.714 148.203 161.306C148.117 160.389 147.627 160.029 146.731 160.226C133.179 163.17 121.595 162.706 108.043 160.85C107.664 160.797 107.555 160.944 107.715 161.29Z" stroke="#D3A0A0" stroke-width="2"/>
<path d="M167.267 27.9062C166.755 28.5089 166.864 28.9702 167.595 29.2902C167.757 29.3614 167.886 29.4919 167.955 29.6544C168.023 29.8168 168.026 29.9988 167.963 30.1622C164.427 39.0022 159.587 46.1462 151.915 51.7302C141.059 59.6342 127.835 65.2262 114.899 69.6742C102.152 74.0582 89.424 78.4929 76.7146 82.9782C58.1226 89.5462 43.2506 98.3462 32.9546 115.906C32.8053 116.168 32.5866 116.344 32.2986 116.434C31.616 116.653 31.1733 116.389 30.9706 115.642C30.9326 115.503 30.8572 115.377 30.7527 115.278C30.6482 115.179 30.5188 115.111 30.3786 115.082L29.6986 114.938C27.5546 110.658 29.6266 107.002 31.9386 103.834C32.1754 103.508 32.3102 103.119 32.3258 102.716C32.3415 102.313 32.2374 101.914 32.0266 101.57C27.9306 94.9062 30.9866 89.1302 35.7066 84.0342C35.7976 83.9367 35.8588 83.8154 35.8829 83.6849C35.907 83.5545 35.893 83.4202 35.8426 83.2982C33.1146 76.5862 34.7306 72.2182 41.8826 70.1382C42.1546 70.0582 42.2986 69.8769 42.3146 69.5942C42.6826 62.7249 46.104 58.2049 52.5786 56.0342C52.8613 55.9382 53.0346 55.7436 53.0986 55.4502C53.8746 51.7862 54.6346 48.6342 57.6666 45.9542C61.2826 42.7649 65.4773 40.8529 70.2506 40.2182C70.528 40.1809 70.7066 40.0289 70.7866 39.7622C72.6986 33.3142 77.9306 28.8102 84.9146 30.8422C85.0393 30.8778 85.1718 30.8747 85.2947 30.8332C85.4176 30.7918 85.525 30.714 85.6026 30.6102C89.4666 25.4502 94.9786 23.4182 101.307 23.6822C102.979 23.7542 105.051 24.2902 106.995 24.5702C107.123 24.5903 107.255 24.5797 107.38 24.5395C107.505 24.4992 107.62 24.4303 107.715 24.3382C115.939 16.3142 128.747 15.3302 137.811 22.0662C138.036 22.2347 138.297 22.3479 138.574 22.3965C138.851 22.4452 139.134 22.428 139.403 22.3462C145.179 20.6289 150.627 21.2956 155.747 24.3462C156.611 24.8582 157.731 26.0662 158.931 26.6902C159.176 26.8129 159.424 26.8182 159.675 26.7062C162.501 25.4209 165.032 25.8209 167.267 27.9062ZM78.8746 42.5782C68.9866 48.6422 78.6506 52.7622 84.4666 52.6662C97.8666 52.4422 122.019 48.5862 131.675 38.3382C135.707 34.0742 125.235 32.0982 122.659 32.0422C108.115 31.7142 91.4186 34.8982 78.8746 42.5782ZM64.3466 54.3142C63.9626 54.6449 63.8986 55.0289 64.1546 55.4662C67.0506 60.3462 73.7626 59.0422 76.9066 55.2902C76.9954 55.1846 77.0617 55.0621 77.1015 54.9302C77.1413 54.7983 77.1537 54.6598 77.138 54.5233C77.1222 54.3868 77.0786 54.2552 77.01 54.1367C76.9413 54.0182 76.8489 53.9152 76.7386 53.8342C72.4613 50.6929 68.3306 50.8529 64.3466 54.3142Z" fill="#8C5541"/>
<path d="M167.267 27.9062L169.467 30.8823C169.739 32.1409 170.144 33.3116 170.683 34.3943C171.574 36.1863 172.093 37.2956 172.243 37.7223C173.896 42.5169 174.949 47.2156 175.403 51.8183C173.579 54.5969 171.79 57.2902 170.035 59.8982C169.134 61.2316 166.528 63.3649 162.219 66.2982C156.211 70.3862 147.795 73.3382 139.571 75.6502C124.904 79.7729 110.416 84.4342 96.1068 89.6342C92.2455 91.0369 87.6135 92.5303 82.2108 94.1143C72.2668 97.0343 48.2588 102.426 51.7468 117.938C52.8668 122.906 49.6668 121.434 47.2828 123.37C45.3628 124.93 44.8428 125.882 42.1868 125.914C40.3575 125.941 38.5175 125.821 36.6668 125.554C36.4375 125.522 36.2375 125.581 36.0668 125.73L33.9948 127.522C33.9447 127.567 33.8845 127.599 33.8194 127.615C33.7543 127.631 33.6863 127.631 33.621 127.616C33.5558 127.6 33.4953 127.569 33.4448 127.525C33.3943 127.48 33.3552 127.425 33.3308 127.362C32.6962 125.672 31.5975 124.464 30.0348 123.738C28.9895 121.69 29.0935 119.725 30.3468 117.842C30.5122 117.602 30.5468 117.344 30.4508 117.066L29.6988 114.938L30.3788 115.082C30.519 115.111 30.6484 115.179 30.7529 115.278C30.8574 115.377 30.9328 115.503 30.9708 115.642C31.1735 116.389 31.6162 116.653 32.2988 116.434C32.5868 116.344 32.8055 116.168 32.9548 115.906C43.2508 98.3463 58.1228 89.5463 76.7148 82.9783C89.4242 78.4929 102.152 74.0583 114.899 69.6743C127.835 65.2262 141.059 59.6342 151.915 51.7302C159.587 46.1462 164.427 39.0022 167.963 30.1622C168.026 29.9988 168.023 29.8169 167.955 29.6544C167.886 29.4919 167.757 29.3614 167.595 29.2903C166.864 28.9703 166.755 28.5089 167.267 27.9062Z" fill="#714637"/>
<path d="M169.467 30.882C176.245 31.2074 180.52 34.482 182.291 40.706C182.365 40.9727 182.541 41.1033 182.819 41.098C191.715 40.794 199.907 47.106 201.563 55.826C201.611 56.0927 201.768 56.2634 202.035 56.338C208.923 58.234 211.515 62.914 212.179 69.65C212.205 69.9274 212.347 70.114 212.603 70.21C218.603 72.394 222.867 76.362 219.099 83.194C218.95 83.4631 218.899 83.7748 218.953 84.0764C219.007 84.3781 219.163 84.6513 219.395 84.85C224.968 89.6127 226.216 95.418 223.139 102.266C223.027 102.522 223.032 102.775 223.155 103.026C225.483 107.634 229.123 111.426 224.787 116.338C224.529 116.63 224.386 117.005 224.383 117.395C224.38 117.785 224.517 118.162 224.771 118.458C226.899 120.93 224.707 124.842 222.867 127.37C222.152 127.354 221.749 127.621 221.659 128.17C221.64 128.287 221.591 128.396 221.515 128.487C221.439 128.578 221.341 128.647 221.229 128.686C221.118 128.725 220.998 128.734 220.882 128.711C220.766 128.687 220.658 128.633 220.571 128.554C213.349 122.037 207.373 114.858 202.643 107.018C200.307 103.154 198.355 98.57 196.387 94.226C192.547 85.762 185.947 79.138 181.771 70.858C180.917 69.1673 180.008 67.4154 179.043 65.602L175.403 51.818C174.949 47.2154 173.896 42.5167 172.243 37.722C172.093 37.2954 171.573 36.186 170.683 34.394C170.144 33.3114 169.739 32.1407 169.467 30.882Z" fill="#8C5541"/>
<path d="M84.4668 52.6664C78.6508 52.7624 68.9868 48.6424 78.8748 42.5784C91.4188 34.8984 108.115 31.7144 122.659 32.0424C125.235 32.0984 135.707 34.0744 131.675 38.3384C122.019 48.5864 97.8668 52.4424 84.4668 52.6664Z" fill="#CB9278"/>
<path d="M64.3466 54.314C68.3306 50.8527 72.4612 50.6927 76.7386 53.834C76.8489 53.915 76.9412 54.018 77.0099 54.1365C77.0786 54.255 77.1222 54.3866 77.1379 54.5231C77.1537 54.6596 77.1413 54.798 77.1015 54.93C77.0617 55.0619 76.9953 55.1844 76.9066 55.29C73.7626 59.042 67.0506 60.346 64.1546 55.466C63.8986 55.0287 63.9626 54.6447 64.3466 54.314Z" fill="#CB9278"/>
<path d="M175.403 51.818L179.043 65.602C179.16 71.522 180 77.2793 181.563 82.874C183.136 88.4846 185.056 92.8206 187.323 95.882C193.923 104.786 196.915 110.73 197.363 120.706C197.373 120.963 197.45 121.214 197.587 121.434L198.891 123.506C197.6 124.423 196.552 125.906 195.747 127.954C196.867 118.906 195.827 110.434 191.211 103.394C188.619 99.45 184.067 93.834 181.563 89.162C177.475 81.538 175.307 73.138 173.435 64.722C173.365 64.402 173.232 64.3726 173.035 64.634C167.525 71.722 160.547 77.1673 152.099 80.97C136.003 88.218 120.259 92.658 103.219 97.522C94.5573 98.7806 86.52 101.554 79.1067 105.842C72.184 108.813 66.9547 113.295 63.4187 119.29C62.2133 121.327 61.5093 123.807 61.3067 126.73L61.0267 130.714C60.9947 131.157 60.9147 131.165 60.7867 130.738C59.3387 126.05 57.3867 120.778 51.1227 122.602C33.6507 127.698 41.9787 159.034 64.3307 151.362C64.5489 151.288 64.7869 151.298 64.9984 151.389C65.2099 151.481 65.3796 151.648 65.4747 151.858C74.1707 171.578 91.3947 184.058 112.099 188.914L109.027 190.146C107.645 190.093 106.125 190.434 104.467 191.17L100.179 191.914L95.6347 193.01C92.1573 191.842 89.6587 189.877 88.1387 187.114C88.016 186.885 87.824 186.797 87.5627 186.85C82.736 187.874 78.6293 186.669 75.2427 183.234C75.0453 183.031 74.808 182.938 74.5307 182.954C68.4187 183.202 61.8507 183.658 61.4027 175.61C61.376 175.135 61.1307 174.951 60.6667 175.058C56.4107 176.029 53.1147 174.797 50.7787 171.362C50.624 171.133 50.4053 171.021 50.1227 171.026C44.5547 171.111 42.1387 168.365 42.8747 162.786C42.9016 162.592 42.8628 162.393 42.7644 162.223C42.666 162.052 42.5134 161.918 42.3307 161.842C37.52 159.895 35.7653 156.311 37.0667 151.09C37.136 150.813 37.0587 150.581 36.8347 150.394C34.4507 148.447 33.1867 145.978 33.0427 142.986C32.9467 141.154 34.7147 139.546 32.4267 137.826C32.2187 137.671 32.0854 137.471 32.0267 137.226C31.4347 134.789 31.6693 132.442 32.7307 130.186C32.8905 129.844 32.9639 129.468 32.9444 129.091C32.9248 128.714 32.813 128.349 32.6187 128.026L30.0347 123.738C31.5973 124.463 32.696 125.671 33.3307 127.362C33.355 127.424 33.3941 127.48 33.4447 127.524C33.4952 127.568 33.5556 127.6 33.6209 127.615C33.6861 127.631 33.7541 127.631 33.8192 127.615C33.8843 127.598 33.9445 127.567 33.9947 127.522L36.0667 125.73C36.2373 125.581 36.4373 125.522 36.6667 125.554C38.5173 125.821 40.3573 125.941 42.1867 125.914C44.8427 125.882 45.3627 124.93 47.2827 123.37C49.6667 121.434 52.8667 122.906 51.7467 117.938C48.2587 102.426 72.2667 97.034 82.2107 94.114C87.6133 92.53 92.2453 91.0366 96.1067 89.634C110.416 84.434 124.904 79.7726 139.571 75.65C147.795 73.338 156.211 70.386 162.219 66.298C166.528 63.3646 169.133 61.2313 170.035 59.898C171.789 57.29 173.579 54.5966 175.403 51.818Z" fill="#532E25"/>
<path d="M195.747 127.954C194.659 122.402 192.965 117.178 190.667 112.282C187.835 106.234 182.843 100.026 178.619 94.21C175.547 89.986 172.736 85.6501 170.187 81.2021C170.106 81.0642 169.976 80.9625 169.823 80.9179C169.669 80.8733 169.505 80.8891 169.363 80.962C161.683 84.874 154.747 87.658 145.731 90.234C139.117 92.122 132.701 94.1647 126.483 96.362L104.787 103.466C104.525 103.551 104.272 103.533 104.027 103.41C103.611 103.207 103.168 103.117 102.699 103.138L103.219 97.522C120.259 92.658 136.003 88.218 152.099 80.97C160.547 77.1674 167.525 71.722 173.035 64.634C173.232 64.3727 173.365 64.402 173.435 64.722C175.307 73.138 177.475 81.538 181.563 89.162C184.067 93.834 188.619 99.4501 191.211 103.394C195.827 110.434 196.867 118.906 195.747 127.954Z" fill="#DB926F"/>
<path d="M179.043 65.6024C180.008 67.4157 180.918 69.1677 181.771 70.8583C185.947 79.1384 192.547 85.7624 196.387 94.2264C198.355 98.5704 200.307 103.154 202.643 107.018C207.374 114.858 213.35 122.037 220.571 128.554C220.659 128.634 220.766 128.688 220.882 128.711C220.998 128.734 221.118 128.726 221.229 128.686C221.341 128.647 221.44 128.578 221.515 128.488C221.591 128.397 221.641 128.287 221.659 128.17C221.75 127.621 222.152 127.354 222.867 127.37L222.227 129.122C222.185 129.231 222.17 129.348 222.184 129.465C222.198 129.582 222.24 129.695 222.307 129.794C224.611 133.229 224.454 136.504 221.835 139.618C221.632 139.858 221.592 140.122 221.715 140.41C222.36 141.92 222.555 143.429 222.299 144.938C221.899 144.866 221.675 144.922 221.547 145.362C220.928 147.533 219.72 149.024 217.923 149.834C217.507 150.021 217.328 149.888 217.387 149.434L217.811 145.986C217.822 145.906 217.862 145.885 217.931 145.922C218.086 145.997 218.166 146.008 218.171 145.954C218.587 143.314 217.616 141.608 215.259 140.834C214.976 140.738 214.84 140.541 214.851 140.242C214.883 139.522 215.651 135.01 214.099 135.538C213.515 128.538 206.819 119.482 198.891 123.506L197.587 121.434C197.451 121.214 197.373 120.963 197.363 120.706C196.915 110.73 193.923 104.786 187.323 95.8823C185.056 92.821 183.136 88.485 181.563 82.8744C180 77.2797 179.16 71.5224 179.043 65.6024Z" fill="#714637"/>
<path d="M195.747 127.954C196.552 125.906 197.6 124.423 198.891 123.506C206.819 119.482 213.515 128.538 214.099 135.538C214.307 148.042 204.067 155.21 192.307 151.826C192.04 151.746 191.848 151.831 191.731 152.082C182.091 172.194 165.491 184.258 143.779 189.122C137.864 190.583 132.254 191.327 126.947 191.354L127.467 177.77C131.899 177.743 136.006 176.501 139.787 174.042C144.219 171.314 150.707 164.186 150.003 158.386C149.523 154.378 146.779 153.906 143.251 154.602C139.806 155.285 136.344 155.919 132.867 156.506C132.611 155.669 132.112 155.002 131.371 154.506C131.168 154.366 130.927 154.296 130.683 154.306C129.675 154.343 129.08 153.882 128.899 152.922C128.83 152.527 128.987 152.285 129.371 152.194L130.299 151.97C130.42 151.943 130.53 151.88 130.615 151.79C130.7 151.701 130.757 151.587 130.778 151.465C130.799 151.342 130.784 151.215 130.735 151.1C130.685 150.986 130.603 150.887 130.499 150.818L129.995 150.49C133.675 149.919 135.643 147.887 135.899 144.394C135.92 144.101 135.798 143.89 135.531 143.762C135.328 143.661 135.086 143.661 134.803 143.762C133.403 140.506 126.651 138.506 126.667 135.938C126.758 122.887 126.696 109.695 126.483 96.362C132.702 94.1647 139.118 92.122 145.731 90.234C154.747 87.658 161.683 84.874 169.363 80.962C169.505 80.889 169.669 80.8732 169.823 80.9179C169.976 80.9625 170.106 81.0642 170.187 81.202C172.736 85.65 175.547 89.986 178.619 94.21C182.843 100.026 187.835 106.234 190.667 112.282C192.966 117.178 194.659 122.402 195.747 127.954ZM156.667 94.962C151.435 93.914 150.411 101.066 153.307 103.346C154.288 104.119 155.944 104.623 158.275 104.858C163.816 105.407 169.435 106.266 175.131 107.434C175.346 107.478 175.57 107.464 175.778 107.393C175.986 107.323 176.172 107.198 176.316 107.032C176.46 106.866 176.557 106.664 176.598 106.448C176.638 106.232 176.621 106.009 176.547 105.802C174.507 100.098 162.011 96.034 156.667 94.962ZM149.235 132.57C151.699 147.378 169.387 146.746 175.867 135.106C176.587 133.618 177.603 132.45 178.915 131.602C179.123 131.474 179.208 131.287 179.171 131.042C179.011 129.866 178.499 127.594 180.339 127.474C180.386 127.472 180.432 127.461 180.474 127.44C180.517 127.42 180.555 127.391 180.586 127.355C180.618 127.319 180.642 127.277 180.657 127.232C180.672 127.186 180.678 127.138 180.675 127.09L180.635 126.634C180.63 126.574 180.612 126.515 180.582 126.463C180.552 126.41 180.511 126.365 180.462 126.331C180.413 126.296 180.357 126.273 180.298 126.264C180.24 126.254 180.18 126.257 180.123 126.274C179.302 126.498 178.76 126.37 178.499 125.89C175.859 121.111 172.147 117.938 167.363 116.37C159.643 113.842 152.227 115.77 149.243 123.922C148.166 126.861 148.163 129.743 149.235 132.57ZM208.963 135.01C207.419 130.642 203.187 127.41 198.491 129.25C198.407 129.273 198.336 129.329 198.293 129.405C198.25 129.481 198.24 129.57 198.263 129.654C198.286 129.738 198.342 129.809 198.418 129.852C198.493 129.894 198.583 129.905 198.667 129.882C203.494 129.077 206.875 130.807 208.811 135.074C208.819 135.094 208.836 135.11 208.856 135.118C208.876 135.127 208.899 135.127 208.919 135.118C208.939 135.11 208.955 135.093 208.963 135.073C208.972 135.053 208.971 135.03 208.963 135.01ZM184.275 151.7C184.269 150.952 183.976 150.214 183.411 149.526C182.845 148.839 182.02 148.217 180.98 147.695C179.941 147.174 178.709 146.763 177.354 146.486C175.999 146.209 174.548 146.072 173.083 146.082C170.126 146.103 167.293 146.723 165.209 147.805C163.125 148.888 161.961 150.345 161.971 151.856C161.976 152.604 162.27 153.343 162.835 154.03C163.401 154.717 164.226 155.339 165.266 155.861C166.305 156.382 167.537 156.793 168.892 157.07C170.247 157.347 171.698 157.484 173.163 157.474C176.12 157.453 178.953 156.833 181.036 155.751C183.12 154.668 184.285 153.211 184.275 151.7Z" fill="#EEA57F"/>
<path d="M153.307 103.346C150.411 101.066 151.435 93.914 156.667 94.962C162.011 96.034 174.507 100.098 176.547 105.802C176.621 106.009 176.638 106.232 176.598 106.448C176.557 106.664 176.46 106.866 176.316 107.032C176.171 107.198 175.986 107.323 175.778 107.393C175.569 107.464 175.346 107.478 175.131 107.434C169.435 106.266 163.816 105.407 158.275 104.858C155.944 104.623 154.288 104.119 153.307 103.346Z" fill="#6D3521"/>
<path d="M126.483 96.3625C126.696 109.696 126.758 122.888 126.667 135.938C126.651 138.506 133.403 140.506 134.803 143.762C132.795 148.666 126.083 148.93 123.891 144.114C123.853 144.029 123.79 143.956 123.71 143.907C123.63 143.859 123.537 143.836 123.443 143.842C123.35 143.848 123.26 143.883 123.187 143.942C123.114 144 123.061 144.08 123.035 144.17C122.267 146.794 122.878 148.57 124.867 149.498C126.419 150.218 128.227 150.77 129.995 150.49L130.499 150.818C130.603 150.888 130.685 150.986 130.735 151.101C130.784 151.216 130.799 151.343 130.778 151.465C130.757 151.588 130.7 151.701 130.615 151.791C130.53 151.881 130.42 151.943 130.299 151.97L129.371 152.194C128.987 152.285 128.83 152.528 128.899 152.922C129.08 153.882 129.675 154.344 130.683 154.306C130.927 154.296 131.168 154.367 131.371 154.506C132.112 155.002 132.611 155.669 132.867 156.506C126.888 156.874 119.494 156.445 110.683 155.218C108.934 154.973 107.592 155.538 106.659 156.914C103.795 161.154 110.707 169.562 113.867 171.97C117.808 175.224 122.342 177.157 127.467 177.77L126.947 191.354C121.534 191.05 116.584 190.237 112.099 188.914C91.3949 184.058 74.1709 171.578 65.4749 151.858C65.3798 151.649 65.21 151.481 64.9986 151.39C64.7871 151.298 64.5491 151.288 64.3309 151.362C41.9789 159.034 33.6509 127.698 51.1229 122.602C57.3869 120.778 59.3389 126.05 60.7869 130.738C60.9149 131.165 60.9949 131.157 61.0269 130.714L61.3069 126.73L62.4029 126.154C62.6429 126.026 62.8029 125.832 62.8829 125.57C65.2429 118.018 73.5149 113.17 79.2269 109.634C79.4189 109.512 79.5522 109.344 79.6269 109.13L80.0429 107.898C86.3575 106.853 92.6802 105.909 99.0109 105.066C100.494 104.869 101.723 104.226 102.699 103.138C103.168 103.117 103.611 103.208 104.027 103.41C104.272 103.533 104.526 103.552 104.787 103.466L126.483 96.3625ZM80.0909 134.074C81.5415 137.093 83.2855 139.357 85.3229 140.866C93.5549 146.962 105.371 142.922 106.779 132.322C109.035 112.874 89.0029 111.146 79.3389 122.618C78.4669 123.658 77.8589 125.394 76.1229 125.866C75.9621 125.91 75.8154 125.995 75.6973 126.113C75.5792 126.23 75.4937 126.377 75.4493 126.537C75.4049 126.698 75.4031 126.867 75.4441 127.029C75.485 127.19 75.5673 127.338 75.6829 127.458C76.0509 127.842 76.5149 128.002 77.0749 127.938C77.3575 127.906 77.4642 128.026 77.3949 128.298L76.6269 131.458C76.6104 131.522 76.6072 131.588 76.6175 131.652C76.6279 131.716 76.6514 131.778 76.6868 131.833C76.7221 131.888 76.7684 131.935 76.8228 131.971C76.8773 132.007 76.9386 132.031 77.0029 132.042C78.5122 132.309 79.5415 132.986 80.0909 134.074ZM59.0109 128.546C57.6269 127.698 50.6909 129.138 49.8669 130.738C49.6855 131.085 49.7389 131.125 50.0269 130.858C52.1629 128.874 55.4109 128.858 58.8829 128.962C59.4375 128.978 59.4802 128.84 59.0109 128.546ZM47.1058 135.817C47.1282 135.826 47.1637 135.801 47.2103 135.744C47.2569 135.687 47.3135 135.598 47.3771 135.483C47.4406 135.369 47.5098 135.23 47.5807 135.075C47.6515 134.921 47.7227 134.753 47.7901 134.582C47.9261 134.236 48.0386 133.898 48.1027 133.641C48.1669 133.384 48.1774 133.23 48.132 133.212C48.1095 133.203 48.074 133.228 48.0274 133.285C47.9809 133.342 47.9242 133.431 47.8607 133.546C47.7971 133.66 47.7279 133.799 47.6571 133.954C47.5862 134.108 47.5151 134.276 47.4477 134.447C47.3116 134.792 47.1991 135.131 47.135 135.388C47.0709 135.645 47.0604 135.799 47.1058 135.817ZM92.2745 151.237C92.268 150.501 91.9859 149.774 91.444 149.099C90.9022 148.423 90.1113 147.811 89.1166 147.299C88.1218 146.787 86.9426 146.384 85.6464 146.114C84.3502 145.843 82.9623 145.711 81.5619 145.723C78.7338 145.747 76.0266 146.362 74.036 147.431C72.0454 148.5 70.9343 149.936 70.9473 151.424C70.9537 152.16 71.2359 152.887 71.7777 153.562C72.3195 154.238 73.1104 154.849 74.1052 155.362C75.0999 155.874 76.2791 156.276 77.5753 156.547C78.8715 156.818 80.2595 156.95 81.6598 156.938C84.488 156.914 87.1951 156.299 89.1858 155.23C91.1764 154.161 92.2874 152.725 92.2745 151.237Z" fill="#F9B694"/>
<path d="M103.219 97.5223L102.699 103.138C101.723 104.226 100.494 104.869 99.0109 105.066C92.6803 105.909 86.3576 106.853 80.0429 107.898C79.6376 107.749 79.3256 107.064 79.1069 105.842C86.5203 101.554 94.5576 98.7809 103.219 97.5223Z" fill="#6D3521"/>
<path d="M79.1071 105.842C79.3258 107.064 79.6378 107.749 80.0431 107.898L79.6271 109.13C79.5525 109.344 79.4191 109.512 79.2271 109.634C73.5151 113.17 65.2431 118.018 62.8831 125.57C62.8031 125.832 62.6431 126.026 62.4031 126.154L61.3071 126.73C61.5098 123.808 62.2138 121.328 63.4191 119.29C66.9551 113.296 72.1845 108.813 79.1071 105.842Z" fill="#DB926F"/>
<path d="M175.867 135.106C177.915 128.938 174.667 123.354 169.259 120.514C168.027 119.522 166.699 118.946 165.275 118.786C165.223 118.775 165.168 118.784 165.123 118.811C165.077 118.838 165.044 118.882 165.029 118.933C165.015 118.985 165.021 119.039 165.046 119.086C165.07 119.134 165.112 119.169 165.163 119.186L169.067 120.906C173.504 127.648 172.595 133.498 166.339 138.458C169.251 135.722 170.773 132.746 170.907 129.53C171.035 126.386 170.067 121.97 166.779 120.914C166.459 120.813 166.376 120.912 166.531 121.21C174.003 135.546 153.107 139.634 154.131 126.698C154.152 126.437 154.032 126.322 153.771 126.354C153.36 126.408 153.048 126.269 152.835 125.938C153.032 125.362 153.072 124.821 152.955 124.314C152.848 123.866 152.677 123.842 152.443 124.242C150.944 126.792 149.875 129.568 149.235 132.57C148.163 129.744 148.165 126.861 149.243 123.922C152.227 115.77 159.643 113.842 167.363 116.37C172.147 117.938 175.859 121.112 178.499 125.89C178.76 126.37 179.301 126.498 180.123 126.274C180.18 126.258 180.239 126.254 180.298 126.264C180.357 126.274 180.413 126.297 180.462 126.331C180.511 126.366 180.552 126.411 180.582 126.463C180.611 126.516 180.63 126.574 180.635 126.634L180.675 127.09C180.678 127.138 180.672 127.187 180.657 127.232C180.641 127.277 180.617 127.319 180.586 127.355C180.555 127.391 180.517 127.42 180.474 127.44C180.432 127.461 180.386 127.472 180.339 127.474C178.499 127.594 179.011 129.866 179.171 131.042C179.208 131.288 179.123 131.474 178.915 131.602C177.603 132.45 176.587 133.618 175.867 135.106ZM159.536 120.379C159.363 120.078 159.125 119.819 158.836 119.616C158.547 119.412 158.213 119.269 157.851 119.194C157.49 119.119 157.11 119.113 156.731 119.178C156.353 119.242 155.984 119.375 155.647 119.57C155.309 119.764 155.008 120.016 154.762 120.31C154.516 120.605 154.329 120.936 154.213 121.286C154.096 121.636 154.052 121.997 154.082 122.349C154.112 122.701 154.217 123.037 154.39 123.338C154.562 123.638 154.8 123.898 155.089 124.101C155.378 124.304 155.713 124.448 156.074 124.523C156.435 124.598 156.816 124.603 157.194 124.539C157.572 124.475 157.941 124.341 158.279 124.147C158.617 123.953 158.917 123.701 159.163 123.407C159.409 123.112 159.596 122.78 159.713 122.431C159.829 122.081 159.874 121.719 159.843 121.367C159.813 121.015 159.708 120.679 159.536 120.379Z" fill="#010100"/>
<path d="M106.779 132.322L104.243 125.618C104.157 125.378 104.003 125.317 103.779 125.434C103.379 125.65 104.011 129.026 103.963 129.834C103.211 130.421 102.912 129.658 103.067 127.546C103.077 127.494 103.067 127.44 103.038 127.396C103.008 127.352 102.963 127.321 102.911 127.31C102.859 127.3 102.805 127.31 102.76 127.339C102.716 127.369 102.685 127.414 102.675 127.466C101.763 130.33 100.259 134.226 97.3388 134.818C90.5548 136.186 86.1868 130.018 88.3868 123.722C88.4774 123.456 88.6294 123.229 88.8428 123.042L90.2508 121.802C90.3065 121.752 90.3508 121.691 90.381 121.622C90.4111 121.554 90.4263 121.479 90.4255 121.405C90.4248 121.33 90.4081 121.256 90.3766 121.188C90.3451 121.12 90.2994 121.059 90.2428 121.01C89.7841 120.61 89.5121 120.117 89.4268 119.53C89.3841 119.205 89.2001 119.069 88.8748 119.122C88.4748 119.186 88.1601 119.376 87.9308 119.69C81.5361 122.57 78.9228 127.365 80.0908 134.074C79.5414 132.986 78.5121 132.309 77.0028 132.042C76.9385 132.031 76.8772 132.007 76.8227 131.971C76.7683 131.935 76.722 131.888 76.6867 131.833C76.6513 131.778 76.6278 131.716 76.6174 131.652C76.6071 131.587 76.6103 131.521 76.6268 131.458L77.3948 128.298C77.4641 128.026 77.3574 127.906 77.0748 127.938C76.5148 128.002 76.0508 127.842 75.6828 127.458C75.5672 127.338 75.4849 127.19 75.444 127.029C75.403 126.867 75.4048 126.698 75.4492 126.537C75.4936 126.376 75.5791 126.23 75.6972 126.112C75.8153 125.995 75.9619 125.91 76.1228 125.866C77.8588 125.394 78.4668 123.658 79.3388 122.618C89.0028 111.146 109.035 112.874 106.779 132.322ZM101.7 123.368C101.857 123.068 101.945 122.736 101.961 122.392C101.976 122.048 101.919 121.698 101.791 121.362C101.664 121.026 101.469 120.71 101.218 120.434C100.967 120.157 100.665 119.924 100.328 119.749C99.6488 119.396 98.8719 119.297 98.1684 119.476C97.465 119.654 96.8925 120.095 96.5771 120.701C96.4209 121.001 96.3325 121.332 96.3169 121.677C96.3013 122.021 96.3589 122.371 96.4863 122.707C96.6137 123.043 96.8085 123.358 97.0595 123.635C97.3106 123.912 97.6129 124.144 97.9493 124.319C98.6287 124.673 99.4056 124.771 100.109 124.593C100.813 124.415 101.385 123.974 101.7 123.368Z" fill="#160807"/>
<path d="M169.259 120.514C169.088 120.568 169.024 120.698 169.067 120.906L165.163 119.186C165.113 119.169 165.071 119.133 165.046 119.086C165.021 119.039 165.015 118.984 165.03 118.933C165.044 118.882 165.077 118.838 165.123 118.811C165.169 118.783 165.223 118.775 165.275 118.786C166.699 118.946 168.027 119.522 169.259 120.514Z" fill="#532E25"/>
<path d="M103.963 129.834C105.747 140.482 90.2907 144.13 85.8987 134.122C83.6321 128.949 84.3094 124.138 87.9307 119.69C88.16 119.376 88.4747 119.186 88.8747 119.122C89.2001 119.069 89.3841 119.205 89.4267 119.53C89.5121 120.117 89.7841 120.61 90.2427 121.01C90.2994 121.059 90.345 121.12 90.3765 121.188C90.408 121.256 90.4247 121.329 90.4255 121.404C90.4262 121.479 90.4111 121.554 90.3809 121.622C90.3508 121.691 90.3064 121.752 90.2507 121.802L88.8427 123.042C88.6294 123.229 88.4774 123.456 88.3867 123.722C86.1867 130.018 90.5547 136.186 97.3387 134.818C100.259 134.226 101.763 130.33 102.675 127.466C102.685 127.414 102.716 127.369 102.76 127.339C102.805 127.31 102.859 127.3 102.911 127.31C102.963 127.321 103.008 127.352 103.038 127.396C103.067 127.44 103.077 127.494 103.067 127.546C102.912 129.658 103.211 130.421 103.963 129.834Z" fill="#A84342"/>
<path d="M158.279 124.147C159.7 123.33 160.262 121.643 159.536 120.379C158.809 119.115 157.068 118.753 155.647 119.57C154.226 120.387 153.663 122.074 154.39 123.338C155.117 124.602 156.858 124.964 158.279 124.147Z" fill="#FEFDFE"/>
<path d="M97.9494 124.319C99.3641 125.056 101.044 124.63 101.701 123.368C102.357 122.106 101.743 120.486 100.328 119.749C98.9135 119.013 97.2341 119.439 96.5771 120.701C95.9202 121.962 96.5346 123.583 97.9494 124.319Z" fill="#FEFDFE"/>
<path d="M87.9309 119.69C84.3096 124.138 83.6322 128.949 85.8989 134.122C90.2909 144.13 105.747 140.482 103.963 129.834C104.011 129.026 103.379 125.65 103.779 125.434C104.003 125.317 104.158 125.378 104.243 125.618L106.779 132.322C105.371 142.922 93.5549 146.962 85.3229 140.866C83.2856 139.357 81.5416 137.093 80.0909 134.074C78.9229 127.365 81.5362 122.57 87.9309 119.69Z" fill="#FEFDFE"/>
<path d="M169.259 120.514C174.667 123.354 177.915 128.938 175.867 135.106C169.387 146.746 151.699 147.378 149.235 132.57C149.875 129.567 150.944 126.791 152.443 124.242C152.677 123.842 152.848 123.866 152.955 124.314C153.072 124.821 153.032 125.362 152.835 125.938C151.003 131.762 152.411 138.146 158.995 139.818C161.688 140.501 164.136 140.047 166.339 138.458C172.595 133.498 173.504 127.647 169.067 120.906C169.024 120.698 169.088 120.567 169.259 120.514Z" fill="#FEFDFE"/>
<path d="M166.339 138.458C164.136 140.048 161.688 140.501 158.995 139.818C152.411 138.146 151.003 131.762 152.835 125.938C153.048 126.269 153.36 126.408 153.771 126.354C154.032 126.322 154.152 126.437 154.131 126.698C153.107 139.634 174.003 135.546 166.531 121.21C166.376 120.912 166.459 120.813 166.779 120.914C170.067 121.97 171.035 126.386 170.907 129.53C170.773 132.746 169.251 135.722 166.339 138.458Z" fill="#6D3521"/>
<path d="M49.8668 130.738C50.6908 129.138 57.6268 127.698 59.0108 128.546C59.4801 128.839 59.4375 128.978 58.8828 128.962C55.4108 128.858 52.1628 128.874 50.0268 130.858C49.7388 131.125 49.6855 131.085 49.8668 130.738Z" fill="#C77F62"/>
<path d="M198.491 129.25C203.187 127.41 207.419 130.642 208.963 135.01C208.971 135.031 208.972 135.053 208.963 135.074C208.955 135.094 208.939 135.11 208.919 135.118C208.899 135.127 208.876 135.127 208.856 135.119C208.836 135.111 208.819 135.095 208.811 135.074C206.875 130.808 203.494 129.077 198.667 129.882C198.583 129.906 198.494 129.895 198.418 129.852C198.342 129.809 198.286 129.738 198.263 129.654C198.24 129.571 198.251 129.481 198.293 129.405C198.336 129.329 198.407 129.274 198.491 129.25Z" fill="#DB926F"/>
<path d="M47.4477 134.447C47.1643 135.166 47.0113 135.779 47.1058 135.817C47.2004 135.854 47.5067 135.301 47.7901 134.581C48.0735 133.862 48.2266 133.249 48.132 133.211C48.0375 133.174 47.7311 133.727 47.4477 134.447Z" fill="#DB926F"/>
<path d="M222.299 144.938C221.664 147.621 220.267 149.746 218.107 151.314C217.867 151.49 217.784 151.722 217.859 152.01C219.213 157.082 217.509 160.661 212.747 162.746C212.48 162.863 212.36 163.069 212.387 163.362C212.883 168.695 210.437 171.405 205.051 171.49C206.011 170.743 205.765 170.466 204.315 170.658C204.182 170.678 204.055 170.73 203.947 170.809C203.838 170.889 203.75 170.993 203.691 171.114C201.947 174.778 199.115 175.45 195.475 174.034C193.747 173.362 192.915 176.058 192.827 177.41C192.459 183.338 185.291 183.698 181.035 182.842C180.789 182.794 180.565 182.839 180.363 182.978L173.539 187.61C172.184 188.474 170.448 188.618 168.331 188.042C168.037 187.962 167.824 188.055 167.691 188.322C166.837 190.018 165.589 191.519 163.947 192.826L157.971 191.578L152.699 190.738L143.779 189.122C165.491 184.258 182.091 172.194 191.731 152.082C191.848 151.831 192.04 151.746 192.307 151.826C204.067 155.21 214.307 148.042 214.099 135.538C215.651 135.01 214.883 139.522 214.851 140.242C214.84 140.541 214.976 140.738 215.259 140.834C217.616 141.607 218.587 143.314 218.171 145.954C218.165 146.007 218.085 145.997 217.931 145.922C217.861 145.885 217.821 145.906 217.811 145.986L217.387 149.434C217.328 149.887 217.507 150.021 217.923 149.834C219.72 149.023 220.928 147.533 221.547 145.362C221.675 144.922 221.899 144.866 222.299 144.938Z" fill="#532E25"/>
<path d="M134.803 143.762C135.085 143.661 135.328 143.661 135.531 143.762C135.797 143.89 135.92 144.101 135.899 144.394C135.643 147.888 133.675 149.92 129.995 150.49C128.227 150.77 126.419 150.218 124.867 149.498C122.877 148.57 122.267 146.794 123.035 144.17C123.061 144.08 123.114 144 123.187 143.942C123.26 143.883 123.349 143.848 123.443 143.842C123.537 143.836 123.63 143.859 123.71 143.907C123.79 143.956 123.853 144.028 123.891 144.114C126.083 148.93 132.795 148.666 134.803 143.762Z" fill="#DB926F"/>
<path d="M81.6599 156.938C87.5492 156.887 92.3016 154.334 92.2746 151.237C92.2475 148.14 87.4514 145.671 81.562 145.723C75.6727 145.774 70.9203 148.326 70.9474 151.423C70.9744 154.52 75.7706 156.99 81.6599 156.938Z" fill="#F38270"/>
<path d="M173.162 157.474C179.321 157.431 184.296 154.846 184.274 151.7C184.252 148.555 179.242 146.039 173.083 146.082C166.924 146.125 161.949 148.71 161.971 151.856C161.993 155.002 167.003 157.517 173.162 157.474Z" fill="#F38270"/>
<path d="M139.787 174.042C137.435 171.744 134.72 170.336 131.643 169.818C131.386 169.772 131.16 169.632 131.011 169.426L130.875 169.242C130.768 169.098 130.624 169.016 130.443 168.994L119.715 167.642C119.4 167.6 119.248 167.738 119.259 168.058C119.264 168.24 119.315 168.392 119.411 168.514C119.747 168.914 119.664 169.184 119.163 169.323C117.211 169.867 115.446 170.749 113.867 171.97C110.707 169.562 103.795 161.154 106.659 156.914C107.592 155.538 108.934 154.973 110.683 155.218C119.494 156.445 126.888 156.874 132.867 156.506C136.344 155.92 139.806 155.285 143.251 154.602C146.779 153.906 149.523 154.378 150.003 158.386C150.707 164.186 144.219 171.314 139.787 174.042ZM107.715 161.29C111.787 170.026 148.899 168.714 148.203 161.306C148.118 160.389 147.627 160.029 146.731 160.226C133.179 163.17 121.595 162.706 108.043 160.85C107.664 160.797 107.555 160.944 107.715 161.29Z" fill="#A84342"/>
<path d="M148.203 161.306C148.899 168.714 111.787 170.026 107.715 161.29C107.555 160.944 107.664 160.797 108.043 160.85C121.595 162.706 133.179 163.17 146.731 160.226C147.627 160.029 148.117 160.389 148.203 161.306Z" fill="#FEFDFE"/>
<path d="M139.787 174.042C136.005 176.501 131.899 177.744 127.467 177.77C122.341 177.157 117.808 175.224 113.867 171.97C115.445 170.749 117.211 169.866 119.163 169.322C119.664 169.184 119.747 168.914 119.411 168.514C119.315 168.392 119.264 168.24 119.259 168.058C119.248 167.738 119.4 167.6 119.715 167.642L130.443 168.994C130.624 169.016 130.768 169.098 130.875 169.242L131.011 169.426C131.16 169.632 131.386 169.772 131.643 169.818C134.72 170.336 137.435 171.744 139.787 174.042Z" fill="#D56860"/>
<path d="M205.051 171.49C202.411 175.026 198.926 176.338 194.595 175.426C194.334 175.373 194.19 175.477 194.163 175.738C193.339 182.426 187.371 185.442 180.867 183.826C180.752 183.797 180.632 183.801 180.518 183.838C180.405 183.875 180.304 183.943 180.227 184.034C178.547 186.05 176.318 187.242 173.539 187.61L180.363 182.978C180.566 182.839 180.79 182.794 181.035 182.842C185.291 183.698 192.459 183.338 192.827 177.41C192.915 176.058 193.747 173.362 195.475 174.034C199.115 175.45 201.947 174.778 203.691 171.114C203.75 170.993 203.838 170.889 203.947 170.809C204.056 170.73 204.182 170.678 204.315 170.658C205.766 170.466 206.011 170.743 205.051 171.49Z" fill="#160807"/>
<path d="M112.098 188.914C116.584 190.237 121.533 191.05 126.946 191.354C132.253 191.327 137.864 190.583 143.778 189.122L152.698 190.738C148.805 201.975 140.88 207.701 128.922 207.914C128.789 207.445 128.581 207.077 128.298 206.81C128.231 206.742 128.179 206.661 128.147 206.573C128.115 206.484 128.104 206.39 128.114 206.298L129.13 197.85C129.168 197.546 129.034 197.386 128.73 197.37C121.429 197.013 114.861 194.605 109.026 190.146L112.098 188.914Z" fill="#DB926F"/>
<path d="M109.027 190.146C114.861 194.605 121.429 197.013 128.731 197.37C129.035 197.386 129.168 197.546 129.131 197.85L128.115 206.298C128.105 206.39 128.116 206.484 128.148 206.573C128.18 206.661 128.231 206.742 128.299 206.81C128.581 207.077 128.789 207.445 128.923 207.914C116.083 208.058 109.955 201.626 104.467 191.17C106.125 190.434 107.645 190.093 109.027 190.146Z" fill="#EEA57F"/>
<path d="M152.699 190.738L157.971 191.578C153.491 208.41 140.019 216.314 123.499 213.786C111.669 211.984 103.896 204.693 100.179 191.914L104.467 191.17C109.955 201.626 116.083 208.058 128.923 207.914C140.88 207.701 148.805 201.976 152.699 190.738Z" fill="#C15551"/>
<path d="M157.971 191.578L163.947 192.826C173.747 195.962 181.931 199.146 190.371 204.738C189.565 205.261 187.907 206.501 185.395 208.458C179.755 212.85 173.115 216.386 166.155 218.922C135.323 230.13 95.6107 227.202 70.0107 204.466C77.9147 199.463 86.4561 195.645 95.6347 193.01L100.179 191.914C103.896 204.693 111.669 211.983 123.499 213.786C140.019 216.314 153.491 208.41 157.971 191.578Z" fill="#E74F48"/>
<path d="M70.0109 204.466C95.6109 227.202 135.323 230.13 166.155 218.922C173.115 216.386 179.755 212.85 185.395 208.458C187.907 206.501 189.566 205.261 190.371 204.738L197.283 208.706C197.335 208.736 197.379 208.777 197.413 208.827C197.447 208.876 197.469 208.932 197.478 208.991C197.488 209.051 197.483 209.111 197.466 209.168C197.449 209.225 197.419 209.278 197.379 209.322C176.803 231.472 151.163 240.914 120.459 237.65C97.8589 235.25 79.4829 224.938 64.2509 209.018C64.1808 208.946 64.1277 208.859 64.0956 208.764C64.0636 208.669 64.0533 208.568 64.0656 208.468C64.0779 208.368 64.1124 208.272 64.1666 208.187C64.2208 208.103 64.2934 208.031 64.3789 207.978L70.0109 204.466Z" fill="#D1DEDE"/>
</svg>
