<svg width="256" height="256" viewBox="0 0 256 256" fill="none" xmlns="http://www.w3.org/2000/svg">
<path d="M38.6623 78.2594L40.2863 83.5634C40.3042 83.6212 40.3099 83.6821 40.3028 83.7423C40.2957 83.8024 40.2761 83.8604 40.2451 83.9124C40.2142 83.9645 40.1727 84.0094 40.1233 84.0444C40.0739 84.0794 40.0177 84.1036 39.9583 84.1154C30.7663 86.0434 24.6703 90.3154 32.8463 99.6034C32.9799 99.7566 33.0786 99.937 33.1355 100.132C33.1923 100.327 33.206 100.533 33.1756 100.734C33.1451 100.935 33.0712 101.126 32.9591 101.296C32.847 101.466 32.6993 101.609 32.5263 101.715C25.3263 106.155 29.9743 111.371 33.5183 115.875C33.7103 116.115 33.6676 116.307 33.3903 116.451C32.1343 117.091 30.4703 117.643 29.6143 118.587C27.0463 121.435 29.6543 124.451 32.2943 126.123C32.3444 126.155 32.3867 126.198 32.4182 126.248C32.4498 126.299 32.4697 126.355 32.4766 126.414C32.4835 126.473 32.4772 126.533 32.4581 126.589C32.439 126.646 32.4077 126.697 32.3663 126.739C29.9103 129.331 27.2943 131.131 28.1743 135.499C28.8223 138.715 31.9183 141.635 34.3423 144.611C34.5129 144.825 34.4916 145.017 34.2783 145.187C24.4223 153.067 36.9743 156.755 42.9583 155.819" stroke="#9F999D" stroke-width="2"/>
<path d="M42.958 155.82C47.902 160.578 53.7847 162.271 60.606 160.9C60.8833 160.847 61.0886 160.943 61.222 161.188C72.054 180.844 91.342 191.228 112.982 195.364" stroke="#D7B0A6" stroke-width="2"/>
<path d="M112.983 195.364C111.191 196.665 108.834 197.367 105.911 197.468" stroke="#CEA39D" stroke-width="2"/>
<path d="M105.91 197.469L101.878 198.525" stroke="#9B86B4" stroke-width="2"/>
<path d="M101.879 198.523C89.4947 200.699 76.1827 207.251 72.6947 220.419C72.6093 220.734 72.7213 220.947 73.0307 221.059L77.2147 222.547" stroke="#9BADC5" stroke-width="2"/>
<path d="M158.574 199.757L152.222 198.269" stroke="#8D9CBC" stroke-width="2"/>
<path d="M152.222 198.268L147.278 197.292" stroke="#9B86B4" stroke-width="2"/>
<path d="M147.278 197.292L139.814 195.572" stroke="#CEA39D" stroke-width="2"/>
<path d="M139.814 195.572C140.545 195.39 140.814 195.217 140.622 195.052" stroke="#D7B0A6" stroke-width="2"/>
<path d="M140.622 195.051C162.126 191.883 181.814 180.291 192.63 161.267C192.69 161.162 192.783 161.079 192.896 161.033C193.01 160.986 193.135 160.979 193.254 161.011C200.126 162.899 206.222 160.995 211.63 156.659" stroke="#CEA39D" stroke-width="2"/>
<path d="M211.63 156.661C216.43 157.951 220.555 157.357 224.006 154.877C228.07 151.949 224.542 148.733 222.598 146.253C222.529 146.16 222.493 146.046 222.497 145.932C222.502 145.818 222.546 145.711 222.622 145.629C227.942 139.813 232.254 135.437 224.654 128.437C224.613 128.399 224.58 128.352 224.558 128.301C224.536 128.249 224.525 128.193 224.527 128.137C224.528 128.081 224.542 128.026 224.567 127.975C224.591 127.925 224.627 127.88 224.67 127.845C230.622 122.981 227.55 120.389 222.534 117.525C222.482 117.495 222.438 117.454 222.404 117.404C222.37 117.355 222.348 117.299 222.338 117.24C222.329 117.18 222.333 117.12 222.351 117.063C222.368 117.005 222.398 116.953 222.438 116.909C226.126 112.789 230.462 107.293 222.966 103.621C222.834 103.555 222.718 103.462 222.628 103.346C222.537 103.23 222.473 103.096 222.442 102.953C222.41 102.81 222.411 102.662 222.445 102.52C222.479 102.377 222.545 102.245 222.638 102.132C229.174 94.1325 225.406 88.3725 216.19 87.0845C215.998 87.058 215.814 86.9877 215.654 86.8789C215.493 86.7702 215.36 86.6259 215.264 86.4573C215.168 86.2887 215.112 86.1002 215.101 85.9066C215.089 85.7129 215.123 85.5192 215.198 85.3405C216.518 82.1805 219.238 76.7165 216.99 73.7165C214.478 70.3565 209.438 72.1005 206.134 72.5805C206.002 72.5997 205.867 72.5786 205.747 72.5201C205.628 72.4616 205.528 72.3684 205.462 72.2525C205.062 71.5698 204.915 70.7405 205.022 69.7645C205.379 66.4152 205.299 62.9112 204.782 59.2525C203.742 51.9565 198.398 54.6685 193.638 55.3325C193.339 55.3752 193.134 55.2579 193.022 54.9805L191.478 51.2125" stroke="#969197" stroke-width="2"/>
<path d="M191.478 51.2125C191.228 49.6711 190.588 47.3511 189.558 44.2525C187.302 37.4525 182.878 39.8445 178.158 41.6045C177.914 41.6954 177.644 41.6888 177.404 41.5861C177.164 41.4833 176.973 41.2922 176.87 41.0525C175.814 38.6258 174.705 36.2098 173.542 33.8045C169.366 25.1965 165.222 28.4685 159.726 33.2045C159.508 33.3911 159.286 33.3938 159.062 33.2125L158.334 32.6045" stroke="#9F999D" stroke-width="2"/>
<path d="M158.334 32.6042C157.331 29.6015 155.897 26.8948 154.03 24.4842C149.374 18.4762 143.278 25.4362 140.334 28.9882C140.155 29.2019 139.926 29.3677 139.667 29.4703C139.408 29.5729 139.127 29.6092 138.851 29.5758C138.574 29.5424 138.31 29.4404 138.083 29.2791C137.856 29.1178 137.673 28.9023 137.55 28.6522C135.43 24.2842 132.382 16.1802 126.078 18.9722C122.47 20.5722 118.95 25.4602 116.95 29.0602C116.902 29.1457 116.836 29.2193 116.756 29.2759C116.676 29.3325 116.584 29.3706 116.486 29.3874C116.389 29.4042 116.289 29.3994 116.194 29.3732C116.098 29.3471 116.01 29.3003 115.934 29.2362C108.086 22.5082 101.622 16.3802 95.3821 30.0282C95.302 30.2007 95.1861 30.3542 95.042 30.4782C94.898 30.6022 94.7293 30.6939 94.5472 30.747C94.3652 30.8001 94.1741 30.8134 93.9869 30.786C93.7997 30.7586 93.6207 30.6911 93.4621 30.5882C89.2701 27.8522 84.1501 24.5962 81.0061 31.1882C79.7261 33.8762 79.0754 36.6975 79.0541 39.6522C79.0527 39.8211 79.0108 39.9872 78.9319 40.1366C78.853 40.286 78.7394 40.4142 78.6007 40.5106C78.462 40.607 78.3022 40.6688 78.1347 40.6906C77.9672 40.7125 77.7969 40.6938 77.6381 40.6362C74.2621 39.4362 69.8221 37.1002 67.1421 40.5722C65.3501 42.8922 64.4861 49.4442 63.3261 52.8842C63.2604 53.0816 63.155 53.2634 63.0162 53.4184C62.8774 53.5734 62.7083 53.6983 62.5193 53.7853C62.3303 53.8723 62.1255 53.9196 61.9175 53.9242C61.7095 53.9288 61.5028 53.8907 61.3101 53.8122C59.8808 53.2202 58.2674 52.6895 56.4701 52.2202C48.4781 50.1242 49.9101 65.1722 49.8541 69.1482C49.8536 69.2707 49.8256 69.3916 49.772 69.5018C49.7185 69.6121 49.6408 69.7088 49.5447 69.7849C49.4487 69.861 49.3367 69.9144 49.2171 69.9413C49.0976 69.9682 48.9735 69.9678 48.8541 69.9402C46.4541 69.3962 43.3421 68.1962 41.1661 68.7002C36.4461 69.8122 37.2541 75.0682 38.6621 78.2602" stroke="#A59EA1" stroke-width="2"/>
<path d="M158.335 32.6047C157.449 33.1701 156.705 33.9141 156.103 34.8367C155.953 35.0661 155.751 35.2341 155.495 35.3407C152.887 36.4607 150.332 37.6981 147.831 39.0527C147.578 39.1894 147.362 39.384 147.199 39.6208C146.303 40.9488 145.009 41.6367 143.319 41.6847C143.169 41.687 143.022 41.7234 142.887 41.7913C142.753 41.8592 142.635 41.9568 142.543 42.0768C141.092 43.9381 139.793 44.9434 138.647 45.0927C134.927 45.5807 133.383 48.9487 129.575 49.9407C127.313 50.5274 125.097 51.2634 122.927 52.1487C122.191 52.4527 121.679 53.1487 120.583 53.2127C119.543 53.2714 118.94 53.3221 118.775 53.3647C113.919 54.4607 111.063 52.4688 106.759 52.0688C100.495 51.4848 93.5906 55.0847 87.7346 57.2047C85.3186 58.0847 83.1586 60.0607 81.2546 63.1327C81.1213 63.346 80.9319 63.4421 80.6866 63.4208C77.4386 63.1408 77.9586 67.1168 74.2226 67.2208C73.9443 67.2313 73.6746 67.3111 73.4386 67.4527C70.5586 69.1541 67.9826 71.2128 65.7106 73.6288C63.6386 75.8288 61.2626 76.5888 58.6306 77.7248C58.3746 77.8368 58.1559 78.0021 57.9746 78.2208C57.3666 78.9781 56.5692 79.3914 55.5826 79.4607C55.3052 79.4821 55.0813 79.6021 54.9106 79.8208C54.1266 80.8128 53.0919 81.2581 51.8066 81.1567C51.5666 81.1354 51.3693 81.2181 51.2146 81.4047C50.3026 82.4821 49.1879 82.7167 47.8706 82.1087C47.7496 82.0521 47.6164 82.0261 47.4825 82.0331C47.3486 82.0401 47.2182 82.0798 47.1026 82.1487C46.6386 82.4314 46.2226 82.4341 45.8546 82.1567C45.6466 82.0021 45.4146 81.9301 45.1586 81.9407C44.5346 81.9727 43.9612 82.1674 43.4386 82.5248C43.2091 82.6814 42.9366 82.7676 42.6546 82.7728C40.3266 82.7968 40.7826 80.8928 39.9586 79.7248C39.5959 79.2074 39.1639 78.7194 38.6626 78.2607" stroke="#453840" stroke-width="2"/>
<path d="M191.478 51.2125C190.822 54.3165 191.276 57.1219 192.838 59.6285C192.994 59.8763 193.1 60.1527 193.148 60.4416C193.197 60.7305 193.187 61.0261 193.12 61.3113C193.053 61.5965 192.93 61.8655 192.758 62.1026C192.586 62.3397 192.368 62.5402 192.118 62.6925L188.422 64.9485C188.322 65.0101 188.239 65.0962 188.181 65.1985C188.124 65.3008 188.094 65.4158 188.094 65.5325V65.7325C188.094 66.0258 187.95 66.1672 187.662 66.1565C183.782 66.0365 188.198 72.7965 189.638 75.1645C189.67 75.2154 189.685 75.2755 189.679 75.3354C189.673 75.3953 189.648 75.4517 189.606 75.4956C189.565 75.5395 189.511 75.5685 189.451 75.5781C189.392 75.5876 189.331 75.5772 189.278 75.5485L188.566 75.1885C188.516 75.1637 188.46 75.152 188.404 75.1544C188.348 75.1567 188.293 75.1732 188.246 75.2021C188.199 75.231 188.16 75.2714 188.133 75.3195C188.107 75.3675 188.093 75.4216 188.094 75.4765V79.9565C188.094 80.0893 188.062 80.2199 188.001 80.337C187.94 80.4541 187.851 80.5542 187.742 80.6285C187.337 80.9005 187.132 81.2605 187.126 81.7085C187.126 81.9859 186.996 82.1752 186.734 82.2765C185.31 82.8365 183.614 82.8365 183.334 84.7805C183.046 86.7325 178.79 89.1245 181.566 91.3645C181.63 91.4163 181.681 91.4816 181.716 91.5556C181.751 91.6296 181.77 91.7105 181.77 91.7925C181.77 91.8745 181.751 91.9554 181.716 92.0295C181.681 92.1035 181.63 92.1688 181.566 92.2205L179.622 93.7965C179.572 93.8382 179.511 93.8651 179.446 93.874C179.381 93.8829 179.315 93.8735 179.255 93.8469C179.195 93.8203 179.144 93.7775 179.107 93.7234C179.07 93.6693 179.049 93.6059 179.046 93.5405C178.977 92.3352 178.278 91.6419 176.95 91.4605" stroke="#362C36" stroke-width="2"/>
<path d="M176.95 91.4601C176.161 90.2867 174.155 89.9107 170.934 90.3321C170.635 90.3694 170.363 90.3001 170.118 90.1241L169.142 89.4281" stroke="#6E3D3C" stroke-width="2"/>
<path d="M169.142 89.4289C167.014 86.8795 165.238 84.1035 163.814 81.1008C163.762 80.992 163.689 80.8949 163.598 80.8154C163.508 80.7358 163.402 80.6755 163.288 80.6381C163.173 80.6007 163.052 80.5869 162.932 80.5977C162.812 80.6085 162.696 80.6436 162.59 80.7008C160.95 81.5968 158.206 82.9728 156.326 82.7008C153.486 82.2848 149.646 74.8848 148.134 72.3328C148.032 72.16 147.897 72.0089 147.737 71.8883C147.576 71.7677 147.394 71.6799 147.201 71.6301C147.008 71.5802 146.807 71.5693 146.61 71.5979C146.413 71.6266 146.224 71.6942 146.054 71.7968C142.374 73.9888 137.198 77.1568 133.374 72.9168C132.046 71.4368 129.91 67.4128 127.526 68.5568C123.584 70.4395 119.878 70.7355 116.406 69.4448C115.646 69.1648 114.926 68.2848 114.046 67.9728C113.923 67.9294 113.79 67.9198 113.662 67.9451C113.534 67.9704 113.415 68.0298 113.318 68.1168C109.958 71.0768 107.878 72.8128 103.158 73.0848C102.786 73.1044 102.423 73.2117 102.1 73.3979C101.776 73.5841 101.5 73.8441 101.294 74.1568C99.2218 77.2848 96.7018 76.6848 93.4858 76.7728C93.355 76.7753 93.2272 76.813 93.116 76.882C93.0048 76.951 92.9142 77.0487 92.8539 77.1648C90.3499 81.9168 88.4378 86.4928 82.1258 85.4848C81.8425 85.4401 81.5525 85.4976 81.3078 85.6471C81.063 85.7966 80.8794 86.0283 80.7898 86.3008C78.3018 93.9088 76.9898 94.2848 69.7258 96.8288C69.6046 96.8694 69.4929 96.9352 69.3979 97.0219C69.3029 97.1087 69.2265 97.2145 69.1738 97.3328C68.2352 99.3915 67.5472 101.538 67.1099 103.773C66.5659 106.581 63.4938 107.709 61.4218 108.965C56.1898 112.133 54.9818 128.781 54.9898 133.797C54.9898 134.357 54.8832 134.378 54.6698 133.861C53.4432 130.906 52.1712 129.021 50.8539 128.205C45.6299 124.973 39.6299 130.493 38.2139 135.101C36.0699 142.082 37.2298 148.522 41.6938 154.421C41.8404 154.614 42.0369 154.764 42.2619 154.853C43.2059 155.221 43.4379 155.544 42.9579 155.821" stroke="#784B45" stroke-width="2"/>
<path d="M169.142 89.4281C169.195 91.0334 168.534 92.4654 167.158 93.7241C167.066 93.8099 166.991 93.9133 166.94 94.0282C166.888 94.1432 166.86 94.2673 166.857 94.3933C166.854 94.5193 166.876 94.6447 166.922 94.7619C166.968 94.8792 167.038 94.986 167.126 95.0761L173.174 101.292" stroke="#A75545" stroke-width="2"/>
<path d="M173.175 101.292C173.186 101.82 172.876 102.124 172.247 102.204" stroke="#AA5B4A" stroke-width="2"/>
<path d="M172.246 102.205C167.342 98.5648 151.358 92.3328 147.694 100.733C146.59 103.277 147.382 106.429 149.838 107.917C153.086 109.893 157.046 107.709 160.574 107.717C164.937 107.733 169.022 108.997 172.83 111.509" stroke="#7E5049" stroke-width="2"/>
<path d="M172.83 111.508C172.606 111.695 172.328 111.695 171.998 111.508C171.816 111.407 171.718 111.463 171.702 111.676C171.696 111.746 171.694 111.815 171.694 111.884C171.694 111.929 171.684 111.974 171.664 112.014C171.645 112.054 171.617 112.09 171.582 112.117C171.547 112.144 171.506 112.163 171.463 112.171C171.42 112.179 171.376 112.177 171.334 112.164C171.248 112.143 171.174 112.111 171.11 112.068C170.896 111.946 170.739 111.996 170.638 112.22C169.63 114.524 168.55 120.1 166.766 121.548" stroke="#AA5B4A" stroke-width="2"/>
<path d="M166.766 121.549C147.758 118.485 144.182 150.701 162.366 153.261" stroke="#D7B0A6" stroke-width="2"/>
<path d="M162.366 153.259C161.998 154.086 161.987 154.899 162.334 155.699C162.435 155.939 162.393 156.153 162.206 156.339C160.998 157.547 159.31 158.963 158.67 160.363C156.278 165.643 163.398 169.355 167.59 169.523C170.993 169.651 174.414 169.006 177.854 167.587" stroke="#AA5B4A" stroke-width="2"/>
<path d="M177.854 167.588C173.993 177.049 167.323 183.889 157.846 188.108C157.057 188.46 156.177 189.172 155.206 190.244C155.057 190.409 154.875 190.526 154.662 190.596L140.622 195.052" stroke="#A75545" stroke-width="2"/>
<path d="M139.815 195.572C128.239 196.404 122.071 195.916 112.983 195.364" stroke="#A75545" stroke-width="2"/>
<path d="M211.63 156.659C216.468 151.614 218.582 145.63 217.974 138.707C217.542 133.723 214.774 128.587 209.67 127.315C206.118 126.419 203.11 127.723 201.294 130.859C201.054 131.27 200.894 131.241 200.814 130.771C199.63 124.009 197.972 117.353 195.838 110.803C195.743 110.514 195.546 110.269 195.285 110.113C195.023 109.958 194.714 109.901 194.414 109.955C187.158 111.243 191.046 99.0593 184.518 98.8353C179.126 98.6433 178.878 95.8114 176.95 91.4594" stroke="#653636" stroke-width="2"/>
<path d="M177.855 167.588L180.799 153.532C180.823 153.409 180.88 153.295 180.965 153.202C181.049 153.109 181.158 153.041 181.279 153.004C184.607 151.988 188.031 152.836 191.159 153.612C191.344 153.658 191.537 153.666 191.726 153.635C191.915 153.604 192.095 153.536 192.257 153.433C192.418 153.331 192.557 153.197 192.666 153.039C192.774 152.882 192.849 152.704 192.887 152.516C194.721 142.964 194.873 133.77 193.343 124.932C192.583 120.532 190.287 118.924 187.519 116.044C184.247 112.628 182.359 108.54 178.527 105.244C177.095 104.02 174.807 103.14 173.175 101.292" stroke="#A14E41" stroke-width="2"/>
<path d="M162.366 153.26C179.934 150.94 183.798 128.508 166.766 121.548" stroke="#D1A9A2" stroke-width="2"/>
<path d="M172.247 102.205C176.543 105.893 181.031 110.389 182.167 116.141C182.396 117.298 182.004 117.898 180.991 117.941C180.681 117.951 180.38 117.849 180.143 117.653L172.831 111.509" stroke="#784945" stroke-width="2"/>
<path d="M147.279 197.292C145.415 211.508 124.567 210.78 114.975 207.428C109.847 205.644 107.119 202.612 105.911 197.468" stroke="#6B2B53" stroke-width="2"/>
<path d="M152.222 198.269C153.321 201.181 153.153 204.162 151.718 207.213C150.972 208.797 149.534 209.975 147.406 210.749" stroke="#2A2472" stroke-width="2"/>
<path d="M147.406 210.747C134.718 212.043 124.31 213.219 112.782 209.667C106.07 207.595 103.542 205.915 101.878 198.523" stroke="#38357B" stroke-width="2"/>
<path d="M165.054 226.236C136.55 234.492 104.902 232.412 77.2139 222.548" stroke="#839BBA" stroke-width="2"/>
<path d="M158.575 199.756C168.735 204.676 175.359 208.188 179.391 219.708C179.524 220.092 179.499 220.513 179.322 220.879C179.146 221.245 178.831 221.526 178.447 221.66L165.055 226.236" stroke="#758BB1" stroke-width="2"/>
<path d="M165.054 226.236C165.593 225.447 166.47 224.89 167.686 224.564C168.001 224.484 168.044 224.327 167.814 224.092C166.598 222.868 166.806 221.092 166.414 219.9C163.486 210.932 155.19 211.332 147.406 210.748" stroke="#294B82" stroke-width="2"/>
<path d="M95.6061 107.892C100.03 108.02 104.702 110.692 108.006 106.74C110.558 103.676 109.478 99.2443 105.91 97.5003C104.689 96.903 103.011 96.6257 100.878 96.6683C89.0861 96.9323 75.1981 104.26 73.2781 117.276C73.2504 117.473 73.2834 117.673 73.3725 117.85C73.4616 118.028 73.6027 118.174 73.7764 118.268C73.9502 118.362 74.1484 118.401 74.344 118.378C74.5397 118.355 74.7233 118.272 74.8701 118.14C80.7741 112.9 86.8381 107.636 95.6061 107.892Z" stroke="#7E5049" stroke-width="2"/>
<path d="M87.3665 151.837C107.558 160.037 110.102 123.485 93.1105 121.349C75.3745 119.117 71.1425 145.261 87.3665 151.837Z" stroke="#D7B0A6" stroke-width="2"/>
<path d="M47.9178 152.156C51.5258 155.132 57.4217 156.044 56.1817 148.988C55.4937 145.084 52.8698 134.796 49.1178 132.844C47.3684 131.926 45.7417 132.417 44.2377 134.316C39.8297 139.876 42.8298 147.948 47.9178 152.156Z" stroke="#A75545" stroke-width="2"/>
<path d="M124.718 158.621L124.694 156.413C124.691 156.267 124.648 156.125 124.569 156.003C124.49 155.881 124.378 155.784 124.247 155.722C124.116 155.66 123.971 155.637 123.828 155.654C123.685 155.672 123.55 155.729 123.438 155.821C122.51 156.573 122.353 157.418 122.966 158.357C123.121 158.597 123.339 158.725 123.622 158.741L124.454 158.781" stroke="#BF6E4E" stroke-width="2"/>
<path d="M124.455 158.78C123.815 159.761 123.66 160.854 123.991 162.06C124.055 162.284 124.204 162.414 124.439 162.452C126.812 162.82 128.657 162.35 129.975 161.044C134.615 156.43 134.479 151.972 129.567 147.668C128.937 147.113 128.268 146.982 127.559 147.276C127.503 147.297 127.454 147.333 127.417 147.38C127.379 147.426 127.354 147.481 127.344 147.54C127.335 147.599 127.34 147.66 127.361 147.716C127.382 147.772 127.417 147.821 127.463 147.86C131.663 151.324 128.887 156.772 124.719 158.62" stroke="#AA5B4A" stroke-width="2"/>
<path d="M124.455 158.78C124.583 158.77 124.671 158.716 124.719 158.62" stroke="#B9674A" stroke-width="2"/>
<path d="M72.0457 169.003C77.5711 172.63 83.2777 173.185 89.1657 170.667C93.3657 168.867 95.1657 164.619 92.2457 160.667C88.0857 155.019 78.4137 151.955 72.0537 155.323C66.4057 158.307 67.0457 165.723 72.0457 169.003Z" stroke="#AA5B4A" stroke-width="2"/>
<path d="M108.447 165.595C107.215 165.419 106.575 166.947 106.951 168.027C108.319 172.011 115.151 175.811 118.791 176.947C128.415 179.955 142.567 178.435 148.047 168.419C148.175 168.19 148.202 167.95 148.127 167.699C147.828 166.686 146.887 166.166 145.303 166.139" stroke="#623B34" stroke-width="2"/>
<path d="M145.303 166.14C132.919 167.044 123.199 168.052 111.111 163.884C110.06 163.521 109.172 164.092 108.447 165.596" stroke="#D7B0A6" stroke-width="2"/>
<path d="M145.303 166.141C137.599 178.277 116.583 175.717 108.447 165.597" stroke="#89898C" stroke-width="2"/>
<path d="M92.1607 152.615C93.5103 152.726 94.8757 152.484 96.1788 151.903C97.4818 151.323 98.6971 150.414 99.7553 149.23C100.813 148.047 101.694 146.61 102.346 145.003C102.998 143.397 103.409 141.651 103.556 139.865C103.703 138.08 103.582 136.291 103.201 134.599C102.82 132.907 102.186 131.346 101.336 130.005C100.485 128.665 99.4347 127.57 98.2439 126.784C97.0532 125.999 95.7457 125.537 94.396 125.426C93.0464 125.315 91.6811 125.557 90.378 126.138C89.075 126.718 87.8596 127.627 86.8015 128.81C85.7434 129.994 84.8631 131.431 84.211 133.038C83.559 134.644 83.1478 136.39 83.001 138.175C82.8543 139.961 82.9747 141.75 83.3556 143.442C83.7365 145.134 84.3703 146.695 85.2209 148.035C86.0715 149.376 87.1221 150.471 88.3128 151.256C89.5035 152.042 90.8111 152.504 92.1607 152.615Z" stroke="#838385" stroke-width="2"/>
<path d="M162.552 152.581C165.318 152.421 167.888 150.834 169.697 148.167C171.506 145.501 172.405 141.974 172.197 138.362C171.989 134.751 170.69 131.35 168.587 128.909C166.483 126.468 163.748 125.187 160.981 125.346C158.215 125.506 155.644 127.093 153.836 129.76C152.027 132.426 151.127 135.953 151.336 139.565C151.544 143.177 152.843 146.577 154.946 149.018C157.049 151.459 159.785 152.74 162.552 152.581Z" stroke="#838385" stroke-width="2"/>
<path d="M163.733 136.468C163.729 136.244 163.68 136.022 163.589 135.816C163.499 135.61 163.369 135.424 163.207 135.269C163.045 135.113 162.853 134.991 162.644 134.909C162.434 134.827 162.211 134.788 161.986 134.793L161.554 134.802C161.329 134.806 161.108 134.855 160.902 134.946C160.696 135.036 160.51 135.166 160.354 135.328C160.199 135.491 160.077 135.682 159.995 135.891C159.913 136.101 159.874 136.324 159.878 136.549L159.943 139.636C159.948 139.861 159.997 140.083 160.087 140.289C160.177 140.495 160.307 140.681 160.47 140.836C160.632 140.992 160.823 141.114 161.033 141.196C161.242 141.277 161.466 141.317 161.69 141.312L162.122 141.303C162.347 141.298 162.569 141.25 162.775 141.159C162.981 141.069 163.167 140.939 163.322 140.777C163.478 140.614 163.6 140.423 163.682 140.213C163.763 140.004 163.803 139.78 163.798 139.556L163.733 136.468Z" stroke="#838385" stroke-width="2"/>
<path d="M95.2426 136.262C95.2326 135.855 95.0613 135.469 94.7663 135.188C94.4713 134.907 94.0768 134.755 93.6696 134.764L92.9657 134.782C92.5585 134.792 92.1719 134.963 91.8909 135.258C91.61 135.553 91.4578 135.947 91.4677 136.355L91.5533 139.858C91.5633 140.265 91.7346 140.652 92.0296 140.932C92.3246 141.213 92.7191 141.366 93.1264 141.356L93.8302 141.339C94.2374 141.329 94.6241 141.157 94.905 140.862C95.1859 140.567 95.3381 140.173 95.3282 139.765L95.2426 136.262Z" stroke="#838385" stroke-width="2"/>
<path d="M158.334 32.6042C157.449 33.1695 156.705 33.9135 156.102 34.8362C155.953 35.0655 155.75 35.2335 155.494 35.3402C152.886 36.4602 150.331 37.6975 147.83 39.0522C147.578 39.1888 147.361 39.3834 147.198 39.6202C146.302 40.9482 145.009 41.6362 143.318 41.6842C143.169 41.6864 143.021 41.7229 142.887 41.7908C142.752 41.8586 142.635 41.9562 142.542 42.0762C141.091 43.9375 139.793 44.9428 138.646 45.0922C134.926 45.5802 133.382 48.9482 129.574 49.9402C127.313 50.5268 125.097 51.2628 122.926 52.1482C122.19 52.4522 121.678 53.1482 120.582 53.2122C119.542 53.2709 118.939 53.3215 118.774 53.3642C113.918 54.4602 111.062 52.4682 106.758 52.0682C100.494 51.4842 93.5901 55.0842 87.7341 57.2042C85.3181 58.0842 83.1581 60.0602 81.2541 63.1322C81.1208 63.3455 80.9314 63.4415 80.6861 63.4202C77.4381 63.1402 77.9581 67.1162 74.2221 67.2202C73.9438 67.2308 73.6741 67.3105 73.4381 67.4522C70.5581 69.1535 67.9821 71.2122 65.7101 73.6282C63.6381 75.8282 61.2621 76.5882 58.6301 77.7242C58.3741 77.8362 58.1554 78.0015 57.9741 78.2202C57.3661 78.9775 56.5687 79.3909 55.5821 79.4602C55.3047 79.4815 55.0808 79.6015 54.9101 79.8202C54.1261 80.8122 53.0914 81.2575 51.8061 81.1562C51.5661 81.1348 51.3688 81.2175 51.2141 81.4042C50.3021 82.4815 49.1874 82.7162 47.8701 82.1082C47.7491 82.0515 47.6159 82.0256 47.482 82.0325C47.3481 82.0395 47.2177 82.0792 47.1021 82.1482C46.6381 82.4308 46.2221 82.4335 45.8541 82.1562C45.6461 82.0015 45.4141 81.9295 45.1581 81.9402C44.5341 81.9722 43.9607 82.1669 43.4381 82.5242C43.2086 82.6808 42.9361 82.767 42.6541 82.7722C40.3261 82.7962 40.7821 80.8922 39.9581 79.7242C39.5954 79.2069 39.1634 78.7188 38.6621 78.2602C37.2541 75.0682 36.4461 69.8122 41.1661 68.7002C43.3421 68.1962 46.4541 69.3962 48.8541 69.9402C48.9735 69.9678 49.0976 69.9682 49.2171 69.9413C49.3367 69.9145 49.4487 69.861 49.5447 69.7849C49.6408 69.7088 49.7185 69.6121 49.772 69.5018C49.8256 69.3916 49.8536 69.2707 49.8541 69.1482C49.9101 65.1722 48.4781 50.1242 56.4701 52.2202C58.2674 52.6895 59.8808 53.2202 61.3101 53.8122C61.5028 53.8907 61.7095 53.9288 61.9175 53.9242C62.1255 53.9196 62.3303 53.8723 62.5193 53.7853C62.7083 53.6983 62.8774 53.5734 63.0162 53.4184C63.155 53.2634 63.2604 53.0816 63.3261 52.8842C64.4861 49.4442 65.3501 42.8922 67.1421 40.5722C69.8221 37.1002 74.2621 39.4362 77.6381 40.6362C77.7969 40.6938 77.9672 40.7125 78.1347 40.6906C78.3022 40.6688 78.462 40.607 78.6007 40.5106C78.7394 40.4142 78.853 40.286 78.9319 40.1366C79.0108 39.9872 79.0527 39.8211 79.0541 39.6522C79.0754 36.6975 79.7261 33.8762 81.0061 31.1882C84.1501 24.5962 89.2701 27.8522 93.4621 30.5882C93.6207 30.6911 93.7997 30.7586 93.9869 30.786C94.1741 30.8134 94.3652 30.8 94.5472 30.747C94.7293 30.6939 94.898 30.6022 95.042 30.4782C95.1861 30.3542 95.302 30.2007 95.3821 30.0282C101.622 16.3802 108.086 22.5082 115.934 29.2362C116.01 29.3003 116.098 29.3471 116.194 29.3732C116.289 29.3994 116.389 29.4042 116.486 29.3874C116.584 29.3706 116.676 29.3325 116.756 29.2759C116.836 29.2193 116.902 29.1457 116.95 29.0602C118.95 25.4602 122.47 20.5722 126.078 18.9722C132.382 16.1802 135.43 24.2842 137.55 28.6522C137.673 28.9023 137.856 29.1178 138.083 29.2791C138.31 29.4404 138.574 29.5424 138.851 29.5758C139.127 29.6092 139.408 29.5729 139.667 29.4703C139.926 29.3677 140.155 29.2019 140.334 28.9882C143.278 25.4362 149.374 18.4762 154.03 24.4842C155.897 26.8948 157.331 29.6015 158.334 32.6042Z" fill="#4B3D44"/>
<path d="M191.478 51.2125C190.822 54.3165 191.276 57.1218 192.838 59.6285C192.995 59.8763 193.1 60.1527 193.148 60.4416C193.197 60.7305 193.187 61.0261 193.12 61.3112C193.053 61.5964 192.93 61.8654 192.758 62.1026C192.586 62.3397 192.369 62.5402 192.118 62.6925L188.422 64.9485C188.322 65.0101 188.239 65.0962 188.181 65.1985C188.124 65.3007 188.094 65.4157 188.094 65.5324V65.7324C188.094 66.0258 187.95 66.1671 187.662 66.1565C183.782 66.0365 188.198 72.7965 189.638 75.1645C189.67 75.2154 189.685 75.2755 189.679 75.3354C189.673 75.3953 189.648 75.4516 189.607 75.4955C189.565 75.5394 189.511 75.5684 189.451 75.578C189.392 75.5876 189.331 75.5772 189.278 75.5485L188.566 75.1884C188.516 75.1637 188.46 75.1519 188.404 75.1543C188.348 75.1567 188.294 75.1731 188.246 75.202C188.199 75.2309 188.16 75.2713 188.133 75.3194C188.107 75.3675 188.093 75.4216 188.094 75.4765V79.9565C188.094 80.0892 188.062 80.2198 188.001 80.3369C187.94 80.454 187.851 80.5541 187.742 80.6285C187.337 80.9005 187.132 81.2605 187.126 81.7085C187.126 81.9858 186.996 82.1752 186.734 82.2765C185.31 82.8365 183.614 82.8365 183.334 84.7805C183.046 86.7325 178.79 89.1245 181.566 91.3645C181.63 91.4162 181.681 91.4815 181.716 91.5555C181.751 91.6296 181.77 91.7105 181.77 91.7924C181.77 91.8744 181.751 91.9554 181.716 92.0294C181.681 92.1034 181.63 92.1687 181.566 92.2205L179.622 93.7965C179.572 93.8382 179.511 93.865 179.446 93.8739C179.381 93.8829 179.315 93.8735 179.255 93.8469C179.195 93.8203 179.144 93.7775 179.107 93.7234C179.07 93.6692 179.049 93.6059 179.046 93.5405C178.977 92.3351 178.278 91.6418 176.95 91.4605C176.161 90.2871 174.156 89.9111 170.934 90.3324C170.636 90.3698 170.364 90.3005 170.118 90.1245L169.142 89.4285C167.014 86.8792 165.238 84.1031 163.814 81.1005C163.763 80.9917 163.689 80.8946 163.599 80.815C163.508 80.7355 163.403 80.6751 163.288 80.6377C163.174 80.6003 163.053 80.5865 162.933 80.5973C162.813 80.6081 162.696 80.6432 162.59 80.7005C160.95 81.5965 158.206 82.9725 156.326 82.7005C153.486 82.2845 149.646 74.8844 148.134 72.3324C148.032 72.1596 147.897 72.0086 147.737 71.888C147.577 71.7673 147.395 71.6795 147.201 71.6297C147.008 71.5799 146.807 71.569 146.61 71.5976C146.413 71.6262 146.224 71.6938 146.054 71.7965C142.374 73.9885 137.198 77.1565 133.374 72.9165C132.046 71.4365 129.91 67.4125 127.526 68.5565C123.585 70.4391 119.878 70.7351 116.406 69.4445C115.646 69.1645 114.926 68.2845 114.046 67.9725C113.923 67.929 113.791 67.9194 113.663 67.9447C113.534 67.9701 113.416 68.0294 113.318 68.1165C109.958 71.0765 107.878 72.8124 103.158 73.0844C102.786 73.1041 102.424 73.2113 102.1 73.3975C101.776 73.5837 101.5 73.8437 101.294 74.1565C99.2223 77.2845 96.7023 76.6845 93.4863 76.7725C93.3554 76.775 93.2277 76.8127 93.1164 76.8817C93.0052 76.9506 92.9147 77.0484 92.8543 77.1645C90.3503 81.9165 88.4383 86.4924 82.1263 85.4844C81.8429 85.4397 81.553 85.4972 81.3082 85.6467C81.0634 85.7962 80.8798 86.028 80.7903 86.3005C78.3023 93.9085 76.9903 94.2845 69.7263 96.8285C69.605 96.869 69.4934 96.9348 69.3983 97.0216C69.3033 97.1083 69.227 97.2142 69.1743 97.3324C68.2356 99.3911 67.5476 101.538 67.1103 103.772C66.5663 106.58 63.4943 107.708 61.4223 108.964C56.1903 112.132 54.9823 128.78 54.9903 133.796C54.9903 134.356 54.8836 134.378 54.6702 133.86C53.4436 130.906 52.1716 129.02 50.8543 128.204C45.6303 124.972 39.6303 130.492 38.2143 135.1C36.0703 142.082 37.2303 148.522 41.6943 154.42C41.8408 154.614 42.0373 154.763 42.2623 154.852C43.2063 155.22 43.4383 155.543 42.9583 155.82C36.9743 156.756 24.4223 153.068 34.2783 145.188C34.4916 145.018 34.5129 144.826 34.3423 144.612C31.9183 141.636 28.8223 138.716 28.1743 135.5C27.2943 131.132 29.9103 129.332 32.3663 126.74C32.4077 126.698 32.439 126.647 32.4581 126.59C32.4772 126.534 32.4835 126.474 32.4766 126.415C32.4697 126.356 32.4498 126.3 32.4182 126.249C32.3867 126.199 32.3444 126.156 32.2943 126.124C29.6543 124.452 27.0463 121.436 29.6143 118.588C30.4703 117.644 32.1343 117.092 33.3903 116.452C33.6676 116.308 33.7103 116.116 33.5183 115.876C29.9743 111.372 25.3263 106.156 32.5263 101.716C32.6993 101.61 32.847 101.467 32.9591 101.297C33.0712 101.128 33.1451 100.936 33.1756 100.735C33.206 100.534 33.1923 100.328 33.1355 100.133C33.0786 99.9381 32.9799 99.7576 32.8463 99.6045C24.6703 90.3165 30.7663 86.0445 39.9583 84.1165C40.0177 84.1046 40.0739 84.0804 40.1233 84.0455C40.1727 84.0105 40.2142 83.9655 40.2451 83.9135C40.2761 83.8615 40.2957 83.8035 40.3028 83.7433C40.3099 83.6832 40.3042 83.6223 40.2863 83.5645L38.6623 78.2605C39.1636 78.7191 39.5956 79.2071 39.9583 79.7245C40.7823 80.8925 40.3263 82.7965 42.6543 82.7725C42.9363 82.7673 43.2088 82.6811 43.4383 82.5245C43.9609 82.1671 44.5343 81.9725 45.1583 81.9404C45.4143 81.9298 45.6463 82.0018 45.8543 82.1565C46.2223 82.4338 46.6383 82.4311 47.1023 82.1485C47.2179 82.0795 47.3483 82.0398 47.4822 82.0328C47.6161 82.0259 47.7493 82.0518 47.8702 82.1085C49.1876 82.7165 50.3023 82.4818 51.2143 81.4045C51.369 81.2178 51.5663 81.1351 51.8063 81.1565C53.0916 81.2578 54.1263 80.8125 54.9103 79.8205C55.081 79.6018 55.3049 79.4818 55.5823 79.4605C56.5689 79.3911 57.3663 78.9778 57.9743 78.2205C58.1556 78.0018 58.3743 77.8365 58.6303 77.7245C61.2623 76.5885 63.6383 75.8285 65.7103 73.6285C67.9823 71.2125 70.5583 69.1538 73.4383 67.4525C73.6743 67.3108 73.944 67.231 74.2223 67.2205C77.9583 67.1165 77.4383 63.1405 80.6863 63.4205C80.9316 63.4418 81.1209 63.3458 81.2543 63.1324C83.1583 60.0604 85.3183 58.0845 87.7343 57.2045C93.5903 55.0845 100.494 51.4845 106.758 52.0685C111.062 52.4685 113.918 54.4605 118.774 53.3645C118.94 53.3218 119.542 53.2711 120.582 53.2125C121.678 53.1485 122.19 52.4525 122.926 52.1485C125.097 51.2631 127.313 50.5271 129.574 49.9405C133.382 48.9485 134.926 45.5805 138.646 45.0925C139.793 44.9431 141.092 43.9378 142.542 42.0765C142.635 41.9565 142.752 41.8589 142.887 41.791C143.021 41.7232 143.169 41.6867 143.318 41.6844C145.009 41.6364 146.302 40.9485 147.198 39.6205C147.361 39.3837 147.578 39.1891 147.83 39.0525C150.332 37.6978 152.886 36.4604 155.494 35.3404C155.75 35.2338 155.953 35.0658 156.102 34.8364C156.705 33.9138 157.449 33.1698 158.334 32.6045L159.062 33.2125C159.286 33.3938 159.508 33.3911 159.726 33.2045C165.222 28.4685 169.366 25.1965 173.542 33.8045C174.705 36.2098 175.814 38.6258 176.87 41.0525C176.973 41.2922 177.164 41.4833 177.404 41.5861C177.644 41.6888 177.914 41.6954 178.158 41.6045C182.878 39.8445 187.302 37.4525 189.558 44.2525C190.588 47.3511 191.228 49.6711 191.478 51.2125Z" fill="#3F333C"/>
<path d="M191.478 51.2125L193.022 54.9805C193.134 55.2579 193.34 55.3752 193.638 55.3325C198.398 54.6685 203.742 51.9565 204.782 59.2525C205.3 62.9112 205.38 66.4152 205.022 69.7645C204.916 70.7405 205.062 71.5698 205.462 72.2525C205.528 72.3684 205.628 72.4616 205.748 72.5201C205.867 72.5786 206.002 72.5997 206.134 72.5805C209.438 72.1005 214.478 70.3565 216.99 73.7165C219.238 76.7165 216.518 82.1805 215.198 85.3405C215.123 85.5192 215.089 85.7129 215.101 85.9066C215.112 86.1002 215.168 86.2887 215.264 86.4573C215.36 86.6259 215.493 86.7702 215.654 86.8789C215.814 86.9877 215.998 87.058 216.19 87.0845C225.406 88.3725 229.174 94.1325 222.638 102.132C222.545 102.245 222.48 102.377 222.446 102.52C222.412 102.662 222.41 102.81 222.442 102.953C222.473 103.096 222.537 103.23 222.628 103.346C222.719 103.462 222.834 103.555 222.966 103.621C230.462 107.293 226.126 112.789 222.438 116.909C222.398 116.953 222.368 117.005 222.351 117.063C222.334 117.12 222.329 117.18 222.339 117.24C222.348 117.299 222.37 117.355 222.404 117.404C222.438 117.454 222.482 117.495 222.534 117.525C227.55 120.389 230.622 122.981 224.67 127.845C224.627 127.88 224.592 127.925 224.567 127.975C224.542 128.026 224.529 128.081 224.527 128.137C224.526 128.193 224.536 128.249 224.558 128.301C224.58 128.352 224.613 128.399 224.654 128.437C232.254 135.437 227.942 139.813 222.622 145.629C222.546 145.711 222.502 145.818 222.498 145.932C222.493 146.046 222.529 146.16 222.598 146.253C224.542 148.733 228.07 151.949 224.006 154.877C220.556 157.357 216.43 157.951 211.63 156.661C216.468 151.615 218.582 145.631 217.974 138.709C217.542 133.725 214.774 128.589 209.67 127.317C206.118 126.421 203.11 127.725 201.294 130.861C201.054 131.271 200.894 131.242 200.814 130.773C199.63 124.01 197.972 117.354 195.838 110.805C195.743 110.515 195.546 110.27 195.285 110.115C195.023 109.959 194.714 109.903 194.414 109.957C187.158 111.245 191.046 99.0605 184.518 98.8365C179.126 98.6445 178.878 95.8125 176.95 91.4605C178.278 91.6419 178.977 92.3352 179.046 93.5405C179.049 93.6059 179.07 93.6693 179.107 93.7234C179.144 93.7775 179.195 93.8204 179.255 93.847C179.315 93.8736 179.381 93.8829 179.446 93.874C179.511 93.8651 179.572 93.8382 179.622 93.7965L181.566 92.2205C181.63 92.1688 181.681 92.1035 181.716 92.0295C181.751 91.9554 181.77 91.8745 181.77 91.7925C181.77 91.7105 181.751 91.6296 181.716 91.5556C181.681 91.4816 181.63 91.4163 181.566 91.3645C178.79 89.1245 183.046 86.7325 183.334 84.7805C183.614 82.8365 185.31 82.8365 186.734 82.2765C186.996 82.1752 187.126 81.9859 187.126 81.7085C187.132 81.2605 187.337 80.9005 187.742 80.6285C187.851 80.5542 187.94 80.4541 188.001 80.337C188.062 80.2199 188.094 80.0893 188.094 79.9565V75.4765C188.093 75.4216 188.107 75.3675 188.133 75.3195C188.16 75.2714 188.199 75.231 188.246 75.2021C188.293 75.1732 188.348 75.1567 188.404 75.1544C188.46 75.152 188.516 75.1637 188.566 75.1885L189.278 75.5485C189.331 75.5772 189.392 75.5876 189.451 75.5781C189.511 75.5685 189.565 75.5395 189.606 75.4956C189.648 75.4517 189.673 75.3953 189.679 75.3354C189.685 75.2755 189.67 75.2154 189.638 75.1645C188.198 72.7965 183.782 66.0365 187.662 66.1565C187.95 66.1672 188.094 66.0258 188.094 65.7325V65.5325C188.094 65.4158 188.124 65.3008 188.181 65.1985C188.239 65.0962 188.322 65.0101 188.422 64.9485L192.118 62.6925C192.368 62.5402 192.586 62.3397 192.758 62.1026C192.93 61.8655 193.053 61.5965 193.12 61.3113C193.187 61.0261 193.197 60.7305 193.148 60.4416C193.1 60.1527 192.994 59.8763 192.838 59.6285C191.276 57.1219 190.822 54.3165 191.478 51.2125Z" fill="#2D242F"/>
<path d="M169.142 89.4289C169.195 91.0342 168.534 92.4662 167.158 93.7248C167.066 93.8106 166.991 93.9141 166.94 94.029C166.888 94.1439 166.86 94.2681 166.857 94.3941C166.854 94.5201 166.876 94.6454 166.922 94.7627C166.968 94.8799 167.038 94.9868 167.126 95.0768L173.174 101.293C173.184 101.821 172.875 102.125 172.246 102.205C167.342 98.5648 151.358 92.3328 147.694 100.733C146.59 103.277 147.382 106.429 149.838 107.917C153.086 109.893 157.046 107.709 160.574 107.717C164.936 107.733 169.022 108.997 172.83 111.509C172.606 111.695 172.329 111.695 171.998 111.509C171.817 111.407 171.718 111.464 171.702 111.677C171.697 111.746 171.694 111.815 171.694 111.885C171.694 111.93 171.684 111.974 171.665 112.015C171.645 112.055 171.617 112.09 171.582 112.117C171.547 112.145 171.506 112.163 171.463 112.171C171.42 112.18 171.376 112.177 171.334 112.165C171.248 112.144 171.174 112.112 171.11 112.069C170.897 111.946 170.739 111.997 170.638 112.221C169.63 114.525 168.55 120.101 166.766 121.549C147.758 118.485 144.182 150.701 162.366 153.261C161.998 154.088 161.987 154.901 162.334 155.701C162.435 155.941 162.393 156.154 162.206 156.341C160.998 157.549 159.31 158.965 158.67 160.365C156.278 165.645 163.398 169.357 167.59 169.525C170.993 169.653 174.414 169.007 177.854 167.589C173.993 177.05 167.323 183.89 157.846 188.109C157.057 188.461 156.177 189.173 155.206 190.245C155.057 190.41 154.875 190.527 154.662 190.597L140.622 195.053C140.814 195.218 140.545 195.392 139.814 195.573C128.238 196.405 122.07 195.917 112.982 195.365C91.3418 191.229 72.0538 180.845 61.2218 161.189C61.0885 160.943 60.8832 160.847 60.6059 160.901C53.7845 162.271 47.9019 160.578 42.9579 155.821C43.4379 155.544 43.2059 155.221 42.2619 154.853C42.0369 154.764 41.8404 154.614 41.6938 154.421C37.2298 148.522 36.0699 142.082 38.2139 135.101C39.6299 130.493 45.6299 124.973 50.8539 128.205C52.1712 129.021 53.4432 130.906 54.6698 133.861C54.8832 134.378 54.9898 134.357 54.9898 133.797C54.9818 128.781 56.1898 112.133 61.4218 108.965C63.4938 107.709 66.5659 106.581 67.1099 103.773C67.5472 101.538 68.2352 99.3915 69.1738 97.3328C69.2265 97.2145 69.3029 97.1087 69.3979 97.0219C69.4929 96.9352 69.6046 96.8694 69.7258 96.8288C76.9898 94.2848 78.3018 93.9088 80.7898 86.3008C80.8794 86.0283 81.063 85.7966 81.3078 85.6471C81.5525 85.4976 81.8425 85.4401 82.1258 85.4848C88.4378 86.4928 90.3498 81.9168 92.8538 77.1648C92.9142 77.0487 93.0048 76.951 93.116 76.882C93.2272 76.813 93.355 76.7753 93.4858 76.7728C96.7018 76.6848 99.2218 77.2848 101.294 74.1568C101.5 73.8441 101.776 73.5841 102.1 73.3979C102.423 73.2117 102.786 73.1044 103.158 73.0848C107.878 72.8128 109.958 71.0768 113.318 68.1168C113.415 68.0298 113.534 67.9704 113.662 67.9451C113.79 67.9198 113.923 67.9294 114.046 67.9728C114.926 68.2848 115.646 69.1648 116.406 69.4448C119.878 70.7355 123.584 70.4395 127.526 68.5568C129.91 67.4128 132.046 71.4368 133.374 72.9168C137.198 77.1568 142.374 73.9888 146.054 71.7968C146.224 71.6942 146.413 71.6266 146.61 71.5979C146.807 71.5693 147.008 71.5802 147.201 71.6301C147.394 71.6799 147.576 71.7677 147.737 71.8883C147.897 72.0089 148.032 72.16 148.134 72.3328C149.646 74.8848 153.486 82.2848 156.326 82.7008C158.206 82.9728 160.95 81.5968 162.59 80.7008C162.696 80.6436 162.812 80.6085 162.932 80.5977C163.052 80.5869 163.173 80.6007 163.288 80.6381C163.402 80.6755 163.508 80.7358 163.598 80.8154C163.689 80.8949 163.762 80.992 163.814 81.1008C165.238 84.1035 167.014 86.8795 169.142 89.4289ZM95.6059 107.893C100.03 108.021 104.702 110.693 108.006 106.741C110.558 103.677 109.478 99.2448 105.91 97.5008C104.689 96.9035 103.011 96.6262 100.878 96.6688C89.0858 96.9328 75.1978 104.261 73.2778 117.277C73.2501 117.473 73.2831 117.674 73.3722 117.851C73.4613 118.028 73.6024 118.174 73.7762 118.268C73.95 118.363 74.1481 118.401 74.3437 118.378C74.5394 118.355 74.723 118.273 74.8698 118.141C80.7738 112.901 86.8378 107.637 95.6059 107.893ZM87.3659 151.837C107.558 160.037 110.102 123.485 93.1099 121.349C75.3739 119.117 71.1419 145.261 87.3659 151.837ZM47.9179 152.157C51.5259 155.133 57.4218 156.045 56.1818 148.989C55.4938 145.085 52.8699 134.797 49.1179 132.845C47.3685 131.927 45.7418 132.418 44.2378 134.317C39.8298 139.877 42.8299 147.949 47.9179 152.157ZM124.718 158.621L124.694 156.413C124.691 156.267 124.647 156.126 124.568 156.003C124.489 155.881 124.378 155.784 124.247 155.722C124.116 155.66 123.971 155.637 123.828 155.654C123.684 155.672 123.549 155.729 123.438 155.821C122.51 156.573 122.353 157.418 122.966 158.357C123.121 158.597 123.339 158.725 123.622 158.741L124.454 158.781C123.814 159.762 123.659 160.855 123.99 162.061C124.054 162.285 124.203 162.415 124.438 162.453C126.811 162.821 128.656 162.351 129.974 161.045C134.614 156.431 134.478 151.973 129.566 147.669C128.937 147.114 128.267 146.984 127.558 147.277C127.502 147.299 127.453 147.334 127.416 147.381C127.378 147.427 127.353 147.483 127.343 147.541C127.334 147.6 127.34 147.661 127.36 147.717C127.381 147.773 127.416 147.822 127.462 147.861C131.662 151.325 128.886 156.773 124.718 158.621ZM72.0458 169.005C77.5712 172.631 83.2779 173.186 89.1659 170.669C93.3659 168.869 95.1658 164.621 92.2458 160.669C88.0858 155.021 78.4139 151.957 72.0539 155.325C66.4059 158.309 67.0458 165.725 72.0458 169.005ZM108.446 165.597C107.214 165.421 106.574 166.949 106.95 168.029C108.318 172.013 115.15 175.813 118.79 176.949C128.414 179.957 142.566 178.437 148.046 168.421C148.174 168.192 148.2 167.951 148.126 167.701C147.827 166.687 146.886 166.167 145.302 166.141C132.918 167.045 123.198 168.053 111.11 163.885C110.059 163.522 109.171 164.093 108.446 165.597Z" fill="#B0624E"/>
<path d="M169.142 89.4281L170.118 90.1241C170.363 90.3001 170.635 90.3694 170.934 90.3321C174.155 89.9107 176.161 90.2867 176.95 91.4601C178.878 95.8121 179.126 98.6441 184.518 98.8361C191.046 99.0601 187.158 111.244 194.414 109.956C194.714 109.902 195.023 109.958 195.284 110.114C195.546 110.27 195.743 110.515 195.838 110.804C197.971 117.353 199.63 124.009 200.814 130.772C200.894 131.241 201.054 131.271 201.294 130.86C203.11 127.724 206.118 126.42 209.67 127.316C214.774 128.588 217.542 133.724 217.974 138.708C218.582 145.631 216.467 151.615 211.63 156.66C206.222 160.996 200.126 162.9 193.254 161.012C193.135 160.98 193.01 160.987 192.896 161.033C192.783 161.08 192.69 161.162 192.63 161.268C181.814 180.292 162.126 191.884 140.622 195.052L154.662 190.596C154.875 190.527 155.057 190.409 155.206 190.244C156.177 189.172 157.057 188.46 157.846 188.108C167.323 183.889 173.993 177.049 177.854 167.588L180.798 153.532C180.822 153.409 180.879 153.295 180.964 153.202C181.049 153.109 181.157 153.041 181.278 153.004C184.606 151.988 188.03 152.836 191.158 153.612C191.344 153.658 191.537 153.666 191.725 153.635C191.914 153.604 192.095 153.536 192.256 153.433C192.418 153.331 192.557 153.197 192.665 153.039C192.773 152.881 192.848 152.704 192.886 152.516C194.721 142.964 194.873 133.769 193.342 124.932C192.582 120.532 190.286 118.924 187.518 116.044C184.246 112.628 182.358 108.54 178.526 105.244C177.094 104.02 174.806 103.14 173.174 101.292L167.126 95.0761C167.038 94.986 166.969 94.8792 166.922 94.7619C166.876 94.6447 166.854 94.5193 166.857 94.3933C166.86 94.2673 166.888 94.1432 166.94 94.0282C166.992 93.9133 167.066 93.8099 167.158 93.7241C168.534 92.4654 169.195 91.0334 169.142 89.4281Z" fill="#9D473C"/>
<path d="M95.6061 107.892C86.8381 107.636 80.7741 112.9 74.8701 118.14C74.7233 118.272 74.5397 118.355 74.344 118.378C74.1484 118.401 73.9502 118.362 73.7764 118.268C73.6027 118.174 73.4616 118.028 73.3725 117.85C73.2834 117.673 73.2504 117.473 73.2781 117.276C75.1981 104.26 89.0861 96.9323 100.878 96.6683C103.011 96.6257 104.689 96.903 105.91 97.5003C109.478 99.2443 110.558 103.676 108.006 106.74C104.702 110.692 100.03 108.02 95.6061 107.892Z" fill="#4B3D44"/>
<path d="M172.246 102.203C176.542 105.891 181.03 110.387 182.166 116.139C182.395 117.297 182.003 117.897 180.99 117.939C180.68 117.949 180.379 117.847 180.142 117.651L172.83 111.507C169.022 108.995 164.937 107.731 160.574 107.715C157.046 107.707 153.086 109.891 149.838 107.915C147.382 106.427 146.59 103.275 147.694 100.731C151.358 92.3312 167.342 98.5632 172.246 102.203Z" fill="#4B3D44"/>
<path d="M173.174 101.292C174.806 103.14 177.094 104.02 178.526 105.244C182.358 108.54 184.246 112.628 187.518 116.044C190.286 118.924 192.582 120.532 193.342 124.932C194.873 133.77 194.721 142.964 192.886 152.516C192.848 152.704 192.773 152.882 192.665 153.039C192.557 153.197 192.418 153.331 192.256 153.433C192.095 153.536 191.914 153.604 191.725 153.635C191.537 153.666 191.344 153.658 191.158 153.612C188.03 152.836 184.606 151.988 181.278 153.004C181.157 153.041 181.048 153.109 180.964 153.202C180.879 153.295 180.822 153.409 180.798 153.532L177.854 167.588C174.414 169.007 170.993 169.652 167.59 169.524C163.398 169.356 156.278 165.644 158.67 160.364C159.31 158.964 160.998 157.548 162.206 156.34C162.393 156.154 162.435 155.94 162.334 155.7C161.987 154.9 161.998 154.087 162.366 153.26C179.934 150.94 183.798 128.508 166.766 121.548C168.55 120.1 169.63 114.524 170.638 112.22C170.739 111.996 170.897 111.946 171.11 112.068C171.174 112.111 171.249 112.143 171.334 112.164C171.376 112.177 171.42 112.179 171.463 112.171C171.506 112.163 171.547 112.144 171.582 112.117C171.617 112.09 171.645 112.054 171.665 112.014C171.684 111.974 171.694 111.929 171.694 111.884C171.694 111.815 171.697 111.746 171.702 111.676C171.718 111.463 171.817 111.407 171.998 111.508C172.329 111.695 172.606 111.695 172.83 111.508L180.142 117.652C180.379 117.848 180.68 117.95 180.99 117.94C182.003 117.898 182.395 117.298 182.166 116.14C181.03 110.388 176.542 105.892 172.246 102.204C172.875 102.124 173.185 101.82 173.174 101.292Z" fill="#A45445"/>
<path d="M93.1105 121.347C110.102 123.483 107.558 160.035 87.3665 151.835C71.1425 145.259 75.3745 119.115 93.1105 121.347ZM92.1608 152.613C93.5104 152.724 94.8758 152.483 96.1788 151.902C97.4819 151.321 98.6972 150.413 99.7554 149.229C100.813 148.045 101.694 146.609 102.346 145.002C102.998 143.395 103.409 141.649 103.556 139.864C103.703 138.079 103.582 136.289 103.201 134.598C102.82 132.906 102.187 131.345 101.336 130.004C100.485 128.663 99.4348 127.569 98.244 126.783C97.0533 125.998 95.7458 125.536 94.3961 125.425C93.0465 125.314 91.6812 125.556 90.3781 126.137C89.075 126.717 87.8597 127.625 86.8016 128.809C85.7435 129.993 84.8632 131.43 84.2111 133.036C83.559 134.643 83.1479 136.389 83.0011 138.174C82.8543 139.96 82.9748 141.749 83.3557 143.441C83.7366 145.133 84.3704 146.694 85.221 148.034C86.0715 149.375 87.1221 150.47 88.3129 151.255C89.5036 152.041 90.8111 152.502 92.1608 152.613Z" fill="#FEFEFE"/>
<path d="M166.766 121.549C183.798 128.509 179.934 150.941 162.366 153.261C144.182 150.701 147.758 118.485 166.766 121.549ZM162.551 152.582C165.317 152.423 167.888 150.835 169.697 148.169C171.506 145.502 172.405 141.975 172.196 138.364C171.988 134.752 170.69 131.352 168.586 128.911C166.483 126.47 163.747 125.188 160.981 125.348C158.214 125.507 155.644 127.095 153.835 129.761C152.026 132.428 151.127 135.955 151.335 139.566C151.543 143.178 152.842 146.578 154.946 149.019C157.049 151.46 159.785 152.742 162.551 152.582Z" fill="#FEFEFE"/>
<path d="M162.552 152.582C159.785 152.742 157.049 151.46 154.946 149.019C152.843 146.578 151.544 143.178 151.336 139.566C151.127 135.955 152.027 132.428 153.836 129.761C155.644 127.095 158.215 125.507 160.981 125.348C163.748 125.188 166.483 126.47 168.587 128.911C170.69 131.352 171.989 134.752 172.197 138.364C172.405 141.975 171.506 145.502 169.697 148.169C167.888 150.835 165.318 152.423 162.552 152.582ZM163.734 136.469C163.729 136.244 163.68 136.023 163.59 135.817C163.499 135.611 163.369 135.425 163.207 135.269C163.045 135.114 162.853 134.991 162.644 134.91C162.434 134.828 162.211 134.788 161.986 134.793L161.554 134.802C161.329 134.807 161.108 134.856 160.902 134.946C160.696 135.037 160.51 135.167 160.354 135.329C160.199 135.491 160.077 135.683 159.995 135.892C159.913 136.101 159.874 136.325 159.878 136.55L159.943 139.637C159.948 139.862 159.997 140.083 160.087 140.289C160.177 140.495 160.307 140.681 160.47 140.837C160.632 140.993 160.823 141.115 161.033 141.196C161.242 141.278 161.466 141.318 161.691 141.313L162.123 141.304C162.347 141.299 162.569 141.25 162.775 141.16C162.981 141.069 163.167 140.939 163.322 140.777C163.478 140.615 163.6 140.424 163.682 140.214C163.763 140.005 163.803 139.781 163.798 139.556L163.734 136.469Z" fill="#07080B"/>
<path d="M92.1607 152.615C90.8111 152.504 89.5035 152.042 88.3128 151.256C87.1221 150.471 86.0715 149.376 85.2209 148.035C84.3703 146.695 83.7365 145.134 83.3556 143.442C82.9747 141.75 82.8543 139.961 83.001 138.175C83.1478 136.39 83.559 134.644 84.211 133.038C84.8631 131.431 85.7434 129.994 86.8015 128.81C87.8596 127.627 89.075 126.718 90.378 126.138C91.6811 125.557 93.0464 125.315 94.396 125.426C95.7457 125.537 97.0532 125.999 98.2439 126.784C99.4347 127.57 100.485 128.665 101.336 130.005C102.186 131.346 102.82 132.907 103.201 134.599C103.582 136.291 103.703 138.08 103.556 139.865C103.409 141.651 102.998 143.397 102.346 145.003C101.694 146.61 100.813 148.047 99.7553 149.23C98.6971 150.414 97.4818 151.323 96.1788 151.903C94.8757 152.484 93.5103 152.726 92.1607 152.615ZM95.243 136.263C95.2331 135.856 95.0618 135.469 94.7667 135.188C94.4717 134.907 94.0772 134.755 93.67 134.765L92.9662 134.782C92.5589 134.792 92.1723 134.963 91.8914 135.258C91.6104 135.553 91.4582 135.948 91.4682 136.355L91.5538 139.858C91.5637 140.265 91.735 140.652 92.03 140.933C92.325 141.214 92.7196 141.366 93.1268 141.356L93.8306 141.339C94.2379 141.329 94.6245 141.158 94.9054 140.863C95.1863 140.568 95.3386 140.173 95.3286 139.766L95.243 136.263Z" fill="#07080B"/>
<path d="M47.9178 152.156C42.8298 147.948 39.8297 139.876 44.2377 134.316C45.7417 132.417 47.3684 131.926 49.1178 132.844C52.8698 134.796 55.4937 145.083 56.1817 148.987C57.4217 156.043 51.5258 155.132 47.9178 152.156Z" fill="#9D473C"/>
<path d="M93.6705 134.764L92.9667 134.781C92.1186 134.802 91.448 135.506 91.4687 136.354L91.5543 139.857C91.575 140.705 92.2793 141.376 93.1274 141.355L93.8311 141.338C94.6792 141.317 95.3499 140.613 95.3292 139.765L95.2436 136.262C95.2228 135.414 94.5185 134.743 93.6705 134.764Z" fill="#FEFEFE"/>
<path d="M161.986 134.793L161.554 134.802C160.609 134.821 159.858 135.604 159.878 136.549L159.943 139.636C159.963 140.582 160.745 141.332 161.69 141.312L162.122 141.303C163.067 141.283 163.818 140.501 163.798 139.556L163.733 136.468C163.713 135.523 162.931 134.773 161.986 134.793Z" fill="#FEFEFE"/>
<path d="M124.455 158.78C124.583 158.769 124.671 158.716 124.719 158.62C128.887 156.772 131.663 151.324 127.463 147.86C127.417 147.821 127.382 147.772 127.361 147.716C127.34 147.66 127.335 147.599 127.344 147.54C127.354 147.481 127.379 147.426 127.417 147.38C127.454 147.333 127.503 147.297 127.559 147.276C128.268 146.982 128.937 147.113 129.567 147.668C134.479 151.972 134.615 156.43 129.975 161.044C128.657 162.35 126.812 162.82 124.439 162.452C124.204 162.414 124.055 162.284 123.991 162.06C123.66 160.854 123.815 159.761 124.455 158.78Z" fill="#A45445"/>
<path d="M72.0457 169.003C67.0457 165.723 66.4057 158.307 72.0537 155.323C78.4137 151.955 88.0857 155.019 92.2457 160.667C95.1657 164.619 93.3657 168.867 89.1657 170.667C83.2777 173.185 77.5711 172.63 72.0457 169.003Z" fill="#A45445"/>
<path d="M124.718 158.621C124.67 158.717 124.582 158.77 124.454 158.781L123.622 158.741C123.339 158.725 123.121 158.597 122.966 158.357C122.353 157.418 122.51 156.573 123.438 155.821C123.55 155.729 123.685 155.672 123.828 155.654C123.971 155.637 124.116 155.66 124.247 155.722C124.378 155.784 124.49 155.881 124.569 156.003C124.648 156.125 124.691 156.267 124.694 156.413L124.718 158.621Z" fill="#CD7A4E"/>
<path d="M145.303 166.14C137.599 178.276 116.583 175.716 108.447 165.596C109.172 164.092 110.06 163.521 111.111 163.884C123.199 168.052 132.919 167.044 145.303 166.14Z" fill="#FEFEFE"/>
<path d="M108.447 165.597C116.583 175.717 137.599 178.277 145.303 166.141C146.887 166.167 147.828 166.687 148.127 167.701C148.202 167.951 148.175 168.191 148.047 168.421C142.567 178.437 128.415 179.957 118.791 176.949C115.151 175.813 108.319 172.013 106.951 168.029C106.575 166.949 107.215 165.421 108.447 165.597Z" fill="#141319"/>
<path d="M112.983 195.364C122.071 195.916 128.239 196.404 139.815 195.572L147.279 197.292C145.415 211.508 124.567 210.78 114.975 207.428C109.847 205.644 107.119 202.612 105.911 197.468C108.834 197.367 111.191 196.665 112.983 195.364Z" fill="#9D473C"/>
<path d="M147.278 197.292L152.222 198.268C153.321 201.18 153.153 204.162 151.718 207.212C150.971 208.796 149.534 209.975 147.406 210.748C134.718 212.044 124.31 213.22 112.782 209.668C106.07 207.596 103.542 205.916 101.878 198.524L105.91 197.468C107.118 202.612 109.846 205.644 114.974 207.428C124.566 210.78 145.414 211.508 147.278 197.292Z" fill="#380E6A"/>
<path d="M152.222 198.269L158.574 199.757C168.734 204.677 175.358 208.189 179.39 219.709C179.523 220.093 179.498 220.514 179.321 220.88C179.145 221.246 178.83 221.526 178.446 221.661L165.054 226.237C165.593 225.447 166.47 224.89 167.686 224.565C168.001 224.485 168.044 224.327 167.814 224.093C166.598 222.869 166.806 221.093 166.414 219.901C163.486 210.933 155.19 211.333 147.406 210.749C149.534 209.975 150.972 208.797 151.718 207.213C153.153 204.162 153.321 201.181 152.222 198.269Z" fill="#1B3A79"/>
<path d="M101.879 198.525C103.543 205.917 106.071 207.597 112.783 209.669C124.311 213.221 134.719 212.045 147.407 210.749C155.191 211.333 163.487 210.933 166.415 219.901C166.807 221.093 166.599 222.869 167.815 224.093C168.044 224.328 168.001 224.485 167.687 224.565C166.471 224.89 165.593 225.448 165.055 226.237C136.551 234.493 104.903 232.413 77.2147 222.549L73.0307 221.061C72.7213 220.949 72.6093 220.736 72.6947 220.421C76.1827 207.253 89.4947 200.701 101.879 198.525Z" fill="#375B8B"/>
</svg>
