<svg width="256" height="256" viewBox="0 0 256 256" fill="none" xmlns="http://www.w3.org/2000/svg">
<path d="M64.5216 41.0884C55.6896 47.8084 48.0496 55.7364 41.6016 64.8724" stroke="#6B9483" stroke-width="2"/>
<path d="M41.6012 64.8726C33.7506 76.0512 28.1372 88.5446 24.7612 102.353" stroke="#618F7D" stroke-width="2"/>
<path d="M24.7616 102.352C20.8176 117.168 20.9856 135.216 22.9696 150.296" stroke="#4F867B" stroke-width="2"/>
<path d="M116.777 21.1362C97.4922 23.1202 80.0735 29.7709 64.5215 41.0882" stroke="#6C9886" stroke-width="2"/>
<path d="M231.849 106.736C229.999 97.003 226.919 87.7043 222.609 78.8403" stroke="#5A9483" stroke-width="2"/>
<path d="M222.61 78.8405C210.754 54.8005 189.058 36.7045 164.186 27.3765" stroke="#639884" stroke-width="2"/>
<path d="M164.185 27.3765C148.895 22.0005 133.092 19.9205 116.777 21.1365" stroke="#6D9D8A" stroke-width="2"/>
<path d="M164.185 27.3764C163.985 27.9524 163.809 28.3284 163.121 28.1444C159.969 27.3071 156.823 26.4298 153.681 25.5124C152.353 25.1284 151.316 24.9444 150.569 24.9604C147.873 25.0404 144.345 27.0964 146.561 30.2244C146.7 30.4271 146.756 30.6484 146.729 30.8884C146.409 33.6884 144.217 34.0964 142.361 35.3764C142.169 35.5098 141.959 35.5604 141.729 35.5284C140.748 35.4058 139.807 35.5284 138.905 35.8964C138.859 35.9119 138.821 35.9439 138.799 35.9861C138.777 36.0283 138.771 36.0778 138.784 36.1247C138.797 36.1717 138.828 36.2129 138.869 36.2402C138.911 36.2675 138.961 36.279 139.009 36.2724C143.009 35.8031 145.505 36.8591 146.497 39.4404" stroke="#9BC79F" stroke-width="2"/>
<path d="M146.497 39.4405L137.745 37.7685C137.377 37.6991 137.375 37.6191 137.737 37.5285C138.244 37.4058 138.503 37.0751 138.513 36.5365C138.524 36.2538 138.388 36.1071 138.105 36.0965C123.791 35.4725 110.012 37.7578 96.7694 42.9525C95.2068 43.5658 93.5481 44.4111 91.7934 45.4885C87.7614 47.9685 83.6894 50.2645 79.8974 52.9605C73.3214 57.6405 67.5214 61.0085 62.9614 68.3765" stroke="#B7CCA1" stroke-width="2"/>
<path d="M62.9615 68.3766L60.7136 71.1926C60.5376 71.4166 60.3695 71.4139 60.2095 71.1846C57.3695 67.2246 54.1696 67.5366 50.1936 66.6646C48.1562 66.2166 46.0816 66.1392 43.9696 66.4326C43.8443 66.4494 43.7168 66.4315 43.6011 66.3807C43.4854 66.3299 43.3859 66.2482 43.3135 66.1446C42.9775 65.6539 42.5482 65.4832 42.0256 65.6326C41.8656 65.6752 41.7669 65.6166 41.7296 65.4566L41.6016 64.8726" stroke="#9BC79F" stroke-width="2"/>
<path d="M222.61 78.8403C222.284 78.915 222.162 79.1737 222.242 79.6163C222.274 79.8083 222.212 79.8483 222.058 79.7363L221.866 79.5923C221.626 79.4163 221.38 79.411 221.13 79.5763C219.908 80.403 218.604 80.7897 217.218 80.7363C215.804 80.6777 214.828 80.7417 214.29 80.9283C212.722 81.467 211.186 82.2937 209.682 83.4083" stroke="#88BE99" stroke-width="2"/>
<path d="M209.682 83.4084C206.284 76.6351 201.946 71.8538 196.666 69.0645" stroke="#77B395" stroke-width="2"/>
<path d="M196.665 69.0646C193.793 63.1766 186.697 57.4726 179.921 60.0246C179.649 60.1313 179.433 60.0619 179.273 59.8166C173.449 50.9766 160.681 44.9846 150.993 41.8086" stroke="#4B8983" stroke-width="2"/>
<path d="M150.994 41.8084C150.508 40.6884 149.01 39.8991 146.498 39.4404" stroke="#ADC89B" stroke-width="2"/>
<path d="M190.073 56.6647C187.423 56.702 184.839 57.1447 182.321 57.9927C181.676 58.2113 181.692 58.3447 182.369 58.3927C185.649 58.622 188.676 59.6487 191.449 61.4727C191.796 61.702 191.916 61.614 191.809 61.2087L190.673 57.1207C190.639 56.9882 190.561 56.8712 190.453 56.7885C190.344 56.7057 190.21 56.6621 190.073 56.6647Z" stroke="#88BE99" stroke-width="2"/>
<path d="M150.993 41.8084C144.108 39.7711 137.135 38.7284 130.073 38.6804" stroke="#668F84" stroke-width="2"/>
<path d="M130.074 38.6804C104.106 39.6298 82.7085 49.9098 65.8818 69.5204" stroke="#689E8F" stroke-width="2"/>
<path d="M65.8814 69.5205L62.9614 68.3765" stroke="#ADC89B" stroke-width="2"/>
<path d="M130.074 38.6804C131.231 39.2618 132.423 39.5524 133.65 39.5524C133.745 39.5546 133.838 39.5806 133.92 39.6281C134.003 39.6757 134.072 39.7432 134.122 39.8244C134.65 40.7258 134.495 41.1898 133.658 41.2164C126.564 41.4778 121.284 44.3791 117.818 49.9204C117.402 50.5871 117.498 50.6724 118.106 50.1764C124.402 45.0964 131.322 41.9444 139.37 42.5844C144.783 43.0111 149.028 43.7338 152.106 44.7524C161.562 47.8804 164.626 56.9844 159.234 65.2724C159.189 65.3408 159.132 65.3995 159.064 65.4449C158.996 65.4903 158.92 65.5214 158.84 65.5364C158.76 65.5514 158.678 65.5499 158.598 65.532C158.519 65.5141 158.444 65.4802 158.378 65.4324C153.3 61.8431 147.698 59.8458 141.57 59.4404C140.41 59.3684 139.314 58.9204 138.378 58.8724C131.514 58.4938 124.652 58.4324 117.794 58.6884C104.85 59.1684 89.8735 63.1204 79.4095 70.8404C71.9135 76.3764 66.6175 81.2244 61.2655 89.2644C61.0255 89.6218 60.2629 90.3231 58.9775 91.3684" stroke="#066077" stroke-width="2"/>
<path d="M58.9773 91.3684L54.2573 94.7844" stroke="#3A8F8C" stroke-width="2"/>
<path d="M54.2573 94.7845C54.8333 91.1152 56.076 87.7685 57.9853 84.7445C58.0556 84.6314 58.1006 84.5048 58.1172 84.3736C58.1337 84.2424 58.1215 84.1096 58.0813 83.9845L57.7213 82.8645" stroke="#054F6A" stroke-width="2"/>
<path d="M57.7217 82.8645C60.0417 78.2245 62.7617 73.7765 65.8817 69.5205" stroke="#4C998D" stroke-width="2"/>
<path d="M77.9934 61.7764C76.8894 62.7124 73.0894 66.1204 73.6414 67.6084C73.6942 67.754 73.7789 67.8861 73.8893 67.9948C73.9997 68.1035 74.133 68.1862 74.2794 68.2368C74.4259 68.2875 74.5818 68.3047 74.7358 68.2873C74.8898 68.2699 75.0379 68.2184 75.1694 68.1364C85.884 61.4857 96.8174 55.2137 107.969 49.3204C109.457 48.5364 110.841 47.3364 112.129 46.3044C112.318 46.1522 112.454 45.946 112.522 45.7135C112.589 45.4811 112.584 45.2336 112.506 45.0044C112.429 44.7752 112.283 44.5752 112.088 44.4315C111.893 44.2877 111.659 44.2071 111.417 44.2004C109.972 44.1577 108.479 44.4137 106.937 44.9684C96.2814 48.8297 86.6334 54.4324 77.9934 61.7764Z" stroke="#82AA97" stroke-width="2"/>
<path d="M196.665 69.0642C194.591 68.8349 192.351 67.8589 189.945 66.1362" stroke="#317A7F" stroke-width="2"/>
<path d="M189.946 66.1365C189.178 66.2911 188.492 66.1711 187.89 65.7765C184.906 63.8245 181.33 62.7605 178.034 61.4085C177.063 61.0138 176.052 60.6911 175.002 60.4405C174.66 60.3605 174.359 60.4351 174.098 60.6645L162.274 70.9925C162.215 71.043 162.148 71.0809 162.074 71.104C162.001 71.127 161.923 71.1346 161.846 71.1264C161.77 71.1181 161.696 71.0941 161.629 71.056C161.562 71.0178 161.504 70.9662 161.458 70.9045C159.33 68.0725 156.522 66.2111 153.034 65.3205C152.959 65.2984 152.879 65.3036 152.807 65.3353C152.736 65.3669 152.679 65.4229 152.645 65.4932C152.611 65.5635 152.604 65.6435 152.624 65.7188C152.643 65.7942 152.69 65.86 152.754 65.9045L159.658 70.8325C159.805 70.9383 159.925 71.0786 160.005 71.2412C160.086 71.4038 160.126 71.5837 160.121 71.7652C160.117 71.9467 160.067 72.1243 159.978 72.2824C159.889 72.4406 159.763 72.5745 159.61 72.6725C148.255 79.9205 135.82 84.9818 122.306 87.8564C103.658 91.8244 83.9936 96.1205 69.3376 109.336C64.4336 113.76 64.7857 119.84 65.6497 126.048C66.0417 128.888 65.4017 131.048 64.3297 133.48C64.2362 133.694 64.0928 133.881 63.9114 134.027C63.7299 134.173 63.5158 134.274 63.287 134.32C63.0582 134.366 62.8214 134.357 62.5963 134.293C62.3713 134.229 62.1646 134.112 61.9937 133.952L57.3057 129.536" stroke="#043F5F" stroke-width="2"/>
<path d="M57.3057 129.536C55.9617 127.526 55.0844 124.8 54.6737 121.36C53.9484 115.328 54.2017 109.643 55.4337 104.304" stroke="#398081" stroke-width="2"/>
<path d="M55.4335 104.304C56.2388 104.08 56.9748 104.024 57.6415 104.136C57.7288 104.152 57.8188 104.14 57.8986 104.101C57.9783 104.062 58.0434 103.999 58.0845 103.92C58.1256 103.841 58.1405 103.752 58.127 103.664C58.1135 103.576 58.0723 103.495 58.0095 103.432C57.3375 102.76 56.4041 102.283 55.2095 102" stroke="#1F6674" stroke-width="2"/>
<path d="M55.2095 102C55.8761 98.5497 57.1322 95.0057 58.9775 91.3684" stroke="#398081" stroke-width="2"/>
<path d="M90.1615 87.2243C90.1348 87.3203 90.1215 87.419 90.1215 87.5203C90.1194 87.5626 90.1285 87.6048 90.148 87.6424C90.1675 87.6801 90.1966 87.7119 90.2324 87.7347C90.2681 87.7574 90.3093 87.7703 90.3516 87.772C90.394 87.7737 90.436 87.7641 90.4735 87.7443C100.266 82.8003 113.01 78.1043 120.33 75.0163C128.81 71.4403 138.073 68.6563 146.001 64.0243C146.056 63.9941 146.1 63.9486 146.129 63.8935C146.158 63.8383 146.171 63.776 146.165 63.714C146.159 63.6519 146.135 63.593 146.096 63.5444C146.057 63.4958 146.005 63.4596 145.946 63.4403C131.362 58.2403 119.178 61.4243 105.17 67.5683C92.4735 73.1443 82.8255 81.2403 74.5775 92.2323C73.8735 93.1683 67.8015 101.184 68.2655 101.48C68.3407 101.531 68.4299 101.555 68.5186 101.549C68.6073 101.544 68.6901 101.508 68.7535 101.448C75.0628 95.731 81.9268 90.779 89.3455 86.5923C89.4415 86.5382 89.5513 86.5137 89.6612 86.5217C89.7711 86.5297 89.8761 86.57 89.9633 86.6375C90.0504 86.7049 90.1156 86.7966 90.1509 86.901C90.1862 87.0054 90.1898 87.1178 90.1615 87.2243Z" stroke="#066077" stroke-width="2"/>
<path d="M67.1692 89.0965C68.4972 88.9445 73.4252 84.1525 74.9052 83.1045C81.3479 78.5392 87.8066 73.9899 94.2812 69.4565C94.9452 68.9925 95.8332 68.9045 96.2172 67.8245C96.2612 67.702 96.2708 67.5698 96.2449 67.4423C96.2191 67.3148 96.1587 67.1967 96.0705 67.1011C95.9822 67.0054 95.8695 66.9358 95.7444 66.8997C95.6194 66.8636 95.4868 66.8625 95.3612 66.8965C89.3132 68.5365 83.3692 70.5925 78.4252 74.5605C73.7692 78.2939 69.6919 82.5872 66.1932 87.4405C66.0732 87.6057 66.0041 87.8024 65.9944 88.0063C65.9846 88.2103 66.0346 88.4126 66.1383 88.5885C66.242 88.7644 66.3948 88.9062 66.5779 88.9964C66.761 89.0867 66.9666 89.1215 67.1692 89.0965Z" stroke="#066077" stroke-width="2"/>
<path d="M189.945 66.1362C190.543 66.9096 191.199 67.5522 191.913 68.0642C207.425 79.1202 206.553 118.72 197.353 133.216" stroke="#306972" stroke-width="2"/>
<path d="M197.353 133.217L192.553 135.401C192.319 135.507 192.153 135.681 192.057 135.921C190.068 140.918 191.055 145.065 195.017 148.361" stroke="#7A5D58" stroke-width="2"/>
<path d="M195.017 148.36C192.863 149.502 190.436 149.083 187.737 147.104" stroke="#695053" stroke-width="2"/>
<path d="M187.737 147.105L186.505 143.705" stroke="#7A5D58" stroke-width="2"/>
<path d="M186.506 143.704C185.346 135.824 186.378 127.808 186.29 120.16C186.274 118.752 185.252 116.307 183.226 112.824" stroke="#7F695E" stroke-width="2"/>
<path d="M183.226 112.825C177.679 103.47 174.386 93.4219 173.346 82.6806C173.342 82.6339 173.323 82.5895 173.294 82.5534C173.264 82.5172 173.224 82.4908 173.179 82.4778C173.134 82.4648 173.086 82.4658 173.041 82.4806C172.997 82.4953 172.958 82.5232 172.93 82.5606C153.226 107.897 117.594 116.513 87.0977 113.473C87.0484 113.467 87.0014 113.449 86.9616 113.419C86.9218 113.39 86.8905 113.35 86.871 113.305C86.8515 113.259 86.8444 113.209 86.8505 113.16C86.8566 113.111 86.8756 113.064 86.9057 113.025C90.4257 108.422 95.0603 105.534 100.81 104.361C100.879 104.35 100.911 104.31 100.906 104.241C100.906 104.171 100.9 104.102 100.89 104.033C100.879 103.974 100.847 103.945 100.794 103.945C93.2497 104.049 77.4497 106.433 72.5697 111.961C68.0897 117.033 69.5617 124.881 69.4977 131.009C69.4177 138.249 67.4097 147.849 58.3057 148.521" stroke="#775956" stroke-width="2"/>
<path d="M58.3057 148.52C64.2417 145.504 66.3377 136.04 58.9297 133.2" stroke="#7A5D58" stroke-width="2"/>
<path d="M58.9297 133.2C58.263 132.491 57.7217 131.27 57.3057 129.536" stroke="#386F74" stroke-width="2"/>
<path d="M57.7216 82.8645L51.1216 97.9445" stroke="#4A7876" stroke-width="2"/>
<path d="M51.1214 97.9446C50.4867 98.3392 50.0494 98.9499 49.8094 99.7766C49.7294 100.049 49.5507 100.174 49.2734 100.153C47.6467 100.03 46.5214 100.203 45.8974 100.673C42.8627 102.955 39.4574 104.313 35.6814 104.745C35.436 104.777 35.2414 104.891 35.0974 105.089L33.4014 107.409" stroke="#7FB998" stroke-width="2"/>
<path d="M33.4016 107.409C32.959 107.339 32.719 107.241 32.6816 107.113" stroke="#9BC79F" stroke-width="2"/>
<path d="M32.6812 107.112C33.1212 106.672 32.9292 106.2 32.4492 105.904C30.0546 104.438 27.4919 103.254 24.7612 102.352" stroke="#7FB998" stroke-width="2"/>
<path d="M50.2815 75.6407L50.3535 74.5446C50.3567 74.4994 50.351 74.4541 50.3367 74.4111C50.3224 74.3681 50.2997 74.3283 50.27 74.2942C50.2402 74.26 50.204 74.232 50.1634 74.2118C50.1229 74.1916 50.0787 74.1797 50.0335 74.1767L49.5055 74.1447C48.9991 74.1115 48.5085 74.1567 48.1401 74.2705C47.7717 74.3844 47.5551 74.5576 47.5375 74.7527L47.5135 75.0566C47.5063 75.1542 47.5491 75.2541 47.6393 75.3508C47.7295 75.4474 47.8655 75.5388 48.0393 75.6198C48.2132 75.7008 48.4216 75.7698 48.6526 75.8228C48.8836 75.8758 49.1326 75.9117 49.3855 75.9287L49.9135 75.9687C49.9593 75.9719 50.0053 75.9659 50.0488 75.9511C50.0923 75.9363 50.1324 75.9129 50.1667 75.8823C50.201 75.8517 50.2288 75.8146 50.2486 75.7731C50.2683 75.7316 50.2795 75.6866 50.2815 75.6407Z" stroke="#9BC79F" stroke-width="2"/>
<path d="M209.682 83.4087C212.444 88.7954 214.748 94.8327 216.594 101.521C216.674 101.814 216.866 101.934 217.17 101.881C217.906 101.742 218.439 101.883 218.77 102.305" stroke="#6EAF95" stroke-width="2"/>
<path d="M218.769 102.304L218.257 104.976C218.204 105.259 218.041 105.443 217.769 105.528L214.521 106.536C214.416 106.57 214.325 106.637 214.262 106.728C214.2 106.819 214.169 106.928 214.176 107.038C214.182 107.148 214.225 107.253 214.298 107.336C214.371 107.419 214.469 107.476 214.577 107.496L217.905 108.12C218.021 108.143 218.131 108.192 218.224 108.265C218.317 108.337 218.391 108.43 218.441 108.536C219.225 110.19 219.684 112.115 219.817 114.312" stroke="#93B997" stroke-width="2"/>
<path d="M219.817 114.312L219.977 117.753C219.988 118.003 220.113 118.166 220.353 118.241C221.305 118.537 221.609 124.113 221.793 125.305C221.836 125.577 221.801 125.838 221.689 126.089C221.071 127.486 221.041 128.883 221.601 130.281C221.703 130.537 221.697 130.79 221.585 131.041C221.143 132.027 220.948 132.955 221.001 133.824" stroke="#6EAF95" stroke-width="2"/>
<path d="M221.002 133.824C220.516 134.992 219.762 135.774 218.738 136.168C218.487 136.264 218.487 136.368 218.738 136.48L219.938 137.008" stroke="#93B997" stroke-width="2"/>
<path d="M219.938 137.009C220.066 142.609 219.372 148.358 217.858 154.257C215.954 161.657 214.866 168.633 210.21 175.433C209.447 176.547 208.983 177.465 208.818 178.185C208.556 179.331 208.62 180.393 209.01 181.369" stroke="#65AA94" stroke-width="2"/>
<path d="M209.009 181.368L208.897 185.632C208.887 185.963 208.716 186.134 208.385 186.144C204.268 186.283 203.393 186.654 205.761 187.256" stroke="#93B997" stroke-width="2"/>
<path d="M205.762 187.256C200.791 193.747 196.122 200.411 191.754 207.248C189.162 211.296 184.49 213.656 180.146 215.296C174.7 217.344 169.21 219.264 163.674 221.056C162.943 221.291 162.154 221.979 161.306 223.12" stroke="#65AA94" stroke-width="2"/>
<path d="M161.306 223.12C158.026 212.48 154.386 204.68 144.25 198.776C144.01 198.638 143.916 198.432 143.97 198.16C144.167 197.115 143.946 196.68 143.306 196.856" stroke="#539B8F" stroke-width="2"/>
<path d="M143.306 196.857C162.33 192.177 179.954 182.153 186.642 162.441C186.738 162.147 186.932 162.051 187.226 162.153C195.306 165.017 203.698 162.361 208.266 155.257C212.122 149.249 211.306 142.497 206.018 137.793C203.754 135.785 200.218 134.873 197.354 133.217" stroke="#A79878" stroke-width="2"/>
<path d="M184.473 194.097L182.065 194.545C182.008 194.556 181.955 194.585 181.916 194.629C181.876 194.673 181.852 194.728 181.846 194.787C181.841 194.845 181.855 194.904 181.886 194.954C181.916 195.004 181.963 195.043 182.017 195.065C182.673 195.321 183.353 195.39 184.057 195.273C184.201 195.25 184.348 195.274 184.476 195.342C184.604 195.41 184.707 195.517 184.769 195.649C185.159 196.475 185.337 197.369 185.305 198.329C185.303 198.385 185.32 198.441 185.353 198.488C185.385 198.535 185.432 198.569 185.486 198.587C185.54 198.605 185.598 198.606 185.652 198.588C185.706 198.57 185.753 198.535 185.785 198.489C186.223 197.875 186.279 197.235 185.953 196.569C185.692 196.035 185.855 195.809 186.441 195.889C186.98 195.969 187.465 195.857 187.897 195.553C187.952 195.515 187.996 195.463 188.024 195.403C188.052 195.342 188.064 195.276 188.058 195.209C188.053 195.142 188.03 195.077 187.992 195.021C187.954 194.965 187.902 194.919 187.841 194.889L186.961 194.457C186.732 194.35 186.583 194.174 186.513 193.929L185.649 190.793C185.631 190.704 185.58 190.626 185.506 190.574C185.433 190.521 185.342 190.498 185.253 190.51C185.163 190.521 185.081 190.565 185.023 190.634C184.964 190.702 184.934 190.79 184.937 190.881L184.881 193.617C184.876 193.889 184.74 194.049 184.473 194.097Z" stroke="#93B997" stroke-width="2"/>
<path d="M231.849 106.736C235.081 126.416 234.529 145.848 228.545 164.904" stroke="#598F80" stroke-width="2"/>
<path d="M228.545 164.905C225.841 172.574 222.239 179.766 217.737 186.481" stroke="#568679" stroke-width="2"/>
<path d="M217.737 186.481C213.297 188.889 220.153 174.441 220.361 174.049C225.681 164.281 225.505 150.649 224.801 139.657C224.721 138.446 224.228 137.337 223.321 136.329" stroke="#76B597" stroke-width="2"/>
<path d="M223.321 136.328L221.001 133.824" stroke="#A3C49A" stroke-width="2"/>
<path d="M219.818 114.312C220.484 112.883 220.826 111.392 220.842 109.84C220.842 109.693 220.87 109.548 220.927 109.412C220.983 109.276 221.066 109.152 221.17 109.048C222.343 107.832 223.778 107.102 225.474 106.856C227.015 106.632 227.034 106.27 225.53 105.768C224.042 105.28 221.322 106.664 220.962 103.872C220.754 102.272 220.479 100.686 220.138 99.1124C220.119 99.0367 220.076 98.969 220.014 98.9205C219.952 98.8719 219.877 98.8455 219.799 98.8455C219.722 98.8455 219.647 98.8719 219.588 98.9205C219.529 98.969 219.488 99.0367 219.474 99.1124L218.77 102.304" stroke="#A3C49A" stroke-width="2"/>
<path d="M183.225 112.824L181.841 113.008C181.601 113.04 181.409 112.96 181.265 112.768C177.201 107.168 174.22 101.027 172.321 94.3444C172.231 94.0244 172.065 93.9764 171.825 94.2004C150.241 114.256 124.209 119.728 95.4493 118.096C91.5213 117.872 88.4733 116.584 85.0973 114.864C84.1053 114.363 83.116 114.136 82.1293 114.184C78.0413 114.376 73.9693 113.792 73.5453 119.296C73.0253 125.872 71.3453 132.496 71.0573 138.704C70.6893 146.392 70.2253 152.408 71.7613 158.104" stroke="#F29362" stroke-width="2"/>
<path d="M71.7612 158.105C65.3559 160.393 60.7585 158.713 57.9692 153.065C57.1639 151.422 57.2759 149.907 58.3052 148.521" stroke="#EE875C" stroke-width="2"/>
<path d="M54.2576 94.7844L51.1216 97.9444" stroke="#386F74" stroke-width="2"/>
<path d="M55.2095 102L55.4335 104.304" stroke="#539689" stroke-width="2"/>
<path d="M58.9294 133.2C58.3587 133.584 57.7454 133.758 57.0894 133.72" stroke="#AF9D7A" stroke-width="2"/>
<path d="M57.0895 133.72C45.0175 135.576 44.2735 149.896 51.6975 157.16" stroke="#9BBE99" stroke-width="2"/>
<path d="M51.6978 157.16L55.4818 160.064" stroke="#AF9D7A" stroke-width="2"/>
<path d="M55.4812 160.064C57.0225 161.712 56.3772 162.102 53.5452 161.232C53.3319 161.168 53.1399 161.206 52.9692 161.344C52.1212 162.022 51.2598 162.688 50.3852 163.344C48.9532 164.424 46.8972 164.624 45.5692 166.208C44.3692 167.656 44.9692 169.456 42.8972 170.88C42.6732 171.03 42.5159 171.235 42.4252 171.496C41.6412 173.696 40.8012 176.064 38.0892 175.512C37.9388 175.481 37.782 175.508 37.651 175.588C37.52 175.668 37.4249 175.796 37.3852 175.944C37.2038 176.632 36.7265 176.95 35.9532 176.896C35.6439 176.88 35.4439 177.019 35.3532 177.312L35.2012 177.776C35.1052 178.075 34.9372 178.126 34.6972 177.928L34.2012 177.52C34.1559 177.481 34.1 177.457 34.0407 177.451C33.9814 177.445 33.9215 177.458 33.8688 177.487C33.8161 177.517 33.773 177.562 33.7453 177.616C33.7175 177.67 33.7063 177.732 33.7132 177.792L33.8412 178.84C33.8785 179.128 33.7665 179.208 33.5052 179.08L32.4812 178.592C32.4665 178.584 32.4542 178.572 32.4461 178.557C32.4381 178.542 32.4347 178.525 32.4365 178.509C32.4383 178.493 32.4451 178.478 32.4561 178.467C32.467 178.456 32.4814 178.45 32.4972 178.448L32.7772 178.4C32.9692 178.368 32.9959 178.286 32.8572 178.152L32.5932 177.88C32.4972 177.784 32.3879 177.771 32.2652 177.84C32.1692 177.899 32.0225 177.955 31.8252 178.008" stroke="#60A894" stroke-width="2"/>
<path d="M31.8257 178.008C27.3084 169.272 24.3564 160.035 22.9697 150.296" stroke="#4B7C75" stroke-width="2"/>
<path d="M32.6819 107.112C31.9299 107.032 31.4792 107.344 31.3299 108.048C31.3076 108.151 31.308 108.257 31.3311 108.359C31.3541 108.461 31.3992 108.557 31.4632 108.641C31.5272 108.724 31.6085 108.792 31.7016 108.84C31.7946 108.888 31.8971 108.916 32.0019 108.92C32.6419 108.947 33.1592 108.699 33.5539 108.176C33.6712 108.016 33.6765 107.851 33.5698 107.68L33.4019 107.408" stroke="#89BD9E" stroke-width="2"/>
<path d="M29.6816 147.752C29.463 148.355 29.6763 148.771 30.3216 149C30.4262 149.037 30.5375 149.05 30.6477 149.038C30.7578 149.027 30.8641 148.991 30.9589 148.934C31.0537 148.877 31.1346 148.799 31.1959 148.707C31.2573 148.615 31.2974 148.51 31.3136 148.4C31.479 147.312 31.031 146.992 29.9696 147.44C29.8367 147.502 29.7331 147.614 29.6816 147.752Z" stroke="#89BD9E" stroke-width="2"/>
<path d="M186.506 143.704L186.53 144.088C186.551 144.371 186.418 144.512 186.13 144.512H185.738C185.492 144.512 185.364 144.39 185.354 144.144C185.348 143.952 185.335 143.75 185.314 143.536C185.26 143.024 185.21 143.024 185.162 143.536C182.578 170.44 168.274 183.256 144.298 192.208C141.434 193.275 138.567 194.446 135.698 195.72" stroke="#F69764" stroke-width="2"/>
<path d="M135.698 195.72L121.13 196.792" stroke="#E58B5F" stroke-width="2"/>
<path d="M121.13 196.792L116.978 197.24" stroke="#A19B7B" stroke-width="2"/>
<path d="M116.978 197.241C95.2176 193.801 78.5296 182.729 72.2656 160.625" stroke="#A6A27E" stroke-width="2"/>
<path d="M72.2652 160.624L71.7612 158.104" stroke="#F69764" stroke-width="2"/>
<path d="M152.274 124.465C151.138 126.225 151.231 127.697 152.554 128.881C154.594 130.697 156.994 129.761 159.53 129.313C164.09 128.513 169.818 133.105 172.962 136.273C173.858 137.179 174.644 137.145 175.322 136.169C175.451 135.983 175.531 135.767 175.553 135.541C175.576 135.316 175.54 135.088 175.45 134.881C172.607 128.171 167.722 123.926 160.794 122.145C157.642 121.337 154.066 121.681 152.274 124.465Z" stroke="#8E543A" stroke-width="2"/>
<path d="M96.9218 122.881C90.4818 122.809 82.0978 127.073 80.6898 133.897C80.4818 134.91 80.8152 135.627 81.6898 136.049C81.9298 136.166 82.1645 136.153 82.3938 136.009C87.5618 132.689 91.1458 128.369 97.9618 131.529C107.018 135.737 107.514 123.001 96.9218 122.881Z" stroke="#8E543A" stroke-width="2"/>
<path d="M82.7612 151.472C83.2466 153.76 84.2466 154.896 85.7612 154.88" stroke="#E7A269" stroke-width="2"/>
<path d="M85.7612 154.88C89.9932 156.744 96.6173 158.672 101.233 157.064C101.328 157.03 101.408 156.965 101.463 156.88C101.518 156.795 101.544 156.694 101.537 156.592C101.516 156.24 101.356 156.072 101.057 156.088" stroke="#F9CCAF" stroke-width="2"/>
<path d="M101.057 156.089C106.873 152.065 106.089 144.729 100.601 141.081C94.2254 136.841 86.3854 139.545 82.2174 145.441C80.6281 147.686 80.8094 149.697 82.7614 151.473" stroke="#94563A" stroke-width="2"/>
<path d="M101.057 156.088C96.6814 158.064 91.7134 156.088 90.4574 151.52C89.6734 148.68 91.5534 143.832 95.0494 143.648C95.2038 143.641 95.3564 143.684 95.4832 143.773C95.61 143.861 95.7037 143.989 95.7495 144.137C95.7954 144.285 95.7908 144.443 95.7364 144.588C95.6821 144.733 95.5811 144.855 95.4494 144.936C94.6387 145.438 94.284 146.144 94.3854 147.056C94.4138 147.308 94.5025 147.548 94.6439 147.758C94.7854 147.967 94.9754 148.139 95.1978 148.26C95.4201 148.38 95.6683 148.445 95.921 148.448C96.1738 148.452 96.4237 148.394 96.6494 148.28C99.2574 146.976 99.2174 144.448 96.5934 143.296C90.6094 140.656 84.0974 145.24 83.0254 151.264" stroke="#937F7E" stroke-width="2"/>
<path d="M83.0252 151.264C82.9452 151.435 82.8572 151.504 82.7612 151.472" stroke="#805539" stroke-width="2"/>
<path d="M85.7614 154.88C84.2254 154.08 83.3134 152.875 83.0254 151.264" stroke="#E6CBAE" stroke-width="2"/>
<path d="M152.458 150.84C151.898 153.747 153.447 155.854 157.106 157.16C160.658 158.424 174.146 158.744 173.506 152.208" stroke="#F9CCAF" stroke-width="2"/>
<path d="M173.505 152.209C175.169 150.113 175.69 148.033 174.042 145.657C167.786 136.625 151.601 137.497 152.457 150.841" stroke="#8E543A" stroke-width="2"/>
<path d="M173.505 152.209C172.345 139.817 155.657 140.545 158.681 147.209C158.778 147.421 158.92 147.61 159.098 147.762C159.275 147.913 159.484 148.024 159.709 148.086C159.935 148.148 160.171 148.159 160.401 148.119C160.631 148.08 160.85 147.99 161.041 147.857L162.297 146.977" stroke="#8D7D7E" stroke-width="2"/>
<path d="M162.298 146.976L163.53 145.504" stroke="#370F0E" stroke-width="2"/>
<path d="M163.53 145.504L165.114 147.152" stroke="#4B1F1A" stroke-width="2"/>
<path d="M165.113 147.152C164.079 151.243 161.569 152.768 157.585 151.728C157.379 151.673 157.16 151.69 156.965 151.777C156.77 151.863 156.61 152.013 156.512 152.203C156.414 152.392 156.384 152.609 156.426 152.818C156.469 153.028 156.581 153.216 156.745 153.352L157.913 154.336C158.175 154.555 158.22 154.811 158.049 155.104L157.353 156.344" stroke="#370F0E" stroke-width="2"/>
<path d="M157.354 156.344C155.156 155.678 153.524 153.843 152.458 150.84" stroke="#8D7D7E" stroke-width="2"/>
<path d="M157.354 156.344C164.33 158.92 168.882 151.032 165.946 145.72C164.826 143.712 162.362 142.632 160.506 144.408" stroke="#A28783" stroke-width="2"/>
<path d="M160.506 144.408C159.554 144.952 159.066 146.816 160.458 146.904C160.514 146.909 160.57 146.899 160.621 146.873C160.672 146.848 160.714 146.809 160.745 146.761C160.775 146.712 160.792 146.656 160.794 146.598C160.795 146.541 160.781 146.483 160.754 146.432C160.204 145.446 160.25 144.851 160.89 144.648" stroke="#97B2B1" stroke-width="2"/>
<path d="M160.89 144.648C161.578 145.032 162.047 145.808 162.298 146.976" stroke="#A28783" stroke-width="2"/>
<path d="M165.114 147.152C165.626 146.064 165.098 145.515 163.53 145.504" stroke="#60281F" stroke-width="2"/>
<path d="M160.889 144.648C160.916 144.595 160.788 144.515 160.505 144.408" stroke="#414341" stroke-width="2"/>
<path d="M173.025 159.008L171.785 160.024C171.726 160.073 171.676 160.133 171.64 160.201C171.604 160.269 171.581 160.343 171.574 160.42C171.567 160.496 171.574 160.574 171.597 160.647C171.619 160.721 171.656 160.789 171.705 160.848L172.001 161.2C172.391 161.676 172.868 162.047 173.327 162.233C173.786 162.419 174.19 162.404 174.449 162.192L174.633 162.04C174.762 161.935 174.852 161.785 174.897 161.597C174.942 161.409 174.941 161.188 174.895 160.947C174.849 160.705 174.758 160.448 174.628 160.189C174.498 159.931 174.331 159.676 174.137 159.44L173.849 159.088C173.8 159.029 173.74 158.98 173.673 158.943C173.605 158.907 173.53 158.885 173.454 158.877C173.377 158.87 173.3 158.878 173.226 158.9C173.153 158.923 173.085 158.959 173.025 159.008Z" stroke="#FBB27F" stroke-width="2"/>
<path d="M113.489 178.824C117.463 181.315 121.729 183.182 126.289 184.424" stroke="#94563A" stroke-width="2"/>
<path d="M126.29 184.425C131.687 185.55 136.828 184.731 141.714 181.969" stroke="#C76341" stroke-width="2"/>
<path d="M141.714 181.969C145.1 180.39 148.14 178.369 150.834 175.905C151.154 175.611 151.103 175.507 150.682 175.593C138.426 178.062 126.322 178.857 114.37 177.977" stroke="#94563A" stroke-width="2"/>
<path d="M114.369 177.976C108.055 176.926 102.247 175.283 96.9455 173.048C96.5561 172.883 96.3241 173.006 96.2495 173.416L96.0975 174.168C96.0441 174.462 96.1615 174.643 96.4495 174.712L113.489 178.824" stroke="#E58B5F" stroke-width="2"/>
<path d="M114.37 177.977C113.666 178.142 113.372 178.425 113.489 178.825" stroke="#7E3E2E" stroke-width="2"/>
<path d="M141.714 181.968C140.866 181.446 139.964 181.158 139.01 181.104C138.743 181.088 138.508 180.992 138.306 180.816C137.218 179.84 135.994 179.43 134.634 179.584C130.746 180.032 127.69 179.824 126.29 184.424" stroke="#601611" stroke-width="2"/>
<path d="M143.305 196.857C141.396 197.166 139.465 197.081 137.513 196.601" stroke="#9D8F75" stroke-width="2"/>
<path d="M137.514 196.6L135.698 195.72" stroke="#E07F59" stroke-width="2"/>
<path d="M187.737 147.104L187.146 159.448C187.141 159.57 187.171 159.69 187.234 159.795C187.296 159.9 187.388 159.985 187.497 160.04C191.681 162.12 197.673 157.568 199.801 154.408C203.049 149.576 197.561 144.968 194.081 142.68C193.868 142.542 193.722 142.347 193.642 142.096L192.537 138.52C192.5 138.398 192.468 138.4 192.442 138.528C191.602 142.816 192.161 144.432 195.505 147.144C195.597 147.219 195.658 147.326 195.676 147.444C195.694 147.562 195.667 147.683 195.601 147.784C195.42 148.046 195.225 148.238 195.017 148.36" stroke="#E07F59" stroke-width="2"/>
<path d="M72.2654 160.624C68.1748 162.848 63.9614 163.331 59.6254 162.072C58.2574 161.672 56.9694 160.56 55.4814 160.064" stroke="#A29678" stroke-width="2"/>
<path d="M51.6976 157.16C48.9403 153.374 47.8043 149.342 48.2896 145.064C48.5536 142.736 50.4976 138.216 52.1616 136.72C53.4576 135.568 55.1003 134.568 57.0896 133.72" stroke="#DDAC7D" stroke-width="2"/>
<path d="M223.321 136.329C221.577 137.843 220.449 138.07 219.938 137.009" stroke="#9BBE99" stroke-width="2"/>
<path d="M134.209 235.168L145.513 233.576" stroke="#407975" stroke-width="2"/>
<path d="M145.513 233.576L149.241 232.88C149.529 232.827 149.679 232.651 149.689 232.352C149.791 227.488 149.495 222.646 148.801 217.824C148.794 217.752 148.814 217.679 148.856 217.62C148.898 217.56 148.96 217.518 149.031 217.5C149.102 217.483 149.177 217.491 149.242 217.524C149.307 217.558 149.358 217.613 149.385 217.68C151.001 222.214 152.079 226.87 152.617 231.648C152.625 231.709 152.645 231.768 152.676 231.82C152.708 231.872 152.749 231.917 152.799 231.951C152.848 231.986 152.904 232.008 152.963 232.018C153.021 232.028 153.081 232.025 153.137 232.008L162.913 229.328" stroke="#3B7273" stroke-width="2"/>
<path d="M162.913 229.328C186.3 221.515 204.574 207.232 217.737 186.48" stroke="#4D8178" stroke-width="2"/>
<path d="M162.914 229.329L161.306 223.121" stroke="#5BA191" stroke-width="2"/>
<path d="M205.761 187.256C206.801 187.384 207.663 187.736 208.345 188.312C208.548 188.483 208.663 188.699 208.689 188.96L209.233 193.56C209.292 194.03 209.428 194.054 209.641 193.632C210.633 191.656 210.465 189.92 211.209 188.336C211.337 188.07 211.548 187.931 211.841 187.92C212.812 187.883 213.596 187.52 214.193 186.832C214.244 186.774 214.278 186.704 214.293 186.628C214.307 186.552 214.302 186.474 214.277 186.401C214.252 186.328 214.208 186.263 214.15 186.212C214.091 186.162 214.021 186.127 213.945 186.112L211.841 185.704C211.686 185.672 211.539 185.606 211.41 185.51C211.282 185.415 211.175 185.293 211.097 185.152L209.009 181.368" stroke="#9BBE99" stroke-width="2"/>
<path d="M92.62 147.06C92.6712 147.097 92.7345 147.116 92.8062 147.116C92.8779 147.116 92.9566 147.097 93.0379 147.06C93.1192 147.024 93.2014 146.97 93.2799 146.902C93.3584 146.834 93.4316 146.753 93.4954 146.665C93.5591 146.576 93.6122 146.481 93.6515 146.385C93.6908 146.289 93.7157 146.194 93.7245 146.105C93.7334 146.016 93.7262 145.935 93.7033 145.867C93.6804 145.8 93.6423 145.746 93.5911 145.709C93.5399 145.672 93.4766 145.653 93.4049 145.653C93.3332 145.653 93.2545 145.672 93.1732 145.709C93.0919 145.745 93.0097 145.799 92.9312 145.867C92.8527 145.935 92.7795 146.016 92.7157 146.104C92.652 146.193 92.5989 146.288 92.5596 146.384C92.5203 146.48 92.4955 146.576 92.4866 146.664C92.4777 146.753 92.4849 146.834 92.5078 146.902C92.5307 146.97 92.5689 147.023 92.62 147.06Z" stroke="#684633" stroke-width="2"/>
<path d="M31.8252 178.009C46.5372 206.201 72.7452 226.441 104.137 232.489" stroke="#3D7472" stroke-width="2"/>
<path d="M104.138 232.489L107.066 233.113" stroke="#316267" stroke-width="2"/>
<path d="M107.065 233.113C115.801 234.969 124.849 235.654 134.209 235.169" stroke="#3D7472" stroke-width="2"/>
<path d="M116.977 197.24C117.153 199.043 116.689 199.824 115.585 199.584" stroke="#4D998F" stroke-width="2"/>
<path d="M115.585 199.584C108.359 202.774 102.985 208.198 99.4653 215.856C97.4066 220.331 95.9933 224.675 95.2253 228.888C95.2211 228.923 95.2283 228.958 95.2458 228.987C95.2633 229.016 95.2899 229.038 95.3213 229.048C95.3906 229.07 95.46 229.091 95.5293 229.112C95.7373 229.176 95.86 229.102 95.8973 228.888C97.7053 218.792 102.825 208.472 111.329 202.416" stroke="#80B798" stroke-width="2"/>
<path d="M111.33 202.416C112.044 202.79 112.727 202.699 113.378 202.145C113.602 201.953 113.834 201.939 114.074 202.104C114.431 202.355 114.759 202.504 115.058 202.552" stroke="#4D998F" stroke-width="2"/>
<path d="M115.058 202.552L115.234 206.728C115.238 206.865 115.285 206.996 115.368 207.106C115.451 207.216 115.566 207.299 115.698 207.345C116.802 207.718 117.663 207.417 118.282 206.441C118.37 206.298 118.505 206.182 118.664 206.111C118.823 206.039 118.996 206.017 119.156 206.048C119.315 206.079 119.451 206.16 119.54 206.28C119.63 206.399 119.669 206.549 119.65 206.704C119.447 208.496 120.135 209.64 121.714 210.136C121.996 210.227 122.204 210.139 122.338 209.873L123.722 207.121C123.751 207.061 123.795 207.009 123.85 206.97C123.904 206.931 123.968 206.906 124.034 206.897C124.101 206.889 124.168 206.896 124.231 206.92C124.293 206.944 124.349 206.982 124.394 207.032L127.226 210.304C127.412 210.518 127.659 210.67 127.933 210.741C128.208 210.813 128.497 210.801 128.764 210.706C129.031 210.611 129.264 210.438 129.432 210.21C129.6 209.981 129.695 209.708 129.706 209.425C129.738 208.502 130.034 207.542 130.594 206.545" stroke="#A2C4A5" stroke-width="2"/>
<path d="M130.593 206.544L130.681 206.344C130.788 206.104 130.887 206.107 130.977 206.352C131.532 207.878 132.449 209.142 133.729 210.144C133.852 210.241 134.003 210.296 134.16 210.3C134.317 210.305 134.472 210.258 134.601 210.168C136.025 209.187 136.775 207.814 136.849 206.048C136.855 205.904 136.912 205.766 137.01 205.66C137.108 205.554 137.24 205.486 137.384 205.468C137.527 205.451 137.672 205.485 137.793 205.565C137.913 205.645 138.001 205.765 138.041 205.904C138.319 206.854 139.087 207.512 140.345 207.88" stroke="#8DB797" stroke-width="2"/>
<path d="M140.345 207.88C141.071 208.584 141.855 209.051 142.697 209.28C142.812 209.311 142.919 209.366 143.01 209.444C143.102 209.521 143.175 209.619 143.225 209.728C143.711 210.806 144.007 211.8 144.113 212.712C144.812 218.824 145.279 225.779 145.513 233.576" stroke="#4D998F" stroke-width="2"/>
<path d="M107.066 233.113C107.039 228.211 107.644 223.411 108.882 218.713C109.031 218.153 108.972 218.131 108.706 218.649C106.45 223.017 104.927 227.63 104.138 232.489" stroke="#468E86" stroke-width="2"/>
<path d="M137.514 196.601C135.727 201.081 131.981 202.934 126.274 202.161C123.165 201.739 121.45 199.95 121.13 196.793" stroke="#8C8270" stroke-width="2"/>
<path d="M140.346 207.88C142.77 207.88 142.698 203.488 142.786 201.72C142.788 201.646 142.769 201.573 142.73 201.51C142.691 201.446 142.634 201.396 142.566 201.365C142.498 201.335 142.423 201.324 142.35 201.336C142.276 201.348 142.208 201.382 142.154 201.432C138.938 204.451 134.986 205.918 130.298 205.832" stroke="#88B094" stroke-width="2"/>
<path d="M130.298 205.833C125.578 206.209 119.114 205.833 116.306 201.521C116.14 201.265 115.922 201.206 115.65 201.345C115.314 201.515 115.116 201.918 115.058 202.553" stroke="#9DBDA3" stroke-width="2"/>
<path d="M111.33 202.416C113.303 201.627 114.722 200.683 115.586 199.584" stroke="#7BB095" stroke-width="2"/>
<path d="M130.298 205.833L130.594 206.545" stroke="#DDDBAB" stroke-width="2"/>
<path d="M164.186 27.3765C163.986 27.9525 163.81 28.3285 163.122 28.1445C159.97 27.3072 156.823 26.4298 153.682 25.5125C152.354 25.1285 151.316 24.9445 150.57 24.9605C147.874 25.0405 144.346 27.0965 146.562 30.2245C146.7 30.4272 146.756 30.6485 146.73 30.8885C146.41 33.6885 144.218 34.0965 142.362 35.3765C142.17 35.5099 141.959 35.5605 141.73 35.5285C140.748 35.4058 139.807 35.5285 138.906 35.8965C138.859 35.912 138.822 35.944 138.799 35.9862C138.777 36.0284 138.772 36.0778 138.785 36.1248C138.798 36.1718 138.828 36.213 138.87 36.2403C138.911 36.2676 138.961 36.2791 139.01 36.2725C143.01 35.8032 145.506 36.8592 146.498 39.4405L137.746 37.7685C137.378 37.6992 137.375 37.6192 137.738 37.5285C138.244 37.4058 138.503 37.0752 138.514 36.5365C138.524 36.2538 138.388 36.1072 138.106 36.0965C123.791 35.4725 110.012 37.7579 96.7696 42.9525C95.2069 43.5659 93.5482 44.4112 91.7936 45.4885C87.7616 47.9685 83.6896 50.2645 79.8976 52.9605C73.3216 57.6405 67.5215 61.0085 62.9615 68.3765L60.7136 71.1925C60.5375 71.4165 60.3695 71.4138 60.2095 71.1845C57.3695 67.2245 54.1696 67.5365 50.1936 66.6645C48.1562 66.2165 46.0816 66.1392 43.9696 66.4325C43.8443 66.4494 43.7168 66.4314 43.6011 66.3806C43.4854 66.3298 43.3859 66.2481 43.3135 66.1445C42.9775 65.6539 42.5482 65.4832 42.0256 65.6325C41.8656 65.6752 41.7669 65.6165 41.7296 65.4565L41.6016 64.8725C48.0496 55.7365 55.6896 47.8085 64.5216 41.0885C80.0736 29.7712 97.4922 23.1205 116.778 21.1365C133.092 19.9205 148.895 22.0005 164.186 27.3765Z" fill="#A5CBA5"/>
<path d="M164.185 27.3764C189.057 36.7044 210.753 54.8004 222.609 78.8404C222.284 78.9151 222.161 79.1738 222.241 79.6164C222.273 79.8084 222.212 79.8484 222.057 79.7364L221.865 79.5924C221.625 79.4164 221.38 79.4111 221.129 79.5764C219.908 80.4031 218.604 80.7898 217.217 80.7364C215.804 80.6778 214.828 80.7418 214.289 80.9284C212.721 81.4671 211.185 82.2938 209.681 83.4084C206.284 76.6351 201.945 71.8538 196.665 69.0644C193.793 63.1764 186.697 57.4724 179.921 60.0244C179.649 60.1311 179.433 60.0618 179.273 59.8164C173.449 50.9764 160.681 44.9844 150.993 41.8084C150.508 40.6884 149.009 39.8991 146.497 39.4404C145.505 36.8591 143.009 35.8031 139.009 36.2724C138.961 36.279 138.911 36.2675 138.869 36.2402C138.828 36.2129 138.797 36.1717 138.784 36.1247C138.771 36.0778 138.777 36.0283 138.799 35.9861C138.821 35.9439 138.859 35.9119 138.905 35.8964C139.807 35.5284 140.748 35.4058 141.729 35.5284C141.959 35.5604 142.169 35.5098 142.361 35.3764C144.217 34.0964 146.409 33.6884 146.729 30.8884C146.756 30.6484 146.7 30.4271 146.561 30.2244C144.345 27.0964 147.873 25.0404 150.569 24.9604C151.316 24.9444 152.353 25.1284 153.681 25.5124C156.823 26.4298 159.969 27.3071 163.121 28.1444C163.809 28.3284 163.985 27.9524 164.185 27.3764ZM190.073 56.6644C187.423 56.7018 184.839 57.1444 182.321 57.9924C181.676 58.2111 181.692 58.3444 182.369 58.3924C185.649 58.6218 188.676 59.6484 191.449 61.4724C191.796 61.7018 191.916 61.6138 191.809 61.2084L190.673 57.1204C190.639 56.988 190.561 56.871 190.452 56.7883C190.344 56.7055 190.21 56.6619 190.073 56.6644Z" fill="#91C299"/>
<path d="M146.497 39.4405C149.009 39.8991 150.508 40.6885 150.993 41.8085C144.108 39.7711 137.135 38.7285 130.073 38.6805C104.105 39.6298 82.7081 49.9098 65.8814 69.5205L62.9614 68.3765C67.5214 61.0085 73.3214 57.6405 79.8974 52.9605C83.6894 50.2645 87.7614 47.9685 91.7934 45.4885C93.5481 44.4111 95.2068 43.5658 96.7694 42.9525C110.012 37.7578 123.791 35.4725 138.105 36.0965C138.388 36.1071 138.524 36.2538 138.513 36.5365C138.503 37.0751 138.244 37.4058 137.737 37.5285C137.375 37.6191 137.377 37.6991 137.745 37.7685L146.497 39.4405Z" fill="#C8CD9C"/>
<path d="M130.073 38.6804C131.231 39.2618 132.423 39.5524 133.649 39.5524C133.744 39.5546 133.838 39.5806 133.92 39.6281C134.003 39.6757 134.072 39.7432 134.121 39.8244C134.649 40.7258 134.495 41.1898 133.657 41.2164C126.564 41.4778 121.284 44.3791 117.817 49.9204C117.401 50.5871 117.497 50.6724 118.105 50.1764C124.401 45.0964 131.321 41.9444 139.369 42.5844C144.783 43.0111 149.028 43.7338 152.105 44.7524C161.561 47.8804 164.625 56.9844 159.233 65.2724C159.189 65.3408 159.131 65.3995 159.064 65.4449C158.996 65.4903 158.92 65.5214 158.84 65.5364C158.76 65.5514 158.677 65.5499 158.598 65.532C158.518 65.5141 158.443 65.4802 158.377 65.4324C153.3 61.8431 147.697 59.8458 141.569 59.4404C140.409 59.3684 139.313 58.9204 138.377 58.8724C131.513 58.4937 124.652 58.4324 117.793 58.6884C104.849 59.1684 89.8733 63.1204 79.4093 70.8404C71.9133 76.3764 66.6173 81.2244 61.2653 89.2644C61.0253 89.6218 60.2627 90.3231 58.9773 91.3684L54.2573 94.7844C54.8333 91.1151 56.076 87.7684 57.9853 84.7444C58.0556 84.6313 58.1006 84.5047 58.1172 84.3735C58.1337 84.2423 58.1215 84.1095 58.0813 83.9844L57.7213 82.8644C60.0413 78.2244 62.7613 73.7764 65.8813 69.5204C82.708 49.9098 104.105 39.6298 130.073 38.6804ZM77.9933 61.7764C76.8893 62.7124 73.0893 66.1204 73.6413 67.6084C73.6941 67.7541 73.7788 67.8861 73.8892 67.9949C73.9996 68.1036 74.1329 68.1863 74.2794 68.2369C74.4258 68.2875 74.5817 68.3047 74.7357 68.2874C74.8897 68.27 75.0378 68.2184 75.1693 68.1364C85.884 61.4858 96.8173 55.2138 107.969 49.3204C109.457 48.5364 110.841 47.3364 112.129 46.3044C112.317 46.1522 112.454 45.946 112.522 45.7136C112.589 45.4812 112.584 45.2337 112.506 45.0044C112.429 44.7752 112.283 44.5753 112.088 44.4315C111.893 44.2878 111.659 44.2071 111.417 44.2004C109.972 44.1578 108.479 44.4138 106.937 44.9684C96.2813 48.8298 86.6333 54.4324 77.9933 61.7764Z" fill="#076F81"/>
<path d="M130.074 38.6804C137.135 38.7284 144.108 39.7711 150.994 41.8084C160.682 44.9844 173.45 50.9764 179.274 59.8164C179.434 60.0618 179.65 60.1311 179.922 60.0244C186.698 57.4724 193.794 63.1764 196.666 69.0644C194.591 68.8351 192.351 67.8591 189.946 66.1364C189.178 66.2911 188.492 66.1711 187.89 65.7764C184.906 63.8244 181.33 62.7604 178.034 61.4084C177.063 61.0138 176.052 60.6911 175.002 60.4404C174.66 60.3604 174.359 60.4351 174.098 60.6644L162.274 70.9924C162.216 71.0429 162.148 71.0809 162.074 71.1039C162.001 71.127 161.923 71.1346 161.846 71.1263C161.77 71.1181 161.696 71.0941 161.629 71.0559C161.562 71.0177 161.504 70.9662 161.458 70.9044C159.33 68.0724 156.522 66.2111 153.034 65.3204C152.959 65.2983 152.879 65.3036 152.808 65.3352C152.736 65.3669 152.679 65.4229 152.645 65.4932C152.611 65.5635 152.604 65.6434 152.624 65.7188C152.644 65.7942 152.69 65.86 152.754 65.9044L159.658 70.8324C159.805 70.9382 159.925 71.0785 160.005 71.2411C160.086 71.4037 160.126 71.5836 160.121 71.7651C160.117 71.9467 160.068 72.1242 159.978 72.2824C159.889 72.4406 159.763 72.5745 159.61 72.6724C148.255 79.9204 135.82 84.9818 122.306 87.8564C103.658 91.8244 83.9937 96.1204 69.3377 109.336C64.4337 113.76 64.7857 119.84 65.6497 126.048C66.0417 128.888 65.4017 131.048 64.3297 133.48C64.2362 133.694 64.0928 133.881 63.9114 134.027C63.73 134.173 63.5159 134.274 63.2871 134.32C63.0583 134.366 62.8214 134.357 62.5964 134.293C62.3713 134.229 62.1646 134.112 61.9937 133.952L57.3057 129.536C55.9617 127.526 55.0844 124.8 54.6737 121.36C53.9484 115.328 54.2017 109.643 55.4337 104.304C56.239 104.08 56.975 104.024 57.6417 104.136C57.729 104.152 57.819 104.14 57.8988 104.101C57.9785 104.062 58.0436 103.998 58.0847 103.92C58.1258 103.841 58.1407 103.752 58.1272 103.664C58.1137 103.576 58.0725 103.495 58.0097 103.432C57.3377 102.76 56.4043 102.283 55.2097 102C55.8763 98.5498 57.1324 95.0058 58.9777 91.3684C60.263 90.3231 61.0257 89.6218 61.2657 89.2644C66.6177 81.2244 71.9137 76.3764 79.4097 70.8404C89.8737 63.1204 104.85 59.1684 117.794 58.6884C124.652 58.4324 131.514 58.4938 138.378 58.8724C139.314 58.9204 140.41 59.3684 141.57 59.4404C147.698 59.8458 153.3 61.8431 158.378 65.4324C158.444 65.4802 158.519 65.5141 158.598 65.532C158.678 65.5499 158.76 65.5514 158.84 65.5364C158.92 65.5214 158.996 65.4903 159.064 65.4449C159.132 65.3995 159.189 65.3408 159.234 65.2724C164.626 56.9844 161.562 47.8804 152.106 44.7524C149.028 43.7338 144.783 43.0111 139.37 42.5844C131.322 41.9444 124.402 45.0964 118.106 50.1764C117.498 50.6724 117.402 50.5871 117.818 49.9204C121.284 44.3791 126.564 41.4778 133.658 41.2164C134.495 41.1898 134.65 40.7258 134.122 39.8244C134.072 39.7432 134.003 39.6757 133.92 39.6281C133.838 39.5806 133.745 39.5546 133.65 39.5524C132.423 39.5524 131.231 39.2618 130.074 38.6804ZM90.1617 87.2244C90.135 87.3204 90.1217 87.4191 90.1217 87.5204C90.1196 87.5628 90.1287 87.6049 90.1482 87.6425C90.1677 87.6802 90.1968 87.712 90.2326 87.7348C90.2683 87.7576 90.3095 87.7704 90.3518 87.7721C90.3942 87.7738 90.4362 87.7643 90.4737 87.7444C100.266 82.8004 113.01 78.1044 120.33 75.0164C128.81 71.4404 138.074 68.6564 146.002 64.0244C146.056 63.9942 146.101 63.9487 146.13 63.8936C146.159 63.8385 146.171 63.7761 146.165 63.7141C146.159 63.6521 146.135 63.5932 146.096 63.5445C146.057 63.4959 146.005 63.4598 145.946 63.4404C131.362 58.2404 119.178 61.4244 105.17 67.5684C92.4737 73.1444 82.8257 81.2404 74.5777 92.2324C73.8737 93.1684 67.8017 101.184 68.2657 101.48C68.3409 101.531 68.4301 101.555 68.5188 101.55C68.6074 101.544 68.6903 101.508 68.7537 101.448C75.063 95.7311 81.927 90.7791 89.3457 86.5924C89.4417 86.5383 89.5515 86.5138 89.6614 86.5218C89.7713 86.5299 89.8763 86.5701 89.9634 86.6376C90.0505 86.7051 90.1158 86.7967 90.1511 86.9011C90.1863 87.0055 90.19 87.118 90.1617 87.2244ZM67.1697 89.0964C68.4977 88.9444 73.4257 84.1524 74.9057 83.1044C81.3484 78.5391 87.807 73.9898 94.2817 69.4564C94.9457 68.9924 95.8337 68.9044 96.2177 67.8244C96.2617 67.7019 96.2713 67.5697 96.2454 67.4422C96.2195 67.3146 96.1592 67.1966 96.071 67.101C95.9827 67.0053 95.87 66.9357 95.7449 66.8996C95.6199 66.8635 95.4873 66.8624 95.3617 66.8964C89.3137 68.5364 83.3697 70.5924 78.4257 74.5604C73.7697 78.2938 69.6923 82.5871 66.1937 87.4404C66.0737 87.6056 66.0046 87.8023 65.9948 88.0062C65.9851 88.2101 66.0351 88.4125 66.1388 88.5884C66.2424 88.7643 66.3952 88.9061 66.5784 88.9963C66.7615 89.0866 66.967 89.1214 67.1697 89.0964Z" fill="#04506C"/>
<path d="M73.6414 67.6084C73.0894 66.1204 76.8894 62.7124 77.9934 61.7764C86.6334 54.4324 96.2814 48.8297 106.937 44.9684C108.479 44.4137 109.972 44.1577 111.417 44.2004C111.659 44.2071 111.893 44.2877 112.088 44.4315C112.283 44.5752 112.429 44.7752 112.506 45.0044C112.584 45.2336 112.589 45.4811 112.522 45.7135C112.454 45.946 112.318 46.1522 112.129 46.3044C110.841 47.3364 109.457 48.5364 107.969 49.3204C96.8174 55.2137 85.884 61.4857 75.1694 68.1364C75.0379 68.2184 74.8898 68.2699 74.7358 68.2873C74.5818 68.3047 74.4259 68.2875 74.2794 68.2368C74.133 68.1862 73.9997 68.1035 73.8893 67.9948C73.7789 67.8861 73.6942 67.754 73.6414 67.6084Z" fill="#FCE4AD"/>
<path d="M190.673 57.1207L191.809 61.2087C191.916 61.614 191.796 61.702 191.449 61.4727C188.676 59.6487 185.649 58.622 182.369 58.3927C181.692 58.3447 181.676 58.2113 182.321 57.9927C184.839 57.1447 187.423 56.702 190.073 56.6647C190.21 56.6621 190.344 56.7057 190.453 56.7885C190.561 56.8712 190.639 56.9882 190.673 57.1207Z" fill="#7EBA98"/>
<path d="M189.946 66.1365C190.543 66.9098 191.199 67.5525 191.914 68.0645C207.426 79.1205 206.554 118.72 197.354 133.216L192.554 135.4C192.319 135.507 192.154 135.68 192.058 135.92C190.068 140.918 191.055 145.064 195.018 148.36C192.863 149.502 190.436 149.083 187.738 147.104L186.506 143.704C185.346 135.824 186.378 127.808 186.29 120.16C186.274 118.752 185.252 116.307 183.226 112.824C177.679 103.47 174.386 93.4218 173.346 82.6805C173.342 82.6338 173.323 82.5894 173.294 82.5532C173.264 82.517 173.224 82.4907 173.179 82.4777C173.134 82.4647 173.086 82.4657 173.041 82.4804C172.997 82.4952 172.958 82.5231 172.93 82.5605C153.226 107.896 117.594 116.512 87.0977 113.472C87.0484 113.467 87.0014 113.449 86.9616 113.419C86.9218 113.39 86.8905 113.35 86.871 113.304C86.8515 113.259 86.8444 113.209 86.8505 113.16C86.8566 113.111 86.8756 113.064 86.9057 113.024C90.4257 108.422 95.0603 105.534 100.81 104.36C100.879 104.35 100.911 104.31 100.906 104.24C100.906 104.171 100.9 104.102 100.89 104.032C100.879 103.974 100.847 103.944 100.794 103.944C93.2497 104.048 77.4497 106.432 72.5697 111.96C68.0897 117.032 69.5617 124.88 69.4977 131.008C69.4177 138.248 67.4097 147.848 58.3057 148.52C64.2417 145.504 66.3377 136.04 58.9297 133.2C58.263 132.491 57.7217 131.27 57.3057 129.536L61.9937 133.952C62.1646 134.112 62.3713 134.229 62.5963 134.293C62.8214 134.357 63.0582 134.366 63.287 134.32C63.5158 134.274 63.7299 134.173 63.9114 134.027C64.0928 133.881 64.2362 133.694 64.3297 133.48C65.4017 131.048 66.0417 128.888 65.6497 126.048C64.7857 119.84 64.4336 113.76 69.3376 109.336C83.9936 96.1205 103.658 91.8244 122.306 87.8564C135.82 84.9818 148.255 79.9205 159.61 72.6725C159.763 72.5745 159.889 72.4406 159.978 72.2824C160.067 72.1243 160.117 71.9467 160.121 71.7652C160.126 71.5837 160.086 71.4038 160.005 71.2412C159.925 71.0786 159.805 70.9383 159.658 70.8325L152.754 65.9045C152.69 65.86 152.643 65.7942 152.624 65.7188C152.604 65.6435 152.611 65.5635 152.645 65.4932C152.679 65.4229 152.736 65.3669 152.807 65.3353C152.879 65.3036 152.959 65.2984 153.034 65.3205C156.522 66.2111 159.33 68.0725 161.458 70.9045C161.504 70.9662 161.562 71.0178 161.629 71.056C161.696 71.0941 161.77 71.1181 161.846 71.1264C161.923 71.1346 162.001 71.127 162.074 71.104C162.148 71.0809 162.215 71.043 162.274 70.9925L174.098 60.6645C174.359 60.4351 174.66 60.3605 175.002 60.4405C176.052 60.6911 177.063 61.0138 178.034 61.4085C181.33 62.7605 184.906 63.8245 187.89 65.7765C188.492 66.1711 189.178 66.2911 189.946 66.1365Z" fill="#032E52"/>
<path d="M90.1615 87.2245C90.1898 87.1181 90.1862 87.0056 90.1509 86.9012C90.1156 86.7968 90.0504 86.7052 89.9633 86.6377C89.8761 86.5702 89.7711 86.53 89.6612 86.5219C89.5513 86.5139 89.4415 86.5385 89.3455 86.5925C81.9268 90.7792 75.0628 95.7312 68.7535 101.449C68.6901 101.508 68.6073 101.544 68.5186 101.55C68.4299 101.555 68.3407 101.531 68.2655 101.481C67.8015 101.185 73.8735 93.1685 74.5775 92.2325C82.8255 81.2405 92.4735 73.1445 105.17 67.5685C119.178 61.4245 131.362 58.2405 145.946 63.4405C146.005 63.4599 146.057 63.4961 146.096 63.5447C146.135 63.5933 146.159 63.6522 146.165 63.7142C146.171 63.7762 146.158 63.8386 146.129 63.8937C146.1 63.9488 146.056 63.9943 146.001 64.0245C138.073 68.6565 128.81 71.4405 120.33 75.0165C113.01 78.1045 100.266 82.8005 90.4735 87.7445C90.436 87.7644 90.394 87.7739 90.3516 87.7722C90.3093 87.7705 90.2681 87.7577 90.2324 87.7349C90.1966 87.7122 90.1675 87.6803 90.148 87.6427C90.1285 87.605 90.1194 87.5629 90.1215 87.5205C90.1215 87.4192 90.1348 87.3205 90.1615 87.2245Z" fill="#076F81"/>
<path d="M41.6012 64.8726L41.7292 65.4566C41.7666 65.6166 41.8652 65.6752 42.0252 65.6326C42.5479 65.4832 42.9772 65.6539 43.3132 66.1446C43.3856 66.2482 43.4851 66.3299 43.6008 66.3807C43.7165 66.4315 43.844 66.4494 43.9692 66.4326C46.0812 66.1392 48.1559 66.2166 50.1932 66.6646C54.1692 67.5366 57.3692 67.2246 60.2092 71.1846C60.3692 71.4139 60.5372 71.4166 60.7132 71.1926L62.9612 68.3766L65.8812 69.5206C62.7612 73.7766 60.0412 78.2246 57.7212 82.8646L51.1212 97.9446C50.4866 98.3392 50.0492 98.9499 49.8092 99.7766C49.7292 100.049 49.5506 100.174 49.2732 100.153C47.6466 100.03 46.5212 100.203 45.8972 100.673C42.8626 102.955 39.4572 104.313 35.6812 104.745C35.4359 104.777 35.2412 104.891 35.0972 105.089L33.4012 107.409C32.9586 107.339 32.7186 107.241 32.6812 107.113C33.1212 106.673 32.9292 106.201 32.4492 105.905C30.0546 104.438 27.4919 103.254 24.7612 102.353C28.1372 88.5446 33.7506 76.0512 41.6012 64.8726ZM50.2812 75.6406L50.3532 74.5446C50.3565 74.4994 50.3508 74.454 50.3365 74.411C50.3221 74.368 50.2995 74.3283 50.2697 74.2941C50.24 74.2599 50.2038 74.2319 50.1632 74.2117C50.1226 74.1916 50.0785 74.1796 50.0333 74.1766L49.5052 74.1446C48.9989 74.1114 48.5083 74.1566 48.1399 74.2704C47.7715 74.3843 47.5549 74.5575 47.5372 74.7526L47.5132 75.0566C47.5061 75.1541 47.5488 75.254 47.6391 75.3507C47.7293 75.4473 47.8652 75.5387 48.0391 75.6197C48.213 75.7007 48.4214 75.7697 48.6523 75.8227C48.8833 75.8757 49.1324 75.9117 49.3852 75.9286L49.9132 75.9686C49.9591 75.9718 50.0051 75.9658 50.0486 75.951C50.0921 75.9362 50.1322 75.9128 50.1665 75.8822C50.2008 75.8517 50.2286 75.8145 50.2483 75.773C50.268 75.7315 50.2792 75.6865 50.2812 75.6406Z" fill="#91C299"/>
<path d="M189.946 66.1365C192.351 67.8591 194.591 68.8351 196.666 69.0645C201.946 71.8538 206.284 76.6351 209.682 83.4085C212.444 88.7951 214.748 94.8325 216.594 101.52C216.674 101.814 216.866 101.934 217.17 101.88C217.906 101.742 218.439 101.883 218.77 102.304L218.258 104.976C218.204 105.259 218.042 105.443 217.77 105.528L214.522 106.536C214.416 106.57 214.325 106.637 214.263 106.728C214.2 106.819 214.17 106.928 214.176 107.038C214.183 107.148 214.226 107.253 214.298 107.336C214.371 107.419 214.469 107.476 214.578 107.496L217.906 108.12C218.022 108.143 218.131 108.192 218.224 108.265C218.317 108.337 218.392 108.43 218.442 108.536C219.226 110.19 219.684 112.115 219.818 114.312L219.978 117.752C219.988 118.003 220.114 118.166 220.354 118.24C221.306 118.536 221.61 124.112 221.794 125.304C221.836 125.576 221.802 125.838 221.69 126.088C221.071 127.486 221.042 128.883 221.602 130.28C221.703 130.536 221.698 130.79 221.586 131.04C221.143 132.027 220.948 132.955 221.002 133.824C220.516 134.992 219.762 135.774 218.738 136.168C218.487 136.264 218.487 136.368 218.738 136.48L219.938 137.008C220.066 142.608 219.372 148.358 217.858 154.256C215.954 161.656 214.866 168.632 210.21 175.432C209.447 176.547 208.983 177.464 208.818 178.184C208.556 179.331 208.62 180.392 209.01 181.368L208.898 185.632C208.887 185.963 208.716 186.134 208.386 186.144C204.268 186.283 203.394 186.654 205.762 187.256C200.791 193.747 196.122 200.411 191.754 207.248C189.162 211.296 184.49 213.656 180.146 215.296C174.7 217.344 169.21 219.264 163.674 221.056C162.943 221.291 162.154 221.979 161.306 223.12C158.026 212.48 154.386 204.68 144.25 198.776C144.01 198.638 143.916 198.432 143.97 198.16C144.167 197.115 143.946 196.68 143.306 196.856C162.33 192.176 179.954 182.152 186.642 162.44C186.738 162.147 186.932 162.051 187.226 162.152C195.306 165.016 203.698 162.36 208.266 155.256C212.122 149.248 211.306 142.496 206.018 137.792C203.754 135.784 200.218 134.872 197.354 133.216C206.554 118.72 207.426 79.1205 191.914 68.0645C191.199 67.5525 190.543 66.9098 189.946 66.1365ZM184.474 194.096L182.066 194.544C182.008 194.556 181.955 194.585 181.916 194.629C181.876 194.673 181.852 194.728 181.847 194.786C181.841 194.845 181.855 194.904 181.886 194.954C181.917 195.004 181.963 195.043 182.018 195.064C182.674 195.32 183.354 195.39 184.058 195.272C184.201 195.25 184.348 195.274 184.476 195.342C184.605 195.41 184.708 195.517 184.77 195.648C185.159 196.475 185.338 197.368 185.306 198.328C185.304 198.385 185.32 198.441 185.353 198.488C185.385 198.534 185.432 198.569 185.486 198.587C185.54 198.605 185.598 198.605 185.652 198.588C185.706 198.57 185.753 198.535 185.786 198.488C186.223 197.875 186.279 197.235 185.954 196.568C185.692 196.035 185.855 195.808 186.442 195.888C186.98 195.968 187.466 195.856 187.898 195.552C187.952 195.515 187.996 195.463 188.024 195.403C188.052 195.342 188.064 195.275 188.059 195.208C188.053 195.142 188.03 195.077 187.992 195.021C187.954 194.965 187.902 194.919 187.842 194.888L186.962 194.456C186.732 194.35 186.583 194.174 186.514 193.928L185.65 190.792C185.631 190.704 185.58 190.626 185.507 190.574C185.433 190.521 185.343 190.498 185.253 190.509C185.164 190.52 185.082 190.565 185.023 190.633C184.965 190.702 184.934 190.79 184.938 190.88L184.882 193.616C184.876 193.888 184.74 194.048 184.474 194.096Z" fill="#5DA491"/>
<path d="M74.9052 83.1045C73.4252 84.1525 68.4972 88.9445 67.1692 89.0965C66.9666 89.1215 66.761 89.0867 66.5779 88.9964C66.3948 88.9062 66.242 88.7644 66.1383 88.5885C66.0346 88.4126 65.9846 88.2103 65.9944 88.0063C66.0041 87.8024 66.0732 87.6057 66.1932 87.4405C69.6919 82.5872 73.7692 78.2939 78.4252 74.5605C83.3692 70.5925 89.3132 68.5365 95.3612 66.8965C95.4868 66.8625 95.6194 66.8636 95.7444 66.8997C95.8695 66.9358 95.9822 67.0054 96.0705 67.1011C96.1587 67.1967 96.2191 67.3148 96.2449 67.4423C96.2708 67.5698 96.2612 67.702 96.2172 67.8245C95.8332 68.9045 94.9452 68.9925 94.2812 69.4565C87.8066 73.9899 81.3479 78.5392 74.9052 83.1045Z" fill="#076F81"/>
<path d="M50.2815 75.6407C50.2795 75.6866 50.2683 75.7316 50.2486 75.7731C50.2288 75.8146 50.201 75.8517 50.1667 75.8823C50.1324 75.9129 50.0923 75.9363 50.0488 75.9511C50.0053 75.9659 49.9593 75.9719 49.9135 75.9687L49.3855 75.9287C49.1326 75.9117 48.8836 75.8758 48.6526 75.8228C48.4216 75.7698 48.2132 75.7008 48.0393 75.6198C47.8655 75.5388 47.7295 75.4474 47.6393 75.3508C47.5491 75.2541 47.5063 75.1542 47.5135 75.0566L47.5375 74.7527C47.5551 74.5576 47.7717 74.3844 48.1401 74.2705C48.5085 74.1567 48.9991 74.1115 49.5055 74.1447L50.0335 74.1767C50.0787 74.1797 50.1229 74.1916 50.1634 74.2118C50.204 74.232 50.2402 74.26 50.27 74.2942C50.2997 74.3283 50.3224 74.3681 50.3367 74.4111C50.351 74.4541 50.3567 74.4994 50.3535 74.5446L50.2815 75.6407Z" fill="#A5CBA5"/>
<path d="M222.61 78.8406C226.919 87.7046 229.999 97.0032 231.85 106.737C235.082 126.417 234.53 145.849 228.546 164.905C225.842 172.574 222.239 179.766 217.738 186.481C213.298 188.889 220.154 174.441 220.362 174.049C225.682 164.281 225.506 150.649 224.802 139.657C224.722 138.446 224.228 137.337 223.322 136.329L221.002 133.825C220.948 132.955 221.143 132.027 221.586 131.041C221.698 130.79 221.703 130.537 221.602 130.281C221.042 128.883 221.071 127.486 221.69 126.089C221.802 125.838 221.836 125.577 221.794 125.305C221.61 124.113 221.306 118.537 220.354 118.241C220.114 118.166 219.988 118.003 219.978 117.753L219.818 114.313C220.484 112.883 220.826 111.393 220.842 109.841C220.842 109.693 220.871 109.548 220.927 109.412C220.983 109.276 221.066 109.153 221.17 109.049C222.343 107.833 223.778 107.102 225.474 106.857C227.015 106.633 227.034 106.27 225.53 105.769C224.042 105.281 221.322 106.665 220.962 103.873C220.754 102.273 220.479 100.686 220.138 99.1126C220.119 99.0369 220.076 98.9692 220.014 98.9206C219.953 98.8721 219.877 98.8456 219.799 98.8456C219.722 98.8456 219.647 98.8721 219.588 98.9206C219.529 98.9692 219.489 99.0369 219.474 99.1126L218.77 102.305C218.439 101.883 217.906 101.742 217.17 101.881C216.866 101.934 216.674 101.814 216.594 101.521C214.748 94.8326 212.444 88.7952 209.682 83.4086C211.186 82.2939 212.722 81.4672 214.29 80.9286C214.828 80.7419 215.804 80.6779 217.218 80.7366C218.604 80.7899 219.908 80.4032 221.13 79.5766C221.38 79.4112 221.626 79.4166 221.866 79.5926L222.058 79.7366C222.212 79.8486 222.274 79.8086 222.242 79.6166C222.162 79.1739 222.284 78.9152 222.61 78.8406Z" fill="#7EBA98"/>
<path d="M183.225 112.825L181.841 113.009C181.601 113.041 181.409 112.961 181.265 112.769C177.201 107.169 174.22 101.027 172.321 94.3446C172.231 94.0246 172.065 93.9766 171.825 94.2006C150.241 114.257 124.209 119.729 95.4492 118.097C91.5212 117.873 88.4732 116.585 85.0972 114.865C84.1052 114.363 83.1159 114.137 82.1292 114.185C78.0412 114.377 73.9692 113.793 73.5452 119.297C73.0252 125.873 71.3452 132.497 71.0572 138.705C70.6892 146.393 70.2252 152.409 71.7612 158.105C65.3559 160.393 60.7585 158.713 57.9692 153.065C57.1639 151.422 57.2759 149.907 58.3052 148.521C67.4092 147.849 69.4172 138.249 69.4972 131.009C69.5612 124.881 68.0892 117.033 72.5692 111.961C77.4492 106.433 93.2492 104.049 100.793 103.945C100.847 103.945 100.879 103.974 100.889 104.033C100.9 104.102 100.905 104.171 100.905 104.241C100.911 104.31 100.879 104.35 100.809 104.361C95.0599 105.534 90.4252 108.422 86.9052 113.025C86.8752 113.064 86.8561 113.111 86.8501 113.16C86.844 113.209 86.8511 113.259 86.8706 113.305C86.8901 113.35 86.9214 113.39 86.9612 113.419C87.001 113.449 87.048 113.467 87.0972 113.473C117.593 116.513 153.225 107.897 172.929 82.5606C172.958 82.5232 172.997 82.4953 173.041 82.4806C173.085 82.4658 173.133 82.4648 173.178 82.4778C173.223 82.4908 173.263 82.5172 173.293 82.5534C173.323 82.5895 173.341 82.6339 173.345 82.6806C174.385 93.4219 177.679 103.47 183.225 112.825Z" fill="#EA8359"/>
<path d="M57.7216 82.8645L58.0816 83.9845C58.1218 84.1096 58.134 84.2424 58.1174 84.3736C58.1009 84.5048 58.0558 84.6314 57.9856 84.7445C56.0762 87.7685 54.8336 91.1152 54.2576 94.7845L51.1216 97.9445L57.7216 82.8645Z" fill="#032E52"/>
<path d="M58.9776 91.3687C57.1323 95.006 55.8762 98.55 55.2096 102.001L55.4336 104.305C54.2016 109.643 53.9482 115.329 54.6736 121.361C55.0843 124.801 55.9616 127.526 57.3056 129.537C57.7216 131.27 58.2629 132.491 58.9296 133.201C58.3589 133.585 57.7456 133.758 57.0896 133.721C45.0176 135.577 44.2736 149.897 51.6976 157.161L55.4816 160.065C57.0229 161.713 56.3776 162.102 53.5456 161.233C53.3322 161.169 53.1402 161.206 52.9696 161.345C52.1216 162.022 51.2602 162.689 50.3856 163.345C48.9536 164.425 46.8976 164.625 45.5696 166.209C44.3696 167.657 44.9696 169.457 42.8976 170.881C42.6736 171.03 42.5163 171.235 42.4256 171.497C41.6416 173.697 40.8016 176.065 38.0896 175.513C37.9392 175.481 37.7824 175.508 37.6514 175.588C37.5204 175.669 37.4253 175.796 37.3856 175.945C37.2042 176.633 36.7269 176.95 35.9536 176.897C35.6443 176.881 35.4443 177.019 35.3536 177.313L35.2016 177.777C35.1056 178.075 34.9376 178.126 34.6976 177.929L34.2016 177.521C34.1563 177.482 34.1004 177.457 34.0411 177.452C33.9818 177.446 33.9219 177.458 33.8692 177.488C33.8165 177.517 33.7734 177.562 33.7457 177.616C33.7179 177.671 33.7067 177.732 33.7136 177.793L33.8416 178.841C33.8789 179.129 33.7669 179.209 33.5056 179.081L32.4816 178.593C32.4669 178.585 32.4546 178.572 32.4465 178.557C32.4385 178.542 32.4351 178.525 32.4369 178.509C32.4387 178.493 32.4455 178.478 32.4564 178.468C32.4674 178.457 32.4818 178.45 32.4976 178.449L32.7776 178.401C32.9696 178.369 32.9963 178.286 32.8576 178.153L32.5936 177.881C32.4976 177.785 32.3882 177.771 32.2656 177.841C32.1696 177.899 32.0229 177.955 31.8256 178.009C27.3083 169.273 24.3562 160.035 22.9696 150.297C20.9856 135.217 20.8176 117.169 24.7616 102.353C27.4922 103.254 30.0549 104.438 32.4496 105.905C32.9296 106.201 33.1216 106.673 32.6816 107.113C31.9296 107.033 31.4789 107.345 31.3296 108.049C31.3074 108.151 31.3078 108.257 31.3308 108.359C31.3538 108.462 31.3989 108.558 31.4629 108.641C31.5269 108.724 31.6083 108.792 31.7013 108.84C31.7944 108.889 31.8968 108.916 32.0016 108.921C32.6416 108.947 33.1589 108.699 33.5536 108.177C33.6709 108.017 33.6762 107.851 33.5696 107.681L33.4016 107.409L35.0976 105.089C35.2416 104.891 35.4363 104.777 35.6816 104.745C39.4576 104.313 42.8629 102.955 45.8976 100.673C46.5216 100.203 47.6469 100.03 49.2736 100.153C49.5509 100.174 49.7296 100.049 49.8096 99.7766C50.0496 98.95 50.4869 98.3393 51.1216 97.9446L54.2576 94.7846L58.9776 91.3687ZM29.6816 147.753C29.4629 148.355 29.6762 148.771 30.3216 149.001C30.4261 149.037 30.5375 149.05 30.6476 149.039C30.7578 149.027 30.8641 148.992 30.9588 148.934C31.0536 148.877 31.1346 148.799 31.1959 148.707C31.2572 148.615 31.2974 148.51 31.3136 148.401C31.4789 147.313 31.0309 146.993 29.9696 147.441C29.8366 147.502 29.7331 147.614 29.6816 147.753Z" fill="#6DAF96"/>
<path d="M183.225 112.824C185.252 116.307 186.273 118.752 186.289 120.16C186.377 127.808 185.345 135.824 186.505 143.704L186.529 144.088C186.551 144.371 186.417 144.512 186.129 144.512H185.737C185.492 144.512 185.364 144.39 185.353 144.144C185.348 143.952 185.335 143.75 185.313 143.536C185.26 143.024 185.209 143.024 185.161 143.536C182.577 170.44 168.273 183.256 144.297 192.208C141.433 193.275 138.567 194.446 135.697 195.72L121.129 196.792L116.977 197.24C95.2173 193.8 78.5293 182.728 72.2653 160.624L71.7613 158.104C70.2253 152.408 70.6893 146.392 71.0573 138.704C71.3453 132.496 73.0253 125.872 73.5453 119.296C73.9693 113.792 78.0413 114.376 82.1293 114.184C83.116 114.136 84.1053 114.363 85.0973 114.864C88.4733 116.584 91.5213 117.872 95.4493 118.096C124.209 119.728 150.241 114.256 171.825 94.2004C172.065 93.9764 172.231 94.0244 172.321 94.3444C174.22 101.027 177.201 107.168 181.265 112.768C181.409 112.96 181.601 113.04 181.841 113.008L183.225 112.824ZM152.273 124.464C151.137 126.224 151.231 127.696 152.553 128.88C154.593 130.696 156.993 129.76 159.529 129.312C164.089 128.512 169.817 133.104 172.961 136.272C173.857 137.179 174.644 137.144 175.321 136.168C175.451 135.982 175.53 135.766 175.553 135.541C175.575 135.316 175.54 135.088 175.449 134.88C172.607 128.171 167.721 123.926 160.793 122.144C157.641 121.336 154.065 121.68 152.273 124.464ZM96.9213 122.88C90.4813 122.808 82.0973 127.072 80.6893 133.896C80.4813 134.91 80.8146 135.627 81.6893 136.048C81.9293 136.166 82.164 136.152 82.3933 136.008C87.5613 132.688 91.1453 128.368 97.9613 131.528C107.017 135.736 107.513 123 96.9213 122.88ZM82.7613 151.472C83.2466 153.76 84.2466 154.896 85.7613 154.88C89.9933 156.744 96.6173 158.672 101.233 157.064C101.328 157.03 101.408 156.965 101.463 156.88C101.518 156.795 101.544 156.694 101.537 156.592C101.516 156.24 101.356 156.072 101.057 156.088C106.873 152.064 106.089 144.728 100.601 141.08C94.2253 136.84 86.3853 139.544 82.2173 145.44C80.6279 147.686 80.8093 149.696 82.7613 151.472ZM152.457 150.84C151.897 153.747 153.447 155.854 157.105 157.16C160.657 158.424 174.145 158.744 173.505 152.208C175.169 150.112 175.689 148.032 174.041 145.656C167.785 136.624 151.601 137.496 152.457 150.84ZM173.025 159.008L171.785 160.024C171.726 160.073 171.676 160.133 171.64 160.201C171.604 160.269 171.582 160.343 171.574 160.42C171.567 160.496 171.574 160.574 171.597 160.647C171.619 160.721 171.656 160.789 171.705 160.848L172.001 161.2C172.391 161.675 172.868 162.047 173.327 162.233C173.786 162.419 174.19 162.404 174.449 162.192L174.633 162.04C174.762 161.935 174.852 161.785 174.897 161.597C174.942 161.409 174.941 161.188 174.895 160.947C174.849 160.705 174.758 160.448 174.628 160.189C174.498 159.931 174.331 159.676 174.137 159.44L173.849 159.088C173.801 159.029 173.741 158.98 173.673 158.943C173.605 158.907 173.53 158.885 173.454 158.877C173.377 158.87 173.3 158.877 173.227 158.9C173.153 158.923 173.085 158.959 173.025 159.008ZM113.489 178.824C117.463 181.315 121.729 183.182 126.289 184.424C131.687 185.55 136.828 184.731 141.713 181.968C145.1 180.39 148.14 178.368 150.833 175.904C151.153 175.611 151.103 175.507 150.681 175.592C138.425 178.062 126.321 178.856 114.369 177.976C108.055 176.926 108.023 177.547 102.721 175.312C102.332 175.147 102.1 175.27 102.025 175.68L101.873 176.432C101.82 176.726 101.937 176.907 102.225 176.976L113.489 178.824Z" fill="#FAA36A"/>
<path d="M219.817 114.313C219.684 112.115 219.225 110.19 218.441 108.537C218.391 108.43 218.317 108.337 218.224 108.265C218.131 108.193 218.021 108.143 217.905 108.121L214.577 107.497C214.469 107.476 214.371 107.419 214.298 107.336C214.225 107.253 214.182 107.149 214.176 107.038C214.169 106.928 214.2 106.819 214.262 106.728C214.325 106.637 214.416 106.57 214.521 106.537L217.769 105.529C218.041 105.443 218.204 105.259 218.257 104.977L218.769 102.305L219.473 99.1126C219.488 99.037 219.528 98.9692 219.588 98.9207C219.647 98.8722 219.721 98.8457 219.799 98.8457C219.876 98.8457 219.952 98.8722 220.014 98.9207C220.075 98.9692 220.119 99.037 220.137 99.1126C220.479 100.686 220.753 102.273 220.961 103.873C221.321 106.665 224.041 105.281 225.529 105.769C227.033 106.27 227.015 106.633 225.473 106.857C223.777 107.102 222.343 107.833 221.169 109.049C221.065 109.153 220.983 109.276 220.926 109.412C220.87 109.548 220.841 109.694 220.841 109.841C220.825 111.393 220.484 112.883 219.817 114.313Z" fill="#C8CD9C"/>
<path d="M55.2095 102C56.4041 102.283 57.3375 102.76 58.0095 103.432C58.0723 103.495 58.1135 103.576 58.127 103.664C58.1405 103.752 58.1256 103.841 58.0845 103.92C58.0434 103.999 57.9783 104.062 57.8986 104.101C57.8188 104.14 57.7288 104.152 57.6415 104.136C56.9748 104.024 56.2388 104.08 55.4335 104.304L55.2095 102Z" fill="#397C7B"/>
<path d="M32.6819 107.113C32.7192 107.241 32.9592 107.339 33.4019 107.409L33.5698 107.681C33.6765 107.851 33.6712 108.017 33.5539 108.177C33.1592 108.699 32.6419 108.947 32.0019 108.921C31.8971 108.916 31.7946 108.889 31.7016 108.84C31.6085 108.792 31.5272 108.724 31.4632 108.641C31.3992 108.558 31.3541 108.462 31.3311 108.359C31.308 108.257 31.3076 108.151 31.3299 108.049C31.4792 107.345 31.9299 107.033 32.6819 107.113Z" fill="#A5CBA5"/>
<path d="M152.274 124.465C154.066 121.681 157.642 121.337 160.794 122.145C167.722 123.926 172.607 128.171 175.45 134.881C175.54 135.088 175.576 135.316 175.553 135.541C175.531 135.767 175.451 135.983 175.322 136.169C174.644 137.145 173.858 137.179 172.962 136.273C169.818 133.105 164.09 128.513 159.53 129.313C156.994 129.761 154.594 130.697 152.554 128.881C151.231 127.697 151.138 126.225 152.274 124.465Z" fill="#220509"/>
<path d="M80.6898 133.897C82.0978 127.073 90.4818 122.809 96.9218 122.881C107.514 123.001 107.018 135.737 97.9618 131.529C91.1458 128.369 87.5618 132.689 82.3938 136.009C82.1645 136.153 81.9298 136.166 81.6898 136.049C80.8152 135.627 80.4818 134.91 80.6898 133.897Z" fill="#220509"/>
<path d="M197.354 133.217C200.218 134.873 203.754 135.785 206.018 137.793C211.306 142.497 212.122 149.249 208.266 155.257C203.698 162.361 195.306 165.017 187.226 162.153C186.932 162.051 186.738 162.147 186.642 162.441C179.954 182.153 162.33 192.177 143.306 196.857C141.396 197.166 139.466 197.081 137.514 196.601L135.698 195.721C138.567 194.446 141.434 193.275 144.298 192.209C168.274 183.257 182.578 170.441 185.162 143.537C185.21 143.025 185.26 143.025 185.314 143.537C185.335 143.75 185.348 143.953 185.354 144.145C185.364 144.39 185.492 144.513 185.738 144.513H186.13C186.418 144.513 186.551 144.371 186.53 144.089L186.506 143.705L187.738 147.105L187.146 159.449C187.141 159.57 187.172 159.69 187.234 159.795C187.296 159.9 187.388 159.985 187.498 160.041C191.682 162.121 197.674 157.569 199.802 154.409C203.05 149.577 197.562 144.969 194.082 142.681C193.868 142.542 193.722 142.347 193.642 142.097L192.538 138.521C192.5 138.398 192.468 138.401 192.442 138.529C191.602 142.817 192.162 144.433 195.506 147.145C195.598 147.219 195.658 147.326 195.676 147.444C195.694 147.562 195.667 147.684 195.602 147.785C195.42 148.046 195.226 148.238 195.018 148.361C191.055 145.065 190.068 140.918 192.058 135.921C192.154 135.681 192.319 135.507 192.554 135.401L197.354 133.217Z" fill="#F18B5E"/>
<path d="M58.9296 133.2C66.3376 136.04 64.2416 145.504 58.3056 148.52C57.2763 149.907 57.1643 151.422 57.9696 153.064C60.759 158.712 65.3563 160.392 71.7616 158.104L72.2656 160.624C68.175 162.848 63.9616 163.331 59.6256 162.072C58.2576 161.672 56.9696 160.56 55.4816 160.064L51.6976 157.16C48.9403 153.374 47.8043 149.342 48.2896 145.064C48.5536 142.736 50.4976 138.216 52.1616 136.72C53.4576 135.568 55.1003 134.568 57.0896 133.72C57.7456 133.758 58.359 133.584 58.9296 133.2Z" fill="#F18B5E"/>
<path d="M57.0895 133.72C55.1002 134.568 53.4575 135.568 52.1615 136.72C50.4975 138.216 48.5535 142.736 48.2895 145.064C47.8042 149.342 48.9402 153.374 51.6975 157.16C44.2735 149.896 45.0175 135.576 57.0895 133.72Z" fill="#C8CD9C"/>
<path d="M221.002 133.824L223.322 136.328C221.578 137.843 220.45 138.07 219.938 137.008L218.738 136.48C218.487 136.368 218.487 136.264 218.738 136.168C219.762 135.774 220.516 134.992 221.002 133.824Z" fill="#C8CD9C"/>
<path d="M223.322 136.329C224.228 137.337 224.722 138.446 224.802 139.657C225.506 150.649 225.682 164.281 220.362 174.049C220.154 174.441 213.298 188.889 217.738 186.481C204.575 207.233 186.3 221.515 162.914 229.329L161.306 223.121C162.154 221.979 162.943 221.291 163.674 221.057C169.21 219.265 174.7 217.345 180.146 215.297C184.49 213.657 189.162 211.297 191.754 207.249C196.122 200.411 200.791 193.747 205.762 187.257C206.802 187.385 207.663 187.737 208.346 188.313C208.548 188.483 208.663 188.699 208.69 188.961L209.234 193.561C209.292 194.03 209.428 194.054 209.642 193.633C210.634 191.657 210.466 189.921 211.21 188.337C211.338 188.07 211.548 187.931 211.842 187.921C212.812 187.883 213.596 187.521 214.194 186.833C214.244 186.774 214.279 186.704 214.293 186.628C214.308 186.552 214.302 186.474 214.277 186.401C214.252 186.328 214.208 186.263 214.15 186.213C214.092 186.162 214.021 186.127 213.946 186.113L211.842 185.705C211.686 185.672 211.539 185.606 211.411 185.511C211.282 185.415 211.175 185.293 211.098 185.153L209.01 181.369C208.62 180.393 208.556 179.331 208.818 178.185C208.983 177.465 209.447 176.547 210.21 175.433C214.866 168.633 215.954 161.657 217.858 154.257C219.372 148.358 220.066 142.609 219.938 137.009C220.45 138.07 221.578 137.843 223.322 136.329Z" fill="#6DAF96"/>
<path d="M187.737 147.104C190.436 149.083 192.863 149.502 195.017 148.36C195.225 148.238 195.42 148.046 195.601 147.784C195.667 147.683 195.694 147.562 195.676 147.444C195.658 147.326 195.597 147.219 195.505 147.144C192.161 144.432 191.602 142.816 192.442 138.528C192.468 138.4 192.5 138.398 192.537 138.52L193.642 142.096C193.722 142.347 193.868 142.542 194.081 142.68C197.561 144.968 203.049 149.576 199.801 154.408C197.673 157.568 191.681 162.12 187.497 160.04C187.388 159.985 187.296 159.9 187.234 159.795C187.171 159.69 187.141 159.57 187.146 159.448L187.737 147.104Z" fill="#CF7253"/>
<path d="M101.057 156.089C96.6814 158.065 91.7134 156.089 90.4574 151.521C89.6734 148.681 91.5534 143.833 95.0494 143.649C95.2038 143.641 95.3564 143.684 95.4832 143.773C95.61 143.861 95.7037 143.99 95.7495 144.137C95.7954 144.285 95.7908 144.444 95.7364 144.588C95.6821 144.733 95.5811 144.856 95.4494 144.937C94.6387 145.438 94.2841 146.144 94.3854 147.056C94.4138 147.308 94.5025 147.548 94.6439 147.758C94.7854 147.967 94.9754 148.14 95.1978 148.26C95.4201 148.38 95.6683 148.445 95.921 148.448C96.1738 148.452 96.4237 148.394 96.6494 148.281C99.2574 146.977 99.2174 144.449 96.5934 143.297C90.6094 140.657 84.0974 145.241 83.0254 151.265C82.9454 151.435 82.8574 151.505 82.7614 151.473C80.8094 149.697 80.6281 147.686 82.2174 145.441C86.3854 139.545 94.2254 136.841 100.601 141.081C106.089 144.729 106.873 152.065 101.057 156.089ZM92.6199 147.06C92.6711 147.097 92.7343 147.116 92.806 147.116C92.8777 147.116 92.9564 147.097 93.0377 147.06C93.119 147.024 93.2013 146.97 93.2798 146.902C93.3583 146.834 93.4315 146.753 93.4952 146.665C93.559 146.576 93.612 146.481 93.6514 146.385C93.6907 146.289 93.7155 146.194 93.7244 146.105C93.7333 146.016 93.726 145.935 93.7031 145.867C93.6802 145.799 93.6421 145.746 93.5909 145.709C93.5397 145.672 93.4765 145.653 93.4048 145.653C93.3331 145.653 93.2543 145.672 93.1731 145.709C93.0918 145.745 93.0095 145.799 92.931 145.867C92.8525 145.935 92.7793 146.016 92.7156 146.104C92.6518 146.193 92.5987 146.288 92.5594 146.384C92.5201 146.48 92.4953 146.575 92.4864 146.664C92.4775 146.753 92.4848 146.834 92.5077 146.902C92.5305 146.97 92.5687 147.023 92.6199 147.06Z" fill="#2D0909"/>
<path d="M173.505 152.209C172.345 139.817 155.658 140.545 158.682 147.209C158.778 147.421 158.92 147.61 159.098 147.762C159.276 147.913 159.484 148.024 159.71 148.086C159.935 148.148 160.171 148.159 160.401 148.12C160.631 148.08 160.85 147.99 161.042 147.857L162.297 146.977L163.53 145.505L165.114 147.153C164.079 151.243 161.57 152.769 157.586 151.729C157.379 151.674 157.161 151.691 156.966 151.777C156.77 151.863 156.611 152.013 156.513 152.203C156.415 152.392 156.384 152.61 156.427 152.819C156.469 153.028 156.581 153.216 156.746 153.353L157.914 154.337C158.175 154.555 158.22 154.811 158.049 155.105L157.353 156.345C155.156 155.678 153.524 153.843 152.457 150.841C151.601 137.497 167.786 136.625 174.042 145.657C175.69 148.033 175.169 150.113 173.505 152.209Z" fill="#220509"/>
<path d="M173.506 152.209C174.146 158.745 160.658 158.425 157.106 157.161C153.447 155.854 151.898 153.747 152.458 150.841C153.524 153.843 155.156 155.678 157.354 156.345C164.33 158.921 168.882 151.033 165.946 145.721C164.826 143.713 162.362 142.633 160.506 144.409C159.554 144.953 159.066 146.817 160.458 146.905C160.514 146.91 160.571 146.899 160.621 146.874C160.672 146.848 160.715 146.809 160.745 146.761C160.775 146.712 160.792 146.656 160.794 146.598C160.795 146.541 160.781 146.483 160.754 146.433C160.204 145.446 160.25 144.851 160.89 144.649C161.578 145.033 162.047 145.809 162.298 146.977L161.042 147.857C160.85 147.99 160.631 148.08 160.401 148.119C160.171 148.159 159.935 148.148 159.71 148.086C159.485 148.024 159.276 147.913 159.098 147.762C158.92 147.61 158.778 147.421 158.682 147.209C155.658 140.545 172.346 139.817 173.506 152.209Z" fill="#F8F5F3"/>
<path d="M101.057 156.089C101.356 156.073 101.516 156.241 101.537 156.593C101.544 156.694 101.518 156.796 101.463 156.881C101.408 156.966 101.328 157.03 101.233 157.065C96.6174 158.673 89.9934 156.745 85.7614 154.881C84.2254 154.081 83.3134 152.875 83.0254 151.265C84.0974 145.241 90.6094 140.657 96.5934 143.297C99.2174 144.449 99.2574 146.977 96.6494 148.281C96.4237 148.394 96.1738 148.452 95.921 148.448C95.6683 148.445 95.4201 148.38 95.1978 148.26C94.9754 148.14 94.7854 147.967 94.6439 147.758C94.5025 147.548 94.4138 147.308 94.3854 147.057C94.284 146.145 94.6387 145.438 95.4494 144.937C95.5811 144.856 95.6821 144.733 95.7364 144.588C95.7908 144.444 95.7954 144.285 95.7495 144.137C95.7037 143.99 95.61 143.861 95.4832 143.773C95.3564 143.685 95.2038 143.641 95.0494 143.649C91.5534 143.833 89.6734 148.681 90.4574 151.521C91.7134 156.089 96.6814 158.065 101.057 156.089Z" fill="#F8F5F3"/>
<path d="M157.353 156.344L158.049 155.104C158.22 154.811 158.175 154.555 157.913 154.336L156.745 153.352C156.581 153.216 156.469 153.028 156.426 152.819C156.384 152.609 156.414 152.392 156.512 152.203C156.61 152.013 156.77 151.863 156.965 151.777C157.16 151.69 157.379 151.673 157.585 151.728C161.569 152.768 164.079 151.243 165.113 147.152C165.625 146.064 165.097 145.515 163.529 145.504L162.297 146.976C162.047 145.808 161.577 145.032 160.889 144.648C160.916 144.595 160.788 144.515 160.505 144.408C162.361 142.632 164.825 143.712 165.945 145.72C168.881 151.032 164.329 158.92 157.353 156.344Z" fill="#4C1813"/>
<path d="M160.506 144.408C160.788 144.515 160.916 144.595 160.89 144.648C160.25 144.851 160.204 145.446 160.754 146.432C160.781 146.483 160.795 146.541 160.794 146.598C160.792 146.656 160.775 146.712 160.745 146.761C160.714 146.809 160.672 146.848 160.621 146.873C160.57 146.899 160.514 146.909 160.458 146.904C159.066 146.816 159.554 144.952 160.506 144.408Z" fill="#356E6E"/>
<path d="M165.114 147.152L163.53 145.504C165.098 145.515 165.626 146.064 165.114 147.152Z" fill="#73382A"/>
<path d="M92.7159 146.104C92.4477 146.478 92.4049 146.906 92.6201 147.06C92.8354 147.215 93.2273 147.038 93.4955 146.665C93.7636 146.292 93.8064 145.864 93.5912 145.709C93.3759 145.554 92.984 145.731 92.7159 146.104Z" fill="#A2825D"/>
<path d="M29.6816 147.753C29.7331 147.614 29.8367 147.502 29.9696 147.441C31.031 146.993 31.479 147.313 31.3136 148.401C31.2974 148.51 31.2573 148.615 31.1959 148.707C31.1346 148.799 31.0537 148.877 30.9589 148.934C30.8641 148.992 30.7578 149.027 30.6477 149.039C30.5375 149.05 30.4262 149.037 30.3216 149.001C29.6763 148.771 29.463 148.355 29.6816 147.753Z" fill="#A5CBA5"/>
<path d="M83.0252 151.264C83.3132 152.875 84.2252 154.08 85.7612 154.88C84.2466 154.896 83.2466 153.76 82.7612 151.472C82.8572 151.504 82.9452 151.435 83.0252 151.264Z" fill="#D3A168"/>
<path d="M173.025 159.008C173.085 158.959 173.153 158.923 173.226 158.9C173.3 158.878 173.377 158.87 173.454 158.877C173.53 158.885 173.605 158.907 173.673 158.943C173.74 158.98 173.8 159.029 173.849 159.088L174.137 159.44C174.331 159.676 174.498 159.931 174.628 160.189C174.758 160.448 174.849 160.705 174.895 160.947C174.941 161.188 174.942 161.409 174.897 161.597C174.852 161.785 174.762 161.935 174.633 162.04L174.449 162.192C174.19 162.404 173.786 162.419 173.327 162.233C172.868 162.047 172.391 161.676 172.001 161.2L171.705 160.848C171.656 160.789 171.619 160.721 171.597 160.647C171.574 160.574 171.567 160.496 171.574 160.42C171.581 160.343 171.604 160.269 171.64 160.201C171.676 160.133 171.726 160.073 171.785 160.024L173.025 159.008Z" fill="#FCC093"/>
<path d="M55.4812 160.064C56.9692 160.56 58.2572 161.672 59.6252 162.072C63.9612 163.331 68.1745 162.848 72.2652 160.624C78.5292 182.728 95.2172 193.8 116.977 197.24C117.153 199.043 116.689 199.824 115.585 199.584C108.359 202.774 102.985 208.198 99.4652 215.856C97.4065 220.331 95.9932 224.675 95.2252 228.888C95.221 228.923 95.2282 228.958 95.2457 228.987C95.2632 229.016 95.2898 229.038 95.3212 229.048C95.3905 229.07 95.4599 229.091 95.5292 229.112C95.7372 229.176 95.8599 229.102 95.8972 228.888C97.7052 218.792 102.825 208.472 111.329 202.416C112.044 202.79 112.727 202.699 113.377 202.144C113.601 201.952 113.833 201.939 114.073 202.104C114.431 202.355 114.759 202.504 115.057 202.552L115.233 206.728C115.238 206.865 115.285 206.996 115.368 207.106C115.451 207.216 115.565 207.299 115.697 207.344C116.801 207.718 117.663 207.416 118.281 206.44C118.37 206.298 118.505 206.182 118.664 206.111C118.823 206.039 118.996 206.017 119.155 206.048C119.314 206.079 119.45 206.16 119.54 206.28C119.63 206.399 119.668 206.549 119.649 206.704C119.447 208.496 120.135 209.64 121.713 210.136C121.996 210.227 122.204 210.139 122.337 209.872L123.721 207.12C123.751 207.06 123.795 207.009 123.85 206.97C123.904 206.931 123.967 206.906 124.034 206.897C124.1 206.889 124.168 206.896 124.23 206.92C124.293 206.943 124.349 206.982 124.393 207.032L127.225 210.304C127.412 210.518 127.659 210.67 127.933 210.741C128.207 210.813 128.497 210.801 128.764 210.706C129.031 210.611 129.263 210.438 129.431 210.21C129.599 209.981 129.695 209.708 129.705 209.424C129.737 208.502 130.033 207.542 130.593 206.544L130.681 206.344C130.788 206.104 130.887 206.107 130.977 206.352C131.532 207.878 132.449 209.142 133.729 210.144C133.852 210.241 134.003 210.296 134.16 210.3C134.317 210.305 134.471 210.259 134.601 210.168C136.025 209.187 136.775 207.814 136.849 206.048C136.855 205.904 136.912 205.766 137.01 205.66C137.108 205.554 137.24 205.486 137.384 205.468C137.527 205.451 137.672 205.485 137.793 205.565C137.913 205.645 138.001 205.765 138.041 205.904C138.319 206.854 139.087 207.512 140.345 207.88C141.071 208.584 141.854 209.051 142.697 209.28C142.812 209.311 142.919 209.367 143.01 209.444C143.102 209.522 143.175 209.619 143.225 209.728C143.711 210.806 144.007 211.8 144.113 212.712C144.812 218.824 145.279 225.779 145.513 233.576L134.209 235.168C124.849 235.654 115.801 234.968 107.065 233.112C107.039 228.211 107.644 223.411 108.881 218.712C109.031 218.152 108.972 218.131 108.705 218.648C106.449 223.016 104.927 227.63 104.137 232.488C72.7452 226.44 46.5372 206.2 31.8252 178.008C32.0225 177.955 32.1692 177.899 32.2652 177.84C32.3879 177.771 32.4972 177.784 32.5932 177.88L32.8572 178.152C32.9959 178.286 32.9692 178.368 32.7772 178.4L32.4972 178.448C32.4814 178.45 32.467 178.456 32.4561 178.467C32.4451 178.478 32.4383 178.493 32.4365 178.509C32.4347 178.525 32.4381 178.542 32.4461 178.557C32.4542 178.572 32.4665 178.584 32.4812 178.592L33.5052 179.08C33.7665 179.208 33.8785 179.128 33.8412 178.84L33.7132 177.792C33.7063 177.732 33.7175 177.67 33.7453 177.616C33.773 177.562 33.8161 177.517 33.8688 177.487C33.9215 177.458 33.9814 177.445 34.0407 177.451C34.1 177.457 34.1559 177.481 34.2012 177.52L34.6972 177.928C34.9372 178.126 35.1052 178.075 35.2012 177.776L35.3532 177.312C35.4439 177.019 35.6439 176.88 35.9532 176.896C36.7265 176.95 37.2038 176.632 37.3852 175.944C37.4249 175.796 37.52 175.668 37.651 175.588C37.782 175.508 37.9388 175.481 38.0892 175.512C40.8012 176.064 41.6412 173.696 42.4252 171.496C42.5159 171.235 42.6732 171.03 42.8972 170.88C44.9692 169.456 44.3692 167.656 45.5692 166.208C46.8972 164.624 48.9532 164.424 50.3852 163.344C51.2598 162.688 52.1212 162.022 52.9692 161.344C53.1399 161.206 53.3319 161.168 53.5452 161.232C56.3772 162.102 57.0225 161.712 55.4812 160.064Z" fill="#52A091"/>
<path d="M119.806 180.312C119.102 180.477 118.809 180.76 118.926 181.16L101.886 177.048C101.598 176.978 101.481 176.797 101.534 176.504L101.686 175.752C101.761 175.341 101.993 175.218 102.382 175.384C107.683 177.618 113.491 179.261 119.806 180.312Z" fill="#CF7253"/>
<path d="M141.713 181.969C140.865 181.446 139.964 181.158 139.009 181.105C138.742 181.089 138.508 180.993 138.305 180.817C137.217 179.841 135.993 179.43 134.633 179.585C130.745 180.033 127.689 179.825 126.289 184.425C120.721 183.713 112.721 183.569 103.921 176.513C103.804 176.113 108.321 176.913 114.369 177.977C126.321 178.857 138.425 178.062 150.681 175.593C151.103 175.507 151.153 175.611 150.833 175.905C148.14 178.369 145.1 180.39 141.713 181.969Z" fill="#2D0909"/>
<path d="M141.714 181.968C136.828 184.731 131.687 185.55 126.29 184.424C127.69 179.824 130.746 180.032 134.634 179.584C135.994 179.43 137.218 179.84 138.306 180.816C138.508 180.992 138.743 181.088 139.01 181.104C139.964 181.158 140.866 181.446 141.714 181.968Z" fill="#932318"/>
<path d="M205.761 187.257C203.393 186.654 204.268 186.283 208.385 186.145C208.716 186.134 208.887 185.963 208.897 185.633L209.009 181.369L211.097 185.153C211.175 185.293 211.282 185.415 211.41 185.511C211.539 185.606 211.686 185.672 211.841 185.705L213.945 186.113C214.021 186.127 214.091 186.162 214.15 186.213C214.208 186.263 214.252 186.328 214.277 186.401C214.302 186.474 214.307 186.552 214.293 186.628C214.278 186.704 214.244 186.774 214.193 186.833C213.596 187.521 212.812 187.883 211.841 187.921C211.548 187.931 211.337 188.07 211.209 188.337C210.465 189.921 210.633 191.657 209.641 193.633C209.428 194.054 209.292 194.03 209.233 193.561L208.689 188.961C208.663 188.699 208.548 188.483 208.345 188.313C207.663 187.737 206.801 187.385 205.761 187.257Z" fill="#C8CD9C"/>
<path d="M184.881 193.617L184.937 190.881C184.934 190.79 184.964 190.702 185.023 190.634C185.081 190.565 185.163 190.521 185.253 190.51C185.342 190.498 185.433 190.521 185.506 190.574C185.58 190.626 185.631 190.704 185.649 190.793L186.513 193.929C186.583 194.174 186.732 194.35 186.961 194.457L187.841 194.889C187.902 194.919 187.954 194.965 187.992 195.021C188.03 195.077 188.053 195.142 188.058 195.209C188.064 195.276 188.052 195.342 188.024 195.403C187.996 195.463 187.952 195.515 187.897 195.553C187.465 195.857 186.98 195.969 186.441 195.889C185.855 195.809 185.692 196.035 185.953 196.569C186.279 197.235 186.223 197.875 185.785 198.489C185.753 198.535 185.706 198.57 185.652 198.588C185.598 198.606 185.54 198.605 185.486 198.587C185.432 198.569 185.385 198.535 185.353 198.488C185.32 198.441 185.303 198.385 185.305 198.329C185.337 197.369 185.159 196.475 184.769 195.649C184.707 195.517 184.604 195.41 184.476 195.342C184.348 195.274 184.201 195.25 184.057 195.273C183.353 195.39 182.673 195.321 182.017 195.065C181.963 195.043 181.916 195.004 181.886 194.954C181.855 194.904 181.841 194.845 181.846 194.787C181.852 194.728 181.876 194.673 181.916 194.629C181.955 194.585 182.008 194.556 182.065 194.545L184.473 194.097C184.74 194.049 184.876 193.889 184.881 193.617Z" fill="#C8CD9C"/>
<path d="M135.698 195.72L137.514 196.6C135.727 201.08 131.981 202.934 126.274 202.16C123.165 201.739 121.45 199.95 121.13 196.792L135.698 195.72Z" fill="#CF7253"/>
<path d="M137.514 196.601C139.466 197.081 141.396 197.166 143.306 196.857C143.946 196.681 144.167 197.115 143.97 198.161C143.916 198.433 144.01 198.638 144.25 198.777C154.386 204.681 158.026 212.481 161.306 223.121L162.914 229.329L153.138 232.009C153.081 232.025 153.021 232.028 152.963 232.018C152.904 232.009 152.849 231.986 152.799 231.952C152.75 231.917 152.708 231.873 152.677 231.82C152.645 231.768 152.625 231.709 152.618 231.649C152.079 226.87 151.002 222.214 149.386 217.681C149.358 217.613 149.307 217.558 149.242 217.525C149.177 217.492 149.102 217.483 149.031 217.501C148.961 217.518 148.898 217.56 148.856 217.62C148.814 217.679 148.795 217.752 148.802 217.825C149.495 222.646 149.791 227.489 149.69 232.353C149.679 232.651 149.53 232.827 149.242 232.881L145.514 233.577C145.279 225.779 144.812 218.825 144.114 212.713C144.007 211.801 143.711 210.806 143.226 209.729C143.175 209.619 143.102 209.522 143.011 209.444C142.919 209.367 142.812 209.311 142.698 209.281C141.855 209.051 141.071 208.585 140.346 207.881C142.77 207.881 142.698 203.489 142.786 201.721C142.788 201.646 142.769 201.573 142.729 201.51C142.69 201.447 142.633 201.396 142.566 201.366C142.498 201.335 142.423 201.325 142.35 201.337C142.276 201.349 142.208 201.382 142.154 201.433C138.938 204.451 134.986 205.918 130.298 205.833C125.578 206.209 119.114 205.833 116.306 201.521C116.14 201.265 115.922 201.206 115.65 201.345C115.314 201.515 115.116 201.918 115.058 202.553C114.759 202.505 114.431 202.355 114.074 202.105C113.834 201.939 113.602 201.953 113.378 202.145C112.727 202.699 112.044 202.79 111.33 202.417C113.303 201.627 114.722 200.683 115.586 199.585C116.69 199.825 117.154 199.043 116.978 197.241L121.13 196.793C121.45 199.95 123.164 201.739 126.274 202.161C131.98 202.934 135.727 201.081 137.514 196.601Z" fill="#48928C"/>
<path d="M115.585 199.584C114.721 200.683 113.303 201.627 111.329 202.416C102.825 208.472 97.7053 218.792 95.8973 228.888C95.86 229.102 95.7373 229.176 95.5293 229.112C95.46 229.091 95.3906 229.07 95.3213 229.048C95.2899 229.038 95.2633 229.016 95.2458 228.987C95.2283 228.958 95.2211 228.923 95.2253 228.888C95.9933 224.675 97.4066 220.331 99.4653 215.856C102.985 208.198 108.359 202.774 115.585 199.584Z" fill="#AECD9E"/>
<path d="M130.298 205.833L130.594 206.545C130.034 207.542 129.738 208.502 129.706 209.425C129.695 209.708 129.6 209.981 129.432 210.21C129.264 210.438 129.031 210.611 128.764 210.706C128.497 210.801 128.208 210.813 127.933 210.742C127.659 210.67 127.412 210.518 127.226 210.305L124.394 207.033C124.349 206.982 124.293 206.944 124.231 206.92C124.168 206.896 124.101 206.889 124.034 206.897C123.968 206.906 123.904 206.931 123.85 206.97C123.795 207.009 123.751 207.061 123.722 207.121L122.338 209.873C122.204 210.139 121.996 210.227 121.714 210.137C120.135 209.641 119.447 208.497 119.65 206.705C119.669 206.549 119.63 206.399 119.54 206.28C119.451 206.16 119.315 206.079 119.156 206.048C118.996 206.017 118.823 206.039 118.664 206.111C118.505 206.182 118.37 206.298 118.282 206.441C117.663 207.417 116.802 207.718 115.698 207.345C115.566 207.299 115.451 207.216 115.368 207.106C115.285 206.996 115.238 206.865 115.234 206.729L115.058 202.553C115.116 201.918 115.314 201.515 115.65 201.345C115.922 201.206 116.14 201.265 116.306 201.521C119.114 205.833 125.578 206.209 130.298 205.833Z" fill="#F1E8B9"/>
<path d="M140.346 207.88C139.087 207.512 138.319 206.854 138.042 205.904C138.002 205.765 137.914 205.645 137.794 205.565C137.673 205.485 137.528 205.451 137.385 205.468C137.241 205.486 137.108 205.554 137.01 205.66C136.912 205.766 136.855 205.904 136.85 206.048C136.775 207.814 136.026 209.187 134.602 210.168C134.472 210.258 134.317 210.305 134.16 210.3C134.003 210.296 133.852 210.241 133.73 210.144C132.45 209.142 131.533 207.878 130.978 206.352C130.887 206.107 130.789 206.104 130.682 206.344L130.594 206.544L130.298 205.832C134.986 205.918 138.938 204.451 142.154 201.432C142.208 201.382 142.276 201.348 142.35 201.336C142.423 201.324 142.498 201.335 142.566 201.365C142.634 201.396 142.691 201.446 142.73 201.51C142.769 201.573 142.788 201.646 142.786 201.72C142.698 203.488 142.77 207.88 140.346 207.88Z" fill="#C8CD9C"/>
<path d="M107.066 233.113L104.138 232.489C104.927 227.63 106.45 223.017 108.706 218.649C108.972 218.131 109.031 218.153 108.882 218.713C107.644 223.411 107.039 228.211 107.066 233.113Z" fill="#397C7B"/>
</svg>
