<svg width="256" height="256" viewBox="0 0 256 256" fill="none" xmlns="http://www.w3.org/2000/svg">
<path d="M33.4912 106.444C35.9499 111.334 39.1659 115.622 43.1392 119.308" stroke="#D1A798" stroke-width="2"/>
<path d="M43.1396 119.308L44.9156 121.068" stroke="#CB9F92" stroke-width="2"/>
<path d="M44.916 121.068C38.7186 126.769 37.1133 133.644 40.1 141.692C42.292 147.612 46.508 151.567 52.748 153.556" stroke="#FEE7D8" stroke-width="2"/>
<path d="M52.7476 153.556C55.8089 162.234 61.2462 168.22 69.0596 171.516C72.1716 172.82 75.8836 173.348 79.3796 173.94" stroke="#CB9F92" stroke-width="2"/>
<path d="M79.3799 173.941C89.5932 181.183 100.903 186.002 113.308 188.397C113.644 188.461 113.964 188.629 114.052 188.941" stroke="#FEE7D8" stroke-width="2"/>
<path d="M114.052 188.941C113.956 189.431 113.108 189.863 111.508 190.237" stroke="#FDD4C5" stroke-width="2"/>
<path d="M111.508 190.236C105.644 189.532 97.0116 192.676 91.8676 194.684C86.4596 196.801 82.009 199.852 78.5156 203.836" stroke="#B4E1C6" stroke-width="2"/>
<path d="M78.5159 203.836C75.9292 207.095 74.2652 210.559 73.5239 214.228C73.4838 214.42 73.513 214.621 73.6066 214.795C73.7001 214.969 73.852 215.105 74.0358 215.18L77.1959 216.46" stroke="#ACD4B8" stroke-width="2"/>
<path d="M167.035 196.548C162.593 194.212 157.478 192.377 151.691 191.044" stroke="#A5C8B0" stroke-width="2"/>
<path d="M151.692 191.045L141.612 188.877" stroke="#FDD4C5" stroke-width="2"/>
<path d="M141.612 188.876L150.212 187.02" stroke="#FFE3D3" stroke-width="2"/>
<path d="M150.212 187.02C156.793 185.052 163.167 182.45 169.332 179.213" stroke="#FDD4C5" stroke-width="2"/>
<path d="M169.332 179.212C186.42 175.652 202.02 171.348 207.804 152.452" stroke="#CB9F92" stroke-width="2"/>
<path d="M207.804 152.452C217.732 146.396 222.636 132.684 214.524 123.052" stroke="#FDD4C5" stroke-width="2"/>
<path d="M214.523 123.052C221.971 115.724 226.051 104.028 226.947 93.8357C228.659 74.4277 213.923 52.4197 194.739 47.8357C191.715 47.1157 187.243 42.4917 184.355 40.4437" stroke="#CB9F92" stroke-width="2"/>
<path d="M184.356 40.4441C167.108 28.8521 146.02 23.7961 125.06 24.9641" stroke="#D1A798" stroke-width="2"/>
<path d="M125.06 24.9641C104.668 25.6441 81.6759 32.212 66.6519 46.788C66.4599 46.9747 66.2305 47.0841 65.9639 47.1161C61.0305 47.7827 56.4625 49.452 52.2599 52.124C34.1719 63.612 23.3719 86.116 33.4919 106.444" stroke="#DAB1A1" stroke-width="2"/>
<path d="M125.059 24.9641C130.526 25.8281 136.038 26.2281 141.595 26.1641C142.177 26.1587 143.126 26.4174 144.443 26.94C144.657 27.02 144.742 27.1747 144.699 27.404C144.47 28.6947 144.294 30.3187 144.171 32.276C142.563 58.364 116.627 77.148 91.2752 69.772C91.0273 69.6996 90.7612 69.7166 90.5232 69.82C89.3445 70.3213 88.3206 71.0174 87.4512 71.908C83.7392 75.724 79.6272 80.092 75.0272 82.732C74.8406 82.8387 74.7179 82.996 74.6592 83.204L74.4752 83.884C74.3952 84.1667 74.2379 84.22 74.0032 84.044C70.6192 81.572 71.2672 75.876 72.0832 72.404C72.0956 72.3466 72.0911 72.2869 72.0702 72.232C72.0493 72.1771 72.013 72.1294 71.9656 72.0947C71.9182 72.06 71.8618 72.0398 71.8032 72.0365C71.7445 72.0332 71.6862 72.0469 71.6352 72.076C67.9552 74.308 66.4032 79.404 64.3792 83.196C61.8752 87.884 58.8512 87.972 53.8032 88.788C51.3232 89.196 49.9392 90.636 48.5712 92.484C44.6832 97.7214 40.5366 102.404 36.1312 106.532C35.9286 106.724 35.6859 106.799 35.4032 106.756L33.4912 106.444" stroke="#AD5A3B" stroke-width="2"/>
<path d="M184.356 40.4437C184.297 41.7557 184.396 43.1024 184.652 44.4837C187.5 59.7637 176.412 72.2277 161.74 74.1797C156.998 74.8144 153.398 73.1744 150.94 69.2597C150.901 69.1989 150.85 69.1465 150.79 69.106C150.73 69.0654 150.663 69.0376 150.592 69.024C150.522 69.0105 150.45 69.0117 150.38 69.0275C150.31 69.0432 150.245 69.0733 150.188 69.1157L145.028 72.8917C144.94 72.9572 144.842 73.0077 144.741 73.04C144.639 73.0724 144.535 73.086 144.435 73.08C144.336 73.074 144.243 73.0486 144.162 73.0052C144.081 72.9618 144.013 72.9014 143.964 72.8277C143.484 72.0997 145.58 65.0357 145.964 63.8757C146.636 61.8517 148.268 59.0917 148.62 56.1397C148.662 55.7717 148.502 55.5504 148.14 55.4757C147.857 55.4117 147.657 55.2331 147.54 54.9397C147.505 54.8544 147.446 54.7808 147.371 54.7273C147.296 54.6739 147.207 54.6428 147.115 54.6378C147.023 54.6328 146.931 54.654 146.85 54.6989C146.77 54.7438 146.704 54.8107 146.66 54.8917C139.268 68.8037 132.14 76.8037 116.748 82.0357C107.244 85.2677 97.4437 87.3477 87.3477 88.2757C87.2775 88.2817 87.2092 88.3017 87.1468 88.3344C87.0845 88.3672 87.0293 88.4122 86.9846 88.4666C86.9398 88.521 86.9065 88.5838 86.8864 88.6513C86.8663 88.7189 86.8599 88.7897 86.8677 88.8597C87.0597 90.9717 86.169 92.1957 84.1957 92.5317C83.9877 92.5637 83.801 92.6437 83.6356 92.7717L78.7156 96.4597C78.465 96.6411 78.1877 96.713 77.8837 96.6757C76.481 96.4944 75.3183 96.9104 74.3957 97.9237C74.3743 97.9504 74.3796 97.9664 74.4116 97.9717C74.4916 97.9877 74.5557 98.0091 74.6037 98.0357C74.8383 98.1851 74.8197 98.2571 74.5477 98.2517C74.3823 98.2464 74.2277 98.2064 74.0837 98.1317C73.817 97.9877 73.545 97.9771 73.2677 98.0997C71.433 98.9317 69.5663 99.1637 67.6677 98.7957C56.9077 96.7157 47.9796 121.1 44.3636 118.788C44.1343 118.644 43.9023 118.638 43.6677 118.772C43.4597 118.894 43.2836 119.073 43.1396 119.308" stroke="#9E482C" stroke-width="2"/>
<path d="M214.524 123.052C209.9 119.687 206.095 119.458 203.108 122.364" stroke="#CA7558" stroke-width="2"/>
<path d="M203.108 122.364L201.06 127.556" stroke="#CA674F" stroke-width="2"/>
<path d="M201.06 127.556C200.697 129.119 199.99 130.458 198.94 131.572C198.88 131.633 198.803 131.674 198.72 131.69C198.636 131.706 198.55 131.695 198.472 131.66C198.395 131.626 198.33 131.568 198.286 131.495C198.242 131.422 198.222 131.337 198.228 131.252C198.985 122.527 198.489 113.844 196.74 105.204C195.612 99.6043 191.148 94.9803 189.26 90.1083C188.07 87.0257 187.297 83.823 186.94 80.5003C186.932 80.4366 186.906 80.3764 186.865 80.3266C186.824 80.2768 186.771 80.2394 186.71 80.2186C186.649 80.1978 186.584 80.1944 186.521 80.2088C186.459 80.2233 186.401 80.255 186.356 80.3003C179.404 87.4523 170.268 90.5643 161.356 94.4523C159.108 95.4283 155.812 95.0123 153.092 94.6763C147.684 93.999 143.849 91.1056 141.588 85.9963C141.564 85.9429 141.528 85.8956 141.483 85.8579C141.438 85.8202 141.385 85.793 141.328 85.7784C141.271 85.7638 141.212 85.7622 141.154 85.7736C141.097 85.785 141.043 85.8092 140.996 85.8443C137.817 88.2336 134.3 89.8496 130.444 90.6923C124.324 92.0363 118.596 94.2043 112.596 95.8843C111.262 96.2523 110.068 96.743 109.012 97.3563" stroke="#CA7558" stroke-width="2"/>
<path d="M109.011 97.3563L107.923 97.8922" stroke="#CC8466" stroke-width="2"/>
<path d="M107.924 97.8922C99.316 101.788 90.588 102.492 81.46 103.724" stroke="#B85A1E" stroke-width="2"/>
<path d="M81.4595 103.724C74.3635 104.132 68.2995 104.764 62.2915 108.22C55.3955 112.18 57.3315 119.852 56.6355 126.9C56.5929 127.338 56.4515 127.372 56.2115 127.004C55.1315 125.324 55.0915 122.588 53.1955 121.436C51.3555 120.308 47.1235 120.884 44.9155 121.068" stroke="#CB886C" stroke-width="2"/>
<path d="M130.18 142.484C134.164 146.26 128.356 152.508 125.084 154.276C125.001 154.32 124.931 154.385 124.879 154.463C124.828 154.541 124.797 154.631 124.79 154.724C124.783 154.817 124.799 154.91 124.838 154.994C124.877 155.078 124.937 155.15 125.012 155.204C125.929 155.882 127.303 156.242 129.132 156.284" stroke="#FDBD9F" stroke-width="2"/>
<path d="M126.772 164.796C124.004 165.036 121.063 164.719 117.948 163.844C117.345 163.674 117.009 163.964 116.94 164.716" stroke="#FEE7D8" stroke-width="2"/>
<path d="M116.94 164.716C116.113 164.422 115.436 164.369 114.908 164.556C114.788 164.599 114.686 164.682 114.621 164.791C114.555 164.901 114.529 165.03 114.548 165.156C115.135 169.017 117.113 171.91 120.484 173.836C120.676 173.948 120.863 173.937 121.044 173.804L123.012 172.348" stroke="#90766B" stroke-width="2"/>
<path d="M123.011 172.348L121.507 174.46C121.305 174.738 121.355 174.959 121.659 175.124C124.513 176.698 127.763 177.319 131.411 176.988" stroke="#FDBD9F" stroke-width="2"/>
<path d="M130.348 189.493L114.052 188.941" stroke="#FDBD9F" stroke-width="2"/>
<path d="M79.3796 173.94C72.7982 168.522 67.5289 161.996 63.5716 154.364C63.5097 154.248 63.4112 154.155 63.2911 154.1C63.1711 154.045 63.0363 154.031 62.9076 154.06C59.4889 154.818 56.1022 154.65 52.7476 153.556" stroke="#CB886C" stroke-width="2"/>
<path d="M82.7158 110.132C84.4438 109.924 85.9558 110.284 87.5318 110.076C92.0705 109.495 96.6065 109.028 101.14 108.676C102.233 108.591 103.158 107.932 103.916 106.7" stroke="#FDBD9F" stroke-width="2"/>
<path d="M108.18 100.66C108.228 103.684 106.806 105.697 103.916 106.7" stroke="#EBA265" stroke-width="2"/>
<path d="M103.916 106.7C100.98 106.172 97.9158 105.092 95.0998 105.276C90.6838 105.559 86.5558 107.178 82.7158 110.132" stroke="#EA8E51" stroke-width="2"/>
<path d="M82.7153 110.132C80.7793 111.482 78.854 112.407 76.9393 112.908C76.7594 112.956 76.5698 112.953 76.3916 112.899C76.2134 112.845 76.0538 112.743 75.9308 112.603C75.8077 112.464 75.7261 112.292 75.6951 112.109C75.6641 111.925 75.685 111.737 75.7553 111.564C77.0673 108.386 78.9686 105.772 81.4593 103.724" stroke="#EBA265" stroke-width="2"/>
<path d="M152.02 96.9C146.028 101.644 150.684 109.876 157.156 106.5" stroke="#EC9D5F" stroke-width="2"/>
<path d="M166.188 115.508C158.628 115.74 153.276 123.404 152.236 130.308C152.193 130.59 152.313 130.708 152.596 130.66C152.815 130.622 153.001 130.478 153.156 130.228" stroke="#FFE3D3" stroke-width="2"/>
<path d="M153.156 130.228C152.116 137.012 154.868 144.124 161.428 146.716" stroke="#836859" stroke-width="2"/>
<path d="M161.428 146.716C161.77 148.385 164.154 148.572 168.58 147.276" stroke="#FFE3D3" stroke-width="2"/>
<path d="M141.612 188.877L130.348 189.493" stroke="#FDB899" stroke-width="2"/>
<path d="M130.348 189.492L130.076 187.98C130.023 187.692 129.855 187.498 129.572 187.396C128.156 186.892 126.756 186.804 125.908 185.476C124.948 183.956 124.913 182.396 125.804 180.796C125.874 180.67 125.977 180.564 126.102 180.489C126.227 180.415 126.37 180.375 126.516 180.372C128.5 180.33 130.215 179.644 131.66 178.316C131.719 178.264 131.761 178.195 131.779 178.118C131.798 178.042 131.793 177.961 131.764 177.888C131.735 177.814 131.684 177.752 131.618 177.708C131.553 177.664 131.475 177.642 131.396 177.644H130.948C130.915 177.645 130.888 177.634 130.873 177.613C130.857 177.591 130.853 177.561 130.861 177.527C130.87 177.494 130.891 177.459 130.92 177.429C130.949 177.399 130.984 177.376 131.02 177.364C131.212 177.306 131.343 177.18 131.412 176.988" stroke="#FFCCAD" stroke-width="2"/>
<path d="M131.412 176.988C136.489 176.764 141.022 175.015 145.012 171.74C145.094 171.672 145.155 171.58 145.185 171.477C145.216 171.374 145.216 171.264 145.184 171.161C145.152 171.059 145.091 170.968 145.007 170.9C144.924 170.832 144.823 170.79 144.716 170.78C143.281 170.647 142.66 170.172 142.852 169.356" stroke="#FDB899" stroke-width="2"/>
<path d="M142.852 169.356L145.836 170.252C145.956 170.289 146.084 170.296 146.208 170.272C146.332 170.249 146.449 170.195 146.548 170.116C148.412 168.62 155.34 162.452 152.996 159.732C152.638 159.316 152.15 158.927 151.532 158.564" stroke="#907166" stroke-width="2"/>
<path d="M151.532 158.564C146.321 160.633 141.228 162.377 136.252 163.796C133.116 164.684 130.004 164.692 126.772 164.796" stroke="#FFE3D3" stroke-width="2"/>
<path d="M126.772 164.796L125.004 164.644C124.881 164.634 124.863 164.58 124.948 164.484L127.284 161.972C127.487 161.754 127.439 161.644 127.14 161.644H126.796C126.654 161.648 126.516 161.602 126.405 161.514C126.294 161.426 126.218 161.301 126.19 161.162C126.163 161.023 126.185 160.879 126.253 160.755C126.322 160.631 126.432 160.535 126.564 160.484C129.3 159.327 130.156 157.927 129.132 156.284" stroke="#FFCCAD" stroke-width="2"/>
<path d="M129.132 156.284C131.841 155.745 133.447 153.988 133.948 151.012C134.577 147.268 133.532 144.164 130.812 141.7C130.754 141.647 130.678 141.617 130.598 141.617C130.518 141.617 130.441 141.647 130.38 141.7C130.167 141.886 130.1 142.148 130.18 142.484" stroke="#FDB899" stroke-width="2"/>
<path d="M130.18 142.484C128.505 141.455 126.972 141.367 125.58 142.22C124.278 143.025 123.606 142.663 123.564 141.132C123.492 138.532 123.684 136.276 123.092 133.34C122.548 130.658 122.646 127.962 123.388 125.252C123.398 125.226 123.416 125.205 123.44 125.191C123.465 125.177 123.493 125.172 123.52 125.177C123.547 125.182 123.572 125.196 123.591 125.217C123.609 125.238 123.619 125.264 123.62 125.292C123.422 127.276 123.47 129.242 123.764 131.188C123.774 131.219 123.794 131.246 123.821 131.264C123.848 131.283 123.881 131.291 123.913 131.288C123.946 131.285 123.977 131.272 124 131.249C124.024 131.227 124.039 131.197 124.044 131.164C124.044 129.367 124.337 127.679 124.924 126.1C125.017 125.847 125.02 125.57 124.932 125.316C124.58 124.298 124.393 123.074 124.372 121.644C124.324 117.644 124.286 113.642 124.26 109.636C124.26 109.375 124.188 109.132 124.044 108.908C122.86 107.108 122.78 104.084 119.836 104.076C116.38 104.068 112.588 104.78 109.764 102.06C109.62 101.922 109.548 101.754 109.548 101.556V99.8362C109.548 99.4788 109.369 99.2842 109.012 99.2522C108.937 99.2469 108.868 99.2202 108.804 99.1722C108.526 98.9535 108.388 99.1162 108.388 99.6602C108.388 100.055 108.318 100.388 108.18 100.66" stroke="#FFCCAD" stroke-width="2"/>
<path d="M108.179 100.66L107.923 97.8922" stroke="#EC9D5F" stroke-width="2"/>
<path d="M201.059 127.556C201.667 127.524 202.11 127.732 202.387 128.18C202.526 128.409 202.577 128.652 202.539 128.908C201.875 133.836 199.779 138.596 199.011 143.108C197.883 149.7 204.899 148.428 207.875 145.588C214.355 139.42 216.323 128.636 207.563 123.26C206.689 122.721 205.203 122.423 203.107 122.364" stroke="#FC9C82" stroke-width="2"/>
<path d="M207.804 152.452C203.06 153.868 199.9 155.564 194.388 153.876C194.111 153.791 193.903 153.876 193.764 154.132C187.967 164.772 179.823 173.132 169.332 179.212" stroke="#CA7558" stroke-width="2"/>
<path d="M150.212 187.021C149.129 186.541 149.225 186.066 150.5 185.597C158.94 182.477 170.124 173.917 172.02 164.493C172.032 164.427 172.03 164.359 172.012 164.294C171.993 164.23 171.961 164.17 171.916 164.121C171.871 164.071 171.815 164.032 171.752 164.008C171.69 163.984 171.622 163.974 171.556 163.981C166.292 164.421 160.5 163.005 159.948 157.021C159.596 153.197 165.42 149.197 168.58 147.277" stroke="#FDB899" stroke-width="2"/>
<path d="M168.579 147.276C168.633 146.844 169.118 146.409 170.035 145.972C177.251 142.564 178.547 133.348 176.779 126.428C175.377 120.94 171.846 117.3 166.188 115.508" stroke="#FDD4C5" stroke-width="2"/>
<path d="M166.187 115.508L157.155 106.5" stroke="#FDB899" stroke-width="2"/>
<path d="M157.156 106.5C164.668 103.316 171.62 108.316 178.212 112.38C179.268 113.028 180.844 113.428 181.62 112.356C181.711 112.23 181.77 112.084 181.792 111.931C181.814 111.778 181.799 111.621 181.748 111.476C179.108 104.148 169.084 98.38 162.372 96.812C160.532 96.38 157.081 96.4093 152.02 96.9" stroke="#EA8E51" stroke-width="2"/>
<path d="M152.02 96.8997C149.39 97.1717 147.721 96.9317 147.012 96.1797C145.614 94.6917 144.161 93.017 142.652 91.1557C142.452 90.9117 142.167 90.7534 141.855 90.7132C141.542 90.673 141.226 90.7541 140.972 90.9397C137.308 93.5797 133.156 95.4117 128.22 93.9957C125.044 93.0837 123.532 95.5477 121.18 96.4277C118.609 97.393 115.716 98.161 112.5 98.7317C110.67 99.057 109.508 98.5984 109.012 97.3557" stroke="#FDB899" stroke-width="2"/>
<path d="M151.692 191.044C155.06 197.468 151.052 202.108 145.556 205.524" stroke="#A39D76" stroke-width="2"/>
<path d="M145.556 205.524C141.321 207.935 136.969 209.447 132.5 210.06" stroke="#ABAA7E" stroke-width="2"/>
<path d="M132.5 210.06C129.961 207.287 127.342 204.804 124.644 202.612C122.83 201.14 120.758 199.959 118.428 199.068C115.684 198.02 106.372 194.372 103.892 195.22C103.62 195.311 103.409 195.231 103.26 194.98C103.105 194.729 103.044 194.345 103.076 193.828" stroke="#FDB899" stroke-width="2"/>
<path d="M103.075 193.828C103.006 192.729 103.297 192.132 103.947 192.036C106.555 191.652 109.075 191.052 111.507 190.236" stroke="#B3B68C" stroke-width="2"/>
<path d="M142.852 169.356C137.804 168.324 127.54 169.972 123.012 172.348" stroke="#8E6258" stroke-width="2"/>
<path d="M151.532 158.564C148.609 164.836 143.876 167.377 137.332 166.188C131.652 165.164 126.148 166.292 120.548 165.308C119.343 165.1 118.14 164.903 116.94 164.716" stroke="#908D91" stroke-width="2"/>
<path d="M161.427 146.716C173.467 148.796 175.915 133.316 171.827 125.58C166.595 115.676 154.259 120.164 153.155 130.228" stroke="#838385" stroke-width="2"/>
<path d="M103.076 193.828L102.964 197.396" stroke="#B5C59A" stroke-width="2"/>
<path d="M102.964 197.396C103.305 199.007 104.015 200.839 105.092 202.892C110.868 213.884 123.764 214.484 134.476 214.676C134.743 214.681 134.956 214.788 135.116 214.996C137.377 217.929 138.729 221.223 139.172 224.876" stroke="#62B77F" stroke-width="2"/>
<path d="M139.171 224.876C119.39 226.327 100.307 224.001 81.9233 217.9" stroke="#9DCFBB" stroke-width="2"/>
<path d="M81.9236 217.9C82.5316 212.796 81.3956 208.108 78.5156 203.836" stroke="#62B77F" stroke-width="2"/>
<path d="M132.5 210.06C121.156 211.188 109.22 207.5 102.964 197.396" stroke="#ADB98C" stroke-width="2"/>
<path d="M167.036 196.548C174.167 200.49 178.63 206.188 180.428 213.644C180.52 214.033 180.466 214.442 180.276 214.794C180.085 215.145 179.772 215.414 179.396 215.548L166.444 220.18" stroke="#8DB6A5" stroke-width="2"/>
<path d="M166.444 220.18C162.326 212.943 156.209 209.684 148.092 210.404C145.35 210.65 142.676 211.218 140.068 212.108C139.79 212.204 139.63 212.22 139.588 212.156C139.528 212.075 139.486 211.982 139.466 211.883C139.445 211.784 139.446 211.683 139.468 211.585C139.49 211.488 139.533 211.397 139.594 211.319C139.654 211.24 139.732 211.177 139.82 211.132C143.361 209.356 146.518 207.044 149.292 204.196C149.702 203.775 149.641 203.684 149.108 203.924L145.556 205.524" stroke="#539E69" stroke-width="2"/>
<path d="M77.1963 216.46L81.9243 217.9" stroke="#95C3AD" stroke-width="2"/>
<path d="M139.172 224.876C148.735 224.316 157.825 222.75 166.444 220.18" stroke="#95C3AD" stroke-width="2"/>
<path d="M96.012 34.9401C95.9103 34.7786 95.7567 34.6566 95.5764 34.594C95.3961 34.5315 95.1999 34.5322 95.02 34.5961C84.308 38.4041 73.172 47.1801 78.428 60.1321C78.4631 60.2202 78.5212 60.2972 78.5963 60.3551C78.6714 60.413 78.7607 60.4496 78.8548 60.461C78.9489 60.4725 79.0444 60.4584 79.1312 60.4202C79.218 60.3821 79.2929 60.3212 79.348 60.2441C84.5854 53.1081 90.0094 46.0068 95.62 38.9401C96.7027 37.5695 96.8334 36.2361 96.012 34.9401Z" stroke="#C16F49" stroke-width="2"/>
<path d="M187.756 147.652C184.22 146.879 180.671 146.804 177.108 147.428C176.836 147.476 176.666 147.636 176.596 147.908L172.524 163.54C172.471 163.759 172.556 163.863 172.78 163.852C179.26 163.612 188.836 155.372 188.556 148.604C188.547 148.379 188.464 148.164 188.319 147.991C188.174 147.819 187.976 147.7 187.756 147.652Z" stroke="#FC9C82" stroke-width="2"/>
<path d="M97.9321 145.372C100.983 142.466 102.708 139.103 103.108 135.284" stroke="#836C5F" stroke-width="2"/>
<path d="M103.108 135.284C103.788 135.316 104.316 135.5 104.34 134.628C104.5 128.233 102.316 122.83 97.7878 118.42C93.3878 114.124 87.3398 116.46 83.8198 120.332C78.7958 125.852 77.4198 136.484 82.7958 142.284C84.3478 143.953 86.0518 145.401 87.9078 146.628C91.3798 148.926 94.7211 148.508 97.9318 145.372" stroke="#FEE7D8" stroke-width="2"/>
<path d="M103.108 135.284C103.548 130.236 102.388 124.468 98.0038 121.532C93.1158 118.26 87.2598 120.596 84.7558 125.668C81.8038 131.668 82.0758 141.348 88.0038 145.636C90.6864 147.572 93.9958 147.484 97.9318 145.372" stroke="#838385" stroke-width="2"/>
<path d="M48.8996 145.692C51.3156 147.751 53.8569 148.417 56.5236 147.692C57.6276 147.388 58.4756 146.372 58.3236 145.252C57.5983 139.951 56.0009 134.484 53.5316 128.852C50.4356 121.796 45.0756 125.876 43.7956 130.956C42.3662 136.673 44.0676 141.585 48.8996 145.692Z" stroke="#FDBD9F" stroke-width="2"/>
<path d="M70.7558 153.812C71.7398 173.956 104.364 165.628 93.8118 154.732C88.1425 148.876 81.4332 147.158 73.6838 149.58C71.5238 150.252 70.6518 151.62 70.7558 153.812Z" stroke="#FDBD9F" stroke-width="2"/>
<path d="M93.3314 135.46C93.8554 135.452 94.3538 135.177 94.7168 134.695C95.0799 134.214 95.2779 133.566 95.2673 132.893C95.2621 132.56 95.2058 132.231 95.1017 131.925C94.9976 131.619 94.8477 131.342 94.6605 131.109C94.4733 130.877 94.2526 130.693 94.0109 130.57C93.7692 130.446 93.5112 130.384 93.2517 130.388C92.7277 130.397 92.2294 130.672 91.8663 131.153C91.5033 131.634 91.3053 132.283 91.3158 132.955C91.3211 133.288 91.3774 133.617 91.4815 133.923C91.5856 134.229 91.7355 134.507 91.9227 134.739C92.1099 134.972 92.3306 135.155 92.5723 135.279C92.814 135.402 93.072 135.464 93.3314 135.46Z" stroke="#838385" stroke-width="2"/>
<path d="M163.418 135.436C163.67 135.432 163.918 135.366 164.149 135.241C164.38 135.116 164.589 134.935 164.764 134.707C164.939 134.48 165.076 134.212 165.168 133.917C165.26 133.623 165.304 133.308 165.299 132.99C165.289 132.35 165.077 131.738 164.71 131.291C164.343 130.844 163.851 130.597 163.342 130.605C163.09 130.609 162.841 130.675 162.61 130.8C162.379 130.925 162.17 131.107 161.995 131.334C161.821 131.561 161.683 131.829 161.591 132.124C161.5 132.419 161.455 132.733 161.46 133.051C161.47 133.691 161.682 134.303 162.049 134.75C162.416 135.197 162.908 135.444 163.418 135.436Z" stroke="#838385" stroke-width="2"/>
<path d="M125.06 24.9641C130.527 25.8281 136.039 26.2281 141.596 26.1641C142.177 26.1587 143.127 26.4174 144.444 26.94C144.657 27.02 144.743 27.1747 144.7 27.404C144.471 28.6947 144.295 30.3187 144.172 32.276C142.564 58.364 116.628 77.148 91.2759 69.772C91.0279 69.6996 90.7619 69.7166 90.5239 69.82C89.3452 70.3213 88.3212 71.0174 87.4519 71.908C83.7399 75.724 79.6279 80.092 75.0279 82.732C74.8412 82.8387 74.7185 82.996 74.6599 83.204L74.4759 83.884C74.3959 84.1667 74.2385 84.22 74.0039 84.044C70.6199 81.572 71.2679 75.876 72.0839 72.404C72.0963 72.3466 72.0917 72.2869 72.0709 72.232C72.05 72.1771 72.0137 72.1294 71.9663 72.0947C71.9189 72.06 71.8625 72.0398 71.8038 72.0365C71.7452 72.0331 71.6869 72.0469 71.6359 72.076C67.9559 74.308 66.4039 79.404 64.3799 83.196C61.8759 87.884 58.8519 87.972 53.8039 88.788C51.3239 89.196 49.9399 90.636 48.5719 92.484C44.6839 97.7214 40.5372 102.404 36.1319 106.532C35.9292 106.724 35.6865 106.799 35.4039 106.756L33.4919 106.444C23.3719 86.116 34.1719 63.612 52.2599 52.124C56.4625 49.452 61.0305 47.7827 65.9639 47.1161C66.2305 47.0841 66.4599 46.9747 66.6519 46.788C81.6759 32.212 104.668 25.6441 125.06 24.9641ZM96.0119 34.94C95.9102 34.7785 95.7565 34.6565 95.5762 34.5939C95.3959 34.5314 95.1997 34.5322 95.0199 34.596C84.3079 38.404 73.1719 47.18 78.4279 60.132C78.4629 60.2201 78.521 60.2971 78.5961 60.355C78.6712 60.4129 78.7605 60.4495 78.8547 60.4609C78.9488 60.4724 79.0442 60.4583 79.131 60.4202C79.2178 60.382 79.2927 60.3211 79.3479 60.244C84.5852 53.108 90.0092 46.0067 95.6199 38.94C96.7025 37.5694 96.8332 36.236 96.0119 34.94Z" fill="#B56444"/>
<path d="M125.059 24.9641C146.019 23.7961 167.107 28.8521 184.355 40.4441C184.297 41.7561 184.395 43.1028 184.651 44.4841C187.499 59.7641 176.411 72.2281 161.739 74.1801C156.998 74.8148 153.398 73.1748 150.939 69.2601C150.9 69.1992 150.849 69.1469 150.789 69.1064C150.73 69.0658 150.662 69.0379 150.592 69.0244C150.521 69.0109 150.449 69.0121 150.38 69.0278C150.31 69.0436 150.244 69.0737 150.187 69.1161L145.027 72.8921C144.94 72.9576 144.842 73.008 144.74 73.0404C144.638 73.0728 144.534 73.0864 144.435 73.0804C144.335 73.0744 144.242 73.0489 144.161 73.0056C144.08 72.9622 144.013 72.9018 143.963 72.8281C143.483 72.1001 145.579 65.0361 145.963 63.8761C146.635 61.8521 148.267 59.0921 148.619 56.1401C148.662 55.7721 148.502 55.5508 148.139 55.4761C147.857 55.4121 147.657 55.2334 147.539 54.9401C147.504 54.8548 147.446 54.7811 147.37 54.7277C147.295 54.6743 147.206 54.6432 147.114 54.6382C147.022 54.6332 146.931 54.6543 146.85 54.6993C146.769 54.7442 146.703 54.8111 146.659 54.8921C139.267 68.8041 132.139 76.8041 116.747 82.0361C107.243 85.2681 97.4432 87.3481 87.3472 88.2761C87.277 88.2821 87.2087 88.3021 87.1464 88.3348C87.084 88.3676 87.0289 88.4125 86.9841 88.467C86.9394 88.5214 86.906 88.5842 86.8859 88.6517C86.8659 88.7192 86.8595 88.7901 86.8672 88.8601C87.0592 90.9721 86.1685 92.1961 84.1952 92.5321C83.9872 92.5641 83.8005 92.6441 83.6352 92.7721L78.7152 96.4601C78.4645 96.6415 78.1872 96.7134 77.8832 96.6761C76.4806 96.4948 75.3179 96.9108 74.3952 97.9241C74.3739 97.9508 74.3792 97.9668 74.4112 97.9721C74.4912 97.9881 74.5552 98.0094 74.6032 98.0361C74.8379 98.1854 74.8192 98.2574 74.5472 98.2521C74.3819 98.2468 74.2272 98.2068 74.0832 98.1321C73.8166 97.9881 73.5445 97.9774 73.2672 98.1001C71.4325 98.9321 69.5659 99.1641 67.6672 98.7961C56.9072 96.7161 47.9792 121.1 44.3632 118.788C44.1339 118.644 43.9019 118.639 43.6672 118.772C43.4592 118.895 43.2832 119.073 43.1392 119.308C39.1659 115.623 35.9499 111.335 33.4912 106.444L35.4032 106.756C35.6859 106.799 35.9286 106.724 36.1312 106.532C40.5366 102.404 44.6832 97.7214 48.5712 92.4841C49.9392 90.6361 51.3232 89.1961 53.8032 88.7881C58.8512 87.9721 61.8752 87.8841 64.3792 83.1961C66.4032 79.4041 67.9552 74.3081 71.6352 72.0761C71.6862 72.047 71.7445 72.0332 71.8032 72.0365C71.8618 72.0398 71.9182 72.0601 71.9656 72.0948C72.013 72.1295 72.0493 72.1771 72.0702 72.232C72.0911 72.2869 72.0956 72.3467 72.0832 72.4041C71.2672 75.8761 70.6192 81.5721 74.0032 84.0441C74.2379 84.2201 74.3952 84.1668 74.4752 83.8841L74.6592 83.2041C74.7179 82.9961 74.8406 82.8388 75.0272 82.7321C79.6272 80.0921 83.7392 75.7241 87.4512 71.9081C88.3205 71.0175 89.3445 70.3214 90.5232 69.8201C90.7612 69.7167 91.0273 69.6997 91.2752 69.7721C116.627 77.1481 142.563 58.3641 144.171 32.2761C144.294 30.3188 144.47 28.6948 144.699 27.4041C144.742 27.1748 144.657 27.0201 144.443 26.9401C143.126 26.4174 142.177 26.1588 141.595 26.1641C136.038 26.2281 130.526 25.8281 125.059 24.9641Z" fill="#A45032"/>
<path d="M96.012 34.9401C96.8334 36.2361 96.7027 37.5695 95.62 38.9401C90.0094 46.0068 84.5854 53.1081 79.348 60.2441C79.2929 60.3212 79.218 60.3821 79.1312 60.4202C79.0444 60.4584 78.9489 60.4725 78.8548 60.461C78.7607 60.4496 78.6714 60.413 78.5963 60.3551C78.5212 60.2972 78.4631 60.2202 78.428 60.1321C73.172 47.1801 84.308 38.4041 95.02 34.5961C95.1999 34.5322 95.3961 34.5315 95.5764 34.594C95.7567 34.6566 95.9103 34.7786 96.012 34.9401Z" fill="#CD7A4E"/>
<path d="M184.356 40.4437C187.244 42.4917 191.716 47.1157 194.74 47.8357C213.924 52.4197 228.66 74.4277 226.948 93.8357C226.052 104.028 221.972 115.724 214.524 123.052C209.9 119.686 206.094 119.457 203.108 122.364L201.06 127.556C200.697 129.118 199.99 130.457 198.94 131.572C198.88 131.632 198.803 131.673 198.72 131.689C198.636 131.705 198.55 131.695 198.472 131.66C198.395 131.625 198.329 131.567 198.286 131.494C198.242 131.421 198.222 131.337 198.228 131.252C198.985 122.526 198.489 113.844 196.74 105.204C195.612 99.6037 191.148 94.9797 189.26 90.1077C188.07 87.0251 187.297 83.8224 186.94 80.4997C186.931 80.436 186.906 80.3758 186.865 80.326C186.824 80.2762 186.771 80.2388 186.71 80.218C186.649 80.1972 186.584 80.1938 186.521 80.2082C186.458 80.2227 186.401 80.2544 186.356 80.2997C179.404 87.4517 170.268 90.5637 161.356 94.4517C159.108 95.4277 155.812 95.0117 153.092 94.6757C147.684 93.9984 143.849 91.1051 141.588 85.9957C141.563 85.9423 141.528 85.895 141.483 85.8573C141.438 85.8196 141.385 85.7924 141.328 85.7778C141.271 85.7632 141.212 85.7616 141.154 85.773C141.097 85.7844 141.043 85.8086 140.996 85.8437C137.817 88.2331 134.3 89.8491 130.444 90.6917C124.324 92.0357 118.596 94.2037 112.596 95.8837C111.262 96.2517 110.068 96.7424 109.012 97.3557L107.924 97.8917C99.3157 101.788 90.5877 102.492 81.4597 103.724C74.3637 104.132 68.2996 104.764 62.2916 108.22C55.3956 112.18 57.3316 119.852 56.6356 126.9C56.593 127.337 56.4516 127.372 56.2116 127.004C55.1316 125.324 55.0917 122.588 53.1957 121.436C51.3557 120.308 47.1236 120.884 44.9156 121.068L43.1396 119.308C43.2836 119.073 43.4597 118.894 43.6677 118.772C43.9023 118.638 44.1343 118.644 44.3636 118.788C47.9796 121.1 56.9077 96.7157 67.6677 98.7957C69.5663 99.1637 71.433 98.9317 73.2676 98.0997C73.545 97.9771 73.817 97.9877 74.0837 98.1317C74.2277 98.2064 74.3823 98.2464 74.5477 98.2517C74.8197 98.2571 74.8383 98.1851 74.6037 98.0357C74.5557 98.0091 74.4916 97.9877 74.4116 97.9717C74.3796 97.9664 74.3743 97.9504 74.3957 97.9237C75.3183 96.9104 76.481 96.4944 77.8837 96.6757C78.1877 96.713 78.465 96.6411 78.7156 96.4597L83.6356 92.7717C83.801 92.6437 83.9877 92.5637 84.1957 92.5317C86.169 92.1957 87.0597 90.9717 86.8676 88.8597C86.8599 88.7897 86.8663 88.7189 86.8864 88.6513C86.9065 88.5838 86.9398 88.521 86.9846 88.4666C87.0293 88.4122 87.0845 88.3672 87.1468 88.3344C87.2092 88.3017 87.2775 88.2817 87.3477 88.2757C97.4437 87.3477 107.244 85.2677 116.748 82.0357C132.14 76.8037 139.268 68.8037 146.66 54.8917C146.704 54.8107 146.77 54.7438 146.85 54.6989C146.931 54.654 147.023 54.6328 147.115 54.6378C147.207 54.6428 147.296 54.6739 147.371 54.7273C147.446 54.7808 147.505 54.8544 147.54 54.9397C147.657 55.2331 147.857 55.4117 148.14 55.4757C148.502 55.5504 148.662 55.7717 148.62 56.1397C148.268 59.0917 146.636 61.8517 145.964 63.8757C145.58 65.0357 143.484 72.0997 143.964 72.8277C144.013 72.9014 144.081 72.9618 144.162 73.0052C144.243 73.0486 144.336 73.074 144.435 73.08C144.535 73.086 144.639 73.0724 144.741 73.04C144.842 73.0077 144.94 72.9572 145.028 72.8917L150.188 69.1157C150.245 69.0733 150.31 69.0432 150.38 69.0275C150.45 69.0117 150.522 69.0105 150.592 69.024C150.663 69.0375 150.73 69.0654 150.79 69.106C150.85 69.1465 150.901 69.1989 150.94 69.2597C153.398 73.1744 156.998 74.8144 161.74 74.1797C176.412 72.2277 187.5 59.7637 184.652 44.4837C184.396 43.1024 184.297 41.7557 184.356 40.4437Z" fill="#984025"/>
<path d="M201.06 127.556C201.668 127.524 202.11 127.732 202.388 128.18C202.526 128.41 202.577 128.652 202.54 128.908C201.876 133.836 199.78 138.596 199.012 143.108C197.884 149.7 204.9 148.428 207.876 145.588C214.356 139.42 216.324 128.636 207.564 123.26C206.689 122.722 205.204 122.423 203.108 122.364C206.094 119.458 209.9 119.687 214.524 123.052C222.636 132.684 217.732 146.396 207.804 152.452C203.06 153.868 199.9 155.564 194.388 153.876C194.11 153.791 193.902 153.876 193.764 154.132C187.966 164.772 179.822 173.132 169.332 179.212C163.166 182.45 156.793 185.052 150.212 187.02C149.129 186.54 149.225 186.066 150.5 185.596C158.94 182.476 170.124 173.916 172.02 164.492C172.032 164.426 172.03 164.359 172.012 164.294C171.994 164.23 171.961 164.17 171.916 164.12C171.871 164.071 171.815 164.032 171.752 164.008C171.69 163.984 171.622 163.974 171.556 163.98C166.292 164.42 160.5 163.004 159.948 157.02C159.596 153.196 165.42 149.196 168.58 147.276C168.633 146.844 169.118 146.41 170.036 145.972C177.252 142.564 178.548 133.348 176.78 126.428C175.377 120.94 171.846 117.3 166.188 115.508L157.156 106.5C164.668 103.316 171.62 108.316 178.212 112.38C179.268 113.028 180.844 113.428 181.62 112.356C181.711 112.23 181.77 112.084 181.792 111.931C181.815 111.778 181.799 111.622 181.748 111.476C179.108 104.148 169.084 98.3803 162.372 96.8123C160.532 96.3803 157.081 96.4097 152.02 96.9003C149.39 97.1723 147.721 96.9323 147.012 96.1803C145.614 94.6923 144.161 93.0177 142.652 91.1563C142.452 90.9123 142.167 90.754 141.855 90.7138C141.542 90.6736 141.226 90.7547 140.972 90.9403C137.308 93.5803 133.156 95.4123 128.22 93.9963C125.044 93.0843 123.532 95.5483 121.18 96.4283C118.609 97.3936 115.716 98.1616 112.5 98.7323C110.67 99.0576 109.508 98.599 109.012 97.3563C110.068 96.743 111.262 96.2523 112.596 95.8843C118.596 94.2043 124.324 92.0363 130.444 90.6923C134.3 89.8496 137.817 88.2336 140.996 85.8443C141.043 85.8092 141.097 85.785 141.154 85.7736C141.212 85.7622 141.271 85.7638 141.328 85.7784C141.385 85.793 141.438 85.8202 141.483 85.8579C141.528 85.8956 141.564 85.9429 141.588 85.9963C143.849 91.1056 147.684 93.999 153.092 94.6763C155.812 95.0123 159.108 95.4283 161.356 94.4523C170.268 90.5643 179.404 87.4523 186.356 80.3003C186.401 80.255 186.459 80.2233 186.521 80.2088C186.584 80.1944 186.649 80.1978 186.71 80.2186C186.771 80.2394 186.825 80.2768 186.865 80.3266C186.906 80.3764 186.932 80.4366 186.94 80.5003C187.297 83.823 188.07 87.0257 189.26 90.1083C191.148 94.9803 195.612 99.6043 196.74 105.204C198.489 113.844 198.985 122.527 198.228 131.252C198.222 131.337 198.242 131.422 198.286 131.495C198.33 131.568 198.395 131.626 198.472 131.66C198.55 131.695 198.636 131.706 198.72 131.69C198.803 131.674 198.88 131.633 198.94 131.572C199.99 130.458 200.697 129.119 201.06 127.556ZM187.756 147.652C184.22 146.879 180.67 146.804 177.108 147.428C176.836 147.476 176.665 147.636 176.596 147.908L172.524 163.54C172.47 163.759 172.556 163.863 172.78 163.852C179.26 163.612 188.836 155.372 188.556 148.604C188.547 148.379 188.463 148.164 188.318 147.992C188.174 147.819 187.976 147.7 187.756 147.652Z" fill="#FBA98B"/>
<path d="M152.019 96.8997C146.027 101.644 150.683 109.876 157.155 106.5L166.187 115.508C158.627 115.74 153.275 123.404 152.235 130.308C152.193 130.59 152.313 130.708 152.595 130.66C152.814 130.622 153.001 130.478 153.155 130.228C152.115 137.012 154.867 144.124 161.427 146.716C161.769 148.385 164.153 148.572 168.579 147.276C165.419 149.196 159.595 153.196 159.947 157.02C160.499 163.004 166.291 164.42 171.555 163.98C171.622 163.974 171.689 163.983 171.752 164.007C171.814 164.032 171.87 164.07 171.915 164.12C171.96 164.169 171.993 164.229 172.011 164.293C172.029 164.358 172.032 164.426 172.019 164.492C170.123 173.916 158.939 182.476 150.499 185.596C149.225 186.065 149.129 186.54 150.211 187.02L141.611 188.876L130.347 189.492L130.075 187.98C130.022 187.692 129.854 187.497 129.571 187.396C128.155 186.892 126.755 186.804 125.907 185.476C124.947 183.956 124.913 182.396 125.803 180.796C125.874 180.669 125.977 180.563 126.102 180.489C126.227 180.414 126.369 180.374 126.515 180.372C128.499 180.329 130.214 179.644 131.659 178.316C131.719 178.264 131.76 178.194 131.779 178.118C131.797 178.041 131.792 177.961 131.763 177.887C131.734 177.814 131.683 177.751 131.618 177.707C131.552 177.664 131.474 177.642 131.395 177.644H130.947C130.914 177.645 130.888 177.634 130.872 177.612C130.856 177.591 130.852 177.56 130.861 177.527C130.869 177.493 130.89 177.458 130.919 177.428C130.948 177.398 130.984 177.376 131.019 177.364C131.211 177.305 131.342 177.18 131.411 176.988C136.489 176.764 141.022 175.014 145.011 171.74C145.094 171.671 145.154 171.579 145.185 171.476C145.216 171.373 145.215 171.264 145.184 171.161C145.152 171.058 145.091 170.967 145.007 170.899C144.924 170.832 144.822 170.79 144.715 170.78C143.281 170.646 142.659 170.172 142.851 169.356L145.835 170.252C145.956 170.289 146.084 170.296 146.208 170.272C146.332 170.248 146.449 170.195 146.547 170.116C148.411 168.62 155.339 162.452 152.995 159.732C152.638 159.316 152.15 158.926 151.531 158.564C146.321 160.633 141.227 162.377 136.251 163.796C133.115 164.684 130.003 164.692 126.771 164.796L125.003 164.644C124.881 164.633 124.862 164.58 124.947 164.484L127.283 161.972C127.486 161.753 127.438 161.644 127.139 161.644H126.795C126.654 161.648 126.515 161.602 126.404 161.513C126.294 161.425 126.218 161.301 126.19 161.162C126.162 161.023 126.184 160.878 126.253 160.754C126.321 160.63 126.431 160.534 126.563 160.484C129.299 159.326 130.155 157.926 129.131 156.284C131.841 155.745 133.446 153.988 133.947 151.012C134.577 147.268 133.531 144.164 130.811 141.7C130.753 141.647 130.677 141.617 130.597 141.617C130.518 141.617 130.44 141.647 130.379 141.7C130.166 141.886 130.099 142.148 130.179 142.484C128.505 141.454 126.971 141.366 125.579 142.22C124.278 143.025 123.606 142.662 123.563 141.132C123.491 138.532 123.683 136.276 123.091 133.34C122.547 130.657 122.646 127.961 123.387 125.252C123.397 125.226 123.416 125.204 123.44 125.19C123.464 125.177 123.492 125.172 123.52 125.176C123.547 125.181 123.572 125.195 123.59 125.216C123.608 125.237 123.619 125.264 123.619 125.292C123.422 127.276 123.47 129.241 123.763 131.188C123.773 131.219 123.793 131.246 123.821 131.264C123.848 131.282 123.88 131.291 123.913 131.288C123.946 131.285 123.976 131.271 124 131.249C124.024 131.226 124.039 131.196 124.043 131.164C124.043 129.366 124.337 127.678 124.923 126.1C125.017 125.847 125.019 125.569 124.931 125.316C124.579 124.297 124.393 123.073 124.371 121.644C124.323 117.644 124.286 113.641 124.259 109.636C124.259 109.374 124.187 109.132 124.043 108.908C122.859 107.108 122.779 104.084 119.835 104.076C116.379 104.068 112.587 104.78 109.763 102.06C109.619 101.921 109.547 101.753 109.547 101.556V99.8357C109.547 99.4784 109.369 99.2837 109.011 99.2517C108.937 99.2464 108.867 99.2197 108.803 99.1717C108.526 98.953 108.387 99.1157 108.387 99.6597C108.387 100.054 108.318 100.388 108.179 100.66L107.923 97.8917L109.011 97.3557C109.507 98.5984 110.67 99.057 112.499 98.7317C115.715 98.161 118.609 97.393 121.179 96.4277C123.531 95.5477 125.043 93.0837 128.219 93.9957C133.155 95.4117 137.307 93.5797 140.971 90.9397C141.226 90.7541 141.542 90.673 141.854 90.7132C142.167 90.7534 142.452 90.9117 142.651 91.1557C144.161 93.017 145.614 94.6917 147.011 96.1797C147.721 96.9317 149.39 97.1717 152.019 96.8997Z" fill="#FFC7A7"/>
<path d="M157.156 106.5C150.684 109.876 146.028 101.644 152.02 96.9C157.081 96.4093 160.532 96.38 162.372 96.812C169.084 98.38 179.108 104.148 181.748 111.476C181.799 111.621 181.815 111.778 181.792 111.931C181.77 112.084 181.711 112.23 181.62 112.356C180.844 113.428 179.268 113.028 178.212 112.38C171.62 108.316 164.668 103.316 157.156 106.5Z" fill="#D87317"/>
<path d="M107.923 97.8922L108.179 100.66C108.227 103.684 106.806 105.698 103.915 106.7C100.979 106.172 97.9153 105.092 95.0993 105.276C90.6833 105.559 86.5553 107.178 82.7153 110.132C80.7793 111.482 78.854 112.407 76.9393 112.908C76.7594 112.956 76.5698 112.953 76.3916 112.899C76.2134 112.845 76.0538 112.743 75.9308 112.603C75.8077 112.463 75.7261 112.292 75.6951 112.109C75.6641 111.925 75.685 111.737 75.7553 111.564C77.0673 108.386 78.9686 105.772 81.4593 103.724C90.5873 102.492 99.3153 101.788 107.923 97.8922Z" fill="#D87317"/>
<path d="M130.18 142.484C134.164 146.26 128.356 152.508 125.084 154.276C125.001 154.32 124.931 154.384 124.879 154.463C124.828 154.541 124.797 154.631 124.79 154.724C124.783 154.817 124.799 154.91 124.838 154.994C124.877 155.078 124.937 155.15 125.012 155.204C125.929 155.882 127.303 156.242 129.132 156.284C130.156 157.927 129.3 159.327 126.564 160.484C126.432 160.535 126.322 160.631 126.253 160.755C126.185 160.879 126.163 161.023 126.19 161.162C126.218 161.301 126.294 161.426 126.405 161.514C126.516 161.602 126.654 161.648 126.796 161.644H127.14C127.439 161.644 127.487 161.753 127.284 161.972L124.948 164.484C124.863 164.58 124.881 164.634 125.004 164.644L126.772 164.796C124.004 165.036 121.063 164.719 117.948 163.844C117.345 163.674 117.009 163.964 116.94 164.716C116.113 164.423 115.436 164.37 114.908 164.556C114.788 164.599 114.686 164.682 114.621 164.792C114.555 164.901 114.529 165.03 114.548 165.156C115.135 169.018 117.113 171.911 120.484 173.836C120.676 173.948 120.863 173.938 121.044 173.804L123.012 172.348L121.508 174.46C121.305 174.738 121.356 174.959 121.66 175.124C124.513 176.698 127.764 177.319 131.412 176.988C131.343 177.18 131.212 177.306 131.02 177.364C130.984 177.376 130.949 177.399 130.92 177.429C130.891 177.459 130.87 177.493 130.861 177.527C130.853 177.561 130.856 177.591 130.872 177.613C130.888 177.634 130.915 177.645 130.948 177.644H131.396C131.475 177.642 131.552 177.664 131.618 177.708C131.684 177.751 131.735 177.814 131.764 177.888C131.792 177.961 131.798 178.042 131.779 178.118C131.761 178.195 131.719 178.264 131.66 178.316C130.215 179.644 128.5 180.329 126.516 180.372C126.37 180.374 126.227 180.415 126.102 180.489C125.977 180.564 125.874 180.67 125.804 180.796C124.913 182.396 124.948 183.956 125.908 185.476C126.756 186.804 128.156 186.892 129.572 187.396C129.855 187.498 130.023 187.692 130.076 187.98L130.348 189.492L114.052 188.94C113.964 188.628 113.644 188.46 113.308 188.396C100.903 186.002 89.5933 181.183 79.38 173.94C72.7987 168.522 67.5293 161.996 63.572 154.364C63.5102 154.248 63.4116 154.154 63.2916 154.1C63.1715 154.045 63.0367 154.031 62.908 154.06C59.4893 154.818 56.1026 154.65 52.748 153.556C46.508 151.567 42.292 147.612 40.1 141.692C37.1133 133.644 38.7186 126.77 44.916 121.068C47.124 120.884 51.356 120.308 53.196 121.436C55.092 122.588 55.132 125.324 56.212 127.004C56.452 127.372 56.5933 127.338 56.636 126.9C57.332 119.852 55.396 112.18 62.292 108.22C68.3 104.764 74.364 104.132 81.46 103.724C78.9693 105.772 77.068 108.386 75.756 111.564C75.6856 111.737 75.6648 111.925 75.6958 112.109C75.7268 112.292 75.8084 112.463 75.9315 112.603C76.0545 112.743 76.2141 112.845 76.3923 112.899C76.5705 112.953 76.7601 112.956 76.94 112.908C78.8546 112.407 80.78 111.482 82.716 110.132C84.444 109.924 85.956 110.284 87.532 110.076C92.0707 109.495 96.6066 109.028 101.14 108.676C102.233 108.591 103.159 107.932 103.916 106.7C106.807 105.698 108.228 103.684 108.18 100.66C108.319 100.388 108.388 100.055 108.388 99.6602C108.388 99.1162 108.527 98.9535 108.804 99.1722C108.868 99.2202 108.937 99.2469 109.012 99.2522C109.369 99.2842 109.548 99.4788 109.548 99.8362V101.556C109.548 101.754 109.62 101.922 109.764 102.06C112.588 104.78 116.38 104.068 119.836 104.076C122.78 104.084 122.86 107.108 124.044 108.908C124.188 109.132 124.26 109.375 124.26 109.636C124.287 113.642 124.324 117.644 124.372 121.644C124.393 123.074 124.58 124.298 124.932 125.316C125.02 125.57 125.017 125.847 124.924 126.1C124.337 127.679 124.044 129.367 124.044 131.164C124.04 131.197 124.024 131.227 124.001 131.249C123.977 131.272 123.946 131.285 123.914 131.288C123.881 131.291 123.848 131.283 123.821 131.264C123.794 131.246 123.774 131.219 123.764 131.188C123.471 129.242 123.423 127.276 123.62 125.292C123.619 125.264 123.609 125.238 123.591 125.217C123.573 125.196 123.548 125.182 123.52 125.177C123.493 125.172 123.465 125.177 123.441 125.191C123.417 125.205 123.398 125.226 123.388 125.252C122.647 127.962 122.548 130.658 123.092 133.34C123.684 136.276 123.492 138.532 123.564 141.132C123.607 142.663 124.279 143.025 125.58 142.22C126.972 141.367 128.505 141.455 130.18 142.484ZM97.932 145.372C100.983 142.465 102.708 139.103 103.108 135.284C103.788 135.316 104.316 135.5 104.34 134.628C104.5 128.233 102.316 122.831 97.788 118.42C93.388 114.124 87.34 116.46 83.82 120.332C78.796 125.852 77.42 136.484 82.796 142.284C84.348 143.954 86.052 145.401 87.908 146.628C91.38 148.927 94.7213 148.508 97.932 145.372ZM48.9 145.692C51.316 147.751 53.8573 148.418 56.524 147.692C57.628 147.388 58.476 146.372 58.324 145.252C57.5986 139.951 56.0013 134.484 53.532 128.852C50.436 121.796 45.076 125.876 43.796 130.956C42.3666 136.674 44.068 141.586 48.9 145.692ZM70.756 153.812C71.74 173.956 104.364 165.628 93.812 154.732C88.1426 148.876 81.4333 147.159 73.684 149.58C71.524 150.252 70.652 151.62 70.756 153.812Z" fill="#FED0B2"/>
<path d="M103.916 106.7C103.158 107.932 102.233 108.591 101.14 108.676C96.6065 109.028 92.0705 109.495 87.5318 110.076C85.9558 110.284 84.4438 109.924 82.7158 110.132C86.5558 107.178 90.6838 105.559 95.0998 105.276C97.9158 105.092 100.98 106.172 103.916 106.7Z" fill="#FBA98B"/>
<path d="M166.188 115.508C171.847 117.3 175.377 120.94 176.78 126.428C178.548 133.348 177.252 142.564 170.036 145.972C169.119 146.409 168.633 146.844 168.58 147.276C164.153 148.572 161.769 148.385 161.428 146.716C173.468 148.796 175.916 133.316 171.828 125.58C166.596 115.676 154.26 120.164 153.156 130.228C153.001 130.478 152.815 130.622 152.596 130.66C152.313 130.708 152.193 130.59 152.236 130.308C153.276 123.404 158.628 115.74 166.188 115.508Z" fill="#FEFEFE"/>
<path d="M103.108 135.284C103.548 130.236 102.388 124.468 98.0038 121.532C93.1158 118.26 87.2598 120.596 84.7558 125.668C81.8038 131.668 82.0758 141.348 88.0038 145.636C90.6865 147.572 93.9958 147.484 97.9318 145.372C94.7211 148.508 91.3798 148.926 87.9078 146.628C86.0518 145.401 84.3478 143.953 82.7958 142.284C77.4198 136.484 78.7958 125.852 83.8198 120.332C87.3398 116.46 93.3878 114.124 97.7878 118.42C102.316 122.83 104.5 128.233 104.34 134.628C104.316 135.5 103.788 135.316 103.108 135.284Z" fill="#FEFEFE"/>
<path d="M103.108 135.284C102.708 139.103 100.982 142.465 97.9318 145.372C93.9958 147.484 90.6864 147.572 88.0038 145.636C82.0758 141.348 81.8038 131.668 84.7558 125.668C87.2598 120.596 93.1158 118.26 98.0038 121.532C102.388 124.468 103.548 130.236 103.108 135.284ZM93.3316 135.46C93.8556 135.452 94.354 135.176 94.717 134.695C95.0801 134.214 95.2781 133.566 95.2675 132.893C95.2623 132.56 95.206 132.231 95.1019 131.925C94.9978 131.619 94.8478 131.342 94.6607 131.109C94.4735 130.877 94.2528 130.693 94.0111 130.57C93.7693 130.446 93.5114 130.384 93.2519 130.388C92.7279 130.397 92.2296 130.672 91.8665 131.153C91.5035 131.634 91.3054 132.283 91.316 132.955C91.3212 133.288 91.3775 133.617 91.4817 133.923C91.5858 134.229 91.7357 134.506 91.9229 134.739C92.11 134.972 92.3308 135.155 92.5725 135.279C92.8142 135.402 93.0722 135.464 93.3316 135.46Z" fill="#07080B"/>
<path d="M161.428 146.716C154.868 144.124 152.116 137.012 153.156 130.228C154.26 120.164 166.596 115.676 171.828 125.58C175.916 133.316 173.468 148.796 161.428 146.716ZM163.418 135.436C163.67 135.432 163.919 135.366 164.15 135.241C164.381 135.116 164.59 134.934 164.765 134.707C164.939 134.48 165.077 134.212 165.168 133.917C165.26 133.622 165.305 133.307 165.3 132.99C165.29 132.35 165.078 131.738 164.711 131.291C164.344 130.844 163.851 130.597 163.342 130.605C163.09 130.609 162.842 130.675 162.611 130.8C162.38 130.925 162.171 131.106 161.996 131.334C161.821 131.561 161.684 131.829 161.592 132.124C161.5 132.418 161.456 132.733 161.461 133.051C161.471 133.691 161.682 134.302 162.05 134.75C162.417 135.197 162.909 135.444 163.418 135.436Z" fill="#07080B"/>
<path d="M201.059 127.556L203.107 122.364C205.203 122.423 206.689 122.721 207.563 123.26C216.323 128.636 214.355 139.42 207.875 145.588C204.899 148.428 197.883 149.7 199.011 143.108C199.779 138.596 201.875 133.836 202.539 128.908C202.577 128.652 202.526 128.409 202.387 128.18C202.11 127.732 201.667 127.524 201.059 127.556Z" fill="#FC8E79"/>
<path d="M48.8996 145.692C44.0676 141.585 42.3662 136.673 43.7956 130.956C45.0756 125.876 50.4356 121.796 53.5316 128.852C56.0009 134.484 57.5983 139.951 58.3236 145.252C58.4756 146.372 57.6276 147.388 56.5236 147.692C53.8569 148.417 51.3156 147.751 48.8996 145.692Z" fill="#FBA98B"/>
<path d="M91.3159 132.956C91.3379 134.356 92.2403 135.477 93.3315 135.46C94.4226 135.443 95.2894 134.294 95.2674 132.893C95.2454 131.493 94.343 130.372 93.2518 130.389C92.1606 130.406 91.2939 131.555 91.3159 132.956Z" fill="#FEFEFE"/>
<path d="M161.46 133.05C161.481 134.384 162.358 135.452 163.418 135.436C164.478 135.419 165.321 134.324 165.3 132.99C165.279 131.656 164.402 130.588 163.342 130.604C162.282 130.621 161.439 131.716 161.46 133.05Z" fill="#FEFEFE"/>
<path d="M129.132 156.284C127.303 156.242 125.929 155.882 125.012 155.204C124.937 155.15 124.877 155.078 124.838 154.994C124.799 154.91 124.783 154.817 124.79 154.724C124.797 154.631 124.828 154.541 124.879 154.463C124.931 154.385 125.001 154.32 125.084 154.276C128.356 152.508 134.164 146.26 130.18 142.484C130.1 142.148 130.167 141.887 130.38 141.7C130.441 141.647 130.518 141.618 130.598 141.618C130.678 141.618 130.754 141.647 130.812 141.7C133.532 144.164 134.577 147.268 133.948 151.012C133.447 153.988 131.841 155.746 129.132 156.284Z" fill="#FBA98B"/>
<path d="M187.756 147.652C187.976 147.7 188.174 147.819 188.319 147.991C188.464 148.164 188.547 148.379 188.556 148.604C188.836 155.372 179.26 163.612 172.78 163.852C172.556 163.863 172.471 163.759 172.524 163.54L176.596 147.908C176.666 147.636 176.836 147.476 177.108 147.428C180.671 146.804 184.22 146.879 187.756 147.652Z" fill="#FC8E79"/>
<path d="M93.8118 154.732C104.364 165.628 71.7398 173.956 70.7558 153.812C70.6518 151.62 71.5238 150.252 73.6838 149.58C81.4332 147.158 88.1425 148.876 93.8118 154.732Z" fill="#FBA98B"/>
<path d="M207.804 152.452C202.02 171.348 186.42 175.652 169.332 179.212C179.823 173.132 187.967 164.772 193.764 154.132C193.903 153.876 194.111 153.791 194.388 153.876C199.9 155.564 203.06 153.868 207.804 152.452Z" fill="#984025"/>
<path d="M52.7476 153.556C56.1022 154.65 59.4889 154.818 62.9076 154.06C63.0363 154.031 63.1711 154.045 63.2911 154.1C63.4112 154.155 63.5097 154.248 63.5716 154.364C67.5289 161.996 72.7982 168.522 79.3796 173.94C75.8836 173.348 72.1716 172.82 69.0596 171.516C61.2462 168.22 55.8089 162.234 52.7476 153.556Z" fill="#984025"/>
<path d="M151.532 158.564C148.609 164.836 143.876 167.377 137.332 166.188C131.652 165.164 126.148 166.292 120.548 165.308C119.343 165.1 118.14 164.903 116.94 164.716C117.009 163.964 117.345 163.673 117.948 163.844C121.063 164.719 124.004 165.036 126.772 164.796C130.004 164.692 133.116 164.684 136.252 163.796C141.228 162.377 146.321 160.633 151.532 158.564Z" fill="#FEFEFE"/>
<path d="M151.532 158.564C152.151 158.927 152.639 159.316 152.996 159.732C155.34 162.452 148.412 168.62 146.548 170.116C146.449 170.195 146.333 170.249 146.209 170.272C146.085 170.296 145.957 170.289 145.836 170.252L142.852 169.356C137.804 168.324 127.54 169.972 123.012 172.348L121.044 173.804C120.863 173.937 120.676 173.948 120.484 173.836C117.113 171.911 115.135 169.017 114.548 165.156C114.529 165.03 114.555 164.901 114.621 164.792C114.686 164.682 114.788 164.599 114.908 164.556C115.436 164.369 116.113 164.423 116.94 164.716C118.14 164.903 119.343 165.1 120.548 165.308C126.148 166.292 131.652 165.164 137.332 166.188C143.876 167.377 148.609 164.836 151.532 158.564Z" fill="#211B24"/>
<path d="M142.851 169.356C142.659 170.172 143.281 170.647 144.715 170.78C144.822 170.79 144.924 170.832 145.007 170.9C145.091 170.967 145.152 171.058 145.184 171.161C145.215 171.264 145.216 171.374 145.185 171.477C145.154 171.58 145.094 171.671 145.011 171.74C141.022 175.015 136.489 176.764 131.411 176.988C127.763 177.319 124.513 176.697 121.659 175.124C121.355 174.959 121.305 174.737 121.507 174.46L123.011 172.348C127.539 169.972 137.803 168.324 142.851 169.356Z" fill="#FBA98B"/>
<path d="M130.347 189.493L141.611 188.877L151.691 191.045C155.059 197.469 151.051 202.109 145.555 205.525C141.321 207.935 136.969 209.447 132.499 210.061C129.961 207.287 127.342 204.805 124.643 202.613C122.83 201.141 120.758 199.959 118.427 199.069C115.683 198.021 106.371 194.373 103.891 195.221C103.619 195.311 103.409 195.231 103.259 194.981C103.105 194.73 103.043 194.346 103.075 193.829C103.006 192.73 103.297 192.133 103.947 192.037C106.555 191.653 109.075 191.053 111.507 190.237C113.107 189.863 113.955 189.431 114.051 188.941L130.347 189.493Z" fill="#FBA98B"/>
<path d="M111.508 190.236C109.076 191.052 106.556 191.652 103.948 192.036C103.297 192.132 103.006 192.729 103.076 193.828L102.964 197.396C103.305 199.007 104.014 200.839 105.092 202.892C110.868 213.884 123.764 214.484 134.476 214.676C134.742 214.681 134.956 214.788 135.116 214.996C137.377 217.929 138.729 221.223 139.172 224.876C119.39 226.327 100.308 224.001 81.9236 217.9C82.5316 212.796 81.3956 208.108 78.5156 203.836C82.009 199.852 86.4596 196.801 91.8676 194.684C97.0116 192.676 105.644 189.532 111.508 190.236Z" fill="#6AC38D"/>
<path d="M151.692 191.044C157.478 192.377 162.593 194.212 167.036 196.548C174.166 200.489 178.63 206.188 180.428 213.644C180.52 214.032 180.466 214.442 180.275 214.793C180.085 215.144 179.772 215.413 179.396 215.548L166.444 220.18C162.326 212.942 156.209 209.684 148.092 210.404C145.35 210.649 142.676 211.217 140.068 212.108C139.79 212.204 139.63 212.22 139.588 212.156C139.528 212.074 139.486 211.981 139.466 211.882C139.445 211.784 139.446 211.682 139.468 211.584C139.49 211.487 139.533 211.396 139.594 211.318C139.654 211.24 139.732 211.176 139.82 211.132C143.361 209.356 146.518 207.044 149.292 204.196C149.702 203.774 149.641 203.684 149.108 203.924L145.556 205.524C151.052 202.108 155.06 197.468 151.692 191.044Z" fill="#4B9161"/>
<path d="M103.076 193.828C103.044 194.345 103.105 194.729 103.26 194.98C103.409 195.231 103.62 195.311 103.892 195.22C106.372 194.372 115.684 198.02 118.428 199.068C120.759 199.959 122.831 201.14 124.644 202.612C127.343 204.804 129.961 207.287 132.5 210.06C121.156 211.188 109.22 207.5 102.964 197.396L103.076 193.828Z" fill="#FFC7A7"/>
<path d="M102.964 197.396C109.22 207.5 121.156 211.188 132.5 210.06C136.969 209.447 141.321 207.935 145.556 205.524L149.108 203.924C149.641 203.684 149.703 203.775 149.292 204.196C146.519 207.044 143.361 209.356 139.82 211.132C139.732 211.177 139.654 211.24 139.594 211.318C139.533 211.396 139.49 211.487 139.468 211.585C139.446 211.682 139.445 211.784 139.466 211.883C139.487 211.981 139.528 212.075 139.588 212.156C139.631 212.22 139.791 212.204 140.068 212.108C142.676 211.217 145.351 210.649 148.092 210.404C156.209 209.684 162.327 212.943 166.444 220.18C157.825 222.751 148.735 224.316 139.172 224.876C138.729 221.223 137.377 217.929 135.116 214.996C134.956 214.788 134.743 214.681 134.476 214.676C123.764 214.484 110.868 213.884 105.092 202.892C104.015 200.839 103.305 199.007 102.964 197.396Z" fill="#5AAA71"/>
<path d="M78.5159 203.836C81.3959 208.108 82.5319 212.796 81.9239 217.9L77.1959 216.46L74.0358 215.18C73.852 215.105 73.7001 214.969 73.6066 214.795C73.513 214.621 73.4838 214.42 73.5239 214.228C74.2652 210.559 75.9292 207.095 78.5159 203.836Z" fill="#5AAA71"/>
</svg>
