<svg width="256" height="256" viewBox="0 0 256 256" fill="none" xmlns="http://www.w3.org/2000/svg">
<path d="M43.5715 126.791C40.7448 133.927 41.7528 140.26 46.5955 145.791C51.5395 151.439 57.7955 151.223 64.7795 149.799C65.0569 149.745 65.2515 149.844 65.3635 150.095C75.3155 172.527 93.9395 183.887 117.108 189.551" stroke="#FCDAC9" stroke-width="2"/>
<path d="M117.107 189.551L106.803 191.935" stroke="#E3BEB0" stroke-width="2"/>
<path d="M106.804 191.934L102.58 192.686" stroke="#E0A9A8" stroke-width="2"/>
<path d="M102.579 192.687C91.6088 194.607 81.4515 198.495 72.1075 204.351C72.0702 204.374 72.0393 204.407 72.0174 204.445C71.9955 204.483 71.9832 204.526 71.9816 204.57C71.98 204.615 71.9892 204.658 72.0084 204.698C72.0275 204.738 72.056 204.772 72.0915 204.799C87.1208 216.436 104.233 222.985 123.427 224.447" stroke="#F3A6A3" stroke-width="2"/>
<path d="M123.428 224.447C121.196 225.639 119.62 225.079 117.324 224.783C100.204 222.57 84.9556 216.101 71.5796 205.375C71.3769 205.21 71.1582 205.186 70.9236 205.303L66.2516 207.631C66.1873 207.663 66.1302 207.708 66.084 207.763C66.0378 207.818 66.0034 207.882 65.9831 207.95C65.9628 208.019 65.957 208.09 65.966 208.161C65.9751 208.231 65.9987 208.299 66.0356 208.359C66.5209 209.175 67.1983 210.029 68.0676 210.919C102.804 246.455 162.42 247.679 195.308 208.391C195.478 208.183 195.444 208.021 195.204 207.903L188.836 204.767" stroke="#E8EEEE" stroke-width="2"/>
<path d="M188.836 204.767C177.02 196.375 164.308 193.143 150.124 190.655" stroke="#F3A6A3" stroke-width="2"/>
<path d="M150.123 190.654L144.099 188.734" stroke="#E3BEB0" stroke-width="2"/>
<path d="M144.099 188.735C166.595 183.071 183.819 172.127 193.483 150.487C193.606 150.22 193.811 150.111 194.099 150.159C196.227 150.495 198.619 151.047 200.555 150.991C212.739 150.647 218.851 137.447 214.011 126.975C213.851 126.634 213.984 126.38 214.411 126.215" stroke="#EDC8B7" stroke-width="2"/>
<path d="M214.411 126.215C219.771 124.447 219.075 118.631 215.803 115.351C215.715 115.262 215.645 115.156 215.598 115.04C215.551 114.923 215.528 114.799 215.531 114.673C215.533 114.548 215.56 114.424 215.611 114.31C215.662 114.195 215.736 114.092 215.827 114.007C219.971 110.14 220.027 106.231 215.995 102.279C215.84 102.126 215.749 101.92 215.742 101.703C215.734 101.485 215.811 101.273 215.955 101.111C219.8 96.8545 219.808 92.6946 215.979 88.6306C215.808 88.4492 215.8 88.2625 215.955 88.0705C219.667 83.5745 219.256 79.6279 214.723 76.2306C214.618 76.1534 214.54 76.0447 214.5 75.9199C214.46 75.7951 214.459 75.6604 214.499 75.5346C216.142 70.4626 214.534 67.3372 209.675 66.1585C209.619 66.1449 209.565 66.1196 209.519 66.0842C209.473 66.0489 209.435 66.0043 209.408 65.9535C209.381 65.9027 209.365 65.847 209.361 65.7899C209.358 65.7328 209.366 65.6757 209.387 65.6225C211.291 60.5105 209.187 56.3745 204.219 54.7665C202.971 54.3612 201.688 53.9479 200.371 53.5266" stroke="#978D91" stroke-width="2"/>
<path d="M200.371 53.5268C201.646 45.8308 198.291 41.9561 190.307 41.9028C190.088 41.9028 189.878 41.8163 189.722 41.662C189.566 41.5077 189.477 41.2981 189.475 41.0788C189.435 35.0228 185.203 33.7348 180.195 35.3108C179.923 35.3961 179.763 35.3002 179.715 35.0228C178.635 28.7268 174.491 29.5428 169.427 30.0148" stroke="#9B8F92" stroke-width="2"/>
<path d="M169.427 30.0148C168.942 30.0574 168.667 29.9081 168.603 29.5668C167.638 24.6441 164.67 22.3401 159.699 22.6547C158.531 22.7267 157.483 23.5188 156.259 23.7908C156.133 23.819 156 23.8054 155.882 23.752C155.764 23.6986 155.666 23.6084 155.603 23.4947C153.275 19.2707 149.147 17.4948 145.227 21.2388C145.166 21.2961 145.093 21.339 145.013 21.3644C144.934 21.3898 144.849 21.397 144.766 21.3855C144.684 21.374 144.604 21.3441 144.535 21.2979C144.465 21.2517 144.406 21.1905 144.363 21.1188C142.331 17.7214 139.617 17.0228 136.219 19.0228C135.972 19.165 135.761 19.3592 135.603 19.5908C135.358 19.9428 135.065 20.2467 134.723 20.5027C134.478 20.6841 134.267 20.6468 134.091 20.3908C130.971 15.8548 127.483 17.4788 124.467 20.7908C124.426 20.8368 124.375 20.8729 124.318 20.8963C124.261 20.9198 124.199 20.93 124.137 20.9261C124.076 20.9223 124.016 20.9045 123.962 20.8741C123.908 20.8437 123.862 20.8015 123.827 20.7507C122.233 18.4307 120.161 17.6734 117.611 18.4788C115.987 18.9908 115.115 20.5668 113.899 21.7748C113.67 21.9988 113.446 21.9934 113.227 21.7587C110.694 18.9801 108.025 18.8068 105.219 21.2388C104.571 21.7988 104.299 22.7027 103.707 23.3587C103.499 23.5881 103.267 23.6148 103.011 23.4388C98.6432 20.4228 96.0032 22.8867 94.0272 26.6547C93.8779 26.9374 93.6699 26.9908 93.4032 26.8148C87.9632 23.3028 83.8592 25.8228 82.6912 31.6388C82.6799 31.696 82.6562 31.75 82.6219 31.7972C82.5875 31.8443 82.5432 31.8834 82.4921 31.9116C82.441 31.9398 82.3844 31.9564 82.3262 31.9605C82.268 31.9645 82.2096 31.9557 82.1552 31.9348C76.3792 29.7108 69.1232 31.1987 69.6752 38.8467C69.7392 39.6894 69.7872 40.5534 69.8192 41.4388C69.8352 41.8388 69.6485 41.9961 69.2592 41.9107C61.3152 40.2147 53.3872 44.1507 56.9472 53.6147C56.9881 53.7219 57.0019 53.8374 56.9874 53.9512C56.9729 54.0649 56.9305 54.1733 56.864 54.2667C56.7975 54.3601 56.709 54.4357 56.6062 54.4866C56.5035 54.5376 56.3898 54.5623 56.2752 54.5587C49.5952 54.3747 43.1872 58.0547 47.1072 65.8547C47.2138 66.0681 47.1499 66.1854 46.9152 66.2067C41.9632 66.7107 40.0112 70.8227 42.3392 75.2067C42.4779 75.4734 42.4325 75.7001 42.2032 75.8868C36.5072 80.5828 36.1552 82.1748 40.7472 88.2788C40.9019 88.4814 40.8699 88.6547 40.6512 88.7987C34.8912 92.5027 37.0592 96.8388 40.6672 101.271C40.8592 101.505 40.8379 101.713 40.6032 101.895C36.2672 105.311 34.9392 110.063 40.3632 113.423C40.4835 113.497 40.5864 113.596 40.6649 113.714C40.7435 113.832 40.7959 113.965 40.8186 114.106C40.8413 114.246 40.8339 114.389 40.7967 114.527C40.7596 114.664 40.6936 114.793 40.6032 114.903C35.9152 120.631 36.0512 124.343 43.5712 126.791" stroke="#A69B9D" stroke-width="2"/>
<path d="M169.427 30.0148C168.747 30.1828 168.475 30.1748 168.083 30.7988C158.211 46.6548 141.963 57.0148 124.371 62.5668" stroke="#432D31" stroke-width="2"/>
<path d="M124.372 62.5672C122.057 63.1379 118.201 63.8765 112.804 64.7832C109.108 65.4019 101.308 67.0605 89.4036 69.7592C83.1476 71.1752 81.1556 73.3992 76.7556 77.7192C76.5583 77.9112 76.3209 78.0285 76.0436 78.0712C72.5769 78.5992 70.2969 79.0365 69.2036 79.3832C65.6596 80.5192 65.8116 83.9832 65.0596 86.8952C65.0283 87.0112 64.9658 87.1169 64.8786 87.2013C64.7914 87.2857 64.6826 87.3457 64.5636 87.3752C59.8649 88.5432 57.5049 91.3885 57.4836 95.9112C57.4756 98.0472 58.4916 100.655 58.8676 103.063C58.9092 103.323 58.8672 103.589 58.7476 103.823C57.7956 105.719 55.5236 109.047 56.1716 110.983C57.2116 114.135 57.8916 117.359 58.2116 120.655C58.2383 120.933 58.1183 121.117 57.8516 121.207L56.9396 121.511" stroke="#3E2A30" stroke-width="2"/>
<path d="M56.9393 121.511C51.5953 118.439 46.1393 121.879 43.5713 126.791" stroke="#A37768" stroke-width="2"/>
<path d="M214.411 126.215L214.083 126.159C213.955 126.139 213.834 126.091 213.727 126.019C213.621 125.947 213.532 125.853 213.467 125.743C211.302 122.17 208.086 120.524 203.819 120.807C200.035 121.063 199.011 124.039 197.707 127.383C197.547 127.794 197.456 127.78 197.435 127.343C197.099 120.026 196.342 112.77 195.163 105.575" stroke="#85574A" stroke-width="2"/>
<path d="M195.164 105.575C194.588 101.639 193.521 97.8414 191.964 94.1827C191.913 94.0682 191.826 93.9734 191.716 93.9128C191.606 93.8521 191.48 93.8289 191.356 93.8467C182.644 95.1267 182.3 92.1667 180.924 84.6707C180.905 84.5792 180.86 84.4951 180.794 84.4292C180.728 84.3633 180.643 84.3185 180.552 84.3005C180.46 84.2826 180.365 84.2922 180.279 84.3282C180.193 84.3642 180.119 84.4249 180.068 84.5027C178.876 86.3267 177.036 87.2467 174.844 87.2067C169.268 87.0947 168.972 80.8307 168.116 76.6467C168.102 76.5768 168.067 76.5126 168.016 76.4628C167.965 76.413 167.9 76.3798 167.83 76.3677C167.76 76.3555 167.688 76.365 167.623 76.3948C167.558 76.4247 167.504 76.4735 167.468 76.5347C163.46 83.1347 156.9 82.5667 154.084 75.2787C153.956 74.9481 153.796 74.9321 153.604 75.2307C149.42 81.7027 142.724 78.3587 140.268 72.6627C140.234 72.5814 140.178 72.5116 140.105 72.4616C140.033 72.4117 139.947 72.3838 139.859 72.3812C139.771 72.3787 139.685 72.4016 139.609 72.4473C139.534 72.493 139.474 72.5595 139.436 72.6387C137.924 75.6947 133.964 77.5907 130.748 75.9747C128.612 74.8947 126.9 71.5267 125.692 69.2387C125.643 69.1447 125.57 69.0658 125.479 69.0108C125.389 68.9557 125.285 68.9266 125.18 68.9266C125.074 68.9266 124.97 68.9557 124.88 69.0108C124.79 69.0658 124.716 69.1447 124.668 69.2387C122.42 73.4867 121.084 79.1187 115.108 79.0787C111.388 79.0547 108.892 75.9267 107.668 72.7027C107.641 72.6305 107.593 72.5684 107.531 72.5243C107.468 72.4802 107.393 72.4562 107.315 72.4553C107.238 72.4545 107.162 72.4768 107.096 72.5195C107.03 72.5622 106.979 72.6232 106.948 72.6947C104.932 77.5507 102.444 85.7667 95.3557 81.0627C93.8757 80.0787 92.8837 78.0067 91.6517 76.5267C91.614 76.4803 91.5641 76.4453 91.5075 76.4257C91.451 76.4062 91.3901 76.4029 91.3318 76.4163C91.2735 76.4296 91.2201 76.459 91.1776 76.5012C91.1352 76.5433 91.1054 76.5965 91.0917 76.6547C90.4197 79.3107 89.9637 82.4227 88.5877 84.5187C86.3317 87.9667 81.3157 89.4227 78.0677 86.0467C77.2783 85.2254 76.4997 84.3934 75.7317 83.5507C75.625 83.428 75.489 83.3721 75.3237 83.3827C75.217 83.3934 75.105 83.3347 74.9877 83.2067C74.9188 83.1303 74.8275 83.0776 74.7269 83.0562C74.6262 83.0347 74.5214 83.0456 74.4274 83.0873C74.3333 83.129 74.2548 83.1994 74.2032 83.2883C74.1515 83.3773 74.1293 83.4804 74.1397 83.5827C74.7317 89.5107 73.3237 96.9507 65.2837 95.6467C65.001 95.604 64.777 95.6974 64.6117 95.9267C64.137 96.5827 64.0117 97.3294 64.2357 98.1667" stroke="#7B4E43" stroke-width="2"/>
<path d="M64.235 98.1672C62.3576 107.671 61.3763 117.442 61.291 127.479C61.2803 128.882 61.0616 128.917 60.635 127.583C60.0163 125.631 58.7843 123.607 56.939 121.511" stroke="#94695C" stroke-width="2"/>
<path d="M128.603 79.0945L128.235 135.751C128.235 136.028 128.339 136.257 128.547 136.439C130.235 137.903 136.723 141.455 134.363 143.935C131.803 146.633 128.83 146.943 125.443 144.863C124.76 144.447 124.371 143.924 124.275 143.295C124.257 143.172 124.195 143.059 124.102 142.977C124.009 142.895 123.889 142.848 123.765 142.845C123.641 142.843 123.52 142.884 123.423 142.961C123.326 143.039 123.259 143.149 123.235 143.271C122.718 145.996 123.731 147.831 126.275 148.775C126.383 148.815 126.48 148.878 126.56 148.959C126.64 149.041 126.701 149.139 126.739 149.247L128.603 154.735" stroke="#EAA482" stroke-width="2"/>
<path d="M128.603 154.735L110.195 153.319" stroke="#FCDAC9" stroke-width="2"/>
<path d="M110.195 153.318C109.374 153.265 108.648 153.449 108.019 153.87C107.795 154.02 107.651 154.222 107.587 154.478C106.419 159.118 110.651 166.046 113.603 169.07" stroke="#D17D6B" stroke-width="2"/>
<path d="M113.603 169.07C118.222 173.705 123.499 176.06 129.435 176.134" stroke="#E78F7A" stroke-width="2"/>
<path d="M129.435 176.134L129.355 190.63" stroke="#EAA482" stroke-width="2"/>
<path d="M129.356 190.631L117.108 189.551" stroke="#E09B7B" stroke-width="2"/>
<path d="M200.371 53.5266C198.062 56.5452 196.259 58.4732 194.963 59.3105C181.195 68.1665 169.035 66.2705 153.995 62.8545C148.931 61.7105 145.563 62.0226 141.179 64.1346C135.875 66.6866 130.259 66.4546 124.747 64.5906C124.496 64.5052 124.411 64.3372 124.491 64.0866C124.662 63.5266 124.622 63.0199 124.371 62.5665" stroke="#341F25" stroke-width="2"/>
<path d="M144.099 188.734C139.161 189.764 134.246 190.396 129.355 190.63" stroke="#D18969" stroke-width="2"/>
<path d="M129.435 176.135C134.571 175.708 139.014 173.868 142.763 170.615" stroke="#D87D68" stroke-width="2"/>
<path d="M142.763 170.615C146.785 166.631 149.067 161.709 149.611 155.847C149.648 155.462 149.547 155.076 149.327 154.758C149.108 154.441 148.783 154.211 148.411 154.111C148.006 153.999 147.641 154.109 147.315 154.439" stroke="#C26B59" stroke-width="2"/>
<path d="M147.315 154.439C146.683 153.727 131.995 154.751 128.603 154.735" stroke="#EDC8B7" stroke-width="2"/>
<path d="M195.163 105.575L194.043 105.559C193.83 105.554 193.694 105.45 193.635 105.247L191.747 98.543C191.687 98.3325 191.561 98.1467 191.387 98.0128C191.212 97.8789 191 97.8039 190.779 97.799C187.595 97.743 184.603 97.0311 182.083 95.1911C177.131 91.5831 172.451 91.743 168.115 86.607C167.942 86.3977 167.712 86.2398 167.451 86.151C164.251 85.071 160.947 84.591 157.699 83.543C154.446 82.503 151.107 81.943 147.683 81.863C144.899 81.799 141.787 78.671 139.795 79.143C136.435 79.943 132.704 79.927 128.603 79.095" stroke="#D18969" stroke-width="2"/>
<path d="M128.603 79.0943L125.459 76.9023C125.388 76.8534 125.308 76.8193 125.224 76.802C125.14 76.7848 125.053 76.7847 124.968 76.8019C124.884 76.8191 124.804 76.8532 124.733 76.902C124.662 76.9509 124.601 77.0136 124.555 77.0863C120.675 83.1023 114.667 82.5743 108.995 79.8143C108.807 79.7203 108.59 79.7011 108.387 79.7603C108.184 79.8196 108.01 79.9531 107.899 80.1343C103.835 86.8143 98.6674 85.6863 92.0114 84.3423C91.885 84.3182 91.7548 84.3277 91.6339 84.3698C91.5131 84.412 91.4059 84.4853 91.3234 84.5823C89.8514 86.3103 88.6754 88.4303 86.9554 89.5983C84.0674 91.5423 79.9394 90.9344 76.6914 90.9904C76.1933 90.9967 75.7144 91.1842 75.3436 91.5182C74.9728 91.8522 74.7354 92.3099 74.6754 92.8063C74.0834 97.7823 68.3954 98.9183 64.2354 98.1663" stroke="#E09B7B" stroke-width="2"/>
<path d="M142.763 170.615C137.499 164.252 130.864 161.65 122.859 162.807C118.699 163.404 115.614 165.492 113.603 169.071" stroke="#BF5651" stroke-width="2"/>
<path d="M147.315 154.439C137.379 162.031 119.587 161.783 110.195 153.319" stroke="#D3A0A0" stroke-width="2"/>
<path d="M150.123 190.655C149.478 191.343 149.905 191.857 151.403 192.199" stroke="#D76755" stroke-width="2"/>
<path d="M151.403 192.198L151.411 192.646C151.417 192.929 151.281 193.102 151.003 193.166C143.587 194.798 138.147 196.998 129.403 197.198" stroke="#D18969" stroke-width="2"/>
<path d="M129.403 197.199C124.867 196.671 119.099 195.959 114.611 193.383C113.209 192.578 112.057 192.148 111.155 192.095C109.907 192.02 108.643 192.164 107.363 192.527" stroke="#DB9271" stroke-width="2"/>
<path d="M107.363 192.526C107.257 192.148 107.07 191.95 106.803 191.934" stroke="#C46A5A" stroke-width="2"/>
<path d="M129.403 197.198L129.603 208.934" stroke="#E59C77" stroke-width="2"/>
<path d="M188.835 204.767C172.387 220.239 145.107 226.159 123.427 224.447" stroke="#DC9793" stroke-width="2"/>
<path d="M102.58 192.687C104.604 198.855 107.868 204.823 113.1 208.687C125.468 217.815 144.068 214.895 151.084 200.439C152.036 198.487 152.228 195.735 153.372 193.463C153.516 193.169 153.425 193.001 153.1 192.959L152.732 192.911" stroke="#D4524D" stroke-width="2"/>
<path d="M152.731 192.91C152.785 192.809 152.814 192.705 152.819 192.598C152.83 192.342 152.71 192.214 152.459 192.214L151.403 192.198" stroke="#E1715C" stroke-width="2"/>
<path d="M107.363 192.527C108.603 203.775 119.187 209.703 129.603 208.935" stroke="#D87D68" stroke-width="2"/>
<path d="M129.603 208.935C141.715 208.959 147.851 202.863 152.731 192.911" stroke="#CE7460" stroke-width="2"/>
<path d="M72.7719 52.9744C83.0279 57.9424 107.196 45.5744 116.084 39.8144C119.444 37.6384 123.196 34.9344 124.148 31.1664C124.212 30.9104 124.183 30.6651 124.06 30.4304C122.668 27.6864 118.364 27.3184 115.66 27.6624C101.412 29.4464 86.1079 34.7664 75.0679 44.2384C73.0759 45.9504 68.6039 50.9504 72.7719 52.9744Z" stroke="#5C4545" stroke-width="2"/>
<path d="M74.3086 57.1852C74.105 56.2742 73.3002 55.5366 72.0712 55.1349C70.8423 54.7332 69.2899 54.7002 67.7556 55.0431C66.2213 55.3861 64.8307 56.0769 63.8898 56.9636C62.9488 57.8504 62.5346 58.8604 62.7382 59.7715C62.9419 60.6825 63.7467 61.42 64.9756 61.8217C66.2046 62.2235 67.757 62.2565 69.2913 61.9135C70.8256 61.5706 72.2162 60.8797 73.1571 59.993C74.0981 59.1063 74.5123 58.0963 74.3086 57.1852Z" stroke="#5C4545" stroke-width="2"/>
<path d="M79.5392 106.671C85.4112 105.695 91.3926 104.815 97.4832 104.031C99.3552 103.791 100.598 103.468 101.211 103.063C103.931 101.271 103.547 96.2068 100.739 94.7428C99.7152 94.2095 98.2805 94.1801 96.4352 94.6548C91.1072 96.0308 80.8752 99.9268 78.5152 105.359C78.4461 105.515 78.4207 105.687 78.4417 105.857C78.4627 106.026 78.5293 106.187 78.6344 106.321C78.7395 106.456 78.8792 106.56 79.0385 106.621C79.1978 106.683 79.3709 106.7 79.5392 106.671Z" stroke="#A6725D" stroke-width="2"/>
<path d="M79.875 131.111C84.059 145.287 102.107 147.207 106.787 132.551" stroke="#FCDAC9" stroke-width="2"/>
<path d="M106.787 132.551C109.347 124.687 105.011 114.647 96.2191 114.167C88.3204 113.73 82.2324 116.991 77.9551 123.951C77.8164 124.18 77.6111 124.29 77.3391 124.279C76.4378 124.252 75.8324 124.66 75.5231 125.503C75.4987 125.571 75.4893 125.643 75.4955 125.714C75.5018 125.786 75.5236 125.855 75.5593 125.918C75.5951 125.98 75.644 126.034 75.7027 126.076C75.7613 126.117 75.8284 126.146 75.8991 126.159L77.5631 126.479C77.7818 126.522 77.9071 126.655 77.9391 126.879L78.0191 127.487C78.0564 127.754 77.9444 127.919 77.6831 127.983C74.5391 128.719 78.6671 131.007 79.8751 131.111" stroke="#7D5C4A" stroke-width="2"/>
<path d="M106.787 132.551C107.059 129.49 106.321 126.687 104.571 124.143C104.52 124.066 104.444 124.008 104.357 123.978C104.269 123.948 104.174 123.947 104.086 123.976C103.998 124.005 103.922 124.062 103.869 124.139C103.817 124.215 103.791 124.306 103.795 124.399C103.963 129.759 105.379 134.423 99.3633 137.383" stroke="#807F7F" stroke-width="2"/>
<path d="M99.3634 137.383C102.505 134.476 103.585 131.143 102.603 127.383C102.502 127.004 102.379 126.999 102.235 127.367C100.851 130.983 98.8914 134.919 94.6594 133.903C87.9394 132.295 87.2514 124.215 90.9874 119.207C91.0652 119.101 91.114 118.977 91.1289 118.847C91.1439 118.717 91.1246 118.585 91.0728 118.464C91.0211 118.344 90.9387 118.239 90.8339 118.16C90.7291 118.081 90.6055 118.031 90.4754 118.015C89.4514 117.892 88.5368 118.119 87.7314 118.695" stroke="#402316" stroke-width="2"/>
<path d="M87.731 118.695C82.4937 121.175 79.875 125.313 79.875 131.111" stroke="#807F7F" stroke-width="2"/>
<path d="M99.3634 137.383C93.7634 141.263 86.7954 136.423 85.2274 130.559C84.1394 126.495 84.9741 122.54 87.7314 118.695" stroke="#BEA195" stroke-width="2"/>
<path d="M58.4758 127.111C55.9958 126.855 52.0278 126.335 50.2678 128.407C49.7664 129.004 49.8251 129.063 50.4438 128.583C52.8198 126.751 55.6598 127.375 58.4598 127.359C58.4928 127.359 58.5254 127.346 58.5502 127.322C58.5751 127.299 58.5903 127.268 58.5924 127.235C58.5945 127.202 58.5834 127.17 58.5615 127.147C58.5397 127.124 58.5088 127.111 58.4758 127.111Z" stroke="#E2A486" stroke-width="2"/>
<path d="M91.8235 149.775C91.8643 148.314 90.8747 146.884 89.0724 145.799C87.2702 144.715 84.8028 144.065 82.2132 143.993C79.6236 143.92 77.1238 144.432 75.2638 145.414C73.4038 146.396 72.336 147.769 72.2952 149.23C72.2544 150.691 73.2439 152.121 75.0462 153.206C76.8485 154.29 79.3158 154.94 81.9054 155.012C84.495 155.085 86.9948 154.574 88.8548 153.591C90.7148 152.609 91.7827 151.237 91.8235 149.775Z" stroke="#E78F7A" stroke-width="2"/>
<path d="M168.836 105.111C171.156 105.522 173.622 105.911 176.236 106.279C176.381 106.301 176.529 106.283 176.666 106.229C176.802 106.175 176.922 106.085 177.014 105.97C177.105 105.854 177.165 105.716 177.187 105.569C177.209 105.423 177.193 105.273 177.14 105.135C174.94 99.4709 163.404 95.2789 157.988 94.2229C153.276 93.2949 151.276 98.9429 153.636 101.687C156.004 104.431 165.212 104.471 168.836 105.111Z" stroke="#A46448" stroke-width="2"/>
<path d="M150.067 131.631C150.942 135.621 152.961 138.57 156.123 140.479C163.555 144.983 172.395 141.183 176.651 134.039" stroke="#EDC8B7" stroke-width="2"/>
<path d="M176.652 134.038C177.564 131.878 178.833 130.092 180.46 128.678C180.694 128.476 180.692 128.276 180.452 128.078L179.396 127.238C179.337 127.191 179.292 127.129 179.265 127.058C179.237 126.988 179.228 126.912 179.239 126.837C179.249 126.762 179.279 126.692 179.324 126.632C179.37 126.572 179.43 126.524 179.5 126.494L181.116 125.79C181.327 125.701 181.499 125.539 181.601 125.334C181.703 125.129 181.729 124.894 181.673 124.671C181.617 124.449 181.483 124.254 181.295 124.122C181.108 123.99 180.88 123.929 180.652 123.95L179.02 124.086C178.79 124.108 178.617 124.02 178.5 123.822C173.452 115.422 159.492 109.414 152.276 118.606C149.396 122.27 148.66 126.612 150.068 131.63" stroke="#6E4A38" stroke-width="2"/>
<path d="M176.651 134.038C177.958 127.462 175.737 122.694 169.987 119.734" stroke="#807F7F" stroke-width="2"/>
<path d="M169.987 119.735C169.075 119.095 167.944 118.642 166.595 118.375C166.222 118.3 166.123 118.431 166.299 118.767C168.619 123.343 170.043 129.151 165.491 132.439C163.72 133.719 161.84 134.09 159.851 133.551C155.899 132.479 155.627 129.623 154.691 126.103C154.606 125.794 154.502 125.788 154.379 126.087C154.107 126.748 153.648 127.052 153.003 126.999" stroke="#402316" stroke-width="2"/>
<path d="M153.003 126.999L153.139 123.559C153.137 123.518 153.121 123.478 153.094 123.447C153.066 123.416 153.029 123.395 152.989 123.388C152.948 123.381 152.906 123.387 152.87 123.407C152.833 123.426 152.804 123.457 152.787 123.495L150.067 131.631" stroke="#807F7F" stroke-width="2"/>
<path d="M169.987 119.734C173.326 124.673 173.467 129.486 170.411 134.174C164.723 142.91 150.947 138.702 153.003 126.998" stroke="#BEA195" stroke-width="2"/>
<path d="M199.276 127.823C203.7 126.983 205.86 126.719 208.924 130.431C208.949 130.455 208.981 130.468 209.016 130.47C209.05 130.472 209.084 130.461 209.111 130.439C209.139 130.418 209.157 130.388 209.164 130.354C209.17 130.32 209.165 130.285 209.148 130.255C206.673 126.927 203.366 126.063 199.228 127.663C198.646 127.887 198.662 127.94 199.276 127.823Z" stroke="#D18969" stroke-width="2"/>
<path d="M183.545 149.324C183.501 148.568 183.166 147.837 182.558 147.172C181.95 146.508 181.082 145.922 180.002 145.448C178.923 144.975 177.654 144.623 176.267 144.413C174.88 144.203 173.403 144.139 171.92 144.224C170.437 144.31 168.977 144.543 167.623 144.911C166.27 145.279 165.049 145.775 164.031 146.369C163.013 146.963 162.218 147.645 161.691 148.376C161.163 149.106 160.914 149.871 160.958 150.626C161.002 151.381 161.337 152.112 161.945 152.777C162.552 153.442 163.421 154.028 164.5 154.501C165.58 154.975 166.849 155.327 168.236 155.537C169.623 155.747 171.1 155.811 172.583 155.725C174.066 155.64 175.526 155.406 176.879 155.038C178.233 154.67 179.453 154.175 180.471 153.581C181.489 152.986 182.285 152.304 182.812 151.574C183.339 150.843 183.588 150.079 183.545 149.324Z" stroke="#D87D68" stroke-width="2"/>
<path d="M102.579 120.919C102.579 120.176 102.284 119.464 101.759 118.939C101.234 118.414 100.522 118.119 99.7795 118.119C99.0369 118.119 98.3247 118.414 97.7996 118.939C97.2745 119.464 96.9795 120.176 96.9795 120.919C96.9795 121.661 97.2745 122.374 97.7996 122.899C98.3247 123.424 99.0369 123.719 99.7795 123.719C100.522 123.719 101.234 123.424 101.759 122.899C102.284 122.374 102.579 121.661 102.579 120.919Z" stroke="#807F7F" stroke-width="2"/>
<path d="M159.475 118.77C159.038 118.273 158.388 118 157.666 118.01C156.945 118.021 156.212 118.315 155.628 118.828C155.045 119.34 154.659 120.029 154.555 120.743C154.452 121.457 154.639 122.138 155.076 122.635C155.513 123.133 156.164 123.406 156.885 123.395C157.606 123.384 158.339 123.09 158.923 122.578C159.506 122.065 159.892 121.376 159.996 120.662C160.099 119.948 159.912 119.268 159.475 118.77Z" stroke="#807F7F" stroke-width="2"/>
<path d="M169.427 30.0148C168.747 30.1827 168.475 30.1747 168.083 30.7987C158.211 46.6547 141.963 57.0148 124.371 62.5668C122.057 63.1374 118.201 63.8761 112.803 64.7828C109.107 65.4014 101.307 67.0601 89.4032 69.7587C83.1472 71.1747 81.1552 73.3988 76.7552 77.7188C76.5579 77.9108 76.3205 78.0281 76.0432 78.0708C72.5765 78.5988 70.2965 79.0361 69.2032 79.3828C65.6592 80.5188 65.8112 83.9827 65.0592 86.8947C65.0279 87.0107 64.9654 87.1164 64.8782 87.2008C64.791 87.2852 64.6822 87.3453 64.5632 87.3748C59.8645 88.5428 57.5045 91.3881 57.4832 95.9108C57.4752 98.0468 58.4912 100.655 58.8672 103.063C58.9088 103.322 58.8668 103.589 58.7472 103.823C57.7952 105.719 55.5232 109.047 56.1712 110.983C57.2112 114.135 57.8912 117.359 58.2112 120.655C58.2379 120.932 58.1179 121.116 57.8512 121.207L56.9392 121.511C51.5952 118.439 46.1392 121.879 43.5712 126.791C36.0512 124.343 35.9152 120.631 40.6032 114.903C40.6936 114.793 40.7596 114.664 40.7967 114.527C40.8339 114.389 40.8413 114.246 40.8186 114.106C40.7959 113.965 40.7435 113.832 40.6649 113.714C40.5864 113.596 40.4835 113.497 40.3632 113.423C34.9392 110.063 36.2672 105.311 40.6032 101.895C40.8379 101.713 40.8592 101.505 40.6672 101.271C37.0592 96.8388 34.8912 92.5027 40.6512 88.7987C40.8699 88.6547 40.9019 88.4814 40.7472 88.2788C36.1552 82.1748 36.5072 80.5828 42.2032 75.8868C42.4325 75.7001 42.4779 75.4734 42.3392 75.2067C40.0112 70.8227 41.9632 66.7107 46.9152 66.2067C47.1499 66.1854 47.2139 66.0681 47.1072 65.8547C43.1872 58.0547 49.5952 54.3747 56.2752 54.5587C56.3898 54.5623 56.5035 54.5376 56.6062 54.4866C56.709 54.4357 56.7975 54.3601 56.864 54.2667C56.9305 54.1733 56.9729 54.0649 56.9874 53.9512C57.0019 53.8374 56.9881 53.7219 56.9472 53.6147C53.3872 44.1507 61.3152 40.2147 69.2592 41.9107C69.6485 41.9961 69.8352 41.8388 69.8192 41.4388C69.7872 40.5534 69.7392 39.6894 69.6752 38.8467C69.1232 31.1987 76.3792 29.7108 82.1552 31.9348C82.2096 31.9557 82.268 31.9645 82.3262 31.9605C82.3844 31.9564 82.441 31.9398 82.4921 31.9116C82.5432 31.8834 82.5875 31.8443 82.6219 31.7972C82.6562 31.75 82.6799 31.696 82.6912 31.6388C83.8592 25.8228 87.9632 23.3028 93.4032 26.8147C93.6699 26.9908 93.8779 26.9374 94.0272 26.6547C96.0032 22.8867 98.6432 20.4228 103.011 23.4388C103.267 23.6148 103.499 23.5881 103.707 23.3587C104.299 22.7027 104.571 21.7988 105.219 21.2388C108.025 18.8068 110.694 18.9801 113.227 21.7587C113.446 21.9934 113.67 21.9988 113.899 21.7748C115.115 20.5668 115.987 18.9908 117.611 18.4788C120.161 17.6734 122.233 18.4307 123.827 20.7507C123.862 20.8015 123.908 20.8437 123.962 20.8741C124.016 20.9045 124.076 20.9223 124.137 20.9261C124.199 20.93 124.261 20.9198 124.318 20.8963C124.375 20.8729 124.426 20.8368 124.467 20.7908C127.483 17.4788 130.971 15.8548 134.091 20.3908C134.267 20.6468 134.478 20.6841 134.723 20.5027C135.065 20.2467 135.358 19.9428 135.603 19.5908C135.761 19.3592 135.972 19.165 136.219 19.0228C139.617 17.0228 142.331 17.7214 144.363 21.1188C144.406 21.1905 144.465 21.2517 144.535 21.2979C144.604 21.3441 144.684 21.374 144.766 21.3855C144.849 21.397 144.934 21.3898 145.013 21.3644C145.093 21.339 145.166 21.2961 145.227 21.2388C149.147 17.4948 153.275 19.2707 155.603 23.4947C155.666 23.6084 155.764 23.6986 155.882 23.752C156 23.8054 156.133 23.819 156.259 23.7908C157.483 23.5188 158.531 22.7267 159.699 22.6547C164.67 22.3401 167.638 24.6441 168.603 29.5668C168.667 29.9081 168.942 30.0574 169.427 30.0148ZM72.7712 52.9748C83.0272 57.9428 107.195 45.5747 116.083 39.8147C119.443 37.6388 123.195 34.9348 124.147 31.1668C124.211 30.9108 124.182 30.6654 124.059 30.4308C122.667 27.6868 118.363 27.3187 115.659 27.6627C101.411 29.4467 86.1072 34.7668 75.0672 44.2388C73.0752 45.9508 68.6032 50.9508 72.7712 52.9748ZM74.3084 57.1856C74.1047 56.2746 73.2999 55.537 72.071 55.1353C70.8421 54.7336 69.2897 54.7006 67.7553 55.0436C66.221 55.3865 64.8305 56.0773 63.8895 56.9641C62.9486 57.8508 62.5344 58.8608 62.738 59.7719C62.9416 60.6829 63.7464 61.4205 64.9754 61.8222C66.2043 62.2239 67.7567 62.2569 69.291 61.914C70.8253 61.571 72.2159 60.8801 73.1569 59.9934C74.0978 59.1067 74.512 58.0967 74.3084 57.1856Z" fill="#4D383B"/>
<path d="M72.7719 52.9744C68.6039 50.9504 73.0759 45.9504 75.0679 44.2384C86.1079 34.7664 101.412 29.4464 115.66 27.6624C118.364 27.3184 122.668 27.6864 124.06 30.4304C124.183 30.6651 124.212 30.9104 124.148 31.1664C123.196 34.9344 119.444 37.6384 116.084 39.8144C107.196 45.5744 83.0279 57.9424 72.7719 52.9744Z" fill="#6A514E"/>
<path d="M200.371 53.5268C198.062 56.5455 196.259 58.4735 194.963 59.3108C181.195 68.1668 169.035 66.2708 153.995 62.8548C148.931 61.7108 145.563 62.0228 141.179 64.1348C135.875 66.6868 130.259 66.4548 124.747 64.5908C124.496 64.5055 124.411 64.3375 124.491 64.0868C124.662 63.5268 124.622 63.0201 124.371 62.5668C141.963 57.0148 158.211 46.6548 168.083 30.7988C168.475 30.1748 168.747 30.1828 169.427 30.0148C174.491 29.5428 178.635 28.7268 179.715 35.0228C179.763 35.3002 179.923 35.3961 180.195 35.3108C185.203 33.7348 189.435 35.0228 189.475 41.0788C189.477 41.2981 189.566 41.5077 189.722 41.662C189.877 41.8163 190.088 41.9028 190.307 41.9028C198.291 41.9561 201.646 45.8308 200.371 53.5268Z" fill="#382126"/>
<path d="M200.372 53.5266C201.689 53.9479 202.972 54.3612 204.22 54.7665C209.188 56.3745 211.292 60.5105 209.388 65.6225C209.367 65.6757 209.358 65.7328 209.362 65.7899C209.365 65.847 209.381 65.9027 209.409 65.9535C209.436 66.0043 209.474 66.0489 209.52 66.0842C209.566 66.1196 209.619 66.1449 209.676 66.1585C214.534 67.3372 216.142 70.4626 214.5 75.5346C214.46 75.6604 214.46 75.7951 214.5 75.9199C214.541 76.0447 214.619 76.1534 214.724 76.2306C219.257 79.6279 219.668 83.5745 215.956 88.0705C215.801 88.2625 215.809 88.4492 215.98 88.6306C219.809 92.6946 219.801 96.8545 215.956 101.111C215.811 101.273 215.735 101.485 215.742 101.703C215.75 101.92 215.84 102.126 215.996 102.279C220.028 106.231 219.972 110.14 215.828 114.007C215.736 114.092 215.663 114.195 215.612 114.31C215.561 114.424 215.533 114.548 215.531 114.673C215.529 114.799 215.552 114.923 215.599 115.04C215.645 115.156 215.715 115.262 215.804 115.351C219.076 118.631 219.772 124.447 214.412 126.215L214.084 126.159C213.956 126.138 213.834 126.091 213.728 126.019C213.621 125.947 213.532 125.852 213.468 125.743C211.302 122.169 208.086 120.524 203.82 120.807C200.036 121.063 199.012 124.039 197.708 127.383C197.548 127.793 197.457 127.78 197.436 127.343C197.1 120.025 196.342 112.769 195.164 105.575C194.588 101.639 193.521 97.8412 191.964 94.1826C191.913 94.068 191.826 93.9732 191.716 93.9126C191.606 93.8519 191.48 93.8287 191.356 93.8465C182.644 95.1265 182.3 92.1665 180.924 84.6705C180.905 84.579 180.86 84.4949 180.794 84.429C180.728 84.3632 180.643 84.3184 180.552 84.3004C180.46 84.2824 180.365 84.292 180.279 84.328C180.193 84.364 180.119 84.4247 180.068 84.5025C178.876 86.3265 177.036 87.2465 174.844 87.2065C169.268 87.0945 168.972 80.8305 168.116 76.6465C168.102 76.5766 168.067 76.5125 168.016 76.4626C167.965 76.4128 167.9 76.3797 167.83 76.3675C167.76 76.3554 167.688 76.3648 167.623 76.3947C167.558 76.4245 167.504 76.4733 167.468 76.5346C163.46 83.1346 156.9 82.5666 154.084 75.2786C153.956 74.9479 153.796 74.9319 153.604 75.2306C149.42 81.7026 142.724 78.3585 140.268 72.6625C140.234 72.5812 140.178 72.5114 140.105 72.4615C140.033 72.4115 139.947 72.3836 139.859 72.381C139.771 72.3785 139.685 72.4015 139.609 72.4472C139.534 72.4928 139.474 72.5593 139.436 72.6386C137.924 75.6946 133.964 77.5905 130.748 75.9745C128.612 74.8945 126.9 71.5266 125.692 69.2386C125.643 69.1445 125.57 69.0656 125.479 69.0106C125.389 68.9555 125.285 68.9264 125.18 68.9264C125.074 68.9264 124.97 68.9555 124.88 69.0106C124.789 69.0656 124.716 69.1445 124.668 69.2386C122.42 73.4866 121.084 79.1186 115.108 79.0786C111.388 79.0546 108.892 75.9265 107.668 72.7025C107.641 72.6303 107.593 72.5682 107.531 72.5242C107.468 72.4801 107.393 72.456 107.315 72.4552C107.238 72.4543 107.161 72.4767 107.096 72.5193C107.03 72.562 106.979 72.623 106.948 72.6945C104.932 77.5505 102.444 85.7665 95.3556 81.0625C93.8756 80.0785 92.8836 78.0065 91.6516 76.5266C91.6139 76.4801 91.564 76.4451 91.5075 76.4256C91.4509 76.4061 91.3901 76.4028 91.3317 76.4161C91.2734 76.4294 91.22 76.4589 91.1776 76.501C91.1351 76.5432 91.1054 76.5963 91.0916 76.6545C90.4196 79.3105 89.9636 82.4225 88.5876 84.5185C86.3316 87.9665 81.3156 89.4225 78.0676 86.0465C77.2783 85.2252 76.4996 84.3932 75.7316 83.5505C75.6249 83.4279 75.4889 83.3719 75.3236 83.3826C75.2169 83.3932 75.1049 83.3345 74.9876 83.2065C74.9187 83.1301 74.8275 83.0774 74.7268 83.056C74.6262 83.0345 74.5214 83.0454 74.4273 83.0871C74.3333 83.1289 74.2548 83.1992 74.2031 83.2882C74.1514 83.3771 74.1292 83.4802 74.1396 83.5826C74.7316 89.5106 73.3236 96.9505 65.2836 95.6465C65.001 95.6039 64.7769 95.6972 64.6116 95.9266C64.1369 96.5826 64.0116 97.3292 64.2356 98.1665C62.3583 107.671 61.3769 117.441 61.2916 127.479C61.2809 128.881 61.0623 128.916 60.6356 127.583C60.0169 125.631 58.7849 123.607 56.9396 121.511L57.8516 121.207C58.1183 121.116 58.2383 120.932 58.2116 120.655C57.8916 117.359 57.2116 114.135 56.1716 110.983C55.5236 109.047 57.7956 105.719 58.7476 103.823C58.8672 103.588 58.9092 103.322 58.8676 103.063C58.4916 100.655 57.4756 98.0465 57.4836 95.9105C57.5049 91.3879 59.8649 88.5425 64.5636 87.3745C64.6826 87.3451 64.7914 87.285 64.8786 87.2006C64.9658 87.1162 65.0283 87.0105 65.0596 86.8945C65.8116 83.9825 65.6596 80.5186 69.2036 79.3826C70.2969 79.0359 72.5769 78.5985 76.0436 78.0705C76.3209 78.0279 76.5583 77.9105 76.7556 77.7185C81.1556 73.3985 83.1476 71.1745 89.4036 69.7585C101.308 67.0599 109.108 65.4012 112.804 64.7826C118.201 63.8759 122.057 63.1372 124.372 62.5665C124.622 63.0199 124.662 63.5266 124.492 64.0866C124.412 64.3372 124.497 64.5052 124.748 64.5906C130.26 66.4546 135.876 66.6866 141.18 64.1346C145.564 62.0226 148.932 61.7105 153.996 62.8545C169.036 66.2705 181.196 68.1665 194.964 59.3105C196.26 58.4732 198.062 56.5452 200.372 53.5266Z" fill="#2F1C24"/>
<path d="M69.2912 61.914C72.4863 61.1998 74.7326 59.0829 74.3085 57.1857C73.8845 55.2884 70.9505 54.3294 67.7554 55.0436C64.5604 55.7578 62.314 57.8747 62.7381 59.772C63.1622 61.6692 66.0961 62.6282 69.2912 61.914Z" fill="#6A514E"/>
<path d="M195.164 105.575L194.044 105.559C193.83 105.553 193.694 105.449 193.636 105.247L191.748 98.5427C191.688 98.3321 191.562 98.1463 191.387 98.0124C191.213 97.8785 191 97.8036 190.78 97.7987C187.596 97.7427 184.604 97.0307 182.084 95.1907C177.132 91.5827 172.452 91.7427 168.116 86.6067C167.943 86.3974 167.713 86.2394 167.452 86.1507C164.252 85.0707 160.948 84.5907 157.7 83.5427C154.446 82.5027 151.108 81.9427 147.684 81.8627C144.9 81.7987 141.788 78.6707 139.796 79.1427C136.436 79.9427 132.705 79.9267 128.604 79.0947L125.46 76.9027C125.389 76.8538 125.309 76.8197 125.224 76.8024C125.14 76.7852 125.053 76.7851 124.969 76.8023C124.884 76.8195 124.804 76.8535 124.733 76.9024C124.662 76.9513 124.602 77.014 124.556 77.0867C120.676 83.1027 114.668 82.5747 108.996 79.8147C108.807 79.7207 108.59 79.7014 108.387 79.7607C108.184 79.82 108.01 79.9534 107.9 80.1347C103.836 86.8147 98.6677 85.6867 92.0117 84.3427C91.8853 84.3185 91.7551 84.3281 91.6342 84.3702C91.5134 84.4124 91.4062 84.4857 91.3237 84.5827C89.8517 86.3107 88.6757 88.4307 86.9557 89.5987C84.0677 91.5427 79.9397 90.9347 76.6917 90.9907C76.1936 90.997 75.7147 91.1846 75.3439 91.5186C74.9731 91.8526 74.7357 92.3103 74.6757 92.8067C74.0837 97.7827 68.3957 98.9187 64.2357 98.1667C64.0117 97.3294 64.137 96.5827 64.6117 95.9267C64.777 95.6974 65.001 95.604 65.2837 95.6467C73.3237 96.9507 74.7317 89.5107 74.1397 83.5827C74.1293 83.4804 74.1515 83.3773 74.2032 83.2883C74.2548 83.1994 74.3333 83.129 74.4274 83.0873C74.5214 83.0456 74.6262 83.0347 74.7269 83.0562C74.8275 83.0776 74.9188 83.1303 74.9877 83.2067C75.105 83.3347 75.217 83.3934 75.3237 83.3827C75.489 83.3721 75.625 83.428 75.7317 83.5507C76.4997 84.3934 77.2783 85.2254 78.0677 86.0467C81.3157 89.4227 86.3317 87.9667 88.5877 84.5187C89.9637 82.4227 90.4197 79.3107 91.0917 76.6547C91.1054 76.5965 91.1352 76.5433 91.1776 76.5012C91.2201 76.459 91.2735 76.4296 91.3318 76.4163C91.3901 76.4029 91.451 76.4062 91.5075 76.4257C91.5641 76.4453 91.614 76.4803 91.6517 76.5267C92.8837 78.0067 93.8757 80.0787 95.3557 81.0627C102.444 85.7667 104.932 77.5507 106.948 72.6947C106.979 72.6232 107.03 72.5622 107.096 72.5195C107.162 72.4768 107.238 72.4545 107.315 72.4553C107.393 72.4562 107.468 72.4802 107.531 72.5243C107.593 72.5684 107.641 72.6305 107.668 72.7027C108.892 75.9267 111.388 79.0547 115.108 79.0787C121.084 79.1187 122.42 73.4867 124.668 69.2387C124.716 69.1447 124.79 69.0658 124.88 69.0108C124.97 68.9557 125.074 68.9266 125.18 68.9266C125.285 68.9266 125.389 68.9557 125.479 69.0108C125.57 69.0658 125.643 69.1447 125.692 69.2387C126.9 71.5267 128.612 74.8947 130.748 75.9747C133.964 77.5907 137.924 75.6947 139.436 72.6387C139.474 72.5595 139.534 72.493 139.609 72.4473C139.685 72.4016 139.771 72.3787 139.859 72.3812C139.947 72.3838 140.033 72.4117 140.105 72.4616C140.178 72.5116 140.234 72.5814 140.268 72.6627C142.724 78.3587 149.42 81.7027 153.604 75.2307C153.796 74.9321 153.956 74.9481 154.084 75.2787C156.9 82.5667 163.46 83.1347 167.468 76.5347C167.504 76.4735 167.558 76.4247 167.623 76.3948C167.688 76.365 167.76 76.3555 167.83 76.3677C167.9 76.3798 167.965 76.413 168.016 76.4628C168.067 76.5126 168.102 76.5768 168.116 76.6467C168.972 80.8307 169.268 87.0947 174.844 87.2067C177.036 87.2467 178.876 86.3267 180.068 84.5027C180.119 84.4249 180.193 84.3642 180.279 84.3282C180.365 84.2922 180.46 84.2826 180.552 84.3005C180.643 84.3185 180.728 84.3633 180.794 84.4292C180.86 84.4951 180.905 84.5792 180.924 84.6707C182.3 92.1667 182.644 95.1267 191.356 93.8467C191.48 93.8289 191.606 93.8521 191.716 93.9128C191.826 93.9734 191.913 94.0682 191.964 94.1827C193.521 97.8414 194.588 101.639 195.164 105.575Z" fill="#C77F62"/>
<path d="M128.604 79.0943L128.236 135.75C128.236 136.028 128.34 136.257 128.548 136.438C130.236 137.902 136.724 141.454 134.364 143.934C131.804 146.633 128.83 146.942 125.444 144.862C124.761 144.446 124.372 143.924 124.276 143.294C124.257 143.171 124.196 143.059 124.102 142.977C124.009 142.895 123.89 142.848 123.766 142.845C123.641 142.842 123.52 142.883 123.423 142.961C123.326 143.039 123.26 143.148 123.236 143.27C122.718 145.996 123.732 147.83 126.276 148.774C126.383 148.815 126.48 148.878 126.561 148.959C126.641 149.041 126.702 149.139 126.74 149.246L128.604 154.734L110.196 153.318C109.374 153.265 108.649 153.449 108.02 153.87C107.796 154.02 107.652 154.222 107.588 154.478C106.42 159.118 110.652 166.046 113.604 169.07C118.222 173.705 123.5 176.06 129.436 176.134L129.356 190.63L117.108 189.55C93.9395 183.886 75.3155 172.526 65.3635 150.094C65.2515 149.844 65.0569 149.745 64.7795 149.798C57.7955 151.222 51.5395 151.438 46.5955 145.79C41.7528 140.26 40.7448 133.926 43.5715 126.79C46.1395 121.878 51.5955 118.438 56.9395 121.51C58.7848 123.606 60.0168 125.63 60.6355 127.582C61.0622 128.916 61.2808 128.881 61.2915 127.478C61.3769 117.441 62.3582 107.67 64.2355 98.1663C68.3955 98.9183 74.0835 97.7823 74.6755 92.8063C74.7355 92.3099 74.973 91.8522 75.3438 91.5182C75.7146 91.1842 76.1935 90.9967 76.6915 90.9904C79.9395 90.9344 84.0675 91.5423 86.9555 89.5983C88.6755 88.4303 89.8515 86.3103 91.3235 84.5823C91.4061 84.4853 91.5132 84.412 91.6341 84.3698C91.755 84.3277 91.8852 84.3182 92.0115 84.3423C98.6675 85.6863 103.836 86.8143 107.9 80.1343C108.01 79.9531 108.184 79.8196 108.387 79.7603C108.59 79.7011 108.807 79.7203 108.996 79.8143C114.668 82.5743 120.676 83.1023 124.556 77.0863C124.602 77.0136 124.662 76.9509 124.733 76.902C124.804 76.8532 124.884 76.8191 124.968 76.8019C125.053 76.7847 125.14 76.7848 125.224 76.802C125.309 76.8193 125.389 76.8534 125.46 76.9023L128.604 79.0943ZM79.5395 106.67C85.4115 105.694 91.3929 104.814 97.4835 104.03C99.3555 103.79 100.598 103.468 101.212 103.062C103.932 101.27 103.548 96.2063 100.74 94.7423C99.7155 94.209 98.2808 94.1797 96.4355 94.6543C91.1075 96.0303 80.8755 99.9263 78.5155 105.358C78.4464 105.515 78.421 105.687 78.442 105.856C78.463 106.026 78.5296 106.186 78.6347 106.321C78.7398 106.456 78.8795 106.559 79.0388 106.621C79.1982 106.682 79.3712 106.699 79.5395 106.67ZM79.8755 131.11C84.0595 145.286 102.108 147.206 106.788 132.55C109.348 124.686 105.012 114.646 96.2195 114.166C88.3209 113.729 82.2329 116.99 77.9555 123.95C77.8169 124.18 77.6115 124.289 77.3395 124.278C76.4382 124.252 75.8328 124.66 75.5235 125.502C75.4991 125.57 75.4897 125.642 75.496 125.714C75.5022 125.785 75.524 125.855 75.5598 125.917C75.5955 125.98 75.6444 126.034 75.7031 126.075C75.7618 126.117 75.8288 126.145 75.8995 126.158L77.5635 126.478C77.7822 126.521 77.9075 126.654 77.9395 126.878L78.0195 127.486C78.0569 127.753 77.9449 127.918 77.6835 127.982C74.5395 128.718 78.6675 131.006 79.8755 131.11ZM58.4755 127.11C55.9955 126.854 52.0275 126.334 50.2675 128.406C49.7662 129.004 49.8249 129.062 50.4435 128.582C52.8195 126.75 55.6595 127.374 58.4595 127.358C58.4926 127.358 58.5251 127.345 58.55 127.322C58.5749 127.299 58.59 127.267 58.5922 127.234C58.5943 127.201 58.5832 127.17 58.5613 127.147C58.5394 127.123 58.5086 127.11 58.4755 127.11ZM91.8237 149.775C91.8645 148.314 90.8749 146.884 89.0726 145.799C87.2704 144.715 84.803 144.065 82.2134 143.993C79.6238 143.92 77.124 144.431 75.264 145.413C73.404 146.396 72.3362 147.768 72.2954 149.23C72.2546 150.691 73.2441 152.121 75.0464 153.206C76.8487 154.29 79.316 154.94 81.9056 155.012C84.4952 155.085 86.995 154.573 88.855 153.591C90.715 152.609 91.7829 151.236 91.8237 149.775Z" fill="#F9B694"/>
<path d="M128.604 79.095C132.705 79.927 136.436 79.943 139.796 79.143C141.788 78.671 144.9 81.799 147.684 81.863C151.108 81.943 154.446 82.503 157.7 83.543C160.948 84.591 164.252 85.071 167.452 86.151C167.713 86.2398 167.943 86.3977 168.116 86.607C172.452 91.743 177.132 91.5831 182.084 95.1911C184.604 97.0311 187.596 97.743 190.78 97.799C191 97.8039 191.213 97.8789 191.387 98.0128C191.561 98.1467 191.688 98.3325 191.748 98.543L193.636 105.247C193.694 105.45 193.83 105.554 194.044 105.559L195.164 105.575C196.342 112.77 197.1 120.026 197.436 127.343C197.457 127.78 197.548 127.794 197.708 127.383C199.012 124.039 200.036 121.063 203.82 120.807C208.086 120.524 211.302 122.17 213.468 125.743C213.532 125.853 213.621 125.947 213.728 126.019C213.834 126.091 213.956 126.139 214.084 126.159L214.412 126.215C213.985 126.38 213.852 126.634 214.012 126.975C218.852 137.447 212.74 150.647 200.556 150.991C198.62 151.047 196.228 150.495 194.1 150.159C193.812 150.111 193.606 150.22 193.484 150.487C183.82 172.127 166.596 183.071 144.1 188.735C139.161 189.764 134.246 190.396 129.356 190.631L129.436 176.135C134.572 175.708 139.014 173.868 142.764 170.615C146.785 166.631 149.068 161.708 149.612 155.847C149.648 155.462 149.548 155.076 149.328 154.758C149.108 154.44 148.784 154.211 148.412 154.111C148.006 153.999 147.641 154.108 147.316 154.439C146.684 153.727 131.996 154.751 128.604 154.735L126.74 149.247C126.702 149.14 126.641 149.041 126.561 148.96C126.481 148.878 126.383 148.815 126.276 148.775C123.732 147.831 122.718 145.996 123.236 143.271C123.26 143.149 123.326 143.04 123.423 142.962C123.52 142.884 123.641 142.843 123.766 142.846C123.89 142.849 124.009 142.895 124.103 142.978C124.196 143.06 124.257 143.172 124.276 143.295C124.372 143.924 124.761 144.447 125.444 144.863C128.83 146.943 131.804 146.634 134.364 143.935C136.724 141.455 130.236 137.903 128.548 136.439C128.34 136.258 128.236 136.028 128.236 135.751L128.604 79.095ZM168.836 105.111C171.156 105.522 173.622 105.911 176.236 106.279C176.381 106.301 176.529 106.284 176.666 106.229C176.802 106.175 176.922 106.086 177.014 105.97C177.105 105.854 177.165 105.716 177.187 105.57C177.209 105.423 177.193 105.273 177.14 105.135C174.94 99.4711 163.404 95.2791 157.988 94.2231C153.276 93.2951 151.276 98.9431 153.636 101.687C156.004 104.431 165.212 104.471 168.836 105.111ZM150.068 131.631C150.942 135.62 152.961 138.57 156.124 140.479C163.556 144.983 172.396 141.183 176.652 134.039C177.564 131.879 178.833 130.092 180.46 128.679C180.694 128.476 180.692 128.276 180.452 128.079L179.396 127.239C179.337 127.191 179.292 127.129 179.265 127.059C179.237 126.989 179.228 126.913 179.239 126.838C179.249 126.763 179.279 126.692 179.324 126.632C179.37 126.572 179.43 126.525 179.5 126.495L181.116 125.791C181.327 125.702 181.499 125.54 181.601 125.335C181.703 125.129 181.729 124.894 181.673 124.672C181.617 124.45 181.483 124.255 181.296 124.123C181.108 123.99 180.88 123.929 180.652 123.951L179.02 124.087C178.79 124.108 178.617 124.02 178.5 123.823C173.452 115.423 159.492 109.415 152.276 118.607C149.396 122.271 148.66 126.612 150.068 131.631ZM199.276 127.823C203.7 126.983 205.86 126.719 208.924 130.431C208.949 130.455 208.981 130.469 209.016 130.47C209.05 130.472 209.084 130.461 209.112 130.44C209.139 130.418 209.157 130.388 209.164 130.354C209.171 130.32 209.165 130.285 209.148 130.255C206.673 126.927 203.366 126.063 199.228 127.663C198.646 127.887 198.662 127.94 199.276 127.823ZM183.545 149.324C183.501 148.569 183.166 147.838 182.558 147.173C181.951 146.508 181.082 145.922 180.003 145.448C178.923 144.975 177.654 144.623 176.267 144.413C174.88 144.203 173.403 144.139 171.92 144.225C170.437 144.31 168.977 144.543 167.624 144.911C166.27 145.279 165.049 145.775 164.032 146.369C163.014 146.964 162.218 147.646 161.691 148.376C161.164 149.106 160.915 149.871 160.958 150.626C161.002 151.381 161.337 152.112 161.945 152.777C162.553 153.442 163.421 154.028 164.501 154.502C165.58 154.975 166.849 155.327 168.236 155.537C169.623 155.747 171.1 155.811 172.583 155.726C174.066 155.64 175.526 155.407 176.88 155.039C178.233 154.671 179.454 154.175 180.472 153.581C181.49 152.986 182.285 152.304 182.812 151.574C183.339 150.844 183.588 150.079 183.545 149.324Z" fill="#DB926F"/>
<path d="M79.5392 106.671C79.3709 106.7 79.1978 106.683 79.0385 106.621C78.8792 106.56 78.7395 106.456 78.6344 106.321C78.5293 106.187 78.4627 106.026 78.4417 105.857C78.4207 105.687 78.4461 105.515 78.5152 105.359C80.8752 99.9268 91.1072 96.0308 96.4352 94.6548C98.2805 94.1801 99.7152 94.2095 100.739 94.7428C103.547 96.2068 103.931 101.271 101.211 103.063C100.598 103.468 99.3552 103.791 97.4832 104.031C91.3926 104.815 85.4112 105.695 79.5392 106.671Z" fill="#532E25"/>
<path d="M168.836 105.111C165.212 104.471 156.004 104.431 153.636 101.687C151.276 98.9429 153.276 93.2949 157.988 94.2229C163.404 95.2789 174.94 99.4709 177.14 105.135C177.193 105.273 177.209 105.423 177.187 105.569C177.165 105.716 177.105 105.854 177.014 105.97C176.922 106.085 176.802 106.175 176.666 106.229C176.529 106.283 176.381 106.301 176.236 106.279C173.622 105.911 171.156 105.522 168.836 105.111Z" fill="#6D3521"/>
<path d="M106.787 132.551C107.059 129.49 106.32 126.687 104.571 124.143C104.52 124.066 104.444 124.008 104.357 123.978C104.269 123.947 104.174 123.947 104.086 123.976C103.998 124.005 103.922 124.062 103.869 124.138C103.817 124.215 103.791 124.306 103.795 124.399C103.963 129.759 105.379 134.423 99.3631 137.383C102.504 134.476 103.584 131.143 102.603 127.383C102.502 127.004 102.379 126.999 102.235 127.367C100.851 130.983 98.8911 134.919 94.6591 133.903C87.9391 132.295 87.2511 124.215 90.9871 119.207C91.0648 119.101 91.1136 118.977 91.1286 118.847C91.1436 118.717 91.1242 118.585 91.0725 118.464C91.0207 118.344 90.9384 118.239 90.8336 118.16C90.7288 118.081 90.6052 118.031 90.4751 118.015C89.4511 117.892 88.5364 118.119 87.7311 118.695C82.4938 121.175 79.8751 125.314 79.8751 131.111C78.6671 131.007 74.5391 128.719 77.6831 127.983C77.9444 127.919 78.0564 127.754 78.0191 127.487L77.9391 126.879C77.9071 126.655 77.7818 126.522 77.5631 126.479L75.8991 126.159C75.8284 126.146 75.7613 126.117 75.7027 126.076C75.644 126.034 75.5951 125.98 75.5593 125.918C75.5236 125.855 75.5018 125.786 75.4955 125.714C75.4893 125.643 75.4987 125.571 75.5231 125.503C75.8324 124.66 76.4378 124.252 77.3391 124.279C77.6111 124.29 77.8164 124.18 77.9551 123.951C82.2324 116.991 88.3204 113.73 96.2191 114.167C105.011 114.647 109.347 124.687 106.787 132.551ZM102.579 120.919C102.579 120.176 102.284 119.464 101.759 118.939C101.234 118.414 100.522 118.119 99.7791 118.119C99.0365 118.119 98.3243 118.414 97.7992 118.939C97.2741 119.464 96.9791 120.176 96.9791 120.919C96.9791 121.662 97.2741 122.374 97.7992 122.899C98.3243 123.424 99.0365 123.719 99.7791 123.719C100.522 123.719 101.234 123.424 101.759 122.899C102.284 122.374 102.579 121.662 102.579 120.919Z" fill="#010100"/>
<path d="M176.652 134.038C177.958 127.462 175.737 122.694 169.988 119.734C169.076 119.094 167.945 118.641 166.596 118.374C166.222 118.3 166.124 118.43 166.3 118.766C168.62 123.342 170.044 129.15 165.492 132.438C163.721 133.718 161.841 134.089 159.852 133.55C155.9 132.478 155.628 129.622 154.692 126.102C154.606 125.793 154.502 125.788 154.38 126.086C154.108 126.748 153.649 127.052 153.004 126.998L153.14 123.558C153.137 123.517 153.121 123.478 153.094 123.447C153.066 123.416 153.029 123.395 152.989 123.388C152.948 123.38 152.906 123.387 152.87 123.406C152.833 123.426 152.804 123.457 152.788 123.494L150.068 131.63C148.66 126.612 149.396 122.27 152.276 118.606C159.492 109.414 173.452 115.422 178.5 123.822C178.617 124.02 178.79 124.108 179.02 124.086L180.652 123.95C180.88 123.929 181.108 123.99 181.295 124.122C181.483 124.254 181.617 124.449 181.673 124.671C181.729 124.894 181.703 125.129 181.601 125.334C181.499 125.539 181.327 125.701 181.116 125.79L179.5 126.494C179.43 126.524 179.37 126.572 179.324 126.632C179.279 126.692 179.249 126.762 179.239 126.837C179.228 126.912 179.237 126.988 179.265 127.058C179.292 127.129 179.337 127.191 179.396 127.238L180.452 128.078C180.692 128.276 180.694 128.476 180.46 128.678C178.833 130.092 177.564 131.878 176.652 134.038ZM159.475 118.77C159.038 118.273 158.388 117.999 157.666 118.01C156.945 118.021 156.212 118.315 155.628 118.827C155.045 119.34 154.659 120.029 154.555 120.743C154.452 121.457 154.639 122.138 155.076 122.635C155.513 123.132 156.164 123.406 156.885 123.395C157.606 123.384 158.339 123.09 158.923 122.578C159.506 122.065 159.892 121.376 159.996 120.662C160.099 119.948 159.912 119.267 159.475 118.77Z" fill="#010100"/>
<path d="M99.3634 137.383C93.7634 141.263 86.7954 136.423 85.2274 130.559C84.1394 126.495 84.9741 122.54 87.7314 118.695C88.5367 118.119 89.4514 117.892 90.4754 118.015C90.6055 118.031 90.7291 118.081 90.8339 118.16C90.9387 118.239 91.021 118.344 91.0728 118.464C91.1245 118.585 91.1439 118.717 91.1289 118.847C91.1139 118.977 91.0651 119.101 90.9874 119.207C87.2514 124.215 87.9394 132.295 94.6594 133.903C98.8914 134.919 100.851 130.983 102.235 127.367C102.379 126.999 102.502 127.004 102.603 127.383C103.585 131.143 102.505 134.476 99.3634 137.383Z" fill="#7E442B"/>
<path d="M158.923 122.578C160.138 121.511 160.385 119.806 159.475 118.77C158.565 117.735 156.843 117.76 155.628 118.828C154.413 119.895 154.166 121.6 155.076 122.635C155.985 123.671 157.708 123.645 158.923 122.578Z" fill="#FEFDFE"/>
<path d="M99.7795 123.719C101.326 123.719 102.579 122.465 102.579 120.919C102.579 119.372 101.326 118.119 99.7795 118.119C98.2331 118.119 96.9795 119.372 96.9795 120.919C96.9795 122.465 98.2331 123.719 99.7795 123.719Z" fill="#FEFDFE"/>
<path d="M169.987 119.735C173.326 124.674 173.467 129.487 170.411 134.175C164.723 142.911 150.947 138.703 153.003 126.999C153.649 127.052 154.107 126.748 154.379 126.087C154.502 125.788 154.606 125.794 154.691 126.103C155.627 129.623 155.899 132.479 159.851 133.551C161.841 134.09 163.721 133.719 165.491 132.439C170.043 129.151 168.619 123.343 166.299 118.767C166.123 118.431 166.222 118.3 166.595 118.375C167.945 118.642 169.075 119.095 169.987 119.735Z" fill="#7E442B"/>
<path d="M87.731 118.695C84.9737 122.54 84.139 126.495 85.227 130.559C86.795 136.423 93.763 141.263 99.363 137.383C105.379 134.423 103.963 129.759 103.795 124.399C103.791 124.306 103.817 124.214 103.869 124.138C103.922 124.062 103.998 124.005 104.086 123.976C104.174 123.946 104.269 123.947 104.356 123.977C104.444 124.007 104.519 124.065 104.571 124.143C106.32 126.687 107.059 129.489 106.787 132.551C102.107 147.207 84.059 145.287 79.875 131.111C79.875 125.313 82.4937 121.175 87.731 118.695Z" fill="#FEFDFE"/>
<path d="M169.987 119.734C175.737 122.694 177.958 127.462 176.651 134.038C172.395 141.182 163.555 144.982 156.123 140.478C152.961 138.569 150.942 135.62 150.067 131.63L152.787 123.494C152.804 123.457 152.833 123.425 152.87 123.406C152.906 123.387 152.948 123.38 152.989 123.388C153.029 123.395 153.066 123.416 153.094 123.447C153.121 123.478 153.137 123.517 153.139 123.558L153.003 126.998C150.947 138.702 164.723 142.91 170.411 134.174C173.467 129.486 173.326 124.673 169.987 119.734Z" fill="#FEFDFE"/>
<path d="M58.4758 127.111C58.5088 127.111 58.5397 127.124 58.5615 127.147C58.5834 127.17 58.5945 127.202 58.5924 127.235C58.5903 127.268 58.5751 127.299 58.5502 127.322C58.5254 127.346 58.4928 127.359 58.4598 127.359C55.6598 127.375 52.8198 126.751 50.4438 128.583C49.8251 129.063 49.7664 129.004 50.2678 128.407C52.0278 126.335 55.9958 126.855 58.4758 127.111Z" fill="#CB9278"/>
<path d="M208.924 130.431C205.86 126.719 203.7 126.983 199.276 127.823C198.662 127.94 198.646 127.887 199.228 127.663C203.366 126.063 206.673 126.927 209.148 130.255C209.165 130.285 209.17 130.32 209.164 130.354C209.157 130.388 209.139 130.418 209.111 130.439C209.084 130.461 209.05 130.472 209.016 130.47C208.981 130.468 208.949 130.455 208.924 130.431Z" fill="#C77F62"/>
<path d="M81.9056 155.013C87.2982 155.163 91.7387 152.819 91.8237 149.776C91.9087 146.733 87.606 144.144 82.2134 143.993C76.8208 143.842 72.3803 146.187 72.2953 149.23C72.2103 152.273 76.513 154.862 81.9056 155.013Z" fill="#D56860"/>
<path d="M172.583 155.725C178.82 155.365 183.728 152.499 183.545 149.323C183.361 146.147 178.157 143.864 171.92 144.224C165.683 144.583 160.775 147.45 160.958 150.625C161.141 153.801 166.346 156.084 172.583 155.725Z" fill="#D56860"/>
<path d="M128.603 154.735C131.995 154.751 146.683 153.727 147.315 154.439C137.379 162.031 119.587 161.783 110.195 153.319L128.603 154.735Z" fill="#FEFDFE"/>
<path d="M110.195 153.318C119.587 161.782 137.379 162.03 147.315 154.438C147.64 154.108 148.006 153.998 148.411 154.11C148.783 154.211 149.108 154.44 149.327 154.757C149.547 155.075 149.647 155.461 149.611 155.846C149.067 161.708 146.784 166.63 142.763 170.614C137.499 164.252 130.864 161.649 122.859 162.806C118.699 163.404 115.614 165.492 113.603 169.07C110.651 166.046 106.419 159.118 107.587 154.478C107.651 154.222 107.795 154.02 108.019 153.87C108.648 153.449 109.374 153.265 110.195 153.318Z" fill="#A84342"/>
<path d="M142.763 170.615C139.014 173.868 134.571 175.708 129.435 176.135C123.499 176.06 118.222 173.706 113.603 169.071C115.614 165.492 118.699 163.404 122.859 162.807C130.864 161.65 137.499 164.252 142.763 170.615Z" fill="#D56860"/>
<path d="M144.099 188.734L150.123 190.654C149.478 191.342 149.905 191.857 151.403 192.198L151.411 192.646C151.417 192.929 151.281 193.102 151.003 193.166C143.587 194.798 138.147 196.998 129.403 197.198C124.867 196.67 119.099 195.958 114.611 193.382C113.209 192.577 112.057 192.148 111.155 192.094C109.907 192.02 108.643 192.164 107.363 192.526C107.257 192.148 107.07 191.95 106.803 191.934L117.107 189.55L129.355 190.63C134.246 190.396 139.161 189.764 144.099 188.734Z" fill="#C77F62"/>
<path d="M150.123 190.655C164.307 193.143 177.019 196.375 188.835 204.767C172.387 220.239 145.107 226.159 123.427 224.447C104.233 222.985 87.1208 216.436 72.0915 204.799C72.056 204.772 72.0275 204.738 72.0084 204.698C71.9892 204.658 71.98 204.615 71.9816 204.57C71.9832 204.526 71.9955 204.483 72.0174 204.445C72.0393 204.407 72.0702 204.374 72.1075 204.351C81.4515 198.495 91.6088 194.607 102.579 192.687C104.603 198.855 107.867 204.823 113.099 208.687C125.467 217.815 144.067 214.895 151.083 200.439C152.035 198.487 152.227 195.735 153.371 193.463C153.515 193.169 153.425 193.001 153.099 192.959L152.731 192.911C152.785 192.809 152.814 192.705 152.819 192.599C152.83 192.343 152.71 192.215 152.459 192.215L151.403 192.199C149.905 191.857 149.478 191.343 150.123 190.655Z" fill="#E74F48"/>
<path d="M106.804 191.934C107.07 191.95 107.257 192.148 107.364 192.526C108.604 203.774 119.188 209.702 129.604 208.934C141.716 208.958 147.852 202.862 152.732 192.91L153.1 192.958C153.425 193.001 153.516 193.169 153.372 193.462C152.228 195.734 152.036 198.486 151.084 200.438C144.068 214.894 125.468 217.814 113.1 208.686C107.868 204.822 104.604 198.854 102.58 192.686L106.804 191.934Z" fill="#C15551"/>
<path d="M129.403 197.199L129.603 208.935C119.187 209.703 108.603 203.775 107.363 192.527C108.643 192.164 109.907 192.02 111.155 192.095C112.057 192.148 113.209 192.578 114.611 193.383C119.099 195.959 124.867 196.671 129.403 197.199Z" fill="#EEA57F"/>
<path d="M151.403 192.198L152.459 192.214C152.71 192.214 152.83 192.342 152.819 192.598C152.814 192.705 152.785 192.809 152.731 192.91C147.851 202.862 141.715 208.958 129.603 208.934L129.403 197.198C138.147 196.998 143.587 194.798 151.003 193.166C151.281 193.102 151.417 192.929 151.411 192.646L151.403 192.198Z" fill="#DB926F"/>
<path d="M188.836 204.767L195.204 207.903C195.444 208.021 195.478 208.183 195.308 208.391C162.42 247.679 102.804 246.455 68.0676 210.919C67.1983 210.029 66.5209 209.175 66.0356 208.359C65.9987 208.299 65.9751 208.231 65.966 208.161C65.957 208.09 65.9628 208.019 65.9831 207.95C66.0034 207.882 66.0378 207.818 66.084 207.763C66.1302 207.708 66.1873 207.663 66.2516 207.631L70.9236 205.303C71.1582 205.186 71.3769 205.21 71.5796 205.375C84.9556 216.101 100.204 222.57 117.324 224.783C119.62 225.079 121.196 225.639 123.428 224.447C145.108 226.159 172.388 220.239 188.836 204.767Z" fill="#D1DEDE"/>
</svg>
