<svg width="256" height="256" viewBox="0 0 256 256" fill="none" xmlns="http://www.w3.org/2000/svg">
<path d="M108.109 22.3477C97.3359 24.0063 87.1492 28.0197 77.5492 34.3877C62.5332 44.3477 50.0452 60.1557 46.1572 78.0437" stroke="#A59EA1" stroke-width="2"/>
<path d="M46.1574 78.0434C43.1733 93.0274 43.5974 109.771 45.4854 124.771" stroke="#9F999D" stroke-width="2"/>
<path d="M45.4854 124.771C40.6054 127.155 37.992 131.401 37.6453 137.507C37.1333 146.499 41.0053 151.131 47.2933 156.635" stroke="#FEE7D8" stroke-width="2"/>
<path d="M47.2931 156.635C46.2051 174.139 55.4931 182.891 71.6771 188.163" stroke="#9F999D" stroke-width="2"/>
<path d="M71.6772 188.163L76.3732 189.675C76.4858 189.712 76.6049 189.723 76.7223 189.708C76.8396 189.694 76.9524 189.654 77.0529 189.591C77.1533 189.529 77.239 189.446 77.304 189.347C77.369 189.248 77.4117 189.136 77.4292 189.019L79.0292 178.691" stroke="#969197" stroke-width="2"/>
<path d="M79.0293 178.691H79.4293C79.7013 178.697 79.9466 178.774 80.1653 178.923C86.72 183.323 93.8026 186.683 101.413 189.003" stroke="#FEE7D8" stroke-width="2"/>
<path d="M101.413 189.004L111.293 191.963" stroke="#FFE3D3" stroke-width="2"/>
<path d="M111.293 191.963L106.613 193.451" stroke="#FDD4C5" stroke-width="2"/>
<path d="M106.613 193.452C91.4775 195.78 77.4375 201.812 72.3895 217.668C72.33 217.858 72.3458 218.063 72.4336 218.242C72.5215 218.421 72.6747 218.559 72.8615 218.628L76.6695 219.996" stroke="#FEDBA8" stroke-width="2"/>
<path d="M157.413 196.452C152.394 194.825 147.144 193.537 141.661 192.587" stroke="#F7C591" stroke-width="2"/>
<path d="M141.661 192.588L139.437 192.084" stroke="#FDC6BC" stroke-width="2"/>
<path d="M139.437 192.083L144.453 190.443" stroke="#FFE3D3" stroke-width="2"/>
<path d="M144.453 190.443C152.858 187.942 160.634 184.491 167.781 180.091" stroke="#FDD4C5" stroke-width="2"/>
<path d="M167.781 180.091L169.109 191.179C169.173 191.734 169.464 191.907 169.981 191.699C177.859 188.579 185.189 184.315 191.973 178.907C198.845 173.427 200.629 165.571 199.373 157.067" stroke="#908D91" stroke-width="2"/>
<path d="M199.374 157.067C208.755 152.129 212.55 144.699 210.758 134.779C209.856 129.803 207.056 126.425 202.358 124.643" stroke="#FDD4C5" stroke-width="2"/>
<path d="M202.357 124.643C203.301 110.771 204.157 93.2754 201.189 78.7394" stroke="#908D91" stroke-width="2"/>
<path d="M201.19 78.7395C193.934 46.9875 166.998 25.9475 135.142 21.5715" stroke="#969197" stroke-width="2"/>
<path d="M135.141 21.5714C126.293 20.3287 117.283 20.5874 108.109 22.3474" stroke="#9F999D" stroke-width="2"/>
<path d="M135.141 21.5715C133.781 23.1715 136.325 23.2195 137.093 23.5795C138.555 24.2568 140.667 25.0915 143.429 26.0835C155.797 30.5315 173.813 41.5875 172.469 57.9715C172.245 60.7635 172.029 65.0915 168.829 65.9315C167.469 66.2915 166.581 66.7315 165.069 66.6035C164.109 66.5235 163.138 66.5928 162.157 66.8115C162.045 66.8374 161.943 66.8968 161.867 66.9815C161.791 67.0662 161.744 67.1718 161.733 67.2835C161.643 68.1795 161.165 68.7235 160.301 68.9155C160.024 68.9795 159.872 69.1528 159.845 69.4355C159.707 70.9021 158.936 71.6061 157.533 71.5475C157.256 71.5368 156.984 71.5715 156.717 71.6515L150.757 73.4595" stroke="#362C36" stroke-width="2"/>
<path d="M150.757 73.4596C129.051 70.697 107.141 70.9716 85.0293 74.2836C78.8053 75.2196 67.9573 76.5956 63.1973 79.8196" stroke="#9D6E64" stroke-width="2"/>
<path d="M63.1973 79.8195C60.7733 81.8915 59.6053 90.1875 59.0213 94.0915C56.9813 107.796 56.8853 121.308 56.5573 135.124C56.5541 135.214 56.5256 135.302 56.4751 135.377C56.4247 135.453 56.3544 135.512 56.2723 135.549C56.1903 135.586 56.0999 135.598 56.0115 135.585C55.9232 135.572 55.8406 135.534 55.7733 135.476C52.8693 133.036 52.0613 128.804 50.6053 125.316C50.488 125.038 50.28 124.897 49.9813 124.892L45.4854 124.772" stroke="#9F8277" stroke-width="2"/>
<path d="M46.1572 78.0437L46.2212 82.4597C46.2217 82.5594 46.2539 82.6565 46.313 82.7369C46.3721 82.8173 46.4552 82.8768 46.5503 82.907C46.6454 82.9373 46.7476 82.9366 46.8423 82.905C46.937 82.8735 47.0192 82.8128 47.0772 82.7317C48.4772 80.8277 50.9732 80.0197 51.8292 77.9397C51.9306 77.6997 52.0799 77.4917 52.2772 77.3157C53.3972 76.345 54.5599 75.441 55.7652 74.6037C56.9412 73.7877 58.6932 73.2757 60.2852 72.0997C61.5759 71.145 63.1652 70.913 65.0532 71.4037C65.3146 71.4677 65.5572 71.425 65.7812 71.2757C73.3919 66.2303 81.2506 61.609 89.3572 57.4117C93.1172 55.465 96.3705 54.2543 99.1172 53.7797C104.669 52.8357 109.765 53.9157 115.325 53.8837C115.667 53.8837 115.728 53.7503 115.509 53.4837C115.179 53.0837 114.757 52.7877 114.245 52.5957C113.915 52.4677 113.845 52.257 114.037 51.9637C115.997 49.0277 118.485 49.4917 120.933 48.1797C124.229 46.4197 126.997 43.6997 130.005 42.2037C131.717 41.3503 133.464 40.5557 135.245 39.8197C135.448 39.7343 135.608 39.5957 135.725 39.4037L138.637 34.5637C138.941 34.0595 139.037 33.4568 138.904 32.8833C138.771 32.3098 138.42 31.8106 137.925 31.4917C129.259 25.865 119.32 22.817 108.109 22.3477" stroke="#453840" stroke-width="2"/>
<path d="M119.381 75.1234C119.309 77.4274 120.925 78.6994 120.653 81.4034C120.579 82.1394 120.56 83.1688 120.597 84.4914C120.909 96.4034 120.205 110.091 120.245 123.531C120.261 129.062 120.147 134.59 119.901 140.115C119.896 140.241 119.922 140.366 119.977 140.479C120.031 140.592 120.112 140.69 120.213 140.763C122.613 142.571 118.869 146.603 122.069 148.563C122.283 148.691 122.493 148.689 122.701 148.555C124.456 147.403 126.053 147.606 127.493 149.163" stroke="#FFCCAD" stroke-width="2"/>
<path d="M127.493 149.163C129.205 154.369 127.498 158.115 122.373 160.403C122.074 160.537 122.042 160.721 122.277 160.955C123.082 161.771 124.429 162.374 126.317 162.763" stroke="#FDBD9F" stroke-width="2"/>
<path d="M126.317 162.763C126.947 163.697 128.056 164.379 129.645 164.811C129.763 164.844 129.872 164.901 129.965 164.98C130.057 165.059 130.131 165.157 130.181 165.267C130.773 166.555 132.045 168.811 130.493 169.483C130.44 169.51 130.437 169.545 130.485 169.587L130.653 169.731C130.696 169.769 130.691 169.795 130.637 169.811C130.307 169.923 130.165 170.083 130.213 170.291" stroke="#FFCCAD" stroke-width="2"/>
<path d="M130.214 170.291C124.486 170.873 118.558 170.539 112.43 169.291C110.584 168.913 109.238 169.278 108.39 170.387" stroke="#FEE7D8" stroke-width="2"/>
<path d="M108.389 170.388C107.664 171.892 108.072 173.66 109.613 175.692" stroke="#90766B" stroke-width="2"/>
<path d="M109.613 175.691C108.744 175.585 108.053 175.63 107.541 175.827C107.189 175.966 107.141 176.177 107.397 176.459C108.138 177.265 108.301 178.235 107.885 179.371C107.768 179.702 107.877 179.918 108.213 180.019L110.085 180.611C110.304 180.681 110.4 180.827 110.373 181.051C109.973 184.403 107.341 186.339 105.221 188.723C105.073 188.891 104.875 189.007 104.657 189.056C104.439 189.105 104.211 189.084 104.005 188.995C103.216 188.649 102.352 188.651 101.413 189.003" stroke="#FFCCAD" stroke-width="2"/>
<path d="M79.0292 178.691C79.0825 178.398 79.0265 178.19 78.8612 178.067C74.1145 174.473 69.9225 170.182 66.2852 165.195" stroke="#967A71" stroke-width="2"/>
<path d="M66.2855 165.195L62.0695 158.435C61.9201 158.206 61.7121 158.118 61.4455 158.171C56.6028 159.195 51.8855 158.683 47.2935 156.635" stroke="#9F8277" stroke-width="2"/>
<path d="M189.374 84.5715C191.558 87.5475 191.694 94.4435 191.838 97.8915C192.248 107.854 192.374 118.521 192.214 129.891C192.187 131.614 192.432 133.299 192.95 134.947C192.969 135.007 193 135.062 193.042 135.108C193.085 135.154 193.136 135.191 193.193 135.215C193.25 135.24 193.311 135.251 193.373 135.249C193.435 135.247 193.495 135.232 193.55 135.203C197.726 133.099 195.55 124.203 202.358 124.643" stroke="#8E6258" stroke-width="2"/>
<path d="M199.373 157.067C196.317 158.379 192.912 158.726 189.157 158.107C188.864 158.059 188.648 158.166 188.509 158.427C183.72 167.563 176.811 174.785 167.781 180.091" stroke="#8E6258" stroke-width="2"/>
<path d="M144.453 190.444C143.957 189.852 144.482 189.35 146.029 188.94C155.045 186.532 161.837 179.076 165.517 170.364C165.586 170.203 165.615 170.028 165.601 169.854C165.587 169.68 165.532 169.512 165.439 169.364C165.346 169.217 165.219 169.093 165.068 169.005C164.917 168.918 164.747 168.868 164.573 168.86C160.589 168.684 153.981 166.468 153.941 161.516C153.893 156.076 165.293 152.724 169.317 152.548C169.658 152.532 169.981 152.388 170.221 152.145C170.462 151.902 170.601 151.577 170.613 151.236C170.677 149.092 171.229 142.372 169.085 141.116" stroke="#FDB899" stroke-width="2"/>
<path d="M169.085 141.116C168.754 139.281 169.162 138.049 170.309 137.42" stroke="#FDD4C5" stroke-width="2"/>
<path d="M170.31 137.419C171.222 136.243 172.15 135.171 172.478 133.595C173.32 129.547 173.886 125.681 174.174 121.995" stroke="#FDB899" stroke-width="2"/>
<path d="M174.173 121.995C175 120.737 175.141 119.486 174.597 118.243" stroke="#CA7558" stroke-width="2"/>
<path d="M174.597 118.243C175.189 111.934 175.24 105.835 174.749 99.9474C174.261 94.0514 173.717 86.2594 167.229 84.8514C160.189 83.3261 153.435 81.3848 146.965 79.0274C138.141 75.8194 128.741 75.0434 119.381 75.1234" stroke="#FDB899" stroke-width="2"/>
<path d="M119.381 75.1234C99.5173 74.9314 82.9813 76.2434 64.3013 80.9794C64.0613 81.0381 63.9173 80.9474 63.8693 80.7074C63.7893 80.3234 63.5653 80.0274 63.1973 79.8194" stroke="#FDBD9F" stroke-width="2"/>
<path d="M201.19 78.7394C200.534 79.7528 199.624 80.6514 198.462 81.4354C196.086 83.0514 192.278 82.8914 189.374 84.5714" stroke="#27202A" stroke-width="2"/>
<path d="M189.373 84.5714C177.133 78.7314 164.157 75.6114 150.757 73.4594" stroke="#94675D" stroke-width="2"/>
<path d="M140.486 169.284C134.766 176.724 115.07 175.46 108.39 170.388" stroke="#908D91" stroke-width="2"/>
<path d="M133.013 177.579C128.581 175.851 116.669 174.739 112.405 177.875" stroke="#8E6258" stroke-width="2"/>
<path d="M66.2851 165.195C65.3651 166.523 67.2131 168.563 67.5331 170.131C68.7811 176.259 71.101 181.974 74.493 187.275C74.6904 187.59 74.6051 187.771 74.2371 187.819L71.6771 188.163" stroke="#362C36" stroke-width="2"/>
<path d="M174.597 118.243C169.024 110.403 161.912 106.137 153.261 105.443C141.109 104.467 143.597 118.027 150.653 116.083C160.917 113.243 165.317 118.227 174.173 121.995" stroke="#CC8466" stroke-width="2"/>
<path d="M170.309 137.419C168.821 130.465 164.648 126.881 157.789 126.667C157.517 126.657 157.29 126.753 157.109 126.955C156.848 127.238 156.936 127.499 157.373 127.739" stroke="#FFE3D3" stroke-width="2"/>
<path d="M157.373 127.739C143.925 131.083 147.549 155.435 160.821 151.883C164.957 150.779 167.173 146.555 167.717 142.507" stroke="#8A6D60" stroke-width="2"/>
<path d="M167.717 142.508L168.189 142.78C168.24 142.809 168.297 142.825 168.355 142.828C168.414 142.832 168.472 142.821 168.525 142.798C168.579 142.774 168.626 142.739 168.664 142.694C168.701 142.649 168.728 142.596 168.741 142.54L169.085 141.116" stroke="#FFE3D3" stroke-width="2"/>
<path d="M139.437 192.084C137.096 192.089 134.685 192.246 132.205 192.556C125.501 193.388 119.533 193.036 113.077 192.22" stroke="#FEAB90" stroke-width="2"/>
<path d="M113.077 192.219C112.304 192.257 111.709 192.171 111.293 191.963" stroke="#FDB899" stroke-width="2"/>
<path d="M109.613 175.691C110.291 176.854 111.221 177.582 112.405 177.875" stroke="#907166" stroke-width="2"/>
<path d="M112.405 177.876L113.053 179.092C113.187 179.342 113.387 179.521 113.653 179.628C118.173 181.42 129.765 183.508 134.037 179.436C134.293 179.196 134.256 179.022 133.925 178.916C132.907 178.585 132.603 178.14 133.013 177.58" stroke="#FDB899" stroke-width="2"/>
<path d="M133.013 177.58L134.581 178.324C134.827 178.441 135.072 178.444 135.317 178.332C138.139 177.057 140.197 175.044 141.493 172.292C141.941 171.332 142.269 168.796 140.485 169.284" stroke="#907166" stroke-width="2"/>
<path d="M140.485 169.283C140.389 168.683 131.381 170.171 130.213 170.291" stroke="#FFE3D3" stroke-width="2"/>
<path d="M126.317 162.763C132.44 159.611 133.437 154.702 129.309 148.035C129.19 147.845 129.011 147.7 128.799 147.623C128.588 147.546 128.358 147.54 128.144 147.609C127.931 147.677 127.747 147.814 127.622 147.998C127.497 148.183 127.437 148.404 127.453 148.627L127.493 149.163" stroke="#FDB899" stroke-width="2"/>
<path d="M167.718 142.507C168.502 136.203 165.126 126.835 157.374 127.739" stroke="#89898C" stroke-width="2"/>
<path d="M141.661 192.587C141.309 192.731 141.106 192.95 141.053 193.243C141.01 193.483 141.109 193.63 141.349 193.683C143.741 194.187 139.661 198.987 139.021 199.707" stroke="#F68D4F" stroke-width="2"/>
<path d="M139.021 199.707C134.429 203.547 128.877 206.595 123.013 205.675" stroke="#FDA366" stroke-width="2"/>
<path d="M113.077 192.22L112.821 192.476C112.726 192.57 112.663 192.693 112.642 192.827C112.62 192.96 112.641 193.098 112.701 193.22C115.149 198.201 118.741 202.102 123.477 204.924C123.701 205.057 123.707 205.196 123.494 205.34L123.014 205.676" stroke="#FC9C82" stroke-width="2"/>
<path d="M123.013 205.675C116.208 206.118 110.997 203.537 107.381 197.931C107.157 197.579 106.109 194.795 107.109 195.067C107.178 195.085 107.25 195.089 107.321 195.077C107.391 195.066 107.458 195.04 107.518 195.002C107.577 194.964 107.628 194.913 107.666 194.854C107.705 194.795 107.73 194.729 107.741 194.659C107.88 193.806 107.504 193.403 106.613 193.451" stroke="#FDB16F" stroke-width="2"/>
<path d="M139.261 209.931C133.309 212.742 126.835 213.667 119.837 212.707C110.125 211.369 103.648 206.185 100.405 197.155C100.245 196.723 100.509 196.203 99.5492 196.307C99.5098 196.312 99.472 196.326 99.4384 196.347C99.4048 196.369 99.3764 196.397 99.355 196.431C99.3337 196.464 99.3199 196.502 99.3148 196.542C99.3096 196.581 99.3132 196.621 99.3252 196.659C104.213 212.635 121.005 216.387 135.389 212.571C135.667 212.497 135.853 212.595 135.949 212.867C137.507 217.379 138.197 222.025 138.021 226.803C138.005 227.134 137.835 227.297 137.509 227.291C136.901 227.286 136.288 227.291 135.669 227.307C135.403 227.313 135.195 227.425 135.045 227.643C134.779 228.027 134.968 228.454 135.613 228.923" stroke="#F8A942" stroke-width="2"/>
<path d="M135.613 228.923C115.272 230.241 95.6236 227.265 76.6689 219.995" stroke="#E7CA9D" stroke-width="2"/>
<path d="M157.413 196.452C167.869 200.556 175.837 206.308 178.845 217.708C178.906 217.938 178.879 218.182 178.769 218.393C178.659 218.603 178.475 218.764 178.253 218.844L169.477 222.068" stroke="#DFB386" stroke-width="2"/>
<path d="M169.477 222.068C169.328 221.94 169.139 221.865 168.909 221.844C168.637 221.817 168.541 221.673 168.621 221.412L168.765 220.98C168.835 220.75 168.819 220.529 168.717 220.316C164.611 211.638 157.755 207.321 148.149 207.364C144.981 207.372 142.541 209.412 139.261 209.932" stroke="#F1932B" stroke-width="2"/>
<path d="M139.261 209.931L143.957 207.683C144.185 207.575 144.382 207.412 144.53 207.209C144.678 207.005 144.773 206.768 144.807 206.519C144.84 206.269 144.811 206.015 144.721 205.78C144.631 205.545 144.484 205.336 144.294 205.171C142.55 203.667 140.557 202.571 138.317 201.883C137.971 201.777 137.891 201.569 138.077 201.259L139.021 199.707" stroke="#F7A23B" stroke-width="2"/>
<path d="M135.613 228.923C147.251 228.097 158.539 225.811 169.477 222.067" stroke="#E1BB8D" stroke-width="2"/>
<path d="M76.4852 41.7555C73.7492 44.3555 52.8772 64.7795 59.4852 68.2515C61.7812 69.4595 65.3012 66.6915 66.8852 65.1475C75.8026 56.4222 84.2132 47.2355 92.1172 37.5875C92.9759 36.5369 93.5039 35.4995 93.7012 34.4755C93.7322 34.3173 93.7293 34.1544 93.6929 33.9974C93.6565 33.8403 93.5873 33.6928 93.4898 33.5644C93.3924 33.436 93.2689 33.3296 93.1275 33.2523C92.9861 33.1749 92.8299 33.1283 92.6692 33.1155C87.0212 32.6755 80.3732 38.0755 76.4852 41.7555Z" stroke="#574850" stroke-width="2"/>
<path d="M200.421 129.035C197.725 128.867 194.981 135.419 194.477 137.619C193.731 140.878 193.192 144.169 192.861 147.491C192.253 153.611 198.093 151.915 200.893 149.531C205.389 145.697 207.051 140.798 205.877 134.835C205.365 132.195 203.309 129.211 200.421 129.035Z" stroke="#FC9C82" stroke-width="2"/>
<path d="M166.733 168.603C172.829 169.987 184.445 159.347 182.677 152.939C182.592 152.63 182.389 152.451 182.069 152.403C178.48 151.897 174.896 151.921 171.317 152.475C171.024 152.518 170.84 152.683 170.765 152.971C169.528 157.739 167.888 162.35 165.845 166.803C165.402 167.769 165.698 168.369 166.733 168.603Z" stroke="#FC9C82" stroke-width="2"/>
<path d="M92.9096 105.003C85.7816 106.299 77.0616 111.371 74.1976 118.683C74.1521 118.804 74.1321 118.933 74.139 119.061C74.1459 119.189 74.1795 119.314 74.2376 119.427C75.4856 121.851 81.1576 117.787 82.6936 116.915C87.3656 114.238 92.2003 113.534 97.1976 114.803C99.4163 115.369 100.923 115.582 101.718 115.443C106.142 114.683 107.238 108.291 103.59 105.907C100.534 103.923 96.7176 104.315 92.9096 105.003Z" stroke="#CB886C" stroke-width="2"/>
<path d="M83.2373 146.484C86.4213 151.833 90.416 153.233 95.2213 150.684C103.677 146.196 101.845 128.692 91.7573 126.948" stroke="#897266" stroke-width="2"/>
<path d="M91.7572 126.948C92.5679 126.02 91.8692 125.665 89.6612 125.884C85.6212 126.284 81.9412 129.452 80.3012 132.972C78.8772 136.012 80.9572 143.556 82.3732 146.58C82.3977 146.631 82.4324 146.676 82.4751 146.713C82.5178 146.75 82.5677 146.779 82.6216 146.796C82.6755 146.813 82.7324 146.819 82.7887 146.813C82.8451 146.808 82.8997 146.791 82.9492 146.764C83.0559 146.7 83.1519 146.606 83.2372 146.484" stroke="#FEE7D8" stroke-width="2"/>
<path d="M91.7575 126.948C89.5921 126.836 87.9655 127.3 86.8775 128.34C81.6295 133.38 80.4161 139.428 83.2375 146.484" stroke="#89898C" stroke-width="2"/>
<path d="M49.8692 130.684C45.8852 129.292 42.7972 132.396 42.3652 136.14C41.6932 141.873 43.4132 146.497 47.5252 150.012C50.3172 152.404 58.8212 155.116 56.8372 147.5C55.1652 141.1 53.7172 136.372 50.4532 131.148C50.3185 130.931 50.1121 130.767 49.8692 130.684Z" stroke="#FDBD9F" stroke-width="2"/>
<path d="M70.1094 161.164C73.3814 178.124 104.573 170.068 91.3253 158.26C87.72 155.049 83.36 153.42 78.2453 153.372C73.7653 153.324 69.1254 156.036 70.1094 161.164Z" stroke="#FDBD9F" stroke-width="2"/>
<path d="M93.7893 139.459C93.7893 138.842 93.544 138.25 93.1074 137.813C92.6709 137.377 92.0787 137.131 91.4613 137.131C90.8439 137.131 90.2517 137.377 89.8152 137.813C89.3786 138.25 89.1333 138.842 89.1333 139.459C89.1333 140.077 89.3786 140.669 89.8152 141.105C90.2517 141.542 90.8439 141.787 91.4613 141.787C92.0787 141.787 92.6709 141.542 93.1074 141.105C93.544 140.669 93.7893 140.077 93.7893 139.459Z" stroke="#89898C" stroke-width="2"/>
<path d="M158.607 142.25C158.891 142.238 159.171 142.164 159.428 142.031C159.686 141.899 159.918 141.71 160.11 141.476C160.302 141.243 160.451 140.968 160.548 140.669C160.645 140.37 160.688 140.052 160.675 139.732C160.65 139.088 160.397 138.479 159.972 138.04C159.547 137.6 158.986 137.366 158.412 137.389C158.127 137.401 157.848 137.475 157.59 137.608C157.332 137.74 157.101 137.929 156.908 138.163C156.716 138.396 156.568 138.671 156.471 138.97C156.374 139.269 156.33 139.587 156.343 139.907C156.369 140.551 156.622 141.16 157.046 141.599C157.471 142.039 158.032 142.273 158.607 142.25Z" stroke="#89898C" stroke-width="2"/>
<path d="M135.141 21.5714C133.781 23.1714 136.325 23.2194 137.093 23.5794C138.555 24.2567 140.667 25.0914 143.429 26.0834C155.797 30.5314 173.813 41.5874 172.469 57.9714C172.245 60.7634 172.029 65.0914 168.829 65.9314C167.469 66.2914 166.581 66.7314 165.069 66.6034C164.109 66.5234 163.139 66.5927 162.157 66.8114C162.045 66.8373 161.943 66.8968 161.867 66.9815C161.791 67.0661 161.744 67.1717 161.733 67.2834C161.643 68.1794 161.165 68.7234 160.301 68.9154C160.024 68.9794 159.872 69.1527 159.845 69.4354C159.707 70.9021 158.936 71.6061 157.533 71.5474C157.256 71.5368 156.984 71.5714 156.717 71.6514L150.757 73.4594C129.051 70.6968 107.141 70.9714 85.0293 74.2834C78.8053 75.2194 67.9573 76.5954 63.1973 79.8194C60.7733 81.8914 59.6053 90.1874 59.0213 94.0914C56.9813 107.795 56.8853 121.307 56.5573 135.123C56.5541 135.214 56.5256 135.302 56.4751 135.377C56.4247 135.452 56.3544 135.512 56.2723 135.549C56.1903 135.586 56.0999 135.598 56.0115 135.585C55.9232 135.572 55.8406 135.534 55.7733 135.475C52.8693 133.035 52.0613 128.803 50.6053 125.315C50.488 125.038 50.28 124.897 49.9813 124.891L45.4854 124.771C43.5974 109.771 43.1733 93.0274 46.1573 78.0434L46.2213 82.4594C46.2219 82.5592 46.254 82.6562 46.3131 82.7366C46.3722 82.817 46.4553 82.8766 46.5504 82.9068C46.6455 82.937 46.7477 82.9363 46.8424 82.9048C46.9371 82.8733 47.0193 82.8126 47.0773 82.7314C48.4773 80.8274 50.9733 80.0194 51.8293 77.9394C51.9307 77.6994 52.08 77.4914 52.2773 77.3154C53.3973 76.3447 54.56 75.4407 55.7654 74.6034C56.9414 73.7874 58.6934 73.2754 60.2854 72.0994C61.576 71.1447 63.1653 70.9127 65.0533 71.4034C65.3147 71.4674 65.5573 71.4247 65.7813 71.2754C73.392 66.2301 81.2507 61.6087 89.3573 57.4114C93.1173 55.4647 96.3707 54.2541 99.1173 53.7794C104.669 52.8354 109.765 53.9154 115.325 53.8834C115.667 53.8834 115.728 53.7501 115.509 53.4834C115.179 53.0834 114.757 52.7874 114.245 52.5954C113.915 52.4674 113.845 52.2567 114.037 51.9634C115.997 49.0274 118.485 49.4914 120.933 48.1794C124.229 46.4194 126.997 43.6994 130.005 42.2034C131.717 41.3501 133.464 40.5554 135.245 39.8194C135.448 39.7341 135.608 39.5954 135.725 39.4034L138.637 34.5634C138.941 34.0593 139.037 33.4566 138.904 32.8831C138.771 32.3096 138.42 31.8104 137.925 31.4914C129.259 25.8647 119.32 22.8167 108.109 22.3474C117.283 20.5874 126.293 20.3287 135.141 21.5714Z" fill="#3F333C"/>
<path d="M135.141 21.5715C166.997 25.9475 193.933 46.9875 201.189 78.7395C200.533 79.7528 199.624 80.6515 198.461 81.4355C196.085 83.0515 192.277 82.8915 189.373 84.5715C177.133 78.7315 164.157 75.6115 150.757 73.4595L156.717 71.6515C156.984 71.5715 157.256 71.5368 157.533 71.5475C158.936 71.6061 159.707 70.9021 159.845 69.4355C159.872 69.1528 160.024 68.9795 160.301 68.9155C161.165 68.7235 161.643 68.1795 161.733 67.2835C161.744 67.1718 161.791 67.0662 161.867 66.9815C161.943 66.8968 162.045 66.8374 162.157 66.8115C163.138 66.5928 164.109 66.5235 165.069 66.6035C166.581 66.7315 167.469 66.2915 168.829 65.9315C172.029 65.0915 172.245 60.7635 172.469 57.9715C173.813 41.5875 155.797 30.5315 143.429 26.0835C140.667 25.0915 138.555 24.2568 137.093 23.5795C136.325 23.2195 133.781 23.1715 135.141 21.5715Z" fill="#2D242F"/>
<path d="M108.109 22.3477C119.32 22.817 129.259 25.865 137.925 31.4917C138.42 31.8106 138.771 32.3098 138.904 32.8833C139.037 33.4568 138.941 34.0595 138.637 34.5637L135.725 39.4037C135.608 39.5957 135.448 39.7343 135.245 39.8197C133.464 40.5557 131.717 41.3503 130.005 42.2037C126.997 43.6997 124.229 46.4197 120.933 48.1797C118.485 49.4917 115.997 49.0277 114.037 51.9637C113.845 52.257 113.915 52.4677 114.245 52.5957C114.757 52.7877 115.179 53.0837 115.509 53.4837C115.728 53.7503 115.667 53.8837 115.325 53.8837C109.765 53.9157 104.669 52.8357 99.1172 53.7797C96.3705 54.2543 93.1172 55.465 89.3572 57.4117C81.2506 61.609 73.3919 66.2303 65.7812 71.2757C65.5572 71.425 65.3146 71.4677 65.0532 71.4037C63.1652 70.913 61.5759 71.145 60.2852 72.0997C58.6932 73.2757 56.9412 73.7877 55.7652 74.6037C54.5599 75.441 53.3972 76.345 52.2772 77.3157C52.0799 77.4917 51.9306 77.6997 51.8292 77.9397C50.9732 80.0197 48.4772 80.8277 47.0772 82.7317C47.0192 82.8128 46.937 82.8735 46.8423 82.905C46.7476 82.9366 46.6454 82.9373 46.5503 82.907C46.4552 82.8768 46.3721 82.8173 46.313 82.7369C46.2539 82.6565 46.2217 82.5594 46.2212 82.4597L46.1572 78.0437C50.0452 60.1557 62.5332 44.3477 77.5492 34.3877C87.1492 28.0197 97.3359 24.0063 108.109 22.3477ZM76.4852 41.7557C73.7492 44.3557 52.8772 64.7797 59.4852 68.2517C61.7812 69.4597 65.3012 66.6917 66.8852 65.1477C75.8026 56.4223 84.2132 47.2357 92.1172 37.5877C92.9759 36.537 93.5039 35.4997 93.7012 34.4757C93.7322 34.3175 93.7293 34.1545 93.6929 33.9975C93.6565 33.8405 93.5873 33.6929 93.4898 33.5645C93.3924 33.4361 93.2689 33.3297 93.1275 33.2524C92.9861 33.175 92.8299 33.1284 92.6692 33.1157C87.0212 32.6757 80.3732 38.0757 76.4852 41.7557Z" fill="#4B3D44"/>
<path d="M59.4852 68.2515C52.8772 64.7795 73.7492 44.3555 76.4852 41.7555C80.3732 38.0755 87.0212 32.6755 92.6692 33.1155C92.8299 33.1283 92.9861 33.1749 93.1275 33.2523C93.2689 33.3296 93.3924 33.436 93.4898 33.5644C93.5873 33.6928 93.6565 33.8403 93.6929 33.9974C93.7293 34.1544 93.7322 34.3173 93.7012 34.4755C93.5039 35.4995 92.9759 36.5369 92.1172 37.5875C84.2132 47.2355 75.8026 56.4222 66.8852 65.1475C65.3012 66.6915 61.7812 69.4595 59.4852 68.2515Z" fill="#62525B"/>
<path d="M150.757 73.4596C164.157 75.6116 177.133 78.7316 189.373 84.5716C191.557 87.5476 191.693 94.4436 191.837 97.8916C192.248 107.854 192.373 118.521 192.213 129.892C192.187 131.614 192.432 133.3 192.949 134.948C192.968 135.007 193 135.062 193.042 135.108C193.084 135.155 193.136 135.191 193.193 135.216C193.25 135.24 193.311 135.251 193.373 135.249C193.434 135.247 193.495 135.232 193.549 135.204C197.725 133.1 195.549 124.204 202.357 124.644C207.056 126.425 209.856 129.804 210.757 134.78C212.549 144.7 208.755 152.129 199.373 157.068C196.317 158.38 192.912 158.726 189.157 158.108C188.864 158.06 188.648 158.166 188.509 158.428C183.72 167.564 176.811 174.785 167.781 180.092C160.635 184.492 152.859 187.942 144.453 190.444C143.957 189.852 144.483 189.35 146.029 188.94C155.045 186.532 161.837 179.076 165.517 170.364C165.586 170.203 165.615 170.028 165.601 169.854C165.588 169.68 165.532 169.512 165.439 169.364C165.346 169.217 165.219 169.093 165.068 169.005C164.918 168.918 164.748 168.868 164.573 168.86C160.589 168.684 153.981 166.468 153.941 161.516C153.893 156.076 165.293 152.724 169.317 152.548C169.659 152.532 169.981 152.388 170.222 152.145C170.462 151.902 170.602 151.577 170.613 151.236C170.677 149.092 171.229 142.372 169.085 141.116C168.755 139.281 169.163 138.049 170.309 137.42C171.221 136.244 172.149 135.172 172.477 133.596C173.32 129.548 173.885 125.681 174.173 121.996C175 120.737 175.141 119.486 174.597 118.244C175.189 111.934 175.24 105.836 174.749 99.9476C174.261 94.0516 173.717 86.2596 167.229 84.8516C160.189 83.3263 153.435 81.385 146.965 79.0276C138.141 75.8196 128.741 75.0436 119.381 75.1236C99.5173 74.9316 82.9813 76.2436 64.3013 80.9796C64.0613 81.0383 63.9173 80.9476 63.8693 80.7076C63.7893 80.3236 63.5653 80.0276 63.1973 79.8196C67.9573 76.5956 78.8053 75.2196 85.0293 74.2836C107.141 70.9716 129.051 70.697 150.757 73.4596ZM200.421 129.036C197.725 128.868 194.981 135.42 194.477 137.62C193.731 140.878 193.192 144.169 192.861 147.492C192.253 153.612 198.093 151.916 200.893 149.532C205.389 145.697 207.051 140.798 205.877 134.836C205.365 132.196 203.309 129.212 200.421 129.036ZM166.733 168.604C172.829 169.988 184.445 159.348 182.677 152.94C182.592 152.63 182.389 152.452 182.069 152.404C178.48 151.897 174.896 151.921 171.317 152.476C171.024 152.518 170.84 152.684 170.765 152.972C169.528 157.74 167.888 162.35 165.845 166.804C165.403 167.769 165.699 168.369 166.733 168.604Z" fill="#FBA98B"/>
<path d="M119.381 75.1234C119.309 77.4274 120.925 78.6994 120.653 81.4034C120.579 82.1394 120.56 83.1687 120.597 84.4914C120.909 96.4034 120.205 110.091 120.245 123.531C120.261 129.062 120.147 134.59 119.901 140.115C119.896 140.241 119.922 140.366 119.977 140.479C120.031 140.592 120.112 140.69 120.213 140.763C122.613 142.571 118.869 146.603 122.069 148.563C122.283 148.691 122.493 148.689 122.701 148.555C124.456 147.403 126.053 147.606 127.493 149.163C129.205 154.369 127.499 158.115 122.373 160.403C122.075 160.537 122.043 160.721 122.277 160.955C123.083 161.771 124.429 162.374 126.317 162.763C126.947 163.697 128.056 164.379 129.645 164.811C129.763 164.844 129.872 164.901 129.965 164.98C130.057 165.059 130.131 165.157 130.181 165.267C130.773 166.555 132.045 168.811 130.493 169.483C130.44 169.51 130.437 169.545 130.485 169.587L130.653 169.731C130.696 169.769 130.691 169.795 130.637 169.811C130.307 169.923 130.165 170.083 130.213 170.291C124.485 170.873 118.557 170.539 112.429 169.291C110.584 168.913 109.237 169.278 108.389 170.387C107.664 171.891 108.072 173.659 109.613 175.691C108.744 175.585 108.053 175.63 107.541 175.827C107.189 175.966 107.141 176.177 107.397 176.459C108.139 177.265 108.301 178.235 107.885 179.371C107.768 179.702 107.877 179.918 108.213 180.019L110.085 180.611C110.304 180.681 110.4 180.827 110.373 181.051C109.973 184.403 107.341 186.339 105.221 188.723C105.073 188.891 104.876 189.007 104.657 189.056C104.439 189.105 104.211 189.084 104.005 188.995C103.216 188.649 102.352 188.651 101.413 189.003C93.8027 186.683 86.72 183.323 80.1654 178.923C79.9467 178.774 79.7014 178.697 79.4294 178.691H79.0294C79.0827 178.398 79.0267 178.19 78.8614 178.067C74.1147 174.473 69.9227 170.182 66.2854 165.195L62.0693 158.435C61.92 158.206 61.712 158.118 61.4453 158.171C56.6027 159.195 51.8853 158.683 47.2933 156.635C41.0053 151.131 37.1333 146.499 37.6453 137.507C37.992 131.401 40.6054 127.155 45.4854 124.771L49.9814 124.891C50.28 124.897 50.488 125.038 50.6054 125.315C52.0614 128.803 52.8693 133.035 55.7733 135.475C55.8406 135.534 55.9232 135.572 56.0116 135.585C56.0999 135.598 56.1903 135.586 56.2723 135.549C56.3544 135.512 56.4247 135.452 56.4751 135.377C56.5256 135.302 56.5541 135.214 56.5574 135.123C56.8854 121.307 56.9813 107.795 59.0213 94.0914C59.6053 90.1874 60.7733 81.8914 63.1973 79.8194C63.5653 80.0274 63.7893 80.3234 63.8693 80.7074C63.9173 80.9474 64.0613 81.0381 64.3013 80.9794C82.9813 76.2434 99.5174 74.9314 119.381 75.1234ZM92.9094 105.003C85.7814 106.299 77.0613 111.371 74.1973 118.683C74.1518 118.804 74.1319 118.933 74.1388 119.061C74.1456 119.189 74.1792 119.314 74.2374 119.427C75.4854 121.851 81.1573 117.787 82.6933 116.915C87.3653 114.238 92.2 113.534 97.1973 114.803C99.416 115.369 100.923 115.582 101.717 115.443C106.141 114.683 107.237 108.291 103.589 105.907C100.533 103.923 96.7174 104.315 92.9094 105.003ZM83.2374 146.483C86.4214 151.833 90.416 153.233 95.2213 150.683C103.677 146.195 101.845 128.691 91.7574 126.947C92.568 126.019 91.8694 125.665 89.6614 125.883C85.6214 126.283 81.9413 129.451 80.3013 132.971C78.8773 136.011 80.9573 143.555 82.3733 146.579C82.3979 146.63 82.4325 146.676 82.4753 146.713C82.518 146.75 82.5678 146.778 82.6217 146.795C82.6756 146.813 82.7325 146.819 82.7888 146.813C82.8452 146.808 82.8998 146.791 82.9493 146.763C83.056 146.699 83.152 146.606 83.2374 146.483ZM49.8693 130.683C45.8853 129.291 42.7974 132.395 42.3654 136.139C41.6934 141.873 43.4133 146.497 47.5253 150.011C50.3173 152.403 58.8214 155.115 56.8374 147.499C55.1654 141.099 53.7174 136.371 50.4534 131.147C50.3186 130.93 50.1123 130.766 49.8693 130.683ZM70.1094 161.163C73.3814 178.123 104.573 170.067 91.3253 158.259C87.72 155.049 83.36 153.419 78.2453 153.371C73.7653 153.323 69.1254 156.035 70.1094 161.163Z" fill="#FED0B2"/>
<path d="M119.381 75.1234C128.741 75.0434 138.141 75.8194 146.965 79.0274C153.434 81.3848 160.189 83.3261 167.229 84.8514C173.717 86.2594 174.261 94.0514 174.749 99.9474C175.24 105.835 175.189 111.934 174.597 118.243C169.024 110.403 161.912 106.137 153.261 105.443C141.109 104.467 143.597 118.027 150.653 116.083C160.917 113.243 165.317 118.227 174.173 121.995C173.885 125.681 173.32 129.547 172.477 133.595C172.149 135.171 171.221 136.243 170.309 137.419C168.821 130.465 164.648 126.881 157.789 126.667C157.517 126.657 157.29 126.753 157.109 126.955C156.848 127.238 156.936 127.499 157.373 127.739C143.925 131.083 147.549 155.435 160.821 151.883C164.957 150.779 167.173 146.555 167.717 142.507L168.189 142.779C168.24 142.808 168.297 142.825 168.355 142.828C168.413 142.831 168.472 142.821 168.525 142.798C168.579 142.774 168.626 142.739 168.664 142.694C168.701 142.649 168.728 142.596 168.741 142.539L169.085 141.115C171.229 142.371 170.677 149.091 170.613 151.235C170.601 151.577 170.462 151.902 170.221 152.145C169.981 152.388 169.658 152.532 169.317 152.547C165.293 152.723 153.893 156.075 153.941 161.515C153.981 166.467 160.589 168.683 164.573 168.859C164.747 168.867 164.917 168.917 165.068 169.005C165.219 169.093 165.346 169.216 165.439 169.364C165.532 169.512 165.587 169.68 165.601 169.854C165.615 170.028 165.586 170.203 165.517 170.363C161.837 179.075 155.045 186.531 146.029 188.939C144.482 189.35 143.957 189.851 144.453 190.443L139.437 192.083C137.096 192.089 134.685 192.246 132.205 192.555C125.501 193.387 119.533 193.035 113.077 192.219C112.304 192.257 111.709 192.171 111.293 191.963L101.413 189.003C102.352 188.651 103.216 188.649 104.005 188.995C104.211 189.084 104.439 189.105 104.657 189.056C104.875 189.007 105.073 188.891 105.221 188.723C107.341 186.339 109.973 184.403 110.373 181.051C110.4 180.827 110.304 180.681 110.085 180.611L108.213 180.019C107.877 179.918 107.768 179.702 107.885 179.371C108.301 178.235 108.138 177.265 107.397 176.459C107.141 176.177 107.189 175.966 107.541 175.827C108.053 175.63 108.744 175.585 109.613 175.691C110.29 176.854 111.221 177.582 112.405 177.875L113.053 179.091C113.186 179.342 113.386 179.521 113.653 179.627C118.173 181.419 129.765 183.507 134.037 179.435C134.293 179.195 134.256 179.022 133.925 178.915C132.906 178.585 132.602 178.139 133.013 177.579L134.581 178.323C134.826 178.441 135.072 178.443 135.317 178.331C138.138 177.057 140.197 175.043 141.493 172.291C141.941 171.331 142.269 168.795 140.485 169.283C140.389 168.683 131.381 170.171 130.213 170.291C130.165 170.083 130.306 169.923 130.637 169.811C130.69 169.795 130.696 169.769 130.653 169.731L130.485 169.587C130.437 169.545 130.44 169.51 130.493 169.483C132.045 168.811 130.773 166.555 130.181 165.267C130.131 165.157 130.057 165.059 129.965 164.98C129.872 164.901 129.763 164.844 129.645 164.811C128.056 164.379 126.946 163.697 126.317 162.763C132.44 159.611 133.437 154.702 129.309 148.035C129.19 147.845 129.01 147.7 128.799 147.623C128.588 147.546 128.357 147.54 128.144 147.609C127.931 147.677 127.747 147.814 127.622 147.998C127.496 148.183 127.437 148.404 127.453 148.627L127.493 149.163C126.053 147.606 124.456 147.403 122.701 148.555C122.493 148.689 122.282 148.691 122.069 148.563C118.869 146.603 122.613 142.571 120.213 140.763C120.112 140.69 120.031 140.592 119.976 140.479C119.922 140.366 119.896 140.241 119.901 140.115C120.146 134.59 120.261 129.062 120.245 123.531C120.205 110.091 120.909 96.4034 120.597 84.4914C120.56 83.1688 120.578 82.1394 120.653 81.4034C120.925 78.6994 119.309 77.4274 119.381 75.1234Z" fill="#FFC7A7"/>
<path d="M201.19 78.7394C204.158 93.2754 203.302 110.771 202.358 124.643C195.55 124.203 197.726 133.099 193.55 135.203C193.495 135.232 193.435 135.247 193.373 135.249C193.311 135.251 193.25 135.24 193.193 135.215C193.136 135.191 193.085 135.154 193.042 135.108C193 135.062 192.969 135.007 192.95 134.947C192.432 133.299 192.187 131.614 192.214 129.891C192.374 118.521 192.248 107.854 191.838 97.8914C191.694 94.4434 191.558 87.5474 189.374 84.5714C192.278 82.8914 196.086 83.0514 198.462 81.4354C199.624 80.6514 200.534 79.7528 201.19 78.7394Z" fill="#211B24"/>
<path d="M74.1976 118.683C77.0616 111.371 85.7816 106.299 92.9096 105.003C96.7176 104.315 100.534 103.923 103.59 105.907C107.238 108.291 106.142 114.683 101.718 115.443C100.923 115.582 99.4163 115.369 97.1976 114.803C92.2003 113.534 87.3656 114.238 82.6936 116.915C81.1576 117.787 75.4856 121.851 74.2376 119.427C74.1795 119.314 74.1459 119.189 74.139 119.061C74.1321 118.933 74.1521 118.804 74.1976 118.683Z" fill="#984025"/>
<path d="M174.597 118.243C175.141 119.486 175 120.737 174.173 121.995C165.317 118.227 160.917 113.243 150.653 116.083C143.597 118.027 141.109 104.467 153.261 105.443C161.912 106.137 169.024 110.403 174.597 118.243Z" fill="#984025"/>
<path d="M91.7572 126.948C89.5919 126.836 87.9652 127.3 86.8772 128.34C81.6292 133.38 80.4159 139.428 83.2372 146.484C83.1519 146.606 83.0559 146.7 82.9492 146.764C82.8997 146.791 82.8451 146.808 82.7887 146.813C82.7324 146.819 82.6755 146.813 82.6216 146.796C82.5677 146.779 82.5178 146.75 82.4751 146.713C82.4324 146.676 82.3977 146.631 82.3732 146.58C80.9572 143.556 78.8772 136.012 80.3012 132.972C81.9412 129.452 85.6212 126.284 89.6612 125.884C91.8692 125.665 92.5679 126.02 91.7572 126.948Z" fill="#FEFEFE"/>
<path d="M170.309 137.419C169.162 138.049 168.754 139.281 169.085 141.115L168.741 142.539C168.728 142.596 168.701 142.649 168.664 142.694C168.626 142.739 168.579 142.774 168.525 142.797C168.472 142.821 168.413 142.831 168.355 142.828C168.297 142.825 168.24 142.808 168.189 142.779L167.717 142.507C168.501 136.203 165.125 126.835 157.373 127.739C156.936 127.499 156.848 127.238 157.109 126.955C157.29 126.753 157.517 126.657 157.789 126.667C164.648 126.881 168.821 130.465 170.309 137.419Z" fill="#FEFEFE"/>
<path d="M91.757 126.948C101.845 128.692 103.677 146.196 95.221 150.684C90.4156 153.233 86.421 151.833 83.237 146.484C80.4157 139.428 81.629 133.38 86.877 128.34C87.965 127.3 89.5917 126.836 91.757 126.948ZM93.789 139.46C93.789 138.842 93.5437 138.25 93.1071 137.813C92.6705 137.377 92.0784 137.132 91.461 137.132C90.8436 137.132 90.2514 137.377 89.8148 137.813C89.3783 138.25 89.133 138.842 89.133 139.46C89.133 140.077 89.3783 140.669 89.8148 141.106C90.2514 141.542 90.8436 141.788 91.461 141.788C92.0784 141.788 92.6705 141.542 93.1071 141.106C93.5437 140.669 93.789 140.077 93.789 139.46Z" fill="#141319"/>
<path d="M157.373 127.739C165.125 126.835 168.501 136.203 167.717 142.507C167.173 146.555 164.957 150.779 160.821 151.883C147.549 155.435 143.925 131.083 157.373 127.739ZM158.607 142.249C158.891 142.238 159.17 142.164 159.428 142.031C159.686 141.898 159.918 141.71 160.11 141.476C160.302 141.242 160.451 140.968 160.548 140.669C160.645 140.37 160.688 140.051 160.675 139.732C160.65 139.088 160.397 138.479 159.972 138.04C159.547 137.6 158.986 137.366 158.412 137.389C158.127 137.401 157.848 137.475 157.59 137.608C157.332 137.74 157.1 137.929 156.908 138.163C156.716 138.396 156.568 138.671 156.471 138.97C156.373 139.269 156.33 139.587 156.343 139.906C156.369 140.551 156.622 141.16 157.046 141.599C157.471 142.039 158.032 142.273 158.607 142.249Z" fill="#141319"/>
<path d="M194.477 137.619C194.981 135.419 197.725 128.867 200.421 129.035C203.309 129.211 205.365 132.195 205.877 134.835C207.051 140.798 205.389 145.697 200.893 149.531C198.093 151.915 192.253 153.611 192.861 147.491C193.192 144.169 193.731 140.878 194.477 137.619Z" fill="#FC8E79"/>
<path d="M42.3652 136.14C42.7972 132.396 45.8852 129.292 49.8692 130.684C50.1121 130.767 50.3185 130.931 50.4532 131.148C53.7172 136.372 55.1652 141.1 56.8372 147.5C58.8212 155.116 50.3172 152.404 47.5252 150.012C43.4132 146.497 41.6932 141.873 42.3652 136.14Z" fill="#FBA98B"/>
<path d="M91.4613 141.787C92.747 141.787 93.7893 140.745 93.7893 139.459C93.7893 138.174 92.747 137.131 91.4613 137.131C90.1756 137.131 89.1333 138.174 89.1333 139.459C89.1333 140.745 90.1756 141.787 91.4613 141.787Z" fill="#FEFEFE"/>
<path d="M156.343 139.906C156.397 141.248 157.41 142.297 158.607 142.249C159.803 142.201 160.729 141.074 160.675 139.732C160.621 138.39 159.608 137.341 158.411 137.389C157.215 137.437 156.289 138.564 156.343 139.906Z" fill="#FEFEFE"/>
<path d="M126.317 162.763C124.429 162.374 123.082 161.771 122.277 160.955C122.042 160.721 122.074 160.537 122.373 160.403C127.498 158.115 129.205 154.369 127.493 149.163L127.453 148.627C127.437 148.404 127.496 148.183 127.622 147.998C127.747 147.814 127.931 147.677 128.144 147.609C128.357 147.54 128.588 147.546 128.799 147.623C129.01 147.7 129.19 147.845 129.309 148.035C133.437 154.702 132.44 159.611 126.317 162.763Z" fill="#FBA98B"/>
<path d="M182.677 152.939C184.445 159.347 172.829 169.987 166.733 168.603C165.698 168.369 165.402 167.769 165.845 166.803C167.888 162.35 169.528 157.739 170.765 152.971C170.84 152.683 171.024 152.518 171.317 152.475C174.896 151.921 178.48 151.897 182.069 152.403C182.389 152.451 182.592 152.63 182.677 152.939Z" fill="#FC8E79"/>
<path d="M91.3249 158.26C104.573 170.068 73.3809 178.124 70.1089 161.164C69.1249 156.036 73.7649 153.324 78.2449 153.372C83.3595 153.42 87.7195 155.049 91.3249 158.26Z" fill="#FBA98B"/>
<path d="M47.2931 156.635C51.8851 158.683 56.6024 159.195 61.4451 158.171C61.7118 158.118 61.9198 158.206 62.0691 158.435L66.2851 165.195C65.3651 166.523 67.2131 168.563 67.5331 170.131C68.7811 176.259 71.1011 181.974 74.4931 187.275C74.6904 187.59 74.6051 187.771 74.2371 187.819L71.6771 188.163C55.4931 182.891 46.2051 174.139 47.2931 156.635Z" fill="#3F333C"/>
<path d="M199.373 157.067C200.629 165.571 198.845 173.427 191.973 178.907C185.189 184.315 177.859 188.579 169.981 191.699C169.464 191.907 169.173 191.734 169.109 191.179L167.781 180.091C176.811 174.785 183.72 167.563 188.509 158.427C188.648 158.166 188.864 158.059 189.157 158.107C192.912 158.726 196.317 158.379 199.373 157.067Z" fill="#211B24"/>
<path d="M66.2851 165.195C69.9224 170.182 74.1144 174.473 78.8611 178.067C79.0264 178.19 79.0824 178.398 79.0291 178.691L77.4291 189.019C77.4115 189.136 77.3688 189.248 77.3038 189.347C77.2388 189.446 77.1531 189.529 77.0527 189.591C76.9523 189.654 76.8394 189.694 76.7221 189.708C76.6048 189.723 76.4856 189.711 76.3731 189.675L71.6771 188.163L74.2371 187.819C74.6051 187.771 74.6904 187.59 74.493 187.275C71.101 181.974 68.7811 176.259 67.5331 170.131C67.2131 168.563 65.3651 166.523 66.2851 165.195Z" fill="#2D242F"/>
<path d="M140.485 169.283C134.765 176.723 115.069 175.459 108.389 170.387C109.237 169.278 110.584 168.913 112.429 169.291C118.557 170.539 124.485 170.873 130.213 170.291C131.381 170.171 140.389 168.683 140.485 169.283Z" fill="#FEFEFE"/>
<path d="M133.013 177.58C128.581 175.852 116.669 174.74 112.405 177.876C111.221 177.582 110.291 176.854 109.613 175.692C108.072 173.66 107.664 171.892 108.389 170.388C115.069 175.46 134.765 176.724 140.485 169.284C142.269 168.796 141.941 171.332 141.493 172.292C140.197 175.044 138.138 177.057 135.317 178.332C135.072 178.444 134.826 178.441 134.581 178.324L133.013 177.58Z" fill="#211B24"/>
<path d="M133.013 177.579C132.603 178.139 132.907 178.585 133.925 178.915C134.256 179.022 134.293 179.195 134.037 179.435C129.765 183.507 118.173 181.419 113.653 179.627C113.387 179.521 113.187 179.342 113.053 179.091L112.405 177.875C116.669 174.739 128.581 175.851 133.013 177.579Z" fill="#FBA98B"/>
<path d="M111.293 191.963C111.709 192.171 112.304 192.257 113.077 192.219L112.821 192.475C112.726 192.57 112.663 192.693 112.641 192.826C112.62 192.96 112.641 193.097 112.701 193.219C115.149 198.201 118.741 202.102 123.477 204.923C123.701 205.057 123.707 205.195 123.493 205.339L123.013 205.675C116.208 206.118 110.997 203.537 107.381 197.931C107.157 197.579 106.109 194.795 107.109 195.067C107.178 195.085 107.25 195.088 107.321 195.077C107.391 195.066 107.458 195.04 107.518 195.002C107.577 194.963 107.628 194.913 107.666 194.854C107.705 194.795 107.73 194.729 107.741 194.659C107.88 193.806 107.504 193.403 106.613 193.451L111.293 191.963Z" fill="#FBA98B"/>
<path d="M139.438 192.084L141.661 192.588C141.309 192.732 141.107 192.95 141.054 193.244C141.011 193.484 141.11 193.63 141.35 193.684C143.742 194.188 139.661 198.988 139.021 199.708C134.429 203.548 128.878 206.596 123.014 205.676L123.494 205.34C123.707 205.196 123.701 205.057 123.477 204.924C118.741 202.102 115.149 198.201 112.701 193.22C112.641 193.098 112.62 192.96 112.642 192.827C112.663 192.693 112.726 192.57 112.821 192.476L113.077 192.22C119.533 193.036 125.501 193.388 132.205 192.556C134.685 192.246 137.096 192.089 139.438 192.084Z" fill="#FC8E79"/>
<path d="M141.661 192.587C147.144 193.537 152.395 194.825 157.413 196.452C167.869 200.556 175.838 206.307 178.846 217.707C178.906 217.938 178.879 218.182 178.769 218.392C178.66 218.603 178.476 218.764 178.254 218.844L169.477 222.067C169.328 221.939 169.139 221.865 168.909 221.844C168.637 221.817 168.541 221.673 168.621 221.411L168.765 220.979C168.835 220.75 168.819 220.529 168.717 220.315C164.611 211.638 157.755 207.321 148.15 207.363C144.982 207.371 142.541 209.411 139.261 209.931L143.957 207.683C144.185 207.575 144.382 207.412 144.53 207.209C144.678 207.005 144.773 206.768 144.807 206.519C144.84 206.269 144.811 206.015 144.721 205.78C144.631 205.545 144.484 205.336 144.294 205.172C142.55 203.668 140.557 202.571 138.317 201.883C137.971 201.777 137.891 201.569 138.077 201.259L139.021 199.707C139.661 198.987 143.742 194.187 141.35 193.683C141.11 193.63 141.011 193.483 141.054 193.243C141.107 192.95 141.309 192.731 141.661 192.587Z" fill="#EF8B24"/>
<path d="M106.613 193.451C107.504 193.403 107.88 193.806 107.741 194.659C107.731 194.729 107.705 194.795 107.667 194.854C107.628 194.913 107.578 194.964 107.518 195.002C107.459 195.04 107.391 195.066 107.321 195.077C107.251 195.089 107.179 195.085 107.109 195.067C106.109 194.795 107.157 197.579 107.381 197.931C110.997 203.537 116.208 206.118 123.013 205.675C128.877 206.595 134.429 203.547 139.021 199.707L138.077 201.259C137.891 201.569 137.971 201.777 138.317 201.883C140.557 202.571 142.549 203.667 144.293 205.171C144.484 205.336 144.631 205.545 144.721 205.78C144.81 206.015 144.84 206.269 144.807 206.519C144.773 206.768 144.678 207.005 144.53 207.209C144.381 207.412 144.185 207.575 143.957 207.683L139.261 209.931C133.309 212.742 126.835 213.667 119.837 212.707C110.125 211.369 103.648 206.185 100.405 197.155C100.245 196.723 100.509 196.203 99.5495 196.307C99.51 196.313 99.4722 196.326 99.4386 196.348C99.4051 196.369 99.3766 196.398 99.3553 196.431C99.3339 196.465 99.3202 196.503 99.315 196.542C99.3099 196.581 99.3134 196.622 99.3255 196.659C104.213 212.635 121.005 216.387 135.389 212.571C135.667 212.497 135.853 212.595 135.949 212.867C137.507 217.379 138.197 222.025 138.021 226.803C138.005 227.134 137.835 227.297 137.509 227.291C136.901 227.286 136.288 227.291 135.669 227.307C135.403 227.313 135.195 227.425 135.045 227.643C134.779 228.027 134.968 228.454 135.613 228.923C115.272 230.241 95.6241 227.265 76.6695 219.995L72.8615 218.627C72.6747 218.559 72.5215 218.42 72.4336 218.242C72.3458 218.063 72.33 217.858 72.3895 217.667C77.4375 201.811 91.4775 195.779 106.613 193.451Z" fill="#FEB852"/>
<path d="M139.261 209.931C142.541 209.411 144.981 207.371 148.149 207.363C157.755 207.321 164.611 211.638 168.717 220.315C168.819 220.529 168.835 220.75 168.765 220.979L168.621 221.411C168.541 221.673 168.637 221.817 168.909 221.843C169.139 221.865 169.328 221.939 169.477 222.067C158.539 225.811 147.251 228.097 135.613 228.923C134.968 228.454 134.779 228.027 135.045 227.643C135.195 227.425 135.403 227.313 135.669 227.307C136.288 227.291 136.901 227.286 137.509 227.291C137.835 227.297 138.005 227.134 138.021 226.803C138.197 222.025 137.507 217.379 135.949 212.867C135.853 212.595 135.667 212.497 135.389 212.571C121.005 216.387 104.213 212.635 99.3252 196.659C99.3132 196.621 99.3096 196.581 99.3148 196.542C99.3199 196.502 99.3337 196.464 99.355 196.431C99.3764 196.397 99.4048 196.369 99.4384 196.347C99.472 196.326 99.5098 196.312 99.5492 196.307C100.509 196.203 100.245 196.723 100.405 197.155C103.648 206.185 110.125 211.369 119.837 212.707C126.835 213.667 133.309 212.742 139.261 209.931Z" fill="#F29A32"/>
</svg>
