<svg width="256" height="256" viewBox="0 0 256 256" fill="none" xmlns="http://www.w3.org/2000/svg">
<path d="M38.2598 94.1602C36.6998 105.528 37.6278 119.864 38.4598 129.96" stroke="#FED0A1" stroke-width="2"/>
<path d="M38.4594 129.96C37.5261 137.374 35.3047 144.374 31.7954 150.96" stroke="#FBC9A0" stroke-width="2"/>
<path d="M31.7954 150.96C26.4301 160.011 18.8994 166.216 9.20342 169.576C8.72876 169.742 8.67276 169.998 9.03542 170.344C14.5714 175.571 20.8114 179.763 27.7554 182.92C27.8594 182.967 27.9473 183.043 28.0085 183.139C28.0697 183.236 28.1014 183.348 28.0997 183.461C28.098 183.575 28.0629 183.686 27.9989 183.781C27.9349 183.875 27.8447 183.949 27.7394 183.992L17.1794 188.56C17.1372 188.577 17.101 188.606 17.0751 188.643C17.0491 188.68 17.0344 188.725 17.0328 188.771C17.0311 188.817 17.0425 188.863 17.0656 188.903C17.0887 188.944 17.1226 188.977 17.1634 189L25.9954 193.68" stroke="#FED6AA" stroke-width="2"/>
<path d="M25.9951 193.68C35.8511 198.336 45.7471 200.768 56.5871 201.8C59.8031 202.104 62.9765 202.421 66.1071 202.752" stroke="#FBC9A0" stroke-width="2"/>
<path d="M66.1079 202.752C66.2999 203.786 67.3692 204.725 69.3159 205.568" stroke="#978D91" stroke-width="2"/>
<path d="M69.3156 205.568C69.3316 205.941 69.2516 206.221 69.0756 206.408C69.0328 206.454 68.9803 206.49 68.9218 206.513C68.8634 206.536 68.8004 206.546 68.7372 206.542C68.674 206.538 68.6122 206.521 68.5559 206.491C68.4997 206.461 68.4505 206.419 68.4116 206.368C67.6223 205.355 66.6223 204.76 65.4116 204.584C65.1023 204.542 64.8036 204.581 64.5156 204.704L60.4036 206.488C59.6463 206.819 59.5663 207.269 60.1636 207.84C65.9556 213.355 72.1343 218.189 78.6996 222.344C114.076 244.752 164.124 240.512 191.836 207.928C192.369 207.299 192.26 206.816 191.508 206.48L184.028 203.128" stroke="#E8EEEE" stroke-width="2"/>
<path d="M184.027 203.128L184.459 202.56" stroke="#978D91" stroke-width="2"/>
<path d="M184.459 202.56L184.683 202.384C184.865 202.24 185.07 202.181 185.299 202.208C186.91 202.395 188.835 202.405 191.075 202.24C199.598 201.611 207.806 200.299 215.699 198.304" stroke="#F7BF9A" stroke-width="2"/>
<path d="M215.7 198.304C223.844 196.326 231.684 193.203 239.22 188.936C239.272 188.907 239.314 188.865 239.342 188.813C239.371 188.761 239.384 188.702 239.381 188.643C239.377 188.583 239.358 188.525 239.324 188.475C239.29 188.426 239.243 188.386 239.188 188.36L227.964 183.368C227.914 183.347 227.872 183.312 227.842 183.266C227.813 183.221 227.798 183.168 227.799 183.114C227.799 183.059 227.816 183.007 227.847 182.962C227.878 182.918 227.922 182.884 227.972 182.864C235.444 179.744 241.954 175.248 247.5 169.376C247.751 169.104 247.703 168.907 247.356 168.784C230.588 162.704 222.612 149.552 219.66 132.56" stroke="#FED0A1" stroke-width="2"/>
<path d="M219.66 132.56C218.196 117.608 219.028 102.56 216.644 87.7516" stroke="#FBC9A0" stroke-width="2"/>
<path d="M216.643 87.7519C206.187 33.9279 147.339 7.71194 98.0993 23.9839C65.1553 34.8639 42.1233 58.6959 38.2593 94.1599" stroke="#FED6AA" stroke-width="2"/>
<path d="M216.644 87.7522C213.94 89.2162 217.676 91.0243 215.7 92.2323C215.433 92.3976 215.241 92.3362 215.124 92.0482C213.684 88.6722 208.012 85.0803 205.1 83.6723C188.804 75.8403 172.924 69.7443 163.276 53.7283C162.422 52.3096 160.777 49.0883 158.34 44.0643C158.148 43.6803 157.9 43.5603 157.564 43.3363C157.444 43.2565 157.343 43.1496 157.27 43.0235C157.197 42.8975 157.152 42.7555 157.14 42.6083L156.172 31.8002C156.167 31.7557 156.148 31.714 156.117 31.6812C156.087 31.6484 156.046 31.6264 156.002 31.6183C155.958 31.6102 155.913 31.6165 155.873 31.6364C155.833 31.6562 155.8 31.6884 155.78 31.7282C151.049 40.5976 144.94 48.2856 137.452 54.7923" stroke="#FBA24C" stroke-width="2"/>
<path d="M137.451 54.7922C134.859 55.6296 132.401 56.7842 130.075 58.2562C109.427 71.3282 85.5473 74.4242 62.7313 81.7682C53.4273 84.7682 44.7473 89.7442 39.7233 98.4642C39.6805 98.5348 39.6161 98.5897 39.5396 98.6208C39.4632 98.6518 39.3788 98.6575 39.2989 98.6368C39.219 98.6162 39.1479 98.5704 39.0961 98.5061C39.0443 98.4419 39.0145 98.3627 39.0113 98.2802C38.9953 97.3042 40.1713 93.8802 38.2593 94.1602" stroke="#FEA94C" stroke-width="2"/>
<path d="M48.4351 118.512C42.1151 120.264 40.8191 124.168 38.9951 129.96" stroke="#FFBB7F" stroke-width="2"/>
<path d="M38.9955 129.96H38.4595" stroke="#FB9B43" stroke-width="2"/>
<path d="M219.659 132.56C219.211 134.518 218.883 137.667 218.675 142.008C218.558 144.51 217.854 149.302 216.563 156.384" stroke="#FB9B43" stroke-width="2"/>
<path d="M216.563 156.384C215.571 155.776 214.523 155.613 213.419 155.896C213.364 155.91 213.307 155.911 213.251 155.899C213.196 155.886 213.144 155.86 213.101 155.823C213.058 155.786 213.024 155.739 213.003 155.686C212.982 155.634 212.974 155.576 212.979 155.52L213.259 153.12C213.286 152.88 213.179 152.76 212.939 152.76H208.835C208.553 152.76 208.502 152.651 208.683 152.432L209.027 152C209.145 151.861 209.113 151.778 208.931 151.752C206.763 151.48 209.715 148.552 210.539 148.2C210.897 148.05 210.913 147.872 210.587 147.664L209.563 147.024C209.453 146.956 209.374 146.848 209.343 146.722C209.311 146.596 209.33 146.464 209.395 146.352L211.299 143.008" stroke="#F48A3C" stroke-width="2"/>
<path d="M211.3 143.008C217.7 133.976 215.948 119.184 203.388 116.952" stroke="#FCB47F" stroke-width="2"/>
<path d="M203.388 116.952C204.374 111.197 203.841 105.821 201.788 100.824C199.404 95.024 191.82 92.024 186.892 89.264C169.588 79.568 159.236 64.464 156.7 44.432C156.691 44.3653 156.66 44.3034 156.612 44.256C156.564 44.2087 156.502 44.1785 156.435 44.1703C156.369 44.162 156.301 44.1762 156.243 44.2105C156.185 44.2449 156.14 44.2974 156.116 44.36C145.34 72.544 112.564 89.24 84.6196 94.136C77.9529 95.3094 71.0649 94.6587 63.9556 92.184" stroke="#F48A3C" stroke-width="2"/>
<path d="M63.9556 92.1842C73.1662 88.0669 82.5209 84.3176 92.0196 80.9362C98.9209 78.4776 103.889 76.5469 106.924 75.1442C117.54 70.2322 129.932 63.8642 137.452 54.7922" stroke="#FB9B43" stroke-width="2"/>
<path d="M203.388 116.952C200.769 116.808 198.351 117.904 196.132 120.24C196.104 120.271 196.068 120.293 196.028 120.304C195.987 120.315 195.945 120.315 195.905 120.302C195.865 120.289 195.83 120.265 195.804 120.233C195.777 120.201 195.761 120.161 195.756 120.12L194.54 111.176" stroke="#F7AA78" stroke-width="2"/>
<path d="M194.54 111.176C191.297 107.059 187.537 103.416 183.26 100.248C169.34 89.9279 159.444 73.9839 154.164 57.5999C154.146 57.5427 154.112 57.4917 154.067 57.4526C154.022 57.4135 153.966 57.3879 153.907 57.3788C153.848 57.3696 153.787 57.3772 153.732 57.4008C153.677 57.4243 153.63 57.4628 153.596 57.5119C141.524 74.2879 125.132 85.4239 106.572 97.0959C101.14 100.512 95.5078 103.432 89.8678 106.472C81.5078 110.992 71.1638 112.696 61.8198 113.688C60.9184 113.784 60.5211 114.397 60.6278 115.528" stroke="#F49B65" stroke-width="2"/>
<path d="M60.628 115.528C59.3107 118.739 58.5294 122.144 58.284 125.744C58.2883 125.801 58.2696 125.858 58.2321 125.902C58.1946 125.945 58.1413 125.972 58.084 125.976C58.0268 125.98 57.9701 125.962 57.9266 125.924C57.8831 125.887 57.8563 125.833 57.852 125.776C56.9294 120.907 53.7907 118.485 48.436 118.512" stroke="#F7AA78" stroke-width="2"/>
<path d="M48.436 118.512L50.132 117.472C50.2441 117.404 50.3363 117.308 50.3995 117.194C50.4627 117.081 50.4946 116.953 50.492 116.824C50.396 105.72 51.468 95.3443 63.956 92.1843" stroke="#F7913C" stroke-width="2"/>
<path d="M45.9155 146.92C46.9982 149.427 48.0035 151.918 48.9315 154.392C53.3155 166.115 60.4089 175.838 70.2115 183.56C74.8462 187.219 80.0222 190.726 85.7395 194.08" stroke="#F48A3C" stroke-width="2"/>
<path d="M85.7399 194.08C78.5772 196.661 72.0332 199.552 66.1079 202.752" stroke="#945833" stroke-width="2"/>
<path d="M25.9951 193.68L39.6351 188.192C39.6826 188.172 39.724 188.141 39.7555 188.1C39.787 188.06 39.8073 188.012 39.8146 187.961C39.8219 187.91 39.8158 187.858 39.7969 187.81C39.7781 187.762 39.7471 187.72 39.7071 187.688C31.8431 181.2 30.0911 168.336 31.2511 158.952C31.5711 156.368 31.3791 153.64 31.7951 150.96" stroke="#FBA24C" stroke-width="2"/>
<path d="M211.299 143.008C206.499 148.816 200.582 150.442 193.547 147.888C193.375 147.826 193.187 147.829 193.017 147.895C192.848 147.961 192.709 148.087 192.627 148.248C181.395 170.13 164.128 183.312 140.827 187.792" stroke="#F7AA78" stroke-width="2"/>
<path d="M140.827 187.792C130.811 190.331 120.822 190.254 110.859 187.56" stroke="#FCC5A8" stroke-width="2"/>
<path d="M110.86 187.56C89.2035 182.328 71.6355 169.312 62.4675 149.184C62.4139 149.068 62.3207 148.973 62.2039 148.918C62.0871 148.862 61.954 148.849 61.8275 148.88C56.3955 150.216 50.5475 150.296 45.9155 146.92" stroke="#F7AA78" stroke-width="2"/>
<path d="M45.9158 146.92C40.6411 142.632 38.3344 136.979 38.9958 129.96" stroke="#FCB47F" stroke-width="2"/>
<path d="M184.459 202.56L184.315 202.288C184.225 202.102 184.089 201.958 183.907 201.856C172.387 195.376 160.017 191.352 146.795 189.784" stroke="#8F4E2D" stroke-width="2"/>
<path d="M146.795 189.784L140.827 187.792" stroke="#F49B65" stroke-width="2"/>
<path d="M215.699 198.304C215.075 197.275 214.659 196.31 214.451 195.408C214.131 194 213.635 193.416 212.819 192.368C212.652 192.154 212.552 191.899 212.531 191.632C212.43 190.235 212.358 188.838 212.315 187.44C212.251 185.472 213.219 183.792 212.763 181.536C212.71 181.27 212.598 181.032 212.427 180.824L210.475 178.472C210.321 178.28 210.286 178.07 210.371 177.84C212.899 170.838 214.963 163.686 216.563 156.384" stroke="#F7913C" stroke-width="2"/>
<path d="M194.539 111.176C187.169 106.712 181.953 103.016 178.891 100.088C169.078 90.7064 160.441 80.293 152.979 68.8477C152.909 68.7406 152.817 68.6497 152.708 68.5807C152.6 68.5117 152.479 68.4663 152.352 68.4474C152.225 68.4286 152.096 68.4366 151.972 68.4711C151.849 68.5057 151.734 68.5658 151.635 68.6477C145.131 74.1197 138.427 80.6157 132.075 85.1997C120.753 93.3704 108.579 100.029 95.5554 105.176C91.3154 106.848 88.0114 108.784 84.5154 111.224C82.4914 112.64 80.9554 113.712 78.3714 113.968C72.4621 114.554 66.5474 115.074 60.6274 115.528" stroke="#FCC5A8" stroke-width="2"/>
<path d="M184.027 203.128C173.494 211.736 161.558 217.47 148.219 220.328C119.537 226.483 93.2354 221.563 69.3154 205.568" stroke="#807D81" stroke-width="2"/>
<path d="M110.86 187.56C110.881 187.886 110.822 188.182 110.684 188.448" stroke="#F49B65" stroke-width="2"/>
<path d="M110.684 188.448C108.924 188.646 107.382 189.15 106.06 189.96" stroke="#F7AA78" stroke-width="2"/>
<path d="M106.06 189.96C98.6037 190.878 91.8304 192.251 85.7397 194.08" stroke="#8F4E2D" stroke-width="2"/>
<path d="M146.796 189.784C146.711 189.806 146.625 189.827 146.54 189.848" stroke="#94695C" stroke-width="2"/>
<path d="M146.54 189.848C146.321 190.382 146.294 191.107 146.46 192.025C146.473 192.098 146.468 192.174 146.444 192.245C146.42 192.316 146.379 192.379 146.324 192.43C146.268 192.48 146.201 192.516 146.128 192.533C146.056 192.55 145.98 192.549 145.908 192.529L145.212 192.336C144.952 192.264 144.671 192.278 144.412 192.377C132.844 196.737 121.5 197.032 110.98 190C110.569 189.723 110.47 189.206 110.684 188.448" stroke="#FCC5A8" stroke-width="2"/>
<path d="M146.54 189.848C147.78 190.352 147.564 190.664 147.396 191.6C142.972 216.512 107.996 214.688 106.06 189.96" stroke="#977870" stroke-width="2"/>
<path d="M65.1793 52.8082C79.5953 61.6322 135.899 36.4482 121.411 28.8162C118.718 27.3922 115.787 26.7362 112.619 26.8482C104.459 27.1362 95.4273 27.5842 87.9953 29.9602C78.7899 32.9095 70.6326 37.8162 63.5233 44.6802C60.9953 47.1282 62.5713 51.2162 65.1793 52.8082Z" stroke="#FFBA6A" stroke-width="2"/>
<path d="M155.428 100.744C161.796 101.92 168.284 102.512 174.66 103.816C175.364 103.96 175.868 104.008 176.172 103.96C176.374 103.929 176.563 103.843 176.719 103.712C176.875 103.58 176.992 103.407 177.056 103.213C177.119 103.019 177.128 102.811 177.081 102.613C177.034 102.414 176.932 102.232 176.788 102.088C171.444 96.6878 162.86 91.6878 155.14 91.4798C154.857 91.4691 154.601 91.5518 154.372 91.7278C151.564 93.9198 151.092 99.9358 155.428 100.744Z" stroke="#E09586" stroke-width="2"/>
<path d="M148.644 128.448C151.46 143.968 172.364 142.537 175.828 129.129" stroke="#FFE9DD" stroke-width="2"/>
<path d="M175.828 129.128L178.268 126.336C178.428 126.155 178.465 125.952 178.38 125.728L177.948 124.584C177.932 124.544 177.934 124.499 177.952 124.459C177.97 124.419 178.003 124.386 178.044 124.368C179.852 123.589 180.75 122.813 180.74 122.04C180.737 121.935 180.709 121.833 180.657 121.742C180.605 121.651 180.532 121.574 180.443 121.518C180.354 121.463 180.253 121.43 180.148 121.424C180.043 121.417 179.939 121.436 179.844 121.48C178.492 122.112 177.884 121.856 177.116 120.608C170.58 110.064 153.46 105.808 148.524 120.536C147.596 123.299 147.636 125.936 148.644 128.448" stroke="#806B5E" stroke-width="2"/>
<path d="M175.828 129.128C176.164 123.128 173.766 118.822 168.636 116.208C168.385 116.08 168.348 116.126 168.524 116.344C173.276 122.36 172.316 132.672 163.892 135.08" stroke="#807F7F" stroke-width="2"/>
<path d="M163.891 135.08C169.177 132.099 171.305 127.818 170.275 122.24C169.742 119.376 168.105 117.448 165.363 116.456C165.312 116.438 165.257 116.435 165.205 116.448C165.152 116.461 165.105 116.49 165.069 116.531C165.033 116.571 165.009 116.621 165.002 116.675C164.995 116.729 165.003 116.783 165.027 116.832C165.529 117.893 166.137 118.896 166.851 119.84C167.001 120.037 167.097 120.261 167.139 120.512C168.835 129.816 156.651 134.776 153.395 125.888C153.294 125.616 153.102 125.504 152.819 125.552L151.651 125.744" stroke="#371B11" stroke-width="2"/>
<path d="M151.652 125.744L151.596 120.512C151.599 120.46 151.585 120.409 151.554 120.367C151.523 120.326 151.479 120.297 151.429 120.285C151.378 120.274 151.326 120.28 151.28 120.304C151.234 120.328 151.199 120.368 151.18 120.416C149.937 122.869 149.092 125.546 148.644 128.448" stroke="#807F7F" stroke-width="2"/>
<path d="M151.652 125.744C151.321 130.085 152.862 133.141 156.276 134.912C158.985 136.314 161.524 136.37 163.892 135.08" stroke="#B69990" stroke-width="2"/>
<path d="M76.8037 129.976C77.8517 134.296 80.8997 137.176 85.0837 138.928C94.5237 142.88 100.98 139.464 104.452 128.68" stroke="#FFE9DD" stroke-width="2"/>
<path d="M104.452 128.68C106.348 107.32 81.9719 106.688 74.3959 122.912C74.3687 122.97 74.3257 123.019 74.2719 123.053C74.2181 123.087 74.1556 123.105 74.0919 123.105C74.0281 123.105 73.9657 123.087 73.9119 123.053C73.858 123.019 73.815 122.97 73.7879 122.912C73.4785 122.24 72.9799 122.014 72.2919 122.232C71.9879 122.334 71.8732 122.539 71.9479 122.848C72.2199 124.054 72.8865 124.998 73.9479 125.68C74.1879 125.835 74.3825 126.035 74.5319 126.28L76.8039 129.976" stroke="#806B5E" stroke-width="2"/>
<path d="M104.452 128.68C103.508 125.918 102.372 123.443 101.044 121.256C101.025 121.213 100.991 121.178 100.947 121.16C100.904 121.142 100.855 121.142 100.811 121.16C100.768 121.178 100.733 121.213 100.715 121.257C100.697 121.3 100.697 121.349 100.716 121.392C101.553 124.747 101.446 128.07 100.396 131.36" stroke="#807F7F" stroke-width="2"/>
<path d="M100.395 131.36C100.219 131.467 100.049 131.523 99.8833 131.528C99.59 131.539 99.4887 131.403 99.5793 131.12C100.385 128.651 100.587 126.131 100.187 123.56C100.185 123.513 100.165 123.469 100.13 123.438C100.096 123.406 100.05 123.39 100.003 123.392C99.9567 123.394 99.9127 123.415 99.8812 123.449C99.8497 123.484 99.8332 123.529 99.8353 123.576C99.4353 128.064 96.1633 132.2 91.3073 131.216C86.7073 130.28 85.2833 125.056 85.2193 120.72C85.2033 119.904 85.4433 119.76 86.0273 119.272C86.0901 119.221 86.1401 119.155 86.1736 119.081C86.2072 119.008 86.2234 118.927 86.2211 118.845C86.2188 118.764 86.198 118.683 86.1603 118.61C86.1226 118.537 86.0689 118.474 86.0033 118.424L85.2033 117.824C85.0918 117.737 84.9509 117.698 84.8096 117.712C84.6682 117.727 84.5372 117.796 84.4433 117.904L82.0273 120.728" stroke="#371B11" stroke-width="2"/>
<path d="M82.0283 120.728C82.5509 119.032 83.4549 117.574 84.7403 116.352C85.0816 116.027 85.0363 115.958 84.6043 116.144C78.9563 118.55 76.3563 123.16 76.8043 129.976" stroke="#807F7F" stroke-width="2"/>
<path d="M82.0276 120.728C80.5236 125.261 81.0169 129.112 83.5076 132.28C87.9636 137.944 97.0356 138.56 100.396 131.36" stroke="#B69990" stroke-width="2"/>
<path d="M198.404 125.104C203.668 122.688 207.1 125.512 209.452 129.936C209.459 129.948 209.471 129.958 209.486 129.962C209.5 129.967 209.515 129.967 209.528 129.962C209.54 129.956 209.55 129.946 209.553 129.934C209.557 129.922 209.555 129.908 209.548 129.896C208.108 125.56 202.436 121 198.332 125C198.151 125.176 198.175 125.211 198.404 125.104Z" stroke="#F7BD9D" stroke-width="2"/>
<path d="M55.6437 125.576C49.3504 123.843 45.4597 126.032 43.9717 132.144C43.9626 132.201 43.9746 132.26 44.0056 132.31C44.0366 132.359 44.0844 132.395 44.1402 132.412C44.1959 132.428 44.2558 132.424 44.3087 132.4C44.3616 132.376 44.4039 132.333 44.4277 132.28C47.0117 125.336 49.2437 126.392 55.6197 125.84C55.6502 125.836 55.6784 125.822 55.6997 125.799C55.721 125.777 55.7341 125.748 55.7369 125.718C55.7396 125.687 55.7319 125.656 55.715 125.631C55.6981 125.605 55.673 125.586 55.6437 125.576Z" stroke="#FFCCA7" stroke-width="2"/>
<path d="M123.284 143.264C122.764 149.072 135.188 150.52 135.972 142.344C135.99 142.134 135.939 141.923 135.826 141.745C135.713 141.567 135.546 141.43 135.348 141.356C135.151 141.281 134.935 141.274 134.732 141.334C134.53 141.394 134.353 141.518 134.228 141.688C131.628 145.288 127.316 146.728 123.9 143.056C123.854 143.003 123.794 142.966 123.727 142.948C123.659 142.93 123.588 142.932 123.523 142.954C123.457 142.976 123.399 143.018 123.356 143.073C123.314 143.128 123.289 143.194 123.284 143.264Z" stroke="#FFCCA7" stroke-width="2"/>
<path d="M182.646 148.242C182.67 147.519 182.437 146.795 181.961 146.111C181.484 145.428 180.773 144.797 179.869 144.255C178.964 143.714 177.884 143.273 176.689 142.956C175.495 142.64 174.209 142.455 172.906 142.411C170.274 142.324 167.731 142.82 165.836 143.79C163.941 144.76 162.849 146.124 162.801 147.583C162.777 148.306 163.01 149.029 163.486 149.713C163.963 150.397 164.674 151.028 165.578 151.569C166.483 152.111 167.563 152.552 168.758 152.869C169.952 153.185 171.238 153.37 172.541 153.413C175.173 153.501 177.716 153.005 179.611 152.035C181.506 151.065 182.598 149.701 182.646 148.242Z" stroke="#F6B59D" stroke-width="2"/>
<path d="M89.9282 147.669C89.7881 146.314 88.6394 145.12 86.7347 144.348C84.8299 143.577 82.3252 143.291 79.7715 143.555C78.5071 143.686 77.2686 143.948 76.1269 144.325C74.9853 144.702 73.9627 145.188 73.1176 145.755C72.2725 146.322 71.6215 146.959 71.2016 147.628C70.7818 148.298 70.6014 148.988 70.6707 149.659C70.8107 151.014 71.9595 152.209 73.8642 152.98C75.7689 153.752 78.2737 154.037 80.8274 153.773C82.0918 153.642 83.3303 153.381 84.4719 153.003C85.6136 152.626 86.6362 152.14 87.4813 151.573C88.3264 151.006 88.9774 150.37 89.3973 149.7C89.8171 149.03 89.9975 148.34 89.9282 147.669Z" stroke="#F6B59D" stroke-width="2"/>
<path d="M106.252 152.048C104.439 152.512 103.516 153.552 103.484 155.168C103.244 165.8 111.972 174.432 121.756 176.84" stroke="#E09586" stroke-width="2"/>
<path d="M121.755 176.84C128.203 178.53 134.521 177.12 140.707 172.608" stroke="#EA9E8E" stroke-width="2"/>
<path d="M140.708 172.608C144.772 169.371 147.687 164.96 149.452 159.376C150.092 157.376 150.588 153.992 148.508 152.688C147.255 151.899 145.719 151.984 143.9 152.944" stroke="#E09586" stroke-width="2"/>
<path d="M143.899 152.944C134.865 153.936 126.049 154.198 117.451 153.728C115.734 153.632 113.862 153.403 111.835 153.04C109.979 152.704 108.118 152.374 106.251 152.048" stroke="#FFE9DD" stroke-width="2"/>
<path d="M143.899 152.944C132.227 160.8 117.027 161.568 106.251 152.048" stroke="#E0A9A8" stroke-width="2"/>
<path d="M140.708 172.608C136.719 167.936 131.556 165.669 125.22 165.808C120.164 165.92 115.924 167.77 112.5 171.36C112.444 171.419 112.402 171.491 112.379 171.569C112.355 171.648 112.35 171.731 112.364 171.811C112.378 171.892 112.411 171.969 112.459 172.035C112.508 172.1 112.571 172.154 112.644 172.191L121.756 176.839" stroke="#CB5F59" stroke-width="2"/>
<path d="M158.368 116.779C158.043 116.185 157.458 115.765 156.741 115.612C156.024 115.459 155.235 115.585 154.546 115.962C153.858 116.339 153.327 116.936 153.069 117.622C152.812 118.309 152.851 119.028 153.176 119.622C153.501 120.215 154.086 120.635 154.803 120.788C155.519 120.941 156.309 120.816 156.997 120.439C157.686 120.062 158.217 119.464 158.474 118.778C158.731 118.091 158.693 117.372 158.368 116.779Z" stroke="#807F7F" stroke-width="2"/>
<path d="M99.3718 119.24C99.3718 118.512 99.0827 117.814 98.5681 117.3C98.0535 116.785 97.3555 116.496 96.6278 116.496C96.2674 116.496 95.9106 116.567 95.5777 116.705C95.2448 116.843 94.9423 117.045 94.6875 117.3C94.4327 117.555 94.2306 117.857 94.0927 118.19C93.9548 118.523 93.8838 118.88 93.8838 119.24C93.8838 119.6 93.9548 119.957 94.0927 120.29C94.2306 120.623 94.4327 120.926 94.6875 121.18C94.9423 121.435 95.2448 121.637 95.5777 121.775C95.9106 121.913 96.2674 121.984 96.6278 121.984C97.3555 121.984 98.0535 121.695 98.5681 121.18C99.0827 120.666 99.3718 119.968 99.3718 119.24Z" stroke="#807F7F" stroke-width="2"/>
<path d="M101.324 194.4C104.092 207.912 115.26 217.072 129.252 216.128C142.444 215.24 152.244 204.432 152.604 191.368C152.614 191.096 152.484 190.96 152.212 190.96H151.9C151.622 190.96 151.473 191.099 151.452 191.376C149.316 218.184 115.724 223.648 104.46 200.032C103.292 197.584 102.628 194.312 101.884 191.544C101.864 191.476 101.823 191.415 101.768 191.37C101.713 191.325 101.646 191.298 101.575 191.293C101.505 191.287 101.435 191.304 101.376 191.341C101.316 191.377 101.27 191.431 101.244 191.496C100.764 192.616 101.108 193.344 101.324 194.4Z" stroke="#978D91" stroke-width="2"/>
<path d="M216.643 87.7519C213.939 89.2159 217.675 91.0239 215.699 92.2319C215.433 92.3973 215.241 92.3359 215.123 92.0479C213.683 88.6719 208.011 85.08 205.099 83.672C188.803 75.84 172.923 69.7439 163.275 53.7279C162.422 52.3093 160.777 49.0879 158.339 44.0639C158.147 43.6799 157.899 43.5599 157.563 43.3359C157.443 43.2562 157.343 43.1493 157.27 43.0232C157.196 42.8971 157.152 42.7552 157.139 42.6079L156.171 31.7999C156.166 31.7554 156.147 31.7137 156.117 31.6809C156.086 31.6481 156.046 31.6261 156.002 31.618C155.958 31.6099 155.913 31.6162 155.872 31.636C155.832 31.6559 155.8 31.6881 155.779 31.7279C151.049 40.5973 144.939 48.2853 137.451 54.792C134.859 55.6293 132.401 56.7839 130.075 58.2559C109.427 71.3279 85.5473 74.424 62.7313 81.768C53.4273 84.768 44.7473 89.7439 39.7233 98.464C39.6805 98.5345 39.6161 98.5894 39.5396 98.6205C39.4632 98.6516 39.3788 98.6572 39.2989 98.6366C39.219 98.6159 39.1479 98.5701 39.0961 98.5058C39.0443 98.4416 39.0145 98.3624 39.0113 98.2799C38.9953 97.3039 40.1713 93.8799 38.2593 94.1599C42.1233 58.6959 65.1553 34.8639 98.0993 23.9839C147.339 7.71194 206.187 33.9279 216.643 87.7519ZM65.1793 52.8079C79.5953 61.6319 135.899 36.448 121.411 28.8159C118.718 27.3919 115.787 26.7359 112.619 26.8479C104.459 27.1359 95.4273 27.5839 87.9953 29.9599C78.7899 32.9093 70.6326 37.8159 63.5233 44.6799C60.9953 47.1279 62.5713 51.2159 65.1793 52.8079Z" fill="#FEAF55"/>
<path d="M65.1793 52.8082C62.5713 51.2162 60.9953 47.1282 63.5233 44.6802C70.6326 37.8162 78.7899 32.9095 87.9953 29.9602C95.4273 27.5842 104.459 27.1362 112.619 26.8482C115.787 26.7362 118.718 27.3922 121.411 28.8162C135.899 36.4482 79.5953 61.6322 65.1793 52.8082Z" fill="#FFC47E"/>
<path d="M216.644 87.7522C219.028 102.56 218.196 117.608 219.66 132.56C219.212 134.518 218.884 137.667 218.676 142.008C218.558 144.51 217.854 149.302 216.564 156.384C215.572 155.776 214.524 155.614 213.42 155.896C213.365 155.911 213.307 155.912 213.251 155.899C213.196 155.886 213.144 155.86 213.101 155.823C213.058 155.787 213.024 155.74 213.003 155.687C212.982 155.634 212.974 155.577 212.98 155.52L213.26 153.12C213.286 152.88 213.18 152.76 212.94 152.76H208.836C208.553 152.76 208.502 152.651 208.684 152.432L209.028 152C209.145 151.862 209.113 151.779 208.932 151.752C206.764 151.48 209.716 148.552 210.54 148.2C210.897 148.051 210.913 147.872 210.588 147.664L209.564 147.024C209.453 146.956 209.374 146.848 209.343 146.722C209.311 146.597 209.33 146.464 209.396 146.352L211.3 143.008C217.7 133.976 215.948 119.184 203.388 116.952C204.374 111.198 203.841 105.822 201.788 100.824C199.404 95.0242 191.82 92.0243 186.892 89.2643C169.588 79.5683 159.236 64.4643 156.7 44.4323C156.691 44.3655 156.66 44.3036 156.612 44.2563C156.564 44.2089 156.502 44.1787 156.435 44.1705C156.369 44.1623 156.301 44.1764 156.243 44.2108C156.185 44.2451 156.14 44.2977 156.116 44.3603C145.34 72.5443 112.564 89.2403 84.6196 94.1363C77.9529 95.3096 71.0649 94.6589 63.9556 92.1843C73.1662 88.0669 82.5209 84.3176 92.0196 80.9363C98.9209 78.4776 103.889 76.5469 106.924 75.1443C117.54 70.2323 129.932 63.8643 137.452 54.7923C144.94 48.2856 151.049 40.5976 155.78 31.7282C155.8 31.6884 155.833 31.6562 155.873 31.6364C155.913 31.6165 155.958 31.6102 156.002 31.6183C156.046 31.6264 156.087 31.6484 156.117 31.6812C156.148 31.714 156.167 31.7557 156.172 31.8002L157.14 42.6083C157.152 42.7555 157.196 42.8975 157.27 43.0235C157.343 43.1496 157.444 43.2565 157.564 43.3363C157.9 43.5603 158.148 43.6803 158.34 44.0643C160.777 49.0883 162.422 52.3096 163.276 53.7283C172.924 69.7443 188.804 75.8403 205.1 83.6723C208.012 85.0803 213.684 88.6722 215.124 92.0482C215.241 92.3362 215.433 92.3976 215.7 92.2323C217.676 91.0243 213.94 89.2162 216.644 87.7522Z" fill="#F89442"/>
<path d="M203.388 116.952C200.769 116.808 198.351 117.904 196.132 120.24C196.104 120.271 196.068 120.294 196.028 120.305C195.987 120.316 195.945 120.315 195.905 120.302C195.865 120.289 195.83 120.265 195.804 120.233C195.777 120.201 195.761 120.162 195.756 120.12L194.54 111.176C191.297 107.059 187.537 103.416 183.26 100.248C169.34 89.928 159.444 73.984 154.164 57.6C154.146 57.5428 154.113 57.4918 154.067 57.4527C154.022 57.4136 153.967 57.388 153.907 57.3789C153.848 57.3697 153.788 57.3773 153.733 57.4009C153.678 57.4244 153.63 57.4629 153.596 57.512C141.524 74.288 125.132 85.424 106.572 97.096C101.14 100.512 95.508 103.432 89.868 106.472C81.508 110.992 71.164 112.696 61.82 113.688C60.9187 113.784 60.5214 114.397 60.628 115.528C59.3107 118.739 58.5294 122.144 58.284 125.744C58.2883 125.801 58.2696 125.858 58.2321 125.901C58.1946 125.945 58.1413 125.972 58.084 125.976C58.0268 125.98 57.9701 125.962 57.9266 125.924C57.8831 125.887 57.8563 125.833 57.852 125.776C56.9294 120.907 53.7907 118.485 48.436 118.512L50.132 117.472C50.2441 117.404 50.3363 117.308 50.3995 117.194C50.4627 117.08 50.4946 116.953 50.492 116.824C50.396 105.72 51.468 95.344 63.956 92.184C71.0654 94.6587 77.9534 95.3094 84.62 94.136C112.564 89.24 145.34 72.544 156.116 44.36C156.141 44.2974 156.186 44.2449 156.244 44.2105C156.301 44.1762 156.369 44.162 156.436 44.1703C156.503 44.1785 156.565 44.2087 156.613 44.256C156.66 44.3034 156.691 44.3653 156.7 44.432C159.236 64.464 169.588 79.568 186.892 89.264C191.82 92.024 199.404 95.024 201.788 100.824C203.841 105.821 204.375 111.197 203.388 116.952Z" fill="#EF8035"/>
<path d="M137.452 54.7922C129.932 63.8642 117.54 70.2322 106.924 75.1442C103.889 76.5469 98.9211 78.4776 92.0198 80.9362C82.5211 84.3176 73.1665 88.0669 63.9558 92.1842C51.4678 95.3442 50.3958 105.72 50.4918 116.824C50.4943 116.953 50.4624 117.081 50.3993 117.194C50.3361 117.308 50.2439 117.404 50.1318 117.472L48.4358 118.512C42.1158 120.264 40.8198 124.168 38.9958 129.96H38.4598C37.6278 119.864 36.6998 105.528 38.2598 94.1602C40.1718 93.8802 38.9958 97.3042 39.0118 98.2802C39.0151 98.3627 39.0448 98.4419 39.0966 98.5061C39.1484 98.5704 39.2195 98.6162 39.2994 98.6368C39.3793 98.6575 39.4637 98.6518 39.5402 98.6208C39.6166 98.5897 39.681 98.5348 39.7238 98.4642C44.7478 89.7442 53.4278 84.7682 62.7318 81.7682C85.5478 74.4242 109.428 71.3282 130.076 58.2562C132.401 56.7842 134.86 55.6296 137.452 54.7922Z" fill="#FEA243"/>
<path d="M194.54 111.176C187.169 106.712 181.953 103.016 178.892 100.088C169.078 90.7066 160.441 80.2932 152.98 68.8479C152.909 68.7408 152.817 68.6499 152.709 68.5809C152.601 68.5119 152.479 68.4665 152.352 68.4476C152.226 68.4288 152.096 68.4368 151.973 68.4713C151.849 68.5059 151.734 68.566 151.636 68.6479C145.132 74.1199 138.428 80.6159 132.076 85.1999C120.753 93.3706 108.58 100.029 95.5558 105.176C91.3158 106.848 88.0118 108.784 84.5158 111.224C82.4918 112.64 80.9558 113.712 78.3718 113.968C72.4624 114.555 66.5478 115.075 60.6278 115.528C60.5211 114.397 60.9184 113.784 61.8198 113.688C71.1638 112.696 81.5078 110.992 89.8678 106.472C95.5078 103.432 101.14 100.512 106.572 97.0959C125.132 85.4239 141.524 74.2879 153.596 57.5119C153.63 57.4628 153.677 57.4243 153.732 57.4008C153.787 57.3772 153.848 57.3696 153.907 57.3788C153.966 57.3879 154.022 57.4135 154.067 57.4526C154.112 57.4917 154.146 57.5427 154.164 57.5999C159.444 73.9839 169.34 89.9279 183.26 100.248C187.537 103.416 191.297 107.059 194.54 111.176Z" fill="#F9B694"/>
<path d="M194.54 111.176L195.756 120.12C195.76 120.161 195.777 120.201 195.803 120.233C195.83 120.265 195.865 120.289 195.905 120.302C195.945 120.315 195.987 120.315 196.027 120.304C196.068 120.293 196.104 120.271 196.132 120.24C198.35 117.904 200.769 116.808 203.388 116.952C215.948 119.184 217.7 133.976 211.3 143.008C206.5 148.816 200.582 150.442 193.548 147.888C193.376 147.826 193.187 147.829 193.018 147.895C192.849 147.961 192.71 148.087 192.628 148.248C181.396 170.13 164.129 183.312 140.828 187.792C130.812 190.33 120.822 190.253 110.86 187.56C89.2038 182.328 71.6358 169.312 62.4678 149.184C62.4142 149.067 62.3209 148.973 62.2041 148.917C62.0873 148.862 61.9542 148.849 61.8278 148.88C56.3958 150.216 50.5478 150.296 45.9158 146.92C40.6411 142.632 38.3344 136.978 38.9958 129.96C40.8198 124.168 42.1158 120.264 48.4358 118.512C53.7904 118.485 56.9291 120.906 57.8518 125.776C57.856 125.833 57.8829 125.886 57.9264 125.924C57.9699 125.961 58.0265 125.98 58.0838 125.976C58.1411 125.971 58.1943 125.945 58.2318 125.901C58.2693 125.858 58.288 125.801 58.2838 125.744C58.5291 122.144 59.3104 118.738 60.6278 115.528C66.5478 115.074 72.4624 114.554 78.3718 113.968C80.9558 113.712 82.4918 112.64 84.5158 111.224C88.0118 108.784 91.3158 106.848 95.5558 105.176C108.58 100.029 120.753 93.3704 132.076 85.1997C138.428 80.6157 145.132 74.1197 151.636 68.6477C151.734 68.5658 151.849 68.5057 151.973 68.4711C152.096 68.4366 152.226 68.4286 152.352 68.4474C152.479 68.4663 152.601 68.5117 152.709 68.5807C152.817 68.6497 152.909 68.7406 152.98 68.8477C160.441 80.293 169.078 90.7064 178.892 100.088C181.953 103.016 187.169 106.712 194.54 111.176ZM155.428 100.744C161.796 101.92 168.284 102.512 174.66 103.816C175.364 103.96 175.868 104.008 176.172 103.96C176.374 103.929 176.563 103.843 176.719 103.711C176.875 103.58 176.992 103.407 177.056 103.213C177.119 103.019 177.128 102.811 177.081 102.613C177.034 102.414 176.932 102.232 176.788 102.088C171.444 96.6877 162.86 91.6877 155.14 91.4797C154.857 91.469 154.601 91.5517 154.372 91.7277C151.564 93.9197 151.092 99.9357 155.428 100.744ZM148.644 128.448C151.46 143.968 172.364 142.536 175.828 129.128L178.268 126.336C178.428 126.154 178.465 125.952 178.38 125.728L177.948 124.584C177.933 124.544 177.934 124.499 177.952 124.459C177.97 124.418 178.003 124.386 178.044 124.368C179.852 123.589 180.75 122.813 180.74 122.04C180.737 121.935 180.709 121.832 180.657 121.741C180.605 121.65 180.532 121.573 180.443 121.518C180.354 121.462 180.253 121.43 180.148 121.423C180.044 121.416 179.939 121.436 179.844 121.48C178.492 122.112 177.884 121.856 177.116 120.608C170.58 110.064 153.46 105.808 148.524 120.536C147.596 123.298 147.636 125.936 148.644 128.448ZM76.8038 129.976C77.8518 134.296 80.8998 137.176 85.0838 138.928C94.5238 142.88 100.98 139.464 104.452 128.68C106.348 107.32 81.9718 106.688 74.3958 122.912C74.3686 122.969 74.3256 123.018 74.2718 123.052C74.218 123.086 74.1555 123.105 74.0918 123.105C74.028 123.105 73.9656 123.086 73.9118 123.052C73.8579 123.018 73.8149 122.969 73.7878 122.912C73.4784 122.24 72.9798 122.013 72.2918 122.232C71.9878 122.333 71.8731 122.538 71.9478 122.848C72.2198 124.053 72.8864 124.997 73.9478 125.68C74.1878 125.834 74.3824 126.034 74.5318 126.28L76.8038 129.976ZM198.404 125.104C203.668 122.688 207.1 125.512 209.452 129.936C209.459 129.948 209.471 129.957 209.485 129.962C209.5 129.967 209.515 129.966 209.527 129.961C209.54 129.956 209.549 129.946 209.553 129.934C209.557 129.921 209.555 129.908 209.548 129.896C208.108 125.56 202.436 121 198.332 125C198.15 125.176 198.174 125.21 198.404 125.104ZM55.6438 125.576C49.3504 123.842 45.4598 126.032 43.9718 132.144C43.9626 132.201 43.9746 132.26 44.0056 132.309C44.0366 132.359 44.0844 132.395 44.1402 132.412C44.196 132.428 44.2559 132.424 44.3088 132.4C44.3617 132.375 44.404 132.333 44.4278 132.28C47.0118 125.336 49.2438 126.392 55.6198 125.84C55.6503 125.836 55.6785 125.821 55.6997 125.799C55.721 125.777 55.7341 125.748 55.7369 125.717C55.7397 125.687 55.732 125.656 55.7151 125.63C55.6981 125.605 55.673 125.585 55.6438 125.576ZM123.284 143.264C122.764 149.072 135.188 150.52 135.972 142.344C135.99 142.134 135.938 141.923 135.826 141.745C135.713 141.567 135.545 141.43 135.348 141.356C135.151 141.281 134.934 141.274 134.732 141.334C134.53 141.394 134.353 141.518 134.228 141.688C131.628 145.288 127.316 146.728 123.9 143.056C123.854 143.003 123.794 142.966 123.726 142.948C123.659 142.93 123.588 142.932 123.522 142.954C123.456 142.976 123.399 143.018 123.356 143.073C123.314 143.128 123.289 143.194 123.284 143.264ZM182.646 148.241C182.67 147.519 182.437 146.795 181.961 146.111C181.484 145.427 180.774 144.796 179.869 144.255C178.965 143.713 177.884 143.272 176.69 142.955C175.495 142.639 174.209 142.454 172.906 142.411C170.275 142.323 167.732 142.819 165.837 143.789C163.941 144.759 162.85 146.124 162.801 147.583C162.777 148.305 163.01 149.029 163.487 149.713C163.963 150.397 164.674 151.027 165.578 151.569C166.483 152.11 167.563 152.552 168.758 152.868C169.953 153.184 171.238 153.369 172.541 153.413C175.173 153.5 177.716 153.004 179.611 152.034C181.506 151.064 182.598 149.7 182.646 148.241ZM89.9285 147.669C89.7885 146.314 88.6397 145.119 86.735 144.348C84.8303 143.576 82.3255 143.291 79.7719 143.555C78.5074 143.686 77.269 143.947 76.1273 144.325C74.9856 144.702 73.963 145.188 73.1179 145.755C72.2728 146.322 71.6218 146.958 71.202 147.628C70.7821 148.298 70.6017 148.988 70.671 149.659C70.8111 151.014 71.9598 152.208 73.8645 152.98C75.7693 153.751 78.274 154.036 80.8277 153.773C82.0922 153.642 83.3306 153.38 84.4723 153.003C85.614 152.625 86.6365 152.139 87.4816 151.573C88.3267 151.006 88.9778 150.369 89.3976 149.699C89.8174 149.03 89.9978 148.34 89.9285 147.669ZM106.252 152.048C104.438 152.512 103.516 153.552 103.484 155.168C103.244 165.8 111.972 174.432 121.756 176.84C128.204 178.53 134.521 177.12 140.708 172.608C144.772 169.37 147.686 164.96 149.452 159.376C150.092 157.376 150.588 153.992 148.508 152.688C147.254 151.898 145.718 151.984 143.9 152.944C134.865 153.936 126.049 154.197 117.452 153.728C115.734 153.632 113.862 153.402 111.836 153.04C109.98 152.704 108.118 152.373 106.252 152.048Z" fill="#FFD4BB"/>
<path d="M174.66 103.816C168.284 102.512 161.796 101.92 155.428 100.744C151.092 99.9358 151.564 93.9198 154.372 91.7278C154.601 91.5518 154.857 91.4691 155.14 91.4798C162.86 91.6878 171.444 96.6878 176.788 102.088C176.932 102.232 177.034 102.414 177.081 102.613C177.128 102.811 177.119 103.019 177.056 103.213C176.992 103.407 176.875 103.58 176.719 103.712C176.563 103.843 176.374 103.929 176.172 103.96C175.868 104.008 175.364 103.96 174.66 103.816Z" fill="#C15551"/>
<path d="M175.828 129.128C176.164 123.128 173.766 118.821 168.636 116.208C168.385 116.08 168.348 116.125 168.524 116.344C173.276 122.36 172.316 132.672 163.892 135.08C169.177 132.099 171.305 127.819 170.276 122.24C169.742 119.376 168.105 117.448 165.364 116.456C165.313 116.438 165.257 116.435 165.205 116.448C165.152 116.462 165.105 116.49 165.069 116.531C165.033 116.571 165.01 116.622 165.002 116.675C164.995 116.729 165.004 116.784 165.028 116.832C165.529 117.893 166.137 118.896 166.852 119.84C167.001 120.037 167.097 120.261 167.14 120.512C168.836 129.816 156.652 134.776 153.396 125.888C153.294 125.616 153.102 125.504 152.82 125.552L151.652 125.744L151.596 120.512C151.599 120.461 151.585 120.41 151.554 120.368C151.524 120.327 151.479 120.297 151.429 120.286C151.379 120.274 151.326 120.281 151.28 120.305C151.234 120.329 151.199 120.368 151.18 120.416C149.937 122.869 149.092 125.547 148.644 128.448C147.636 125.936 147.596 123.299 148.524 120.536C153.46 105.808 170.58 110.064 177.116 120.608C177.884 121.856 178.492 122.112 179.844 121.48C179.939 121.436 180.043 121.417 180.148 121.424C180.253 121.43 180.354 121.463 180.443 121.518C180.532 121.574 180.605 121.651 180.657 121.742C180.709 121.833 180.737 121.935 180.74 122.04C180.75 122.813 179.852 123.589 178.044 124.368C178.003 124.386 177.97 124.419 177.952 124.459C177.934 124.499 177.932 124.544 177.948 124.584L178.38 125.728C178.465 125.952 178.428 126.155 178.268 126.336L175.828 129.128ZM158.368 116.779C158.043 116.185 157.458 115.765 156.741 115.612C156.024 115.459 155.235 115.585 154.546 115.962C153.858 116.339 153.326 116.936 153.069 117.622C152.812 118.309 152.85 119.028 153.175 119.622C153.5 120.215 154.086 120.635 154.802 120.788C155.519 120.941 156.309 120.816 156.997 120.439C157.686 120.062 158.217 119.464 158.474 118.778C158.731 118.091 158.693 117.372 158.368 116.779Z" fill="#010100"/>
<path d="M104.452 128.68C103.508 125.918 102.372 123.443 101.044 121.256C101.026 121.213 100.991 121.178 100.948 121.16C100.904 121.142 100.855 121.142 100.812 121.16C100.768 121.178 100.734 121.213 100.716 121.257C100.698 121.3 100.698 121.349 100.716 121.392C101.553 124.747 101.447 128.07 100.396 131.36C100.22 131.467 100.049 131.523 99.8839 131.528C99.5905 131.539 99.4892 131.403 99.5799 131.12C100.385 128.651 100.588 126.131 100.188 123.56C100.186 123.514 100.165 123.47 100.131 123.438C100.096 123.407 100.051 123.39 100.004 123.392C99.9572 123.395 99.9133 123.415 99.8818 123.45C99.8503 123.484 99.8337 123.53 99.8359 123.576C99.4359 128.064 96.1639 132.2 91.3079 131.216C86.7079 130.28 85.2839 125.056 85.2199 120.72C85.2039 119.904 85.4439 119.76 86.0279 119.272C86.0906 119.221 86.1406 119.156 86.1742 119.082C86.2077 119.008 86.224 118.927 86.2217 118.846C86.2193 118.764 86.1986 118.684 86.1608 118.611C86.1231 118.538 86.0694 118.474 86.0039 118.424L85.2039 117.824C85.0924 117.738 84.9515 117.698 84.8101 117.713C84.6688 117.728 84.5377 117.796 84.4439 117.904L82.0279 120.728C82.5505 119.032 83.4545 117.574 84.7399 116.352C85.0812 116.027 85.0359 115.958 84.6039 116.144C78.9559 118.55 76.3559 123.16 76.8039 129.976L74.5319 126.28C74.3825 126.035 74.1879 125.835 73.9479 125.68C72.8865 124.998 72.2199 124.054 71.9479 122.848C71.8732 122.539 71.9879 122.334 72.2919 122.232C72.9799 122.014 73.4785 122.24 73.7879 122.912C73.815 122.97 73.858 123.019 73.9119 123.053C73.9657 123.087 74.0281 123.105 74.0919 123.105C74.1556 123.105 74.2181 123.087 74.2719 123.053C74.3257 123.019 74.3687 122.97 74.3959 122.912C81.9719 106.688 106.348 107.32 104.452 128.68ZM99.3719 119.24C99.3719 118.513 99.0828 117.815 98.5682 117.3C98.0536 116.786 97.3556 116.496 96.6279 116.496C96.2675 116.496 95.9107 116.567 95.5778 116.705C95.2449 116.843 94.9424 117.045 94.6876 117.3C94.4328 117.555 94.2306 117.857 94.0928 118.19C93.9549 118.523 93.8839 118.88 93.8839 119.24C93.8839 119.601 93.9549 119.958 94.0928 120.291C94.2306 120.623 94.4328 120.926 94.6876 121.181C94.9424 121.436 95.2449 121.638 95.5778 121.776C95.9107 121.913 96.2675 121.984 96.6279 121.984C97.3556 121.984 98.0536 121.695 98.5682 121.181C99.0828 120.666 99.3719 119.968 99.3719 119.24Z" fill="#010100"/>
<path d="M156.998 120.438C158.432 119.653 159.045 118.015 158.368 116.778C157.692 115.542 155.98 115.176 154.547 115.961C153.113 116.746 152.499 118.385 153.176 119.621C153.853 120.858 155.564 121.223 156.998 120.438Z" fill="#FEFDFE"/>
<path d="M82.0283 120.728C80.5243 125.262 81.0176 129.112 83.5083 132.28C87.9643 137.944 97.0363 138.56 100.396 131.36C101.447 128.07 101.554 124.747 100.716 121.392C100.698 121.349 100.698 121.3 100.716 121.256C100.734 121.213 100.769 121.178 100.812 121.16C100.856 121.142 100.905 121.142 100.948 121.16C100.992 121.178 101.026 121.213 101.044 121.256C102.372 123.443 103.508 125.918 104.452 128.68C100.98 139.464 94.5243 142.88 85.0843 138.928C80.9003 137.176 77.8523 134.296 76.8043 129.976C76.3563 123.16 78.9563 118.55 84.6043 116.144C85.0363 115.958 85.0816 116.027 84.7403 116.352C83.4549 117.574 82.5509 119.032 82.0283 120.728Z" fill="#FEFDFE"/>
<path d="M175.828 129.128C172.364 142.536 151.46 143.968 148.644 128.448C149.092 125.547 149.937 122.87 151.18 120.416C151.199 120.368 151.234 120.329 151.28 120.305C151.326 120.281 151.378 120.274 151.429 120.286C151.479 120.298 151.523 120.327 151.554 120.368C151.585 120.41 151.599 120.461 151.596 120.512L151.652 125.744C151.321 130.086 152.862 133.142 156.276 134.912C158.985 136.315 161.524 136.371 163.892 135.08C172.316 132.672 173.276 122.36 168.524 116.344C168.348 116.126 168.385 116.08 168.636 116.208C173.766 118.822 176.164 123.128 175.828 129.128Z" fill="#FEFDFE"/>
<path d="M163.892 135.08C161.524 136.371 158.985 136.314 156.276 134.912C152.862 133.141 151.321 130.085 151.652 125.744L152.82 125.552C153.102 125.504 153.294 125.616 153.396 125.888C156.652 134.776 168.836 129.816 167.14 120.512C167.097 120.261 167.001 120.037 166.852 119.84C166.137 118.896 165.529 117.893 165.028 116.832C165.004 116.783 164.995 116.729 165.002 116.675C165.01 116.621 165.033 116.571 165.069 116.531C165.105 116.49 165.152 116.461 165.205 116.448C165.257 116.435 165.313 116.438 165.364 116.456C168.105 117.448 169.742 119.376 170.276 122.24C171.305 127.818 169.177 132.099 163.892 135.08Z" fill="#6D3521"/>
<path d="M96.6278 121.984C98.1433 121.984 99.3718 120.756 99.3718 119.24C99.3718 117.725 98.1433 116.496 96.6278 116.496C95.1123 116.496 93.8838 117.725 93.8838 119.24C93.8838 120.756 95.1123 121.984 96.6278 121.984Z" fill="#FEFDFE"/>
<path d="M100.396 131.36C97.0356 138.56 87.9636 137.944 83.5076 132.28C81.0169 129.112 80.5236 125.261 82.0276 120.728L84.4436 117.904C84.5375 117.796 84.6685 117.727 84.8099 117.712C84.9512 117.698 85.0921 117.737 85.2036 117.824L86.0036 118.424C86.0692 118.474 86.1228 118.537 86.1606 118.61C86.1983 118.683 86.2191 118.764 86.2214 118.845C86.2237 118.927 86.2075 119.008 86.1739 119.081C86.1403 119.155 86.0903 119.221 86.0276 119.272C85.4436 119.76 85.2036 119.904 85.2196 120.72C85.2836 125.056 86.7076 130.28 91.3076 131.216C96.1636 132.2 99.4356 128.064 99.8356 123.576C99.8335 123.529 99.85 123.484 99.8815 123.449C99.913 123.415 99.9569 123.394 100.004 123.392C100.05 123.39 100.096 123.406 100.13 123.438C100.165 123.469 100.185 123.513 100.188 123.56C100.588 126.131 100.385 128.651 99.5796 131.12C99.4889 131.403 99.5903 131.539 99.8836 131.528C100.049 131.523 100.22 131.467 100.396 131.36Z" fill="#6D3521"/>
<path d="M209.452 129.936C207.1 125.512 203.668 122.688 198.404 125.104C198.175 125.211 198.151 125.176 198.332 125C202.436 121 208.108 125.56 209.548 129.896C209.555 129.908 209.557 129.922 209.553 129.934C209.55 129.946 209.54 129.956 209.528 129.962C209.515 129.967 209.5 129.967 209.486 129.962C209.471 129.958 209.459 129.948 209.452 129.936Z" fill="#EEA57F"/>
<path d="M55.6437 125.576C55.673 125.586 55.6981 125.605 55.715 125.631C55.7319 125.656 55.7396 125.687 55.7369 125.718C55.7341 125.748 55.721 125.777 55.6997 125.799C55.6784 125.822 55.6502 125.836 55.6197 125.84C49.2437 126.392 47.0117 125.336 44.4277 132.28C44.4039 132.333 44.3616 132.376 44.3087 132.4C44.2558 132.424 44.1959 132.428 44.1402 132.412C44.0844 132.395 44.0366 132.359 44.0056 132.31C43.9746 132.26 43.9626 132.201 43.9717 132.144C45.4597 126.032 49.3504 123.843 55.6437 125.576Z" fill="#FEC393"/>
<path d="M38.4591 129.96H38.9951C38.3338 136.979 40.6405 142.632 45.9151 146.92C46.9978 149.427 48.0031 151.918 48.9311 154.392C53.3151 166.115 60.4084 175.838 70.2111 183.56C74.8458 187.219 80.0218 190.726 85.7391 194.08C78.5765 196.662 72.0325 199.552 66.1071 202.752C62.9765 202.422 59.8031 202.104 56.5871 201.8C45.7471 200.768 35.8511 198.336 25.9951 193.68L39.6351 188.192C39.6826 188.172 39.724 188.141 39.7555 188.1C39.787 188.06 39.8073 188.012 39.8146 187.961C39.8219 187.91 39.8158 187.858 39.7969 187.81C39.7781 187.762 39.7471 187.72 39.7071 187.688C31.8431 181.2 30.0911 168.336 31.2511 158.952C31.5711 156.368 31.3791 153.64 31.7951 150.96C35.3045 144.374 37.5258 137.374 38.4591 129.96Z" fill="#F89442"/>
<path d="M219.659 132.56C222.611 149.552 230.587 162.704 247.355 168.784C247.702 168.907 247.75 169.104 247.499 169.376C241.953 175.248 235.443 179.744 227.971 182.864C227.921 182.884 227.877 182.918 227.846 182.962C227.815 183.007 227.798 183.059 227.798 183.114C227.797 183.168 227.812 183.221 227.841 183.266C227.871 183.312 227.913 183.347 227.963 183.368L239.187 188.36C239.242 188.386 239.289 188.426 239.323 188.475C239.357 188.525 239.376 188.583 239.38 188.643C239.383 188.702 239.37 188.761 239.341 188.813C239.313 188.865 239.271 188.907 239.219 188.936C231.683 193.203 223.843 196.326 215.699 198.304C215.075 197.275 214.659 196.31 214.451 195.408C214.131 194 213.635 193.416 212.819 192.368C212.652 192.154 212.552 191.898 212.531 191.632C212.43 190.235 212.358 188.837 212.315 187.44C212.251 185.472 213.219 183.792 212.763 181.536C212.71 181.269 212.598 181.032 212.427 180.824L210.475 178.472C210.321 178.28 210.286 178.069 210.371 177.84C212.899 170.837 214.963 163.686 216.563 156.384C217.854 149.302 218.558 144.51 218.675 142.008C218.883 137.667 219.211 134.518 219.659 132.56Z" fill="#FEA243"/>
<path d="M135.972 142.344C135.188 150.52 122.764 149.072 123.284 143.264C123.289 143.194 123.314 143.128 123.356 143.073C123.399 143.018 123.457 142.976 123.523 142.954C123.588 142.932 123.659 142.93 123.727 142.948C123.794 142.966 123.854 143.003 123.9 143.056C127.316 146.728 131.628 145.288 134.228 141.688C134.353 141.518 134.53 141.394 134.732 141.334C134.935 141.274 135.151 141.281 135.348 141.356C135.546 141.43 135.713 141.567 135.826 141.745C135.939 141.923 135.99 142.134 135.972 142.344Z" fill="#FEC393"/>
<path d="M172.541 153.413C178.021 153.595 182.545 151.279 182.646 148.241C182.747 145.203 178.386 142.593 172.906 142.411C167.426 142.229 162.902 144.545 162.801 147.583C162.7 150.621 167.061 153.231 172.541 153.413Z" fill="#EC957E"/>
<path d="M211.299 143.008L209.395 146.352C209.33 146.464 209.311 146.596 209.342 146.722C209.374 146.848 209.453 146.956 209.563 147.024L210.587 147.664C210.912 147.872 210.896 148.05 210.539 148.2C209.715 148.552 206.763 151.48 208.931 151.752C209.112 151.778 209.144 151.861 209.027 152L208.683 152.432C208.502 152.651 208.552 152.76 208.835 152.76H212.939C213.179 152.76 213.286 152.88 213.259 153.12L212.979 155.52C212.973 155.576 212.981 155.634 213.003 155.686C213.024 155.739 213.057 155.786 213.101 155.823C213.144 155.86 213.195 155.886 213.251 155.899C213.306 155.911 213.364 155.91 213.419 155.896C214.523 155.613 215.571 155.776 216.563 156.384C214.963 163.685 212.899 170.837 210.371 177.84C210.286 178.069 210.32 178.28 210.475 178.472L212.427 180.824C212.598 181.032 212.71 181.269 212.763 181.536C213.219 183.792 212.251 185.472 212.315 187.44C212.358 188.837 212.43 190.235 212.531 191.632C212.552 191.898 212.652 192.154 212.819 192.368C213.635 193.416 214.131 194 214.451 195.408C214.659 196.309 215.075 197.274 215.699 198.304C207.806 200.298 199.598 201.61 191.075 202.24C188.835 202.405 186.91 202.394 185.299 202.208C185.07 202.181 184.864 202.24 184.683 202.384L184.459 202.56L184.315 202.288C184.224 202.101 184.088 201.957 183.907 201.856C172.387 195.376 160.016 191.352 146.795 189.784L140.827 187.792C164.128 183.312 181.395 170.13 192.627 148.248C192.709 148.087 192.848 147.961 193.017 147.895C193.187 147.829 193.375 147.826 193.547 147.888C200.582 150.442 206.499 148.816 211.299 143.008Z" fill="#EF8035"/>
<path d="M80.8277 153.773C86.1455 153.223 90.22 150.49 89.9285 147.669C89.6369 144.847 85.0896 143.005 79.7718 143.555C74.454 144.105 70.3794 146.837 70.671 149.659C70.9626 152.48 75.5099 154.322 80.8277 153.773Z" fill="#EC957E"/>
<path d="M45.9155 146.92C50.5475 150.296 56.3955 150.216 61.8275 148.88C61.954 148.849 62.0871 148.862 62.2039 148.918C62.3207 148.973 62.4139 149.068 62.4675 149.184C71.6355 169.312 89.2035 182.328 110.86 187.56C110.881 187.886 110.822 188.182 110.684 188.448C108.924 188.646 107.382 189.15 106.06 189.96C98.6035 190.878 91.8302 192.251 85.7395 194.08C80.0222 190.726 74.8462 187.219 70.2115 183.56C60.4089 175.838 53.3155 166.115 48.9315 154.392C48.0035 151.918 46.9982 149.427 45.9155 146.92Z" fill="#EF8035"/>
<path d="M31.7954 150.96C31.3794 153.64 31.5714 156.368 31.2514 158.952C30.0914 168.336 31.8434 181.2 39.7074 187.688C39.7474 187.72 39.7784 187.762 39.7972 187.81C39.8161 187.858 39.8222 187.91 39.8149 187.961C39.8077 188.012 39.7873 188.06 39.7558 188.1C39.7243 188.141 39.6829 188.172 39.6354 188.192L25.9954 193.68L17.1634 189C17.1226 188.977 17.0887 188.944 17.0656 188.903C17.0425 188.863 17.0311 188.817 17.0328 188.771C17.0344 188.725 17.0491 188.68 17.0751 188.643C17.101 188.606 17.1372 188.577 17.1794 188.56L27.7394 183.992C27.8447 183.949 27.9349 183.875 27.9989 183.781C28.0629 183.686 28.098 183.575 28.0997 183.461C28.1014 183.348 28.0697 183.236 28.0085 183.139C27.9473 183.043 27.8594 182.967 27.7554 182.92C20.8114 179.763 14.5714 175.571 9.03542 170.344C8.67276 169.998 8.72876 169.742 9.20342 169.576C18.8994 166.216 26.4301 160.011 31.7954 150.96Z" fill="#FEAF55"/>
<path d="M143.899 152.944C132.227 160.8 117.027 161.568 106.251 152.048C108.118 152.374 109.979 152.704 111.835 153.04C113.862 153.403 115.734 153.632 117.451 153.728C126.049 154.198 134.865 153.936 143.899 152.944Z" fill="#FEFDFE"/>
<path d="M140.708 172.608C136.719 167.936 131.556 165.67 125.22 165.808C120.164 165.92 115.924 167.771 112.5 171.36C112.444 171.42 112.402 171.492 112.379 171.57C112.355 171.649 112.35 171.732 112.364 171.812C112.378 171.893 112.411 171.97 112.459 172.035C112.508 172.101 112.571 172.155 112.644 172.192L121.756 176.84C111.972 174.432 103.244 165.8 103.484 155.168C103.516 153.552 104.439 152.512 106.252 152.048C117.028 161.568 132.228 160.8 143.9 152.944C145.718 151.984 147.255 151.899 148.508 152.688C150.588 153.992 150.092 157.376 149.452 159.376C147.687 164.96 144.772 169.371 140.708 172.608Z" fill="#C15551"/>
<path d="M140.708 172.608C134.521 177.12 128.204 178.53 121.756 176.839L112.644 172.191C112.571 172.154 112.508 172.1 112.459 172.035C112.411 171.969 112.378 171.892 112.364 171.811C112.35 171.731 112.355 171.648 112.379 171.569C112.402 171.491 112.444 171.419 112.5 171.36C115.924 167.77 120.164 165.92 125.22 165.808C131.556 165.669 136.719 167.936 140.708 172.608Z" fill="#D56860"/>
<path d="M110.86 187.56C120.822 190.254 130.812 190.331 140.828 187.792L146.796 189.784C146.71 189.806 146.625 189.827 146.54 189.848C146.321 190.382 146.294 191.107 146.46 192.024C146.473 192.098 146.468 192.174 146.444 192.245C146.42 192.315 146.379 192.379 146.324 192.43C146.268 192.48 146.201 192.516 146.128 192.533C146.056 192.55 145.98 192.549 145.908 192.528L145.212 192.336C144.952 192.263 144.671 192.278 144.412 192.376C132.844 196.736 121.5 197.032 110.98 190C110.569 189.723 110.47 189.206 110.684 188.448C110.822 188.182 110.881 187.886 110.86 187.56Z" fill="#F9B694"/>
<path d="M110.684 188.448C110.47 189.206 110.569 189.723 110.98 190C121.5 197.032 132.844 196.737 144.412 192.377C144.671 192.278 144.952 192.264 145.212 192.336L145.908 192.529C145.98 192.549 146.056 192.55 146.128 192.533C146.201 192.516 146.268 192.48 146.324 192.43C146.379 192.379 146.42 192.316 146.444 192.245C146.468 192.174 146.473 192.098 146.46 192.025C146.294 191.107 146.321 190.382 146.54 189.848C147.78 190.352 147.564 190.664 147.396 191.6C142.972 216.512 107.996 214.688 106.06 189.96C107.382 189.15 108.924 188.646 110.684 188.448Z" fill="#FFD4BB"/>
<path d="M184.46 202.56L184.028 203.128C173.495 211.736 161.559 217.47 148.22 220.328C119.537 226.483 93.2359 221.563 69.3159 205.568C67.3692 204.726 66.2999 203.787 66.1079 202.752C72.0332 199.552 78.5772 196.662 85.7399 194.08C91.8306 192.251 98.6039 190.878 106.06 189.96C107.996 214.688 142.972 216.512 147.396 191.6C147.564 190.664 147.78 190.352 146.54 189.848C146.625 189.827 146.711 189.806 146.796 189.784C160.017 191.352 172.388 195.376 183.908 201.856C184.089 201.958 184.225 202.102 184.316 202.288L184.46 202.56ZM101.324 194.4C104.092 207.912 115.26 217.072 129.252 216.128C142.444 215.24 152.244 204.432 152.604 191.368C152.615 191.096 152.484 190.96 152.212 190.96H151.9C151.623 190.96 151.473 191.099 151.452 191.376C149.316 218.184 115.724 223.648 104.46 200.032C103.292 197.584 102.628 194.312 101.884 191.544C101.864 191.476 101.824 191.415 101.769 191.37C101.713 191.325 101.646 191.298 101.576 191.293C101.505 191.288 101.436 191.304 101.376 191.341C101.317 191.377 101.271 191.432 101.244 191.496C100.764 192.616 101.108 193.344 101.324 194.4Z" fill="#2F1C24"/>
<path d="M129.252 216.128C115.26 217.072 104.092 207.912 101.324 194.4C101.108 193.344 100.764 192.616 101.244 191.496C101.27 191.431 101.316 191.377 101.376 191.341C101.435 191.304 101.505 191.287 101.575 191.293C101.646 191.298 101.713 191.325 101.768 191.37C101.823 191.415 101.864 191.476 101.884 191.544C102.628 194.312 103.292 197.584 104.46 200.032C115.724 223.648 149.316 218.184 151.452 191.376C151.473 191.099 151.622 190.96 151.9 190.96H152.212C152.484 190.96 152.614 191.096 152.604 191.368C152.244 204.432 142.444 215.24 129.252 216.128Z" fill="#FEFDFE"/>
<path d="M184.028 203.128L191.508 206.48C192.26 206.816 192.369 207.299 191.836 207.928C164.124 240.512 114.076 244.752 78.6996 222.344C72.1343 218.189 65.9556 213.355 60.1636 207.84C59.5663 207.269 59.6463 206.819 60.4036 206.488L64.5156 204.704C64.8036 204.581 65.1023 204.542 65.4116 204.584C66.6223 204.76 67.6223 205.355 68.4116 206.368C68.4505 206.419 68.4997 206.461 68.5559 206.491C68.6122 206.521 68.674 206.538 68.7372 206.542C68.8004 206.546 68.8634 206.536 68.9218 206.513C68.9803 206.49 69.0328 206.454 69.0756 206.408C69.2516 206.221 69.3316 205.941 69.3156 205.568C93.2356 221.563 119.537 226.483 148.22 220.328C161.558 217.47 173.494 211.736 184.028 203.128Z" fill="#D1DEDE"/>
</svg>
