<svg width="256" height="256" viewBox="0 0 256 256" fill="none" xmlns="http://www.w3.org/2000/svg">
<path d="M96.0238 29.8672C74.1838 34.3792 57.6025 45.8299 46.2798 64.2192" stroke="#DBB0A1" stroke-width="2"/>
<path d="M46.2797 64.2188C32.1277 88.8028 28.0317 120.059 39.2477 146.659" stroke="#D6A79B" stroke-width="2"/>
<path d="M39.2476 146.659C41.1249 151.555 43.5382 156.209 46.4876 160.619" stroke="#C29B99" stroke-width="2"/>
<path d="M46.4879 160.619C45.5012 161.089 44.7172 160.585 44.1359 159.107C44.0959 159.03 44.0292 158.97 43.9481 158.938C43.867 158.906 43.7771 158.904 43.695 158.933C43.6129 158.963 43.5442 159.021 43.5017 159.097C43.4592 159.173 43.4458 159.262 43.4639 159.347C51.1652 183.966 65.1706 202.915 85.4799 216.195" stroke="#F5F5F2" stroke-width="2"/>
<path d="M224.096 116.066C223.192 88.2344 210.176 59.0264 184.424 46.0344" stroke="#B09297" stroke-width="2"/>
<path d="M184.424 46.0349C179.485 43.7896 174.213 42.2269 168.608 41.3469" stroke="#CFA299" stroke-width="2"/>
<path d="M168.608 41.3465C167.061 40.4078 163.723 38.7171 158.592 36.2745C148.971 31.6878 139.456 29.3625 130.048 29.2985" stroke="#F5F5F2" stroke-width="2"/>
<path d="M130.048 29.2988C118.544 27.3948 107.203 27.5842 96.0244 29.8668" stroke="#CFA299" stroke-width="2"/>
<path d="M130.048 29.2985L141.856 33.2025" stroke="#C5998D" stroke-width="2"/>
<path d="M141.856 33.2031C141.016 34.4271 143.224 34.6271 143.976 35.0831C146.322 36.5071 148.736 37.8431 151.216 39.0911" stroke="#803731" stroke-width="2"/>
<path d="M151.216 39.0906C149.808 40.2586 148.934 41.8826 148.592 43.9626" stroke="#934034" stroke-width="2"/>
<path d="M148.591 43.9625C143.647 58.4905 124.495 69.3625 111.071 73.7865C99.7754 77.5065 87.0554 81.1305 77.5034 87.7225C63.4474 97.4105 59.4634 111.763 54.8154 127.347" stroke="#8C3B30" stroke-width="2"/>
<path d="M54.8163 127.347C51.3843 129.811 51.0883 135.211 51.3763 139.219C51.3805 139.28 51.371 139.34 51.3487 139.397C51.3264 139.453 51.2917 139.504 51.2473 139.546C51.2028 139.587 51.1497 139.618 51.0917 139.636C51.0337 139.654 50.9725 139.659 50.9123 139.651L47.6963 139.203" stroke="#934034" stroke-width="2"/>
<path d="M47.6954 139.203C45.5354 125.259 52.4874 106.835 60.0314 95.0826C66.9594 84.2906 77.6794 77.3786 89.7274 73.5066C89.9834 73.4266 90.2021 73.2906 90.3834 73.0986C90.6554 72.8053 90.9834 72.5786 91.3674 72.4186C91.6981 72.28 91.6848 72.2106 91.3274 72.2106H90.8154C90.3461 72.2106 90.2421 72.0133 90.5034 71.6186C91.5701 69.992 92.9701 68.488 94.7034 67.1066C98.9488 63.704 102.594 59.5946 105.639 54.7786C105.783 54.5493 105.978 54.376 106.223 54.2586L107.807 53.5226C108.085 53.3946 108.247 53.1813 108.295 52.8826C108.439 51.9973 108.901 51.3546 109.679 50.9546C109.927 50.8311 110.123 50.6211 110.231 50.3626L110.935 48.7226C110.967 48.6426 110.941 48.6 110.855 48.5946C110.754 48.5893 110.663 48.568 110.583 48.5306C110.381 48.4453 110.389 48.4026 110.607 48.4026C111.135 48.408 111.517 48.192 111.751 47.7546" stroke="#A64C36" stroke-width="2"/>
<path d="M111.751 47.7551L123.735 46.1791C123.814 46.1801 123.89 46.15 123.946 46.0952C124.002 46.0404 124.034 45.9656 124.035 45.8871C124.037 45.8086 124.006 45.7328 123.952 45.6766C123.897 45.6203 123.822 45.5881 123.743 45.5871L116.815 44.5391" stroke="#B85F45" stroke-width="2"/>
<path d="M116.815 44.5388C116.97 43.0721 117.821 41.4721 119.367 39.7388C121.106 37.7815 122.063 34.9975 122.239 31.3868C122.25 31.1201 122.127 31.0028 121.871 31.0348L119.495 31.2908" stroke="#A64C36" stroke-width="2"/>
<path d="M119.496 31.2906C111.768 30.9759 104.115 31.8346 96.5361 33.8666" stroke="#B85F45" stroke-width="2"/>
<path d="M96.5362 33.8672C95.9976 33.3605 95.6136 32.5659 95.3843 31.4832C95.2669 30.9499 95.4802 30.4112 96.0242 29.8672" stroke="#AC543B" stroke-width="2"/>
<path d="M155.464 41.5953C158.112 49.8513 156.08 54.8033 154.84 62.6753" stroke="#803731" stroke-width="2"/>
<path d="M154.84 62.675C145.816 78.731 128.824 86.707 111.336 90.539C91.9039 94.795 77.72 102.643 70.44 122.475C69.5386 124.939 69.472 127.072 70.24 128.875" stroke="#AF6659" stroke-width="2"/>
<path d="M70.24 128.875C70.2187 128.923 70.1174 128.955 69.936 128.971" stroke="#A95038" stroke-width="2"/>
<path d="M69.9358 128.971C68.5598 124.763 63.7118 124.091 59.9038 124.747" stroke="#AF7367" stroke-width="2"/>
<path d="M59.9038 124.747C60.3145 124.059 60.8798 123.649 61.5998 123.515C61.8683 123.464 62.1191 123.344 62.3278 123.168C62.5366 122.991 62.6964 122.764 62.7918 122.507C65.2238 115.891 67.7038 108.819 71.3678 102.851C72.4131 101.15 73.4211 99.4194 74.3918 97.6594" stroke="#6D2B2E" stroke-width="2"/>
<path d="M74.3921 97.6586C85.6401 86.7786 97.9281 84.0426 112.52 80.5226C129.752 76.3626 148.52 64.6346 153.24 46.4106C153.552 45.2026 153.672 43.4346 154.176 41.9786C154.267 41.7226 154.205 41.5092 153.992 41.3386L151.216 39.0906" stroke="#743032" stroke-width="2"/>
<path d="M116.817 44.5391C91.8326 43.6191 67.9606 55.8351 54.3766 76.7071C51.3286 81.3871 49.3606 87.0591 47.4166 92.4511C47.3632 92.5951 47.4112 92.6831 47.5606 92.7151C47.6566 92.7365 47.7286 92.7071 47.7766 92.6271C62.0486 68.1951 83.2886 51.8751 111.753 47.7551" stroke="#BF6548" stroke-width="2"/>
<path d="M47.6956 139.203L48.9676 146.019C48.9996 146.195 48.9276 146.296 48.7516 146.323C47.4876 146.515 46.8209 147.27 46.7516 148.587C46.7428 148.744 46.6845 148.894 46.5852 149.015C46.4858 149.136 46.3507 149.222 46.1996 149.259L42.3996 150.251C42.1169 150.326 41.9302 150.224 41.8396 149.947C41.3222 148.427 40.4582 147.331 39.2476 146.659" stroke="#9A4536" stroke-width="2"/>
<path d="M52.7917 65.5869C49.6184 71.1495 47.0184 77.3629 44.9917 84.2269C44.9745 84.2884 44.9801 84.3539 45.0076 84.4116C45.035 84.4692 45.0824 84.5149 45.141 84.5403C45.1995 84.5657 45.2653 84.569 45.3261 84.5496C45.3869 84.5302 45.4386 84.4895 45.4717 84.4349C47.0397 81.8509 48.0637 78.7229 49.4397 76.3789C65.1917 49.5549 90.9117 37.8109 120.488 32.0189C120.85 31.9496 120.896 31.7869 120.624 31.5309C120.426 31.3442 120.05 31.2642 119.496 31.2909" stroke="#BF6548" stroke-width="2"/>
<path d="M59.9041 124.747C58.0108 125.477 56.4161 126.621 55.1201 128.179" stroke="#BB7765" stroke-width="2"/>
<path d="M55.1199 128.179C54.6932 128.179 54.5919 127.902 54.8159 127.347" stroke="#803430" stroke-width="2"/>
<path d="M168.608 41.3469L155.464 41.5949" stroke="#C5998D" stroke-width="2"/>
<path d="M155.464 41.5951C151.619 38.0751 147.083 35.2778 141.856 33.2031" stroke="#A68A8B" stroke-width="2"/>
<path d="M74.3921 97.6587C79.4534 91.584 85.4534 87.1733 92.3921 84.4267C101.864 80.6747 114.928 77.7707 122.952 74.2187C132.76 69.8747 142.024 63.0267 147.504 53.5227C148.528 51.7547 147.968 50.3707 148.408 48.8027C148.771 47.496 149.173 46.216 149.616 44.9627C149.701 44.7227 149.683 44.4907 149.56 44.2667C149.341 43.8667 149.019 43.7653 148.592 43.9627" stroke="#803430" stroke-width="2"/>
<path d="M58.2081 149.427C57.8401 150.237 58.4641 151.061 60.0801 151.899C60.3201 152.021 60.4614 152.216 60.5041 152.483C61.2801 157.347 66.1841 165.043 68.8481 169.347C68.9974 169.587 69.0214 169.84 68.9201 170.107C68.6267 170.907 68.0827 171.448 67.2881 171.731C67.0267 171.821 66.7921 171.773 66.5841 171.587C62.1094 167.528 58.2374 162.955 54.9681 157.867C54.7547 157.531 54.4694 157.429 54.1121 157.563C54.0681 157.579 54.0283 157.605 53.9958 157.639C53.9633 157.673 53.9388 157.713 53.9242 157.758C53.9096 157.802 53.9052 157.85 53.9114 157.896C53.9176 157.943 53.9343 157.987 53.9601 158.027C57.3574 163.211 61.3467 167.893 65.9281 172.075C66.1201 172.251 66.2161 172.467 66.2161 172.723C66.1841 175.416 65.4481 177.581 64.0081 179.219" stroke="#743032" stroke-width="2"/>
<path d="M64.0073 179.219C57.0526 174.184 51.2126 167.984 46.4873 160.619" stroke="#B9938D" stroke-width="2"/>
<path d="M96.536 33.8672C77.9227 39.0245 63.3413 49.5979 52.792 65.5872" stroke="#C56D4D" stroke-width="2"/>
<path d="M52.7918 65.5867C51.1118 65.2081 49.5251 65.1734 48.0318 65.4828C47.7651 65.5414 47.5705 65.4481 47.4478 65.2028C47.1651 64.6428 46.7758 64.3147 46.2798 64.2188" stroke="#B35A3E" stroke-width="2"/>
<path d="M195.632 151.931C195.147 151.99 194.779 152.118 194.528 152.315" stroke="#A2625B" stroke-width="2"/>
<path d="M194.528 152.314C190.491 153.098 186.867 152.312 183.656 149.954C183.405 149.773 183.213 149.821 183.08 150.098L180.048 156.57" stroke="#98615B" stroke-width="2"/>
<path d="M180.048 156.571C177.738 155.216 176.837 153.459 177.344 151.299C178.976 144.315 178.208 136.235 177.232 128.755C175.168 113.035 170.544 96.2266 162.248 83.7546" stroke="#FDB290" stroke-width="2"/>
<path d="M162.248 83.755C160.547 81.0564 158.579 78.723 156.344 76.755C156.249 76.6682 156.125 76.6194 155.996 76.618C155.866 76.6165 155.739 76.6624 155.64 76.747C146.995 84.027 137.323 89.6777 126.624 93.699" stroke="#FDBA99" stroke-width="2"/>
<path d="M126.624 93.6985C116.656 97.0158 106.483 99.7945 96.1044 102.034C95.4724 102.17 92.6644 101.954 94.2004 103.322" stroke="#FDBC9B" stroke-width="2"/>
<path d="M94.1999 103.323L88.8399 105.131C88.4772 105.253 88.4479 105.432 88.7519 105.667C88.9385 105.811 89.1812 105.813 89.4799 105.675C95.2239 103.099 100.861 103.432 106.392 106.675" stroke="#FD8A65" stroke-width="2"/>
<path d="M106.392 106.675C107.133 109.304 105.653 110.798 101.952 111.155" stroke="#FDBC9B" stroke-width="2"/>
<path d="M101.952 111.155C102.661 110.669 102.426 110.291 101.248 110.019" stroke="#D57B5D" stroke-width="2"/>
<path d="M101.248 110.019C101.904 109.88 102.202 109.504 102.144 108.891" stroke="#FDBC9B" stroke-width="2"/>
<path d="M102.144 108.891C102.763 108.949 103.147 108.789 103.296 108.411C103.403 108.144 103.326 107.96 103.064 107.859C98.5682 106.091 89.6482 103.811 86.9282 109.131" stroke="#E78F6D" stroke-width="2"/>
<path d="M86.9283 109.131C81.0483 115.155 73.8482 121.875 73.2882 130.891C73.2349 131.729 73.0483 132.531 72.7282 133.299C72.6322 133.534 72.6322 133.771 72.7282 134.011C72.9309 134.507 72.9709 135.057 72.8482 135.659" stroke="#FDBC9B" stroke-width="2"/>
<path d="M72.8479 135.659C72.1386 134.726 71.7599 133.864 71.7119 133.075" stroke="#FDB290" stroke-width="2"/>
<path d="M71.7117 133.075C72.0744 131.912 71.5837 130.512 70.2397 128.875" stroke="#F78F62" stroke-width="2"/>
<path d="M69.936 128.971L71.712 133.075" stroke="#F79C70" stroke-width="2"/>
<path d="M72.8395 137.779C69.5995 133.291 66.9035 128.019 60.1435 130.051C60.0261 130.088 59.9328 130.144 59.8635 130.219C59.7888 130.304 59.7301 130.392 59.6875 130.483C59.5541 130.771 59.6448 130.883 59.9595 130.819C64.5301 129.848 67.8155 131.494 69.8155 135.755" stroke="#FCAB89" stroke-width="2"/>
<path d="M69.8158 135.754C69.1491 135.456 68.5518 135.141 68.0238 134.81C62.9598 131.666 54.3358 138.706 61.4638 144.314" stroke="#FE9773" stroke-width="2"/>
<path d="M61.4639 144.315C67.8265 146.939 71.8292 145.55 73.4719 140.147" stroke="#FCAB89" stroke-width="2"/>
<path d="M74.4321 149.579C73.6481 150.427 72.3227 151.24 70.4561 152.019" stroke="#996E69" stroke-width="2"/>
<path d="M70.456 152.019C66.552 153.256 62.4693 152.392 58.208 149.427" stroke="#AF7367" stroke-width="2"/>
<path d="M58.2079 149.427C51.8159 144.139 49.9999 135.251 55.1199 128.179" stroke="#C27C69" stroke-width="2"/>
<path d="M184.424 46.0344C184.067 46.4931 184.03 46.7864 184.312 46.9144C189.31 49.2131 193.84 52.2211 197.904 55.9384C198.118 56.1304 198.262 56.3651 198.336 56.6424C198.486 57.1918 198.816 57.6184 199.328 57.9224C199.432 57.9852 199.518 58.0748 199.575 58.1817C199.633 58.2886 199.661 58.409 199.656 58.5304C199.608 59.5438 199.974 60.4238 200.752 61.1704C200.95 61.3624 201.072 61.5918 201.12 61.8584C201.32 62.9544 201.304 63.0584 202.024 63.9144C217.968 82.9784 220.08 111.85 212.496 134.578C212.424 134.805 212.273 134.999 212.072 135.126C211.87 135.253 211.63 135.304 211.394 135.27C211.158 135.237 210.942 135.121 210.783 134.943C210.625 134.765 210.534 134.537 210.528 134.298L210.44 131.962" stroke="#803731" stroke-width="2"/>
<path d="M210.44 131.963C213.123 118.176 213.083 104.608 210.32 91.2589C210 89.6989 209.288 88.0029 208.88 86.3069C207.845 82.0243 206.317 77.9336 204.296 74.0349C204.195 73.8376 204.056 73.6696 203.88 73.5309C203.331 73.0883 202.981 72.9416 202.832 73.0909C202.568 73.361 202.398 73.7087 202.348 74.082C202.297 74.4554 202.369 74.8345 202.552 75.1629C209.048 86.9869 211.904 104.659 208.288 117.731C208.171 118.158 207.952 118.483 207.632 118.707C207.591 118.735 207.544 118.752 207.495 118.757C207.446 118.761 207.396 118.752 207.351 118.731C207.307 118.71 207.268 118.677 207.24 118.636C207.212 118.596 207.196 118.548 207.192 118.499C206.264 107.987 205.976 99.1069 202.704 88.0189" stroke="#8C3B30" stroke-width="2"/>
<path d="M202.704 88.0184C198.752 74.4424 191.816 62.2344 180.312 53.8424C180.109 53.6984 179.901 53.6851 179.688 53.8024C175.944 55.8584 174.168 57.3864 173.008 61.1944C172.922 61.4771 172.754 61.6931 172.504 61.8424L169.912 63.3704C169.639 63.5272 169.415 63.7569 169.264 64.0344C168.784 64.8877 168.133 65.4184 167.312 65.6264" stroke="#934034" stroke-width="2"/>
<path d="M167.312 65.627C166.554 65.067 166.024 64.763 165.72 64.715C164.514 64.539 164.405 64.8056 165.392 65.515C170.568 69.235 175.536 72.955 179.072 78.147C185.24 87.211 188.464 97.427 190.888 108.035C190.952 108.339 190.84 108.539 190.552 108.635L189.936 108.851C189.674 108.936 189.509 108.848 189.44 108.587C188.522 105.307 187.584 102.04 186.624 98.787C183.208 87.163 174.312 75.363 164.48 69.315C164.298 69.203 164.098 69.147 163.88 69.147H162.464C162.101 69.147 161.826 68.9896 161.64 68.675C160.552 66.835 159.421 65.931 158.248 65.963" stroke="#803731" stroke-width="2"/>
<path d="M158.248 65.963L154.84 62.675" stroke="#CE765B" stroke-width="2"/>
<path d="M106.152 191.627C106.28 191.909 106.277 192.299 106.144 192.795" stroke="#F4D6C2" stroke-width="2"/>
<path d="M106.144 192.795C102.261 193.041 98.9441 194.713 96.1921 197.811C94.2721 199.971 83.6961 213.635 85.3441 215.531" stroke="#F5E098" stroke-width="2"/>
<path d="M70.4561 152.019C72.2961 156.749 74.4187 161.379 76.824 165.907C78.6534 169.352 80.8934 172.637 83.5441 175.763C87.9867 181.011 92.9467 186.248 98.424 191.475" stroke="#4B2231" stroke-width="2"/>
<path d="M98.4238 191.475C85.3678 190.856 73.8958 186.771 64.0078 179.219" stroke="#A68A8B" stroke-width="2"/>
<path d="M224.096 116.067C223.845 123.95 222.869 131.843 221.168 139.747" stroke="#9C7D81" stroke-width="2"/>
<path d="M221.168 139.747L217 150.395" stroke="#A68A8B" stroke-width="2"/>
<path d="M217 150.395C216.109 150.166 215.488 150.352 215.136 150.955C214.304 152.395 213.165 154.563 211.72 157.459C211.549 157.806 211.378 157.803 211.208 157.451C210.44 155.851 210.669 154.382 211.896 153.043C212.104 152.814 212.066 152.635 211.784 152.507L211.464 152.355C211.362 152.309 211.25 152.292 211.14 152.307C211.03 152.321 210.926 152.365 210.84 152.435C209.885 153.23 209.298 152.928 209.08 151.531" stroke="#542331" stroke-width="2"/>
<path d="M209.08 151.531L214.024 139.499C214.152 139.189 214.051 138.997 213.72 138.923C213.123 138.789 212.528 138.877 211.936 139.187C211.839 139.239 211.754 139.313 211.689 139.401C211.624 139.49 211.58 139.592 211.56 139.699C210.542 145.507 208.44 150.912 205.256 155.915" stroke="#4E232E" stroke-width="2"/>
<path d="M205.256 155.915L202.992 159.347C202.931 159.436 202.843 159.504 202.741 159.539C202.639 159.574 202.529 159.576 202.426 159.544C202.323 159.512 202.233 159.447 202.169 159.36C202.105 159.273 202.072 159.167 202.072 159.059C202.216 154.355 197.624 156.275 195.408 153.923C195.318 153.828 195.262 153.707 195.247 153.577C195.233 153.447 195.261 153.316 195.328 153.203C195.776 152.451 195.878 152.027 195.632 151.931" stroke="#542331" stroke-width="2"/>
<path d="M195.632 151.931C203.224 147.971 209.048 137.035 203.096 129.395C197.816 122.603 188.68 123.899 185.248 132.187C185.056 132.656 184.954 132.637 184.944 132.131C184.88 129.291 185.008 126.379 184.648 123.771C181.618 102 172.818 82.7305 158.248 65.9625" stroke="#AF6659" stroke-width="2"/>
<path d="M167.312 65.6266C178.736 70.9973 186.496 79.8799 190.592 92.2746" stroke="#743032" stroke-width="2"/>
<path d="M190.592 92.275C191.595 95.3844 193.494 101.888 196.288 111.787C196.984 114.275 201.632 126.403 204.312 127.571C204.563 127.678 204.736 127.862 204.832 128.123C206.176 131.691 209.04 129.611 210.44 131.963" stroke="#6D2B2E" stroke-width="2"/>
<path d="M162.248 83.7546C158.936 85.8666 161.216 88.4506 161.768 90.7946C162.68 94.7306 164.76 100.219 163.8 104.147" stroke="#FEC7A7" stroke-width="2"/>
<path d="M163.8 104.147C159.488 102.547 149.352 101.707 146.376 106.835C146.237 107.073 146.186 107.35 146.232 107.619C146.584 109.822 148.011 111.083 150.512 111.403" stroke="#F8A478" stroke-width="2"/>
<path d="M150.512 111.403L154.936 110.403" stroke="#CF8A71" stroke-width="2"/>
<path d="M154.936 110.403C155.245 112.259 155.154 114.299 154.664 116.523C154.594 116.832 154.642 117.123 154.808 117.395L156.52 120.235C156.57 120.32 156.597 120.417 156.597 120.517C156.597 120.617 156.57 120.716 156.52 120.803L156.352 121.091C156.319 121.146 156.3 121.208 156.297 121.272C156.293 121.335 156.305 121.398 156.331 121.456C156.357 121.514 156.396 121.564 156.446 121.602C156.496 121.64 156.554 121.665 156.616 121.675C158.386 121.968 160.157 122.283 161.928 122.619C162.2 122.672 162.338 122.838 162.344 123.115C162.344 123.339 162.256 123.56 162.08 123.779" stroke="#FEC7A7" stroke-width="2"/>
<path d="M162.08 123.779C149.568 120.091 141.376 135.811 152.624 143.355" stroke="#8E736F" stroke-width="2"/>
<path d="M152.624 143.355C151.408 143.139 152.024 144.763 152.688 144.779C152.944 144.784 153.157 144.88 153.328 145.067L154.192 146.019" stroke="#F9DECB" stroke-width="2"/>
<path d="M154.192 146.019L151.728 145.763C151.434 145.731 151.224 145.848 151.096 146.115C150.072 148.227 147.368 147.371 147.496 150.491C147.506 150.779 147.41 151.027 147.208 151.235C146.525 151.928 146.6 152.784 147.432 153.803" stroke="#FEC7A7" stroke-width="2"/>
<path d="M147.432 153.803C139.891 155.931 132.261 156.731 124.544 156.203" stroke="#AD6D63" stroke-width="2"/>
<path d="M124.544 156.203L126.272 155.939C126.336 155.928 126.341 155.904 126.288 155.867L125.416 155.235C125.359 155.195 125.311 155.144 125.275 155.085C125.239 155.025 125.215 154.959 125.206 154.889C125.197 154.819 125.203 154.748 125.222 154.679C125.242 154.611 125.275 154.547 125.32 154.491L125.656 154.075C125.837 153.856 125.816 153.659 125.592 153.483L124.488 152.651C124.136 152.384 124.16 152.155 124.56 151.963C126.891 150.843 128.504 149.149 129.4 146.883" stroke="#FED1B1" stroke-width="2"/>
<path d="M129.4 146.883C131.912 145.131 132.832 141.747 129.52 140.147C129.216 139.998 129.024 140.088 128.944 140.419L127.76 145.251C127.732 145.356 127.682 145.453 127.613 145.536C127.544 145.619 127.457 145.686 127.36 145.731C127.173 145.816 126.965 145.88 126.736 145.923" stroke="#F8A478" stroke-width="2"/>
<path d="M126.736 145.923C127.947 143.917 128.333 141.995 127.896 140.155" stroke="#FED1B1" stroke-width="2"/>
<path d="M127.896 140.155C128.003 139.573 127.947 139.205 127.728 139.051" stroke="#F9DECB" stroke-width="2"/>
<path d="M127.728 139.05C127.128 137.17 128 136.698 128.224 135.322C128.736 132.17 127.728 128.954 127.656 126.546C127.472 120.882 128.24 115.314 127.864 109.714C127.523 104.541 127.501 99.3571 127.8 94.1625C127.816 93.8691 127.685 93.7732 127.408 93.8745C126.955 94.0452 126.693 93.9865 126.624 93.6985" stroke="#FED1B1" stroke-width="2"/>
<path d="M194.528 152.315C194.752 152.373 194.896 152.469 194.96 152.603C195.077 152.843 195.024 153.032 194.8 153.171C193.482 154.003 192.322 155.008 191.32 156.187C188.68 159.283 185.936 162.427 182.648 164.931C176.306 169.747 170.698 175.309 165.824 181.619C164.442 183.405 162.048 185.515 158.64 187.947C158.58 187.989 158.531 188.043 158.495 188.107C158.459 188.17 158.438 188.24 158.431 188.313C158.425 188.386 158.435 188.46 158.46 188.529C158.485 188.598 158.524 188.662 158.576 188.715C158.986 189.131 159.685 189.275 160.672 189.147C170.309 187.92 178.888 185.387 186.408 181.547C186.418 181.541 186.426 181.541 186.432 181.547C186.485 181.605 186.538 181.659 186.592 181.707C186.645 181.755 186.713 181.784 186.786 181.788C186.858 181.792 186.931 181.772 186.992 181.731C187.888 181.115 193.376 177.915 193.52 177.435C193.6 177.173 193.754 176.973 193.984 176.835C195.312 176.024 196.066 175.992 196.248 176.739" stroke="#3E1D33" stroke-width="2"/>
<path d="M151.336 191.163C148.578 191.307 145.914 190.787 143.344 189.603" stroke="#996C40" stroke-width="2"/>
<path d="M143.344 189.603L139.112 188.499C138.808 188.424 138.645 188.232 138.624 187.923L138.104 181.523" stroke="#98615B" stroke-width="2"/>
<path d="M180.048 156.571C171.592 171.435 157.248 179.003 140.696 181.099" stroke="#996E69" stroke-width="2"/>
<path d="M140.696 181.099C139.736 180.144 139.471 179.187 139.903 178.227C140.026 177.965 140.021 177.704 139.887 177.443C139.269 176.253 139.461 175.224 140.463 174.355C140.623 174.216 140.6 174.147 140.392 174.147C140.301 174.147 140.21 174.147 140.12 174.147C139.938 174.152 139.866 174.067 139.903 173.891C140.063 173.133 139.898 172.491 139.408 171.963C139.317 171.864 139.252 171.745 139.22 171.616C139.188 171.488 139.189 171.354 139.223 171.227L139.751 169.227" stroke="#FEC9A9" stroke-width="2"/>
<path d="M139.751 169.227C141.815 168.369 143.557 167.113 144.975 165.459" stroke="#C87065" stroke-width="2"/>
<path d="M144.976 165.459C147.68 162.328 149.469 158.675 150.344 154.499C150.525 153.635 150.173 153.192 149.288 153.171C148.802 153.16 148.184 153.371 147.432 153.803" stroke="#AD655A" stroke-width="2"/>
<path d="M154.192 146.019L160.16 145.123" stroke="#F8D7C3" stroke-width="2"/>
<path d="M160.16 145.123C158.928 146.083 157.512 146.219 156.264 146.963C155.256 147.561 154.208 148.049 153.12 148.427C151.528 148.979 150.472 149.779 151.088 151.563C151.672 153.267 152.184 154.891 153.856 155.859C160.744 159.851 173.664 159.395 175.736 149.859C176.416 146.755 167.856 144.059 165.952 142.859" stroke="#FDB290" stroke-width="2"/>
<path d="M165.952 142.859C166.885 142.294 167.656 141.531 168.264 140.571" stroke="#F8D7C3" stroke-width="2"/>
<path d="M168.264 140.571C170.664 137.731 172.152 134.611 170.432 130.971C168.789 127.51 166.005 125.112 162.08 123.779" stroke="#8E6C66" stroke-width="2"/>
<path d="M154.936 110.403C159.741 109.475 164.213 110.304 168.352 112.891C168.752 113.142 168.808 113.08 168.52 112.707C164.904 108.035 156.216 108.539 151.552 110.539" stroke="#CE8369" stroke-width="2"/>
<path d="M151.552 110.539C151.061 110.459 150.992 110.003 151.344 109.171" stroke="#F79C70" stroke-width="2"/>
<path d="M151.344 109.171C156.208 106.523 162.552 106.027 167.184 109.483C167.546 109.755 167.618 109.694 167.4 109.299C167.021 108.627 166.448 108.03 165.68 107.507" stroke="#CE8369" stroke-width="2"/>
<path d="M165.68 107.507C166.288 106.749 166.33 106.288 165.808 106.123" stroke="#FDB290" stroke-width="2"/>
<path d="M165.808 106.123L163.8 104.147" stroke="#F79C70" stroke-width="2"/>
<path d="M127.728 139.051C126.891 137.931 125.982 137.446 125 137.595C124.871 137.616 124.752 137.675 124.659 137.766C124.566 137.856 124.504 137.972 124.48 138.099C124.264 139.251 123.568 145.091 125.696 144.955C125.869 144.944 126.039 144.899 126.194 144.821C126.35 144.744 126.488 144.636 126.602 144.504C126.716 144.373 126.803 144.22 126.857 144.054C126.912 143.888 126.933 143.713 126.92 143.539C126.84 142.446 127.166 141.318 127.896 140.155" stroke="#F9E1CD" stroke-width="2"/>
<path d="M126.736 145.923C126.16 146.131 125.464 146.203 124.648 146.139C124.551 146.132 124.454 146.16 124.375 146.217C124.296 146.274 124.239 146.356 124.214 146.45C124.189 146.543 124.198 146.642 124.239 146.728C124.281 146.815 124.352 146.884 124.44 146.923C125.746 147.509 127.4 147.496 129.4 146.883" stroke="#F8A67A" stroke-width="2"/>
<path d="M124.544 156.203C118.138 156.267 112.04 155.067 106.248 152.603C105.938 152.47 105.768 152.571 105.736 152.907C105.32 157.723 108.784 163.195 112.16 166.267" stroke="#AD6F65" stroke-width="2"/>
<path d="M112.16 166.267C119.64 172.483 130.752 172.611 139.752 169.227" stroke="#C97A6F" stroke-width="2"/>
<path d="M140.696 181.098L138.104 181.522" stroke="#997873" stroke-width="2"/>
<path d="M138.104 181.523C132.536 182.339 126.986 182.411 121.456 181.739C121.216 181.712 120.986 181.749 120.768 181.851C120.496 181.979 120.154 182.008 119.744 181.939" stroke="#FDBC9B" stroke-width="2"/>
<path d="M119.744 181.939L119.576 181.635C119.448 181.406 119.251 181.272 118.984 181.235C99.1361 178.491 80.4001 170.547 74.4321 149.579" stroke="#997873" stroke-width="2"/>
<path d="M74.4317 149.579C74.613 146.224 74.293 143.08 73.4717 140.147" stroke="#FEC9A9" stroke-width="2"/>
<path d="M73.4718 140.147L72.8398 137.779" stroke="#FDB593" stroke-width="2"/>
<path d="M72.8398 137.779C73.1598 136.878 73.1625 136.171 72.8478 135.659" stroke="#FEC9A9" stroke-width="2"/>
<path d="M86.9282 109.13C91.0722 105.89 97.9282 106.346 102.144 108.89" stroke="#E8A685" stroke-width="2"/>
<path d="M101.248 110.019C96.4962 108.099 91.7629 108.355 87.0482 110.787C86.9602 110.835 86.7202 110.995 86.6882 111.091C86.5869 111.363 86.6722 111.446 86.9442 111.339C92.6482 109.099 96.1442 109.379 101.952 111.155" stroke="#D69276" stroke-width="2"/>
<path d="M106.392 106.675C103.192 103.352 99.1282 102.235 94.2002 103.323" stroke="#FEA17E" stroke-width="2"/>
<path d="M119.744 181.939L119.736 185.875" stroke="#98615B" stroke-width="2"/>
<path d="M119.735 185.875C119.821 186.542 119.759 187.088 119.551 187.515C119.497 187.631 119.415 187.733 119.312 187.811C119.209 187.889 119.088 187.941 118.959 187.963C114.565 188.731 110.295 189.952 106.151 191.627" stroke="#996E69" stroke-width="2"/>
<path d="M106.152 191.627L98.4243 191.475" stroke="#90848D" stroke-width="2"/>
<path d="M61.4641 144.315C61.1601 141.275 61.9601 139.483 63.8641 138.939C63.986 138.904 64.1142 138.897 64.239 138.919C64.3637 138.941 64.4818 138.992 64.5842 139.067C66.1842 140.229 67.9628 140.939 69.9202 141.195C74.3442 141.771 70.1522 136.739 69.8162 135.755" stroke="#FD825E" stroke-width="2"/>
<path d="M202.704 88.0188L199.664 88.2748C199.376 88.2961 199.139 88.4161 198.952 88.6348C198.494 89.1415 197.915 89.4161 197.216 89.4588C196.955 89.4748 196.728 89.5735 196.536 89.7548C194.638 91.5788 192.656 92.4188 190.592 92.2748" stroke="#803430" stroke-width="2"/>
<path d="M85.4797 216.195C85.5651 216.046 85.5198 215.825 85.3438 215.531" stroke="#E1DFDC" stroke-width="2"/>
<path d="M85.3438 215.531L91.8477 219.315" stroke="#EBD38E" stroke-width="2"/>
<path d="M91.8477 219.315L93.9037 220.931C94.1223 221.101 94.3703 221.192 94.6477 221.203C96.013 221.267 97.2263 221.656 98.2877 222.371" stroke="#EAC78F" stroke-width="2"/>
<path d="M98.2876 222.371C98.8156 223.016 99.4503 223.262 100.192 223.107C100.309 223.082 100.431 223.083 100.547 223.109C100.663 223.135 100.771 223.186 100.864 223.259C101.477 223.75 102.162 224.123 102.92 224.379C118.669 229.739 134.685 230.363 150.968 226.251" stroke="#EBD38E" stroke-width="2"/>
<path d="M150.968 226.251C158.957 224 166.466 220.587 173.496 216.011C173.64 215.92 173.72 215.789 173.736 215.619C173.741 215.539 173.738 215.461 173.728 215.387" stroke="#EAC78F" stroke-width="2"/>
<path d="M173.728 215.387C174.272 215.643 174.611 215.627 174.744 215.339C192.563 203.147 205.389 187.056 213.224 167.067C216.6 158.459 219.248 149.352 221.168 139.747" stroke="#E1DFDC" stroke-width="2"/>
<path d="M98.2877 222.371C98.821 222.35 99.237 222.4 99.5357 222.523C100.394 222.886 100.834 222.6 100.856 221.667C100.912 218.835 101.704 201.707 100.848 200.683C100.814 200.643 100.77 200.613 100.721 200.594C100.672 200.576 100.62 200.57 100.568 200.577C100.516 200.584 100.467 200.604 100.425 200.635C100.383 200.667 100.35 200.708 100.328 200.755L91.8477 219.315" stroke="#FEC84B" stroke-width="2"/>
<path d="M127.936 200.339C121.872 200.083 118.032 195.179 116.224 189.891C116.174 189.747 116.09 189.618 115.979 189.513C115.869 189.408 115.735 189.33 115.589 189.287C115.443 189.244 115.288 189.237 115.139 189.265C114.989 189.294 114.848 189.357 114.728 189.451C114.344 189.75 114.232 189.979 114.392 190.139" stroke="#FAAF6C" stroke-width="2"/>
<path d="M114.392 190.139L106.144 192.795" stroke="#FECA74" stroke-width="2"/>
<path d="M209.08 151.531C206.376 156.705 203.243 161.579 199.68 166.155C196.864 169.771 193.072 173.299 189.696 176.811C188.096 178.467 185.872 179.427 184.224 181.291C184.176 181.344 184.116 181.383 184.048 181.405C183.98 181.426 183.908 181.43 183.839 181.416C183.769 181.401 183.705 181.369 183.652 181.322C183.599 181.275 183.559 181.215 183.536 181.147C183.435 180.838 183.539 180.55 183.848 180.283C191.176 174.011 200.992 164.619 205.256 155.915" stroke="#411F30" stroke-width="2"/>
<path d="M173.728 215.386C169.672 205.706 161.552 194.386 150.832 191.97C150.395 191.874 150.371 191.714 150.76 191.49L151.336 191.162" stroke="#F4D499" stroke-width="2"/>
<path d="M151.336 191.163C167.952 190.099 182.672 186.659 196.248 176.739" stroke="#90848D" stroke-width="2"/>
<path d="M196.248 176.739C205.202 169.71 212.12 160.929 217 150.395" stroke="#99858D" stroke-width="2"/>
<path d="M144.976 165.459C138.24 160.235 126.656 160.523 118.552 161.747C117.264 161.947 113.08 163.163 112.544 164.435C112.336 164.931 112.208 165.541 112.16 166.267" stroke="#781621" stroke-width="2"/>
<path d="M165.952 142.859L160.16 145.123" stroke="#F8CAB5" stroke-width="2"/>
<path d="M165.808 106.123C163.904 105.331 162.6 104.587 160.48 104.675C156.784 104.819 154.023 105.384 152.199 106.371C150.605 107.235 150.445 107.822 151.72 108.131" stroke="#F78F62" stroke-width="2"/>
<path d="M151.72 108.131C150.632 108.963 150.507 109.31 151.344 109.171" stroke="#C8603A" stroke-width="2"/>
<path d="M151.552 110.539L150.512 111.403" stroke="#C8603A" stroke-width="2"/>
<path d="M168.264 140.571C169.08 138.491 169.125 136.6 168.4 134.899C167.44 132.627 164.24 127.899 161.28 127.611C160.928 127.574 160.848 127.704 161.04 128.003C162.368 130.115 163.944 132.123 164.152 134.603C164.728 141.323 159.288 145.835 152.624 143.355" stroke="#89838B" stroke-width="2"/>
<path d="M143.344 189.603C143.12 189.886 143.051 190.187 143.136 190.507" stroke="#FDB167" stroke-width="2"/>
<path d="M143.136 190.507C142.837 190.528 142.635 190.742 142.528 191.147C140.571 198.566 135.707 201.63 127.936 200.339" stroke="#F9A25E" stroke-width="2"/>
<path d="M127.936 200.339C128.808 195.963 128.904 188.427 123.304 186.995C122.115 186.691 120.925 186.318 119.736 185.875" stroke="#FDB290" stroke-width="2"/>
<path d="M150.968 226.251C146.099 220.112 141.736 215.493 137.88 212.395C136.653 211.413 133.68 209.357 128.96 206.227" stroke="#FEC84B" stroke-width="2"/>
<path d="M165.68 107.507C160.896 105.693 156.243 105.901 151.72 108.131" stroke="#CE765B" stroke-width="2"/>
<path d="M143.136 190.507C144.288 191.123 138.824 200.627 137.888 202.059C136.008 204.939 132.12 205.891 128.96 206.227" stroke="#FAAE43" stroke-width="2"/>
<path d="M128.96 206.227C121.093 203.107 116.237 197.744 114.392 190.139" stroke="#FABA42" stroke-width="2"/>
<path d="M188.944 134.531C192.168 134.371 193.968 134.251 197.592 135.851C197.845 135.964 198.047 136.166 198.16 136.419C198.325 136.797 198.651 136.979 199.136 136.963C199.269 136.959 199.399 136.919 199.511 136.847C199.623 136.775 199.713 136.674 199.771 136.555C199.83 136.436 199.855 136.304 199.843 136.173C199.831 136.042 199.783 135.916 199.704 135.811C196.717 131.773 193.043 131.061 188.68 133.675C188.594 133.729 188.528 133.81 188.493 133.906C188.457 134.002 188.454 134.106 188.484 134.204C188.515 134.301 188.576 134.386 188.659 134.445C188.742 134.504 188.842 134.534 188.944 134.531Z" stroke="#FDBA99" stroke-width="2"/>
<path d="M186.864 144.139C195.92 151.851 202.08 137.123 196.592 136.715" stroke="#FC9E7B" stroke-width="2"/>
<path d="M196.592 136.715C190.805 134.011 187.117 135.355 185.528 140.747C185.128 142.101 185.573 143.232 186.864 144.139" stroke="#F0835D" stroke-width="2"/>
<path d="M196.592 136.715C196.672 137.568 196.579 138.232 196.312 138.707C196.158 138.984 195.931 139.064 195.632 138.947C192.288 137.635 187.456 136.291 187.016 141.707C186.958 142.459 186.907 143.269 186.864 144.139" stroke="#F07B55" stroke-width="2"/>
<path d="M88.1924 140.155C90.3417 141.803 92.8591 143.123 95.7444 144.115" stroke="#FEE8D9" stroke-width="2"/>
<path d="M95.7443 144.115L86.8883 144.179C86.6163 144.179 86.3976 144.288 86.2323 144.507C84.5603 146.747 83.5123 147.939 80.5203 147.963C80.2536 147.963 80.1309 148.096 80.1523 148.363C80.3203 150.443 82.2483 150.851 83.7043 151.547C83.7771 151.581 83.8418 151.63 83.8941 151.691C83.9465 151.752 83.9853 151.824 84.008 151.901C84.0307 151.978 84.0367 152.059 84.0257 152.139C84.0148 152.218 83.987 152.295 83.9443 152.363L83.1843 153.603C83.0669 153.79 83.0989 153.95 83.2803 154.083C89.4723 158.499 96.8803 157.755 103.56 154.619C103.811 154.502 103.883 154.315 103.776 154.059C103.616 153.686 103.678 153.366 103.96 153.099C104.126 152.944 104.224 152.758 104.256 152.539C104.47 151.206 104.019 150.19 102.904 149.491C102.648 149.331 102.459 149.112 102.336 148.835C101.936 147.971 101.344 147.222 100.56 146.587C100.352 146.416 100.115 146.315 99.8483 146.283C99.0269 146.198 98.6003 145.718 98.5683 144.843" stroke="#FEC9A9" stroke-width="2"/>
<path d="M98.5679 144.843C109.6 145.571 110.864 135.651 107.976 127.923C107.931 127.8 107.845 127.698 107.733 127.632C107.62 127.566 107.488 127.542 107.36 127.563C106.971 127.632 106.669 127.843 106.456 128.195" stroke="#FEE8D9" stroke-width="2"/>
<path d="M106.456 128.195C104.355 124.803 101.651 123.03 98.3439 122.875C90.7706 122.528 86.0159 126.15 84.0799 133.739C83.8639 134.563 84.3599 135.787 85.0479 136.483C86.2693 137.72 87.3173 138.944 88.1919 140.155" stroke="#8A736A" stroke-width="2"/>
<path d="M106.456 128.195C109.12 133.067 107.871 139.971 102.559 142.531C93.7515 146.779 88.8315 136.155 93.9435 129.851C94.0412 129.729 94.1643 129.629 94.304 129.56C94.4437 129.491 94.5966 129.454 94.7515 129.451C96.1595 129.43 96.5408 129.803 95.8955 130.571" stroke="#8A8890" stroke-width="2"/>
<path d="M95.8956 130.571C95.4849 130.368 95.1009 130.312 94.7436 130.403C94.608 130.435 94.4888 130.515 94.4079 130.629C94.3269 130.742 94.2899 130.881 94.3036 131.02C94.3172 131.159 94.3807 131.288 94.4822 131.383C94.5837 131.478 94.7164 131.534 94.8556 131.539C94.9623 131.544 95.2556 131.467 95.7356 131.307" stroke="#245B64" stroke-width="2"/>
<path d="M95.7356 131.307C96.4076 131.851 96.9943 131.552 97.4956 130.411C97.6076 130.16 97.5863 129.923 97.4316 129.699C95.9996 127.683 93.7116 127.723 91.8076 129.195C87.8929 132.203 86.6876 135.856 88.1916 140.155" stroke="#8A8890" stroke-width="2"/>
<path d="M98.5677 144.843C97.0263 144.939 96.085 144.696 95.7437 144.115" stroke="#FEDECE" stroke-width="2"/>
<path d="M95.7356 131.307C95.6983 131.067 95.7517 130.822 95.8957 130.571" stroke="#98D0D2" stroke-width="2"/>
<path d="M104.024 135.483C100.413 136.288 96.8268 136.219 93.2642 135.275C93.2105 135.26 93.1543 135.258 93.0997 135.268C93.045 135.279 92.9935 135.301 92.9488 135.334C92.9042 135.368 92.8676 135.41 92.8419 135.46C92.8161 135.509 92.8019 135.563 92.8002 135.619C92.6082 146.243 107.64 142.859 106.504 133.939C106.497 133.873 106.472 133.811 106.431 133.76C106.389 133.709 106.334 133.67 106.272 133.649C106.21 133.628 106.143 133.626 106.079 133.641C106.015 133.657 105.957 133.691 105.912 133.739C105.523 134.15 105.096 134.614 104.632 135.131C104.467 135.312 104.264 135.43 104.024 135.483Z" stroke="#261E2F" stroke-width="2"/>
<path d="M160.896 130.667L158.12 129.427C158.095 129.415 158.067 129.408 158.038 129.406C158.01 129.405 157.982 129.409 157.955 129.419C157.928 129.429 157.903 129.444 157.882 129.463C157.861 129.482 157.844 129.505 157.832 129.531L157.776 129.659C157.591 130.077 157.576 130.55 157.737 130.976C157.897 131.402 158.219 131.745 158.632 131.931L158.68 131.955C159.095 132.139 159.566 132.149 159.99 131.985C160.414 131.82 160.758 131.492 160.944 131.075L161 130.955C161.013 130.929 161.02 130.901 161.021 130.873C161.022 130.844 161.018 130.816 161.008 130.789C160.999 130.763 160.984 130.738 160.965 130.717C160.945 130.696 160.922 130.679 160.896 130.667Z" stroke="#8E8B96" stroke-width="2"/>
<path d="M149.904 138.979C152.688 145.867 161.632 142.787 163.008 136.315C163.037 136.18 163.039 136.041 163.013 135.906C162.987 135.77 162.934 135.642 162.857 135.528C162.78 135.413 162.681 135.316 162.565 135.241C162.45 135.166 162.32 135.115 162.184 135.091C160.974 134.883 160.248 135.331 160.008 136.435C159.981 136.554 159.916 136.661 159.824 136.741C159.732 136.821 159.618 136.871 159.496 136.883C156.888 137.107 154.307 137.024 151.752 136.635C151.453 136.59 151.147 136.626 150.865 136.738C150.584 136.849 150.337 137.033 150.149 137.271C149.962 137.509 149.84 137.792 149.797 138.092C149.754 138.392 149.791 138.698 149.904 138.979Z" stroke="#312437" stroke-width="2"/>
<path d="M130.047 29.2988L141.855 33.2029C141.015 34.4269 143.223 34.6269 143.975 35.0829C146.322 36.5069 148.735 37.8428 151.215 39.0908C149.807 40.2588 148.933 41.8828 148.591 43.9628C143.647 58.4908 124.495 69.3628 111.071 73.7868C99.7754 77.5068 87.0554 81.1308 77.5034 87.7228C63.4474 97.4108 59.4634 111.763 54.8154 127.347C51.3834 129.811 51.0874 135.211 51.3754 139.219C51.3796 139.279 51.3702 139.34 51.3479 139.397C51.3255 139.453 51.2909 139.504 51.2464 139.545C51.202 139.587 51.1488 139.618 51.0908 139.636C51.0329 139.654 50.9716 139.659 50.9114 139.651L47.6954 139.203C45.5354 125.259 52.4874 106.835 60.0314 95.0829C66.9594 84.2909 77.6794 77.3789 89.7274 73.5069C89.9834 73.4269 90.2021 73.2908 90.3834 73.0988C90.6554 72.8055 90.9834 72.5788 91.3674 72.4188C91.6981 72.2802 91.6848 72.2108 91.3274 72.2108H90.8154C90.3461 72.2108 90.2421 72.0135 90.5034 71.6188C91.5701 69.9922 92.9701 68.4882 94.7034 67.1069C98.9488 63.7042 102.594 59.5949 105.639 54.7789C105.783 54.5495 105.978 54.3762 106.223 54.2589L107.807 53.5228C108.085 53.3948 108.247 53.1815 108.295 52.8829C108.439 51.9975 108.901 51.3549 109.679 50.9549C109.927 50.8314 110.123 50.6213 110.231 50.3628L110.935 48.7228C110.967 48.6428 110.941 48.6002 110.855 48.5948C110.754 48.5895 110.663 48.5682 110.583 48.5309C110.381 48.4455 110.389 48.4029 110.607 48.4029C111.135 48.4082 111.517 48.1922 111.751 47.7549L123.735 46.1789C123.814 46.1799 123.89 46.1497 123.946 46.095C124.002 46.0402 124.034 45.9653 124.035 45.8868C124.036 45.8083 124.006 45.7326 123.952 45.6764C123.897 45.6201 123.822 45.5879 123.743 45.5868L116.815 44.5388C116.97 43.0722 117.821 41.4722 119.367 39.7388C121.106 37.7815 122.063 34.9975 122.239 31.3868C122.25 31.1202 122.127 31.0028 121.871 31.0348L119.495 31.2908C111.767 30.9762 104.114 31.8348 96.5354 33.8668C95.9968 33.3602 95.6128 32.5655 95.3834 31.4829C95.2661 30.9495 95.4794 30.4108 96.0234 29.8668C107.202 27.5842 118.543 27.3948 130.047 29.2988Z" fill="#9F4633"/>
<path d="M168.608 41.3465L155.464 41.5945C151.619 38.0745 147.083 35.2771 141.856 33.2025L130.048 29.2985C139.456 29.3625 148.971 31.6878 158.592 36.2745C163.723 38.7171 167.061 40.4078 168.608 41.3465Z" fill="#EBECE6"/>
<path d="M96.0238 29.8672C95.4798 30.4112 95.2665 30.9499 95.3838 31.4832C95.6131 32.5659 95.9971 33.3605 96.5358 33.8672C77.9224 39.0245 63.3411 49.5978 52.7918 65.5872C51.1118 65.2085 49.5251 65.1739 48.0318 65.4832C47.7651 65.5419 47.5705 65.4485 47.4478 65.2032C47.1651 64.6432 46.7758 64.3152 46.2798 64.2192C57.6025 45.8299 74.1838 34.3792 96.0238 29.8672Z" fill="#B86243"/>
<path d="M116.816 44.5388C91.8317 43.6188 67.9597 55.8348 54.3757 76.7068C51.3277 81.3868 49.3597 87.0588 47.4157 92.4508C47.3624 92.5948 47.4104 92.6828 47.5597 92.7148C47.6557 92.7361 47.7277 92.7068 47.7757 92.6268C62.0477 68.1948 83.2877 51.8748 111.752 47.7548C111.517 48.1922 111.136 48.4082 110.608 48.4028C110.389 48.4028 110.381 48.4455 110.584 48.5308C110.664 48.5682 110.754 48.5895 110.856 48.5948C110.941 48.6001 110.968 48.6428 110.936 48.7228L110.232 50.3628C110.123 50.6213 109.927 50.8313 109.68 50.9548C108.901 51.3548 108.44 51.9975 108.296 52.8828C108.248 53.1815 108.085 53.3948 107.808 53.5228L106.224 54.2588C105.978 54.3762 105.784 54.5495 105.64 54.7788C102.594 59.5948 98.9491 63.7042 94.7037 67.1068C92.9704 68.4882 91.5704 69.9921 90.5037 71.6188C90.2424 72.0135 90.3464 72.2108 90.8157 72.2108H91.3277C91.6851 72.2108 91.6984 72.2801 91.3677 72.4188C90.9837 72.5788 90.6557 72.8055 90.3837 73.0988C90.2024 73.2908 89.9837 73.4268 89.7277 73.5068C77.6797 77.3788 66.9597 84.2908 60.0317 95.0828C52.4877 106.835 45.5357 125.259 47.6957 139.203L48.9677 146.019C48.9997 146.195 48.9277 146.296 48.7517 146.323C47.4877 146.515 46.8211 147.269 46.7517 148.587C46.743 148.744 46.6847 148.894 46.5853 149.015C46.486 149.136 46.3508 149.221 46.1997 149.259L42.3997 150.251C42.1171 150.325 41.9304 150.224 41.8397 149.947C41.3224 148.427 40.4584 147.331 39.2477 146.659C28.0317 120.059 32.1277 88.8028 46.2797 64.2188C46.7757 64.3148 47.1651 64.6428 47.4477 65.2028C47.5704 65.4482 47.7651 65.5415 48.0317 65.4828C49.5251 65.1735 51.1117 65.2081 52.7917 65.5868C49.6184 71.1495 47.0184 77.3628 44.9917 84.2268C44.9745 84.2883 44.9802 84.3539 45.0076 84.4115C45.035 84.4691 45.0824 84.5149 45.141 84.5402C45.1995 84.5656 45.2653 84.5689 45.3261 84.5495C45.3869 84.5302 45.4387 84.4894 45.4717 84.4348C47.0397 81.8508 48.0637 78.7228 49.4397 76.3788C65.1917 49.5548 90.9117 37.8108 120.488 32.0188C120.85 31.9495 120.896 31.7868 120.624 31.5308C120.426 31.3442 120.05 31.2641 119.496 31.2908L121.872 31.0348C122.128 31.0028 122.25 31.1201 122.24 31.3868C122.064 34.9975 121.106 37.7815 119.368 39.7388C117.821 41.4721 116.97 43.0721 116.816 44.5388Z" fill="#AD5138"/>
<path d="M119.496 31.2906C120.05 31.2639 120.426 31.3439 120.624 31.5306C120.896 31.7866 120.85 31.9493 120.488 32.0186C90.9117 37.8106 65.1917 49.5546 49.4397 76.3786C48.0637 78.7226 47.0397 81.8506 45.4717 84.4346C45.4386 84.4892 45.3869 84.5299 45.3261 84.5493C45.2653 84.5687 45.1995 84.5654 45.141 84.54C45.0824 84.5146 45.035 84.4689 45.0076 84.4113C44.9801 84.3536 44.9745 84.2881 44.9917 84.2266C47.0184 77.3626 49.6184 71.1493 52.7917 65.5866C63.341 49.5972 77.9224 39.0239 96.5357 33.8666C104.114 31.8346 111.768 30.9759 119.496 31.2906Z" fill="#D17857"/>
<path d="M141.856 33.2031C147.082 35.2778 151.618 38.0751 155.464 41.5951C158.112 49.8511 156.08 54.8031 154.84 62.6751C145.816 78.7311 128.824 86.7071 111.336 90.5391C91.9038 94.7951 77.7198 102.643 70.4398 122.475C69.5385 124.939 69.4718 127.072 70.2398 128.875C70.2185 128.923 70.1171 128.955 69.9358 128.971C68.5598 124.763 63.7118 124.091 59.9038 124.747C60.3145 124.059 60.8798 123.648 61.5998 123.515C61.8683 123.464 62.1191 123.344 62.3278 123.167C62.5366 122.991 62.6964 122.763 62.7918 122.507C65.2238 115.891 67.7038 108.819 71.3678 102.851C72.4131 101.15 73.4211 99.4191 74.3918 97.6591C85.6398 86.7791 97.9278 84.0431 112.52 80.5231C129.752 76.3631 148.52 64.6351 153.24 46.4111C153.552 45.2031 153.672 43.4351 154.176 41.9791C154.266 41.7231 154.205 41.5098 153.992 41.3391L151.216 39.0911C148.736 37.8431 146.322 36.5071 143.976 35.0831C143.224 34.6271 141.016 34.4271 141.856 33.2031Z" fill="#61272F"/>
<path d="M151.216 39.0906L153.992 41.3386C154.205 41.5092 154.267 41.7226 154.176 41.9786C153.672 43.4346 153.552 45.2026 153.24 46.4106C148.52 64.6346 129.752 76.3626 112.52 80.5226C97.9281 84.0426 85.6401 86.7786 74.3921 97.6586C79.4534 91.5839 85.4534 87.1733 92.3921 84.4266C101.864 80.6746 114.928 77.7706 122.952 74.2186C132.76 69.8746 142.024 63.0266 147.504 53.5226C148.528 51.7546 147.968 50.3706 148.408 48.8026C148.771 47.4959 149.173 46.2159 149.616 44.9626C149.701 44.7226 149.683 44.4906 149.56 44.2666C149.341 43.8666 149.019 43.7652 148.592 43.9626C148.933 41.8826 149.808 40.2586 151.216 39.0906Z" fill="#863934"/>
<path d="M168.608 41.3469C174.213 42.2269 179.485 43.7896 184.424 46.0349C184.067 46.4936 184.029 46.7869 184.312 46.9149C189.309 49.2136 193.84 52.2216 197.904 55.9389C198.117 56.1309 198.261 56.3656 198.336 56.6429C198.485 57.1923 198.816 57.6189 199.328 57.9229C199.432 57.9857 199.517 58.0753 199.575 58.1822C199.632 58.2891 199.66 58.4095 199.656 58.5309C199.608 59.5443 199.973 60.4243 200.752 61.1709C200.949 61.3629 201.072 61.5923 201.12 61.8589C201.32 62.9549 201.304 63.0589 202.024 63.9149C217.968 82.9789 220.08 111.851 212.496 134.579C212.423 134.806 212.273 135 212.071 135.126C211.869 135.253 211.629 135.304 211.394 135.271C211.158 135.237 210.941 135.121 210.783 134.943C210.624 134.765 210.534 134.537 210.528 134.299L210.44 131.963C213.123 118.176 213.083 104.608 210.32 91.2589C210 89.6989 209.288 88.0029 208.88 86.3069C207.845 82.0243 206.317 77.9336 204.296 74.0349C204.194 73.8376 204.056 73.6696 203.88 73.5309C203.331 73.0883 202.981 72.9416 202.832 73.0909C202.568 73.361 202.398 73.7087 202.348 74.082C202.297 74.4554 202.369 74.8345 202.552 75.1629C209.048 86.9869 211.904 104.659 208.288 117.731C208.171 118.158 207.952 118.483 207.632 118.707C207.591 118.735 207.544 118.752 207.495 118.757C207.446 118.761 207.396 118.752 207.351 118.731C207.307 118.71 207.268 118.677 207.24 118.636C207.212 118.596 207.196 118.548 207.192 118.499C206.264 107.987 205.976 99.1069 202.704 88.0189C198.752 74.4429 191.816 62.2349 180.312 53.8429C180.109 53.6989 179.901 53.6856 179.688 53.8029C175.944 55.8589 174.168 57.3869 173.008 61.1949C172.923 61.4776 172.755 61.6936 172.504 61.8429L169.912 63.3709C169.64 63.5277 169.416 63.7574 169.264 64.0349C168.784 64.8882 168.133 65.4189 167.312 65.6269C166.555 65.0669 166.024 64.7629 165.72 64.7149C164.515 64.5389 164.405 64.8056 165.392 65.5149C170.568 69.2349 175.536 72.9549 179.072 78.1469C185.24 87.2109 188.464 97.4269 190.888 108.035C190.952 108.339 190.84 108.539 190.552 108.635L189.936 108.851C189.675 108.936 189.509 108.848 189.44 108.587C188.523 105.307 187.584 102.04 186.624 98.7869C183.208 87.1629 174.312 75.3629 164.48 69.3149C164.299 69.2029 164.099 69.1469 163.88 69.1469H162.464C162.101 69.1469 161.827 68.9896 161.64 68.6749C160.552 66.8349 159.421 65.9309 158.248 65.9629L154.84 62.6749C156.08 54.8029 158.112 49.8509 155.464 41.5949L168.608 41.3469Z" fill="#9F4633"/>
<path d="M74.3919 97.6587C73.4212 99.4187 72.4132 101.149 71.3679 102.851C67.7039 108.819 65.2239 115.891 62.7919 122.507C62.6965 122.763 62.5367 122.99 62.3279 123.167C62.1191 123.343 61.8684 123.463 61.5999 123.515C60.8799 123.648 60.3145 124.059 59.9039 124.747C58.0105 125.477 56.4159 126.621 55.1199 128.179C54.6932 128.179 54.5919 127.901 54.8159 127.347C59.4639 111.763 63.4479 97.4107 77.5039 87.7227C87.0559 81.1307 99.7759 77.5067 111.072 73.7867C124.496 69.3627 143.648 58.4907 148.592 43.9627C149.019 43.7653 149.341 43.8667 149.56 44.2667C149.683 44.4907 149.701 44.7227 149.616 44.9627C149.173 46.216 148.771 47.496 148.408 48.8027C147.968 50.3707 148.528 51.7547 147.504 53.5227C142.024 63.0267 132.76 69.8747 122.952 74.2187C114.928 77.7707 101.864 80.6747 92.3919 84.4267C85.4532 87.1733 79.4532 91.584 74.3919 97.6587Z" fill="#792F2C"/>
<path d="M116.817 44.5391L123.745 45.5871C123.823 45.5882 123.898 45.6204 123.953 45.6766C124.007 45.7329 124.038 45.8086 124.037 45.8871C124.035 45.9656 124.003 46.0405 123.947 46.0952C123.891 46.15 123.815 46.1802 123.737 46.1791L111.753 47.7551C83.2886 51.8751 62.0486 68.1951 47.7766 92.6271C47.7286 92.7071 47.6566 92.7365 47.5606 92.7151C47.4112 92.6831 47.3632 92.5951 47.4166 92.4511C49.3606 87.0591 51.3286 81.3871 54.3766 76.7071C67.9606 55.8351 91.8326 43.6191 116.817 44.5391Z" fill="#D17857"/>
<path d="M184.424 46.0344C210.176 59.0264 223.192 88.2344 224.096 116.066C223.845 123.949 222.869 131.842 221.168 139.746L217 150.394C216.109 150.165 215.488 150.352 215.136 150.954C214.304 152.394 213.165 154.562 211.72 157.458C211.549 157.805 211.378 157.802 211.208 157.45C210.44 155.85 210.669 154.381 211.896 153.042C212.104 152.813 212.066 152.634 211.784 152.506L211.464 152.354C211.362 152.309 211.25 152.292 211.14 152.306C211.03 152.32 210.926 152.365 210.84 152.434C209.885 153.229 209.298 152.928 209.08 151.53L214.024 139.498C214.152 139.189 214.05 138.997 213.72 138.922C213.122 138.789 212.528 138.877 211.936 139.186C211.838 139.239 211.754 139.312 211.689 139.401C211.624 139.49 211.579 139.591 211.56 139.698C210.541 145.506 208.44 150.912 205.256 155.914L202.992 159.346C202.931 159.436 202.843 159.503 202.741 159.538C202.639 159.573 202.528 159.575 202.425 159.543C202.322 159.511 202.232 159.446 202.168 159.359C202.105 159.272 202.071 159.166 202.072 159.058C202.216 154.354 197.624 156.274 195.408 153.922C195.318 153.828 195.261 153.706 195.247 153.576C195.232 153.446 195.261 153.315 195.328 153.202C195.776 152.45 195.877 152.026 195.632 151.93C203.224 147.97 209.048 137.034 203.096 129.394C197.816 122.602 188.68 123.898 185.248 132.186C185.056 132.656 184.954 132.637 184.944 132.13C184.88 129.29 185.008 126.378 184.648 123.77C181.618 102 172.818 82.7304 158.248 65.9624C159.421 65.9304 160.552 66.8344 161.64 68.6744C161.826 68.9891 162.101 69.1464 162.464 69.1464H163.88C164.098 69.1464 164.298 69.2024 164.48 69.3144C174.312 75.3624 183.208 87.1624 186.624 98.7864C187.584 102.04 188.522 105.306 189.44 108.586C189.509 108.848 189.674 108.936 189.936 108.85L190.552 108.634C190.84 108.538 190.952 108.338 190.888 108.034C188.464 97.4264 185.24 87.2104 179.072 78.1464C175.536 72.9544 170.568 69.2344 165.392 65.5144C164.405 64.8051 164.514 64.5384 165.72 64.7144C166.024 64.7624 166.554 65.0664 167.312 65.6264C178.736 70.9971 186.496 79.8798 190.592 92.2744C191.594 95.3838 193.493 101.888 196.288 111.786C196.984 114.274 201.632 126.402 204.312 127.57C204.562 127.677 204.736 127.861 204.832 128.122C206.176 131.69 209.04 129.61 210.44 131.962L210.528 134.298C210.534 134.537 210.624 134.765 210.783 134.943C210.941 135.121 211.157 135.237 211.393 135.27C211.629 135.304 211.869 135.253 212.071 135.126C212.273 134.999 212.423 134.805 212.496 134.578C220.08 111.85 217.968 82.9784 202.024 63.9144C201.304 63.0584 201.32 62.9544 201.12 61.8584C201.072 61.5918 200.949 61.3624 200.752 61.1704C199.973 60.4238 199.608 59.5438 199.656 58.5304C199.66 58.409 199.632 58.2886 199.575 58.1817C199.517 58.0748 199.432 57.9852 199.328 57.9224C198.816 57.6184 198.485 57.1918 198.336 56.6424C198.261 56.3651 198.117 56.1304 197.904 55.9384C193.84 52.2211 189.309 49.2131 184.312 46.9144C184.029 46.7864 184.066 46.4931 184.424 46.0344Z" fill="#61272F"/>
<path d="M202.704 88.0184L199.664 88.2744C199.376 88.2957 199.138 88.4157 198.952 88.6344C198.493 89.1411 197.914 89.4158 197.216 89.4584C196.954 89.4744 196.728 89.5731 196.536 89.7544C194.637 91.5784 192.656 92.4184 190.592 92.2744C186.496 79.8797 178.736 70.9971 167.312 65.6264C168.133 65.4184 168.784 64.8877 169.264 64.0344C169.415 63.7569 169.639 63.5272 169.912 63.3704L172.504 61.8424C172.754 61.6931 172.922 61.4771 173.008 61.1944C174.168 57.3864 175.944 55.8584 179.688 53.8024C179.901 53.6851 180.109 53.6984 180.312 53.8424C191.816 62.2344 198.752 74.4424 202.704 88.0184Z" fill="#863934"/>
<path d="M154.84 62.675L158.248 65.963C172.819 82.731 181.619 102 184.648 123.771C185.008 126.379 184.88 129.291 184.944 132.131C184.955 132.638 185.056 132.656 185.248 132.187C188.68 123.899 197.816 122.603 203.096 129.395C209.048 137.035 203.224 147.971 195.632 151.931C195.147 151.99 194.779 152.118 194.528 152.315C190.491 153.099 186.867 152.312 183.656 149.955C183.405 149.774 183.213 149.822 183.08 150.099L180.048 156.571C177.739 155.216 176.837 153.459 177.344 151.299C178.976 144.315 178.208 136.235 177.232 128.755C175.168 113.035 170.544 96.2271 162.248 83.7551C160.547 81.0564 158.579 78.7231 156.344 76.7551C156.249 76.6682 156.125 76.6194 155.995 76.618C155.866 76.6165 155.739 76.6624 155.64 76.747C146.995 84.027 137.323 89.6777 126.624 93.699C116.656 97.0164 106.483 99.795 96.104 102.035C95.472 102.171 92.664 101.955 94.2 103.323L88.84 105.131C88.4773 105.254 88.448 105.432 88.752 105.667C88.9386 105.811 89.1813 105.814 89.48 105.675C95.224 103.099 100.861 103.432 106.392 106.675C107.133 109.304 105.653 110.798 101.952 111.155C102.661 110.67 102.427 110.291 101.248 110.019C101.904 109.88 102.203 109.504 102.144 108.891C102.763 108.95 103.147 108.79 103.296 108.411C103.403 108.144 103.325 107.96 103.064 107.859C98.568 106.091 89.648 103.811 86.928 109.131C81.048 115.155 73.848 121.875 73.288 130.891C73.2346 131.728 73.048 132.531 72.728 133.299C72.632 133.534 72.632 133.771 72.728 134.011C72.9306 134.507 72.9706 135.056 72.848 135.659C72.1386 134.726 71.76 133.864 71.712 133.075C72.0746 131.912 71.584 130.512 70.24 128.875C69.472 127.072 69.5386 124.939 70.44 122.475C77.72 102.643 91.9039 94.795 111.336 90.539C128.824 86.707 145.816 78.731 154.84 62.675ZM188.944 134.531C192.168 134.371 193.968 134.251 197.592 135.851C197.845 135.964 198.047 136.166 198.16 136.419C198.325 136.798 198.651 136.979 199.136 136.963C199.269 136.959 199.399 136.919 199.511 136.847C199.623 136.775 199.713 136.674 199.771 136.556C199.83 136.437 199.855 136.304 199.843 136.173C199.831 136.042 199.783 135.917 199.704 135.811C196.717 131.774 193.043 131.062 188.68 133.675C188.594 133.729 188.528 133.811 188.493 133.906C188.457 134.002 188.454 134.107 188.484 134.204C188.514 134.301 188.576 134.386 188.659 134.445C188.742 134.504 188.842 134.535 188.944 134.531ZM186.864 144.139C195.92 151.851 202.08 137.123 196.592 136.715C190.805 134.011 187.117 135.355 185.528 140.747C185.128 142.102 185.573 143.232 186.864 144.139Z" fill="#FCA582"/>
<path d="M210.44 131.963C209.04 129.611 206.176 131.691 204.832 128.123C204.736 127.862 204.563 127.678 204.312 127.571C201.632 126.403 196.984 114.275 196.288 111.787C193.494 101.888 191.595 95.3843 190.592 92.2749C192.656 92.4189 194.638 91.5789 196.536 89.7549C196.728 89.5736 196.955 89.4749 197.216 89.4589C197.915 89.4163 198.494 89.1416 198.952 88.6349C199.139 88.4163 199.376 88.2963 199.664 88.2749L202.704 88.0189C205.976 99.1069 206.264 107.987 207.192 118.499C207.196 118.548 207.213 118.596 207.241 118.636C207.269 118.677 207.307 118.71 207.352 118.731C207.397 118.752 207.446 118.761 207.495 118.757C207.545 118.752 207.592 118.735 207.632 118.707C207.952 118.483 208.171 118.158 208.288 117.731C211.904 104.659 209.048 86.9869 202.552 75.1629C202.369 74.8345 202.298 74.4554 202.348 74.082C202.399 73.7087 202.568 73.361 202.832 73.0909C202.982 72.9416 203.331 73.0883 203.88 73.5309C204.056 73.6696 204.195 73.8376 204.296 74.0349C206.318 77.9336 207.846 82.0243 208.88 86.3069C209.288 88.0029 210 89.6989 210.32 91.2589C213.083 104.608 213.123 118.176 210.44 131.963Z" fill="#792F2C"/>
<path d="M162.248 83.755C158.936 85.867 161.216 88.451 161.768 90.795C162.68 94.731 164.76 100.219 163.8 104.147C159.488 102.547 149.352 101.707 146.376 106.835C146.237 107.072 146.186 107.35 146.232 107.619C146.584 109.822 148.011 111.083 150.512 111.403L154.936 110.403C155.245 112.259 155.155 114.299 154.664 116.523C154.595 116.832 154.643 117.123 154.808 117.395L156.52 120.235C156.571 120.32 156.597 120.417 156.597 120.517C156.597 120.617 156.571 120.716 156.52 120.803L156.352 121.091C156.319 121.146 156.301 121.208 156.297 121.271C156.293 121.335 156.305 121.398 156.331 121.456C156.357 121.513 156.397 121.564 156.446 121.602C156.496 121.64 156.554 121.665 156.616 121.675C158.387 121.968 160.157 122.283 161.928 122.619C162.2 122.672 162.339 122.838 162.344 123.115C162.344 123.339 162.256 123.56 162.08 123.779C149.568 120.091 141.376 135.811 152.624 143.355C151.408 143.139 152.024 144.763 152.688 144.779C152.944 144.784 153.157 144.88 153.328 145.067L154.192 146.019L151.728 145.763C151.435 145.731 151.224 145.848 151.096 146.115C150.072 148.227 147.368 147.371 147.496 150.491C147.507 150.779 147.411 151.027 147.208 151.235C146.525 151.928 146.6 152.784 147.432 153.803C139.891 155.931 132.261 156.731 124.544 156.203L126.272 155.939C126.336 155.928 126.341 155.904 126.288 155.867L125.416 155.235C125.359 155.196 125.311 155.145 125.275 155.085C125.239 155.026 125.215 154.959 125.206 154.889C125.197 154.819 125.203 154.748 125.222 154.679C125.242 154.611 125.275 154.547 125.32 154.491L125.656 154.075C125.837 153.856 125.816 153.659 125.592 153.483L124.488 152.651C124.136 152.384 124.16 152.155 124.56 151.963C126.891 150.843 128.504 149.15 129.4 146.883C131.912 145.131 132.832 141.747 129.52 140.147C129.216 139.998 129.024 140.088 128.944 140.419L127.76 145.251C127.732 145.356 127.682 145.453 127.613 145.536C127.544 145.619 127.458 145.686 127.36 145.731C127.173 145.816 126.965 145.88 126.736 145.923C127.947 143.918 128.333 141.995 127.896 140.155C128.003 139.574 127.947 139.206 127.728 139.051C127.128 137.171 128 136.699 128.224 135.323C128.736 132.171 127.728 128.955 127.656 126.547C127.472 120.883 128.24 115.315 127.864 109.715C127.523 104.542 127.501 99.3577 127.8 94.163C127.816 93.8697 127.685 93.7737 127.408 93.875C126.955 94.0457 126.693 93.987 126.624 93.699C137.323 89.6777 146.995 84.027 155.64 76.747C155.739 76.6624 155.866 76.6165 155.995 76.618C156.125 76.6194 156.249 76.6682 156.344 76.755C158.579 78.723 160.547 81.0564 162.248 83.755Z" fill="#FECEAF"/>
<path d="M162.247 83.7546C170.543 96.2266 175.167 113.035 177.232 128.755C178.208 136.235 178.975 144.315 177.343 151.299C176.837 153.459 177.738 155.216 180.047 156.571C171.591 171.435 157.248 179.003 140.696 181.099C139.736 180.144 139.471 179.187 139.903 178.227C140.026 177.965 140.021 177.704 139.887 177.443C139.269 176.253 139.461 175.224 140.463 174.355C140.623 174.216 140.6 174.147 140.392 174.147C140.301 174.147 140.21 174.147 140.12 174.147C139.938 174.152 139.866 174.067 139.903 173.891C140.063 173.133 139.898 172.491 139.408 171.963C139.317 171.864 139.252 171.745 139.22 171.616C139.188 171.488 139.189 171.354 139.223 171.227L139.751 169.227C141.815 168.368 143.557 167.112 144.975 165.459C147.679 162.328 149.469 158.675 150.344 154.499C150.525 153.635 150.173 153.192 149.287 153.171C148.802 153.16 148.184 153.371 147.432 153.803C146.6 152.784 146.525 151.928 147.208 151.235C147.41 151.027 147.506 150.779 147.496 150.491C147.368 147.371 150.072 148.227 151.096 146.115C151.224 145.848 151.434 145.731 151.727 145.763L154.191 146.019L160.159 145.123C158.927 146.083 157.511 146.219 156.263 146.963C155.255 147.56 154.208 148.048 153.12 148.427C151.528 148.979 150.471 149.779 151.087 151.563C151.671 153.267 152.184 154.891 153.856 155.859C160.744 159.851 173.664 159.395 175.736 149.859C176.416 146.755 167.855 144.059 165.951 142.859C166.885 142.293 167.656 141.531 168.264 140.571C170.664 137.731 172.152 134.611 170.432 130.971C168.789 127.509 166.005 125.112 162.08 123.779C162.256 123.56 162.344 123.339 162.344 123.115C162.338 122.837 162.199 122.672 161.927 122.619C160.157 122.283 158.386 121.968 156.615 121.675C156.554 121.665 156.496 121.639 156.446 121.601C156.396 121.563 156.357 121.513 156.331 121.456C156.305 121.398 156.293 121.335 156.297 121.271C156.3 121.207 156.319 121.146 156.351 121.091L156.52 120.803C156.57 120.715 156.597 120.616 156.597 120.516C156.597 120.417 156.57 120.319 156.52 120.235L154.808 117.395C154.642 117.123 154.594 116.832 154.663 116.523C155.154 114.299 155.245 112.259 154.935 110.403C159.741 109.475 164.213 110.304 168.351 112.891C168.751 113.141 168.807 113.08 168.519 112.707C164.903 108.035 156.215 108.539 151.551 110.539C151.061 110.459 150.992 110.003 151.344 109.171C156.208 106.523 162.552 106.027 167.184 109.483C167.546 109.755 167.618 109.693 167.399 109.299C167.021 108.627 166.448 108.029 165.68 107.507C166.288 106.749 166.33 106.288 165.808 106.123L163.799 104.147C164.759 100.219 162.68 94.7306 161.767 90.7946C161.215 88.4506 158.935 85.8666 162.247 83.7546Z" fill="#FDBF9E"/>
<path d="M126.624 93.6985C126.694 93.9865 126.955 94.0452 127.408 93.8745C127.686 93.7732 127.816 93.8691 127.8 94.1625C127.502 99.3571 127.523 104.541 127.864 109.714C128.24 115.314 127.472 120.882 127.656 126.546C127.728 128.954 128.736 132.17 128.224 135.322C128 136.698 127.128 137.17 127.728 139.05C126.891 137.93 125.982 137.445 125 137.594C124.871 137.615 124.752 137.675 124.659 137.765C124.566 137.855 124.504 137.972 124.48 138.098C124.264 139.25 123.568 145.09 125.696 144.954C125.869 144.943 126.039 144.898 126.194 144.821C126.35 144.743 126.488 144.636 126.602 144.504C126.716 144.372 126.803 144.219 126.857 144.053C126.912 143.888 126.933 143.713 126.92 143.538C126.84 142.445 127.166 141.317 127.896 140.154C128.334 141.994 127.947 143.917 126.736 145.922C126.16 146.13 125.464 146.202 124.648 146.138C124.551 146.132 124.455 146.16 124.376 146.217C124.296 146.274 124.239 146.356 124.214 146.45C124.19 146.543 124.199 146.642 124.24 146.728C124.281 146.815 124.352 146.883 124.44 146.922C125.747 147.509 127.4 147.496 129.4 146.882C128.504 149.149 126.891 150.843 124.56 151.963C124.16 152.154 124.136 152.384 124.488 152.65L125.592 153.482C125.816 153.658 125.838 153.856 125.656 154.074L125.32 154.49C125.275 154.546 125.242 154.61 125.223 154.679C125.203 154.747 125.198 154.819 125.207 154.888C125.216 154.958 125.239 155.025 125.275 155.085C125.311 155.144 125.359 155.195 125.416 155.234L126.288 155.867C126.342 155.904 126.336 155.928 126.272 155.938L124.544 156.202C118.139 156.266 112.04 155.066 106.248 152.602C105.939 152.469 105.768 152.57 105.736 152.906C105.32 157.722 108.784 163.195 112.16 166.267C119.64 172.483 130.752 172.61 139.752 169.226L139.224 171.226C139.19 171.353 139.189 171.488 139.221 171.616C139.253 171.745 139.317 171.864 139.408 171.963C139.899 172.491 140.064 173.133 139.904 173.89C139.867 174.066 139.939 174.152 140.12 174.146C140.211 174.146 140.302 174.146 140.392 174.146C140.6 174.146 140.624 174.216 140.464 174.354C139.462 175.224 139.27 176.253 139.888 177.442C140.022 177.704 140.027 177.965 139.904 178.226C139.472 179.186 139.736 180.144 140.696 181.098L138.104 181.522C132.536 182.338 126.987 182.41 121.456 181.738C121.216 181.712 120.987 181.749 120.768 181.85C120.496 181.978 120.155 182.008 119.744 181.938L119.576 181.634C119.448 181.405 119.251 181.272 118.984 181.234C99.1363 178.49 80.4003 170.546 74.4323 149.578C74.6136 146.224 74.2936 143.08 73.4722 140.146L72.8402 137.778C73.1602 136.877 73.1629 136.17 72.8482 135.658C72.9709 135.056 72.9309 134.507 72.7282 134.01C72.6322 133.771 72.6322 133.533 72.7282 133.298C73.0482 132.53 73.2349 131.728 73.2882 130.89C73.8482 121.874 81.0482 115.154 86.9282 109.13C91.0722 105.89 97.9283 106.346 102.144 108.89C102.203 109.504 101.904 109.88 101.248 110.018C96.4962 108.098 91.7629 108.354 87.0482 110.786C86.9602 110.834 86.7202 110.994 86.6882 111.09C86.5869 111.362 86.6723 111.445 86.9443 111.338C92.6483 109.098 96.1442 109.378 101.952 111.154C105.654 110.797 107.134 109.304 106.392 106.674C103.192 103.352 99.1282 102.234 94.2002 103.322C92.6642 101.954 95.4722 102.17 96.1042 102.034C106.483 99.7945 116.656 97.0158 126.624 93.6985ZM88.1923 140.154C90.3416 141.802 92.8589 143.123 95.7443 144.115L86.8882 144.178C86.6162 144.178 86.3976 144.288 86.2323 144.506C84.5603 146.746 83.5123 147.938 80.5203 147.963C80.2536 147.963 80.1309 148.096 80.1522 148.362C80.3202 150.443 82.2483 150.85 83.7043 151.546C83.777 151.581 83.8418 151.63 83.8941 151.691C83.9465 151.752 83.9853 151.823 84.008 151.9C84.0306 151.978 84.0367 152.059 84.0257 152.138C84.0147 152.218 83.987 152.294 83.9443 152.362L83.1843 153.602C83.0669 153.789 83.0989 153.949 83.2803 154.082C89.4722 158.498 96.8802 157.755 103.56 154.619C103.811 154.501 103.883 154.314 103.776 154.058C103.616 153.685 103.678 153.365 103.96 153.098C104.126 152.944 104.224 152.757 104.256 152.538C104.47 151.205 104.019 150.189 102.904 149.49C102.648 149.33 102.459 149.112 102.336 148.834C101.936 147.97 101.344 147.221 100.56 146.586C100.352 146.416 100.115 146.314 99.8482 146.282C99.0269 146.197 98.6003 145.717 98.5683 144.842C109.6 145.57 110.864 135.65 107.976 127.922C107.931 127.8 107.845 127.697 107.733 127.632C107.621 127.566 107.489 127.542 107.36 127.562C106.971 127.632 106.67 127.842 106.456 128.194C104.355 124.802 101.651 123.029 98.3443 122.874C90.7709 122.528 86.0163 126.149 84.0803 133.738C83.8643 134.562 84.3602 135.786 85.0482 136.482C86.2696 137.72 87.3176 138.944 88.1923 140.154Z" fill="#FED3B3"/>
<path d="M106.392 106.675C100.861 103.432 95.2239 103.099 89.4799 105.675C89.1812 105.814 88.9385 105.811 88.7519 105.667C88.4479 105.432 88.4772 105.254 88.8399 105.131L94.1999 103.323C99.1279 102.235 103.192 103.352 106.392 106.675Z" fill="#FE6E48"/>
<path d="M163.8 104.147L165.808 106.123C163.904 105.331 162.6 104.587 160.48 104.675C156.784 104.819 154.024 105.384 152.2 106.371C150.606 107.235 150.446 107.822 151.72 108.131C150.632 108.963 150.507 109.31 151.344 109.171C150.992 110.003 151.062 110.459 151.552 110.539L150.512 111.403C148.011 111.083 146.584 109.822 146.232 107.619C146.186 107.35 146.237 107.073 146.376 106.835C149.352 101.707 159.488 102.547 163.8 104.147Z" fill="#F17941"/>
<path d="M165.808 106.123C166.33 106.288 166.288 106.75 165.68 107.507C160.896 105.694 156.242 105.902 151.72 108.131C150.445 107.822 150.605 107.235 152.199 106.371C154.023 105.384 156.784 104.819 160.48 104.675C162.6 104.587 163.904 105.331 165.808 106.123Z" fill="#FCA582"/>
<path d="M102.144 108.891C97.9282 106.347 91.0722 105.891 86.9282 109.131C89.6482 103.811 98.5682 106.091 103.064 107.859C103.326 107.96 103.403 108.144 103.296 108.411C103.147 108.789 102.763 108.949 102.144 108.891Z" fill="#D17857"/>
<path d="M165.68 107.507C166.448 108.029 167.021 108.627 167.4 109.299C167.619 109.693 167.547 109.755 167.184 109.483C162.552 106.027 156.208 106.523 151.344 109.171C150.507 109.309 150.632 108.963 151.72 108.131C156.243 105.901 160.896 105.693 165.68 107.507Z" fill="#9F4633"/>
<path d="M101.248 110.019C102.427 110.291 102.662 110.67 101.952 111.155C96.1442 109.379 92.6482 109.099 86.9442 111.339C86.6722 111.446 86.5869 111.363 86.6882 111.091C86.7202 110.995 86.9602 110.835 87.0482 110.787C91.7629 108.355 96.4962 108.099 101.248 110.019Z" fill="#AD5138"/>
<path d="M154.936 110.403L150.512 111.403L151.552 110.539C156.216 108.539 164.904 108.035 168.52 112.707C168.808 113.08 168.752 113.142 168.352 112.891C164.213 110.304 159.741 109.475 154.936 110.403Z" fill="#9F4633"/>
<path d="M106.456 128.195C109.12 133.067 107.872 139.971 102.56 142.531C93.7519 146.779 88.8319 136.155 93.9439 129.851C94.0417 129.728 94.1648 129.629 94.3045 129.56C94.4442 129.491 94.597 129.453 94.7519 129.451C96.1599 129.43 96.5413 129.803 95.8959 130.571C95.4853 130.368 95.1013 130.312 94.7439 130.403C94.6084 130.435 94.4891 130.515 94.4082 130.629C94.3273 130.742 94.2902 130.881 94.3039 131.02C94.3176 131.159 94.381 131.288 94.4825 131.383C94.584 131.478 94.7167 131.534 94.8559 131.539C94.9626 131.544 95.2559 131.467 95.7359 131.307C96.4079 131.851 96.9946 131.552 97.4959 130.411C97.6079 130.16 97.5866 129.923 97.4319 129.699C95.9999 127.683 93.7119 127.723 91.8079 129.195C87.8933 132.203 86.6879 135.856 88.1919 140.155C87.3173 138.944 86.2693 137.72 85.0479 136.483C84.3599 135.787 83.8639 134.563 84.0799 133.739C86.0159 126.15 90.7706 122.528 98.3439 122.875C101.651 123.03 104.355 124.803 106.456 128.195ZM104.024 135.483C100.413 136.288 96.8266 136.219 93.2639 135.275C93.2103 135.26 93.154 135.258 93.0994 135.269C93.0448 135.279 92.9933 135.302 92.9486 135.335C92.904 135.368 92.8674 135.41 92.8416 135.46C92.8159 135.509 92.8016 135.563 92.7999 135.619C92.6079 146.243 107.64 142.859 106.504 133.939C106.497 133.874 106.471 133.812 106.43 133.76C106.389 133.709 106.334 133.671 106.272 133.649C106.21 133.628 106.143 133.626 106.079 133.642C106.015 133.657 105.957 133.691 105.912 133.739C105.523 134.15 105.096 134.614 104.632 135.131C104.467 135.312 104.264 135.43 104.024 135.483Z" fill="#161321"/>
<path d="M162.08 123.779C166.005 125.112 168.789 127.509 170.432 130.971C172.152 134.611 170.664 137.731 168.264 140.571C169.08 138.491 169.125 136.6 168.4 134.899C167.44 132.627 164.24 127.899 161.28 127.611C160.928 127.573 160.848 127.704 161.04 128.003C162.368 130.115 163.944 132.123 164.152 134.603C164.728 141.323 159.288 145.835 152.624 143.355C141.376 135.811 149.568 120.091 162.08 123.779ZM160.896 130.667L158.12 129.427C158.094 129.414 158.066 129.408 158.038 129.406C158.01 129.405 157.981 129.409 157.954 129.419C157.928 129.428 157.903 129.443 157.882 129.462C157.861 129.482 157.844 129.505 157.832 129.531L157.776 129.659C157.59 130.076 157.576 130.55 157.736 130.976C157.897 131.402 158.219 131.745 158.632 131.931L158.68 131.955C159.094 132.139 159.565 132.149 159.989 131.984C160.414 131.819 160.757 131.492 160.944 131.075L161 130.955C161.012 130.929 161.019 130.901 161.02 130.873C161.022 130.844 161.017 130.816 161.008 130.789C160.998 130.762 160.983 130.738 160.964 130.717C160.945 130.696 160.922 130.679 160.896 130.667ZM149.904 138.979C152.688 145.867 161.632 142.787 163.008 136.315C163.037 136.18 163.038 136.041 163.012 135.906C162.986 135.77 162.933 135.642 162.856 135.527C162.779 135.413 162.68 135.315 162.565 135.24C162.449 135.165 162.32 135.114 162.184 135.091C160.973 134.883 160.248 135.331 160.008 136.435C159.98 136.553 159.916 136.661 159.824 136.741C159.732 136.821 159.617 136.871 159.496 136.883C156.888 137.107 154.307 137.024 151.752 136.635C151.452 136.59 151.146 136.626 150.865 136.737C150.583 136.849 150.336 137.033 150.149 137.271C149.961 137.509 149.84 137.792 149.797 138.092C149.754 138.392 149.791 138.698 149.904 138.979Z" fill="#1E182E"/>
<path d="M69.9359 128.971L71.7119 133.075C71.7599 133.864 72.1386 134.725 72.8479 135.659C73.1626 136.171 73.1599 136.877 72.8399 137.779C69.5999 133.291 66.9039 128.019 60.1439 130.051C60.0266 130.088 59.9332 130.144 59.8639 130.219C59.7892 130.304 59.7306 130.392 59.6879 130.483C59.5546 130.771 59.6452 130.883 59.9599 130.819C64.5306 129.848 67.8159 131.493 69.8159 135.755C69.1492 135.456 68.5519 135.141 68.0239 134.811C62.9599 131.667 54.3359 138.707 61.4639 144.315C67.8266 146.939 71.8292 145.549 73.4719 140.147C74.2932 143.08 74.6132 146.224 74.4319 149.579C73.6479 150.427 72.3226 151.24 70.4559 152.019C66.5519 153.256 62.4692 152.392 58.2079 149.427C51.8159 144.139 49.9999 135.251 55.1199 128.179C56.4159 126.621 58.0106 125.477 59.9039 124.747C63.7119 124.091 68.5599 124.763 69.9359 128.971Z" fill="#FDBF9E"/>
<path d="M54.8156 127.347C54.5916 127.902 54.6929 128.179 55.1196 128.179C49.9996 135.251 51.8156 144.139 58.2076 149.427C57.8396 150.238 58.4636 151.062 60.0796 151.899C60.3196 152.022 60.4609 152.216 60.5036 152.483C61.2796 157.347 66.1836 165.043 68.8476 169.347C68.9969 169.587 69.0209 169.84 68.9196 170.107C68.6262 170.907 68.0822 171.448 67.2876 171.731C67.0262 171.822 66.7916 171.774 66.5836 171.587C62.1089 167.528 58.2369 162.955 54.9676 157.867C54.7542 157.531 54.4689 157.43 54.1116 157.563C54.0676 157.579 54.0278 157.605 53.9953 157.639C53.9628 157.673 53.9383 157.714 53.9237 157.758C53.9091 157.803 53.9047 157.85 53.9109 157.897C53.9171 157.943 53.9338 157.988 53.9596 158.027C57.3569 163.211 61.3462 167.894 65.9276 172.075C66.1196 172.251 66.2156 172.467 66.2156 172.723C66.1836 175.416 65.4476 177.582 64.0076 179.219C57.0529 174.184 51.2129 167.984 46.4876 160.619C43.5382 156.208 41.1249 151.555 39.2476 146.659C40.4582 147.331 41.3222 148.427 41.8396 149.947C41.9302 150.224 42.1169 150.326 42.3996 150.251L46.1996 149.259C46.3507 149.221 46.4858 149.136 46.5852 149.015C46.6845 148.894 46.7428 148.744 46.7516 148.587C46.8209 147.27 47.4876 146.515 48.7516 146.323C48.9276 146.296 48.9996 146.195 48.9676 146.019L47.6956 139.203L50.9116 139.651C50.9717 139.659 51.033 139.654 51.091 139.636C51.1489 139.618 51.2021 139.587 51.2465 139.546C51.291 139.504 51.3257 139.453 51.348 139.397C51.3703 139.34 51.3797 139.28 51.3756 139.219C51.0876 135.211 51.3836 129.811 54.8156 127.347Z" fill="#863934"/>
<path d="M98.5676 144.843C97.0263 144.939 96.0849 144.696 95.7436 144.115C92.8583 143.123 90.3409 141.803 88.1916 140.155C86.6876 135.856 87.8929 132.203 91.8076 129.195C93.7116 127.723 95.9996 127.683 97.4316 129.699C97.5863 129.923 97.6076 130.16 97.4956 130.411C96.9943 131.552 96.4076 131.851 95.7356 131.307C95.6983 131.067 95.7516 130.821 95.8956 130.571C96.5409 129.803 96.1596 129.429 94.7516 129.451C94.5967 129.453 94.4438 129.49 94.3041 129.559C94.1644 129.629 94.0413 129.728 93.9436 129.851C88.8316 136.155 93.7516 146.779 102.56 142.531C107.872 139.971 109.12 133.067 106.456 128.195C106.669 127.843 106.97 127.632 107.36 127.563C107.488 127.542 107.62 127.566 107.732 127.632C107.845 127.698 107.931 127.8 107.976 127.923C110.864 135.651 109.6 145.571 98.5676 144.843Z" fill="#FEFDFE"/>
<path d="M168.264 140.571C167.656 141.531 166.885 142.294 165.952 142.859L160.16 145.123L154.192 146.019L153.328 145.067C153.157 144.88 152.944 144.784 152.688 144.779C152.024 144.763 151.408 143.139 152.624 143.355C159.288 145.835 164.728 141.323 164.152 134.603C163.944 132.123 162.368 130.115 161.04 128.003C160.848 127.704 160.928 127.574 161.28 127.611C164.24 127.899 167.44 132.627 168.4 134.899C169.125 136.6 169.08 138.491 168.264 140.571Z" fill="#F3EEE7"/>
<path d="M69.936 128.971C70.1174 128.955 70.2187 128.923 70.24 128.875C71.584 130.512 72.0747 131.912 71.712 133.075L69.936 128.971Z" fill="#F17941"/>
<path d="M72.8395 137.779L73.4714 140.147C71.8288 145.55 67.8261 146.939 61.4635 144.315C61.1595 141.275 61.9595 139.483 63.8635 138.939C63.9853 138.904 64.1135 138.898 64.2383 138.92C64.3631 138.942 64.4811 138.992 64.5835 139.067C66.1835 140.23 67.9621 140.939 69.9195 141.195C74.3435 141.771 70.1515 136.739 69.8155 135.755C67.8155 131.494 64.5301 129.848 59.9595 130.819C59.6448 130.883 59.5541 130.771 59.6875 130.483C59.7301 130.392 59.7888 130.304 59.8635 130.219C59.9328 130.144 60.0261 130.088 60.1435 130.051C66.9035 128.019 69.5995 133.291 72.8395 137.779Z" fill="#FB9673"/>
<path d="M160.896 130.667C160.922 130.679 160.945 130.696 160.965 130.717C160.984 130.738 160.999 130.763 161.008 130.789C161.018 130.816 161.022 130.844 161.021 130.873C161.02 130.901 161.013 130.929 161 130.955L160.944 131.075C160.758 131.492 160.414 131.82 159.99 131.985C159.566 132.149 159.095 132.139 158.68 131.955L158.632 131.931C158.219 131.745 157.897 131.402 157.737 130.976C157.576 130.55 157.591 130.077 157.776 129.659L157.832 129.531C157.844 129.505 157.861 129.482 157.882 129.463C157.903 129.444 157.928 129.429 157.955 129.419C157.982 129.409 158.01 129.405 158.038 129.406C158.067 129.408 158.095 129.415 158.12 129.427L160.896 130.667Z" fill="#FEFDFE"/>
<path d="M95.8956 130.571C95.7516 130.822 95.6983 131.067 95.7356 131.307C95.2556 131.467 94.9623 131.544 94.8556 131.539C94.7164 131.534 94.5837 131.478 94.4822 131.383C94.3807 131.288 94.3172 131.159 94.3036 131.02C94.2899 130.881 94.3269 130.742 94.4079 130.629C94.4888 130.515 94.608 130.435 94.7436 130.403C95.1009 130.312 95.4849 130.368 95.8956 130.571Z" fill="#31A3A6"/>
<path d="M197.592 135.851C193.968 134.251 192.168 134.371 188.944 134.531C188.842 134.534 188.742 134.504 188.659 134.445C188.576 134.386 188.515 134.301 188.484 134.204C188.454 134.106 188.457 134.002 188.493 133.906C188.528 133.81 188.594 133.729 188.68 133.675C193.043 131.061 196.717 131.773 199.704 135.811C199.783 135.916 199.831 136.042 199.843 136.173C199.855 136.304 199.83 136.436 199.771 136.555C199.713 136.674 199.623 136.775 199.511 136.847C199.399 136.919 199.269 136.959 199.136 136.963C198.651 136.979 198.325 136.797 198.16 136.419C198.047 136.166 197.845 135.964 197.592 135.851Z" fill="#FECEAF"/>
<path d="M104.632 135.131C105.096 134.614 105.523 134.15 105.912 133.739C105.957 133.691 106.015 133.657 106.079 133.641C106.143 133.626 106.21 133.628 106.272 133.649C106.334 133.67 106.389 133.709 106.431 133.76C106.472 133.811 106.497 133.873 106.504 133.939C107.64 142.859 92.6082 146.243 92.8002 135.619C92.8019 135.563 92.8161 135.509 92.8419 135.46C92.8676 135.41 92.9042 135.368 92.9488 135.334C92.9935 135.301 93.045 135.279 93.0997 135.268C93.1543 135.258 93.2105 135.26 93.2642 135.275C96.8268 136.219 100.413 136.288 104.024 135.483C104.264 135.43 104.467 135.312 104.632 135.131Z" fill="#35293C"/>
<path d="M69.8158 135.754C70.1518 136.738 74.3438 141.77 69.9198 141.194C67.9625 140.938 66.1838 140.229 64.5838 139.066C64.4815 138.992 64.3634 138.941 64.2386 138.919C64.1138 138.897 63.9856 138.903 63.8638 138.938C61.9598 139.482 61.1598 141.274 61.4638 144.314C54.3358 138.706 62.9598 131.666 68.0238 134.81C68.5518 135.141 69.1491 135.456 69.8158 135.754Z" fill="#FE6E48"/>
<path d="M163.008 136.315C161.632 142.787 152.688 145.867 149.904 138.979C149.791 138.698 149.754 138.392 149.797 138.092C149.84 137.792 149.962 137.509 150.149 137.271C150.337 137.033 150.584 136.849 150.865 136.738C151.147 136.626 151.453 136.59 151.752 136.635C154.307 137.024 156.888 137.107 159.496 136.883C159.618 136.871 159.732 136.821 159.824 136.741C159.916 136.661 159.981 136.554 160.008 136.435C160.248 135.331 160.974 134.883 162.184 135.091C162.32 135.115 162.45 135.166 162.565 135.241C162.681 135.316 162.78 135.413 162.857 135.528C162.934 135.642 162.987 135.77 163.013 135.906C163.039 136.041 163.037 136.18 163.008 136.315Z" fill="#443040"/>
<path d="M196.592 136.715C196.672 137.568 196.578 138.232 196.312 138.707C196.157 138.984 195.93 139.064 195.632 138.947C192.288 137.635 187.456 136.291 187.016 141.707C186.957 142.459 186.906 143.269 186.864 144.139C185.573 143.232 185.128 142.101 185.528 140.747C187.117 135.355 190.805 134.011 196.592 136.715Z" fill="#E46037"/>
<path d="M196.592 136.715C202.08 137.123 195.92 151.851 186.864 144.139C186.907 143.269 186.958 142.459 187.016 141.707C187.456 136.291 192.288 137.635 195.632 138.947C195.931 139.064 196.158 138.984 196.312 138.707C196.579 138.232 196.672 137.568 196.592 136.715Z" fill="#FB9673"/>
<path d="M127.728 139.051C127.947 139.206 128.003 139.574 127.896 140.155C127.166 141.318 126.84 142.446 126.92 143.539C126.933 143.713 126.912 143.888 126.857 144.054C126.803 144.22 126.716 144.373 126.602 144.504C126.488 144.636 126.35 144.744 126.194 144.821C126.039 144.899 125.869 144.944 125.696 144.955C123.568 145.091 124.264 139.251 124.48 138.099C124.504 137.972 124.566 137.856 124.659 137.766C124.752 137.675 124.871 137.616 125 137.595C125.982 137.446 126.891 137.931 127.728 139.051Z" fill="#F3EEE7"/>
<path d="M209.08 151.531C206.376 156.704 203.243 161.579 199.68 166.155C196.864 169.771 193.072 173.299 189.696 176.811C188.096 178.467 185.872 179.427 184.224 181.291C184.176 181.343 184.116 181.382 184.048 181.404C183.98 181.426 183.908 181.43 183.839 181.415C183.769 181.401 183.705 181.368 183.652 181.321C183.599 181.274 183.559 181.214 183.536 181.147C183.435 180.837 183.539 180.549 183.848 180.283C191.176 174.011 200.992 164.619 205.256 155.915C208.44 150.912 210.541 145.507 211.56 139.699C211.58 139.592 211.624 139.49 211.689 139.401C211.754 139.313 211.839 139.239 211.936 139.187C212.528 138.877 213.123 138.789 213.72 138.923C214.051 138.997 214.152 139.189 214.024 139.499L209.08 151.531Z" fill="#3A1F2C"/>
<path d="M221.168 139.747C219.248 149.352 216.6 158.459 213.224 167.067C205.39 187.056 192.563 203.147 174.744 215.339C174.611 215.627 174.272 215.643 173.728 215.387C169.672 205.707 161.552 194.387 150.832 191.971C150.395 191.875 150.371 191.715 150.76 191.491L151.336 191.163C167.952 190.099 182.672 186.659 196.248 176.739C205.203 169.709 212.12 160.928 217 150.395L221.168 139.747Z" fill="#EBECE6"/>
<path d="M129.4 146.883C127.4 147.496 125.746 147.51 124.44 146.923C124.352 146.884 124.281 146.815 124.239 146.729C124.198 146.642 124.189 146.544 124.214 146.45C124.239 146.357 124.296 146.274 124.375 146.218C124.454 146.161 124.551 146.133 124.648 146.139C125.464 146.203 126.16 146.131 126.736 145.923C126.965 145.88 127.173 145.816 127.36 145.731C127.457 145.686 127.544 145.619 127.613 145.536C127.682 145.453 127.732 145.356 127.76 145.251L128.944 140.419C129.024 140.088 129.216 139.998 129.52 140.147C132.832 141.747 131.912 145.131 129.4 146.883Z" fill="#F17941"/>
<path d="M165.952 142.859C167.856 144.059 176.416 146.755 175.736 149.859C173.664 159.395 160.744 159.851 153.856 155.859C152.184 154.891 151.672 153.267 151.088 151.563C150.472 149.779 151.528 148.979 153.12 148.427C154.208 148.049 155.256 147.561 156.264 146.963C157.512 146.219 158.928 146.083 160.16 145.123L165.952 142.859Z" fill="#FCA582"/>
<path d="M95.7443 144.115C96.0856 144.696 97.0269 144.939 98.5683 144.843C98.6003 145.718 99.0269 146.198 99.8483 146.283C100.115 146.315 100.352 146.416 100.56 146.587C101.344 147.222 101.936 147.971 102.336 148.835C102.459 149.112 102.648 149.331 102.904 149.491C104.019 150.19 104.47 151.206 104.256 152.539C104.224 152.758 104.126 152.944 103.96 153.099C103.678 153.366 103.616 153.686 103.776 154.059C103.883 154.315 103.811 154.502 103.56 154.619C96.8803 157.755 89.4723 158.499 83.2803 154.083C83.0989 153.95 83.0669 153.79 83.1843 153.603L83.9443 152.363C83.987 152.295 84.0148 152.218 84.0257 152.139C84.0367 152.059 84.0307 151.978 84.008 151.901C83.9853 151.824 83.9465 151.752 83.8941 151.691C83.8418 151.63 83.7771 151.581 83.7043 151.547C82.2483 150.851 80.3203 150.443 80.1523 148.363C80.1309 148.096 80.2536 147.963 80.5203 147.963C83.5123 147.939 84.5603 146.747 86.2323 144.507C86.3976 144.288 86.6163 144.179 86.8883 144.179L95.7443 144.115Z" fill="#FDBF9E"/>
<path d="M58.2081 149.427C62.4694 152.392 66.5521 153.256 70.4561 152.019C72.2961 156.749 74.4187 161.379 76.8241 165.907C78.6534 169.352 80.8934 172.637 83.5441 175.763C87.9867 181.011 92.9467 186.248 98.4241 191.475C85.3681 190.856 73.8961 186.771 64.0081 179.219C65.4481 177.581 66.1841 175.416 66.2161 172.723C66.2161 172.467 66.1201 172.251 65.9281 172.075C61.3467 167.893 57.3574 163.211 53.9601 158.027C53.9343 157.987 53.9176 157.943 53.9114 157.896C53.9052 157.85 53.9096 157.802 53.9242 157.758C53.9388 157.713 53.9633 157.673 53.9958 157.639C54.0283 157.605 54.0681 157.579 54.1121 157.563C54.4694 157.429 54.7547 157.531 54.9681 157.867C58.2374 162.955 62.1094 167.528 66.5841 171.587C66.7921 171.773 67.0267 171.821 67.2881 171.731C68.0827 171.448 68.6267 170.907 68.9201 170.107C69.0214 169.84 68.9974 169.587 68.8481 169.347C66.1841 165.043 61.2801 157.347 60.5041 152.483C60.4614 152.216 60.3201 152.021 60.0801 151.899C58.4641 151.061 57.8401 150.237 58.2081 149.427Z" fill="#61272F"/>
<path d="M74.4321 149.579C80.4001 170.547 99.1361 178.491 118.984 181.235C119.251 181.272 119.448 181.406 119.576 181.635L119.744 181.939L119.736 185.875C119.821 186.542 119.76 187.088 119.552 187.515C119.498 187.631 119.416 187.733 119.313 187.811C119.21 187.889 119.089 187.941 118.96 187.963C114.565 188.731 110.296 189.952 106.152 191.627L98.424 191.475C92.9467 186.248 87.9867 181.011 83.5441 175.763C80.8934 172.638 78.6534 169.352 76.824 165.907C74.4187 161.379 72.2961 156.75 70.4561 152.019C72.3227 151.24 73.6481 150.427 74.4321 149.579Z" fill="#341C33"/>
<path d="M194.528 152.314C194.752 152.373 194.896 152.469 194.96 152.602C195.077 152.842 195.024 153.032 194.8 153.17C193.483 154.002 192.323 155.008 191.32 156.186C188.68 159.282 185.936 162.426 182.648 164.93C176.307 169.746 170.699 175.309 165.824 181.618C164.443 183.405 162.048 185.514 158.64 187.946C158.581 187.988 158.532 188.043 158.496 188.106C158.46 188.17 158.438 188.24 158.432 188.313C158.426 188.386 158.436 188.46 158.46 188.529C158.485 188.598 158.525 188.661 158.576 188.714C158.987 189.13 159.685 189.274 160.672 189.146C170.309 187.92 178.888 185.386 186.408 181.546C186.419 181.541 186.427 181.541 186.432 181.546C186.485 181.605 186.539 181.658 186.592 181.706C186.645 181.755 186.714 181.783 186.786 181.788C186.859 181.792 186.931 181.772 186.992 181.73C187.888 181.114 193.376 177.914 193.52 177.434C193.6 177.173 193.755 176.973 193.984 176.834C195.312 176.024 196.067 175.992 196.248 176.738C182.672 186.658 167.952 190.098 151.336 191.162C148.579 191.306 145.915 190.786 143.344 189.602L139.112 188.498C138.808 188.424 138.645 188.232 138.624 187.922L138.104 181.522L140.696 181.098C157.248 179.002 171.592 171.434 180.048 156.57L183.08 150.098C183.213 149.821 183.405 149.773 183.656 149.954C186.867 152.312 190.491 153.098 194.528 152.314Z" fill="#341C33"/>
<path d="M217 150.395C212.12 160.928 205.202 169.71 196.248 176.739C196.066 175.992 195.312 176.024 193.984 176.835C193.754 176.974 193.6 177.174 193.52 177.435C193.376 177.915 187.888 181.115 186.992 181.731C186.931 181.772 186.858 181.792 186.786 181.788C186.713 181.784 186.645 181.755 186.592 181.707C186.538 181.659 186.485 181.606 186.432 181.547C186.426 181.542 186.418 181.542 186.408 181.547C178.888 185.387 170.309 187.92 160.672 189.147C159.685 189.275 158.986 189.131 158.576 188.715C158.524 188.662 158.485 188.599 158.46 188.529C158.435 188.46 158.425 188.386 158.431 188.313C158.438 188.24 158.459 188.17 158.495 188.107C158.531 188.043 158.58 187.989 158.64 187.947C162.048 185.515 164.442 183.406 165.824 181.619C170.698 175.31 176.306 169.747 182.648 164.931C185.936 162.427 188.68 159.283 191.32 156.187C192.322 155.008 193.482 154.003 194.8 153.171C195.024 153.032 195.077 152.843 194.96 152.603C194.896 152.47 194.752 152.374 194.528 152.315C194.778 152.118 195.146 151.99 195.632 151.931C195.877 152.027 195.776 152.451 195.328 153.203C195.261 153.315 195.232 153.446 195.247 153.576C195.261 153.706 195.318 153.828 195.408 153.923C197.624 156.275 202.216 154.355 202.072 159.059C202.071 159.167 202.105 159.272 202.168 159.359C202.232 159.447 202.322 159.511 202.425 159.543C202.528 159.576 202.639 159.574 202.741 159.539C202.843 159.503 202.931 159.436 202.992 159.347L205.256 155.915C200.992 164.619 191.176 174.011 183.848 180.283C183.538 180.55 183.434 180.838 183.536 181.147C183.558 181.214 183.598 181.274 183.651 181.321C183.704 181.368 183.769 181.401 183.838 181.415C183.908 181.43 183.98 181.426 184.048 181.404C184.115 181.382 184.176 181.343 184.224 181.291C185.872 179.427 188.096 178.467 189.696 176.811C193.072 173.299 196.864 169.771 199.68 166.155C203.242 161.579 206.376 156.704 209.08 151.531C209.298 152.928 209.885 153.23 210.84 152.435C210.926 152.365 211.03 152.321 211.14 152.307C211.25 152.292 211.362 152.309 211.464 152.355L211.784 152.507C212.066 152.635 212.104 152.814 211.896 153.043C210.669 154.382 210.44 155.851 211.208 157.451C211.378 157.803 211.549 157.806 211.72 157.459C213.165 154.563 214.304 152.395 215.136 150.955C215.488 150.352 216.109 150.166 217 150.395Z" fill="#471E33"/>
<path d="M124.544 156.203C132.261 156.731 139.89 155.931 147.432 153.803C148.184 153.371 148.802 153.16 149.288 153.171C150.173 153.192 150.525 153.635 150.344 154.499C149.469 158.675 147.68 162.328 144.976 165.459C138.24 160.235 126.656 160.523 118.552 161.747C117.264 161.947 113.08 163.163 112.544 164.435C112.336 164.931 112.208 165.542 112.16 166.267C108.784 163.195 105.32 157.723 105.736 152.907C105.768 152.571 105.938 152.47 106.248 152.603C112.04 155.067 118.138 156.267 124.544 156.203Z" fill="#5C0B16"/>
<path d="M46.4879 160.619C51.2132 167.985 57.0532 174.185 64.0079 179.219C73.8959 186.771 85.3679 190.857 98.4239 191.475L106.152 191.627C106.28 191.91 106.277 192.299 106.144 192.795C102.261 193.041 98.9439 194.713 96.1919 197.811C94.2719 199.971 83.6959 213.635 85.3439 215.531C85.5199 215.825 85.5652 216.046 85.4799 216.195C65.1706 202.915 51.1652 183.966 43.4639 159.347C43.4458 159.262 43.4592 159.173 43.5017 159.097C43.5442 159.021 43.6129 158.963 43.695 158.933C43.7771 158.904 43.867 158.906 43.9481 158.938C44.0292 158.97 44.0959 159.03 44.1359 159.107C44.7172 160.585 45.5012 161.089 46.4879 160.619Z" fill="#EBECE6"/>
<path d="M144.976 165.459C143.557 167.112 141.816 168.368 139.752 169.227C130.752 172.611 119.64 172.483 112.16 166.267C112.208 165.541 112.336 164.931 112.544 164.435C113.08 163.163 117.264 161.947 118.552 161.747C126.656 160.523 138.24 160.235 144.976 165.459Z" fill="#93202B"/>
<path d="M138.104 181.523L138.624 187.923C138.645 188.232 138.808 188.424 139.112 188.499L143.344 189.603C143.12 189.885 143.051 190.187 143.136 190.507C142.837 190.528 142.635 190.741 142.528 191.147C140.571 198.565 135.707 201.629 127.936 200.339C128.808 195.963 128.904 188.427 123.304 186.995C122.115 186.691 120.925 186.317 119.736 185.875L119.744 181.939C120.155 182.008 120.496 181.979 120.768 181.851C120.987 181.749 121.216 181.712 121.456 181.739C126.987 182.411 132.536 182.339 138.104 181.523Z" fill="#FCA582"/>
<path d="M119.736 185.875C120.925 186.318 122.114 186.691 123.304 186.995C128.904 188.427 128.808 195.963 127.936 200.339C121.872 200.083 118.032 195.179 116.224 189.891C116.173 189.747 116.089 189.617 115.979 189.513C115.868 189.408 115.735 189.33 115.588 189.287C115.442 189.244 115.288 189.237 115.138 189.265C114.989 189.294 114.848 189.357 114.728 189.451C114.344 189.75 114.232 189.979 114.392 190.139L106.144 192.795C106.277 192.299 106.28 191.91 106.152 191.627C110.296 189.952 114.565 188.731 118.96 187.963C119.088 187.941 119.209 187.889 119.312 187.811C119.415 187.733 119.497 187.631 119.552 187.515C119.76 187.088 119.821 186.542 119.736 185.875Z" fill="#FDBF9E"/>
<path d="M127.936 200.339C135.707 201.63 140.571 198.566 142.528 191.147C142.635 190.742 142.837 190.528 143.136 190.507C144.288 191.123 138.824 200.627 137.888 202.059C136.008 204.939 132.12 205.891 128.96 206.227C121.093 203.107 116.237 197.744 114.392 190.139C114.232 189.979 114.344 189.75 114.728 189.451C114.848 189.357 114.989 189.294 115.139 189.265C115.288 189.237 115.443 189.244 115.589 189.287C115.735 189.33 115.869 189.408 115.979 189.513C116.09 189.618 116.174 189.747 116.224 189.891C118.032 195.179 121.872 200.083 127.936 200.339Z" fill="#F69F3A"/>
<path d="M143.344 189.603C145.915 190.787 148.579 191.307 151.336 191.163L150.76 191.491C150.371 191.715 150.395 191.875 150.832 191.971C161.552 194.387 169.672 205.707 173.728 215.387C173.739 215.462 173.741 215.539 173.736 215.619C173.72 215.79 173.64 215.92 173.496 216.011C166.467 220.587 158.957 224 150.968 226.251C146.099 220.112 141.736 215.494 137.88 212.395C136.653 211.414 133.68 209.358 128.96 206.227C132.12 205.891 136.008 204.939 137.888 202.059C138.824 200.627 144.288 191.123 143.136 190.507C143.051 190.187 143.12 189.886 143.344 189.603Z" fill="#FDBC4C"/>
<path d="M114.392 190.139C116.237 197.744 121.093 203.107 128.96 206.227C133.68 209.358 136.653 211.414 137.88 212.395C141.736 215.494 146.099 220.112 150.968 226.251C134.685 230.363 118.669 229.739 102.92 224.379C102.163 224.123 101.477 223.75 100.864 223.259C100.771 223.186 100.663 223.135 100.547 223.109C100.431 223.082 100.31 223.082 100.192 223.107C99.4507 223.262 98.8161 223.016 98.2881 222.371C98.8214 222.35 99.2374 222.4 99.5361 222.523C100.395 222.886 100.835 222.6 100.856 221.667C100.912 218.835 101.704 201.707 100.848 200.683C100.814 200.643 100.771 200.613 100.722 200.594C100.673 200.576 100.62 200.57 100.568 200.577C100.517 200.584 100.468 200.604 100.426 200.635C100.384 200.666 100.35 200.708 100.328 200.755L91.8481 219.315L85.3441 215.531C83.6961 213.635 94.2721 199.971 96.1921 197.811C98.9441 194.712 102.261 193.04 106.144 192.795L114.392 190.139Z" fill="#FED44A"/>
<path d="M98.2877 222.37C97.2263 221.656 96.013 221.266 94.6477 221.202C94.3703 221.192 94.1223 221.101 93.9037 220.93L91.8477 219.314L100.328 200.754C100.35 200.707 100.383 200.666 100.425 200.635C100.467 200.604 100.516 200.584 100.568 200.576C100.62 200.569 100.672 200.575 100.721 200.594C100.77 200.612 100.814 200.643 100.848 200.682C101.704 201.706 100.912 218.834 100.856 221.666C100.834 222.6 100.394 222.885 99.5357 222.522C99.237 222.4 98.821 222.349 98.2877 222.37Z" fill="#FDBC4C"/>
</svg>
