<svg width="256" height="256" viewBox="0 0 256 256" fill="none" xmlns="http://www.w3.org/2000/svg">
<path d="M62.4601 59.2289C56.4174 61.5755 54.9908 65.8102 58.1801 71.9329C58.2814 72.1302 58.2254 72.2449 58.0121 72.2769C49.4201 73.5809 44.1081 78.9409 48.3721 87.5969" stroke="#898D99" stroke-width="2"/>
<path d="M48.3718 87.5969L45.8598 88.9489C45.6251 89.0715 45.4251 89.2395 45.2598 89.4529C41.4998 94.2529 41.4678 98.2688 40.2598 103.877C31.1158 146.117 45.6518 188.461 82.2838 212.541C83.2438 213.173 84.4358 213.093 85.0998 213.853" stroke="#F5F5F2" stroke-width="2"/>
<path d="M85.1001 213.853C86.5081 214.701 87.3988 215.448 87.7721 216.093" stroke="#93C0C7" stroke-width="2"/>
<path d="M205.972 75.1008L204.124 77.1968" stroke="#F5F5F2" stroke-width="2"/>
<path d="M204.124 77.197L201.668 76.573C201.401 76.5037 201.316 76.341 201.412 76.085C203.662 69.8237 201.884 65.2557 196.076 62.381C195.841 62.2637 195.782 62.0877 195.9 61.8531C198.34 56.8931 196.588 51.6131 191.012 50.2531C188.804 49.7171 186.292 50.421 184.012 50.965C183.686 51.045 183.59 50.9304 183.724 50.621C184.95 47.7944 184.644 45.3837 182.804 43.389" stroke="#818692" stroke-width="2"/>
<path d="M182.804 43.3887C179.124 40.5487 174.884 42.0047 171.1 43.9327C170.801 44.0874 170.652 43.994 170.652 43.6527C170.644 41.8767 171.252 40.3647 170.756 38.7487C169.228 33.7247 162.396 32.3407 159.388 37.0767C159.185 37.3967 159.004 37.3834 158.844 37.0367C155.916 30.7247 147.452 28.8287 143.268 35.0047C143.087 35.2714 142.879 35.2954 142.644 35.0767C137.332 30.1327 131.628 28.5007 126.292 34.7567C126.121 34.9594 125.959 34.954 125.804 34.7407C122.204 29.8527 115.972 29.9487 112.692 35.4207C112.516 35.7087 112.343 35.7087 112.172 35.4207C110.033 31.8207 106.999 30.1567 103.068 30.4287C100.673 30.594 98.428 31.498 96.332 33.1407" stroke="#898D99" stroke-width="2"/>
<path d="M182.804 43.389L182.324 46.245C182.308 46.3517 182.246 46.4051 182.14 46.4051H181.9C181.782 46.4051 181.713 46.4637 181.692 46.581C181.569 47.285 181.396 47.981 181.172 48.669C181.113 48.8557 181.038 48.861 180.948 48.685C180.921 48.6317 180.897 48.5597 180.876 48.469C180.828 48.2184 180.724 48.1917 180.564 48.389C180.169 48.8957 179.718 49.3437 179.212 49.733C178.796 50.053 178.678 49.9677 178.86 49.477L179.1 48.821C179.141 48.7107 179.144 48.5893 179.106 48.4775C179.069 48.3656 178.994 48.2701 178.894 48.2071C178.795 48.144 178.676 48.1174 178.559 48.1316C178.442 48.1458 178.333 48.2 178.252 48.285L175.948 50.621C175.7 50.8737 175.368 51.0298 175.012 51.0611C173.337 51.2051 171.7 51.5544 170.1 52.1091C169.881 52.1837 169.756 52.3357 169.724 52.565L169.5 54.117C169.486 54.2204 169.441 54.3171 169.371 54.3943C169.301 54.4715 169.209 54.5255 169.108 54.549C166.796 55.125 165.028 57.0131 162.14 58.1571C161.9 58.2531 161.668 58.2344 161.444 58.1011C159.7 57.0531 158.14 57.077 157.364 59.197C157.268 59.4584 157.086 59.549 156.82 59.469C154.089 58.637 151.318 58.3064 148.508 58.477C142.06 58.869 136.98 64.213 131.02 66.029C124.58 67.997 118.252 64.845 110.788 61.925C105.388 59.805 101.508 59.3331 97.0277 62.8051C96.3077 63.3651 94.2517 63.669 93.0597 63.517C84.6597 62.413 78.8757 67.349 75.8837 74.781C75.793 75.0157 75.7744 75.253 75.8277 75.493C76.0677 76.573 75.3957 77.173 74.3477 77.389C69.2543 78.4717 66.8463 81.5837 67.1237 86.725C67.2197 88.413 68.0997 90.069 68.5637 91.789C68.5971 91.9144 68.6009 92.0459 68.575 92.173C68.5491 92.3002 68.494 92.4196 68.4142 92.5219C68.3343 92.6242 68.2319 92.7066 68.1149 92.7627C67.9979 92.8187 67.8694 92.8469 67.7396 92.845C64.6676 92.813 60.2757 92.445 57.6757 93.373C53.1477 94.989 51.7797 102.645 51.1957 107.525C51.0437 108.789 51.5717 110.317 49.8197 110.613C49.7183 110.629 49.665 110.69 49.6597 110.797C49.6597 110.856 49.6623 110.928 49.6677 111.013C49.6708 111.047 49.6632 111.081 49.6459 111.11C49.6286 111.139 49.6025 111.162 49.5714 111.175C49.5403 111.188 49.5057 111.192 49.4727 111.184C49.4397 111.176 49.4099 111.159 49.3876 111.133C49.185 110.914 49.065 110.658 49.0277 110.365C49.0156 110.254 48.9733 110.149 48.9055 110.062C48.8376 109.974 48.747 109.907 48.6437 109.869L46.9077 109.213C46.657 109.122 46.4943 108.949 46.4197 108.693C46.057 107.525 45.3317 106.557 44.2437 105.789" stroke="#0C162D" stroke-width="2"/>
<path d="M44.2439 105.789C44.2119 104.008 44.8652 102.41 46.2039 100.997C46.2471 100.95 46.2802 100.895 46.3009 100.835C46.3217 100.775 46.3296 100.712 46.3243 100.648C46.3191 100.585 46.3007 100.524 46.2703 100.468C46.2399 100.412 46.1982 100.364 46.1479 100.325C45.6732 99.9675 45.1799 99.6342 44.6679 99.3248C44.4599 99.1968 44.3132 99.0182 44.2279 98.7889C42.5159 94.1969 46.8119 93.2609 50.1479 93.0449C54.8679 92.7329 49.7319 88.5969 48.3719 87.5969" stroke="#80858D" stroke-width="2"/>
<path d="M62.4595 59.2286L65.2515 59.0206C65.5075 58.9993 65.6408 58.8606 65.6515 58.6046C65.8808 53.1113 68.7661 50.8526 74.3075 51.8286C74.6328 51.8873 74.8115 51.7539 74.8435 51.4286C75.0835 49.3166 75.2035 47.0526 76.7475 45.5246C78.4755 43.8233 80.6515 43.2739 83.2755 43.8766C83.4217 43.9096 83.5746 43.8888 83.7057 43.8181C83.8368 43.7474 83.9369 43.6317 83.9874 43.4926C85.6408 38.954 88.8595 37.4126 93.6435 38.8686C94.3795 39.0926 94.7341 38.818 94.7075 38.0446C94.6648 37.0366 95.2062 35.402 96.3315 33.1406" stroke="#80858D" stroke-width="2"/>
<path d="M53.06 129.173C51.0546 136.111 52.9666 141.557 58.7959 145.509C61.4946 147.333 64.5 147.903 67.812 147.221" stroke="#CC9F8F" stroke-width="2"/>
<path d="M67.8115 147.221L72.1635 146.445C72.4675 146.392 72.6649 146.512 72.7555 146.805C75.1182 154.533 79.4008 161.053 85.6035 166.365" stroke="#BD998C" stroke-width="2"/>
<path d="M85.604 166.365C95.252 174.237 107.796 177.997 120.084 179.381" stroke="#CC9F8F" stroke-width="2"/>
<path d="M120.084 179.38L119.9 183.189" stroke="#B28E89" stroke-width="2"/>
<path d="M119.9 183.189C119.831 184.853 119.164 185.949 117.9 186.477" stroke="#BD998C" stroke-width="2"/>
<path d="M117.9 186.477L110.004 188.197" stroke="#B28E89" stroke-width="2"/>
<path d="M110.004 188.197C109.711 188.528 109.594 188.557 109.652 188.285" stroke="#8EC8C6" stroke-width="2"/>
<path d="M109.652 188.284L103.892 190.108" stroke="#86A8AF" stroke-width="2"/>
<path d="M103.892 190.109C93.8601 194.261 88.6201 204.453 85.1001 213.853" stroke="#8AB8BB" stroke-width="2"/>
<path d="M204.123 77.1969C210.211 80.5169 210.619 85.8049 207.779 91.8289C207.657 92.0795 207.702 92.2955 207.915 92.4769C211.558 95.6289 211.619 98.8369 208.099 102.101C207.897 102.293 207.881 102.501 208.051 102.725L210.051 105.357C210.235 105.598 210.351 105.885 210.387 106.189C210.787 109.677 209.267 111.741 205.827 112.381C205.497 112.44 205.425 112.61 205.611 112.893C207.585 115.874 207.315 118.621 204.803 121.133C204.526 121.41 204.083 121.506 203.475 121.421C203.171 121.384 202.993 121.514 202.939 121.813C202.545 123.84 201.038 125.288 198.419 126.157" stroke="#787E86" stroke-width="2"/>
<path d="M198.42 126.157L194.556 124.437C194.505 124.413 194.448 124.404 194.392 124.409C194.336 124.415 194.283 124.436 194.238 124.47C194.193 124.503 194.158 124.548 194.136 124.6C194.115 124.652 194.108 124.709 194.116 124.765C195.044 131.349 188.276 128.941 185.46 131.397C184.862 131.914 184.268 132.493 183.676 133.133C183.54 133.281 183.363 133.386 183.167 133.433C182.972 133.48 182.766 133.467 182.578 133.397C182.39 133.326 182.227 133.201 182.11 133.037C181.993 132.873 181.929 132.678 181.924 132.477L181.628 122.261C181.617 121.94 181.689 121.621 181.836 121.333C183.484 118.077 180.676 118.197 179.524 116.317C177.372 112.797 178.972 111.453 180.38 108.285C180.403 108.236 180.414 108.183 180.411 108.129C180.409 108.075 180.393 108.022 180.366 107.975C180.338 107.928 180.3 107.888 180.254 107.858C180.207 107.829 180.155 107.81 180.1 107.805C176.041 107.394 173.774 105.25 173.3 101.373C173.124 99.9087 173.996 98.2767 174.412 96.8207C174.486 96.5594 174.436 96.3221 174.26 96.1087L172.348 93.7967C172.185 93.608 172.072 93.3796 172.02 93.1327L171.364 90.2367C171.294 89.9434 171.137 89.8847 170.892 90.0607C169.233 91.2234 167.23 91.762 164.884 91.6767" stroke="#3F1F29" stroke-width="2"/>
<path d="M164.884 91.6771L162.924 91.2531C162.646 91.1945 162.417 91.0558 162.236 90.8371L160.188 88.4531C159.985 88.2185 159.758 88.1918 159.508 88.3731C158.06 89.4211 156.492 90.8051 154.972 91.4291C151.028 93.0611 145.02 92.8051 142.452 88.8371C141.588 87.5011 140.212 81.0611 138.388 81.7571C138.236 81.8146 138.1 81.9067 137.99 82.0262C137.88 82.1456 137.8 82.2891 137.756 82.4451L136.412 87.1811" stroke="#4A2B2C" stroke-width="2"/>
<path d="M136.412 87.1805C135.345 90.1085 133.444 91.7138 130.708 91.9965C125.804 92.5005 125.06 87.5325 124.292 84.0205C124.251 83.8238 124.147 83.646 123.995 83.514C123.844 83.3821 123.653 83.3033 123.453 83.2897C123.253 83.2761 123.053 83.3285 122.886 83.4387C122.718 83.549 122.591 83.7112 122.524 83.9005C121.196 87.5085 121.556 91.2925 116.5 91.9885C107.116 93.2765 109.676 86.6205 106.684 81.5965C106.648 81.5363 106.598 81.4867 106.537 81.4525C106.477 81.4183 106.408 81.4008 106.337 81.4016C106.267 81.4024 106.198 81.4215 106.136 81.4571C106.075 81.4927 106.024 81.5435 105.988 81.6045C105.209 82.9485 104.708 84.4045 104.484 85.9725C103.396 93.7645 95.1636 94.0365 89.7796 90.8765C89.5653 90.7512 89.3281 90.6698 89.0818 90.637C88.8356 90.6042 88.5851 90.6207 88.3449 90.6854C88.1046 90.7501 87.8794 90.8618 87.6821 91.0141C87.4849 91.1663 87.3195 91.3561 87.1956 91.5725C85.6703 94.2391 83.3636 95.2818 80.2756 94.7005C80.2204 94.6904 80.1634 94.6958 80.111 94.7162C80.0586 94.7365 80.0129 94.7709 79.9789 94.8157C79.9449 94.8604 79.924 94.9138 79.9185 94.9697C79.9129 95.0256 79.923 95.082 79.9476 95.1325C81.3716 97.9698 81.6143 100.647 80.6756 103.164" stroke="#5E3935" stroke-width="2"/>
<path d="M80.6756 103.165C78.7929 105.89 76.2489 107.005 73.0436 106.509C72.7129 106.456 72.6116 106.584 72.7396 106.893C74.1876 110.365 75.5076 114.245 72.1076 117.125C71.9049 117.301 71.8142 117.52 71.8355 117.781C72.1235 121.338 72.1476 124.901 71.9076 128.469C71.9063 128.527 71.8842 128.582 71.8453 128.625C71.8064 128.668 71.7533 128.695 71.6959 128.702C71.6384 128.709 71.5805 128.695 71.5326 128.662C71.4848 128.63 71.4503 128.581 71.4355 128.525C68.8115 120.325 58.4756 119.173 54.5076 126.885C54.0382 127.802 53.5556 128.565 53.0596 129.173" stroke="#59302F" stroke-width="2"/>
<path d="M53.0596 129.173C48.4276 127.037 48.8516 124.061 51.2516 120.669C51.4116 120.45 51.3583 120.325 51.0916 120.293C47.7476 119.856 46.2036 117.997 46.4596 114.717C46.4863 114.354 46.617 114.032 46.8516 113.749L48.3396 111.941C48.521 111.717 48.4756 111.56 48.2036 111.469C45.4783 110.53 44.1583 108.637 44.2436 105.789" stroke="#787E86" stroke-width="2"/>
<path d="M86.772 130.837C85.812 130.197 85.0547 129.821 84.5 129.709C84.4366 129.699 84.3716 129.708 84.3134 129.735C84.2552 129.762 84.2066 129.806 84.1738 129.861C84.141 129.917 84.1255 129.98 84.1295 130.045C84.1335 130.109 84.1567 130.17 84.196 130.221C85.8867 132.285 87.0814 134.959 87.7801 138.245C87.9454 139.039 88.3747 139.349 89.068 139.173" stroke="#62322D" stroke-width="2"/>
<path d="M89.0679 139.173C90.8359 142.357 98.3719 144.269 102.284 143.709" stroke="#D6A79B" stroke-width="2"/>
<path d="M102.284 143.709C102.63 143.714 102.892 143.634 103.068 143.469" stroke="#C29285" stroke-width="2"/>
<path d="M108.172 152.645C108.241 159.29 110.708 164.218 115.572 167.429" stroke="#6E2A23" stroke-width="2"/>
<path d="M115.572 167.429C122.7 171.805 135.284 171.365 141.86 166.109" stroke="#852E27" stroke-width="2"/>
<path d="M132.851 179.509C128.611 180.021 124.355 179.978 120.083 179.38" stroke="#934032" stroke-width="2"/>
<path d="M85.604 166.365C84.8733 164.536 83.5826 162.92 81.732 161.517C81.508 161.346 81.3746 161.12 81.332 160.837C81.1346 159.509 80.6546 158.301 79.8919 157.213C77.7053 154.093 76.1 150.976 75.076 147.861C74.9326 147.431 74.8439 146.982 74.812 146.525C74.412 140.989 72.3319 133.349 67.2999 129.997C65.012 128.469 61.54 130.757 60.308 132.573C57.852 136.197 60.764 139.829 64.732 140.109C65.004 140.125 65.2413 140.04 65.4439 139.853C66.4946 138.866 67.236 137.674 67.668 136.277C67.7096 136.141 67.7001 135.994 67.6412 135.864C67.5822 135.735 67.478 135.631 67.3479 135.573C66.1799 135.056 64.9213 134.768 63.572 134.709C63.3753 134.698 63.189 134.617 63.0462 134.481C62.9035 134.345 62.8136 134.163 62.7924 133.968C62.7713 133.772 62.8204 133.575 62.9309 133.412C63.0414 133.249 63.2062 133.13 63.3959 133.077C71.9319 130.837 71.8839 139.029 72.6999 144.541C72.7479 144.845 72.6306 145.061 72.3479 145.189L67.812 147.221" stroke="#9E4C35" stroke-width="2"/>
<path d="M146.82 223.109C143.721 218.965 140.657 215.674 137.628 213.237C133.948 210.287 129.721 208.018 124.948 206.429C117.404 203.917 112.076 202.141 108.092 195.429C106.865 193.354 105.465 191.581 103.892 190.109" stroke="#257484" stroke-width="2"/>
<path d="M109.652 188.284C109.5 188.772 109.356 189.076 109.548 189.572C113.124 199.028 123.036 202.18 132.308 200.46C139.236 199.164 142.26 195.596 145.324 189.756C145.42 189.559 145.388 189.388 145.228 189.244C144.833 188.892 144.366 188.69 143.828 188.636" stroke="#29848F" stroke-width="2"/>
<path d="M102.54 221.621C102.044 221.013 101.342 220.474 100.436 220.005C100.142 219.855 100.001 219.615 100.012 219.285C100.23 211.786 99.9824 204.309 99.2677 196.853C99.2418 196.595 99.3069 196.337 99.4517 196.125C99.633 195.853 99.6197 195.639 99.4117 195.485C99.0384 195.202 98.7931 195.287 98.6757 195.741C96.7771 202.887 95.3957 210.135 94.5317 217.485C94.4997 217.767 94.3451 217.869 94.0677 217.789C93.2891 217.549 92.5344 217.469 91.8037 217.549" stroke="#257484" stroke-width="2"/>
<path d="M143.972 188.069C144.137 188.138 144.089 188.327 143.828 188.637" stroke="#4D4A52" stroke-width="2"/>
<path d="M143.828 188.637C137.26 201.909 121.26 202.373 112.02 191.653C110.98 190.448 110.308 189.296 110.004 188.197" stroke="#556969" stroke-width="2"/>
<path d="M117.899 186.477C117.403 187.538 116.115 188.013 114.035 187.901C112.553 187.815 111.905 188.511 112.091 189.989C112.563 193.701 120.851 197.293 124.019 197.853C124.355 197.911 124.531 197.77 124.547 197.429L124.571 197.061C124.576 196.957 124.62 196.858 124.696 196.785C124.772 196.712 124.873 196.671 124.979 196.669L129.019 196.581C129.144 196.578 129.266 196.547 129.377 196.492C129.488 196.436 129.585 196.356 129.662 196.258C129.738 196.16 129.792 196.046 129.819 195.925C129.847 195.804 129.847 195.678 129.819 195.557C129.025 192.053 127.577 188.741 125.475 185.621C123.875 183.253 122.017 182.442 119.899 183.189" stroke="#843B2F" stroke-width="2"/>
<path d="M164.884 91.6766C167.716 93.4206 170.086 95.4179 171.996 97.6686C172.177 97.8819 172.228 98.1219 172.148 98.3886C171.204 101.685 174.372 105.125 171.676 107.701C171.484 107.882 171.433 108.095 171.524 108.341C171.95 109.482 172.577 110.522 173.404 111.461C173.596 111.674 173.737 111.917 173.828 112.189C174.116 113.021 174.74 114.087 175.7 115.389C176.628 116.637 177.286 118.685 177.676 121.533C177.713 121.799 177.868 121.951 178.14 121.989L178.98 122.101C179.433 122.165 179.665 122.429 179.676 122.893L179.78 130.957C179.785 131.271 179.676 131.541 179.452 131.765C178.081 133.146 177.068 134.751 176.412 136.581C176.393 136.633 176.39 136.691 176.402 136.746C176.415 136.801 176.443 136.852 176.484 136.893L176.732 137.149C176.838 137.25 176.892 137.375 176.892 137.525C176.996 144.205 175.764 148.685 174.324 154.173C173.404 157.701 170.22 161.021 167.9 163.749C167.818 163.846 167.758 163.96 167.727 164.082C167.695 164.204 167.691 164.33 167.716 164.453L168.068 166.085" stroke="#843B2F" stroke-width="2"/>
<path d="M134.348 179.277L132.852 179.509" stroke="#843B2F" stroke-width="2"/>
<path d="M132.852 179.508C132.937 179.162 133.081 178.887 133.284 178.684C133.47 178.498 133.529 178.276 133.46 178.02C131.892 172.42 138.02 171.964 141.18 169.572C141.289 169.49 141.378 169.384 141.439 169.262C141.5 169.14 141.532 169.005 141.532 168.868C141.532 167.78 141.966 166.951 142.836 166.38C142.948 166.311 142.956 166.231 142.86 166.14C142.796 166.076 142.729 166.007 142.66 165.932C142.601 165.863 142.537 165.86 142.468 165.924L142.068 166.332C142.004 166.396 141.942 166.394 141.884 166.324C141.836 166.271 141.828 166.199 141.86 166.108" stroke="#9E4C35" stroke-width="2"/>
<path d="M141.86 166.109C141.844 166.034 141.828 165.957 141.812 165.877" stroke="#762924" stroke-width="2"/>
<path d="M141.812 165.877C145.497 162.512 147.148 158.384 146.764 153.493C146.737 153.216 146.604 153.005 146.364 152.861C145.569 152.386 144.833 152.338 144.156 152.717" stroke="#5F251F" stroke-width="2"/>
<path d="M144.156 152.716C133.452 155.218 123.084 155.404 113.052 153.276C112.54 153.17 112.126 153.215 111.812 153.412" stroke="#C7A298" stroke-width="2"/>
<path d="M111.812 153.413L111.052 152.701" stroke="#5F251F" stroke-width="2"/>
<path d="M121.012 153.396C127.95 154.127 134.793 153.727 141.54 152.196C141.79 152.138 141.961 151.988 142.052 151.748C142.484 150.634 143.412 149.687 144.836 148.908C147.534 147.431 148.74 145.7 148.452 143.716" stroke="#9E4C35" stroke-width="2"/>
<path d="M148.452 143.716L153.044 144.356" stroke="#B38C82" stroke-width="2"/>
<path d="M153.044 144.357C157.044 143.901 160.34 144.309 162.932 140.141" stroke="#C7A298" stroke-width="2"/>
<path d="M162.932 140.14C164.116 138.85 164.884 137.178 165.236 135.124C165.289 134.826 165.452 134.615 165.724 134.492C166.652 134.066 167.529 133.543 168.356 132.924C168.985 132.45 168.905 132.236 168.116 132.284L165.9 132.428C165.72 132.439 165.541 132.392 165.389 132.294C165.238 132.196 165.121 132.052 165.057 131.884C164.993 131.715 164.984 131.53 165.032 131.356C165.08 131.182 165.182 131.028 165.324 130.916C166.519 129.999 167.841 129.322 169.292 128.884C169.332 128.872 169.368 128.848 169.395 128.815C169.423 128.783 169.44 128.744 169.446 128.702C169.452 128.66 169.446 128.618 169.428 128.579C169.411 128.541 169.383 128.508 169.348 128.484C169.113 128.346 168.833 128.399 168.508 128.644" stroke="#532D29" stroke-width="2"/>
<path d="M168.508 128.645C171.132 123.663 171.22 120.327 168.772 118.637" stroke="#9E4C35" stroke-width="2"/>
<path d="M168.772 118.637C168.604 111.501 160.06 106.565 153.804 105.293" stroke="#532D29" stroke-width="2"/>
<path d="M153.804 105.292C154.007 104.674 153.647 104.244 152.724 104.004C152.367 103.908 152.343 103.756 152.652 103.548C156.172 101.132 154.78 97.8123 152.044 95.0763C151.958 94.9905 151.855 94.9229 151.743 94.8775C151.63 94.8322 151.509 94.81 151.388 94.8123C143.164 95.1163 142.58 94.5563 138.444 87.8203" stroke="#9E4C35" stroke-width="2"/>
<path d="M136.412 87.1805C137.308 86.8338 137.985 87.0471 138.444 87.8205" stroke="#A4543A" stroke-width="2"/>
<path d="M138.444 87.8203C136.116 91.1003 133.204 94.5483 128.796 94.0683C128.79 94.0692 128.784 94.0719 128.779 94.0759C128.775 94.08 128.772 94.0853 128.77 94.0912C128.768 94.0971 128.768 94.1034 128.77 94.1092C128.772 94.1151 128.775 94.1203 128.78 94.1243L129.052 94.2683C129.287 94.391 129.396 94.5857 129.38 94.8523C129.244 96.8123 129.044 98.2363 129.3 100.404C129.564 102.62 128.66 104.636 128.612 106.596C128.537 109.706 128.545 112.815 128.636 115.924C128.732 119.116 128.196 122.58 128.3 125.956C128.412 129.956 127.812 132.812 127.004 136.436C126.951 136.682 126.983 136.916 127.1 137.14C127.476 137.844 125.916 138.588 125.444 138.996" stroke="#B35A3E" stroke-width="2"/>
<path d="M125.444 138.997C122.076 137.157 123.66 144.333 124.34 145.525" stroke="#DB9171" stroke-width="2"/>
<path d="M124.34 145.525C122.686 147.2 122.601 148.205 124.084 148.541" stroke="#A4543A" stroke-width="2"/>
<path d="M124.084 148.541L124.46 151.845C124.497 152.149 124.361 152.29 124.052 152.269C122.601 152.167 121.588 152.543 121.012 153.397" stroke="#B35A3E" stroke-width="2"/>
<path d="M121.012 153.396L112.436 152.34C112.174 152.308 111.921 152.343 111.676 152.444L111.052 152.7" stroke="#A4543A" stroke-width="2"/>
<path d="M111.052 152.701C110.305 152.407 109.345 152.389 108.172 152.645" stroke="#743328" stroke-width="2"/>
<path d="M108.172 152.645C108.311 150.751 107.943 149.178 107.068 147.925C106.18 146.661 104.772 146.405 103.396 145.701C103.167 145.583 103.028 145.399 102.98 145.149C102.884 144.679 102.913 144.119 103.068 143.469" stroke="#B35A3E" stroke-width="2"/>
<path d="M103.068 143.469C105.873 143.101 107.695 141.383 108.532 138.317C109.289 135.533 109.255 133.33 108.428 131.709" stroke="#C89A8B" stroke-width="2"/>
<path d="M108.428 131.708C107.436 126.212 103.564 122.82 97.868 123.348C93.372 123.764 89.6733 126.26 86.772 130.836" stroke="#673B32" stroke-width="2"/>
<path d="M86.7716 130.837C86.4676 130.058 86.4676 128.933 86.7716 127.461C87.0436 126.133 86.6169 125.354 85.4916 125.125C85.2393 125.072 85.0057 124.96 84.8116 124.797C81.0676 121.789 81.0036 119.701 79.7236 115.381C79.4943 114.608 79.8382 113.77 80.7556 112.869C80.9476 112.688 81.0196 112.466 80.9716 112.205L80.5956 109.933C80.5476 109.661 80.6329 109.437 80.8516 109.261C81.5076 108.733 81.6276 108.152 81.2116 107.517C81.1355 107.397 81.0837 107.265 81.059 107.126C81.0343 106.987 81.0372 106.846 81.0676 106.709C81.2009 106.122 81.0782 105.626 80.6996 105.221C80.5396 105.045 80.4996 104.848 80.5796 104.629C80.7129 104.24 80.7449 103.752 80.6756 103.165" stroke="#B35A3E" stroke-width="2"/>
<path d="M168.748 214.093C163.836 201.173 158.092 190.981 143.972 188.069" stroke="#86A8AF" stroke-width="2"/>
<path d="M143.972 188.069L135.852 186.357C135.517 186.285 135.215 186.105 134.992 185.845C134.769 185.585 134.638 185.259 134.62 184.917L134.348 179.277" stroke="#B28E89" stroke-width="2"/>
<path d="M134.348 179.276C146.66 177.628 158.252 174.036 168.068 166.084" stroke="#BD998C" stroke-width="2"/>
<path d="M168.068 166.084C174.233 160.911 178.444 154.404 180.7 146.564C180.78 146.292 180.956 146.199 181.228 146.284C190.087 148.983 196.281 146.346 199.812 138.372C201.625 134.276 201.161 130.204 198.42 126.156" stroke="#B28E89" stroke-width="2"/>
<path d="M111.812 153.412C112.868 160.22 129.876 159.916 134.708 159.1C139.47 158.306 142.62 156.178 144.156 152.716" stroke="#978086" stroke-width="2"/>
<path d="M141.812 165.877C135.108 163.981 127.972 163.437 121.348 165.837C119.572 166.477 117.646 167.007 115.572 167.429" stroke="#460712" stroke-width="2"/>
<path d="M101.548 143.309C101.292 143.522 101.538 143.655 102.284 143.709" stroke="#EBE8E8" stroke-width="2"/>
<path d="M108.428 131.709C108.615 137.629 106.321 141.495 101.548 143.309" stroke="#77737A" stroke-width="2"/>
<path d="M101.548 143.308C93.4836 144.596 88.8596 133.924 94.7556 128.476C94.8803 128.36 95.0301 128.274 95.1936 128.224C95.3571 128.175 95.5301 128.163 95.6991 128.191C95.8681 128.219 96.0288 128.285 96.169 128.384C96.3091 128.484 96.425 128.614 96.5076 128.764L96.9876 129.644C97.217 130.066 97.4036 130.05 97.5476 129.596C98.7796 125.684 93.5237 127.644 92.2197 128.588C88.4063 131.362 87.3557 134.89 89.0677 139.172" stroke="#8A8890" stroke-width="2"/>
<path d="M87.772 216.093C89.1746 216.285 90.5186 216.77 91.804 217.549" stroke="#80ABB1" stroke-width="2"/>
<path d="M91.8037 217.548C95.169 219.234 98.7477 220.591 102.54 221.62" stroke="#7C9BA5" stroke-width="2"/>
<path d="M102.54 221.62C116.828 226.196 131.588 226.692 146.82 223.108" stroke="#80ABB1" stroke-width="2"/>
<path d="M146.819 223.109C154.099 221.104 161.409 218.098 168.747 214.093" stroke="#7C9BA5" stroke-width="2"/>
<path d="M168.748 214.093C194.881 197.17 210.74 173.607 216.324 143.405C219.868 124.245 217.924 106.677 212.068 87.7727C210.06 80.6367 204.66 73.0447 203.66 71.4367" stroke="#E1DFDC" stroke-width="2"/>
<path d="M162.931 140.14C165.331 133.74 163.003 128.564 156.251 126.756" stroke="#8A8890" stroke-width="2"/>
<path d="M156.252 126.757C155.654 126.367 154.996 126.194 154.276 126.237C153.78 126.263 153.769 126.351 154.244 126.501L156.036 127.061" stroke="#245B64" stroke-width="2"/>
<path d="M156.035 127.061C158.307 128.202 159.633 129.877 160.011 132.085C161.046 138.16 158.494 142.138 152.355 144.021" stroke="#8A8890" stroke-width="2"/>
<path d="M152.355 144.021C147.891 143.584 144.947 140.928 143.523 136.053" stroke="#77737A" stroke-width="2"/>
<path d="M153.043 144.356C152.809 144.298 152.579 144.186 152.355 144.02" stroke="#EBE8E8" stroke-width="2"/>
<path d="M153.804 105.292C150.678 104.647 148.036 104.7 145.876 105.452C143.388 106.324 141.756 108.788 143.668 111.1C143.817 111.287 144.014 111.391 144.26 111.412C145.102 111.482 145.689 111.468 146.02 111.372C154.188 109.004 161.708 113.292 168.772 118.636" stroke="#62322D" stroke-width="2"/>
<path d="M168.508 128.645L164.924 129.661C164.646 129.741 164.414 129.669 164.228 129.445C156.524 120.037 143.076 122.541 143.524 136.053" stroke="#62322D" stroke-width="2"/>
<path d="M143.523 136.053C143.038 139.962 144.681 142.517 148.451 143.717" stroke="#C29285" stroke-width="2"/>
<path d="M124.083 148.54C130.675 149.484 131.859 142.068 126.099 139.42" stroke="#9E4C35" stroke-width="2"/>
<path d="M126.1 139.421C126.052 139.528 125.833 139.386 125.444 138.997" stroke="#D5886B" stroke-width="2"/>
<path d="M126.1 139.42C126.793 142.258 126.207 144.292 124.34 145.524" stroke="#C68368" stroke-width="2"/>
<path d="M156.252 126.756C156.108 126.874 156.036 126.975 156.036 127.06" stroke="#98D0D2" stroke-width="2"/>
<path d="M73.0915 55.3003L70.4195 55.7003C70.1639 55.7397 69.9344 55.8789 69.7814 56.0874C69.6284 56.2959 69.5644 56.5566 69.6035 56.8122L69.6115 56.9003C69.6784 57.3423 69.8023 57.7712 69.9761 58.1625C70.1499 58.5538 70.3702 58.8998 70.6243 59.1807C70.8784 59.4616 71.1615 59.6719 71.4571 59.7994C71.7528 59.927 72.0554 59.9694 72.3475 59.9242L72.5075 59.9003C73.0962 59.8102 73.6072 59.3704 73.9281 58.6774C74.2491 57.9844 74.3539 57.095 74.2195 56.2043L74.2035 56.1162C74.1641 55.8606 74.0248 55.6312 73.8163 55.4782C73.6078 55.3252 73.3471 55.2612 73.0915 55.3003Z" stroke="#252338" stroke-width="2"/>
<path d="M64.5081 61.5887C59.2041 61.0207 59.3561 66.3007 63.4681 67.1247C63.7881 67.1887 64.0761 67.1194 64.3321 66.9167L67.0601 64.8207C67.2076 64.7066 67.3186 64.5521 67.3797 64.3759C67.4408 64.1998 67.4493 64.0096 67.4041 63.8287C67.0681 62.506 66.1028 61.7594 64.5081 61.5887Z" stroke="#252338" stroke-width="2"/>
<path d="M52.6115 83.5803C52.6855 83.7183 52.8086 83.8232 52.9557 83.8737C53.1028 83.9242 53.2629 83.9166 53.4034 83.8523C56.4754 82.4523 60.6674 80.0843 61.4034 76.4763C61.4208 76.388 61.4205 76.2971 61.4025 76.209C61.3845 76.1208 61.3492 76.0371 61.2986 75.9627C61.248 75.8883 61.1831 75.8246 61.1077 75.7755C61.0323 75.7263 60.948 75.6926 60.8595 75.6763C58.9075 75.3083 56.7875 74.4043 54.9715 74.7723C50.7155 75.6523 51.0355 80.5963 52.6115 83.5803Z" stroke="#252338" stroke-width="2"/>
<path d="M83.9475 116.989C90.8355 113.037 97.5875 107.597 106.044 111.933C106.486 112.156 106.998 112.198 107.47 112.048C107.941 111.899 108.334 111.57 108.564 111.133C110.732 107.005 105.14 104.373 102.068 104.349C94.5955 104.277 84.7715 108.189 83.2595 116.501C83.243 116.588 83.2519 116.678 83.2852 116.76C83.3184 116.843 83.3746 116.914 83.447 116.965C83.5195 117.017 83.6051 117.046 83.6939 117.05C83.7826 117.054 83.8706 117.033 83.9475 116.989Z" stroke="#673B32" stroke-width="2"/>
<path d="M85.9894 140.678C85.9887 140.57 85.9669 140.464 85.9252 140.366C85.8835 140.267 85.8227 140.177 85.7464 140.102C85.6701 140.027 85.5797 139.967 85.4804 139.927C85.3812 139.887 85.2749 139.866 85.1677 139.867L82.3518 139.887C82.2447 139.888 82.1387 139.909 82.04 139.951C81.9413 139.993 81.8517 140.054 81.7765 140.13C81.7012 140.206 81.6418 140.297 81.6014 140.396C81.5611 140.495 81.5408 140.601 81.5415 140.709L81.5697 144.756C81.5705 144.864 81.5924 144.97 81.6341 145.068C81.6757 145.167 81.7365 145.257 81.8128 145.332C81.8891 145.407 81.9794 145.466 82.0787 145.507C82.178 145.547 82.2843 145.567 82.3914 145.567L85.2073 145.547C85.3145 145.546 85.4205 145.524 85.5192 145.483C85.6179 145.441 85.7074 145.38 85.7827 145.304C85.8579 145.228 85.9174 145.137 85.9577 145.038C85.9981 144.939 86.0184 144.833 86.0176 144.725L85.9894 140.678Z" stroke="#D5886B" stroke-width="2"/>
<path d="M84.0678 151.605C84.239 151.701 84.4331 151.75 84.6296 151.745C84.8261 151.741 85.0179 151.684 85.1847 151.58C85.3516 151.476 85.4874 151.329 85.578 151.155C85.6686 150.981 85.7107 150.785 85.6998 150.589L85.5478 147.933C85.5318 147.597 85.3824 147.343 85.0998 147.173C82.4758 145.613 80.3718 149.509 84.0678 151.605Z" stroke="#BF6548" stroke-width="2"/>
<path d="M104.46 133.357L95.5637 133.532C95.4103 133.536 95.259 133.569 95.1185 133.631C94.9779 133.692 94.851 133.781 94.7447 133.891C94.6385 134.002 94.5551 134.133 94.4993 134.276C94.4436 134.419 94.4165 134.571 94.4197 134.724V134.876C94.4561 136.737 95.0808 138.509 96.1566 139.804C97.2323 141.099 98.6708 141.81 100.156 141.78H100.188C101.672 141.752 103.082 140.986 104.106 139.651C105.131 138.315 105.687 136.52 105.652 134.661V134.509C105.65 134.354 105.617 134.202 105.556 134.061C105.495 133.919 105.406 133.791 105.295 133.684C105.185 133.577 105.054 133.493 104.91 133.437C104.767 133.381 104.614 133.353 104.46 133.357Z" stroke="#261E2F" stroke-width="2"/>
<path d="M151.98 141.421C154.348 140.669 156.556 140.301 156.948 137.605C157.892 131.221 147.468 129.605 146.924 135.493C146.724 137.709 149.004 142.365 151.98 141.421Z" stroke="#261E2F" stroke-width="2"/>
<path d="M182.804 43.3887L182.324 46.2447C182.308 46.3514 182.247 46.4047 182.14 46.4047H181.9C181.783 46.4047 181.713 46.4634 181.692 46.5807C181.569 47.2847 181.396 47.9807 181.172 48.6687C181.113 48.8553 181.039 48.8607 180.948 48.6847C180.921 48.6314 180.897 48.5593 180.876 48.4687C180.828 48.218 180.724 48.1914 180.564 48.3887C180.169 48.8954 179.719 49.3434 179.212 49.7327C178.796 50.0527 178.679 49.9674 178.86 49.4767L179.1 48.8207C179.142 48.7103 179.144 48.589 179.107 48.4771C179.069 48.3652 178.994 48.2697 178.895 48.2067C178.795 48.1437 178.676 48.117 178.559 48.1312C178.442 48.1454 178.334 48.1996 178.252 48.2847L175.948 50.6207C175.7 50.8734 175.368 51.0295 175.012 51.0607C173.337 51.2047 171.7 51.554 170.1 52.1087C169.881 52.1834 169.756 52.3353 169.724 52.5647L169.5 54.1167C169.486 54.22 169.441 54.3168 169.371 54.394C169.301 54.4712 169.209 54.5252 169.108 54.5487C166.796 55.1247 165.028 57.0127 162.14 58.1567C161.9 58.2527 161.668 58.234 161.444 58.1007C159.7 57.0527 158.14 57.0767 157.364 59.1967C157.268 59.458 157.087 59.5487 156.82 59.4687C154.089 58.6367 151.319 58.306 148.508 58.4767C142.06 58.8687 136.98 64.2127 131.02 66.0287C124.58 67.9967 118.252 64.8447 110.788 61.9247C105.388 59.8047 101.508 59.3327 97.0279 62.8047C96.3079 63.3647 94.2519 63.6687 93.0599 63.5167C84.6599 62.4127 78.8759 67.3487 75.8839 74.7807C75.7933 75.0154 75.7746 75.2527 75.8279 75.4927C76.0679 76.5727 75.3959 77.1727 74.3479 77.3887C69.2546 78.4714 66.8466 81.5834 67.1239 86.7247C67.2199 88.4127 68.0999 90.0687 68.5639 91.7887C68.5973 91.9141 68.6012 92.0455 68.5752 92.1727C68.5493 92.2998 68.4942 92.4193 68.4144 92.5216C68.3346 92.6239 68.2322 92.7063 68.1151 92.7623C67.9981 92.8184 67.8696 92.8466 67.7399 92.8447C64.6679 92.8127 60.2759 92.4447 57.6759 93.3727C53.1479 94.9887 51.7799 102.645 51.1959 107.525C51.0439 108.789 51.5719 110.317 49.8199 110.613C49.7186 110.629 49.6652 110.69 49.6599 110.797C49.6599 110.855 49.6626 110.927 49.6679 111.013C49.6711 111.046 49.6635 111.08 49.6462 111.109C49.6289 111.139 49.6027 111.161 49.5716 111.175C49.5405 111.188 49.506 111.191 49.4729 111.184C49.4399 111.176 49.4101 111.158 49.3879 111.133C49.1852 110.914 49.0652 110.658 49.0279 110.365C49.0159 110.254 48.9735 110.149 48.9057 110.061C48.8379 109.974 48.7472 109.907 48.6439 109.869L46.9079 109.213C46.6572 109.122 46.4946 108.949 46.4199 108.693C46.0572 107.525 45.3319 106.557 44.2439 105.789C44.2119 104.007 44.8652 102.41 46.2039 100.997C46.2471 100.95 46.2802 100.895 46.3009 100.835C46.3217 100.775 46.3296 100.712 46.3243 100.648C46.3191 100.585 46.3007 100.524 46.2703 100.468C46.2399 100.412 46.1982 100.363 46.1479 100.325C45.6732 99.9674 45.1799 99.634 44.6679 99.3247C44.4599 99.1967 44.3132 99.018 44.2279 98.7887C42.5159 94.1967 46.8119 93.2607 50.1479 93.0447C54.8679 92.7327 49.7319 88.5967 48.3719 87.5967C44.1079 78.9407 49.4199 73.5807 58.0119 72.2767C58.2252 72.2447 58.2812 72.13 58.1799 71.9327C54.9906 65.81 56.4172 61.5754 62.4599 59.2287L65.2519 59.0207C65.5079 58.9993 65.6412 58.8607 65.6519 58.6047C65.8812 53.1114 68.7666 50.8527 74.3079 51.8287C74.6332 51.8874 74.8119 51.754 74.8439 51.4287C75.0839 49.3167 75.2039 47.0527 76.7479 45.5247C78.4759 43.8233 80.6519 43.274 83.2759 43.8767C83.4221 43.9096 83.5751 43.8888 83.7061 43.8181C83.8372 43.7474 83.9374 43.6318 83.9879 43.4927C85.6412 38.954 88.8599 37.4127 93.6439 38.8687C94.3799 39.0927 94.7346 38.818 94.7079 38.0447C94.6652 37.0367 95.2066 35.402 96.3319 33.1407C98.4279 31.498 100.673 30.594 103.068 30.4287C106.999 30.1567 110.033 31.8207 112.172 35.4207C112.343 35.7087 112.516 35.7087 112.692 35.4207C115.972 29.9487 122.204 29.8527 125.804 34.7407C125.959 34.954 126.121 34.9594 126.292 34.7567C131.628 28.5007 137.332 30.1327 142.644 35.0767C142.879 35.2954 143.087 35.2714 143.268 35.0047C147.452 28.8287 155.916 30.7247 158.844 37.0367C159.004 37.3834 159.185 37.3967 159.388 37.0767C162.396 32.3407 169.228 33.7247 170.756 38.7487C171.252 40.3647 170.644 41.8767 170.652 43.6527C170.652 43.994 170.801 44.0874 171.1 43.9327C174.884 42.0047 179.124 40.5487 182.804 43.3887ZM73.0919 55.3007L70.4199 55.7007C70.1643 55.7401 69.9348 55.8794 69.7818 56.0879C69.6288 56.2964 69.5648 56.557 69.6039 56.8127L69.6119 56.9007C69.6788 57.3427 69.8027 57.7716 69.9765 58.163C70.1503 58.5543 70.3706 58.9003 70.6247 59.1812C70.8788 59.4621 71.1619 59.6723 71.4576 59.7999C71.7532 59.9275 72.0558 59.9699 72.3479 59.9247L72.5079 59.9007C73.0966 59.8106 73.6076 59.3708 73.9285 58.6779C74.2495 57.9849 74.3543 57.0954 74.2199 56.2047L74.2039 56.1167C74.1645 55.8611 74.0252 55.6316 73.8167 55.4786C73.6082 55.3256 73.3475 55.2616 73.0919 55.3007ZM64.5079 61.5887C59.2039 61.0207 59.3559 66.3007 63.4679 67.1247C63.7879 67.1887 64.0759 67.1193 64.3319 66.9167L67.0599 64.8207C67.2074 64.7066 67.3184 64.5521 67.3795 64.3759C67.4406 64.1997 67.4491 64.0096 67.4039 63.8287C67.0679 62.506 66.1026 61.7594 64.5079 61.5887ZM52.6119 83.5807C52.6859 83.7186 52.809 83.8235 52.9561 83.8741C53.1032 83.9246 53.2633 83.917 53.4039 83.8527C56.4759 82.4527 60.6679 80.0847 61.4039 76.4767C61.4213 76.3884 61.4209 76.2975 61.4029 76.2094C61.3849 76.1212 61.3496 76.0375 61.299 75.9631C61.2484 75.8886 61.1835 75.825 61.1081 75.7759C61.0328 75.7267 60.9484 75.693 60.8599 75.6767C58.9079 75.3087 56.7879 74.4047 54.9719 74.7727C50.7159 75.6527 51.0359 80.5967 52.6119 83.5807Z" fill="#141D33"/>
<path d="M182.804 43.389C184.644 45.3837 184.95 47.7944 183.724 50.621C183.59 50.9304 183.686 51.045 184.012 50.965C186.292 50.421 188.804 49.7171 191.012 50.2531C196.588 51.6131 198.34 56.8931 195.9 61.8531C195.782 62.0877 195.841 62.2637 196.076 62.381C201.884 65.2557 203.662 69.8237 201.412 76.085C201.316 76.341 201.401 76.5037 201.668 76.573L204.124 77.197C210.212 80.517 210.62 85.805 207.78 91.829C207.657 92.0797 207.702 92.2957 207.916 92.477C211.558 95.629 211.62 98.8371 208.1 102.101C207.897 102.293 207.881 102.501 208.052 102.725L210.052 105.357C210.235 105.598 210.351 105.885 210.388 106.189C210.788 109.677 209.268 111.741 205.828 112.381C205.497 112.44 205.425 112.61 205.612 112.893C207.585 115.874 207.316 118.621 204.804 121.133C204.526 121.41 204.084 121.506 203.476 121.421C203.172 121.384 202.993 121.514 202.94 121.813C202.545 123.84 201.038 125.288 198.42 126.157L194.556 124.437C194.505 124.413 194.448 124.404 194.392 124.41C194.336 124.416 194.283 124.436 194.238 124.47C194.193 124.504 194.158 124.549 194.136 124.601C194.115 124.653 194.108 124.709 194.116 124.765C195.044 131.349 188.276 128.941 185.46 131.397C184.862 131.914 184.268 132.493 183.676 133.133C183.54 133.282 183.363 133.386 183.167 133.433C182.972 133.48 182.766 133.468 182.578 133.397C182.389 133.327 182.226 133.201 182.11 133.037C181.993 132.873 181.928 132.678 181.924 132.477L181.628 122.261C181.617 121.941 181.689 121.621 181.836 121.333C183.484 118.077 180.676 118.197 179.524 116.317C177.372 112.797 178.972 111.453 180.38 108.285C180.403 108.236 180.414 108.183 180.411 108.129C180.409 108.075 180.393 108.022 180.366 107.975C180.338 107.928 180.3 107.888 180.254 107.859C180.207 107.829 180.154 107.811 180.1 107.805C176.041 107.394 173.774 105.25 173.3 101.373C173.124 99.909 173.996 98.277 174.412 96.821C174.486 96.5597 174.436 96.3224 174.26 96.1091L172.348 93.797C172.185 93.6083 172.072 93.3799 172.02 93.133L171.364 90.237C171.294 89.9437 171.137 89.8851 170.892 90.0611C169.233 91.2237 167.23 91.7624 164.884 91.677L162.924 91.2531C162.646 91.1944 162.417 91.0557 162.236 90.837L160.188 88.4531C159.985 88.2184 159.758 88.1917 159.508 88.373C158.06 89.421 156.492 90.805 154.972 91.429C151.028 93.061 145.02 92.805 142.452 88.837C141.588 87.501 140.212 81.0611 138.388 81.7571C138.236 81.8145 138.1 81.9066 137.99 82.0261C137.88 82.1456 137.8 82.289 137.756 82.445L136.412 87.181C135.345 90.109 133.444 91.7144 130.708 91.997C125.804 92.501 125.06 87.533 124.292 84.021C124.251 83.8244 124.147 83.6465 123.995 83.5146C123.844 83.3826 123.654 83.3039 123.453 83.2903C123.253 83.2767 123.054 83.329 122.886 83.4393C122.718 83.5496 122.591 83.7117 122.524 83.9011C121.196 87.5091 121.556 91.293 116.5 91.989C107.116 93.277 109.676 86.621 106.684 81.597C106.648 81.5369 106.598 81.4872 106.537 81.4531C106.477 81.4189 106.408 81.4013 106.337 81.4021C106.267 81.4029 106.198 81.4221 106.136 81.4576C106.075 81.4932 106.024 81.5441 105.988 81.6051C105.209 82.9491 104.708 84.405 104.484 85.973C103.396 93.765 95.1637 94.037 89.7797 90.877C89.5653 90.7518 89.3281 90.6704 89.0819 90.6376C88.8356 90.6048 88.5851 90.6212 88.3449 90.6859C88.1047 90.7506 87.8794 90.8624 87.6822 91.0146C87.4849 91.1669 87.3195 91.3566 87.1956 91.573C85.6703 94.2397 83.3637 95.2824 80.2757 94.701C80.2204 94.691 80.1634 94.6964 80.111 94.7167C80.0586 94.7371 80.0129 94.7715 79.9789 94.8162C79.945 94.861 79.924 94.9143 79.9185 94.9702C79.913 95.0262 79.9231 95.0825 79.9476 95.133C81.3716 97.9704 81.6143 100.648 80.6757 103.165C78.793 105.89 76.249 107.005 73.0436 106.509C72.713 106.456 72.6116 106.584 72.7396 106.893C74.1876 110.365 75.5076 114.245 72.1076 117.125C71.905 117.301 71.8143 117.52 71.8356 117.781C72.1236 121.338 72.1476 124.901 71.9076 128.469C71.9064 128.527 71.8843 128.582 71.8454 128.625C71.8065 128.668 71.7534 128.695 71.696 128.702C71.6385 128.709 71.5805 128.695 71.5327 128.662C71.4849 128.63 71.4504 128.581 71.4356 128.525C68.8116 120.325 58.4756 119.173 54.5076 126.885C54.0383 127.802 53.5556 128.565 53.0596 129.173C48.4276 127.037 48.8516 124.061 51.2516 120.669C51.4116 120.45 51.3583 120.325 51.0916 120.293C47.7476 119.856 46.2036 117.997 46.4596 114.717C46.4863 114.354 46.617 114.032 46.8516 113.749L48.3396 111.941C48.521 111.717 48.4756 111.56 48.2036 111.469C45.4783 110.53 44.1583 108.637 44.2436 105.789C45.3316 106.557 46.057 107.525 46.4197 108.693C46.4943 108.949 46.657 109.122 46.9076 109.213L48.6436 109.869C48.7469 109.907 48.8376 109.974 48.9054 110.062C48.9733 110.149 49.0156 110.254 49.0277 110.365C49.065 110.658 49.185 110.914 49.3876 111.133C49.4099 111.159 49.4397 111.176 49.4727 111.184C49.5057 111.192 49.5402 111.188 49.5714 111.175C49.6025 111.162 49.6286 111.139 49.6459 111.11C49.6632 111.081 49.6708 111.047 49.6677 111.013C49.6623 110.928 49.6596 110.856 49.6596 110.797C49.665 110.69 49.7183 110.629 49.8197 110.613C51.5717 110.317 51.0436 108.789 51.1956 107.525C51.7796 102.645 53.1477 94.989 57.6757 93.373C60.2757 92.445 64.6676 92.813 67.7396 92.845C67.8694 92.8469 67.9978 92.8187 68.1149 92.7627C68.2319 92.7066 68.3343 92.6242 68.4141 92.5219C68.494 92.4196 68.549 92.3002 68.575 92.173C68.6009 92.0459 68.597 91.9144 68.5637 91.789C68.0997 90.069 67.2197 88.413 67.1237 86.725C66.8463 81.5837 69.2543 78.4717 74.3476 77.389C75.3956 77.173 76.0677 76.573 75.8277 75.493C75.7743 75.253 75.793 75.0157 75.8837 74.781C78.8757 67.349 84.6596 62.413 93.0596 63.517C94.2516 63.669 96.3077 63.3651 97.0277 62.8051C101.508 59.3331 105.388 59.805 110.788 61.925C118.252 64.845 124.58 67.997 131.02 66.029C136.98 64.213 142.06 58.869 148.508 58.477C151.318 58.3064 154.089 58.637 156.82 59.469C157.086 59.549 157.268 59.4584 157.364 59.197C158.14 57.077 159.7 57.0531 161.444 58.1011C161.668 58.2344 161.9 58.2531 162.14 58.1571C165.028 57.0131 166.796 55.125 169.108 54.549C169.209 54.5255 169.301 54.4715 169.371 54.3943C169.441 54.3171 169.486 54.2204 169.5 54.117L169.724 52.565C169.756 52.3357 169.881 52.1837 170.1 52.1091C171.7 51.5544 173.337 51.2051 175.012 51.0611C175.368 51.0298 175.7 50.8737 175.948 50.621L178.252 48.285C178.333 48.2 178.442 48.1458 178.559 48.1316C178.676 48.1174 178.795 48.144 178.894 48.2071C178.994 48.2701 179.069 48.3656 179.106 48.4775C179.144 48.5893 179.141 48.7107 179.1 48.821L178.86 49.477C178.678 49.9677 178.796 50.053 179.212 49.733C179.718 49.3437 180.169 48.8957 180.564 48.389C180.724 48.1917 180.828 48.2184 180.876 48.469C180.897 48.5597 180.921 48.6317 180.948 48.685C181.038 48.861 181.113 48.8557 181.172 48.669C181.396 47.981 181.569 47.285 181.692 46.581C181.713 46.4637 181.782 46.4051 181.9 46.4051H182.14C182.246 46.4051 182.308 46.3517 182.324 46.245L182.804 43.389Z" fill="#040F26"/>
<path d="M73.0915 55.3003C73.3471 55.2612 73.6078 55.3252 73.8163 55.4782C74.0248 55.6312 74.1641 55.8606 74.2035 56.1162L74.2195 56.2043C74.3539 57.095 74.2491 57.9844 73.9281 58.6774C73.6072 59.3704 73.0962 59.8102 72.5075 59.9003L72.3475 59.9242C72.0554 59.9694 71.7528 59.927 71.4571 59.7994C71.1615 59.6719 70.8784 59.4616 70.6243 59.1807C70.3702 58.8998 70.1499 58.5538 69.9761 58.1625C69.8023 57.7712 69.6784 57.3423 69.6115 56.9003L69.6035 56.8122C69.5644 56.5566 69.6284 56.2959 69.7814 56.0874C69.9344 55.8789 70.1639 55.7397 70.4195 55.7003L73.0915 55.3003Z" fill="#35293C"/>
<path d="M64.5071 61.5887C66.1018 61.7594 67.0671 62.506 67.4031 63.8287C67.4483 64.0096 67.4398 64.1998 67.3787 64.3759C67.3176 64.5521 67.2066 64.7066 67.0591 64.8207L64.3311 66.9167C64.0751 67.1194 63.7871 67.1887 63.4671 67.1247C59.3551 66.3007 59.2031 61.0207 64.5071 61.5887Z" fill="#35293C"/>
<path d="M52.6115 83.5803C51.0355 80.5963 50.7155 75.6523 54.9715 74.7723C56.7875 74.4043 58.9075 75.3083 60.8595 75.6763C60.948 75.6926 61.0323 75.7263 61.1077 75.7755C61.1831 75.8246 61.248 75.8883 61.2986 75.9627C61.3492 76.0371 61.3845 76.1208 61.4025 76.209C61.4205 76.2971 61.4208 76.388 61.4034 76.4763C60.6674 80.0843 56.4754 82.4523 53.4034 83.8523C53.2629 83.9166 53.1028 83.9242 52.9557 83.8737C52.8086 83.8232 52.6855 83.7183 52.6115 83.5803Z" fill="#35293C"/>
<path d="M203.26 70.6367C206.06 74.2367 212.068 87.7727 212.068 87.7727C217.924 106.677 219.868 124.245 216.324 143.405C210.74 173.607 194.881 197.17 168.748 214.093C163.836 201.173 158.092 190.981 143.972 188.069L135.852 186.357C135.517 186.285 135.215 186.105 134.992 185.845C134.769 185.585 134.638 185.259 134.62 184.917L134.348 179.277C146.66 177.629 158.252 174.037 168.068 166.085C174.233 160.911 178.444 154.405 180.7 146.565C180.78 146.293 180.956 146.199 181.228 146.285C190.086 148.983 196.281 146.346 199.812 138.373C201.625 134.277 201.161 130.205 198.42 126.157C201.038 125.287 202.545 123.839 202.94 121.813C202.993 121.514 203.172 121.383 203.476 121.421C204.084 121.506 204.526 121.41 204.804 121.133C207.316 118.621 207.585 115.874 205.612 112.893C205.425 112.61 205.497 112.439 205.828 112.381C209.268 111.741 210.788 109.677 210.388 106.189C210.351 105.885 210.235 105.598 210.052 105.357L208.052 102.725C207.881 102.501 207.897 102.293 208.1 102.101C211.62 98.8367 211.558 95.6287 207.916 92.4767C207.702 92.2954 207.657 92.0794 207.78 91.8287C210.62 85.8047 211.26 79.8367 202.06 76.2367L203.26 70.6367Z" fill="#EBECE6"/>
<path d="M136.412 87.1805C137.308 86.8338 137.985 87.0471 138.444 87.8205C136.116 91.1005 133.204 94.5485 128.796 94.0685C128.789 94.0694 128.784 94.072 128.779 94.0761C128.775 94.0801 128.771 94.0854 128.77 94.0913C128.768 94.0972 128.768 94.1035 128.77 94.1094C128.771 94.1153 128.775 94.1205 128.78 94.1245L129.052 94.2685C129.286 94.3911 129.396 94.5858 129.38 94.8525C129.244 96.8125 129.044 98.2365 129.3 100.405C129.564 102.621 128.66 104.636 128.612 106.596C128.537 109.706 128.545 112.815 128.636 115.924C128.732 119.116 128.196 122.581 128.3 125.957C128.412 129.957 127.812 132.812 127.004 136.436C126.95 136.682 126.982 136.916 127.1 137.14C127.476 137.844 125.916 138.588 125.444 138.996C122.076 137.156 123.66 144.332 124.34 145.524C122.686 147.199 122.601 148.204 124.084 148.54L124.46 151.844C124.497 152.148 124.361 152.29 124.052 152.268C122.601 152.167 121.588 152.543 121.012 153.396L112.436 152.34C112.174 152.308 111.921 152.343 111.676 152.444L111.052 152.701C110.305 152.407 109.345 152.388 108.172 152.644C108.31 150.751 107.942 149.178 107.068 147.924C106.18 146.66 104.772 146.405 103.396 145.701C103.166 145.583 103.028 145.399 102.98 145.148C102.884 144.679 102.913 144.119 103.068 143.468C105.873 143.1 107.694 141.383 108.532 138.316C109.289 135.532 109.254 133.33 108.428 131.709C107.436 126.213 103.564 122.821 97.8676 123.349C93.3716 123.765 89.6729 126.26 86.7716 130.836C86.4676 130.058 86.4676 128.933 86.7716 127.461C87.0436 126.133 86.6169 125.354 85.4916 125.124C85.2393 125.072 85.0057 124.959 84.8116 124.797C81.0676 121.789 81.0036 119.7 79.7236 115.38C79.4943 114.607 79.8382 113.77 80.7556 112.868C80.9476 112.687 81.0196 112.466 80.9716 112.205L80.5956 109.932C80.5476 109.66 80.6329 109.437 80.8516 109.261C81.5076 108.733 81.6276 108.151 81.2116 107.516C81.1355 107.397 81.0837 107.264 81.059 107.126C81.0343 106.987 81.0372 106.845 81.0676 106.709C81.2009 106.122 81.0782 105.626 80.6996 105.22C80.5396 105.044 80.4996 104.847 80.5796 104.628C80.7129 104.239 80.7449 103.751 80.6756 103.164C81.6143 100.647 81.3716 97.9698 79.9476 95.1325C79.923 95.082 79.9129 95.0256 79.9184 94.9697C79.9239 94.9138 79.9449 94.8604 79.9789 94.8157C80.0128 94.7709 80.0586 94.7365 80.1109 94.7162C80.1633 94.6958 80.2203 94.6904 80.2756 94.7005C83.3636 95.2818 85.6702 94.2391 87.1956 91.5725C87.3195 91.3561 87.4848 91.1663 87.6821 91.0141C87.8793 90.8618 88.1046 90.7501 88.3448 90.6854C88.5851 90.6207 88.8355 90.6042 89.0818 90.637C89.328 90.6698 89.5652 90.7512 89.7796 90.8765C95.1636 94.0365 103.396 93.7645 104.484 85.9725C104.708 84.4045 105.209 82.9485 105.988 81.6045C106.024 81.5435 106.075 81.4927 106.136 81.4571C106.198 81.4215 106.267 81.4024 106.337 81.4016C106.408 81.4008 106.476 81.4183 106.537 81.4525C106.598 81.4867 106.648 81.5363 106.684 81.5965C109.676 86.6205 107.116 93.2765 116.5 91.9885C121.556 91.2925 121.196 87.5085 122.524 83.9005C122.591 83.7112 122.718 83.549 122.886 83.4387C123.053 83.3285 123.253 83.2761 123.453 83.2897C123.653 83.3033 123.844 83.3821 123.995 83.514C124.147 83.646 124.251 83.8238 124.292 84.0205C125.06 87.5325 125.804 92.5005 130.708 91.9965C133.444 91.7138 135.345 90.1085 136.412 87.1805ZM83.9476 116.988C90.8356 113.036 97.5876 107.596 106.044 111.932C106.486 112.156 106.998 112.198 107.47 112.048C107.941 111.898 108.334 111.57 108.564 111.132C110.732 107.004 105.14 104.372 102.068 104.349C94.5956 104.277 84.7716 108.189 83.2596 116.501C83.2431 116.588 83.252 116.678 83.2852 116.76C83.3184 116.843 83.3746 116.914 83.4471 116.965C83.5195 117.017 83.6052 117.046 83.6939 117.05C83.7826 117.054 83.8707 117.033 83.9476 116.988Z" fill="#B86243"/>
<path d="M164.884 91.6771C167.716 93.4211 170.086 95.4184 171.996 97.6691C172.177 97.8824 172.228 98.1225 172.148 98.3891C171.204 101.685 174.372 105.125 171.676 107.701C171.484 107.882 171.433 108.096 171.524 108.341C171.95 109.482 172.577 110.522 173.404 111.461C173.596 111.674 173.737 111.917 173.828 112.189C174.116 113.021 174.74 114.088 175.7 115.389C176.628 116.637 177.286 118.685 177.676 121.533C177.713 121.8 177.868 121.952 178.14 121.989L178.98 122.101C179.433 122.165 179.665 122.429 179.676 122.893L179.78 130.957C179.785 131.272 179.676 131.541 179.452 131.765C178.081 133.146 177.068 134.752 176.412 136.581C176.393 136.634 176.39 136.691 176.402 136.746C176.415 136.802 176.443 136.852 176.484 136.893L176.732 137.149C176.838 137.25 176.892 137.376 176.892 137.525C176.996 144.205 175.764 148.685 174.324 154.173C173.404 157.701 170.22 161.021 167.9 163.749C167.818 163.847 167.758 163.96 167.727 164.082C167.695 164.204 167.691 164.331 167.716 164.453L168.068 166.085C158.252 174.037 146.66 177.629 134.348 179.277L132.852 179.509C132.937 179.162 133.081 178.888 133.284 178.685C133.47 178.498 133.529 178.277 133.46 178.021C131.892 172.421 138.02 171.965 141.18 169.573C141.289 169.491 141.378 169.385 141.439 169.263C141.5 169.14 141.532 169.006 141.532 168.869C141.532 167.781 141.966 166.952 142.836 166.381C142.948 166.312 142.956 166.232 142.86 166.141C142.796 166.077 142.729 166.008 142.66 165.933C142.601 165.864 142.537 165.861 142.468 165.925L142.068 166.333C142.004 166.397 141.942 166.394 141.884 166.325C141.836 166.272 141.828 166.2 141.86 166.109C141.844 166.034 141.828 165.957 141.812 165.877C145.497 162.512 147.148 158.384 146.764 153.493C146.737 153.216 146.604 153.005 146.364 152.861C145.569 152.386 144.833 152.338 144.156 152.717C133.452 155.218 123.084 155.405 113.052 153.277C112.54 153.17 112.126 153.216 111.812 153.413L111.052 152.701L111.676 152.445C111.921 152.344 112.174 152.309 112.436 152.341L121.012 153.397C127.95 154.128 134.793 153.728 141.54 152.197C141.79 152.138 141.961 151.989 142.052 151.749C142.484 150.634 143.412 149.688 144.836 148.909C147.534 147.432 148.74 145.701 148.452 143.717L153.044 144.357C157.044 143.901 160.34 144.309 162.932 140.141C164.116 138.85 164.884 137.178 165.236 135.125C165.289 134.826 165.452 134.616 165.724 134.493C166.652 134.066 167.529 133.544 168.356 132.925C168.985 132.45 168.905 132.237 168.116 132.285L165.9 132.429C165.72 132.44 165.541 132.393 165.389 132.295C165.238 132.197 165.121 132.053 165.057 131.884C164.993 131.716 164.984 131.531 165.032 131.357C165.08 131.183 165.182 131.029 165.324 130.917C166.518 130 167.841 129.322 169.292 128.885C169.332 128.872 169.368 128.848 169.395 128.816C169.422 128.784 169.44 128.745 169.446 128.703C169.451 128.661 169.445 128.618 169.428 128.58C169.411 128.541 169.383 128.508 169.348 128.485C169.113 128.346 168.833 128.4 168.508 128.645C171.132 123.664 171.22 120.328 168.772 118.637C168.604 111.501 160.06 106.565 153.804 105.293C154.006 104.674 153.646 104.245 152.724 104.005C152.366 103.909 152.342 103.757 152.652 103.549C156.172 101.133 154.78 97.8131 152.044 95.0771C151.958 94.9913 151.855 94.9237 151.743 94.8783C151.63 94.833 151.509 94.8108 151.388 94.8131C143.164 95.1171 142.58 94.5571 138.444 87.8211C137.985 87.0478 137.308 86.8344 136.412 87.1811L137.756 82.4451C137.8 82.2891 137.88 82.1456 137.99 82.0262C138.1 81.9067 138.236 81.8146 138.388 81.7571C140.212 81.0611 141.588 87.5011 142.452 88.8371C145.02 92.8051 151.028 93.0611 154.972 91.4291C156.492 90.8051 158.06 89.4211 159.508 88.3731C159.758 88.1918 159.985 88.2185 160.188 88.4531L162.236 90.8371C162.417 91.0558 162.646 91.1945 162.924 91.2531L164.884 91.6771Z" fill="#8F4631"/>
<path d="M48.3718 87.5969C49.7318 88.5969 54.8678 92.7329 50.1478 93.0449C46.8118 93.2609 42.5158 94.1969 44.2278 98.7889C44.3132 99.0182 44.4598 99.1968 44.6678 99.3248C45.1798 99.6342 45.6731 99.9675 46.1478 100.325C46.1981 100.364 46.2398 100.412 46.2702 100.468C46.3006 100.524 46.319 100.585 46.3243 100.648C46.3295 100.712 46.3216 100.775 46.3008 100.835C46.2801 100.895 46.247 100.95 46.2038 100.997C44.8651 102.41 44.2118 104.008 44.2438 105.789C44.1585 108.637 45.4785 110.53 48.2038 111.469C48.4758 111.56 48.5211 111.717 48.3398 111.941L46.8518 113.749C46.6171 114.032 46.4865 114.354 46.4598 114.717C46.2038 117.997 47.7478 119.856 51.0918 120.293C51.3585 120.325 51.4118 120.45 51.2518 120.669C48.8518 124.061 48.4278 127.037 53.0598 129.173C51.0545 136.112 52.9665 141.557 58.7958 145.509C61.4945 147.333 64.4998 147.904 67.8118 147.221L72.1638 146.445C72.4678 146.392 72.6651 146.512 72.7558 146.805C75.1185 154.533 79.4011 161.053 85.6038 166.365C95.2518 174.237 107.796 177.997 120.084 179.381L119.9 183.189C119.83 184.853 119.164 185.949 117.9 186.477L110.004 188.197C109.71 188.528 109.593 188.557 109.652 188.285L103.892 190.109C93.8598 194.261 88.6198 204.453 85.0998 213.853C84.4358 213.093 83.2438 213.173 82.2838 212.541C45.6518 188.461 31.1158 146.117 40.2598 103.877C41.4678 98.2688 41.4998 94.2529 45.2598 89.4529C45.4251 89.2395 45.6251 89.0715 45.8598 88.9489L48.3718 87.5969Z" fill="#EBECE6"/>
<path d="M138.444 87.8203C142.58 94.5563 143.164 95.1163 151.388 94.8123C151.509 94.81 151.63 94.8322 151.743 94.8775C151.855 94.9229 151.958 94.9905 152.044 95.0763C154.78 97.8123 156.172 101.132 152.652 103.548C152.342 103.756 152.366 103.908 152.724 104.004C153.646 104.244 154.006 104.674 153.804 105.292C150.678 104.647 148.036 104.7 145.876 105.452C143.388 106.324 141.756 108.788 143.668 111.1C143.817 111.287 144.014 111.391 144.26 111.412C145.102 111.482 145.689 111.468 146.02 111.372C154.188 109.004 161.708 113.292 168.772 118.636C171.22 120.327 171.132 123.663 168.508 128.644L164.924 129.66C164.646 129.74 164.414 129.668 164.228 129.444C156.524 120.036 143.076 122.54 143.524 136.052C143.038 139.962 144.681 142.516 148.452 143.716C148.74 145.7 147.534 147.431 144.836 148.908C143.412 149.687 142.484 150.634 142.052 151.748C141.961 151.988 141.79 152.138 141.54 152.196C134.793 153.727 127.95 154.127 121.012 153.396C121.588 152.543 122.601 152.167 124.052 152.268C124.361 152.29 124.497 152.148 124.46 151.844L124.084 148.54C130.676 149.484 131.86 142.068 126.1 139.42C126.052 139.527 125.833 139.386 125.444 138.996C125.916 138.588 127.476 137.844 127.1 137.14C126.982 136.916 126.95 136.682 127.004 136.436C127.812 132.812 128.412 129.956 128.3 125.956C128.196 122.58 128.732 119.116 128.636 115.924C128.545 112.815 128.537 109.706 128.612 106.596C128.66 104.636 129.564 102.62 129.3 100.404C129.044 98.2363 129.244 96.8123 129.38 94.8523C129.396 94.5857 129.286 94.391 129.052 94.2683L128.78 94.1243C128.775 94.1203 128.772 94.1151 128.77 94.1092C128.768 94.1034 128.768 94.0971 128.77 94.0912C128.771 94.0853 128.775 94.08 128.779 94.0759C128.784 94.0719 128.79 94.0692 128.796 94.0683C133.204 94.5483 136.116 91.1003 138.444 87.8203Z" fill="#AD5138"/>
<path d="M198.42 126.157C201.161 130.205 201.625 134.277 199.812 138.373C196.281 146.346 190.086 148.983 181.228 146.285C180.956 146.199 180.78 146.293 180.7 146.565C178.444 154.405 174.233 160.911 168.068 166.085L167.716 164.453C167.691 164.331 167.695 164.204 167.727 164.082C167.758 163.96 167.818 163.846 167.9 163.749C170.22 161.021 173.404 157.701 174.324 154.173C175.764 148.685 176.996 144.205 176.892 137.525C176.892 137.375 176.838 137.25 176.732 137.149L176.484 136.893C176.443 136.852 176.415 136.801 176.402 136.746C176.39 136.691 176.393 136.633 176.412 136.581C177.068 134.751 178.081 133.146 179.452 131.765C179.676 131.541 179.785 131.271 179.78 130.957L179.676 122.893C179.665 122.429 179.433 122.165 178.98 122.101L178.14 121.989C177.868 121.951 177.713 121.799 177.676 121.533C177.286 118.685 176.628 116.637 175.7 115.389C174.74 114.087 174.116 113.021 173.828 112.189C173.737 111.917 173.596 111.674 173.404 111.461C172.577 110.522 171.95 109.482 171.524 108.341C171.433 108.095 171.484 107.882 171.676 107.701C174.372 105.125 171.204 101.685 172.148 98.3887C172.228 98.1221 172.177 97.882 171.996 97.6687C170.086 95.418 167.716 93.4207 164.884 91.6767C167.23 91.762 169.233 91.2234 170.892 90.0607C171.137 89.8847 171.294 89.9434 171.364 90.2367L172.02 93.1327C172.072 93.3796 172.185 93.608 172.348 93.7967L174.26 96.1087C174.436 96.3221 174.486 96.5594 174.412 96.8207C173.996 98.2767 173.124 99.9087 173.3 101.373C173.774 105.25 176.041 107.394 180.1 107.805C180.155 107.81 180.207 107.829 180.254 107.858C180.3 107.888 180.338 107.928 180.366 107.975C180.393 108.022 180.409 108.075 180.411 108.129C180.414 108.183 180.403 108.236 180.38 108.285C178.972 111.453 177.372 112.797 179.524 116.317C180.676 118.197 183.484 118.077 181.836 121.333C181.689 121.621 181.617 121.94 181.628 122.261L181.924 132.477C181.929 132.678 181.993 132.873 182.11 133.037C182.227 133.201 182.39 133.326 182.578 133.397C182.766 133.467 182.972 133.48 183.167 133.433C183.363 133.386 183.54 133.281 183.676 133.133C184.268 132.493 184.862 131.914 185.46 131.397C188.276 128.941 195.044 131.349 194.116 124.765C194.108 124.709 194.115 124.652 194.136 124.6C194.158 124.548 194.193 124.503 194.238 124.47C194.283 124.436 194.336 124.415 194.392 124.409C194.448 124.404 194.505 124.413 194.556 124.437L198.42 126.157Z" fill="#792F2C"/>
<path d="M80.676 103.165C80.7453 103.752 80.7133 104.24 80.58 104.629C80.5 104.848 80.5399 105.045 80.6999 105.221C81.0786 105.626 81.2013 106.122 81.068 106.709C81.0376 106.846 81.0347 106.987 81.0594 107.126C81.0841 107.265 81.1359 107.397 81.212 107.517C81.628 108.152 81.5079 108.733 80.8519 109.261C80.6333 109.437 80.5479 109.661 80.5959 109.933L80.972 112.205C81.02 112.466 80.948 112.688 80.756 112.869C79.8386 113.77 79.4946 114.608 79.724 115.381C81.004 119.701 81.068 121.789 84.812 124.797C85.0061 124.96 85.2397 125.072 85.4919 125.125C86.6173 125.354 87.044 126.133 86.772 127.461C86.468 128.933 86.468 130.058 86.772 130.837C85.812 130.197 85.0546 129.821 84.4999 129.709C84.4365 129.699 84.3715 129.708 84.3133 129.735C84.2551 129.762 84.2065 129.806 84.1737 129.861C84.1409 129.917 84.1255 129.98 84.1294 130.045C84.1334 130.109 84.1566 130.17 84.1959 130.221C85.8866 132.285 87.0813 134.96 87.78 138.245C87.9453 139.04 88.3746 139.349 89.068 139.173C90.836 142.357 98.372 144.269 102.284 143.709C102.631 143.714 102.892 143.634 103.068 143.469C102.913 144.12 102.884 144.68 102.98 145.149C103.028 145.4 103.167 145.584 103.396 145.701C104.772 146.405 106.18 146.661 107.068 147.925C107.943 149.178 108.311 150.752 108.172 152.645C108.241 159.29 110.708 164.218 115.572 167.429C122.7 171.805 135.284 171.365 141.86 166.109C141.828 166.2 141.836 166.272 141.884 166.325C141.943 166.394 142.004 166.397 142.068 166.333L142.468 165.925C142.537 165.861 142.601 165.864 142.66 165.933C142.729 166.008 142.796 166.077 142.86 166.141C142.956 166.232 142.948 166.312 142.836 166.381C141.967 166.952 141.532 167.781 141.532 168.869C141.532 169.005 141.5 169.14 141.439 169.262C141.378 169.385 141.289 169.491 141.18 169.573C138.02 171.965 131.892 172.421 133.46 178.021C133.529 178.277 133.471 178.498 133.284 178.685C133.081 178.888 132.937 179.162 132.852 179.509C128.612 180.021 124.356 179.978 120.084 179.381C107.796 177.997 95.2519 174.237 85.604 166.365C84.8733 164.536 83.5826 162.92 81.732 161.517C81.508 161.346 81.3746 161.12 81.332 160.837C81.1346 159.509 80.6546 158.301 79.8919 157.213C77.7053 154.093 76.1 150.976 75.076 147.861C74.9326 147.431 74.8439 146.982 74.812 146.525C74.412 140.989 72.3319 133.349 67.2999 129.997C65.0119 128.469 61.54 130.757 60.308 132.573C57.852 136.197 60.764 139.829 64.732 140.109C65.004 140.125 65.2413 140.04 65.4439 139.853C66.4946 138.866 67.236 137.674 67.668 136.277C67.7096 136.141 67.7001 135.994 67.6412 135.864C67.5822 135.735 67.478 135.631 67.3479 135.573C66.1799 135.056 64.9213 134.768 63.572 134.709C63.3753 134.698 63.189 134.617 63.0462 134.481C62.9035 134.345 62.8136 134.163 62.7924 133.967C62.7713 133.772 62.8204 133.575 62.9309 133.411C63.0414 133.248 63.2062 133.13 63.3959 133.077C71.9319 130.837 71.8839 139.029 72.6999 144.541C72.7479 144.845 72.6306 145.061 72.3479 145.189L67.812 147.221C64.5 147.904 61.4946 147.333 58.7959 145.509C52.9666 141.557 51.0546 136.112 53.06 129.173C53.556 128.565 54.0386 127.802 54.508 126.885C58.476 119.173 68.8119 120.325 71.4359 128.525C71.4507 128.581 71.4852 128.63 71.533 128.662C71.5808 128.695 71.6388 128.709 71.6963 128.702C71.7537 128.695 71.8068 128.668 71.8457 128.625C71.8846 128.582 71.9067 128.527 71.908 128.469C72.148 124.901 72.1239 121.338 71.8359 117.781C71.8146 117.52 71.9053 117.301 72.108 117.125C75.508 114.245 74.1879 110.365 72.7399 106.893C72.6119 106.584 72.7133 106.456 73.0439 106.509C76.2493 107.005 78.7933 105.89 80.676 103.165ZM85.9898 140.677C85.989 140.57 85.9672 140.464 85.9255 140.366C85.8838 140.267 85.8231 140.177 85.7468 140.102C85.6705 140.027 85.5801 139.967 85.4808 139.927C85.3815 139.887 85.2753 139.866 85.1681 139.867L82.3522 139.887C82.245 139.888 82.1391 139.909 82.0404 139.951C81.9417 139.993 81.8521 140.053 81.7768 140.13C81.7016 140.206 81.6421 140.296 81.6018 140.396C81.5615 140.495 81.5411 140.601 81.5419 140.708L81.5701 144.756C81.5709 144.863 81.5927 144.969 81.6344 145.068C81.6761 145.167 81.7368 145.256 81.8131 145.332C81.8894 145.407 81.9798 145.466 82.0791 145.507C82.1784 145.547 82.2846 145.567 82.3918 145.567L85.2077 145.547C85.3149 145.546 85.4209 145.524 85.5196 145.483C85.6183 145.441 85.7078 145.38 85.7831 145.304C85.8583 145.228 85.9178 145.137 85.9581 145.038C85.9984 144.939 86.0188 144.832 86.018 144.725L85.9898 140.677ZM84.068 151.605C84.2392 151.701 84.4333 151.75 84.6298 151.746C84.8263 151.741 85.018 151.684 85.1849 151.58C85.3518 151.476 85.4876 151.33 85.5782 151.155C85.6688 150.981 85.7109 150.785 85.6999 150.589L85.5479 147.933C85.5319 147.597 85.3826 147.344 85.0999 147.173C82.4759 145.613 80.372 149.509 84.068 151.605Z" fill="#AD5138"/>
<path d="M106.044 111.933C97.5875 107.597 90.8355 113.037 83.9475 116.989C83.8706 117.033 83.7826 117.054 83.6939 117.05C83.6051 117.046 83.5195 117.017 83.447 116.965C83.3746 116.914 83.3184 116.843 83.2852 116.76C83.2519 116.678 83.243 116.588 83.2595 116.501C84.7715 108.189 94.5955 104.277 102.068 104.349C105.14 104.373 110.732 107.005 108.564 111.133C108.334 111.57 107.941 111.899 107.47 112.048C106.998 112.198 106.486 112.156 106.044 111.933Z" fill="#161321"/>
<path d="M153.804 105.292C160.06 106.564 168.604 111.5 168.772 118.636C161.708 113.292 154.188 109.004 146.02 111.372C145.689 111.468 145.102 111.482 144.26 111.412C144.014 111.391 143.817 111.287 143.668 111.1C141.756 108.788 143.388 106.324 145.876 105.452C148.036 104.7 150.678 104.647 153.804 105.292Z" fill="#161321"/>
<path d="M108.428 131.708C108.615 137.628 106.321 141.495 101.548 143.308C93.484 144.596 88.86 133.924 94.756 128.476C94.8807 128.36 95.0305 128.274 95.194 128.224C95.3575 128.175 95.5304 128.163 95.6995 128.191C95.8685 128.219 96.0292 128.285 96.1694 128.384C96.3095 128.484 96.4254 128.614 96.508 128.764L96.988 129.644C97.2173 130.066 97.404 130.05 97.548 129.596C98.78 125.684 93.524 127.644 92.22 128.588C88.4067 131.362 87.356 134.89 89.068 139.172C88.3747 139.348 87.9454 139.039 87.7801 138.244C87.0814 134.959 85.8867 132.284 84.196 130.22C84.1567 130.17 84.1335 130.108 84.1295 130.044C84.1255 129.98 84.141 129.916 84.1738 129.861C84.2066 129.806 84.2552 129.762 84.3134 129.734C84.3716 129.707 84.4366 129.698 84.5 129.708C85.0547 129.82 85.812 130.196 86.772 130.836C89.6734 126.26 93.372 123.764 97.868 123.348C103.564 122.82 107.436 126.212 108.428 131.708ZM104.46 133.356L95.564 133.532C95.4106 133.536 95.2593 133.569 95.1188 133.63C94.9783 133.692 94.8513 133.781 94.7451 133.891C94.6389 134.002 94.5555 134.133 94.4997 134.276C94.4439 134.419 94.4169 134.571 94.42 134.724V134.876C94.4564 136.737 95.0812 138.509 96.1569 139.804C97.2326 141.099 98.6711 141.81 100.156 141.78H100.188C101.673 141.752 103.082 140.986 104.107 139.651C105.131 138.315 105.687 136.52 105.652 134.66V134.508C105.65 134.354 105.617 134.202 105.556 134.061C105.495 133.919 105.407 133.791 105.296 133.684C105.185 133.577 105.054 133.493 104.911 133.437C104.767 133.381 104.614 133.353 104.46 133.356Z" fill="#161321"/>
<path d="M168.508 128.645C168.833 128.399 169.113 128.346 169.348 128.485C169.383 128.508 169.411 128.541 169.428 128.579C169.445 128.618 169.451 128.66 169.445 128.702C169.44 128.744 169.422 128.783 169.395 128.816C169.368 128.848 169.332 128.872 169.292 128.885C167.841 129.322 166.518 129.999 165.324 130.917C165.182 131.028 165.08 131.183 165.032 131.357C164.984 131.53 164.992 131.715 165.057 131.884C165.121 132.053 165.237 132.196 165.389 132.294C165.541 132.392 165.719 132.439 165.9 132.429L168.116 132.285C168.905 132.237 168.985 132.45 168.356 132.925C167.529 133.543 166.652 134.066 165.724 134.493C165.452 134.615 165.289 134.826 165.236 135.125C164.884 137.178 164.116 138.85 162.932 140.141C165.332 133.741 163.004 128.565 156.252 126.757C155.654 126.367 154.996 126.194 154.276 126.237C153.78 126.263 153.769 126.351 154.244 126.501L156.036 127.061C158.308 128.202 159.633 129.877 160.012 132.085C161.046 138.159 158.494 142.138 152.356 144.021C147.892 143.583 144.948 140.927 143.524 136.053C143.076 122.541 156.524 120.037 164.228 129.445C164.414 129.669 164.646 129.741 164.924 129.661L168.508 128.645ZM151.98 141.421C154.348 140.669 156.556 140.301 156.948 137.605C157.892 131.221 147.468 129.605 146.924 135.493C146.724 137.709 149.004 142.365 151.98 141.421Z" fill="#161321"/>
<path d="M156.252 126.757C156.108 126.874 156.036 126.975 156.036 127.061L154.244 126.501C153.769 126.351 153.78 126.263 154.276 126.237C154.996 126.194 155.654 126.367 156.252 126.757Z" fill="#31A3A6"/>
<path d="M156.251 126.756C163.003 128.564 165.331 133.74 162.931 140.14C160.339 144.308 157.043 143.9 153.043 144.356C152.809 144.298 152.579 144.186 152.355 144.02C158.494 142.138 161.046 138.159 160.011 132.084C159.633 129.876 158.307 128.202 156.035 127.06C156.035 126.975 156.107 126.874 156.251 126.756Z" fill="#FEFDFE"/>
<path d="M101.548 143.308C101.292 143.522 101.537 143.655 102.284 143.708C98.3717 144.268 90.8357 142.356 89.0677 139.172C87.3557 134.89 88.4063 131.362 92.2197 128.588C93.5237 127.644 98.7796 125.684 97.5476 129.596C97.4036 130.05 97.217 130.066 96.9876 129.644L96.5076 128.764C96.425 128.614 96.3091 128.484 96.169 128.384C96.0288 128.285 95.8681 128.219 95.6991 128.191C95.5301 128.163 95.3571 128.175 95.1936 128.224C95.0301 128.274 94.8803 128.36 94.7556 128.476C88.8596 133.924 93.4836 144.596 101.548 143.308Z" fill="#FEFDFE"/>
<path d="M85.604 166.364C79.4013 161.052 75.1186 154.532 72.756 146.804C72.6653 146.511 72.468 146.391 72.164 146.444L67.812 147.22L72.3479 145.188C72.6306 145.06 72.7479 144.844 72.6999 144.54C71.8839 139.028 71.9319 130.836 63.3959 133.076C63.2062 133.129 63.0414 133.248 62.9309 133.411C62.8204 133.574 62.7713 133.771 62.7924 133.967C62.8136 134.163 62.9035 134.345 63.0462 134.48C63.189 134.616 63.3753 134.697 63.572 134.708C64.9213 134.767 66.1799 135.055 67.3479 135.572C67.478 135.63 67.5822 135.734 67.6412 135.864C67.7001 135.993 67.7096 136.14 67.668 136.276C67.236 137.674 66.4946 138.866 65.4439 139.852C65.2413 140.039 65.004 140.124 64.732 140.108C60.764 139.828 57.852 136.196 60.308 132.572C61.54 130.756 65.012 128.468 67.3 129.996C72.3319 133.348 74.412 140.988 74.812 146.524C74.8439 146.981 74.9326 147.43 75.076 147.86C76.1 150.975 77.7053 154.092 79.8919 157.212C80.6546 158.3 81.1346 159.508 81.332 160.836C81.3746 161.119 81.508 161.346 81.732 161.516C83.5826 162.919 84.8733 164.535 85.604 166.364Z" fill="#8F4631"/>
<path d="M108.428 131.709C109.255 133.33 109.29 135.533 108.532 138.317C107.695 141.383 105.874 143.101 103.068 143.469C102.892 143.634 102.631 143.714 102.284 143.709C101.538 143.655 101.292 143.522 101.548 143.309C106.322 141.495 108.615 137.629 108.428 131.709Z" fill="#D7D2D2"/>
<path d="M151.98 141.421C149.004 142.365 146.724 137.709 146.924 135.493C147.468 129.605 157.892 131.221 156.948 137.605C156.556 140.301 154.348 140.669 151.98 141.421Z" fill="#35293C"/>
<path d="M104.46 133.357C104.614 133.353 104.767 133.381 104.91 133.437C105.054 133.493 105.185 133.577 105.295 133.684C105.406 133.791 105.495 133.919 105.556 134.061C105.617 134.202 105.65 134.354 105.652 134.509V134.661C105.687 136.52 105.131 138.315 104.106 139.651C103.082 140.986 101.672 141.752 100.188 141.78H100.156C98.6708 141.81 97.2323 141.099 96.1566 139.804C95.0808 138.509 94.4561 136.737 94.4197 134.876V134.724C94.4165 134.571 94.4436 134.419 94.4993 134.276C94.5551 134.133 94.6385 134.002 94.7447 133.891C94.851 133.781 94.9779 133.692 95.1185 133.631C95.259 133.569 95.4103 133.536 95.5637 133.532L104.46 133.357Z" fill="#35293C"/>
<path d="M143.523 136.053C144.947 140.928 147.891 143.584 152.355 144.021C152.579 144.186 152.809 144.298 153.043 144.357L148.451 143.717C144.681 142.517 143.038 139.962 143.523 136.053Z" fill="#D7D2D2"/>
<path d="M125.444 138.997C125.833 139.386 126.052 139.528 126.1 139.421C126.793 142.258 126.207 144.293 124.34 145.525C123.66 144.333 122.076 137.157 125.444 138.997Z" fill="#FDBF9E"/>
<path d="M126.1 139.42C131.86 142.068 130.676 149.484 124.084 148.54C122.601 148.204 122.686 147.199 124.34 145.524C126.206 144.292 126.793 142.258 126.1 139.42Z" fill="#8F4631"/>
<path d="M85.168 139.867L82.3521 139.887C81.9015 139.89 81.5387 140.258 81.5418 140.708L81.5701 144.756C81.5732 145.207 81.9411 145.57 82.3918 145.566L85.2077 145.547C85.6584 145.544 86.0211 145.176 86.018 144.725L85.9897 140.677C85.9866 140.226 85.6187 139.864 85.168 139.867Z" fill="#FDBF9E"/>
<path d="M84.0678 151.605C80.3718 149.509 82.4758 145.613 85.0998 147.173C85.3824 147.343 85.5318 147.597 85.5478 147.933L85.6998 150.589C85.7107 150.785 85.6686 150.981 85.578 151.155C85.4874 151.329 85.3516 151.476 85.1847 151.58C85.0179 151.684 84.8261 151.741 84.6296 151.745C84.4331 151.75 84.239 151.701 84.0678 151.605Z" fill="#D17857"/>
<path d="M111.052 152.701L111.812 153.413C112.868 160.221 129.876 159.917 134.708 159.101C139.471 158.306 142.62 156.178 144.156 152.717C144.833 152.338 145.569 152.386 146.364 152.861C146.604 153.005 146.737 153.216 146.764 153.493C147.148 158.384 145.497 162.512 141.812 165.877C135.108 163.981 127.972 163.437 121.348 165.837C119.572 166.477 117.647 167.008 115.572 167.429C110.708 164.218 108.241 159.29 108.172 152.645C109.345 152.389 110.305 152.408 111.052 152.701Z" fill="#2F030D"/>
<path d="M144.156 152.716C142.62 156.178 139.47 158.306 134.708 159.1C129.876 159.916 112.868 160.22 111.812 153.412C112.126 153.215 112.54 153.17 113.052 153.276C123.084 155.404 133.452 155.218 144.156 152.716Z" fill="#FEFDFE"/>
<path d="M141.812 165.877C141.828 165.957 141.844 166.034 141.86 166.109C135.284 171.365 122.7 171.805 115.572 167.429C117.646 167.007 119.572 166.477 121.348 165.837C127.972 163.437 135.108 163.981 141.812 165.877Z" fill="#5C0B16"/>
<path d="M134.348 179.277L134.62 184.917C134.639 185.259 134.77 185.585 134.992 185.845C135.215 186.105 135.517 186.285 135.852 186.357L143.972 188.069C144.137 188.138 144.089 188.327 143.828 188.637C137.26 201.909 121.26 202.373 112.02 191.653C110.98 190.447 110.308 189.295 110.004 188.197L117.9 186.477C117.404 187.538 116.116 188.013 114.036 187.901C112.553 187.815 111.905 188.511 112.092 189.989C112.564 193.701 120.852 197.293 124.02 197.853C124.356 197.911 124.532 197.77 124.548 197.429L124.572 197.061C124.576 196.956 124.621 196.858 124.696 196.785C124.772 196.712 124.874 196.67 124.98 196.669L129.02 196.581C129.144 196.578 129.266 196.547 129.377 196.491C129.488 196.436 129.586 196.356 129.662 196.258C129.739 196.16 129.793 196.046 129.82 195.925C129.847 195.804 129.847 195.678 129.82 195.557C129.025 192.053 127.577 188.741 125.476 185.621C123.876 183.253 122.017 182.442 119.9 183.189L120.084 179.381C124.356 179.978 128.612 180.021 132.852 179.509L134.348 179.277Z" fill="#792F2C"/>
<path d="M117.899 186.477C119.163 185.949 119.83 184.853 119.899 183.189C122.017 182.442 123.875 183.253 125.475 185.621C127.577 188.741 129.025 192.053 129.819 195.557C129.847 195.678 129.847 195.804 129.819 195.925C129.792 196.046 129.738 196.16 129.662 196.258C129.585 196.356 129.488 196.436 129.377 196.492C129.266 196.547 129.144 196.578 129.019 196.581L124.979 196.669C124.873 196.671 124.772 196.712 124.696 196.785C124.62 196.858 124.576 196.957 124.571 197.061L124.547 197.429C124.531 197.77 124.355 197.911 124.019 197.853C120.851 197.293 112.563 193.701 112.091 189.989C111.905 188.511 112.553 187.815 114.035 187.901C116.115 188.013 117.403 187.538 117.899 186.477Z" fill="#8F4631"/>
<path d="M143.972 188.069C158.092 190.981 163.836 201.173 168.748 214.093C161.409 218.098 154.1 221.103 146.82 223.109C143.721 218.965 140.657 215.674 137.628 213.237C133.948 210.287 129.721 208.018 124.948 206.429C117.404 203.917 112.076 202.141 108.092 195.429C106.865 193.354 105.465 191.581 103.892 190.109L109.652 188.285C109.5 188.773 109.356 189.077 109.548 189.573C113.124 199.029 123.036 202.181 132.308 200.461C139.236 199.165 142.26 195.597 145.324 189.757C145.42 189.559 145.388 189.389 145.228 189.245C144.833 188.893 144.367 188.69 143.828 188.637C144.089 188.327 144.137 188.138 143.972 188.069Z" fill="#216477"/>
<path d="M110.004 188.197C110.308 189.296 110.98 190.448 112.02 191.653C121.26 202.373 137.26 201.909 143.828 188.637C144.366 188.69 144.833 188.893 145.228 189.245C145.388 189.389 145.42 189.56 145.324 189.757C142.26 195.597 139.236 199.165 132.308 200.461C123.036 202.181 113.124 199.029 109.548 189.573C109.356 189.077 109.5 188.773 109.652 188.285C109.593 188.557 109.71 188.528 110.004 188.197Z" fill="#31A3A6"/>
<path d="M103.892 190.109C105.465 191.581 106.865 193.354 108.092 195.429C112.076 202.141 117.404 203.917 124.948 206.429C129.721 208.018 133.948 210.287 137.628 213.237C140.657 215.674 143.721 218.965 146.82 223.109C131.588 226.693 116.828 226.197 102.54 221.621C102.044 221.013 101.343 220.474 100.436 220.005C100.143 219.855 100.001 219.615 100.012 219.285C100.231 211.786 99.9828 204.309 99.2681 196.853C99.2421 196.595 99.3073 196.337 99.4521 196.125C99.6334 195.853 99.6201 195.639 99.4121 195.485C99.0388 195.202 98.7935 195.287 98.6761 195.741C96.7775 202.887 95.3961 210.135 94.5321 217.485C94.5001 217.767 94.3454 217.869 94.0681 217.789C93.2894 217.549 92.5348 217.469 91.8041 217.549C90.5188 216.77 89.1748 216.285 87.7721 216.093C87.3988 215.447 86.5081 214.701 85.1001 213.853C88.6201 204.453 93.8601 194.261 103.892 190.109Z" fill="#288390"/>
<path d="M102.54 221.621C98.7477 220.591 95.169 219.234 91.8037 217.549C92.5344 217.469 93.2891 217.549 94.0677 217.789C94.3451 217.869 94.4997 217.767 94.5317 217.485C95.3957 210.135 96.7771 202.887 98.6757 195.741C98.7931 195.287 99.0384 195.202 99.4117 195.485C99.6197 195.639 99.633 195.853 99.4517 196.125C99.3069 196.337 99.2418 196.595 99.2677 196.853C99.9824 204.309 100.23 211.786 100.012 219.285C100.001 219.615 100.142 219.855 100.436 220.005C101.342 220.474 102.044 221.013 102.54 221.621Z" fill="#216477"/>
</svg>
