<svg width="256" height="256" viewBox="0 0 256 256" fill="none" xmlns="http://www.w3.org/2000/svg">
<path d="M54.6453 72.2222L55.6853 72.6222C55.7466 72.6472 55.7986 72.6917 55.8332 72.7486C55.8677 72.8056 55.883 72.8719 55.8767 72.9374C55.8703 73.0029 55.8426 73.0639 55.7979 73.111C55.7532 73.1581 55.6939 73.1887 55.6293 73.1982C52.7973 73.6382 49.0133 73.9582 46.7413 75.0702C39.2213 78.7262 44.5813 88.3502 49.1333 92.0622C49.1654 92.0894 49.1894 92.1255 49.202 92.1659C49.2147 92.2063 49.2155 92.2492 49.2044 92.2893C49.1933 92.3294 49.1708 92.3649 49.1397 92.3913C49.1085 92.4178 49.0701 92.4341 49.0293 92.4382L38.2612 93.8142C38.1118 93.8323 37.9727 93.8994 37.8656 94.0051C37.7585 94.1108 37.6894 94.249 37.6692 94.3982C37.5519 95.3208 37.5839 96.3555 37.7652 97.5022C39.4826 108.547 42.6799 118.884 47.3572 128.51C47.7359 129.3 48.3653 130.209 49.2453 131.238" stroke="#C19FA0" stroke-width="2"/>
<path d="M49.2449 131.238C46.3062 131.654 44.2235 132.934 42.9969 135.078C34.4049 150.054 46.3729 168.718 64.1409 164.206C64.4075 164.137 64.6049 164.222 64.7329 164.462C75.8929 184.942 93.2128 194.166 115.661 198.966C115.981 199.038 116.053 199.206 116.093 199.51" stroke="#FFE3D3" stroke-width="2"/>
<path d="M116.093 199.51L111.645 200.03" stroke="#FDD4C5" stroke-width="2"/>
<path d="M111.645 200.03C96.5013 201.446 80.9092 208.622 76.6292 224.262C76.5635 224.502 76.5924 224.757 76.71 224.976C76.8277 225.195 77.025 225.361 77.2612 225.438L82.5413 227.174" stroke="#B4E1C6" stroke-width="2"/>
<path d="M161.893 202.79L151.637 200.398" stroke="#ACD4B8" stroke-width="2"/>
<path d="M151.637 200.398L143.525 199.286" stroke="#FDD4C5" stroke-width="2"/>
<path d="M143.525 199.286L149.045 197.622" stroke="#FFE3D3" stroke-width="2"/>
<path d="M149.045 197.622C167.709 192.982 184.469 182.366 193.357 164.966C193.47 164.742 193.656 164.565 193.885 164.463C194.114 164.361 194.371 164.341 194.613 164.406C213.349 169.446 227.037 142.958 211.085 131.39" stroke="#FDD4C5" stroke-width="2"/>
<path d="M211.085 131.39C211.96 129.027 212.659 125.851 213.181 121.862C215.181 106.55 213.661 92.0274 208.621 78.2941C208.253 77.2807 207.501 76.0727 206.365 74.6701C206.136 74.3874 205.882 74.3607 205.605 74.5901L201.173 78.238C201.114 78.2887 201.039 78.3186 200.961 78.3231C200.883 78.3277 200.805 78.3066 200.74 78.2633C200.675 78.2199 200.626 78.1565 200.6 78.0826C200.574 78.0088 200.573 77.9286 200.597 77.8541C202.693 71.1394 202.827 64.2567 200.997 57.2061" stroke="#B29095" stroke-width="2"/>
<path d="M200.997 57.2061C199.909 52.4701 190.109 34.0221 187.477 50.6221C187.467 50.6803 187.438 50.7341 187.396 50.7757C187.353 50.8173 187.299 50.8445 187.241 50.8535C187.183 50.8624 187.124 50.8525 187.073 50.8253C187.022 50.7981 186.982 50.7549 186.957 50.7021C180.093 36.6861 168.621 25.5341 153.093 21.7661" stroke="#BB999C" stroke-width="2"/>
<path d="M153.093 21.7661C145.792 19.7394 138.357 19.5314 130.789 21.1421" stroke="#C19FA0" stroke-width="2"/>
<path d="M130.789 21.142C123.664 22.8753 117.501 26.23 112.301 31.206C112.249 31.2552 112.182 31.2853 112.111 31.2911C112.04 31.2969 111.969 31.2781 111.91 31.2378C111.851 31.1975 111.807 31.1383 111.787 31.0699C111.766 31.0015 111.77 30.9281 111.797 30.862C113.76 25.7153 114.783 20.3793 114.869 14.854C114.87 14.7708 114.848 14.6889 114.805 14.6175C114.762 14.5462 114.701 14.4881 114.627 14.4499C114.553 14.4117 114.47 14.3948 114.387 14.4012C114.304 14.4076 114.224 14.4369 114.157 14.486C109.65 17.814 104.837 20.6727 99.7168 23.062C89.3328 27.91 79.7888 31.462 75.0048 42.886C74.9769 42.9507 74.9289 43.0047 74.8678 43.04C74.8068 43.0753 74.7361 43.0899 74.6661 43.0819C74.5961 43.0738 74.5305 43.0434 74.4791 42.9951C74.4277 42.9469 74.3933 42.8834 74.3808 42.814C73.8635 39.5073 73.3462 36.1793 72.8288 32.83C72.5648 31.118 71.6528 29.742 69.7808 30.998C61.3088 36.702 57.3248 47.006 61.5728 56.83C61.7435 57.23 61.6262 57.35 61.2208 57.19C56.2288 55.198 43.9968 50.19 39.8848 56.158C34.0848 64.582 49.6128 70.486 54.6448 72.222" stroke="#CBA7A5" stroke-width="2"/>
<path d="M130.789 21.1421C132.261 21.6381 132.946 22.4248 132.845 23.5021C132.818 23.7901 132.896 24.0488 133.077 24.2781L134.549 26.1741C134.688 26.3608 134.712 26.5608 134.621 26.7741C134.005 28.1821 134.397 29.4461 133.885 30.7901C133.48 31.8514 133.05 32.9101 132.597 33.9661C132.508 34.1852 132.489 34.4279 132.541 34.6621C132.834 35.9528 132.552 37.1714 131.693 38.3181C131.538 38.5208 131.522 38.7314 131.645 38.9501C131.826 39.2861 131.847 39.6061 131.709 39.9101C131.506 40.3474 131.413 40.3288 131.429 39.8541C131.429 39.7528 131.437 39.6221 131.453 39.4621C131.464 39.3833 131.447 39.3031 131.405 39.2358C131.362 39.1685 131.297 39.1183 131.222 39.0943C131.146 39.0703 131.064 39.074 130.99 39.1047C130.917 39.1354 130.857 39.1912 130.821 39.2621L126.717 46.6461C126.568 46.9181 126.36 47.1341 126.093 47.2941C125.453 47.6781 125.285 48.2008 125.589 48.8621C125.674 49.0328 125.64 49.1741 125.485 49.2861C117.293 55.4354 108.592 60.7074 99.3808 65.1021C89.4448 69.8461 78.3008 72.7821 69.3648 64.8301C69.2386 64.7191 69.0779 64.6552 68.9099 64.6492C68.742 64.6432 68.5771 64.6955 68.4433 64.7973C68.3095 64.899 68.2151 65.0439 68.176 65.2074C68.1369 65.3709 68.1556 65.5428 68.2288 65.6941C68.5568 66.3661 64.8209 68.1661 64.1969 68.6381C64.0889 68.7217 63.9593 68.7729 63.8233 68.7856C63.6873 68.7984 63.5505 68.7722 63.4288 68.7101C58.9968 66.4381 58.6769 73.5021 55.0369 71.5501C54.7222 71.3794 54.5808 71.4728 54.6128 71.8301L54.6449 72.2221" stroke="#8E4847" stroke-width="2"/>
<path d="M153.093 21.7661C153.664 23.1314 154.946 23.8168 156.941 23.8221C157.229 23.8221 157.466 23.9314 157.653 24.1501C158.549 25.1901 159.421 25.8541 159.765 27.2781C162.069 36.7981 163.669 43.4941 160.773 53.0461C156.597 66.8541 145.261 70.0781 132.549 72.3821C130.661 72.7261 129.141 73.6621 127.973 74.9981C122.557 81.1901 115.573 87.7981 106.549 85.5021C104.333 84.9421 102.917 84.4221 100.605 85.2141C98.0503 86.0888 95.4743 86.8808 92.877 87.5901C92.621 87.6594 92.4104 87.7981 92.245 88.0061C91.397 89.0728 90.309 89.7714 88.981 90.1021C88.6823 90.1768 88.453 90.3421 88.293 90.5981L86.117 94.0461C86.021 94.2008 86.013 94.3608 86.093 94.5261C86.205 94.7501 86.613 95.9581 85.917 95.8781" stroke="#7E3A3E" stroke-width="2"/>
<path d="M85.9169 95.8782L84.0049 96.1822" stroke="#C1887A" stroke-width="2"/>
<path d="M84.0053 96.1821C77.184 97.6648 70.2667 98.2861 63.2534 98.0461C62.9654 98.0355 62.7413 98.1528 62.5813 98.3981C62.2347 98.9261 62.0293 99.6461 61.9653 100.558" stroke="#C07567" stroke-width="2"/>
<path d="M61.965 100.558L58.125 105.798C58.0818 105.857 58.0553 105.927 58.0483 106C58.0412 106.073 58.054 106.146 58.085 106.212C58.1161 106.278 58.1645 106.335 58.225 106.376C58.2855 106.417 58.356 106.442 58.429 106.446L64.413 106.798C64.4762 106.801 64.5378 106.819 64.5925 106.851C64.6472 106.882 64.6934 106.927 64.7272 106.98C64.761 107.034 64.7814 107.094 64.7866 107.157C64.7918 107.221 64.7816 107.284 64.757 107.342C63.733 109.763 62.2744 111.87 60.381 113.662C60.3423 113.698 60.3134 113.744 60.2972 113.795C60.281 113.845 60.2779 113.899 60.2884 113.951C60.2988 114.003 60.3223 114.052 60.3567 114.092C60.3911 114.133 60.4353 114.164 60.485 114.182L63.941 115.494C64.2557 115.611 64.2744 115.766 63.9971 115.958C59.4851 119.118 59.3891 140.07 58.4451 140.07" stroke="#C1887A" stroke-width="2"/>
<path d="M58.4451 140.07C56.1331 137.23 55.8371 134.174 53.4531 131.798C53.2672 131.612 53.0195 131.501 52.7571 131.486L49.2451 131.238" stroke="#C28475" stroke-width="2"/>
<path d="M180.669 125.246C178.917 116.462 167.261 110.278 159.229 109.246C148.053 107.798 147.821 119.63 156.045 119.286" stroke="#E6A17B" stroke-width="2"/>
<path d="M173.773 133.862C170.291 131.569 167.224 130.646 164.573 131.094" stroke="#FFE3D3" stroke-width="2"/>
<path d="M164.573 131.094C154.029 131.022 151.701 143.774 154.869 151.47C159.485 162.662 172.341 158.59 173.493 147.926" stroke="#8A6D60" stroke-width="2"/>
<path d="M173.493 147.926C174.544 147.67 175.379 147.238 175.997 146.63" stroke="#FFE3D3" stroke-width="2"/>
<path d="M176.453 158.63C170.501 157.846 165.418 159.302 161.205 162.998C158.701 165.19 157.749 168.07 159.853 170.846C163.909 176.19 170.173 175.03 176.077 174.334" stroke="#FEAB90" stroke-width="2"/>
<path d="M143.525 199.286C134.205 199.734 127.957 200.334 116.093 199.51" stroke="#FDB899" stroke-width="2"/>
<path d="M58.4453 140.07C58.6213 140.342 58.7067 140.627 58.7013 140.926C58.7013 141.198 58.8187 141.409 59.0533 141.558C59.3307 141.734 59.4133 141.939 59.3013 142.174C59.1787 142.425 59.2213 142.646 59.4293 142.838C62.1653 145.406 63.4453 148.918 65.1253 151.662C65.9573 153.027 66.6933 154.449 67.3333 155.926C67.9653 157.39 69.2293 158.614 70.0613 160.062C70.1257 160.173 70.2162 160.267 70.325 160.335C70.4337 160.403 70.5573 160.444 70.6853 160.454L74.7733 160.758" stroke="#FFCCAD" stroke-width="2"/>
<path d="M74.7733 160.758C70.0293 163.646 72.2773 171.326 75.8693 173.83C79.1759 176.14 83.2239 177.116 88.0133 176.758" stroke="#FDB899" stroke-width="2"/>
<path d="M88.0132 176.758C88.7385 178.657 90.1092 180.094 92.1252 181.07C92.3545 181.188 92.3892 181.345 92.2292 181.542C90.1812 184.078 95.0612 186.102 96.5252 187.782C96.6585 187.937 96.7225 188.116 96.7172 188.318L96.6932 189.182C96.6879 189.604 96.8906 189.78 97.3012 189.71L100.477 189.174C100.749 189.132 100.995 189.19 101.213 189.35C103.187 190.806 105.171 190.902 107.165 189.638C107.373 189.505 107.461 189.316 107.429 189.07C106.939 185.454 108.493 182.036 112.093 178.814" stroke="#FFCCAD" stroke-width="2"/>
<path d="M112.093 178.814C112.659 181.47 114.552 183.95 117.773 186.254" stroke="#96766B" stroke-width="2"/>
<path d="M117.773 186.254C122.872 189.166 128.96 189.964 136.037 188.646C138.65 188.161 140.624 187.198 141.957 185.758" stroke="#FEAB90" stroke-width="2"/>
<path d="M141.957 185.758C145.189 184.086 150.149 179.39 149.397 175.278C149.291 174.707 148.96 174.494 148.405 174.638C140.075 176.771 132.013 177.499 124.221 176.822" stroke="#96766B" stroke-width="2"/>
<path d="M124.221 176.822L124.517 176.462C124.55 176.42 124.569 176.37 124.573 176.317C124.576 176.264 124.564 176.211 124.537 176.166C124.511 176.12 124.471 176.083 124.423 176.06C124.375 176.038 124.321 176.03 124.269 176.038C123.224 176.225 122.493 175.878 122.077 174.998C121.897 174.62 121.825 174.2 121.868 173.783C121.912 173.367 122.07 172.97 122.325 172.638L124.557 169.75C124.76 169.489 125.026 169.337 125.357 169.294C125.629 169.251 125.872 169.134 126.085 168.942C126.256 168.787 126.336 168.593 126.325 168.358C126.293 167.297 126.45 166.462 126.797 165.854" stroke="#FFCCAD" stroke-width="2"/>
<path d="M126.797 165.854C129.013 172.054 141.189 163.326 134.221 154.934C133.533 154.102 131.773 152.67 131.005 153.982" stroke="#FDB899" stroke-width="2"/>
<path d="M131.005 153.982L125.669 152.11C125.603 152.086 125.544 152.048 125.494 151.999C125.445 151.951 125.407 151.892 125.382 151.827C125.358 151.762 125.348 151.693 125.353 151.625C125.359 151.556 125.379 151.49 125.413 151.43C126.037 150.332 126.186 149.177 125.861 147.966C125.792 147.7 125.805 147.438 125.901 147.182C126.365 145.897 126.477 144.596 126.237 143.278C125.933 141.63 126.549 140.11 126.485 138.47C126.301 133.118 126.669 127.134 125.485 121.926C124.757 118.702 124.709 114.75 124.669 111.51C124.669 111.381 124.694 111.253 124.744 111.134C124.793 111.014 124.866 110.906 124.957 110.814L125.277 110.51" stroke="#FFCCAD" stroke-width="2"/>
<path d="M131.005 153.982C134.389 158.694 131.293 163.398 126.797 165.854" stroke="#FDBD9F" stroke-width="2"/>
<path d="M124.221 176.822L112.509 174.686C112.378 174.663 112.243 174.669 112.114 174.703C111.984 174.737 111.864 174.799 111.762 174.884C111.659 174.969 111.576 175.076 111.518 175.196C111.461 175.317 111.431 175.449 111.429 175.582C111.418 176.643 111.64 177.721 112.093 178.814" stroke="#967A71" stroke-width="2"/>
<path d="M88.0129 176.758C95.1169 175.99 101.741 170.302 94.0049 163.838C88.5863 159.315 82.1756 158.289 74.7729 160.758" stroke="#FDBD9F" stroke-width="2"/>
<path d="M61.9653 100.558C68.3493 100.819 74.6853 100.518 80.9733 99.6541C81.24 99.6221 81.5013 99.6435 81.7573 99.7181C83.3973 100.198 83.7253 97.2621 84.0053 96.1821" stroke="#FDBD9F" stroke-width="2"/>
<path d="M200.997 57.2061C199.792 59.4567 199.717 62.2407 200.773 65.5581C200.818 65.6959 200.833 65.8417 200.817 65.9854C200.8 66.129 200.752 66.2671 200.677 66.3901C200.186 67.2114 199.973 68.0994 200.037 69.0541C200.049 69.2074 200.021 69.3612 199.955 69.5002C199.889 69.6392 199.788 69.7584 199.661 69.8461C197.997 70.9821 196.557 71.4381 194.373 71.2061C187.133 70.4141 185.637 74.9821 180.461 78.5581C180.242 78.7127 180.101 78.9207 180.037 79.1821C179.552 81.1394 179.602 82.2381 180.189 82.4781" stroke="#6F2B33" stroke-width="2"/>
<path d="M180.189 82.4782L172.013 96.1502C171.848 96.4328 171.661 96.4488 171.453 96.1982C168.309 92.4142 167.069 87.1262 166.333 82.3982C166.325 82.3493 166.301 82.3041 166.265 82.2696C166.229 82.2352 166.183 82.2134 166.134 82.2079C166.085 82.2024 166.036 82.2134 165.996 82.2392C165.955 82.265 165.924 82.304 165.909 82.3502C162.73 90.7768 158.093 98.2995 151.997 104.918" stroke="#B96E63" stroke-width="2"/>
<path d="M151.997 104.918C151.56 105.649 150.984 106.03 150.269 106.062C150.13 106.069 149.991 106.037 149.87 105.971C149.748 105.905 149.648 105.806 149.581 105.686C147.549 102.028 146.579 98.0889 146.669 93.8702C146.673 93.7738 146.646 93.6787 146.592 93.5987C146.538 93.5188 146.46 93.4579 146.369 93.425C146.278 93.3921 146.18 93.3888 146.087 93.4157C145.994 93.4425 145.913 93.498 145.853 93.5742C142.117 98.2702 131.397 109.862 125.277 110.51" stroke="#BB7D71" stroke-width="2"/>
<path d="M125.277 110.51L127.901 98.3101" stroke="#BB8276" stroke-width="2"/>
<path d="M127.901 98.31L129.269 89.286C129.284 89.1774 129.262 89.0663 129.205 88.9716C129.149 88.8768 129.063 88.8041 128.96 88.7656C128.858 88.7272 128.746 88.7253 128.644 88.7603C128.541 88.7953 128.454 88.8651 128.397 88.958C123.496 96.6433 116.931 102.401 108.701 106.23" stroke="#B96E63" stroke-width="2"/>
<path d="M108.701 106.23L105.509 107.214C105.389 107.252 105.262 107.256 105.141 107.226C105.019 107.197 104.908 107.134 104.819 107.046C104.73 106.958 104.667 106.848 104.636 106.726C104.606 106.605 104.609 106.478 104.645 106.358L107.549 96.5822C107.569 96.5203 107.569 96.4541 107.549 96.3923C107.53 96.3306 107.491 96.2762 107.439 96.2363C107.387 96.1964 107.324 96.173 107.258 96.169C107.192 96.1651 107.126 96.1808 107.069 96.2142C100.957 99.9262 89.2929 106.062 82.1409 105.894C81.1595 105.873 80.8982 105.428 81.3568 104.558L85.9168 95.8782" stroke="#BB8276" stroke-width="2"/>
<path d="M141.957 185.758C136.717 182.086 121.909 180.238 117.773 186.254" stroke="#955954" stroke-width="2"/>
<path d="M149.045 197.622C150.352 196.705 152.354 195.851 155.053 195.062C157.672 194.299 160.554 192.889 163.701 190.83C170.037 186.678 174.045 181.478 176.077 174.334" stroke="#FDB899" stroke-width="2"/>
<path d="M176.077 174.334C183.205 171.774 189.269 167.478 189.293 159.262C189.293 159.006 189.165 158.875 188.909 158.87L176.453 158.63" stroke="#FC9C82" stroke-width="2"/>
<path d="M176.453 158.63L175.997 146.63" stroke="#FDB899" stroke-width="2"/>
<path d="M175.997 146.63C176.237 143.307 176.232 140.798 175.981 139.102C175.677 137.086 174.941 135.339 173.773 133.862" stroke="#FDD4C5" stroke-width="2"/>
<path d="M173.773 133.862C172.482 130.902 171.274 128.214 170.149 125.798C168.605 122.494 166.765 122.926 163.725 123.27C163.48 123.297 163.272 123.398 163.101 123.574C161.893 124.814 157.933 125.59 157.053 123.51C156.469 122.134 157.573 120.566 156.045 119.286" stroke="#FDB899" stroke-width="2"/>
<path d="M156.045 119.286C164.557 117.462 170.589 121.142 177.461 125.83C178.16 126.305 178.984 126.505 179.933 126.43C180.205 126.403 180.378 126.259 180.453 125.998L180.669 125.246" stroke="#E4926D" stroke-width="2"/>
<path d="M180.669 125.246H181.413C181.696 125.246 181.837 125.105 181.837 124.822C181.717 115.726 179.429 106.118 178.061 97.798C177.912 96.886 177.613 96.8327 177.165 97.638C175.917 99.9047 174.882 102.275 174.061 104.75C174.042 104.809 174.01 104.862 173.967 104.907C173.925 104.952 173.874 104.988 173.816 105.011C173.758 105.035 173.696 105.046 173.634 105.043C173.571 105.041 173.509 105.026 173.453 104.998L161.293 99.046C161.19 98.995 161.078 98.9654 160.963 98.9588C160.848 98.9522 160.733 98.9688 160.625 99.0076C160.516 99.0464 160.417 99.1067 160.333 99.1847C160.248 99.2628 160.18 99.3571 160.133 99.462C158.912 102.166 157.258 104.566 155.173 106.662C155.069 106.766 154.942 106.844 154.803 106.888C154.663 106.933 154.516 106.943 154.373 106.918C153.418 106.758 152.626 106.091 151.997 104.918" stroke="#FDB899" stroke-width="2"/>
<path d="M151.637 200.398C152.154 202.281 152.376 204.203 152.301 206.166C151.989 214.238 138.397 217.894 132.165 218.046" stroke="#ABAA7E" stroke-width="2"/>
<path d="M132.165 218.046C131.786 217.87 131.384 217.82 130.957 217.894" stroke="#B3B68C" stroke-width="2"/>
<path d="M130.957 217.894C128.173 214.27 121.949 207.046 117.325 206.43C117.091 206.398 116.891 206.294 116.725 206.118C116.32 205.692 115.835 205.54 115.269 205.662C114.971 205.726 114.789 205.609 114.725 205.31C114.245 203.07 112.157 204.782 111.405 205.878" stroke="#FDB899" stroke-width="2"/>
<path d="M111.405 205.878C111.08 203.457 111.16 201.507 111.645 200.03" stroke="#B3B68C" stroke-width="2"/>
<path d="M173.493 147.926C174.301 141.998 172.413 134.774 166.837 132.182C166.096 131.836 165.341 131.473 164.573 131.094" stroke="#89898C" stroke-width="2"/>
<path d="M127.901 98.3099L125.837 97.6139C125.581 97.5286 125.357 97.5792 125.165 97.7659C120.755 102.065 115.888 105.761 110.565 108.854C109.269 109.611 107.952 109.627 106.613 108.902C106.569 108.877 106.532 108.841 106.507 108.796C106.482 108.752 106.47 108.701 106.473 108.65C106.475 108.6 106.492 108.55 106.521 108.509C106.55 108.467 106.59 108.434 106.637 108.414L109.173 107.342C109.249 107.31 109.317 107.261 109.371 107.2C109.426 107.139 109.466 107.066 109.488 106.987C109.51 106.909 109.514 106.826 109.5 106.746C109.486 106.667 109.453 106.591 109.405 106.526C109.24 106.297 109.005 106.198 108.701 106.23" stroke="#FDBD9F" stroke-width="2"/>
<path d="M211.085 131.39C204.901 128.462 202.989 136.534 201.197 140.326C200.376 142.049 199.832 141.966 199.565 140.078C198.829 134.798 198.325 128.742 197.109 123.862C195.728 118.321 193.768 113.091 191.229 108.174C190.898 107.529 191.01 106.971 191.565 106.502L196.621 102.19C196.877 101.977 196.856 101.793 196.557 101.638C188.245 97.414 183.909 91.022 180.189 82.478" stroke="#B1665C" stroke-width="2"/>
<path d="M161.893 202.79C172.533 207.222 179.749 211.686 183.421 223.254C184.045 225.214 182.597 225.15 181.493 225.606C167.397 231.483 152.706 234.793 137.421 235.534" stroke="#95C3AD" stroke-width="2"/>
<path d="M111.405 205.878C115.805 212.572 122.323 216.577 130.957 217.894" stroke="#B5C59A" stroke-width="2"/>
<path d="M132.165 218.046C132.571 219.566 133.301 220.83 134.357 221.838C134.407 221.886 134.441 221.947 134.455 222.014C134.47 222.082 134.464 222.152 134.438 222.215C134.412 222.279 134.368 222.333 134.31 222.372C134.253 222.41 134.186 222.43 134.117 222.43C121.589 222.182 107.141 218.038 104.901 203.758C104.864 203.545 104.739 203.438 104.525 203.438C104.381 203.438 104.253 203.523 104.141 203.694C104.003 203.907 103.963 204.137 104.021 204.382C107.317 219.182 121.429 222.982 134.837 223.422C135.136 223.433 135.357 223.566 135.501 223.822C137.293 226.99 137.565 232.438 137.421 235.534" stroke="#62B77F" stroke-width="2"/>
<path d="M137.421 235.534C124.445 236.041 111.642 234.881 99.013 232.054C93.669 230.854 88.005 228.926 82.541 227.174" stroke="#9DCFBB" stroke-width="2"/>
<path d="M207.181 135.462C203.589 136.942 201.789 140.318 200.949 143.91C200.245 146.902 197.429 155.318 199.917 157.59C201.037 158.609 202.227 158.849 203.485 158.31C209.843 155.59 213.059 150.563 213.133 143.23C213.171 139.603 211.416 137.017 207.869 135.47C207.64 135.369 207.411 135.366 207.181 135.462Z" stroke="#FC9C82" stroke-width="2"/>
<path d="M47.1813 138.206C42.0693 144.518 45.9573 153.414 52.0293 157.326C54.9733 159.222 61.1173 159.518 59.7093 154.398C58.2373 149.038 57.1813 144.294 54.6133 139.262C52.8693 135.838 49.7413 135.038 47.1813 138.206Z" stroke="#FDB899" stroke-width="2"/>
<path d="M99.621 109.174C91.949 109.75 79.933 115.582 78.141 123.862C78.0934 124.082 78.1052 124.311 78.1751 124.526C78.2451 124.74 78.3708 124.932 78.5392 125.082C78.7077 125.231 78.913 125.334 79.134 125.378C79.355 125.422 79.5838 125.407 79.797 125.334C87.045 122.846 92.101 116.43 100.813 119.334C104.845 120.678 108.101 120.142 109.101 115.446C110.325 109.662 103.789 108.862 99.621 109.174Z" stroke="#E6A580" stroke-width="2"/>
<path d="M88.7334 156.478C103.989 165.662 111.221 137.366 97.0294 131.414" stroke="#897266" stroke-width="2"/>
<path d="M97.0291 131.414C96.8051 128.166 89.9571 131.046 87.8691 132.47C82.3251 136.254 80.4771 142.086 82.6611 148.63C84.0585 152.801 86.0825 155.417 88.7332 156.478" stroke="#FEE7D8" stroke-width="2"/>
<path d="M97.0292 131.414C87.4772 129.254 83.9332 140.726 84.7652 147.91C85.1226 150.998 86.4452 153.854 88.7332 156.478" stroke="#89898C" stroke-width="2"/>
<path d="M95.5395 147.366C95.8519 147.317 96.1506 147.2 96.4184 147.022C96.6862 146.843 96.9179 146.607 97.1003 146.327C97.2827 146.046 97.4123 145.727 97.4815 145.387C97.5508 145.047 97.5584 144.693 97.5039 144.345C97.4495 143.998 97.334 143.663 97.1641 143.361C96.9943 143.058 96.7734 142.794 96.5139 142.582C96.2545 142.371 95.9617 142.217 95.6522 142.129C95.3427 142.041 95.0227 142.021 94.7102 142.07C94.3978 142.119 94.0992 142.236 93.8314 142.414C93.5636 142.593 93.3319 142.829 93.1494 143.109C92.967 143.39 92.8375 143.709 92.7682 144.049C92.699 144.389 92.6914 144.743 92.7458 145.091C92.8003 145.438 92.9158 145.773 93.0856 146.075C93.2555 146.378 93.4764 146.642 93.7358 146.854C93.9952 147.065 94.2881 147.219 94.5975 147.307C94.907 147.395 95.2271 147.415 95.5395 147.366Z" stroke="#89898C" stroke-width="2"/>
<path d="M165.781 144.478C165.781 143.807 165.515 143.164 165.041 142.69C164.567 142.216 163.924 141.95 163.253 141.95C162.583 141.95 161.94 142.216 161.466 142.69C160.991 143.164 160.725 143.807 160.725 144.478C160.725 145.148 160.991 145.791 161.466 146.266C161.94 146.74 162.583 147.006 163.253 147.006C163.924 147.006 164.567 146.74 165.041 146.266C165.515 145.791 165.781 145.148 165.781 144.478Z" stroke="#89898C" stroke-width="2"/>
<path d="M130.789 21.142C132.261 21.638 132.946 22.4246 132.845 23.502C132.818 23.79 132.896 24.0486 133.077 24.278L134.549 26.174C134.688 26.3607 134.711 26.5606 134.621 26.774C134.005 28.182 134.397 29.446 133.885 30.79C133.48 31.8513 133.05 32.91 132.597 33.966C132.508 34.1851 132.489 34.4278 132.541 34.662C132.834 35.9527 132.552 37.1713 131.693 38.318C131.538 38.5207 131.522 38.7313 131.645 38.95C131.826 39.286 131.847 39.606 131.709 39.91C131.506 40.3473 131.413 40.3286 131.429 39.854C131.429 39.7526 131.437 39.622 131.453 39.462C131.464 39.3832 131.447 39.303 131.405 39.2357C131.362 39.1683 131.297 39.1182 131.222 39.0942C131.146 39.0702 131.064 39.0739 130.99 39.1046C130.917 39.1353 130.857 39.1911 130.821 39.262L126.717 46.646C126.567 46.918 126.36 47.134 126.093 47.294C125.453 47.678 125.285 48.2007 125.589 48.862C125.674 49.0326 125.64 49.174 125.485 49.286C117.293 55.4353 108.591 60.7073 99.3808 65.102C89.4448 69.846 78.3008 72.782 69.3648 64.83C69.2386 64.719 69.0779 64.655 68.9099 64.6491C68.742 64.6431 68.5771 64.6954 68.4433 64.7971C68.3095 64.8989 68.215 65.0438 68.176 65.2073C68.1369 65.3708 68.1556 65.5427 68.2288 65.694C68.5568 66.366 64.8209 68.166 64.1969 68.638C64.0889 68.7216 63.9593 68.7728 63.8233 68.7855C63.6873 68.7982 63.5505 68.7721 63.4288 68.71C58.9968 66.438 58.6768 73.502 55.0368 71.55C54.7222 71.3793 54.5808 71.4726 54.6128 71.83L54.6448 72.222C49.6128 70.486 34.0848 64.582 39.8848 56.158C43.9968 50.19 56.2288 55.198 61.2208 57.19C61.6262 57.35 61.7435 57.23 61.5728 56.83C57.3248 47.006 61.3088 36.702 69.7808 30.998C71.6528 29.742 72.5648 31.118 72.8288 32.83C73.3462 36.1793 73.8635 39.5073 74.3808 42.814C74.3933 42.8834 74.4277 42.9469 74.4791 42.9951C74.5305 43.0434 74.5961 43.0738 74.6661 43.0819C74.7361 43.0899 74.8068 43.0753 74.8678 43.04C74.9289 43.0047 74.9769 42.9507 75.0048 42.886C79.7888 31.462 89.3328 27.91 99.7168 23.062C104.837 20.6727 109.65 17.814 114.157 14.486C114.224 14.4369 114.304 14.4076 114.387 14.4012C114.47 14.3948 114.553 14.4117 114.627 14.4499C114.701 14.4881 114.762 14.5462 114.805 14.6175C114.848 14.6889 114.87 14.7708 114.869 14.854C114.783 20.3793 113.76 25.7153 111.797 30.862C111.77 30.9281 111.766 31.0015 111.787 31.0699C111.807 31.1383 111.851 31.1975 111.91 31.2378C111.969 31.2781 112.04 31.2969 112.111 31.2911C112.182 31.2853 112.249 31.2552 112.301 31.206C117.501 26.23 123.664 22.8753 130.789 21.142Z" fill="#974F4C"/>
<path d="M153.093 21.7661C153.664 23.1314 154.947 23.8168 156.941 23.8221C157.229 23.8221 157.467 23.9314 157.653 24.1501C158.549 25.1901 159.421 25.8541 159.765 27.2781C162.069 36.7981 163.669 43.4941 160.773 53.0461C156.597 66.8541 145.261 70.0781 132.549 72.3821C130.661 72.7261 129.141 73.6621 127.973 74.9981C122.557 81.1901 115.573 87.7981 106.549 85.5021C104.333 84.9421 102.917 84.4221 100.605 85.2141C98.0506 86.0888 95.4746 86.8808 92.8773 87.5901C92.6213 87.6594 92.4106 87.7981 92.2453 88.0061C91.3973 89.0728 90.3093 89.7714 88.9813 90.1021C88.6826 90.1768 88.4533 90.3421 88.2933 90.5981L86.1172 94.0461C86.0212 94.2008 86.0133 94.3608 86.0933 94.5261C86.2053 94.7501 86.6132 95.9581 85.9172 95.8781L84.0052 96.1821C77.1839 97.6648 70.2666 98.2861 63.2533 98.0461C62.9653 98.0354 62.7413 98.1528 62.5813 98.3981C62.2346 98.9261 62.0292 99.6461 61.9652 100.558L58.1252 105.798C58.0821 105.857 58.0555 105.927 58.0485 106C58.0415 106.073 58.0542 106.146 58.0853 106.212C58.1163 106.278 58.1647 106.335 58.2252 106.376C58.2857 106.417 58.3562 106.442 58.4293 106.446L64.4132 106.798C64.4764 106.801 64.538 106.819 64.5927 106.851C64.6474 106.882 64.6936 106.927 64.7274 106.98C64.7612 107.034 64.7816 107.094 64.7868 107.158C64.792 107.221 64.7818 107.284 64.7572 107.342C63.7332 109.763 62.2746 111.87 60.3813 113.662C60.3425 113.698 60.3136 113.744 60.2974 113.795C60.2812 113.845 60.2782 113.899 60.2886 113.951C60.299 114.003 60.3225 114.052 60.3569 114.092C60.3914 114.133 60.4355 114.164 60.4853 114.182L63.9413 115.494C64.2559 115.611 64.2746 115.766 63.9973 115.958C59.4853 119.118 59.3893 140.07 58.4453 140.07C56.1333 137.23 55.8373 134.174 53.4533 131.798C53.2674 131.612 53.0196 131.501 52.7572 131.486L49.2453 131.238C48.3653 130.209 47.7359 129.299 47.3572 128.51C42.6799 118.883 39.4826 108.547 37.7652 97.5021C37.5839 96.3554 37.5519 95.3208 37.6692 94.3981C37.6894 94.249 37.7585 94.1108 37.8656 94.0051C37.9727 93.8994 38.1118 93.8322 38.2612 93.8141L49.0293 92.4381C49.0701 92.434 49.1085 92.4178 49.1397 92.3913C49.1708 92.3648 49.1933 92.3293 49.2044 92.2892C49.2155 92.2491 49.2147 92.2062 49.202 92.1658C49.1894 92.1255 49.1654 92.0894 49.1333 92.0621C44.5813 88.3501 39.2213 78.7261 46.7413 75.0701C49.0133 73.9581 52.7973 73.6381 55.6293 73.1981C55.6939 73.1887 55.7532 73.1581 55.7979 73.111C55.8426 73.0638 55.8703 73.0028 55.8767 72.9374C55.883 72.8719 55.8677 72.8055 55.8332 72.7486C55.7986 72.6916 55.7466 72.6472 55.6853 72.6221L54.6453 72.2221L54.6132 71.8301C54.5812 71.4728 54.7226 71.3794 55.0373 71.5501C58.6773 73.5021 58.9973 66.4381 63.4293 68.7101C63.5509 68.7722 63.6877 68.7984 63.8237 68.7856C63.9597 68.7729 64.0893 68.7217 64.1973 68.6381C64.8213 68.1661 68.5573 66.3661 68.2293 65.6941C68.156 65.5428 68.1373 65.3709 68.1764 65.2074C68.2155 65.0439 68.3099 64.899 68.4437 64.7973C68.5775 64.6955 68.7424 64.6432 68.9104 64.6492C69.0783 64.6552 69.239 64.7191 69.3652 64.8301C78.3012 72.7821 89.4453 69.8461 99.3813 65.1021C108.592 60.7074 117.293 55.4354 125.485 49.2861C125.64 49.1741 125.675 49.0328 125.589 48.8621C125.285 48.2008 125.453 47.6781 126.093 47.2941C126.36 47.1341 126.568 46.9181 126.717 46.6461L130.821 39.2621C130.857 39.1912 130.917 39.1355 130.991 39.1047C131.064 39.074 131.146 39.0703 131.222 39.0943C131.298 39.1183 131.363 39.1685 131.405 39.2358C131.447 39.3032 131.465 39.3834 131.453 39.4621C131.437 39.6221 131.429 39.7528 131.429 39.8541C131.413 40.3288 131.507 40.3474 131.709 39.9101C131.848 39.6061 131.827 39.2861 131.645 38.9501C131.523 38.7314 131.539 38.5208 131.693 38.3181C132.552 37.1714 132.835 35.9528 132.541 34.6621C132.489 34.4279 132.509 34.1852 132.597 33.9661C133.051 32.9101 133.48 31.8514 133.885 30.7901C134.397 29.4461 134.005 28.1821 134.621 26.7741C134.712 26.5608 134.688 26.3608 134.549 26.1741L133.077 24.2781C132.896 24.0488 132.819 23.7901 132.845 23.5021C132.947 22.4248 132.261 21.6381 130.789 21.1421C138.357 19.5314 145.792 19.7394 153.093 21.7661Z" fill="#844042"/>
<path d="M153.093 21.7661C168.621 25.5341 180.093 36.6861 186.957 50.7021C186.981 50.7549 187.022 50.7981 187.073 50.8253C187.124 50.8525 187.183 50.8624 187.241 50.8535C187.299 50.8445 187.353 50.8173 187.395 50.7757C187.438 50.7341 187.466 50.6803 187.477 50.6221C190.109 34.0221 199.909 52.4701 200.997 57.2061C199.792 59.4568 199.717 62.2408 200.773 65.5581C200.818 65.6959 200.833 65.8417 200.816 65.9854C200.8 66.1291 200.752 66.2672 200.677 66.3901C200.186 67.2114 199.973 68.0994 200.037 69.0541C200.049 69.2075 200.02 69.3613 199.954 69.5003C199.889 69.6392 199.787 69.7585 199.661 69.8461C197.997 70.9821 196.557 71.4381 194.373 71.2061C187.133 70.4141 185.637 74.9821 180.461 78.5581C180.242 78.7128 180.101 78.9208 180.037 79.1821C179.552 81.1394 179.602 82.2381 180.189 82.4781L172.013 96.1501C171.848 96.4328 171.661 96.4488 171.453 96.1981C168.309 92.4141 167.069 87.1261 166.333 82.3981C166.325 82.3493 166.301 82.304 166.264 82.2696C166.228 82.2351 166.182 82.2134 166.134 82.2079C166.085 82.2024 166.036 82.2134 165.996 82.2391C165.955 82.2649 165.924 82.304 165.909 82.3501C162.73 90.7768 158.093 98.2994 151.997 104.918C151.56 105.649 150.984 106.03 150.269 106.062C150.129 106.069 149.991 106.037 149.869 105.971C149.748 105.905 149.648 105.806 149.581 105.686C147.549 102.027 146.578 98.0888 146.669 93.8701C146.672 93.7737 146.645 93.6786 146.591 93.5987C146.537 93.5187 146.459 93.4578 146.369 93.4249C146.278 93.392 146.179 93.3888 146.086 93.4156C145.994 93.4424 145.912 93.4979 145.853 93.5741C142.117 98.2701 131.397 109.862 125.277 110.51L127.901 98.3101L129.269 89.2861C129.284 89.1775 129.261 89.0665 129.205 88.9717C129.149 88.8769 129.062 88.8042 128.96 88.7658C128.858 88.7273 128.746 88.7254 128.643 88.7604C128.541 88.7955 128.454 88.8653 128.397 88.9581C123.496 96.6434 116.93 102.401 108.701 106.23L105.509 107.214C105.389 107.251 105.262 107.256 105.141 107.226C105.019 107.196 104.908 107.134 104.819 107.046C104.73 106.958 104.667 106.848 104.636 106.726C104.606 106.605 104.609 106.478 104.645 106.358L107.549 96.5821C107.569 96.5202 107.569 96.454 107.549 96.3922C107.53 96.3305 107.491 96.2761 107.439 96.2362C107.387 96.1964 107.324 96.1729 107.258 96.169C107.192 96.165 107.126 96.1808 107.069 96.2141C100.957 99.9261 89.2929 106.062 82.1409 105.894C81.1595 105.873 80.8982 105.427 81.3568 104.558L85.9168 95.8781C86.6128 95.9581 86.2049 94.7501 86.0929 94.5261C86.0129 94.3608 86.0208 94.2008 86.1168 94.0461L88.2929 90.5981C88.4529 90.3421 88.6822 90.1768 88.9809 90.1021C90.3089 89.7714 91.3969 89.0728 92.2449 88.0061C92.4102 87.7981 92.6208 87.6594 92.8768 87.5901C95.4742 86.8808 98.0502 86.0888 100.605 85.2141C102.917 84.4221 104.333 84.9421 106.549 85.5021C115.573 87.7981 122.557 81.1901 127.973 74.9981C129.141 73.6621 130.661 72.7261 132.549 72.3821C145.261 70.0781 156.597 66.8541 160.773 53.0461C163.669 43.4941 162.069 36.7981 159.765 27.2781C159.421 25.8541 158.549 25.1901 157.653 24.1501C157.466 23.9314 157.229 23.8221 156.941 23.8221C154.946 23.8168 153.664 23.1314 153.093 21.7661Z" fill="#77333A"/>
<path d="M200.997 57.2061C202.826 64.2567 202.693 71.1394 200.597 77.8541C200.573 77.9286 200.574 78.0088 200.6 78.0826C200.626 78.1565 200.675 78.2199 200.74 78.2633C200.805 78.3066 200.883 78.3277 200.961 78.3231C201.039 78.3186 201.113 78.2887 201.173 78.238L205.605 74.59C205.882 74.3607 206.136 74.3874 206.365 74.6701C207.501 76.0727 208.253 77.2807 208.621 78.2941C213.661 92.0274 215.181 106.55 213.181 121.862C212.658 125.851 211.96 129.027 211.085 131.39C204.901 128.462 202.989 136.534 201.197 140.326C200.376 142.049 199.832 141.966 199.565 140.078C198.829 134.798 198.325 128.742 197.109 123.862C195.728 118.321 193.768 113.091 191.229 108.174C190.898 107.529 191.01 106.971 191.565 106.502L196.621 102.19C196.877 101.977 196.856 101.793 196.557 101.638C188.245 97.414 183.909 91.022 180.189 82.4781C179.602 82.2381 179.552 81.1394 180.037 79.1821C180.101 78.9207 180.242 78.7127 180.461 78.5581C185.637 74.9821 187.133 70.4141 194.373 71.2061C196.557 71.4381 197.997 70.9821 199.661 69.8461C199.788 69.7584 199.889 69.6392 199.955 69.5002C200.021 69.3612 200.049 69.2074 200.037 69.0541C199.973 68.0994 200.186 67.2114 200.677 66.3901C200.752 66.2671 200.8 66.129 200.817 65.9854C200.833 65.8417 200.818 65.6959 200.773 65.5581C199.717 62.2407 199.792 59.4567 200.997 57.2061Z" fill="#66222C"/>
<path d="M180.189 82.4782C183.909 91.0222 188.245 97.4142 196.557 101.638C196.856 101.793 196.877 101.977 196.621 102.19L191.565 106.502C191.01 106.972 190.898 107.529 191.229 108.174C193.768 113.092 195.728 118.321 197.109 123.862C198.325 128.742 198.829 134.798 199.565 140.078C199.832 141.966 200.376 142.049 201.197 140.326C202.989 136.534 204.901 128.462 211.085 131.39C227.037 142.958 213.349 169.446 194.613 164.406C194.371 164.341 194.114 164.361 193.885 164.463C193.656 164.565 193.47 164.743 193.357 164.966C184.469 182.366 167.709 192.982 149.045 197.622C150.352 196.705 152.354 195.852 155.053 195.062C157.672 194.3 160.554 192.889 163.701 190.83C170.037 186.678 174.045 181.478 176.077 174.334C183.205 171.774 189.269 167.478 189.293 159.262C189.293 159.006 189.165 158.876 188.909 158.87L176.453 158.63L175.997 146.63C176.237 143.308 176.232 140.798 175.981 139.102C175.677 137.086 174.941 135.34 173.773 133.862C172.482 130.902 171.274 128.214 170.149 125.798C168.605 122.494 166.765 122.926 163.725 123.27C163.48 123.297 163.272 123.398 163.101 123.574C161.893 124.814 157.933 125.59 157.053 123.51C156.469 122.134 157.573 120.566 156.045 119.286C164.557 117.462 170.589 121.142 177.461 125.83C178.16 126.305 178.984 126.505 179.933 126.43C180.205 126.404 180.378 126.259 180.453 125.998L180.669 125.246H181.413C181.696 125.246 181.837 125.105 181.837 124.822C181.717 115.726 179.429 106.118 178.061 97.7982C177.912 96.8862 177.613 96.8328 177.165 97.6382C175.917 99.9048 174.882 102.276 174.061 104.75C174.041 104.809 174.01 104.862 173.967 104.907C173.925 104.952 173.873 104.988 173.816 105.011C173.758 105.035 173.696 105.046 173.633 105.043C173.571 105.041 173.509 105.026 173.453 104.998L161.293 99.0462C161.19 98.9952 161.077 98.9655 160.963 98.9589C160.848 98.9523 160.733 98.9689 160.625 99.0077C160.516 99.0466 160.417 99.1068 160.332 99.1849C160.248 99.263 160.18 99.3573 160.133 99.4622C158.912 102.166 157.258 104.566 155.173 106.662C155.069 106.766 154.942 106.844 154.802 106.888C154.663 106.933 154.516 106.943 154.373 106.918C153.418 106.758 152.626 106.092 151.997 104.918C158.093 98.2995 162.73 90.7768 165.909 82.3502C165.924 82.304 165.955 82.265 165.996 82.2392C166.036 82.2134 166.085 82.2024 166.134 82.2079C166.182 82.2134 166.228 82.2352 166.265 82.2696C166.301 82.3041 166.325 82.3493 166.333 82.3982C167.069 87.1262 168.309 92.4142 171.453 96.1982C171.661 96.4488 171.848 96.4328 172.013 96.1502L180.189 82.4782ZM207.181 135.462C203.589 136.942 201.789 140.318 200.949 143.91C200.245 146.902 197.429 155.318 199.917 157.59C201.037 158.609 202.226 158.849 203.485 158.31C209.842 155.59 213.058 150.564 213.133 143.23C213.17 139.604 211.416 137.017 207.869 135.47C207.64 135.369 207.41 135.366 207.181 135.462Z" fill="#FBA98B"/>
<path d="M127.901 98.31L125.837 97.614C125.581 97.5287 125.357 97.5793 125.165 97.766C120.755 102.065 115.888 105.761 110.565 108.854C109.269 109.611 107.952 109.627 106.613 108.902C106.569 108.877 106.532 108.841 106.507 108.796C106.482 108.752 106.47 108.701 106.473 108.651C106.475 108.6 106.492 108.551 106.521 108.509C106.55 108.467 106.59 108.434 106.637 108.414L109.173 107.342C109.249 107.31 109.317 107.261 109.371 107.2C109.426 107.139 109.466 107.066 109.488 106.987C109.51 106.909 109.514 106.826 109.5 106.747C109.486 106.667 109.453 106.591 109.405 106.526C109.24 106.297 109.005 106.198 108.701 106.23C116.931 102.401 123.496 96.6433 128.397 88.958C128.454 88.8651 128.541 88.7953 128.644 88.7603C128.746 88.7253 128.858 88.7272 128.96 88.7656C129.063 88.8041 129.149 88.8768 129.205 88.9716C129.262 89.0663 129.284 89.1774 129.269 89.286L127.901 98.31Z" fill="#FBA98B"/>
<path d="M151.997 104.918C152.626 106.092 153.418 106.758 154.373 106.918C154.516 106.943 154.663 106.933 154.802 106.888C154.942 106.844 155.069 106.766 155.173 106.662C157.258 104.566 158.912 102.166 160.133 99.4622C160.18 99.3573 160.248 99.263 160.332 99.1849C160.417 99.1068 160.516 99.0466 160.624 99.0078C160.733 98.9689 160.848 98.9523 160.963 98.9589C161.077 98.9655 161.19 98.9952 161.293 99.0462L173.453 104.998C173.509 105.026 173.571 105.041 173.633 105.043C173.696 105.046 173.758 105.035 173.816 105.011C173.873 104.988 173.925 104.952 173.967 104.907C174.01 104.862 174.041 104.809 174.061 104.75C174.882 102.276 175.917 99.9049 177.165 97.6382C177.613 96.8329 177.912 96.8862 178.061 97.7982C179.429 106.118 181.717 115.726 181.837 124.822C181.837 125.105 181.696 125.246 181.413 125.246H180.669C178.917 116.462 167.261 110.278 159.229 109.246C148.053 107.798 147.821 119.63 156.045 119.286C157.573 120.566 156.469 122.134 157.053 123.51C157.933 125.59 161.893 124.814 163.101 123.574C163.272 123.398 163.48 123.297 163.725 123.27C166.765 122.926 168.605 122.494 170.149 125.798C171.274 128.214 172.482 130.902 173.773 133.862C170.29 131.569 167.224 130.646 164.573 131.094C154.029 131.022 151.701 143.774 154.869 151.47C159.485 162.662 172.341 158.59 173.493 147.926C174.544 147.67 175.378 147.238 175.997 146.63L176.453 158.63C170.501 157.846 165.418 159.302 161.205 162.998C158.701 165.19 157.749 168.07 159.853 170.846C163.909 176.19 170.173 175.03 176.077 174.334C174.045 181.478 170.037 186.678 163.701 190.83C160.554 192.889 157.672 194.3 155.053 195.062C152.354 195.852 150.352 196.705 149.045 197.622L143.525 199.286C134.205 199.734 127.957 200.334 116.093 199.51C116.053 199.206 115.981 199.038 115.661 198.966C93.2128 194.166 75.8929 184.942 64.7329 164.462C64.6049 164.222 64.4075 164.137 64.1409 164.206C46.3729 168.718 34.4049 150.054 42.9969 135.078C44.2235 132.934 46.3062 131.654 49.2449 131.238L52.7568 131.486C53.0192 131.501 53.267 131.612 53.4529 131.798C55.8369 134.174 56.1329 137.23 58.4449 140.07C58.6209 140.342 58.7062 140.628 58.7009 140.926C58.7009 141.198 58.8182 141.409 59.0529 141.558C59.3302 141.734 59.4129 141.94 59.3009 142.174C59.1782 142.425 59.2209 142.646 59.4289 142.838C62.1649 145.406 63.4449 148.918 65.1249 151.662C65.9569 153.028 66.6929 154.449 67.3329 155.926C67.9649 157.39 69.2288 158.614 70.0608 160.062C70.1253 160.173 70.2158 160.267 70.3245 160.335C70.4332 160.403 70.5569 160.444 70.6849 160.454L74.7729 160.758C70.0289 163.646 72.2768 171.326 75.8688 173.83C79.1755 176.14 83.2235 177.116 88.0128 176.758C88.7382 178.657 90.1089 180.094 92.1249 181.07C92.3542 181.188 92.3889 181.345 92.2289 181.542C90.1809 184.078 95.0609 186.102 96.5249 187.782C96.6582 187.937 96.7222 188.116 96.7168 188.318L96.6929 189.182C96.6875 189.604 96.8902 189.78 97.3009 189.71L100.477 189.174C100.749 189.132 100.994 189.19 101.213 189.35C103.186 190.806 105.17 190.902 107.165 189.638C107.373 189.505 107.461 189.316 107.429 189.07C106.938 185.454 108.493 182.036 112.093 178.814C112.658 181.47 114.552 183.95 117.773 186.254C122.872 189.166 128.96 189.964 136.037 188.646C138.65 188.161 140.624 187.198 141.957 185.758C145.189 184.086 150.149 179.39 149.397 175.278C149.29 174.708 148.96 174.494 148.405 174.638C140.074 176.772 132.013 177.5 124.221 176.822L124.517 176.462C124.55 176.421 124.569 176.37 124.573 176.317C124.576 176.264 124.564 176.212 124.537 176.166C124.51 176.12 124.471 176.083 124.423 176.061C124.375 176.038 124.321 176.03 124.269 176.038C123.224 176.225 122.493 175.878 122.077 174.998C121.897 174.62 121.825 174.2 121.868 173.783C121.912 173.367 122.07 172.971 122.325 172.638L124.557 169.75C124.76 169.489 125.026 169.337 125.357 169.294C125.629 169.252 125.872 169.134 126.085 168.942C126.256 168.788 126.336 168.593 126.325 168.358C126.293 167.297 126.45 166.462 126.797 165.854C129.013 172.054 141.189 163.326 134.221 154.934C133.533 154.102 131.773 152.67 131.005 153.982L125.669 152.11C125.603 152.086 125.544 152.048 125.494 151.999C125.445 151.951 125.407 151.892 125.382 151.827C125.358 151.762 125.348 151.693 125.353 151.625C125.359 151.556 125.379 151.49 125.413 151.43C126.037 150.332 126.186 149.177 125.861 147.966C125.792 147.7 125.805 147.438 125.901 147.182C126.365 145.897 126.477 144.596 126.237 143.278C125.933 141.63 126.549 140.11 126.485 138.47C126.301 133.118 126.669 127.134 125.485 121.926C124.757 118.702 124.709 114.75 124.669 111.51C124.669 111.381 124.694 111.253 124.744 111.134C124.793 111.014 124.865 110.906 124.957 110.814L125.277 110.51C131.397 109.862 142.117 98.2702 145.853 93.5742C145.912 93.498 145.994 93.4425 146.086 93.4157C146.179 93.3888 146.278 93.3921 146.369 93.425C146.459 93.4579 146.537 93.5188 146.591 93.5987C146.645 93.6787 146.672 93.7738 146.669 93.8702C146.578 98.0889 147.549 102.028 149.581 105.686C149.648 105.806 149.748 105.905 149.869 105.971C149.991 106.037 150.129 106.069 150.269 106.062C150.984 106.03 151.56 105.649 151.997 104.918ZM47.1809 138.206C42.0689 144.518 45.9569 153.414 52.0289 157.326C54.9729 159.222 61.1168 159.518 59.7088 154.398C58.2368 149.038 57.1808 144.294 54.6128 139.262C52.8688 135.838 49.7409 135.038 47.1809 138.206Z" fill="#FFC7A7"/>
<path d="M85.917 95.8782L81.357 104.558C80.8983 105.428 81.1597 105.873 82.141 105.894C89.293 106.062 100.957 99.9262 107.069 96.2142C107.126 96.1808 107.192 96.1651 107.258 96.169C107.324 96.173 107.388 96.1964 107.44 96.2363C107.492 96.2762 107.53 96.3306 107.549 96.3923C107.569 96.4541 107.569 96.5203 107.549 96.5822L104.645 106.358C104.609 106.478 104.606 106.605 104.637 106.726C104.667 106.848 104.73 106.958 104.819 107.046C104.908 107.134 105.019 107.197 105.141 107.226C105.262 107.256 105.39 107.252 105.509 107.214L108.701 106.23C109.005 106.198 109.24 106.297 109.405 106.526C109.453 106.591 109.486 106.667 109.5 106.747C109.514 106.827 109.51 106.909 109.488 106.988C109.466 107.066 109.426 107.139 109.371 107.2C109.317 107.262 109.249 107.31 109.173 107.342L106.637 108.414C106.59 108.434 106.55 108.467 106.521 108.509C106.492 108.551 106.475 108.6 106.473 108.651C106.47 108.702 106.482 108.752 106.507 108.797C106.532 108.841 106.568 108.878 106.613 108.902C107.952 109.628 109.269 109.612 110.565 108.854C115.888 105.761 120.754 102.065 125.165 97.7662C125.357 97.5795 125.581 97.5288 125.837 97.6142L127.901 98.3102L125.277 110.51L124.957 110.814C124.866 110.906 124.793 111.014 124.744 111.134C124.694 111.253 124.669 111.381 124.669 111.51C124.709 114.75 124.757 118.702 125.485 121.926C126.669 127.134 126.301 133.118 126.485 138.47C126.549 140.11 125.933 141.63 126.237 143.278C126.477 144.596 126.365 145.897 125.901 147.182C125.805 147.438 125.792 147.7 125.861 147.966C126.186 149.177 126.037 150.332 125.413 151.43C125.379 151.49 125.359 151.556 125.353 151.625C125.348 151.693 125.358 151.762 125.382 151.827C125.407 151.892 125.445 151.95 125.495 151.999C125.544 152.048 125.604 152.086 125.669 152.11L131.005 153.982C134.389 158.694 131.293 163.398 126.797 165.854C126.45 166.462 126.293 167.297 126.325 168.358C126.336 168.593 126.256 168.787 126.085 168.942C125.872 169.134 125.629 169.252 125.357 169.294C125.026 169.337 124.76 169.489 124.557 169.75L122.325 172.638C122.07 172.97 121.912 173.367 121.868 173.783C121.825 174.2 121.897 174.62 122.077 174.998C122.493 175.878 123.224 176.225 124.269 176.038C124.321 176.03 124.375 176.038 124.423 176.061C124.471 176.083 124.511 176.12 124.537 176.166C124.564 176.212 124.576 176.264 124.573 176.317C124.569 176.37 124.55 176.421 124.517 176.462L124.221 176.822L112.509 174.686C112.378 174.663 112.243 174.669 112.114 174.703C111.984 174.737 111.864 174.799 111.762 174.884C111.659 174.969 111.576 175.076 111.518 175.197C111.461 175.317 111.43 175.449 111.429 175.582C111.418 176.644 111.64 177.721 112.093 178.814C108.493 182.036 106.938 185.454 107.429 189.07C107.461 189.315 107.373 189.505 107.165 189.638C105.17 190.902 103.186 190.806 101.213 189.35C100.994 189.19 100.749 189.132 100.477 189.174L97.3011 189.71C96.8904 189.78 96.6877 189.604 96.6931 189.182L96.717 188.318C96.7224 188.116 96.6584 187.937 96.525 187.782C95.061 186.102 90.181 184.078 92.229 181.542C92.389 181.345 92.3544 181.188 92.125 181.07C90.109 180.094 88.7384 178.657 88.013 176.758C95.117 175.99 101.741 170.302 94.005 163.838C88.5863 159.316 82.1757 158.289 74.773 160.758L70.685 160.454C70.5571 160.444 70.4334 160.403 70.3247 160.335C70.216 160.267 70.1255 160.173 70.061 160.062C69.229 158.614 67.965 157.39 67.333 155.926C66.693 154.449 65.957 153.028 65.125 151.662C63.445 148.918 62.165 145.406 59.429 142.838C59.221 142.646 59.1784 142.425 59.3011 142.174C59.4131 141.94 59.3304 141.734 59.0531 141.558C58.8184 141.409 58.7011 141.198 58.7011 140.926C58.7064 140.628 58.6211 140.342 58.4451 140.07C59.3891 140.07 59.4851 119.118 63.9971 115.958C64.2744 115.766 64.2557 115.612 63.941 115.494L60.485 114.182C60.4353 114.164 60.3911 114.133 60.3567 114.092C60.3223 114.052 60.2988 114.003 60.2884 113.951C60.2779 113.899 60.281 113.845 60.2972 113.795C60.3134 113.744 60.3423 113.698 60.381 113.662C62.2744 111.87 63.733 109.764 64.757 107.342C64.7816 107.284 64.7918 107.221 64.7866 107.158C64.7814 107.095 64.761 107.034 64.7272 106.98C64.6934 106.927 64.6472 106.882 64.5925 106.851C64.5378 106.819 64.4762 106.801 64.413 106.798L58.429 106.446C58.356 106.442 58.2855 106.418 58.225 106.376C58.1645 106.335 58.1161 106.279 58.085 106.212C58.054 106.146 58.0412 106.073 58.0483 106C58.0553 105.927 58.0818 105.857 58.125 105.798L61.965 100.558C68.349 100.82 74.685 100.518 80.973 99.6542C81.2397 99.6222 81.501 99.6435 81.757 99.7182C83.397 100.198 83.725 97.2622 84.005 96.1822L85.917 95.8782ZM99.621 109.174C91.949 109.75 79.933 115.582 78.141 123.862C78.0934 124.082 78.1052 124.312 78.1751 124.526C78.2451 124.74 78.3708 124.932 78.5392 125.082C78.7077 125.231 78.913 125.334 79.134 125.378C79.355 125.422 79.5838 125.407 79.7971 125.334C87.0451 122.846 92.101 116.43 100.813 119.334C104.845 120.678 108.101 120.142 109.101 115.446C110.325 109.662 103.789 108.862 99.621 109.174ZM88.733 156.478C103.989 165.662 111.221 137.366 97.029 131.414C96.805 128.166 89.957 131.046 87.869 132.47C82.325 136.254 80.477 142.086 82.661 148.63C84.0584 152.801 86.0824 155.417 88.733 156.478Z" fill="#FED0B2"/>
<path d="M84.0053 96.1821C83.7253 97.2621 83.3973 100.198 81.7573 99.7181C81.5013 99.6435 81.24 99.6221 80.9733 99.6541C74.6853 100.518 68.3493 100.819 61.9653 100.558C62.0293 99.6461 62.2347 98.9261 62.5813 98.3981C62.7413 98.1528 62.9654 98.0355 63.2534 98.0461C70.2667 98.2861 77.184 97.6648 84.0053 96.1821Z" fill="#FBA98B"/>
<path d="M78.141 123.862C79.933 115.582 91.949 109.75 99.621 109.174C103.789 108.862 110.325 109.662 109.101 115.446C108.101 120.142 104.845 120.678 100.813 119.334C92.101 116.43 87.045 122.846 79.797 125.334C79.5838 125.407 79.355 125.422 79.134 125.378C78.913 125.334 78.7077 125.231 78.5392 125.082C78.3708 124.932 78.2451 124.74 78.1751 124.526C78.1052 124.311 78.0934 124.082 78.141 123.862Z" fill="#CD7A4E"/>
<path d="M180.669 125.246L180.453 125.998C180.379 126.259 180.205 126.403 179.933 126.43C178.984 126.505 178.16 126.305 177.461 125.83C170.589 121.142 164.557 117.462 156.045 119.286C147.821 119.63 148.053 107.798 159.229 109.246C167.261 110.278 178.917 116.462 180.669 125.246Z" fill="#CD7A4E"/>
<path d="M97.0291 131.414C87.4771 129.254 83.9331 140.726 84.7651 147.91C85.1225 150.998 86.4452 153.854 88.7332 156.478C86.0825 155.417 84.0585 152.801 82.6611 148.63C80.4771 142.086 82.3251 136.254 87.8691 132.47C89.9571 131.046 96.8051 128.166 97.0291 131.414Z" fill="#FEFEFE"/>
<path d="M173.773 133.862C174.941 135.34 175.677 137.086 175.981 139.102C176.232 140.798 176.237 143.308 175.997 146.63C175.379 147.238 174.544 147.67 173.493 147.926C174.301 141.998 172.413 134.774 166.837 132.182C166.096 131.836 165.341 131.473 164.573 131.094C167.224 130.646 170.291 131.569 173.773 133.862Z" fill="#FEFEFE"/>
<path d="M97.0292 131.414C111.221 137.366 103.989 165.662 88.7332 156.478C86.4452 153.854 85.1226 150.998 84.7652 147.91C83.9332 140.726 87.4772 129.254 97.0292 131.414ZM95.5399 147.366C95.8523 147.317 96.1509 147.2 96.4187 147.022C96.6865 146.843 96.9183 146.607 97.1007 146.327C97.2831 146.046 97.4126 145.727 97.4819 145.387C97.5511 145.047 97.5587 144.693 97.5043 144.346C97.4498 143.998 97.3344 143.663 97.1645 143.361C96.9946 143.058 96.7737 142.794 96.5143 142.582C96.2549 142.371 95.9621 142.217 95.6526 142.129C95.3431 142.041 95.023 142.021 94.7106 142.07C94.3982 142.119 94.0995 142.236 93.8317 142.414C93.5639 142.593 93.3322 142.829 93.1498 143.109C92.9674 143.39 92.8378 143.709 92.7686 144.049C92.6993 144.389 92.6917 144.743 92.7462 145.091C92.8006 145.438 92.9161 145.773 93.086 146.076C93.2558 146.378 93.4768 146.643 93.7362 146.854C93.9956 147.065 94.2884 147.219 94.5979 147.307C94.9074 147.395 95.2275 147.415 95.5399 147.366Z" fill="#141319"/>
<path d="M164.573 131.094C165.341 131.473 166.096 131.835 166.837 132.182C172.413 134.774 174.301 141.998 173.493 147.926C172.341 158.59 159.485 162.662 154.869 151.47C151.701 143.774 154.029 131.022 164.573 131.094ZM165.781 144.478C165.781 143.808 165.515 143.165 165.041 142.69C164.567 142.216 163.924 141.95 163.253 141.95C162.583 141.95 161.94 142.216 161.466 142.69C160.992 143.165 160.725 143.808 160.725 144.478C160.725 145.149 160.992 145.792 161.466 146.266C161.94 146.74 162.583 147.006 163.253 147.006C163.924 147.006 164.567 146.74 165.041 146.266C165.515 145.792 165.781 145.149 165.781 144.478Z" fill="#141319"/>
<path d="M200.949 143.91C201.789 140.318 203.589 136.942 207.181 135.462C207.411 135.366 207.64 135.369 207.869 135.47C211.416 137.017 213.171 139.603 213.133 143.23C213.059 150.563 209.843 155.59 203.485 158.31C202.227 158.849 201.037 158.609 199.917 157.59C197.429 155.318 200.245 146.902 200.949 143.91Z" fill="#FC8E79"/>
<path d="M47.1813 138.206C49.7413 135.038 52.8693 135.838 54.6133 139.262C57.1813 144.294 58.2373 149.038 59.7093 154.398C61.1173 159.518 54.9733 159.222 52.0293 157.326C45.9573 153.414 42.0693 144.518 47.1813 138.206Z" fill="#FBA98B"/>
<path d="M163.253 147.006C164.649 147.006 165.781 145.874 165.781 144.478C165.781 143.082 164.649 141.95 163.253 141.95C161.857 141.95 160.725 143.082 160.725 144.478C160.725 145.874 161.857 147.006 163.253 147.006Z" fill="#FEFEFE"/>
<path d="M92.746 145.091C92.975 146.553 94.2257 147.572 95.5396 147.366C96.8535 147.16 97.733 145.808 97.504 144.345C97.275 142.883 96.0242 141.865 94.7103 142.07C93.3965 142.276 92.517 143.628 92.746 145.091Z" fill="#FEFEFE"/>
<path d="M126.797 165.854C131.293 163.398 134.389 158.694 131.005 153.982C131.773 152.67 133.533 154.102 134.221 154.934C141.189 163.326 129.013 172.054 126.797 165.854Z" fill="#FBA98B"/>
<path d="M176.453 158.63L188.909 158.87C189.165 158.875 189.293 159.006 189.293 159.262C189.269 167.478 183.205 171.774 176.077 174.334C170.173 175.03 163.909 176.19 159.853 170.846C157.749 168.07 158.701 165.19 161.205 162.998C165.418 159.302 170.501 157.846 176.453 158.63Z" fill="#FC8E79"/>
<path d="M88.0133 176.758C83.2239 177.115 79.1759 176.139 75.8693 173.83C72.2773 171.326 70.0293 163.646 74.7733 160.758C82.176 158.289 88.5866 159.315 94.0053 163.838C101.741 170.302 95.1173 175.99 88.0133 176.758Z" fill="#FBA98B"/>
<path d="M124.221 176.822C132.013 177.499 140.074 176.771 148.405 174.638C148.96 174.494 149.29 174.707 149.397 175.278C150.149 179.39 145.189 184.086 141.957 185.758C136.717 182.086 121.909 180.238 117.773 186.254C114.552 183.95 112.658 181.47 112.093 178.814C111.64 177.721 111.418 176.643 111.429 175.582C111.431 175.448 111.461 175.317 111.518 175.196C111.576 175.076 111.659 174.969 111.762 174.884C111.864 174.799 111.984 174.737 112.114 174.703C112.243 174.668 112.378 174.663 112.509 174.686L124.221 176.822Z" fill="#2D242F"/>
<path d="M141.957 185.758C140.624 187.198 138.65 188.161 136.037 188.646C128.96 189.963 122.872 189.166 117.773 186.254C121.909 180.238 136.717 182.086 141.957 185.758Z" fill="#FC8E79"/>
<path d="M143.525 199.286L151.637 200.398C152.155 202.281 152.376 204.203 152.301 206.166C151.989 214.238 138.397 217.894 132.165 218.046C131.787 217.87 131.384 217.819 130.957 217.894C128.173 214.27 121.949 207.046 117.325 206.43C117.091 206.398 116.891 206.294 116.725 206.118C116.32 205.691 115.835 205.539 115.269 205.662C114.971 205.726 114.789 205.609 114.725 205.31C114.245 203.07 112.157 204.782 111.405 205.878C111.08 203.457 111.16 201.507 111.645 200.03L116.093 199.51C127.957 200.334 134.205 199.734 143.525 199.286Z" fill="#FBA98B"/>
<path d="M111.645 200.03C111.16 201.507 111.08 203.457 111.405 205.878C115.805 212.571 122.323 216.577 130.957 217.894C131.384 217.819 131.787 217.87 132.165 218.046C132.571 219.566 133.301 220.83 134.357 221.838C134.407 221.886 134.441 221.947 134.455 222.014C134.47 222.082 134.463 222.152 134.438 222.215C134.412 222.279 134.368 222.333 134.31 222.372C134.253 222.41 134.186 222.43 134.117 222.43C121.589 222.182 107.141 218.038 104.901 203.758C104.864 203.545 104.739 203.438 104.525 203.438C104.381 203.438 104.253 203.523 104.141 203.694C104.003 203.907 103.963 204.137 104.021 204.382C107.317 219.182 121.429 222.982 134.837 223.422C135.136 223.433 135.357 223.566 135.501 223.822C137.293 226.99 137.565 232.438 137.421 235.534C124.445 236.041 111.643 234.881 99.0132 232.054C93.6692 230.854 88.0052 228.926 82.5413 227.174L77.2612 225.438C77.025 225.361 76.8277 225.195 76.71 224.976C76.5924 224.757 76.5635 224.502 76.6292 224.262C80.9092 208.622 96.5013 201.446 111.645 200.03Z" fill="#6AC38D"/>
<path d="M151.637 200.398L161.893 202.79C172.533 207.222 179.749 211.686 183.421 223.254C184.045 225.214 182.597 225.15 181.493 225.606C167.397 231.483 152.707 234.793 137.421 235.534C137.565 232.438 137.293 226.99 135.501 223.822C135.357 223.566 135.136 223.433 134.837 223.422C121.429 222.982 107.317 219.182 104.021 204.382C103.963 204.137 104.003 203.907 104.141 203.694C104.253 203.523 104.381 203.438 104.525 203.438C104.739 203.438 104.864 203.545 104.901 203.758C107.141 218.038 121.589 222.182 134.117 222.43C134.186 222.43 134.253 222.41 134.31 222.372C134.368 222.333 134.412 222.279 134.438 222.215C134.464 222.151 134.47 222.081 134.455 222.014C134.441 221.947 134.407 221.886 134.357 221.838C133.301 220.83 132.571 219.566 132.165 218.046C138.397 217.894 151.989 214.238 152.301 206.166C152.376 204.203 152.155 202.281 151.637 200.398Z" fill="#5AAA71"/>
<path d="M130.957 217.894C122.323 216.577 115.805 212.572 111.405 205.878C112.157 204.782 114.245 203.07 114.725 205.31C114.789 205.609 114.971 205.726 115.269 205.662C115.835 205.54 116.32 205.692 116.725 206.118C116.891 206.294 117.091 206.398 117.325 206.43C121.949 207.046 128.173 214.27 130.957 217.894Z" fill="#FFC7A7"/>
</svg>
