<svg width="256" height="256" viewBox="0 0 256 256" fill="none" xmlns="http://www.w3.org/2000/svg">
<path d="M101.758 33.1625C38.7177 57.0665 20.4857 131.266 54.4137 185.355C62.3817 198.051 73.1738 208.315 86.0218 215.939" stroke="#F5F5F2" stroke-width="2"/>
<path d="M205.381 74.4258L202.213 69.7938" stroke="#F9F6F3" stroke-width="2"/>
<path d="M202.214 69.7947C197.195 60.2853 190.134 52.3387 181.03 45.9547" stroke="#FEE2AC" stroke-width="2"/>
<path d="M181.029 45.9542C169.061 36.1702 151.365 30.3142 136.237 28.2742" stroke="#FEE9A4" stroke-width="2"/>
<path d="M136.238 28.2742C124.435 27.2982 112.942 28.9275 101.758 33.1622" stroke="#FAF1D7" stroke-width="2"/>
<path d="M136.238 28.2742C134.339 28.7222 133.03 29.8476 132.31 31.6502C132.214 31.8902 132.037 32.0102 131.781 32.0102L130.478 32.0182" stroke="#FADD7D" stroke-width="2"/>
<path d="M130.478 32.018C121.718 32.074 114.686 33.554 105.686 35.834" stroke="#FAD684" stroke-width="2"/>
<path d="M105.686 35.8345L104.99 35.4985C104.75 35.3865 104.558 35.2185 104.414 34.9945C103.96 34.2798 103.32 33.9545 102.494 34.0185C102.259 34.0398 102.094 33.9412 101.998 33.7225L101.758 33.1625" stroke="#F0E9CB" stroke-width="2"/>
<path d="M202.213 69.7938L205.837 80.6178" stroke="#F9DAA0" stroke-width="2"/>
<path d="M205.838 80.6183C205.246 80.5223 204.982 80.1196 205.046 79.4103C205.067 79.1276 204.95 78.9276 204.694 78.8103C203.798 78.3943 203.334 78.3783 202.686 77.5543C197.72 71.2663 193.224 66.309 189.198 62.6823C183.318 57.3863 176.534 55.8583 168.894 55.0103C168.832 55.0024 168.769 55.0089 168.711 55.0294C168.652 55.0499 168.598 55.0838 168.554 55.1286C168.51 55.1733 168.477 55.2277 168.457 55.2877C168.437 55.3476 168.43 55.4114 168.438 55.4743L168.558 56.4823C168.571 56.5772 168.619 56.6642 168.692 56.7273C168.766 56.7905 168.86 56.8256 168.958 56.8263C182.302 56.8663 189.534 62.8343 196.95 73.2983C197.264 73.741 197.15 73.9756 196.606 74.0023C196.526 74.0023 196.347 73.9223 196.07 73.7623C190.699 70.6423 185.035 68.2343 179.078 66.5383" stroke="#FAB34A" stroke-width="2"/>
<path d="M179.078 66.5383L170.854 64.2423C170.715 64.205 170.648 64.2557 170.654 64.3943C170.654 64.4957 170.651 64.597 170.646 64.6984C170.624 65.0344 170.782 65.2237 171.118 65.2663C171.816 65.357 172.32 65.709 172.63 66.3224C172.731 66.5197 172.726 66.7117 172.614 66.8984C171.792 68.3544 170.51 68.9863 168.766 68.7943C168.499 68.7623 168.259 68.8317 168.046 69.0024C167.16 69.7277 166.179 69.6477 165.102 68.7623" stroke="#FEC153" stroke-width="2"/>
<path d="M165.102 68.7623C162.526 64.2289 158.923 60.6183 154.294 57.9303C154.279 57.9213 154.262 57.9183 154.246 57.9217C154.229 57.925 154.215 57.9346 154.204 57.9488C154.194 57.963 154.188 57.9808 154.189 57.9993C154.189 58.0179 154.195 58.0359 154.206 58.0503C155.246 59.1916 156.304 60.1996 157.382 61.0743C162.923 65.5756 165.654 71.2236 165.574 78.0183C165.534 82.1783 163.606 87.5303 162.63 92.0743C162.611 92.1631 162.563 92.2432 162.494 92.3024C162.425 92.3616 162.339 92.3966 162.248 92.402C162.157 92.4075 162.067 92.383 161.992 92.3325C161.916 92.282 161.859 92.2082 161.83 92.1223C160.734 88.9143 160.518 86.9943 160.51 83.1463C160.483 74.5916 157.358 67.1569 151.134 60.8423" stroke="#FAB34A" stroke-width="2"/>
<path d="M151.134 60.842L147.094 56.066C147.066 56.0322 147.029 56.0067 146.988 55.9923C146.947 55.9779 146.902 55.975 146.859 55.9841C146.816 55.9932 146.777 56.0138 146.745 56.0437C146.713 56.0737 146.69 56.1118 146.678 56.154C146.545 56.602 146.643 56.9673 146.974 57.25C147.203 57.442 147.19 57.6126 146.934 57.762C146.366 58.098 145.774 58.258 145.294 58.754C143.398 60.722 141.142 61.762 139.158 63.674C137.958 64.826 136.614 65.794 135.126 66.578C133.694 67.322 132.87 68.482 131.35 69.186C131.131 69.2873 130.929 69.2606 130.742 69.106C128.998 67.682 125.526 69.426 123.878 70.682C123.547 70.9326 123.315 70.858 123.182 70.458C123.059 70.074 122.782 69.674 122.35 69.258C122.182 69.0975 121.957 69.0099 121.725 69.0144C121.493 69.0189 121.272 69.1151 121.11 69.282C113.201 77.4526 104.624 84.8206 95.3818 91.386C86.1418 97.946 74.7259 104.426 64.0139 105.018C63.7845 105.034 63.5765 105.106 63.3898 105.234C62.4138 105.917 61.3259 106.173 60.1259 106.002C59.8379 105.959 59.5738 106.023 59.3338 106.194C58.4432 106.818 57.4379 106.65 56.3179 105.69" stroke="#FEC153" stroke-width="2"/>
<path d="M56.3179 105.69C57.3739 100.746 57.0059 94.6981 57.1019 89.5781" stroke="#F5D9A0" stroke-width="2"/>
<path d="M57.1016 89.5782C57.8696 89.0769 58.5603 88.8929 59.1736 89.0262C59.4349 89.0796 59.5656 89.2395 59.5656 89.5062L59.6295 97.1782C59.6249 97.2883 59.6611 97.3963 59.731 97.4814C59.801 97.5665 59.8998 97.6229 60.0087 97.6398C60.1176 97.6566 60.2289 97.6327 60.3213 97.5726C60.4137 97.5126 60.4807 97.4206 60.5096 97.3142C71.3416 63.5302 104.918 42.7062 140.086 48.4662C141.038 48.6262 142.278 49.4742 143.19 49.4102C143.358 49.3992 143.517 49.3293 143.639 49.2128C143.761 49.0964 143.839 48.9407 143.858 48.7731C143.877 48.6054 143.836 48.4364 143.744 48.2955C143.651 48.1546 143.511 48.0508 143.35 48.0022C140.894 47.2502 138.814 45.6502 136.758 44.9942C128.896 42.4822 120.899 42.1489 112.766 43.9942C112.483 44.0582 112.307 43.9489 112.238 43.6662L111.646 41.3542C111.555 41.0022 111.686 40.7862 112.038 40.7062C113.11 40.4582 113.51 39.8502 114.59 39.7222C121.086 38.9436 126.592 38.8796 131.11 39.5302C140.438 40.8822 146.742 45.9782 154.11 50.5702C155.987 51.7382 159.184 52.6769 163.702 53.3862C164.011 53.4342 164.235 53.3169 164.374 53.0342L164.846 52.0582C164.99 51.7702 164.904 51.5889 164.59 51.5142C161.126 50.6662 157.606 50.3062 154.51 48.6742C151.219 46.9409 148.118 44.9035 145.206 42.5622C139.286 37.8102 133.774 35.5142 126.19 35.3222C120.998 35.1862 114.822 36.9622 109.326 38.1702" stroke="#FECD52" stroke-width="2"/>
<path d="M109.326 38.1704L105.686 35.8344" stroke="#F5D9A0" stroke-width="2"/>
<path d="M109.326 38.1703C109.139 38.6557 108.846 38.933 108.446 39.0023C86.2482 42.8157 70.3629 54.869 60.7896 75.1623C58.5122 79.9836 57.2829 84.789 57.1016 89.5783" stroke="#F5E098" stroke-width="2"/>
<path d="M56.3173 105.691C55.9813 107.907 61.3173 107.531 62.6293 107.611C62.7848 107.621 62.9337 107.68 63.055 107.778C63.1764 107.876 63.2643 108.01 63.3065 108.159C63.3487 108.309 63.3432 108.467 63.2906 108.613C63.2381 108.758 63.1412 108.883 63.0133 108.971C62.2293 109.523 61.8373 110.243 60.9893 110.643C58.1733 111.971 55.4266 113.251 52.7493 114.483C52.53 114.583 52.346 114.748 52.2209 114.954C52.0958 115.16 52.0354 115.399 52.0474 115.641C52.0595 115.882 52.1435 116.113 52.2885 116.306C52.4336 116.499 52.6331 116.644 52.8613 116.723C55.2773 117.555 57.2506 118.936 58.7813 120.867C59.9973 122.395 60.5813 124.667 61.7573 126.595" stroke="#F4D499" stroke-width="2"/>
<path d="M61.7575 126.594C55.1335 132.983 54.7255 139.772 60.5335 146.962C62.6668 149.596 65.3068 151.143 68.4535 151.602C69.7655 151.788 71.1468 151.783 72.5975 151.586" stroke="#F4D6C2" stroke-width="2"/>
<path d="M72.5977 151.586C75.8297 157.274 79.4137 163.154 85.5177 165.802C85.6231 165.849 85.7118 165.927 85.7718 166.025C85.8319 166.124 85.8604 166.239 85.8537 166.354C85.4617 174.618 98.8296 175.962 104.43 175.85" stroke="#F4D499" stroke-width="2"/>
<path d="M104.43 175.85L120.67 180.69" stroke="#F5E0CD" stroke-width="2"/>
<path d="M120.669 180.691L121.261 181.011" stroke="#F5DDCB" stroke-width="2"/>
<path d="M121.262 181.01L121.294 186.946" stroke="#F3C1AD" stroke-width="2"/>
<path d="M121.294 186.946L114.142 188.05" stroke="#F4C9B4" stroke-width="2"/>
<path d="M114.141 188.05L111.005 188.882" stroke="#E89B96" stroke-width="2"/>
<path d="M111.005 188.882C97.0372 191.554 90.7252 202.442 86.1412 214.682C86.0399 214.943 86.0132 215.271 86.0612 215.666" stroke="#F5AD97" stroke-width="2"/>
<path d="M86.062 215.666L86.022 215.938" stroke="#E1DFDC" stroke-width="2"/>
<path d="M181.029 45.954L180.278 46.018C179.99 46.0446 179.806 46.1966 179.726 46.474L179.318 47.834C179.289 47.9322 179.231 48.019 179.15 48.0821C179.07 48.1453 178.972 48.1816 178.87 48.186C173.456 48.3886 168.112 47.898 162.838 46.714C156.102 45.202 150.126 41.042 145.694 38.002C140.84 34.674 135.768 32.6793 130.478 32.018" stroke="#FECD52" stroke-width="2"/>
<path d="M205.838 80.618C206.174 81.3166 206.347 82.0073 206.358 82.69C206.36 82.8166 206.323 82.9406 206.253 83.0451C206.183 83.1496 206.083 83.2296 205.966 83.274C203.203 84.3673 200.36 85.13 197.438 85.562C197.393 85.568 197.351 85.5853 197.316 85.612C197.28 85.6388 197.251 85.6742 197.233 85.715C197.214 85.7558 197.207 85.8006 197.21 85.8452C197.214 85.8898 197.229 85.9327 197.254 85.97C204.398 96.482 213.454 110.922 198.734 120.754C198.72 120.764 198.709 120.778 198.702 120.794C198.695 120.81 198.693 120.828 198.695 120.845C198.698 120.862 198.705 120.879 198.716 120.892C198.727 120.906 198.741 120.916 198.758 120.922C200.126 121.346 202.926 120.282 204.382 119.914C204.67 119.845 204.75 119.941 204.622 120.202C203.502 122.554 201.462 124.453 198.502 125.898" stroke="#F5C791" stroke-width="2"/>
<path d="M198.502 125.898C197.424 124.986 196.272 124.514 195.046 124.482C191.022 124.378 186.534 124.546 183.974 128.05" stroke="#F99B57" stroke-width="2"/>
<path d="M183.973 128.05C182.709 128.77 181.848 129.856 181.389 131.306C181.359 131.406 181.295 131.491 181.208 131.547C181.121 131.603 181.017 131.627 180.913 131.615C180.81 131.603 180.713 131.555 180.639 131.48C180.566 131.405 180.52 131.307 180.509 131.202C180.248 128.072 180.637 124.984 181.677 121.938C182.293 120.146 181.893 118.978 181.933 117.202C182.117 108.474 171.893 100.546 165.925 95.0583C165.879 95.0146 165.82 94.9856 165.757 94.9747C165.694 94.9638 165.629 94.9716 165.571 94.9971C165.512 95.0226 165.462 95.0647 165.427 95.1182C165.392 95.1717 165.373 95.2343 165.373 95.2983V102.794C165.373 103.029 165.28 103.077 165.093 102.938C161.771 100.517 159.088 97.5276 157.045 93.9703" stroke="#F9A25E" stroke-width="2"/>
<path d="M157.045 93.9702L156.549 92.1782C156.464 91.8636 156.317 91.8342 156.109 92.0902C154.003 94.7249 151.509 96.8849 148.629 98.5702C146.741 99.6742 143.261 99.7622 141.837 100.994C135.237 106.706 125.373 109.098 117.253 112.154C116.933 112.272 116.819 112.165 116.909 111.834L117.637 109.258C117.65 109.213 117.651 109.166 117.64 109.12C117.63 109.075 117.608 109.032 117.577 108.997C117.546 108.962 117.507 108.936 117.463 108.92C117.419 108.904 117.372 108.899 117.325 108.906C108.76 110.213 102.381 111.56 98.1894 112.946C97.0214 113.33 84.2214 118.146 82.4534 121.106C79.8134 125.53 79.6054 132.97 80.0054 138.114" stroke="#FAAF6C" stroke-width="2"/>
<path d="M80.0055 138.114C79.9201 137.911 79.8561 137.999 79.8135 138.378" stroke="#FAB977" stroke-width="2"/>
<path d="M79.8133 138.378L78.5493 145.09C78.4693 145.511 78.3387 145.525 78.1573 145.13C76.6747 141.855 75.4373 141.146 74.4453 143.002" stroke="#FAAF6C" stroke-width="2"/>
<path d="M74.4455 143.002C73.5441 142.831 73.4588 142.181 74.1895 141.05C74.3121 140.863 74.2908 140.695 74.1255 140.546C73.1975 139.69 72.8135 137.17 71.5655 137.426C71.3201 137.479 71.0828 137.458 70.8535 137.362C66.4695 135.498 65.1015 139.818 64.8135 143.042" stroke="#F9A25E" stroke-width="2"/>
<path d="M64.8141 143.042C63.1341 140.882 62.9181 138.687 64.1661 136.458" stroke="#FAAF6C" stroke-width="2"/>
<path d="M64.1655 136.458C66.5709 135.717 68.8828 135.589 71.1015 136.074C71.3522 136.133 71.5389 136.274 71.6615 136.498C71.9282 136.989 72.3095 137.253 72.8055 137.29C73.1789 137.317 73.2615 137.175 73.0535 136.866C72.2535 135.655 71.3122 134.874 70.2295 134.522" stroke="#ED8039" stroke-width="2"/>
<path d="M70.2299 134.522C70.7099 132.97 70.142 131.799 68.526 131.01C68.4179 130.959 68.331 130.871 68.2799 130.762C68.2289 130.652 68.2169 130.528 68.246 130.41L68.766 128.314" stroke="#FAAF6C" stroke-width="2"/>
<path d="M68.7656 128.314C69.0963 128.192 69.467 127.821 69.8776 127.202C69.9447 127.098 70.0438 127.019 70.1605 126.976C70.2772 126.932 70.4052 126.928 70.5256 126.962C72.3576 127.49 74.0456 129.954 76.0456 128.786C76.2856 128.648 76.3816 128.442 76.3336 128.17C75.9816 126.128 76.3043 124.432 77.3016 123.082C80.5016 118.752 83.6616 114.392 86.7816 110.002C87.4456 109.074 88.4936 107.914 89.2776 107.426C96.611 102.92 104.136 98.7649 111.854 94.9622C118.702 91.5862 124.662 86.7809 129.734 80.5462C129.81 80.4523 129.905 80.3758 130.013 80.3221C130.121 80.2683 130.24 80.2385 130.36 80.2347C130.481 80.2309 130.601 80.2532 130.713 80.3001C130.824 80.3469 130.924 80.4172 131.006 80.5062C131.267 80.7835 131.584 80.8955 131.958 80.8422C132.075 80.8244 132.195 80.8418 132.303 80.8923C132.41 80.9427 132.501 81.024 132.563 81.1261C132.625 81.2282 132.656 81.3466 132.652 81.4667C132.648 81.5869 132.61 81.7035 132.542 81.8022C127.416 89.0289 120.782 94.2902 112.638 97.5862C103.174 101.41 94.6776 104.466 87.6936 112.386C87.6382 112.448 87.5989 112.522 87.5792 112.603C87.5594 112.684 87.5598 112.768 87.5803 112.849C87.6007 112.931 87.6407 113.006 87.6967 113.069C87.7527 113.131 87.823 113.18 87.9016 113.21C88.1309 113.296 88.403 113.253 88.7176 113.082C99.0296 107.402 110.222 106.21 120.342 99.9382C133.446 91.8102 143.638 85.0262 145.99 68.3462C146.01 68.2155 146.076 68.0963 146.176 68.0095C146.275 67.9228 146.403 67.8741 146.535 67.8722C146.667 67.8703 146.796 67.9152 146.898 67.9991C147 68.0829 147.07 68.2002 147.094 68.3302C148.958 78.5782 142.758 89.3062 134.55 94.7462C129.814 97.8902 123.198 100.522 120.598 105.794C120.502 105.986 120.555 106.05 120.758 105.986C126.507 104.28 130.76 102.648 133.518 101.09C139.894 97.4822 141.998 93.2982 146.398 88.5142C146.452 88.4564 146.523 88.4174 146.601 88.4032C146.678 88.389 146.759 88.4002 146.83 88.4352C146.901 88.4702 146.958 88.5272 146.994 88.5976C147.03 88.668 147.043 88.7482 147.03 88.8262C146.539 91.7595 145.195 94.2102 142.998 96.1782C142.952 96.2155 142.914 96.2614 142.886 96.3134C142.858 96.3653 142.841 96.4222 142.835 96.4809C142.829 96.5396 142.834 96.5989 142.851 96.6554C142.868 96.7119 142.896 96.7645 142.934 96.8102C142.971 96.8559 143.017 96.8938 143.069 96.9218C143.121 96.9497 143.178 96.9671 143.236 96.9731C143.295 96.979 143.354 96.9733 143.411 96.9564C143.467 96.9394 143.52 96.9115 143.566 96.8742C150.502 91.8102 157.534 84.4902 156.63 75.6262C156.16 71.0182 154.328 66.0902 151.134 60.8422" stroke="#FAAE43" stroke-width="2"/>
<path d="M165.102 68.7623C169.406 76.1223 167.246 81.3943 166.878 88.8103C166.863 89.1136 166.909 89.4169 167.015 89.7016C167.121 89.9863 167.284 90.2464 167.494 90.4663L181.038 104.634C181.246 104.848 181.472 104.866 181.718 104.69L183.03 103.754C183.129 103.681 183.197 103.573 183.222 103.452C183.247 103.331 183.227 103.205 183.166 103.098C179.704 97.1143 175.414 91.8049 170.294 87.1703C170.059 86.9623 169.896 86.7436 169.806 86.5143C169.783 86.453 169.78 86.386 169.798 86.3232C169.817 86.2604 169.854 86.2051 169.907 86.1656C169.959 86.1261 170.022 86.1044 170.088 86.1038C170.153 86.1032 170.217 86.1237 170.27 86.1623C178.022 92.1383 187.19 102.45 188.118 112.666C188.128 112.775 188.177 112.876 188.256 112.95C188.335 113.025 188.439 113.069 188.548 113.072C188.656 113.076 188.763 113.041 188.847 112.972C188.931 112.903 188.988 112.806 189.006 112.698C189.342 110.77 189.806 108.954 189.406 107.002C187.054 95.3703 180.134 88.4583 170.798 81.4183C170.606 81.2743 170.622 81.1569 170.846 81.0663C173.086 80.1863 183.022 90.5223 184.582 92.4423C186.862 95.2423 188.518 98.6103 189.798 101.93C189.875 102.13 190 102.308 190.163 102.447C190.325 102.587 190.52 102.684 190.729 102.73C190.938 102.776 191.155 102.769 191.361 102.711C191.568 102.652 191.756 102.543 191.91 102.394L193.574 100.778C193.814 100.549 194.006 100.288 194.15 99.9943C194.4 99.4983 194.768 99.1169 195.254 98.8503C195.467 98.7329 195.547 98.5543 195.494 98.3143C194.094 91.8263 184.318 83.2903 179.686 78.7223C178.246 77.2983 178.494 76.8876 180.43 77.4903C187.128 79.5809 193.958 81.0263 200.918 81.8263C201.067 81.8448 201.219 81.8152 201.351 81.7418C201.483 81.6684 201.588 81.5549 201.652 81.4178C201.715 81.2806 201.733 81.1269 201.703 80.9789C201.673 80.8309 201.597 80.6962 201.486 80.5943C194.776 74.3169 186.952 70.0503 178.014 67.7943C177.882 67.7593 177.768 67.6798 177.689 67.5694C177.61 67.459 177.572 67.3246 177.581 67.1893C177.591 67.0539 177.647 66.9261 177.741 66.8278C177.834 66.7294 177.959 66.6667 178.094 66.6503L179.078 66.5383" stroke="#FAAE43" stroke-width="2"/>
<path d="M205.382 74.4266C209.958 81.5892 213.198 88.9866 215.102 96.6186C219.71 115.059 220.07 134.819 215.286 153.211C208.63 178.789 194.275 199.349 172.222 214.891" stroke="#E5E0DD" stroke-width="2"/>
<path d="M172.222 214.89C167.534 200.258 159.558 189.37 143.662 187.73" stroke="#EC9C97" stroke-width="2"/>
<path d="M143.662 187.73L137.11 187.05C136.89 187.028 136.684 186.93 136.527 186.775C136.37 186.619 136.271 186.414 136.246 186.194L135.686 181.114" stroke="#F7C2AD" stroke-width="2"/>
<path d="M135.686 181.114C141.419 180.052 147.057 178.5 152.598 176.458C153.31 176.194 154.006 176.338 154.702 175.994" stroke="#F9DECB" stroke-width="2"/>
<path d="M154.702 175.995C159.998 176.219 165.006 177.107 169.574 173.923C172.326 172.011 173.958 168.235 176.75 165.819C181.006 162.139 185.147 158.323 189.174 154.371C189.435 154.115 189.694 154.115 189.95 154.371L190.398 154.819C190.445 154.866 190.502 154.903 190.564 154.928C190.627 154.952 190.693 154.964 190.76 154.963C190.826 154.961 190.891 154.946 190.952 154.919C191.012 154.891 191.066 154.852 191.11 154.803L193.23 152.427" stroke="#F5C791" stroke-width="2"/>
<path d="M193.229 152.426C198.533 146.658 203.83 140.498 202.206 131.658C201.902 129.994 200.667 128.074 198.502 125.898" stroke="#F7C2AD" stroke-width="2"/>
<path d="M68.7658 128.314L61.7578 126.594" stroke="#FDBE75" stroke-width="2"/>
<path d="M101.222 223.714L99.9496 196.914C99.9482 196.844 99.9228 196.778 99.8777 196.725C99.8326 196.673 99.7704 196.638 99.7015 196.626C99.6325 196.614 99.5608 196.625 99.4983 196.659C99.4358 196.692 99.3862 196.746 99.3576 196.81C99.1736 197.242 98.7816 197.986 98.7016 198.434C97.4109 205.085 96.2643 211.767 95.2616 218.482C95.2199 218.738 95.1031 218.977 94.9256 219.17L93.7656 220.402" stroke="#F16740" stroke-width="2"/>
<path d="M86.0615 215.666L93.7655 220.402" stroke="#EBA08D" stroke-width="2"/>
<path d="M93.7656 220.402L101.222 223.714" stroke="#DE9985" stroke-width="2"/>
<path d="M101.222 223.714C116.47 229.01 134.886 230.362 150.118 224.978" stroke="#EBA08D" stroke-width="2"/>
<path d="M150.118 224.979C157.75 222.691 165.118 219.328 172.222 214.891" stroke="#DE8E8C" stroke-width="2"/>
<path d="M153.286 103.163C153.515 103.637 153.905 103.923 154.454 104.019C159.67 104.947 164.283 106.896 168.294 109.867" stroke="#FEC57E" stroke-width="2"/>
<path d="M173.214 131.93C171.624 132.437 170.251 132.562 169.094 132.306C168.88 132.261 168.688 132.147 168.546 131.981C168.405 131.815 168.323 131.607 168.312 131.389C168.301 131.17 168.362 130.954 168.486 130.772C168.61 130.591 168.79 130.455 168.998 130.386C169.918 130.082 171.822 129.506 171.39 128.074C171.371 128.018 171.338 127.968 171.295 127.929C171.251 127.89 171.198 127.863 171.14 127.851C171.083 127.839 171.023 127.842 170.967 127.86C170.911 127.878 170.861 127.91 170.822 127.954C170.091 128.765 169.195 129.178 168.134 129.194C167.84 129.199 167.619 129.077 167.47 128.826C165.39 125.338 162.491 123.327 158.774 122.794C145.79 120.938 142.126 137.346 152.094 143.186" stroke="#A67365" stroke-width="2"/>
<path d="M152.094 143.186C151.699 144.29 152.427 145.045 154.278 145.45" stroke="#F9DECB" stroke-width="2"/>
<path d="M170.686 165.418C166.046 169.626 160.851 172.975 155.102 175.466C154.91 175.551 154.776 175.727 154.702 175.994" stroke="#FAB775" stroke-width="2"/>
<path d="M135.686 181.114C130.843 181.983 126.035 181.949 121.262 181.01" stroke="#FDB291" stroke-width="2"/>
<path d="M120.67 180.691C120.233 180.099 119.774 179.685 119.294 179.451C119.097 179.36 118.979 179.208 118.942 178.995C118.003 173.875 120.091 170.528 125.206 168.955" stroke="#FED1B1" stroke-width="2"/>
<path d="M125.206 168.954C135.206 170.234 142.91 162.914 140.926 152.842C140.872 152.586 140.723 152.412 140.478 152.322C139.87 152.098 139.235 152.29 138.574 152.898" stroke="#BC7F6E" stroke-width="2"/>
<path d="M138.574 152.898C134.03 154.33 122.446 156.362 118.086 154.074" stroke="#FDB291" stroke-width="2"/>
<path d="M118.086 154.075C118.049 153.675 118.278 153.395 118.774 153.235C119.046 153.149 119.238 152.979 119.35 152.723L119.878 151.531C119.995 151.264 120.195 151.093 120.478 151.019C122.062 150.603 123.419 149.811 124.55 148.643C124.646 148.541 124.63 148.472 124.502 148.435C124.433 148.413 124.366 148.389 124.302 148.363C124.131 148.299 124.094 148.189 124.19 148.035L124.51 147.491" stroke="#FED1B1" stroke-width="2"/>
<path d="M124.509 147.49C128.981 150.242 134.621 144.794 129.261 140.594C129.011 140.397 128.805 140.434 128.645 140.706C128.421 141.09 128.309 141.743 128.309 142.666" stroke="#FEC7A7" stroke-width="2"/>
<path d="M128.31 142.666C128.422 141.189 128.217 139.968 127.694 139.002" stroke="#F9DECB" stroke-width="2"/>
<path d="M127.693 139.002C130.653 133.026 127.893 126.69 127.677 122.162C127.496 118.567 126.549 115.719 124.837 113.618" stroke="#FED1B1" stroke-width="2"/>
<path d="M127.693 139.003C126.952 138.096 126.056 137.789 125.005 138.083C124.744 138.157 124.597 138.328 124.565 138.595C124.349 140.363 124.421 146.747 127.421 145.187" stroke="#F9E1CD" stroke-width="2"/>
<path d="M127.421 145.186C127.853 147.05 125.861 146.754 124.749 146.434C124.451 146.354 124.296 146.466 124.285 146.77C124.28 146.957 124.355 147.197 124.509 147.49" stroke="#FEC9A9" stroke-width="2"/>
<path d="M118.086 154.075L117.302 153.763" stroke="#FDB593" stroke-width="2"/>
<path d="M117.301 153.763L115.301 152.803C115.17 152.739 115.025 152.709 114.879 152.717C114.734 152.725 114.593 152.77 114.469 152.847C114.346 152.925 114.244 153.033 114.174 153.161C114.104 153.289 114.068 153.433 114.069 153.579C114.101 161.685 117.813 166.811 125.205 168.955" stroke="#BC8170" stroke-width="2"/>
<path d="M104.43 175.85C93.1655 170.981 84.6616 163.218 78.9176 152.562C78.1816 151.197 77.7843 149.477 77.7256 147.402" stroke="#FEC880" stroke-width="2"/>
<path d="M77.7256 147.402C78.0243 146.287 78.7282 145.698 79.8375 145.634C79.9708 145.627 80.1006 145.588 80.2166 145.522C80.3325 145.456 80.4316 145.364 80.506 145.253C80.5804 145.142 80.6281 145.016 80.6454 144.883C80.6627 144.751 80.649 144.616 80.6056 144.49C79.9549 142.645 79.6909 140.607 79.8136 138.378" stroke="#FEC9A9" stroke-width="2"/>
<path d="M70.2295 134.522C67.4615 134.298 65.4402 134.944 64.1655 136.458" stroke="#F1906B" stroke-width="2"/>
<path d="M64.8135 143.042C66.3575 143.666 72.9895 145.234 74.4455 143.002" stroke="#FDB290" stroke-width="2"/>
<path d="M77.7257 147.402L72.5977 151.586" stroke="#FDBE75" stroke-width="2"/>
<path d="M130.278 199.682C122.19 200.146 115.638 196.21 114.142 188.05" stroke="#F07864" stroke-width="2"/>
<path d="M143.661 187.73C142.701 195.261 138.24 199.245 130.277 199.682" stroke="#F0705D" stroke-width="2"/>
<path d="M130.278 199.682C128.614 194.29 127.022 190.453 125.502 188.17C124.723 186.997 123.321 186.589 121.294 186.946" stroke="#FC9E7B" stroke-width="2"/>
<path d="M150.118 224.978C143.814 216.394 137.054 206.874 127.67 205.77C119.974 204.858 115.918 200.482 112.118 193.954C111.286 192.519 110.915 190.829 111.006 188.882" stroke="#F15C47" stroke-width="2"/>
<path d="M157.045 93.9703C156.171 96.9196 154.269 99.461 151.341 101.594" stroke="#FDB290" stroke-width="2"/>
<path d="M151.341 101.594C147.496 104.33 144.515 106.316 142.397 107.554C139.045 109.514 135.205 109.722 131.765 111.146C129.392 112.132 127.083 112.956 124.837 113.618" stroke="#FEC7A7" stroke-width="2"/>
<path d="M124.837 113.618C119.92 115.783 114.992 117.05 110.053 117.418C109.589 117.45 109.528 117.311 109.869 117.002C110.709 116.25 115.461 112.898 115.245 112.058C115.231 112.001 115.203 111.948 115.165 111.903C115.127 111.858 115.079 111.823 115.025 111.8C114.97 111.777 114.912 111.766 114.853 111.769C114.794 111.772 114.737 111.789 114.685 111.818C112.317 113.17 110.293 114.266 107.525 114.778C99.5894 116.242 87.5734 119.33 83.7734 127.458C83.7128 127.584 83.6277 127.697 83.5232 127.789C83.4188 127.881 83.297 127.951 83.1654 127.994C82.1947 128.319 81.384 128.869 80.7333 129.642C80.5573 129.855 80.4614 130.098 80.4454 130.37L80.0054 138.114" stroke="#FEC9A9" stroke-width="2"/>
<path d="M183.974 128.05C186.662 126.925 189.347 126.287 192.03 126.138C192.275 126.122 192.48 126.205 192.646 126.386C193.531 127.319 194.579 127.986 195.79 128.386C196.099 128.493 196.254 128.709 196.254 129.034V130.002C196.254 130.263 196.126 130.365 195.87 130.306C194.822 130.058 191.974 128.85 191.646 130.562C191.625 130.666 191.644 130.775 191.698 130.868C191.752 130.96 191.839 131.031 191.942 131.066C192.278 131.183 192.451 131.341 192.462 131.538" stroke="#FC9E7B" stroke-width="2"/>
<path d="M192.461 131.538C189.058 130.114 186.136 130.72 183.693 133.354C183.512 133.546 183.445 133.773 183.493 134.034C183.594 134.616 183.92 134.877 184.469 134.818" stroke="#FDBA99" stroke-width="2"/>
<path d="M184.47 134.818C182.875 136.743 182.32 138.874 182.806 141.21" stroke="#FD8A65" stroke-width="2"/>
<path d="M182.805 141.21C182.197 141.29 181.629 141.525 181.101 141.914C180.888 142.069 180.776 142.279 180.765 142.546L180.581 149.474" stroke="#FC9E7B" stroke-width="2"/>
<path d="M180.582 149.474C178.758 155.853 175.459 161.168 170.686 165.418" stroke="#F9A25E" stroke-width="2"/>
<path d="M170.685 165.418C170.659 164.069 170.645 162.719 170.645 161.37C170.637 159.61 171.637 157.938 171.317 155.994C171.301 155.901 171.261 155.814 171.2 155.742C171.139 155.671 171.06 155.616 170.971 155.585C170.882 155.554 170.786 155.548 170.694 155.566C170.601 155.584 170.516 155.627 170.445 155.69C166.837 158.93 157.997 158.018 153.781 156.618C153.552 156.543 153.373 156.402 153.245 156.194C152.819 155.506 152.093 154.637 151.069 153.586C149.069 151.522 151.037 148.498 151.813 146.418C151.904 146.173 152.075 146.018 152.325 145.954L154.277 145.45" stroke="#FDBA99" stroke-width="2"/>
<path d="M154.277 145.45C159.181 144.89 163.997 144.458 166.677 140.378" stroke="#F8CAB5" stroke-width="2"/>
<path d="M166.677 140.378C167.877 138.906 168.619 137.117 168.901 135.01C168.944 134.717 169.104 134.517 169.381 134.41C170.939 133.834 172.216 133.008 173.213 131.93" stroke="#A55F4E" stroke-width="2"/>
<path d="M173.214 131.93C172.035 128.618 171.606 126.224 171.926 124.746C172.958 120.034 170.366 116.17 169.39 111.722C169.235 111.018 168.87 110.4 168.294 109.866" stroke="#FDBA99" stroke-width="2"/>
<path d="M168.294 109.866C168.331 108.544 167.667 107.312 166.302 106.17C162.102 102.666 158.694 100.33 153.286 103.162" stroke="#FDB167" stroke-width="2"/>
<path d="M153.285 103.162L151.341 101.594" stroke="#FDBA99" stroke-width="2"/>
<path d="M193.229 152.426C193.656 151.21 193.437 150.402 192.573 150.002C192.333 149.89 192.088 149.88 191.837 149.97C188.013 151.384 184.261 151.218 180.581 149.474" stroke="#F99B57" stroke-width="2"/>
<path d="M182.806 141.21C183.878 142.73 185.355 143.645 187.238 143.954C187.279 143.963 187.322 143.958 187.36 143.942C187.399 143.925 187.432 143.897 187.454 143.862C187.477 143.826 187.488 143.785 187.487 143.743C187.485 143.701 187.471 143.66 187.446 143.626C186.166 141.76 186.214 139.88 187.59 137.986C187.803 137.698 188.086 137.528 188.438 137.474C191.424 137.037 193.022 138.218 193.23 141.018C193.246 141.274 193.211 141.522 193.126 141.762L192.638 143.146C192.451 143.68 192.576 143.768 193.014 143.41C196.027 140.952 196.179 138.173 193.47 135.074" stroke="#FD825E" stroke-width="2"/>
<path d="M193.47 135.074C193.955 134.877 194.302 134.472 194.51 133.858C194.595 133.608 194.539 133.394 194.342 133.218L192.462 131.538" stroke="#FDB291" stroke-width="2"/>
<path d="M166.678 140.378C168.142 135.33 166.31 126.658 159.646 126.826C159.31 126.836 159.243 126.978 159.446 127.25C160.39 128.514 161.59 129.634 162.142 131.018C164.838 137.802 160.27 145.898 152.094 143.186" stroke="#A18381" stroke-width="2"/>
<path d="M128.31 142.666C128.209 143.6 127.913 144.44 127.422 145.186" stroke="#F8D7C3" stroke-width="2"/>
<path d="M138.725 153.514C131.664 156.021 124.493 156.349 117.213 154.498" stroke="#FDCAB9" stroke-width="2"/>
<path d="M117.301 153.763L117.213 154.498" stroke="#BA6350" stroke-width="2"/>
<path d="M117.213 154.498C117.037 154.226 116.829 154.538 116.829 154.746C116.637 171.786 140.333 170.714 138.725 153.514" stroke="#BC9695" stroke-width="2"/>
<path d="M138.725 153.514L138.573 152.898" stroke="#BA6350" stroke-width="2"/>
<path d="M193.47 135.074C190.488 133.389 187.488 133.304 184.47 134.818" stroke="#FE9E7C" stroke-width="2"/>
<path d="M86.6782 80.0505C94.3902 78.7305 106.774 69.8344 112.054 63.0584C112.084 63.0189 112.103 62.9717 112.107 62.9221C112.112 62.8726 112.102 62.8228 112.079 62.7785C112.057 62.7342 112.022 62.6972 111.98 62.6717C111.937 62.6462 111.888 62.6333 111.838 62.6344C103.398 62.7064 89.2782 71.1465 85.9742 79.1785C85.9309 79.2844 85.9169 79.4 85.9336 79.5133C85.9502 79.6265 85.9969 79.7332 86.0688 79.8223C86.1407 79.9113 86.2351 79.9794 86.3423 80.0196C86.4495 80.0597 86.5655 80.0704 86.6782 80.0505Z" stroke="#FECD52" stroke-width="2"/>
<path d="M64.782 98.6027C65.0523 98.7048 65.3561 98.7101 65.6762 98.6183C65.9962 98.5265 66.3261 98.3394 66.6472 98.0676C66.9683 97.7959 67.2742 97.4448 67.5474 97.0345C67.8207 96.6241 68.056 96.1625 68.2398 95.6761C68.4236 95.1896 68.5524 94.6878 68.6188 94.1992C68.6852 93.7107 68.6879 93.2451 68.6268 92.8289C68.5657 92.4127 68.4419 92.0541 68.2626 91.7736C68.0832 91.4931 67.8518 91.2962 67.5816 91.194C67.3113 91.0919 67.0075 91.0866 66.6874 91.1784C66.3674 91.2702 66.0374 91.4573 65.7163 91.7291C65.3953 92.0008 65.0894 92.3519 64.8161 92.7623C64.5429 93.1726 64.3076 93.6342 64.1238 94.1207C63.94 94.6071 63.8112 95.109 63.7448 95.5975C63.6784 96.086 63.6757 96.5516 63.7368 96.9678C63.7979 97.384 63.9217 97.7426 64.101 98.0231C64.2803 98.3036 64.5118 98.5006 64.782 98.6027Z" stroke="#FECD52" stroke-width="2"/>
<path d="M91.2452 141.306C92.4665 142.336 92.8479 143.397 92.3892 144.49C92.3594 144.561 92.3144 144.624 92.2574 144.675C92.2004 144.726 92.133 144.764 92.0601 144.785C91.9871 144.807 91.9105 144.812 91.836 144.799C91.7614 144.787 91.6907 144.758 91.6292 144.714L89.7732 143.402C89.5812 143.264 89.4025 143.28 89.2372 143.45C88.9012 143.786 88.7705 144.192 88.8452 144.666C88.8825 144.912 88.8105 145.117 88.6292 145.282L85.5652 148.01C85.4552 148.11 85.3699 148.233 85.3162 148.372C85.2624 148.51 85.2417 148.659 85.2557 148.806C85.2697 148.954 85.318 149.096 85.3967 149.222C85.4755 149.348 85.5825 149.453 85.7092 149.53C86.7279 150.149 87.3572 151.053 87.5972 152.242C87.6399 152.456 87.5572 152.594 87.3492 152.658L86.3492 152.986C86.2869 153.007 86.231 153.044 86.1872 153.093C86.1434 153.141 86.1135 153.201 86.1004 153.265C86.0873 153.328 86.0916 153.394 86.1129 153.455C86.1341 153.516 86.1716 153.569 86.2212 153.61C91.0132 157.65 97.1652 158.57 102.757 155.482C104.685 154.41 107.197 154.106 107.845 151.458C107.899 151.24 107.875 151.032 107.773 150.834C106.84 148.968 105.4 147.786 103.453 147.29C103.32 147.258 103.204 147.176 103.129 147.062C103.053 146.948 103.023 146.809 103.045 146.674C103.205 145.682 99.9172 145.378 99.1012 145.122" stroke="#FEC9A9" stroke-width="2"/>
<path d="M99.1018 145.122C98.9951 144.605 99.1872 144.064 99.6778 143.498" stroke="#FEE8D9" stroke-width="2"/>
<path d="M99.6773 143.499C110.733 145.483 113.597 128.747 104.669 124.747C100.389 122.819 95.3573 124.003 91.7413 126.955C91.5386 127.115 91.3946 127.317 91.3093 127.563L90.7653 129.147C90.7212 129.27 90.6338 129.372 90.52 129.434C90.4062 129.496 90.2741 129.513 90.1493 129.483L88.0453 128.979C87.9783 128.964 87.9081 128.97 87.8444 128.996C87.7808 129.022 87.727 129.067 87.6907 129.125C87.6544 129.183 87.6375 129.25 87.6422 129.317C87.647 129.384 87.6733 129.447 87.7173 129.499C88.3306 130.261 88.7626 131.123 89.0133 132.083C89.0933 132.381 88.9999 132.611 88.7332 132.771C87.7572 133.347 86.72 133.485 85.6213 133.187C85.5366 133.164 85.4467 133.172 85.3675 133.21C85.2884 133.248 85.2253 133.312 85.1896 133.392C85.1539 133.472 85.148 133.562 85.1728 133.646C85.1977 133.731 85.2518 133.803 85.3253 133.851C88.4053 135.835 89.5493 138.187 91.2453 141.307" stroke="#AD6F65" stroke-width="2"/>
<path d="M99.6774 143.498C95.9414 142.178 93.5093 135.946 95.2933 132.266C95.416 132.015 95.6 131.957 95.8453 132.09C97.4453 132.986 99.5573 132.81 99.2373 130.594C99.1093 129.709 98.6 129.301 97.7094 129.37C91.7974 129.834 89.8774 135.858 91.7174 140.922" stroke="#AD848A" stroke-width="2"/>
<path d="M91.7171 140.922C91.7171 140.661 91.5598 140.789 91.2451 141.306" stroke="#AD655A" stroke-width="2"/>
<path d="M99.1018 145.122C95.7151 144.525 93.2538 143.125 91.7178 140.922" stroke="#FEDECE" stroke-width="2"/>
<path d="M159.957 130.816C160.065 130.46 159.997 130.068 159.769 129.724C159.541 129.38 159.171 129.114 158.741 128.983C158.311 128.852 157.855 128.868 157.474 129.027C157.094 129.186 156.819 129.474 156.711 129.83C156.603 130.185 156.671 130.578 156.899 130.921C157.127 131.265 157.497 131.531 157.927 131.662C158.358 131.793 158.813 131.777 159.194 131.618C159.574 131.46 159.849 131.171 159.957 130.816Z" stroke="#A68B8C" stroke-width="2"/>
<path d="M150.085 140.498C154.797 144.682 159.653 143.522 161.741 137.522C162.242 136.088 161.73 135.368 160.205 135.362C156.789 135.362 153.117 137.306 150.245 138.954C150.114 139.029 150.002 139.134 149.919 139.26C149.837 139.387 149.785 139.531 149.77 139.682C149.754 139.833 149.775 139.986 149.829 140.128C149.884 140.27 149.972 140.397 150.085 140.498Z" stroke="#6A2927" stroke-width="2"/>
<path d="M136.238 28.2742C134.339 28.7222 133.03 29.8476 132.31 31.6502C132.214 31.8902 132.038 32.0102 131.782 32.0102L130.478 32.0182C121.718 32.0742 114.686 33.5542 105.686 35.8342L104.99 35.4982C104.75 35.3862 104.558 35.2182 104.414 34.9942C103.96 34.2795 103.32 33.9542 102.494 34.0182C102.259 34.0395 102.094 33.9409 101.998 33.7222L101.758 33.1622C112.942 28.9275 124.435 27.2982 136.238 28.2742Z" fill="#F5E5AF"/>
<path d="M136.238 28.2742C151.365 30.3142 169.061 36.1702 181.029 45.9542L180.278 46.0182C179.99 46.0449 179.806 46.1969 179.726 46.4742L179.318 47.8342C179.289 47.9324 179.231 48.0192 179.15 48.0824C179.07 48.1455 178.972 48.1819 178.87 48.1862C173.456 48.3889 168.112 47.8982 162.838 46.7142C156.101 45.2022 150.126 41.0422 145.694 38.0022C140.84 34.6742 135.768 32.6796 130.478 32.0182L131.781 32.0102C132.037 32.0102 132.214 31.8902 132.31 31.6502C133.03 29.8476 134.339 28.7222 136.238 28.2742Z" fill="#FED44A"/>
<path d="M130.478 32.018C135.769 32.6793 140.841 34.674 145.694 38.002C150.126 41.042 156.102 45.202 162.838 46.714C168.113 47.898 173.457 48.3886 178.87 48.186C178.972 48.1816 179.07 48.1453 179.151 48.0821C179.231 48.019 179.289 47.9322 179.318 47.834L179.726 46.474C179.806 46.1966 179.99 46.0446 180.278 46.018L181.03 45.954C190.134 52.338 197.195 60.2846 202.214 69.794L205.838 80.618C205.246 80.522 204.982 80.1193 205.046 79.41C205.067 79.1273 204.95 78.9273 204.694 78.81C203.798 78.394 203.334 78.378 202.686 77.554C197.721 71.266 193.225 66.3086 189.198 62.682C183.318 57.386 176.534 55.858 168.894 55.01C168.832 55.002 168.77 55.0086 168.711 55.0291C168.652 55.0496 168.599 55.0835 168.555 55.1282C168.511 55.173 168.477 55.2274 168.457 55.2873C168.437 55.3473 168.43 55.4111 168.438 55.474L168.558 56.482C168.571 56.5769 168.619 56.6639 168.692 56.727C168.766 56.7901 168.86 56.8253 168.958 56.826C182.302 56.866 189.534 62.834 196.95 73.298C197.265 73.7406 197.15 73.9753 196.606 74.002C196.526 74.002 196.347 73.922 196.07 73.762C190.699 70.642 185.035 68.234 179.078 66.538L170.854 64.242C170.715 64.2046 170.649 64.2553 170.654 64.394C170.654 64.4953 170.651 64.5966 170.646 64.698C170.625 65.034 170.782 65.2233 171.118 65.266C171.817 65.3566 172.321 65.7086 172.63 66.322C172.731 66.5193 172.726 66.7113 172.614 66.898C171.793 68.354 170.51 68.986 168.766 68.794C168.499 68.762 168.259 68.8313 168.046 69.002C167.161 69.7273 166.179 69.6473 165.102 68.762C162.526 64.2286 158.923 60.618 154.294 57.93C154.279 57.921 154.262 57.918 154.246 57.9214C154.229 57.9247 154.215 57.9343 154.204 57.9485C154.194 57.9627 154.188 57.9805 154.189 57.9991C154.189 58.0176 154.195 58.0356 154.206 58.05C155.246 59.1913 156.305 60.1993 157.382 61.074C162.923 65.5753 165.654 71.2233 165.574 78.018C165.534 82.178 163.606 87.53 162.63 92.074C162.611 92.1628 162.563 92.2429 162.494 92.3021C162.425 92.3613 162.339 92.3963 162.248 92.4017C162.157 92.4072 162.067 92.3827 161.992 92.3322C161.916 92.2817 161.859 92.2079 161.83 92.122C160.734 88.914 160.518 86.994 160.51 83.146C160.483 74.5913 157.358 67.1566 151.134 60.842L147.094 56.066C147.066 56.0322 147.029 56.0067 146.988 55.9923C146.947 55.9779 146.902 55.975 146.859 55.9841C146.816 55.9932 146.777 56.0138 146.745 56.0437C146.713 56.0737 146.69 56.1118 146.678 56.154C146.545 56.602 146.643 56.9673 146.974 57.25C147.203 57.442 147.19 57.6126 146.934 57.762C146.366 58.098 145.774 58.258 145.294 58.754C143.398 60.722 141.142 61.762 139.158 63.674C137.958 64.826 136.614 65.794 135.126 66.578C133.694 67.322 132.87 68.482 131.35 69.186C131.131 69.2873 130.929 69.2606 130.742 69.106C128.998 67.682 125.526 69.426 123.878 70.682C123.547 70.9326 123.315 70.858 123.182 70.458C123.059 70.074 122.782 69.674 122.35 69.258C122.182 69.0975 121.957 69.0099 121.725 69.0144C121.493 69.0189 121.272 69.1151 121.11 69.282C113.201 77.4526 104.625 84.8206 95.3818 91.386C86.1418 97.946 74.7259 104.426 64.0139 105.018C63.7845 105.034 63.5765 105.106 63.3898 105.234C62.4138 105.917 61.3259 106.173 60.1259 106.002C59.8379 105.959 59.5738 106.023 59.3338 106.194C58.4432 106.818 57.4379 106.65 56.3179 105.69C57.3739 100.746 57.0059 94.698 57.1019 89.578C57.8699 89.0766 58.5605 88.8926 59.1739 89.026C59.4352 89.0793 59.5659 89.2393 59.5659 89.506L59.6298 97.178C59.6252 97.2881 59.6613 97.396 59.7313 97.4812C59.8013 97.5663 59.9001 97.6227 60.009 97.6395C60.1179 97.6563 60.2292 97.6324 60.3216 97.5724C60.414 97.5123 60.481 97.4203 60.5099 97.314C71.3419 63.53 104.918 42.706 140.086 48.466C141.038 48.626 142.278 49.474 143.19 49.41C143.358 49.3989 143.517 49.3291 143.64 49.2126C143.762 49.0961 143.839 48.9405 143.858 48.7728C143.877 48.6051 143.837 48.4361 143.744 48.2952C143.651 48.1543 143.511 48.0505 143.35 48.002C140.894 47.25 138.814 45.65 136.758 44.994C128.897 42.482 120.899 42.1486 112.766 43.994C112.483 44.058 112.307 43.9486 112.238 43.666L111.646 41.354C111.555 41.002 111.686 40.786 112.038 40.706C113.11 40.458 113.51 39.85 114.59 39.722C121.086 38.9433 126.593 38.8793 131.11 39.53C140.438 40.882 146.742 45.978 154.11 50.57C155.987 51.738 159.185 52.6766 163.702 53.386C164.011 53.434 164.235 53.3166 164.374 53.034L164.846 52.058C164.99 51.77 164.905 51.5886 164.59 51.514C161.126 50.666 157.606 50.306 154.51 48.674C151.219 46.9406 148.118 44.9033 145.206 42.562C139.286 37.81 133.774 35.514 126.19 35.322C120.998 35.186 114.822 36.962 109.326 38.17L105.686 35.834C114.686 33.554 121.718 32.074 130.478 32.018ZM86.6779 80.05C94.3899 78.73 106.774 69.834 112.054 63.058C112.084 63.0184 112.102 62.9712 112.107 62.9217C112.111 62.8721 112.102 62.8224 112.079 62.7781C112.057 62.7338 112.022 62.6967 111.979 62.6712C111.937 62.6458 111.888 62.6328 111.838 62.634C103.398 62.706 89.2779 71.146 85.9739 79.178C85.9306 79.284 85.9166 79.3996 85.9333 79.5128C85.9499 79.626 85.9966 79.7327 86.0685 79.8218C86.1404 79.9108 86.2348 79.979 86.342 80.0191C86.4492 80.0592 86.5652 80.0699 86.6779 80.05ZM64.7821 98.6023C65.0523 98.7044 65.3562 98.7097 65.6762 98.6179C65.9963 98.5261 66.3262 98.339 66.6473 98.0672C66.9683 97.7955 67.2743 97.4444 67.5475 97.0341C67.8208 96.6237 68.056 96.1621 68.2398 95.6757C68.4237 95.1892 68.5524 94.6874 68.6188 94.1989C68.6853 93.7103 68.688 93.2447 68.6269 92.8285C68.5657 92.4123 68.442 92.0537 68.2626 91.7732C68.0833 91.4927 67.8519 91.2958 67.5816 91.1937C67.3114 91.0915 67.0075 91.0862 66.6875 91.178C66.3675 91.2698 66.0375 91.4569 65.7164 91.7287C65.3953 92.0005 65.0895 92.3515 64.8162 92.7619C64.543 93.1722 64.3077 93.6338 64.1239 94.1203C63.9401 94.6068 63.8112 95.1086 63.7448 95.5971C63.6784 96.0856 63.6757 96.5512 63.7369 96.9674C63.798 97.3836 63.9217 97.7422 64.1011 98.0227C64.2804 98.3032 64.5118 98.5002 64.7821 98.6023Z" fill="#FEC659"/>
<path d="M101.758 33.1625L101.998 33.7225C102.094 33.9412 102.259 34.0398 102.494 34.0185C103.32 33.9545 103.96 34.2798 104.414 34.9945C104.558 35.2185 104.75 35.3865 104.99 35.4985L105.686 35.8345L109.326 38.1705C109.139 38.6558 108.846 38.9332 108.446 39.0025C86.2484 42.8159 70.363 54.8692 60.7897 75.1625C58.5124 79.9838 57.2831 84.7892 57.1017 89.5785C57.0057 94.6985 57.3737 100.747 56.3177 105.691C55.9817 107.907 61.3177 107.531 62.6297 107.611C62.7853 107.621 62.9341 107.68 63.0554 107.778C63.1768 107.876 63.2647 108.01 63.3069 108.159C63.3491 108.309 63.3436 108.467 63.291 108.613C63.2385 108.758 63.1416 108.883 63.0137 108.971C62.2297 109.523 61.8377 110.243 60.9897 110.643C58.1737 111.971 55.4271 113.251 52.7497 114.483C52.5305 114.583 52.3464 114.747 52.2213 114.954C52.0962 115.16 52.0358 115.399 52.0478 115.64C52.0599 115.881 52.1439 116.113 52.2889 116.306C52.434 116.499 52.6335 116.644 52.8617 116.723C55.2777 117.555 57.251 118.936 58.7817 120.867C59.9977 122.395 60.5817 124.666 61.7577 126.594C55.1337 132.984 54.7257 139.773 60.5337 146.963C62.667 149.597 65.3071 151.144 68.4537 151.603C69.7657 151.789 71.1471 151.784 72.5977 151.587C75.8297 157.275 79.4137 163.154 85.5177 165.803C85.6232 165.849 85.7119 165.927 85.7719 166.026C85.8319 166.125 85.8605 166.239 85.8537 166.355C85.4617 174.618 98.8297 175.962 104.43 175.85L120.67 180.691L121.262 181.011L121.294 186.946L114.142 188.05L111.006 188.883C97.0377 191.555 90.7257 202.443 86.1417 214.683C86.0404 214.944 86.0137 215.272 86.0617 215.667L86.0217 215.939C73.1737 208.315 62.3817 198.051 54.4137 185.355C20.4857 131.267 38.7177 57.0665 101.758 33.1625Z" fill="#EBECE6"/>
<path d="M57.1016 89.5782C57.2829 84.7889 58.5122 79.9835 60.7896 75.1622C70.3629 54.8689 86.2482 42.8156 108.446 39.0022C108.846 38.9329 109.139 38.6556 109.326 38.1702C114.822 36.9622 120.998 35.1862 126.19 35.3222C133.774 35.5142 139.286 37.8102 145.206 42.5622C148.118 44.9035 151.219 46.9409 154.51 48.6742C157.606 50.3062 161.126 50.6662 164.59 51.5142C164.904 51.5889 164.99 51.7702 164.846 52.0582L164.374 53.0342C164.235 53.3169 164.011 53.4342 163.702 53.3862C159.184 52.6769 155.987 51.7382 154.11 50.5702C146.742 45.9782 140.438 40.8822 131.11 39.5302C126.592 38.8796 121.086 38.9436 114.59 39.7222C113.51 39.8502 113.11 40.4582 112.038 40.7062C111.686 40.7862 111.555 41.0022 111.646 41.3542L112.238 43.6662C112.307 43.9489 112.483 44.0582 112.766 43.9942C120.899 42.1489 128.896 42.4822 136.758 44.9942C138.814 45.6502 140.894 47.2502 143.35 48.0022C143.511 48.0508 143.651 48.1546 143.744 48.2955C143.836 48.4364 143.877 48.6054 143.858 48.7731C143.839 48.9407 143.761 49.0964 143.639 49.2128C143.517 49.3293 143.358 49.3992 143.19 49.4102C142.278 49.4742 141.038 48.6262 140.086 48.4662C104.918 42.7062 71.3416 63.5302 60.5096 97.3142C60.4807 97.4206 60.4137 97.5126 60.3213 97.5726C60.2289 97.6327 60.1176 97.6566 60.0087 97.6398C59.8998 97.6229 59.801 97.5665 59.731 97.4814C59.6611 97.3963 59.6249 97.2883 59.6295 97.1782L59.5656 89.5062C59.5656 89.2395 59.4349 89.0796 59.1736 89.0262C58.5603 88.8929 57.8696 89.0769 57.1016 89.5782Z" fill="#FED44A"/>
<path d="M205.838 80.6183C206.174 81.317 206.347 82.0076 206.358 82.6903C206.36 82.8169 206.324 82.9409 206.254 83.0455C206.183 83.15 206.083 83.2299 205.966 83.2743C203.203 84.3676 200.361 85.1303 197.438 85.5623C197.394 85.5683 197.352 85.5856 197.316 85.6123C197.28 85.6391 197.251 85.6746 197.233 85.7154C197.215 85.7561 197.207 85.801 197.211 85.8456C197.214 85.8901 197.229 85.9331 197.254 85.9703C204.398 96.4823 213.454 110.922 198.734 120.754C198.72 120.765 198.709 120.778 198.702 120.795C198.695 120.811 198.693 120.828 198.695 120.846C198.698 120.863 198.705 120.879 198.716 120.893C198.727 120.906 198.742 120.916 198.758 120.922C200.126 121.346 202.926 120.282 204.382 119.914C204.67 119.845 204.75 119.941 204.622 120.202C203.502 122.554 201.462 124.453 198.502 125.898C197.425 124.986 196.273 124.514 195.046 124.482C191.022 124.378 186.534 124.546 183.974 128.05C182.71 128.77 181.849 129.856 181.39 131.306C181.359 131.406 181.295 131.491 181.208 131.547C181.122 131.603 181.018 131.627 180.914 131.615C180.81 131.603 180.713 131.555 180.64 131.48C180.566 131.405 180.52 131.307 180.51 131.202C180.249 128.072 180.638 124.984 181.678 121.938C182.294 120.146 181.894 118.978 181.934 117.202C182.118 108.474 171.894 100.546 165.926 95.0583C165.879 95.0146 165.821 94.9855 165.758 94.9747C165.695 94.9638 165.63 94.9716 165.571 94.9971C165.513 95.0226 165.463 95.0647 165.428 95.1182C165.393 95.1717 165.374 95.2343 165.374 95.2983V102.794C165.374 103.029 165.281 103.077 165.094 102.938C161.771 100.517 159.089 97.5276 157.046 93.9703L156.55 92.1783C156.465 91.8636 156.318 91.8343 156.11 92.0903C154.003 94.725 151.51 96.885 148.63 98.5703C146.742 99.6743 143.262 99.7623 141.838 100.994C135.238 106.706 125.374 109.098 117.254 112.154C116.934 112.272 116.819 112.165 116.91 111.834L117.638 109.258C117.651 109.213 117.652 109.166 117.641 109.12C117.631 109.075 117.609 109.032 117.578 108.997C117.547 108.962 117.508 108.936 117.464 108.92C117.42 108.904 117.372 108.899 117.326 108.906C108.761 110.213 102.382 111.56 98.19 112.946C97.022 113.33 84.2221 118.146 82.4541 121.106C79.8141 125.53 79.6061 132.97 80.0061 138.114C79.9207 137.912 79.8567 138 79.8141 138.378L78.5501 145.09C78.4701 145.512 78.3394 145.525 78.1581 145.13C76.6754 141.856 75.438 141.146 74.446 143.002C73.5447 142.832 73.4594 142.181 74.19 141.05C74.3127 140.864 74.2914 140.696 74.1261 140.546C73.1981 139.69 72.8141 137.17 71.5661 137.426C71.3207 137.48 71.0834 137.458 70.8541 137.362C66.4701 135.498 65.1021 139.818 64.8141 143.042C63.1341 140.882 62.9181 138.688 64.1661 136.458C66.5714 135.717 68.8834 135.589 71.1021 136.074C71.3527 136.133 71.5394 136.274 71.6621 136.498C71.9287 136.989 72.3101 137.253 72.8061 137.29C73.1794 137.317 73.2621 137.176 73.0541 136.866C72.2541 135.656 71.3127 134.874 70.23 134.522C70.71 132.97 70.1421 131.8 68.5261 131.01C68.418 130.959 68.331 130.871 68.28 130.762C68.229 130.652 68.217 130.528 68.246 130.41L68.7661 128.314C69.0967 128.192 69.4674 127.821 69.8781 127.202C69.9451 127.098 70.0443 127.019 70.1609 126.976C70.2776 126.933 70.4057 126.928 70.5261 126.962C72.3581 127.49 74.046 129.954 76.046 128.786C76.286 128.648 76.382 128.442 76.334 128.17C75.982 126.128 76.3047 124.432 77.3021 123.082C80.5021 118.752 83.662 114.392 86.782 110.002C87.446 109.074 88.4941 107.914 89.2781 107.426C96.6114 102.92 104.137 98.765 111.854 94.9623C118.702 91.5863 124.662 86.781 129.734 80.5463C129.81 80.4524 129.905 80.3759 130.013 80.3222C130.122 80.2684 130.24 80.2386 130.361 80.2348C130.482 80.231 130.602 80.2533 130.713 80.3002C130.824 80.347 130.924 80.4173 131.006 80.5063C131.267 80.7836 131.585 80.8956 131.958 80.8423C132.076 80.8245 132.196 80.8419 132.303 80.8924C132.411 80.9428 132.501 81.0241 132.563 81.1262C132.625 81.2283 132.656 81.3467 132.653 81.4668C132.649 81.587 132.61 81.7036 132.542 81.8023C127.417 89.029 120.782 94.2903 112.638 97.5863C103.174 101.41 94.678 104.466 87.694 112.386C87.6386 112.448 87.5993 112.523 87.5796 112.603C87.5598 112.684 87.5602 112.769 87.5807 112.85C87.6012 112.931 87.6411 113.006 87.6971 113.069C87.7531 113.132 87.8234 113.18 87.9021 113.21C88.1314 113.296 88.4034 113.253 88.7181 113.082C99.0301 107.402 110.222 106.21 120.342 99.9383C133.446 91.8103 143.638 85.0263 145.99 68.3463C146.01 68.2156 146.076 68.0964 146.176 68.0096C146.276 67.9229 146.403 67.8742 146.535 67.8723C146.668 67.8704 146.796 67.9153 146.898 67.9992C147.001 68.083 147.07 68.2003 147.094 68.3303C148.958 78.5783 142.758 89.3063 134.55 94.7463C129.814 97.8903 123.198 100.522 120.598 105.794C120.502 105.986 120.555 106.05 120.758 105.986C126.507 104.28 130.761 102.648 133.518 101.09C139.894 97.4823 141.998 93.2983 146.398 88.5143C146.452 88.4565 146.523 88.4176 146.601 88.4033C146.679 88.3891 146.759 88.4003 146.83 88.4353C146.901 88.4704 146.959 88.5273 146.995 88.5977C147.031 88.6681 147.043 88.7483 147.03 88.8263C146.539 91.7596 145.195 94.2103 142.998 96.1783C142.952 96.2156 142.914 96.2615 142.886 96.3135C142.859 96.3654 142.841 96.4224 142.835 96.481C142.829 96.5397 142.835 96.599 142.852 96.6555C142.869 96.712 142.897 96.7646 142.934 96.8103C142.971 96.856 143.017 96.8939 143.069 96.9219C143.121 96.9498 143.178 96.9672 143.237 96.9732C143.296 96.9791 143.355 96.9735 143.411 96.9565C143.468 96.9395 143.52 96.9116 143.566 96.8743C150.502 91.8103 157.534 84.4903 156.63 75.6263C156.161 71.0183 154.329 66.0903 151.134 60.8423C157.358 67.157 160.483 74.5916 160.51 83.1463C160.518 86.9943 160.734 88.9143 161.83 92.1223C161.86 92.2082 161.917 92.282 161.992 92.3326C162.068 92.3831 162.158 92.4075 162.248 92.402C162.339 92.3966 162.425 92.3616 162.494 92.3024C162.563 92.2433 162.611 92.1631 162.63 92.0743C163.606 87.5303 165.534 82.1783 165.574 78.0183C165.654 71.2236 162.923 65.5756 157.382 61.0743C156.305 60.1996 155.246 59.1916 154.206 58.0503C154.195 58.0359 154.189 58.0179 154.189 57.9994C154.189 57.9809 154.194 57.963 154.204 57.9488C154.215 57.9347 154.229 57.9251 154.246 57.9217C154.262 57.9183 154.279 57.9214 154.294 57.9303C158.923 60.6183 162.526 64.229 165.102 68.7623C169.406 76.1223 167.246 81.3943 166.878 88.8103C166.863 89.1137 166.91 89.4169 167.016 89.7016C167.122 89.9863 167.284 90.2465 167.494 90.4663L181.038 104.634C181.246 104.848 181.473 104.866 181.718 104.69L183.03 103.754C183.129 103.681 183.198 103.573 183.223 103.452C183.248 103.331 183.228 103.205 183.166 103.098C179.705 97.1143 175.414 91.805 170.294 87.1703C170.059 86.9623 169.897 86.7436 169.806 86.5143C169.783 86.4531 169.781 86.386 169.799 86.3232C169.817 86.2604 169.855 86.2052 169.907 86.1656C169.959 86.1261 170.023 86.1045 170.088 86.1039C170.153 86.1033 170.217 86.1237 170.27 86.1623C178.022 92.1383 187.19 102.45 188.118 112.666C188.128 112.775 188.177 112.876 188.256 112.95C188.336 113.025 188.439 113.069 188.548 113.073C188.657 113.076 188.763 113.041 188.848 112.972C188.932 112.903 188.988 112.806 189.006 112.698C189.342 110.77 189.806 108.954 189.406 107.002C187.054 95.3703 180.134 88.4583 170.798 81.4183C170.606 81.2743 170.622 81.157 170.846 81.0663C173.086 80.1863 183.022 90.5223 184.582 92.4423C186.862 95.2423 188.518 98.6103 189.798 101.93C189.875 102.13 190 102.308 190.163 102.447C190.326 102.587 190.52 102.684 190.729 102.73C190.939 102.776 191.156 102.77 191.362 102.711C191.568 102.652 191.756 102.544 191.91 102.394L193.574 100.778C193.814 100.549 194.006 100.288 194.15 99.9943C194.401 99.4983 194.769 99.117 195.254 98.8503C195.467 98.733 195.547 98.5543 195.494 98.3143C194.094 91.8263 184.318 83.2903 179.686 78.7223C178.246 77.2983 178.494 76.8876 180.43 77.4903C187.129 79.581 193.958 81.0263 200.918 81.8263C201.068 81.8449 201.22 81.8153 201.352 81.7418C201.484 81.6684 201.589 81.5549 201.652 81.4178C201.715 81.2807 201.733 81.127 201.703 80.9789C201.674 80.8309 201.597 80.6962 201.486 80.5943C194.777 74.317 186.953 70.0503 178.014 67.7943C177.883 67.7593 177.768 67.6798 177.689 67.5694C177.61 67.459 177.573 67.3246 177.582 67.1893C177.591 67.054 177.648 66.9262 177.741 66.8278C177.835 66.7294 177.959 66.6667 178.094 66.6503L179.078 66.5383C185.035 68.2343 190.699 70.6423 196.07 73.7623C196.347 73.9223 196.526 74.0023 196.606 74.0023C197.15 73.9756 197.265 73.741 196.95 73.2983C189.534 62.8343 182.302 56.8663 168.958 56.8263C168.86 56.8256 168.766 56.7905 168.693 56.7273C168.619 56.6642 168.571 56.5772 168.558 56.4823L168.438 55.4743C168.43 55.4114 168.437 55.3476 168.457 55.2877C168.477 55.2277 168.511 55.1733 168.555 55.1286C168.599 55.0838 168.652 55.0499 168.711 55.0294C168.77 55.0089 168.832 55.0024 168.894 55.0103C176.534 55.8583 183.318 57.3863 189.198 62.6823C193.225 66.309 197.721 71.2663 202.686 77.5543C203.334 78.3783 203.798 78.3943 204.694 78.8103C204.95 78.9276 205.067 79.1276 205.046 79.4103C204.982 80.1196 205.246 80.5223 205.838 80.6183Z" fill="#F69F3A"/>
<path d="M151.133 60.842C154.328 66.09 156.16 71.018 156.629 75.626C157.533 84.49 150.501 91.81 143.565 96.874C143.52 96.9113 143.467 96.9392 143.411 96.9562C143.354 96.9731 143.295 96.9788 143.236 96.9729C143.177 96.9669 143.12 96.9495 143.069 96.9215C143.017 96.8936 142.971 96.8557 142.933 96.81C142.896 96.7643 142.868 96.7117 142.851 96.6552C142.834 96.5987 142.828 96.5394 142.834 96.4807C142.84 96.422 142.858 96.3651 142.886 96.3131C142.914 96.2612 142.952 96.2153 142.997 96.178C145.195 94.21 146.539 91.7593 147.029 88.826C147.042 88.748 147.03 88.6678 146.994 88.5974C146.958 88.527 146.9 88.47 146.829 88.435C146.758 88.4 146.678 88.3888 146.6 88.403C146.522 88.4172 146.451 88.4561 146.397 88.514C141.997 93.298 139.893 97.482 133.517 101.09C130.76 102.647 126.507 104.279 120.757 105.986C120.555 106.05 120.501 105.986 120.597 105.794C123.197 100.522 129.813 97.89 134.549 94.746C142.757 89.306 148.957 78.578 147.093 68.33C147.069 68.2 147 68.0826 146.898 67.9988C146.795 67.915 146.667 67.8701 146.535 67.872C146.402 67.8739 146.275 67.9226 146.175 68.0093C146.075 68.0961 146.01 68.2153 145.989 68.346C143.637 85.026 133.445 91.81 120.341 99.938C110.221 106.21 99.0293 107.402 88.7173 113.082C88.4027 113.253 88.1306 113.295 87.9013 113.21C87.8227 113.18 87.7524 113.131 87.6964 113.068C87.6404 113.006 87.6004 112.93 87.58 112.849C87.5595 112.768 87.5591 112.684 87.5789 112.603C87.5986 112.522 87.6379 112.448 87.6933 112.386C94.6773 104.466 103.173 101.41 112.637 97.586C120.781 94.29 127.416 89.0286 132.541 81.802C132.61 81.7033 132.648 81.5867 132.652 81.4665C132.656 81.3464 132.624 81.2279 132.562 81.1259C132.5 81.0238 132.41 80.9425 132.302 80.892C132.195 80.8416 132.075 80.8242 131.957 80.842C131.584 80.8953 131.267 80.7833 131.005 80.506C130.924 80.417 130.824 80.3467 130.712 80.2998C130.601 80.253 130.481 80.2307 130.36 80.2345C130.239 80.2383 130.121 80.2681 130.013 80.3218C129.905 80.3756 129.809 80.452 129.733 80.546C124.661 86.7806 118.701 91.586 111.853 94.962C104.136 98.7646 96.6107 102.919 89.2773 107.426C88.4933 107.914 87.4453 109.074 86.7813 110.002C83.6613 114.391 80.5013 118.751 77.3013 123.082C76.304 124.431 75.9813 126.127 76.3333 128.17C76.3813 128.442 76.2853 128.647 76.0453 128.786C74.0453 129.954 72.3573 127.49 70.5253 126.962C70.4049 126.928 70.2769 126.932 70.1602 126.975C70.0435 127.019 69.9444 127.098 69.8773 127.202C69.4667 127.821 69.096 128.191 68.7653 128.314L61.7573 126.594C60.5813 124.666 59.9973 122.394 58.7813 120.866C57.2506 118.935 55.2773 117.554 52.8613 116.722C52.6331 116.644 52.4336 116.499 52.2885 116.306C52.1435 116.113 52.0595 115.881 52.0474 115.64C52.0354 115.399 52.0958 115.16 52.2209 114.953C52.346 114.747 52.53 114.583 52.7493 114.482C55.4266 113.25 58.1733 111.97 60.9893 110.642C61.8373 110.242 62.2293 109.522 63.0133 108.97C63.1412 108.883 63.2381 108.757 63.2906 108.612C63.3432 108.467 63.3487 108.308 63.3065 108.159C63.2643 108.009 63.1764 107.876 63.055 107.778C62.9337 107.679 62.7848 107.621 62.6293 107.61C61.3173 107.53 55.9813 107.906 56.3173 105.69C57.4373 106.65 58.4426 106.818 59.3333 106.194C59.5733 106.023 59.8373 105.959 60.1253 106.002C61.3253 106.173 62.4133 105.917 63.3893 105.234C63.576 105.106 63.784 105.034 64.0133 105.018C74.7253 104.426 86.1413 97.946 95.3813 91.386C104.624 84.8206 113.2 77.4526 121.109 69.282C121.271 69.1151 121.492 69.0189 121.724 69.0144C121.957 69.0099 122.181 69.0975 122.349 69.258C122.781 69.674 123.059 70.074 123.181 70.458C123.315 70.858 123.547 70.9326 123.877 70.682C125.525 69.426 128.997 67.682 130.741 69.106C130.928 69.2606 131.131 69.2873 131.349 69.186C132.869 68.482 133.693 67.322 135.125 66.578C136.613 65.794 137.957 64.826 139.157 63.674C141.141 61.762 143.397 60.722 145.293 58.754C145.773 58.258 146.365 58.098 146.933 57.762C147.189 57.6126 147.203 57.442 146.973 57.25C146.643 56.9673 146.544 56.602 146.677 56.154C146.689 56.1118 146.712 56.0737 146.744 56.0437C146.776 56.0138 146.816 55.9932 146.859 55.9841C146.902 55.975 146.946 55.9779 146.987 55.9923C147.029 56.0067 147.065 56.0322 147.093 56.066L151.133 60.842Z" fill="#FDBC4C"/>
<path d="M86.6782 80.0505C86.5655 80.0704 86.4495 80.0597 86.3423 80.0196C86.2351 79.9794 86.1407 79.9113 86.0688 79.8223C85.9969 79.7332 85.9502 79.6265 85.9336 79.5133C85.9169 79.4 85.9309 79.2844 85.9742 79.1785C89.2782 71.1465 103.398 62.7064 111.838 62.6344C111.888 62.6333 111.937 62.6462 111.98 62.6717C112.022 62.6972 112.057 62.7342 112.079 62.7785C112.102 62.8228 112.112 62.8726 112.107 62.9221C112.103 62.9717 112.084 63.0189 112.054 63.0584C106.774 69.8344 94.3902 78.7305 86.6782 80.0505Z" fill="#FED44A"/>
<path d="M179.078 66.5383L178.094 66.6504C177.959 66.6667 177.834 66.7295 177.741 66.8278C177.647 66.9262 177.591 67.054 177.581 67.1893C177.572 67.3247 177.61 67.4591 177.689 67.5695C177.768 67.6799 177.882 67.7594 178.014 67.7943C186.952 70.0503 194.776 74.317 201.486 80.5943C201.597 80.6963 201.673 80.831 201.703 80.979C201.733 81.127 201.715 81.2807 201.652 81.4178C201.588 81.555 201.483 81.6685 201.351 81.7419C201.219 81.8153 201.067 81.8449 200.918 81.8264C193.958 81.0264 187.128 79.581 180.43 77.4903C178.494 76.8877 178.246 77.2984 179.686 78.7224C184.318 83.2904 194.094 91.8263 195.494 98.3143C195.547 98.5543 195.467 98.733 195.254 98.8504C194.768 99.117 194.4 99.4983 194.15 99.9943C194.006 100.288 193.814 100.549 193.574 100.778L191.91 102.394C191.756 102.544 191.568 102.652 191.361 102.711C191.155 102.77 190.938 102.776 190.729 102.73C190.52 102.684 190.325 102.587 190.163 102.448C190 102.308 189.875 102.13 189.798 101.93C188.518 98.6104 186.862 95.2423 184.582 92.4423C183.022 90.5223 173.086 80.1863 170.846 81.0663C170.622 81.157 170.606 81.2743 170.798 81.4183C180.134 88.4583 187.054 95.3704 189.406 107.002C189.806 108.954 189.342 110.77 189.006 112.698C188.988 112.806 188.931 112.903 188.847 112.972C188.763 113.041 188.656 113.076 188.548 113.073C188.439 113.069 188.335 113.025 188.256 112.95C188.177 112.876 188.128 112.775 188.118 112.666C187.19 102.45 178.022 92.1383 170.27 86.1623C170.217 86.1238 170.153 86.1033 170.088 86.1039C170.022 86.1045 169.959 86.1262 169.907 86.1657C169.854 86.2052 169.817 86.2605 169.798 86.3233C169.78 86.3861 169.783 86.4531 169.806 86.5143C169.896 86.7437 170.059 86.9623 170.294 87.1703C175.414 91.805 179.704 97.1143 183.166 103.098C183.227 103.205 183.247 103.331 183.222 103.452C183.197 103.573 183.129 103.681 183.03 103.754L181.718 104.69C181.472 104.866 181.246 104.848 181.038 104.634L167.494 90.4663C167.284 90.2465 167.121 89.9863 167.015 89.7016C166.909 89.417 166.863 89.1137 166.878 88.8103C167.246 81.3943 169.406 76.1223 165.102 68.7623C166.179 69.6477 167.16 69.7277 168.046 69.0024C168.259 68.8317 168.499 68.7623 168.766 68.7943C170.51 68.9863 171.792 68.3544 172.614 66.8984C172.726 66.7117 172.731 66.5197 172.63 66.3224C172.32 65.709 171.816 65.357 171.118 65.2663C170.782 65.2237 170.624 65.0344 170.646 64.6984C170.651 64.597 170.654 64.4957 170.654 64.3943C170.648 64.2557 170.715 64.205 170.854 64.2423L179.078 66.5383Z" fill="#FDBC4C"/>
<path d="M202.214 69.7938L205.382 74.4258C209.958 81.5884 213.198 88.9858 215.102 96.6178C219.71 115.058 220.07 134.818 215.286 153.21C208.63 178.788 194.275 199.348 172.222 214.89C167.534 200.258 159.558 189.37 143.662 187.73L137.11 187.05C136.89 187.027 136.684 186.93 136.527 186.774C136.37 186.619 136.271 186.414 136.246 186.194L135.686 181.114C141.419 180.052 147.057 178.5 152.598 176.458C153.31 176.194 154.006 176.338 154.702 175.994C159.998 176.218 165.006 177.106 169.574 173.922C172.326 172.01 173.958 168.234 176.75 165.818C181.006 162.138 185.147 158.322 189.174 154.37C189.435 154.114 189.694 154.114 189.95 154.37L190.398 154.818C190.446 154.865 190.503 154.902 190.565 154.927C190.627 154.952 190.693 154.964 190.76 154.962C190.827 154.961 190.892 154.946 190.952 154.918C191.012 154.891 191.066 154.851 191.11 154.802L193.23 152.426C198.534 146.658 203.83 140.498 202.206 131.658C201.902 129.994 200.667 128.074 198.502 125.898C201.462 124.452 203.502 122.554 204.622 120.202C204.75 119.94 204.67 119.844 204.382 119.914C202.926 120.282 200.126 121.346 198.758 120.922C198.742 120.916 198.727 120.906 198.716 120.892C198.705 120.879 198.698 120.862 198.695 120.845C198.693 120.828 198.695 120.81 198.702 120.794C198.709 120.778 198.72 120.764 198.734 120.754C213.454 110.922 204.398 96.4818 197.254 85.9698C197.229 85.9325 197.214 85.8896 197.211 85.845C197.207 85.8004 197.215 85.7556 197.233 85.7148C197.251 85.674 197.28 85.6386 197.316 85.6118C197.352 85.585 197.394 85.5678 197.438 85.5618C200.361 85.1298 203.203 84.3671 205.966 83.2738C206.083 83.2293 206.183 83.1494 206.254 83.0449C206.324 82.9404 206.36 82.8164 206.358 82.6898C206.347 82.0071 206.174 81.3164 205.838 80.6178L202.214 69.7938Z" fill="#F3EEE7"/>
<path d="M64.1234 94.1209C63.3504 96.1668 63.6451 98.1735 64.7817 98.6029C65.9183 99.0324 67.4663 97.7221 68.2394 95.6762C69.0125 93.6304 68.7178 91.6237 67.5812 91.1942C66.4446 90.7647 64.8965 92.0751 64.1234 94.1209Z" fill="#FED44A"/>
<path d="M157.045 93.9702C156.171 96.9196 154.269 99.4609 151.341 101.594C147.496 104.33 144.515 106.317 142.397 107.554C139.045 109.514 135.205 109.722 131.765 111.146C129.392 112.133 127.083 112.957 124.837 113.618C119.92 115.784 114.992 117.05 110.053 117.418C109.589 117.45 109.528 117.312 109.869 117.002C110.709 116.25 115.461 112.898 115.245 112.058C115.231 112.001 115.203 111.948 115.165 111.903C115.127 111.859 115.079 111.823 115.025 111.8C114.97 111.777 114.912 111.767 114.853 111.77C114.794 111.773 114.737 111.789 114.685 111.818C112.317 113.17 110.293 114.266 107.525 114.778C99.5894 116.242 87.5734 119.33 83.7734 127.458C83.7128 127.585 83.6277 127.697 83.5233 127.789C83.4188 127.881 83.297 127.951 83.1654 127.994C82.1947 128.32 81.384 128.869 80.7334 129.642C80.5574 129.856 80.4614 130.098 80.4454 130.37L80.0054 138.114C79.6054 132.97 79.8134 125.53 82.4534 121.106C84.2214 118.146 97.0214 113.33 98.1894 112.946C102.381 111.56 108.76 110.213 117.325 108.906C117.372 108.899 117.419 108.904 117.463 108.92C117.507 108.936 117.546 108.962 117.577 108.997C117.608 109.032 117.63 109.075 117.64 109.12C117.651 109.166 117.65 109.213 117.637 109.258L116.909 111.834C116.819 112.165 116.933 112.272 117.253 112.154C125.373 109.098 135.237 106.706 141.837 100.994C143.261 99.7622 146.741 99.6742 148.629 98.5702C151.509 96.8849 154.003 94.7249 156.109 92.0902C156.317 91.8342 156.464 91.8636 156.549 92.1782L157.045 93.9702Z" fill="#FDBF9E"/>
<path d="M157.045 93.9703C159.088 97.5276 161.771 100.517 165.093 102.938C165.28 103.077 165.373 103.029 165.373 102.794V95.2983C165.373 95.2343 165.392 95.1717 165.427 95.1182C165.462 95.0647 165.512 95.0226 165.571 94.9971C165.629 94.9716 165.694 94.9638 165.757 94.9747C165.82 94.9856 165.879 95.0146 165.925 95.0583C171.893 100.546 182.117 108.474 181.933 117.202C181.893 118.978 182.293 120.146 181.677 121.938C180.637 124.984 180.248 128.072 180.509 131.202C180.52 131.307 180.565 131.405 180.639 131.48C180.713 131.555 180.81 131.603 180.913 131.615C181.017 131.627 181.121 131.603 181.208 131.547C181.294 131.491 181.359 131.406 181.389 131.306C181.848 129.856 182.709 128.77 183.973 128.05C186.661 126.925 189.347 126.288 192.029 126.138C192.275 126.122 192.48 126.205 192.645 126.386C193.531 127.32 194.579 127.986 195.789 128.386C196.099 128.493 196.253 128.709 196.253 129.034V130.002C196.253 130.264 196.125 130.365 195.869 130.306C194.821 130.058 191.973 128.85 191.645 130.562C191.625 130.667 191.643 130.775 191.698 130.868C191.752 130.961 191.839 131.031 191.941 131.066C192.277 131.184 192.451 131.341 192.461 131.538C189.059 130.114 186.136 130.72 183.693 133.354C183.512 133.546 183.445 133.773 183.493 134.034C183.595 134.616 183.92 134.877 184.469 134.818C182.875 136.744 182.32 138.874 182.805 141.21C182.197 141.29 181.629 141.525 181.101 141.914C180.888 142.069 180.776 142.28 180.765 142.546L180.581 149.474C178.757 155.853 175.459 161.168 170.685 165.418C170.659 164.069 170.645 162.72 170.645 161.37C170.637 159.61 171.637 157.938 171.317 155.994C171.301 155.901 171.261 155.815 171.2 155.743C171.139 155.671 171.06 155.617 170.971 155.586C170.882 155.555 170.786 155.548 170.694 155.566C170.601 155.585 170.516 155.628 170.445 155.69C166.837 158.93 157.997 158.018 153.781 156.618C153.552 156.544 153.373 156.402 153.245 156.194C152.819 155.506 152.093 154.637 151.069 153.586C149.069 151.522 151.037 148.498 151.813 146.418C151.904 146.173 152.075 146.018 152.325 145.954L154.277 145.45C159.181 144.89 163.997 144.458 166.677 140.378C167.877 138.906 168.619 137.117 168.901 135.01C168.944 134.717 169.104 134.517 169.381 134.41C170.939 133.834 172.216 133.008 173.213 131.93C172.035 128.618 171.605 126.224 171.925 124.746C172.957 120.034 170.365 116.17 169.389 111.722C169.235 111.018 168.869 110.4 168.293 109.866C168.331 108.544 167.667 107.312 166.301 106.17C162.101 102.666 158.693 100.33 153.285 103.162L151.341 101.594C154.269 99.461 156.171 96.9196 157.045 93.9703Z" fill="#FCA582"/>
<path d="M151.342 101.594L153.286 103.162C153.515 103.636 153.905 103.922 154.454 104.018C159.67 104.946 164.283 106.895 168.294 109.866C168.87 110.399 169.235 111.018 169.39 111.722C170.366 116.17 172.958 120.034 171.926 124.746C171.606 126.223 172.035 128.618 173.214 131.93C171.625 132.436 170.251 132.562 169.094 132.306C168.88 132.261 168.688 132.147 168.547 131.981C168.405 131.815 168.323 131.607 168.312 131.388C168.301 131.17 168.362 130.953 168.486 130.772C168.61 130.591 168.79 130.455 168.998 130.386C169.918 130.082 171.822 129.506 171.39 128.074C171.371 128.018 171.339 127.968 171.295 127.929C171.251 127.89 171.198 127.863 171.14 127.851C171.083 127.838 171.023 127.842 170.967 127.86C170.912 127.878 170.861 127.91 170.822 127.954C170.091 128.764 169.195 129.178 168.134 129.194C167.841 129.199 167.619 129.076 167.47 128.826C165.39 125.338 162.491 123.327 158.774 122.794C145.79 120.938 142.126 137.346 152.094 143.186C151.699 144.29 152.427 145.044 154.278 145.45L152.326 145.954C152.075 146.018 151.905 146.172 151.814 146.418C151.038 148.498 149.07 151.522 151.07 153.586C152.094 154.636 152.819 155.506 153.246 156.194C153.374 156.402 153.553 156.543 153.782 156.618C157.998 158.018 166.838 158.93 170.446 155.69C170.516 155.627 170.602 155.584 170.694 155.566C170.787 155.547 170.883 155.554 170.971 155.585C171.06 155.616 171.14 155.67 171.2 155.742C171.261 155.814 171.302 155.901 171.318 155.994C171.638 157.938 170.638 159.61 170.646 161.37C170.646 162.719 170.659 164.068 170.686 165.418C166.046 169.626 160.851 172.975 155.102 175.466C154.91 175.551 154.777 175.727 154.702 175.994C154.006 176.338 153.31 176.194 152.598 176.458C147.057 178.5 141.419 180.052 135.686 181.114C130.843 181.983 126.035 181.948 121.262 181.01L120.67 180.69C120.233 180.098 119.774 179.684 119.294 179.45C119.097 179.359 118.979 179.207 118.942 178.994C118.003 173.874 120.091 170.527 125.206 168.954C135.206 170.234 142.91 162.914 140.926 152.842C140.873 152.586 140.723 152.412 140.478 152.322C139.87 152.098 139.235 152.29 138.574 152.898C134.03 154.33 122.446 156.362 118.086 154.074C118.049 153.674 118.278 153.394 118.774 153.234C119.046 153.148 119.238 152.978 119.35 152.722L119.878 151.53C119.995 151.263 120.195 151.092 120.478 151.018C122.062 150.602 123.419 149.81 124.55 148.642C124.646 148.54 124.63 148.471 124.502 148.434C124.433 148.412 124.366 148.388 124.302 148.362C124.131 148.298 124.094 148.188 124.19 148.034L124.51 147.49C128.982 150.242 134.622 144.794 129.262 140.594C129.011 140.396 128.806 140.434 128.646 140.706C128.422 141.09 128.31 141.743 128.31 142.666C128.422 141.188 128.217 139.967 127.694 139.002C130.654 133.026 127.894 126.69 127.678 122.162C127.497 118.567 126.55 115.719 124.838 113.618C127.083 112.956 129.393 112.132 131.766 111.146C135.206 109.722 139.046 109.514 142.398 107.554C144.515 106.316 147.497 104.33 151.342 101.594Z" fill="#FECEAF"/>
<path d="M168.294 109.866C164.283 106.896 159.67 104.946 154.454 104.018C153.905 103.922 153.515 103.637 153.286 103.162C158.694 100.33 162.102 102.666 166.302 106.17C167.667 107.312 168.331 108.544 168.294 109.866Z" fill="#FDBC4C"/>
<path d="M124.838 113.618C126.55 115.719 127.496 118.567 127.678 122.162C127.894 126.69 130.654 133.026 127.694 139.002C126.952 138.095 126.056 137.789 125.006 138.082C124.744 138.157 124.598 138.327 124.566 138.594C124.35 140.362 124.422 146.746 127.422 145.186C127.854 147.05 125.862 146.754 124.75 146.434C124.451 146.354 124.296 146.466 124.286 146.77C124.28 146.957 124.355 147.197 124.51 147.49L124.19 148.034C124.094 148.189 124.131 148.298 124.302 148.362C124.366 148.389 124.432 148.413 124.502 148.434C124.63 148.471 124.646 148.541 124.55 148.642C123.419 149.81 122.062 150.602 120.478 151.018C120.195 151.093 119.995 151.263 119.878 151.53L119.35 152.722C119.238 152.978 119.046 153.149 118.774 153.234C118.278 153.394 118.048 153.674 118.086 154.074L117.302 153.762L115.302 152.802C115.171 152.738 115.025 152.708 114.88 152.716C114.734 152.724 114.593 152.769 114.469 152.847C114.346 152.924 114.244 153.032 114.174 153.16C114.104 153.288 114.068 153.432 114.07 153.578C114.102 161.685 117.814 166.81 125.206 168.954C120.091 170.527 118.003 173.874 118.942 178.994C118.979 179.207 119.096 179.359 119.294 179.45C119.774 179.685 120.232 180.098 120.67 180.69L104.43 175.85C93.1655 170.981 84.6616 163.218 78.9176 152.562C78.1816 151.197 77.7843 149.477 77.7256 147.402C78.0243 146.287 78.7282 145.698 79.8375 145.634C79.9708 145.626 80.1006 145.588 80.2166 145.522C80.3325 145.456 80.4316 145.364 80.506 145.253C80.5804 145.142 80.6281 145.015 80.6454 144.883C80.6627 144.751 80.649 144.616 80.6056 144.49C79.9549 142.645 79.6909 140.607 79.8136 138.378C79.8562 137.999 79.9202 137.911 80.0056 138.114L80.4456 130.37C80.4616 130.098 80.5575 129.855 80.7335 129.642C81.3842 128.869 82.1949 128.319 83.1656 127.994C83.2972 127.951 83.4189 127.881 83.5234 127.789C83.6279 127.697 83.713 127.584 83.7736 127.458C87.5736 119.33 99.5896 116.242 107.526 114.778C110.294 114.266 112.318 113.17 114.686 111.818C114.737 111.789 114.794 111.772 114.853 111.769C114.912 111.766 114.971 111.777 115.025 111.8C115.079 111.823 115.127 111.858 115.165 111.903C115.204 111.948 115.231 112.001 115.246 112.058C115.462 112.898 110.71 116.25 109.87 117.002C109.528 117.311 109.59 117.45 110.054 117.418C114.992 117.05 119.92 115.783 124.838 113.618ZM91.2456 141.306C92.4669 142.335 92.8482 143.397 92.3896 144.49C92.3598 144.56 92.3147 144.624 92.2578 144.675C92.2008 144.726 92.1333 144.763 92.0604 144.785C91.9875 144.806 91.9109 144.811 91.8363 144.799C91.7618 144.787 91.6911 144.758 91.6295 144.714L89.7736 143.402C89.5816 143.263 89.4029 143.279 89.2375 143.45C88.9015 143.786 88.7709 144.191 88.8456 144.666C88.8829 144.911 88.8109 145.117 88.6295 145.282L85.5656 148.01C85.4555 148.109 85.3702 148.233 85.3165 148.371C85.2628 148.51 85.2421 148.658 85.2561 148.806C85.27 148.954 85.3183 149.096 85.3971 149.222C85.4758 149.347 85.5828 149.453 85.7096 149.53C86.7282 150.149 87.3576 151.053 87.5976 152.242C87.6402 152.455 87.5576 152.594 87.3496 152.658L86.3496 152.986C86.2872 153.007 86.2313 153.043 86.1875 153.092C86.1438 153.141 86.1138 153.2 86.1007 153.264C86.0877 153.328 86.092 153.394 86.1132 153.454C86.1345 153.515 86.1719 153.569 86.2216 153.61C91.0136 157.65 97.1656 158.57 102.758 155.482C104.686 154.41 107.198 154.106 107.846 151.458C107.899 151.239 107.875 151.031 107.774 150.834C106.84 148.967 105.4 147.786 103.454 147.29C103.32 147.257 103.205 147.176 103.129 147.062C103.053 146.948 103.024 146.809 103.046 146.674C103.206 145.682 99.9176 145.378 99.1016 145.122C98.9949 144.605 99.1869 144.063 99.6776 143.498C110.734 145.482 113.598 128.746 104.67 124.746C100.39 122.818 95.3576 124.002 91.7416 126.954C91.5389 127.114 91.3949 127.317 91.3096 127.562L90.7656 129.146C90.7215 129.269 90.6341 129.371 90.5203 129.433C90.4065 129.495 90.2744 129.513 90.1496 129.482L88.0456 128.978C87.9786 128.963 87.9084 128.969 87.8447 128.995C87.7811 129.022 87.7273 129.067 87.691 129.124C87.6547 129.182 87.6378 129.249 87.6425 129.316C87.6473 129.383 87.6736 129.447 87.7176 129.498C88.3309 130.261 88.7629 131.122 89.0136 132.082C89.0936 132.381 89.0002 132.61 88.7335 132.77C87.7575 133.346 86.7202 133.485 85.6216 133.186C85.5369 133.163 85.447 133.171 85.3678 133.209C85.2887 133.247 85.2256 133.311 85.1899 133.391C85.1542 133.471 85.1483 133.562 85.1731 133.646C85.198 133.73 85.2521 133.802 85.3256 133.85C88.4056 135.834 89.5496 138.186 91.2456 141.306Z" fill="#FED3B3"/>
<path d="M173.214 131.93C172.216 133.007 170.939 133.834 169.382 134.41C169.104 134.517 168.944 134.717 168.902 135.01C168.619 137.117 167.878 138.906 166.678 140.378C168.142 135.33 166.31 126.658 159.646 126.826C159.31 126.837 159.243 126.978 159.446 127.25C160.39 128.514 161.59 129.634 162.142 131.018C164.838 137.802 160.27 145.898 152.094 143.186C142.126 137.346 145.79 120.938 158.774 122.794C162.491 123.327 165.39 125.338 167.47 128.826C167.619 129.077 167.84 129.199 168.134 129.194C169.195 129.178 170.091 128.765 170.822 127.954C170.861 127.91 170.911 127.878 170.967 127.86C171.023 127.842 171.083 127.839 171.14 127.851C171.198 127.863 171.251 127.89 171.295 127.929C171.338 127.968 171.371 128.018 171.39 128.074C171.822 129.506 169.918 130.082 168.998 130.386C168.79 130.455 168.61 130.591 168.486 130.772C168.362 130.954 168.301 131.17 168.312 131.389C168.323 131.607 168.405 131.815 168.546 131.981C168.688 132.147 168.88 132.261 169.094 132.306C170.251 132.562 171.624 132.437 173.214 131.93ZM159.956 130.815C160.064 130.46 159.997 130.067 159.769 129.723C159.541 129.38 159.171 129.113 158.741 128.982C158.31 128.852 157.855 128.867 157.474 129.026C157.093 129.185 156.819 129.474 156.711 129.829C156.603 130.184 156.67 130.577 156.898 130.92C157.126 131.264 157.496 131.531 157.927 131.661C158.357 131.792 158.813 131.776 159.193 131.618C159.574 131.459 159.848 131.17 159.956 130.815ZM150.086 140.498C154.798 144.682 159.654 143.522 161.742 137.522C162.243 136.087 161.731 135.367 160.206 135.362C156.79 135.362 153.118 137.306 150.246 138.954C150.114 139.028 150.002 139.133 149.92 139.26C149.837 139.386 149.786 139.531 149.77 139.682C149.755 139.832 149.775 139.985 149.83 140.127C149.885 140.269 149.972 140.396 150.086 140.498Z" fill="#4E181A"/>
<path d="M99.6773 143.499C95.9413 142.179 93.5093 135.947 95.2933 132.267C95.4159 132.016 95.5999 131.957 95.8453 132.091C97.4453 132.987 99.5573 132.811 99.2373 130.595C99.1093 129.709 98.5999 129.301 97.7093 129.371C91.7973 129.835 89.8773 135.859 91.7173 140.923C91.7173 140.661 91.5599 140.789 91.2453 141.307C89.5493 138.187 88.4053 135.835 85.3253 133.851C85.2518 133.803 85.1977 133.731 85.1728 133.646C85.148 133.562 85.1539 133.472 85.1896 133.392C85.2253 133.312 85.2884 133.248 85.3675 133.21C85.4467 133.172 85.5366 133.164 85.6213 133.187C86.72 133.485 87.7572 133.347 88.7332 132.771C88.9999 132.611 89.0933 132.381 89.0133 132.083C88.7626 131.123 88.3306 130.261 87.7173 129.499C87.6733 129.447 87.647 129.384 87.6422 129.317C87.6375 129.25 87.6544 129.183 87.6907 129.125C87.727 129.067 87.7808 129.022 87.8444 128.996C87.9081 128.97 87.9783 128.964 88.0453 128.979L90.1493 129.483C90.2741 129.513 90.4062 129.496 90.52 129.434C90.6338 129.372 90.7212 129.27 90.7653 129.147L91.3093 127.563C91.3946 127.317 91.5386 127.115 91.7413 126.955C95.3573 124.003 100.389 122.819 104.669 124.747C113.597 128.747 110.733 145.483 99.6773 143.499Z" fill="#5C0B16"/>
<path d="M198.501 125.898C200.666 128.074 201.901 129.994 202.205 131.658C203.829 140.498 198.533 146.658 193.229 152.426C193.656 151.21 193.437 150.402 192.573 150.002C192.333 149.89 192.088 149.879 191.837 149.97C188.013 151.383 184.261 151.218 180.581 149.474L180.765 142.546C180.776 142.279 180.888 142.069 181.101 141.914C181.629 141.525 182.197 141.29 182.805 141.21C183.877 142.73 185.354 143.645 187.237 143.954C187.278 143.962 187.321 143.958 187.36 143.942C187.399 143.925 187.431 143.897 187.454 143.862C187.476 143.826 187.488 143.785 187.486 143.743C187.484 143.7 187.47 143.66 187.445 143.626C186.165 141.759 186.213 139.879 187.589 137.986C187.802 137.698 188.085 137.527 188.437 137.474C191.424 137.037 193.021 138.218 193.229 141.018C193.245 141.274 193.21 141.522 193.125 141.762L192.637 143.146C192.45 143.679 192.576 143.767 193.013 143.41C196.026 140.951 196.178 138.173 193.469 135.074C193.954 134.877 194.301 134.471 194.509 133.858C194.594 133.607 194.538 133.394 194.341 133.218L192.461 131.538C192.45 131.341 192.277 131.183 191.941 131.066C191.838 131.031 191.752 130.961 191.697 130.868C191.643 130.775 191.624 130.667 191.645 130.562C191.973 128.85 194.821 130.058 195.869 130.306C196.125 130.365 196.253 130.263 196.253 130.002V129.034C196.253 128.709 196.098 128.493 195.789 128.386C194.578 127.986 193.53 127.319 192.645 126.386C192.48 126.205 192.274 126.122 192.029 126.138C189.346 126.288 186.661 126.925 183.973 128.05C186.533 124.546 191.021 124.378 195.045 124.482C196.272 124.514 197.424 124.986 198.501 125.898Z" fill="#FB9673"/>
<path d="M61.7575 126.594L68.7655 128.314L68.2455 130.41C68.2164 130.528 68.2284 130.652 68.2794 130.761C68.3305 130.871 68.4174 130.958 68.5255 131.01C70.1415 131.799 70.7094 132.97 70.2294 134.522C67.4614 134.298 65.4402 134.943 64.1655 136.458C62.9175 138.687 63.1335 140.882 64.8135 143.042C66.3575 143.666 72.9895 145.234 74.4455 143.002C75.4375 141.146 76.6748 141.855 78.1575 145.13C78.3388 145.524 78.4695 145.511 78.5495 145.09L79.8135 138.378C79.6908 140.607 79.9548 142.644 80.6055 144.49C80.649 144.616 80.6626 144.751 80.6453 144.883C80.628 145.015 80.5803 145.142 80.5059 145.253C80.4315 145.364 80.3324 145.456 80.2165 145.522C80.1005 145.588 79.9707 145.626 79.8375 145.634C78.7281 145.698 78.0242 146.287 77.7255 147.402L72.5975 151.586C71.1468 151.783 69.7655 151.788 68.4535 151.602C65.3068 151.143 62.6668 149.596 60.5335 146.962C54.7255 139.772 55.1335 132.983 61.7575 126.594Z" fill="#FDBF9E"/>
<path d="M166.678 140.378C163.998 144.458 159.182 144.89 154.278 145.45C152.427 145.044 151.699 144.29 152.094 143.186C160.27 145.898 164.838 137.802 162.142 131.018C161.59 129.634 160.39 128.514 159.446 127.25C159.243 126.978 159.31 126.836 159.646 126.826C166.31 126.658 168.142 135.33 166.678 140.378Z" fill="#F3EEE7"/>
<path d="M157.927 131.662C158.823 131.934 159.732 131.555 159.957 130.815C160.181 130.076 159.637 129.255 158.741 128.983C157.845 128.711 156.936 129.09 156.711 129.829C156.486 130.569 157.031 131.39 157.927 131.662Z" fill="#FEFDFE"/>
<path d="M99.6774 143.498C99.1867 144.063 98.9947 144.605 99.1014 145.122C95.7147 144.525 93.2534 143.125 91.7174 140.922C89.8774 135.858 91.7974 129.834 97.7094 129.37C98.6 129.301 99.1093 129.709 99.2373 130.594C99.5573 132.81 97.4453 132.986 95.8453 132.09C95.6 131.957 95.416 132.015 95.2933 132.266C93.5093 135.946 95.9414 142.178 99.6774 143.498Z" fill="#FEFDFE"/>
<path d="M192.461 131.538L194.341 133.218C194.538 133.394 194.594 133.608 194.509 133.858C194.301 134.472 193.954 134.877 193.469 135.074C190.488 133.389 187.488 133.304 184.469 134.818C183.92 134.877 183.594 134.616 183.493 134.034C183.445 133.773 183.512 133.546 183.693 133.354C186.136 130.72 189.058 130.114 192.461 131.538Z" fill="#FECEAF"/>
<path d="M193.47 135.074C196.179 138.173 196.027 140.952 193.014 143.41C192.576 143.768 192.451 143.68 192.638 143.146L193.126 141.762C193.211 141.522 193.246 141.274 193.23 141.018C193.022 138.218 191.424 137.037 188.438 137.474C188.086 137.528 187.803 137.698 187.59 137.986C186.214 139.88 186.166 141.76 187.446 143.626C187.471 143.66 187.485 143.701 187.487 143.743C187.488 143.785 187.477 143.826 187.454 143.862C187.432 143.897 187.399 143.925 187.36 143.942C187.322 143.958 187.279 143.963 187.238 143.954C185.355 143.645 183.878 142.73 182.806 141.21C182.32 138.874 182.875 136.744 184.47 134.818C187.488 133.304 190.488 133.389 193.47 135.074Z" fill="#FE6E48"/>
<path d="M70.2295 134.522C71.3122 134.874 72.2535 135.656 73.0535 136.866C73.2615 137.176 73.1789 137.317 72.8055 137.29C72.3095 137.253 71.9282 136.989 71.6615 136.498C71.5389 136.274 71.3522 136.133 71.1015 136.074C68.8828 135.589 66.5709 135.717 64.1655 136.458C65.4402 134.944 67.4615 134.298 70.2295 134.522Z" fill="#E46037"/>
<path d="M150.085 140.498C149.972 140.397 149.884 140.27 149.829 140.128C149.775 139.986 149.754 139.833 149.77 139.682C149.785 139.531 149.837 139.387 149.919 139.26C150.002 139.134 150.114 139.029 150.245 138.954C153.117 137.306 156.789 135.362 160.205 135.362C161.73 135.368 162.242 136.088 161.741 137.522C159.653 143.522 154.797 144.682 150.085 140.498Z" fill="#863934"/>
<path d="M74.4455 143.002C72.9895 145.234 66.3575 143.666 64.8135 143.042C65.1015 139.818 66.4695 135.498 70.8535 137.362C71.0828 137.458 71.3201 137.479 71.5655 137.426C72.8135 137.17 73.1975 139.69 74.1255 140.546C74.2908 140.695 74.3121 140.863 74.1895 141.05C73.4588 142.181 73.5441 142.831 74.4455 143.002Z" fill="#FCA582"/>
<path d="M127.693 139.003C128.216 139.968 128.421 141.189 128.309 142.667C128.208 143.6 127.912 144.44 127.421 145.187C124.421 146.747 124.349 140.363 124.565 138.595C124.597 138.328 124.744 138.157 125.005 138.083C126.056 137.789 126.952 138.096 127.693 139.003Z" fill="#F3EEE7"/>
<path d="M124.509 147.49C124.355 147.197 124.28 146.957 124.285 146.77C124.296 146.466 124.451 146.354 124.749 146.434C125.861 146.754 127.853 147.05 127.421 145.186C127.912 144.439 128.208 143.599 128.309 142.666C128.309 141.743 128.421 141.09 128.645 140.706C128.805 140.434 129.011 140.397 129.261 140.594C134.621 144.794 128.981 150.242 124.509 147.49Z" fill="#FDBF9E"/>
<path d="M91.7172 140.922C93.2532 143.125 95.7146 144.525 99.1012 145.122C99.9172 145.378 103.205 145.682 103.045 146.674C103.023 146.809 103.053 146.948 103.129 147.062C103.204 147.176 103.32 147.258 103.453 147.29C105.4 147.786 106.84 148.968 107.773 150.834C107.875 151.032 107.899 151.24 107.845 151.458C107.197 154.106 104.685 154.41 102.757 155.482C97.1652 158.57 91.0132 157.65 86.2212 153.61C86.1716 153.569 86.1341 153.515 86.1129 153.455C86.0916 153.394 86.0873 153.328 86.1004 153.264C86.1135 153.201 86.1434 153.141 86.1872 153.092C86.231 153.044 86.2869 153.007 86.3492 152.986L87.3492 152.658C87.5572 152.594 87.6399 152.456 87.5972 152.242C87.3572 151.053 86.7279 150.149 85.7092 149.53C85.5825 149.453 85.4755 149.348 85.3967 149.222C85.318 149.096 85.2697 148.954 85.2557 148.806C85.2417 148.659 85.2624 148.51 85.3162 148.372C85.3699 148.233 85.4552 148.11 85.5652 148.01L88.6292 145.282C88.8105 145.117 88.8825 144.912 88.8452 144.666C88.7705 144.192 88.9012 143.786 89.2372 143.45C89.4025 143.279 89.5812 143.263 89.7732 143.402L91.6292 144.714C91.6907 144.758 91.7614 144.787 91.836 144.799C91.9105 144.812 91.9871 144.807 92.0601 144.785C92.133 144.764 92.2004 144.726 92.2574 144.675C92.3144 144.624 92.3594 144.561 92.3892 144.49C92.8479 143.397 92.4665 142.336 91.2452 141.306C91.5599 140.789 91.7172 140.661 91.7172 140.922Z" fill="#FDBF9E"/>
<path d="M77.7257 147.402C77.7843 149.477 78.1817 151.197 78.9177 152.562C84.6617 163.218 93.1656 170.981 104.43 175.85C98.8296 175.962 85.4617 174.618 85.8537 166.354C85.8604 166.239 85.8319 166.125 85.7718 166.026C85.7118 165.927 85.6231 165.849 85.5177 165.802C79.4137 163.154 75.8297 157.274 72.5977 151.586L77.7257 147.402Z" fill="#FDBC4C"/>
<path d="M193.23 152.426L191.11 154.802C191.066 154.851 191.012 154.891 190.952 154.919C190.891 154.946 190.826 154.961 190.76 154.963C190.693 154.964 190.627 154.952 190.564 154.927C190.502 154.902 190.445 154.865 190.398 154.818L189.95 154.37C189.694 154.114 189.435 154.114 189.174 154.37C185.147 158.322 181.006 162.138 176.75 165.818C173.958 168.234 172.326 172.01 169.574 173.922C165.006 177.106 159.998 176.218 154.702 175.994C154.776 175.728 154.91 175.552 155.102 175.466C160.851 172.976 166.046 169.626 170.686 165.418C175.459 161.168 178.758 155.853 180.582 149.474C184.262 151.218 188.014 151.384 191.838 149.97C192.088 149.88 192.334 149.89 192.574 150.002C193.438 150.402 193.656 151.21 193.23 152.426Z" fill="#F69F3A"/>
<path d="M125.205 168.954C117.813 166.81 114.101 161.684 114.069 153.578C114.068 153.432 114.104 153.288 114.174 153.16C114.244 153.032 114.346 152.924 114.469 152.846C114.593 152.769 114.734 152.724 114.879 152.716C115.025 152.708 115.17 152.738 115.301 152.802L117.301 153.762L117.213 154.498C117.037 154.226 116.829 154.538 116.829 154.746C116.637 171.786 140.333 170.714 138.725 153.514L138.573 152.898C139.235 152.29 139.869 152.098 140.477 152.322C140.723 152.412 140.872 152.586 140.925 152.842C142.909 162.914 135.205 170.234 125.205 168.954Z" fill="#792F2C"/>
<path d="M138.573 152.898L138.725 153.514C131.664 156.021 124.493 156.349 117.213 154.498L117.301 153.762L118.085 154.074C122.445 156.362 134.029 154.33 138.573 152.898Z" fill="#FB9673"/>
<path d="M138.725 153.514C140.333 170.714 116.637 171.786 116.829 154.746C116.829 154.538 117.037 154.226 117.213 154.498C124.493 156.349 131.664 156.021 138.725 153.514Z" fill="#FEFDFE"/>
<path d="M121.262 181.01C126.035 181.949 130.843 181.983 135.686 181.114L136.246 186.194C136.27 186.414 136.369 186.619 136.526 186.775C136.684 186.931 136.89 187.028 137.11 187.05L143.662 187.73C142.702 195.261 138.24 199.245 130.278 199.682C128.614 194.29 127.022 190.453 125.502 188.17C124.723 186.997 123.32 186.589 121.294 186.946L121.262 181.01Z" fill="#FB9673"/>
<path d="M121.294 186.946C123.32 186.589 124.723 186.997 125.502 188.17C127.022 190.453 128.614 194.29 130.278 199.682C122.19 200.146 115.638 196.21 114.142 188.05L121.294 186.946Z" fill="#FCA582"/>
<path d="M143.662 187.73C159.558 189.37 167.534 200.258 172.222 214.89C165.118 219.328 157.75 222.69 150.118 224.978C143.814 216.394 137.054 206.874 127.67 205.77C119.974 204.858 115.918 200.482 112.118 193.954C111.286 192.52 110.915 190.829 111.006 188.882L114.142 188.05C115.638 196.21 122.19 200.146 130.278 199.682C138.24 199.245 142.702 195.261 143.662 187.73Z" fill="#E44A46"/>
<path d="M111.005 188.882C110.915 190.829 111.285 192.519 112.117 193.954C115.917 200.482 119.973 204.858 127.669 205.77C137.053 206.874 143.813 216.394 150.117 224.978C134.885 230.362 116.469 229.01 101.221 223.714L99.9492 196.914C99.9478 196.844 99.9224 196.778 99.8773 196.725C99.8322 196.673 99.77 196.638 99.7011 196.626C99.6321 196.614 99.5605 196.625 99.498 196.659C99.4354 196.692 99.3858 196.746 99.3572 196.81C99.1732 197.242 98.7812 197.986 98.7012 198.434C97.4106 205.085 96.2639 211.767 95.2612 218.482C95.2195 218.738 95.1027 218.977 94.9252 219.17L93.7652 220.402L86.0612 215.666C86.0132 215.271 86.0399 214.943 86.1412 214.682C90.7252 202.442 97.0372 191.554 111.005 188.882Z" fill="#FE6E48"/>
<path d="M101.222 223.714L93.7656 220.402L94.9256 219.17C95.1031 218.977 95.2199 218.738 95.2616 218.482C96.2643 211.767 97.4109 205.085 98.7016 198.434C98.7816 197.986 99.1736 197.242 99.3576 196.81C99.3862 196.746 99.4358 196.692 99.4983 196.659C99.5608 196.625 99.6325 196.614 99.7015 196.626C99.7704 196.638 99.8326 196.673 99.8777 196.725C99.9228 196.778 99.9482 196.844 99.9496 196.914L101.222 223.714Z" fill="#E46037"/>
</svg>
